<?xml version="1.0" standalone="no"?>
<!DOCTYPE svg PUBLIC "-//W3C//DTD SVG 20010904//EN"
 "http://www.w3.org/TR/2001/REC-SVG-20010904/DTD/svg10.dtd">
<svg version="1.0" xmlns="http://www.w3.org/2000/svg"
 width="700.000000pt" height="700.000000pt" viewBox="0 0 700.000000 700.000000"
 preserveAspectRatio="xMidYMid meet">
<metadata>
Created by potrace 1.11, written by Peter Selinger 2001-2013
</metadata>
<g transform="translate(0.000000,700.000000) scale(0.100000,-0.100000)"
fill="#000000" stroke="none">
<path d="M3098 6995 c-2 -1 -37 -5 -80 -9 -42 -3 -82 -8 -90 -10 -7 -3 -36 -7
-64 -10 -53 -6 -221 -38 -284 -55 -396 -104 -748 -274 -1073 -519 -295 -222
-552 -494 -763 -807 -288 -428 -459 -853 -570 -1410 -3 -17 -17 -119 -39 -280
-9 -72 -18 -271 -18 -395 0 -133 11 -379 18 -390 1 -3 6 -36 9 -75 7 -65 41
-281 51 -315 2 -8 6 -26 9 -40 22 -126 105 -397 178 -580 440 -1110 1392
-1906 2473 -2066 22 -3 51 -8 65 -10 119 -19 479 -25 644 -11 49 5 92 10 95
11 3 2 35 7 70 10 36 4 67 9 70 10 3 2 24 7 46 10 60 10 272 64 340 87 33 12
65 22 70 24 6 1 21 6 35 12 14 6 50 19 80 31 322 120 721 368 975 606 l60 56
3 -343 2 -342 738 0 737 0 0 3338 0 3337 -117 0 c-65 0 -390 0 -723 0 -333 0
-612 0 -620 0 -13 0 -15 -50 -17 -364 l-3 -364 -46 41 c-401 364 -845 605
-1356 737 -112 29 -249 55 -340 65 -26 3 -61 8 -78 11 -32 5 -482 14 -487 9z
m467 -1480 c22 -3 63 -10 91 -16 28 -5 64 -12 80 -15 66 -11 217 -58 304 -94
157 -64 376 -194 494 -292 242 -201 437 -463 556 -743 37 -88 94 -255 104
-305 2 -14 10 -50 16 -80 29 -139 39 -245 38 -425 -2 -361 -61 -631 -203 -920
-268 -549 -754 -926 -1325 -1031 -213 -39 -605 -38 -740 1 -8 3 -33 7 -55 11
-91 13 -300 86 -431 150 -470 229 -839 659 -995 1160 -32 101 -66 250 -76 324
-3 25 -8 63 -12 85 -16 90 -3 453 19 545 5 19 11 53 15 76 3 22 18 85 34 140
136 472 422 868 816 1128 127 84 232 139 361 189 90 35 236 79 304 91 19 3 46
8 60 11 14 3 52 8 85 11 33 4 62 8 64 10 6 5 351 -4 396 -11z"/>
</g>
</svg>
