<svg width="95" height="95" viewBox="0 0 95 95" xmlns="http://www.w3.org/2000/svg"><title>1BCC36EF-803A-45D7-A9C6-AE43CD3BF9B5</title><g fill="none" fill-rule="evenodd"><path d="M46.068 94.792C19.94 94.055-.718 72.197.019 46.068.756 19.938 22.613-.718 48.743.019c26.129.737 46.786 22.596 46.05 48.724-.739 26.128-22.596 46.786-48.725 46.05z" fill="#FFF" fill-rule="nonzero"/><path d="M49.294 45.484V25H34.863v12.384h11.601v8.099L25 68.676v2.083h45.759v-2.083L49.294 45.484zm5.417 10.02l-2.354 1.695-4.479-3.226-4.478 3.226-2.354-1.695 6.832-7.382 6.833 7.382zM37.694 34.553V27.83h8.771v6.723h-8.771zm-8.146 33.375l9.562-10.332 4.291 3.091 4.479-3.227 4.479 3.226 4.291-3.09 9.562 10.331H29.548v.001z" fill="#90C6C2"/></g></svg>