<svg width="95" height="95" viewBox="0 0 95 95" xmlns="http://www.w3.org/2000/svg"><title>A56AC5E8-4B00-4B04-BBD4-C90AFCA3A90E</title><g fill="none" fill-rule="evenodd"><path d="M46.16 94.98C19.98 94.242-.72 72.34.02 46.16.756 19.977 22.657-.72 48.84.02c26.18.737 46.88 22.64 46.14 48.82-.739 26.18-22.64 46.88-48.82 46.14z" fill="#FFF" fill-rule="nonzero"/><g fill="#00948F"><path d="M53.179 70.08c-.457.128-.924.242-1.387.34-1.211.254-1.993 1.476-1.746 2.729.014.072.032.14.051.207.331 1.132 1.447 1.837 2.591 1.597.552-.116 1.11-.253 1.655-.405 1.195-.332 1.901-1.601 1.58-2.837-.322-1.235-1.55-1.963-2.744-1.63zm-15.532-.232c-.442-.188-.88-.389-1.307-.601-1.118-.555-2.498-.143-3.08.92a2.057 2.057 0 0 0-.162 1.63 2.2 2.2 0 0 0 1.13 1.298c.508.252 1.033.493 1.557.716 1.151.488 2.501-.001 3.016-1.096.514-1.096-.003-2.378-1.154-2.867zm7.306 1.346c-.47-.041-.944-.1-1.411-.17-1.22-.188-2.346.729-2.52 2.045-.047.357-.019.707.073 1.032.242.87.933 1.553 1.82 1.69.555.084 1.12.153 1.679.201 1.227.107 2.3-.88 2.398-2.206.101-1.325-.813-2.486-2.04-2.592zm15.41-4.824c-.402.252-.82.496-1.241.727-.926.505-1.323 1.508-1.024 2.406.055.165.133.327.236.48.66.994 2.086 1.314 3.183.716.5-.273.999-.564 1.478-.863 1.055-.659 1.323-1.967.596-2.924-.728-.958-2.171-1.2-3.228-.542zm8.611-5.926c-1.11-.76-2.655-.521-3.454.532-.307.403-.63.801-.96 1.184a2.253 2.253 0 0 0-.454 2.17c.137.432.406.831.8 1.138 1.06.822 2.616.675 3.482-.33.395-.458.781-.934 1.145-1.414.799-1.051.548-2.52-.559-3.28zm2.403-8.353a2.258 2.258 0 0 0-2.8 1.53c-.135.458-.283.918-.444 1.365a2.25 2.25 0 0 0 1.361 2.88 2.257 2.257 0 0 0 2.886-1.358c.192-.534.37-1.08.529-1.624a2.25 2.25 0 0 0-1.532-2.793zm4.625-13.859l-2.93.912c-2.223-6.822-6.904-12.429-13.238-15.834a27.668 27.668 0 0 0-1.94-.947l-.012-.006c-.027-.013-.056-.023-.084-.035-5.774-2.532-12.166-3.011-18.293-1.35-.048.01-.096.02-.144.033a28.203 28.203 0 0 0-1.616.501c-.04.013-.076.03-.114.045a27.464 27.464 0 0 0-13.45 10.07c-.012.016-.026.03-.037.047-.325.457-.64.931-.936 1.408-.02.031-.034.063-.052.094a29.03 29.03 0 0 0-.85 1.475C19.553 39.786 18.5 45.528 19.219 51.2c0 .013.002.025.003.038l.005.028a28.17 28.17 0 0 0 .964 4.519 27.557 27.557 0 0 0 5.852 10.47c.82.919 2.229 1 3.146.178.918-.82.998-2.233.178-3.151a23.061 23.061 0 0 1-3.382-4.963c-.01-.022-.018-.046-.03-.066a24.044 24.044 0 0 1-.604-1.296 23.85 23.85 0 0 1-.892-2.46c-2.92-9.701.805-19.85 8.536-25.524.114-.083.228-.168.343-.249a23.19 23.19 0 0 1 6.673-3.254 23.183 23.183 0 0 1 8.144-.948C55.77 25 62.792 29.235 66.733 35.89l.005.012a18.908 18.908 0 0 1 .195.33 23.157 23.157 0 0 1 1.882 4.242l-2.93.912c-.813.253-.892.84-.178 1.303l6.374 4.134c.714.464 1.566.198 1.892-.588l2.912-7.026c.328-.792-.07-1.23-.883-.976z"/><path d="M38.607 47.305c-2.077 1.552-3.495 2.9-4.251 4.041C33.6 52.487 33.148 53.706 33 55h13v-3.563h-6.767c.398-.394.743-.712 1.037-.955.295-.244.878-.668 1.75-1.277 1.468-1.045 2.48-2.002 3.038-2.876.556-.872.835-1.79.835-2.747 0-.902-.242-1.716-.729-2.442-.486-.725-1.152-1.264-2-1.614-.846-.35-2.034-.526-3.56-.526-1.46 0-2.603.184-3.43.554-.825.369-1.466.897-1.92 1.587-.454.691-.765 1.651-.936 2.883l4.34.354c.122-.887.358-1.506.708-1.856.351-.351.803-.527 1.357-.527.532 0 .973.171 1.324.51.352.34.528.75.528 1.23 0 .442-.178.911-.533 1.407-.353.49-1.165 1.212-2.435 2.163z"/><path d="M59.989 55v-2.94H62v-3.392h-2.011V39h-3.88L48 48.465v3.595h8.108V55h3.88zm-8.164-6.332l4.283-4.95v4.95h-4.283z" fill-rule="nonzero"/></g></g></svg>