<svg width="93" height="92" viewBox="0 0 93 92" xmlns="http://www.w3.org/2000/svg"><title>0C38A9A5-697E-4F7A-ADA4-65734C6BC9F3</title><g fill="none" fill-rule="evenodd"><path d="M44.874 91.767C19.423 91.053-.7 69.893.019 44.597.736 19.303 22.027-.694 47.479.02c25.453.713 45.575 21.874 44.857 47.168-.72 25.295-22.01 45.294-47.462 44.58z" fill="#FFF" fill-rule="nonzero"/><path d="M32.213 47.38a3.664 3.664 0 0 0 1.881 2.89c.92.514 1.872.891 2.841 1.143a29.957 29.957 0 0 1-3.338 7.33c-1.7 2.704-1.72 5.965-.057 8.947 2.457 4.395 7.874 7.351 13.482 7.351 3.856 0 7.282-1.761 9.646-4.965 3.384-4.579 4.134-11.338 2.005-18.076-1.975-6.242.663-9.573 2.41-11.005a7.927 7.927 0 0 0 5.49 2.202c4.369 0 7.914-3.528 7.914-7.87 0-4.348-3.545-7.871-7.914-7.871-4.375 0-7.921 3.523-7.921 7.87 0 .609.077 1.206.213 1.777-3.296 2.396-7.106 7.79-4.442 16.22 1.679 5.322 1.167 10.735-1.348 14.13-1.062 1.443-2.98 3.162-6.053 3.162-3.976 0-7.919-2.086-9.584-5.074-.617-1.102-1.124-2.766-.067-4.45 2.368-3.765 3.55-7.273 4.11-9.421a11.849 11.849 0 0 0 3.835-1.273 3.691 3.691 0 0 0 1.923-2.786c5.23-4.697 7.645-13.167 7.784-13.66a2.199 2.199 0 0 0-1.098-2.54c.726-6.356-1.644-9.56-3.073-10.863.11-.614-.135-1.268-.675-1.618l-2.627-1.704a1.32 1.32 0 0 0-1.923.505l-1.25 2.406c-.378.72-.046 1.499.742 1.726l2.97.87c.752.222 1.653-.135 2.08-.788 1.18 1.237 2.885 3.993 2.295 9.252-.803.155-1.5.735-1.732 1.575-.709 2.546-2.773 7.799-5.831 10.953a3.698 3.698 0 0 0-3.083.165c-.648.345-1.28.519-1.93.529h-.133c-.68-.01-1.349-.206-2.031-.582a3.703 3.703 0 0 0-3.042-.247c-2.992-3.162-5.008-8.307-5.708-10.818a2.232 2.232 0 0 0-1.737-1.575c-.585-5.259 1.116-8.015 2.302-9.252.425.654 1.328 1.01 2.078.794l2.969-.871c.783-.232 1.12-1.01.741-1.731L34.08 17.73a1.316 1.316 0 0 0-1.924-.499l-2.627 1.704c-.539.351-.788 1.005-.68 1.613-1.426 1.308-3.794 4.507-3.072 10.868a2.203 2.203 0 0 0-1.099 2.534c.14.484 2.484 8.686 7.536 13.429z" fill="#4395B2"/><path d="M66.571 32.252a3.082 3.082 0 0 1 3.088 3.076 3.085 3.085 0 0 1-3.088 3.076 3.086 3.086 0 0 1-3.094-3.076 3.083 3.083 0 0 1 3.094-3.076z" fill="#FFF" fill-rule="nonzero"/></g></svg>