<svg width="92" height="92" viewBox="0 0 92 92" xmlns="http://www.w3.org/2000/svg"><title>EFDF2D6F-0EAD-4C6B-A9C6-A90CBEBA45D8</title><g fill="none" fill-rule="evenodd"><path d="M44.702 91.981C19.348 91.265-.696 70.056.019 44.701.733 19.348 21.943-.695 47.297.02c25.355.714 45.4 21.925 44.684 47.278-.716 25.354-21.925 45.4-47.28 44.684z" fill="#FFF"/><g fill="#6BACBC"><path d="M56.96 68.672c1.297-.266 2.597-.772 3.862-1.503.422-1.287 1.278-2.615 2.404-3.757 1.115-1.13 2.427-1.992 3.795-2.494 2.272-4.084 2.177-8.404-.322-10.934l-24.323-24.62c-1.27-1.286-3.005-1.965-5.02-1.965-2.795 0-5.888 1.326-8.483 3.638l-.11.098-6.91-7.112a.946.946 0 0 0-1.353-.012.964.964 0 0 0-.285.683.97.97 0 0 0 .274.688l6.92 7.122-.096.109c-4.064 4.657-4.783 10.545-1.673 13.691L49.958 66.92c1.681 1.703 4.206 2.323 7.002 1.752zm7.338-16.256c1.624 1.643 1.126 5.089-1.186 8.194l-.107.145-3.473-3.515c-.642-.649-1.76-.649-2.402 0a1.722 1.722 0 0 0-.498 1.217c0 .46.177.892.498 1.215l3.471 3.514-.143.109c-1.355 1.03-2.798 1.725-4.173 2.007a6.59 6.59 0 0 1-1.32.14c-1.105 0-1.98-.318-2.6-.946-1.925-1.948-.816-6.36 2.417-9.633 1.657-1.679 3.698-2.863 5.596-3.253 1.647-.34 3.064-.063 3.92.806zm-33.344-9.594l-2.912-2.947c-1.925-1.948-.817-6.36 2.417-9.634 2.078-2.105 4.722-3.41 6.9-3.41 1.087 0 1.992.332 2.616.964l2.913 2.949-.286.055c-2.596.507-5.231 2.005-7.42 4.222-2.19 2.215-3.67 4.883-4.172 7.511l-.056.29zm17.2 17.41L35.165 47.088c-1.924-1.95-.817-6.36 2.416-9.635 2.08-2.103 4.722-3.41 6.902-3.41 1.088 0 1.992.333 2.615.964l13.003 13.162-.292.053c-2.68.548-5.28 2.035-7.428 4.209-2.19 2.218-3.67 4.885-4.171 7.512l-.058.29z" fill-rule="nonzero"/><path d="M71.799 62.949l-.001-.001a2.839 2.839 0 0 0-.295-.257 3.111 3.111 0 0 0-.79-.435c-.015-.005-.03-.008-.043-.013a3.326 3.326 0 0 0-.342-.1c-.039-.008-.078-.018-.117-.025a3.464 3.464 0 0 0-.313-.05c-.034-.004-.068-.009-.103-.012a3.95 3.95 0 0 0-.424-.019l-.06.002a4.405 4.405 0 0 0-.477.032 5.859 5.859 0 0 0-.945.193l-.054.014a6.972 6.972 0 0 0-.558.198 7.071 7.071 0 0 0-.459.195c-.013.007-.028.017-.043.022-.142.07-.286.145-.428.225-.033.018-.066.035-.098.054-.11.064-.22.134-.33.205l.004-.007a9.473 9.473 0 0 0-2.073 1.801 9.515 9.515 0 0 0-.762 1.012 8.316 8.316 0 0 0-.806 1.576 6.8 6.8 0 0 0-.301 1.046c-.172.86-.142 1.676.107 2.372.143.4.358.756.646 1.059.015.015.025.032.04.047.092.095.192.179.296.258.03.024.062.044.091.066.08.057.164.11.248.159.031.017.062.036.093.052.115.06.234.113.356.158.015.006.03.008.046.015a3.364 3.364 0 0 0 .457.124c.102.021.207.037.312.049l.104.014c.14.011.281.018.424.017l.06-.001c.129-.002.26-.01.393-.024l.084-.009c.143-.016.29-.04.438-.069l.093-.02c.139-.03.277-.064.418-.104.017-.004.034-.01.05-.015.151-.045.303-.097.455-.154.034-.014.07-.026.105-.041.153-.06.306-.125.458-.198.014-.007.027-.015.042-.02.144-.07.286-.146.43-.226.032-.019.066-.035.096-.055.15-.087.301-.178.448-.276l.084-.058c.136-.092.27-.188.403-.288l.068-.051c.145-.114.289-.233.43-.356l.094-.084A9.142 9.142 0 0 0 72.066 68a7.36 7.36 0 0 0 .223-.528c.662-1.757.542-3.477-.49-4.523zM46.487 45.038a6.996 6.996 0 0 1 1.253-.79c.512-.246.73-.865.488-1.382a1.02 1.02 0 0 0-1.366-.492 9.15 9.15 0 0 0-1.83 1.184l-1.563-1.587a1.016 1.016 0 0 0-1.45-.001 1.047 1.047 0 0 0-.003 1.468l1.56 1.585a9.16 9.16 0 0 0-1.3 2.146 1.043 1.043 0 0 0 .537 1.364 1.025 1.025 0 0 0 1.347-.544 6.991 6.991 0 0 1 .878-1.48l1.583 1.607a1.016 1.016 0 0 0 1.45.004 1.047 1.047 0 0 0 .002-1.468l-1.586-1.614z"/></g></g></svg>