<svg width="95" height="95" viewBox="0 0 95 95" xmlns="http://www.w3.org/2000/svg"><title>B656217F-43BE-4B48-882F-5034359F870E</title><g fill="none" fill-rule="evenodd"><path d="M46.16 94.98C19.98 94.242-.72 72.34.02 46.16.756 19.977 22.657-.72 48.84.02c26.18.737 46.88 22.64 46.14 48.82-.739 26.18-22.64 46.88-48.82 46.14z" fill="#FFF" fill-rule="nonzero"/><path d="M21.186 28.047h49.232v8.95H21.186z"/><path d="M73.614 28.092c0-.804-.633-1.433-1.44-1.433h-9.692v-2.012c0-.804-.634-1.434-1.443-1.434-.807 0-1.44.63-1.44 1.434v2.012H35.836v-2.012c0-.804-.634-1.434-1.443-1.434-.81 0-1.443.63-1.443 1.434v2.012H22.941c-.809 0-1.442.629-1.442 1.433v41.539c0 .752.66 1.388 1.442 1.388h49.233c.807 0 1.44-.63 1.44-1.434V28.092zM70.73 68.196H24.382V38.051H70.73v30.145h.001zm.045-33.01H24.382v-5.66h8.568v1.422c0 .804.633 1.434 1.443 1.434.809 0 1.443-.63 1.443-1.434v-1.421h23.763v1.42c0 .805.633 1.435 1.44 1.435.81 0 1.443-.63 1.443-1.434v-1.421h8.294v5.658z" fill="#4395B2" fill-rule="nonzero"/><path fill="#4395B2" d="M40.504 43.063h2.645v20.266h-2.645zm10.854 0h2.645v20.266h-2.645z"/><path d="M62.361 45.676v15.04H33.254v-15.04h29.107zm2.629-2.613H30.626V63.33H64.99V43.063z" fill="#4395B2" fill-rule="nonzero"/><path fill="#4395B2" d="M32.875 51.882h30.316v2.632H32.875z"/></g></svg>