<svg width="94" height="92" viewBox="0 0 94 92" xmlns="http://www.w3.org/2000/svg"><title>169E8131-C94A-46EF-94D0-264048739506</title><g fill="none" fill-rule="evenodd"><path d="M45.673 91.981C19.77 91.265-.712 70.056.02 44.701.749 19.348 22.419-.695 48.325.02c25.906.714 46.387 21.925 45.656 47.278-.732 25.354-22.402 45.4-48.308 44.684z" fill="#FFF"/><path d="M24.555 67.278s.32-2.887.898-3.012c.577-.126.898-.941.833-1.318-.064-.377.577.313.705-.377.129-.69.321-1.129.705-1.443.384-.314.64-.691.834-1.318.193-.627.32-1.004.833-1.066.513-.063.577-.376.448-.941-.127-.565-.656-1.318.058-1.945.713-.627.455-1.882.455-1.882s.77.941 1.09 0c.321-.941-.576-1.82.642-2.259 1.218-.439 1.602-.439 2.5-1.444.897-1.004 1.539-1.193 2.18-1.945.642-.752 2.565-4.204 2.565-4.204s1.539.439 1.731 0c.192-.439 1.282-1.067 1.603-1.318.321-.251-.32-1.13.321-1.444.64-.313 1.026-.125 1.539-1.004.513-.879.192-.815 1.218-1.192 1.025-.377 3.398-.942 3.719-1.82.32-.878 1.111-.94 1.678-1.004.567-.063 1.08-.941 1.849-1.004.77-.063-.513-.303.897-.936 1.41-.633 1.796-1.198 3.206-1.763 1.41-.564 2.436-1.067 3.013-1.192.576-.125 1.475-1.883 2.501-2.008 1.026-.125 1.475.314 1.603 0 .127-.313.512-1.381 1.346-1.318.834.063 1.668.497 1.988-.002.32-.5 1.475-.813 1.475-.813h1.218s-.962.125-1.218.941c-.257.816-.384 1.506-1.09 1.506-.706 0-.834.25-.962.69-.128.439-.256.565-.897.565-.64 0-.768-.941-1.153.251s.448.627-.578.878-1.026.376-1.026.816c0 .439-.512.502-.705.502-.192 0-1.667.388-1.86.947-.191.559.129.685-1.025.685-1.153 0-1.924.313-1.987.878-.065.564-.705.753-1.09.941-.386.188-1.154.753-1.604.753-.45 0-.256-.125-.961.565s-.128.565-1.09.941c-.962.376-1.539 2.949-2.821 3.263-1.282.314-2.052 1.13-2.308 1.695-.257.564-.769 1.945-1.475 2.071-.705.125-.064 1.066-.961 1.098-.898.031-2.821-.031-2.886.534-.064.564.513.125-.705 1.192s-1.73 1.318-2.436 2.259c-.706.941-1.54.251-1.54 1.192s-.127.565-1.025 1.004c-.898.439-.192 1.192-1.026 1.883-.834.69-3.206 2.322-3.077 4.016.127 1.694-.321 1.317-.705 1.192-.384-.125-.129.564-1.347 1.506-1.218.942-2.115 1.192-2.5 1.82-.385.628-.577 1.004-1.411 1.569-.834.564-1.923 1.82-1.923 1.82h-.259v-.001zm14.223.853s.225-2.027.63-2.115c.405-.088.632-.661.586-.925-.045-.265.406.22.495-.265.09-.484.226-.793.496-1.014.27-.22.45-.485.585-.926.135-.44.225-.705.586-.749.36-.044.405-.264.315-.661-.09-.396-.461-.925.04-1.366.5-.441.32-1.322.32-1.322s.54.661.766 0c.224-.661-.405-1.278.45-1.587.854-.308 1.125-.308 1.756-1.014.63-.705 1.08-.838 1.531-1.366.45-.528 1.8-2.953 1.8-2.953s1.081.309 1.216 0 .9-.749 1.126-.925c.225-.176-.226-.793.225-1.014.45-.221.72-.088 1.081-.705.36-.617.135-.573.855-.837.722-.264 2.386-.661 2.612-1.278.226-.617.781-.661 1.178-.705.398-.044.758-.661 1.298-.705.541-.044-.36-.212.63-.657.991-.445 1.262-.841 2.252-1.238.99-.397 1.711-.75 2.116-.837.404-.087 1.036-1.322 1.756-1.41.72-.088 1.036.22 1.126 0 .09-.221.36-.97.946-.925.586.044 1.171.349 1.396-.002.226-.351 1.036-.57 1.036-.57h.855s-.675.088-.855.661c-.18.573-.27 1.057-.765 1.057-.496 0-.586.176-.676.485-.09.309-.18.396-.63.396s-.54-.661-.81.176c-.271.837.314.441-.406.617s-.72.264-.72.573c0 .309-.36.353-.495.353s-1.17.272-1.306.665c-.134.393.09.481-.72.481-.811 0-1.352.22-1.397.617-.045.397-.495.529-.765.661s-.81.529-1.126.529c-.316 0-.18-.088-.675.396-.496.485-.09.397-.765.661-.676.265-1.081 2.071-1.982 2.292-.9.22-1.44.793-1.62 1.189-.18.397-.54 1.366-1.036 1.455-.496.089-.045.749-.676.771-.63.022-1.98-.021-2.026.375-.045.396.36.088-.495.837s-1.216.926-1.71 1.587c-.496.661-1.082.176-1.082.837s-.09.396-.72.705c-.631.308-.136.837-.721 1.322-.586.484-2.252 1.63-2.161 2.82.09 1.19-.226.925-.496.837-.27-.088-.09.396-.946 1.058-.855.661-1.486.837-1.755 1.278-.27.441-.405.705-.991 1.102-.586.396-1.351 1.278-1.351 1.278h-.18zM22.748 51.56s.225-2.027.63-2.115c.405-.088.63-.661.586-.925-.045-.264.404.22.495-.265.091-.485.225-.792.495-1.014.27-.22.45-.485.585-.925.135-.44.225-.706.586-.749.36-.044.404-.264.315-.661-.09-.397-.461-.926.04-1.366.501-.441.32-1.322.32-1.322s.54.661.766 0c.224-.661-.405-1.278.45-1.587.855-.308 1.126-.308 1.755-1.014.632-.705 1.081-.837 1.532-1.366.45-.528 1.801-2.953 1.801-2.953s1.081.309 1.216 0 .9-.749 1.126-.925c.225-.176-.225-.794.225-1.014.45-.22.721-.088 1.081-.705s.135-.573.855-.837 2.386-.661 2.612-1.278c.226-.617.78-.661 1.178-.705.397-.044.758-.661 1.298-.705.54-.044-.36-.212.63-.657.99-.445 1.262-.841 2.252-1.238.99-.396 1.711-.75 2.116-.837.405-.088 1.036-1.322 1.756-1.41.72-.088 1.035.22 1.125 0 .09-.22.36-.97.946-.925.586.044 1.171.349 1.396-.002.225-.351 1.035-.57 1.035-.57h.855s-.675.088-.855.661c-.18.573-.27 1.057-.765 1.057-.496 0-.586.176-.676.485-.09.309-.18.397-.63.397s-.54-.661-.81.176.315.441-.406.617c-.72.176-.72.264-.72.573 0 .309-.361.353-.495.353-.136 0-1.17.272-1.306.665-.135.393.09.481-.72.481-.81 0-1.35.22-1.396.617-.045.396-.494.529-.765.661-.27.132-.81.528-1.126.528-.316 0-.18-.088-.675.396-.496.485-.09.397-.766.661-.675.265-1.08 2.071-1.98 2.292-.902.22-1.441.793-1.621 1.189-.18.397-.54 1.366-1.036 1.455-.496.089-.044.749-.676.771-.63.022-1.98-.021-2.026.375-.045.396.36.088-.495.837-.856.749-1.216.926-1.71 1.587-.496.661-1.082.176-1.082.837s-.09.396-.721.705c-.63.309-.135.837-.72 1.322-.586.484-2.251 1.631-2.161 2.82.09 1.19-.226.925-.496.837-.27-.088-.09.396-.945 1.058s-1.486.837-1.756 1.278c-.271.441-.405.705-.991 1.102-.586.396-1.351 1.278-1.351 1.278h-.18v-.001z" fill="#00948F"/></g></svg>