<svg width="95" height="95" viewBox="0 0 95 95" xmlns="http://www.w3.org/2000/svg"><title>F4D3233D-F3DA-4E8A-9546-27CCBEAE404A</title><g fill="none"><path d="M46.16 94.98C19.98 94.242-.72 72.34.02 46.16.756 19.977 22.657-.72 48.84.02c26.18.737 46.88 22.64 46.14 48.82-.739 26.18-22.64 46.88-48.82 46.14z" fill="#FFF"/><g fill="#6BACBC"><path d="M19 51.995c0-14.398 10.006-26.089 23.505-27.784v-.916a4.154 4.154 0 0 1-3.974-4.146A4.153 4.153 0 0 1 42.679 15h8.641a4.153 4.153 0 0 1 4.148 4.149 4.154 4.154 0 0 1-3.975 4.146v.916C64.993 25.905 75 37.597 75 51.995 75 67.437 62.44 80 47 80S19 67.437 19 51.995zM41.642 19.15c0 .571.465 1.037 1.037 1.037h1.382c.86 0 1.556.696 1.556 1.556v3.88c0 .815-.63 1.493-1.446 1.55-12.783.91-22.06 11.349-22.06 24.822 0 13.727 11.166 24.893 24.889 24.893 13.723 0 24.889-11.166 24.889-24.893 0-13.473-9.278-23.912-22.061-24.821a1.556 1.556 0 0 1-1.446-1.552v-3.88c0-.859.696-1.555 1.556-1.555h1.382a1.038 1.038 0 0 0 0-2.074h-8.64c-.572 0-1.037.465-1.037 1.037z"/><path d="M52.6 47.452v2.007c0 .177-.057.33-.17.462-.114.131-.278.196-.49.196h-.99v3.866h-2.97v-3.866h-6.447a.893.893 0 0 1-.577-.207.883.883 0 0 1-.325-.52l-.351-1.764 7.414-10.454h3.256v10.28h1.65zm-4.62 0v-4.384a18.493 18.493 0 0 1 .11-1.846l-4.234 6.23h4.124zm-9.94 9.894v7.844h-1.483v-3.33c-.722.177-1.4.285-2.035.329-.635.044-1.19-.001-1.665-.136-.475-.134-.85-.37-1.124-.708-.275-.338-.413-.807-.413-1.405v-2.594h1.49v2.384c0 .378.083.674.246.89.164.217.404.367.72.45.316.082.708.105 1.174.068a11.717 11.717 0 0 0 1.606-.255v-3.538h1.484zm2.66 1.205a4.94 4.94 0 0 1 1.522-.906 5.21 5.21 0 0 1 1.808-.3c.477 0 .9.07 1.271.21.37.14.681.334.934.585.252.25.443.552.571.906.13.355.194.744.194 1.168v4.855h-.665a.73.73 0 0 1-.336-.062c-.08-.043-.141-.126-.186-.252l-.168-.719a7.58 7.58 0 0 1-.656.49 3.88 3.88 0 0 1-1.425.586 4.59 4.59 0 0 1-.888.078c-.33 0-.641-.042-.933-.124a2.223 2.223 0 0 1-.761-.371 1.776 1.776 0 0 1-.513-.626 1.992 1.992 0 0 1-.189-.896c0-.3.092-.587.277-.865.186-.277.485-.523.9-.738.415-.215.956-.391 1.624-.529.666-.137 1.485-.214 2.455-.235v-.592c0-.588-.142-1.035-.429-1.336-.286-.302-.704-.453-1.253-.453-.37 0-.68.04-.929.123a3.802 3.802 0 0 0-.647.277c-.182.102-.34.195-.471.278a.732.732 0 0 1-.391.123.463.463 0 0 1-.261-.071.682.682 0 0 1-.186-.177l-.269-.427zm4.836 3.102c-.689.02-1.277.068-1.762.145-.484.078-.88.178-1.185.303-.306.126-.527.273-.665.442a.884.884 0 0 0-.206.57c0 .2.036.371.11.517a.987.987 0 0 0 .298.354c.127.093.274.16.446.202.17.043.354.065.551.065.264 0 .505-.024.724-.071.218-.048.424-.117.618-.207a3.59 3.59 0 0 0 .555-.322c.176-.125.349-.268.517-.428v-1.57zm8.822-2.834a.616.616 0 0 1-.131.128.32.32 0 0 1-.18.045.514.514 0 0 1-.27-.094 4.794 4.794 0 0 0-.365-.206 3.076 3.076 0 0 0-.532-.208 2.771 2.771 0 0 0-.774-.093c-.409 0-.77.066-1.08.199a2.06 2.06 0 0 0-.782.575 2.51 2.51 0 0 0-.475.91 4.164 4.164 0 0 0-.159 1.196c0 .462.058.87.172 1.23.114.358.276.659.487.903.209.243.463.429.76.557a2.51 2.51 0 0 0 1.004.191c.354 0 .646-.039.876-.116a2.7 2.7 0 0 0 .569-.26c.15-.095.275-.18.376-.26a.489.489 0 0 1 .299-.116.33.33 0 0 1 .278.127l.409.49a2.82 2.82 0 0 1-.614.526 3.862 3.862 0 0 1-.74.365c-.265.098-.542.17-.832.214a5.73 5.73 0 0 1-.884.068 3.902 3.902 0 0 1-1.445-.263 3.303 3.303 0 0 1-1.158-.764 3.51 3.51 0 0 1-.77-1.23c-.185-.487-.277-1.04-.277-1.662 0-.567.086-1.09.257-1.572.173-.482.424-.896.753-1.245.33-.349.738-.621 1.22-.816.483-.196 1.038-.293 1.665-.293.585 0 1.099.086 1.544.259a3.71 3.71 0 0 1 1.183.733l-.384.482zm2.022-.268a4.94 4.94 0 0 1 1.521-.906c.545-.2 1.147-.3 1.809-.3.476 0 .9.07 1.271.21.369.14.68.334.934.585.252.25.442.552.571.906.13.355.194.744.194 1.168v4.855h-.665a.734.734 0 0 1-.336-.062c-.08-.043-.14-.126-.186-.252l-.168-.719a7.58 7.58 0 0 1-.656.49 3.872 3.872 0 0 1-1.425.586 4.607 4.607 0 0 1-.887.078c-.331 0-.642-.042-.934-.124a2.214 2.214 0 0 1-.761-.371 1.776 1.776 0 0 1-.513-.626 1.978 1.978 0 0 1-.189-.896c0-.3.092-.587.277-.865.186-.278.485-.523.9-.738.416-.215.956-.391 1.624-.529.668-.137 1.486-.214 2.457-.235v-.592c0-.588-.143-1.035-.429-1.336-.285-.302-.704-.453-1.253-.453-.37 0-.68.04-.93.123a3.766 3.766 0 0 0-.647.277c-.182.102-.339.195-.47.278a.732.732 0 0 1-.392.123.465.465 0 0 1-.261-.071.698.698 0 0 1-.186-.177l-.27-.427zm4.836 3.102c-.69.02-1.277.068-1.762.145-.485.078-.88.178-1.186.303-.307.126-.527.273-.665.442a.884.884 0 0 0-.205.57c0 .2.035.371.11.517a.98.98 0 0 0 .299.354c.125.093.274.16.444.202.172.043.354.065.552.065.263 0 .503-.024.724-.071a2.97 2.97 0 0 0 .617-.207c.194-.09.379-.197.556-.322.177-.125.348-.268.517-.428v-1.57z"/></g></g></svg>