<svg width="92" height="92" viewBox="0 0 92 92" xmlns="http://www.w3.org/2000/svg"><title>3CB82B0E-750D-4F55-A28C-76F887488F83</title><g fill="none" fill-rule="evenodd"><path d="M44.702 91.981C19.348 91.265-.696 70.056.019 44.701.733 19.348 21.943-.695 47.297.02c25.355.714 45.4 21.925 44.684 47.278-.716 25.354-21.925 45.4-47.28 44.684z" fill="#FFF"/><ellipse fill="#90C6C2" cx="26.539" cy="72.434" rx="2.003" ry="1.998"/><path d="M31.094 60.637c-2.45 0-4.444 1.988-4.444 4.43 0 2.444 1.994 4.433 4.444 4.433a4.443 4.443 0 0 0 4.443-4.432c0-2.443-1.992-4.43-4.443-4.43zm0 5.909a1.48 1.48 0 0 1-1.48-1.477 1.48 1.48 0 0 1 2.96 0 1.48 1.48 0 0 1-1.48 1.477zm29.24-28.302h-3.346l4.838-4.825c1.325-1.32.388-3.593-1.492-3.593h-8.441a2.107 2.107 0 0 0-2.111 2.104 2.11 2.11 0 0 0 2.11 2.107h3.347L50.4 38.86c-1.323 1.321-.386 3.593 1.493 3.593h8.44a2.108 2.108 0 0 0 2.112-2.104 2.108 2.108 0 0 0-2.111-2.106zm-16.882 4.21h-3.346l4.838-4.826c1.326-1.322.387-3.593-1.492-3.593H35.01c-1.166 0-2.11.943-2.11 2.106 0 1.162.945 2.105 2.11 2.105h3.346l-4.839 4.824c-1.325 1.321-.386 3.594 1.493 3.594h8.44a2.108 2.108 0 0 0 2.112-2.105 2.108 2.108 0 0 0-2.111-2.105z" fill="#90C6C2"/><path d="M70.298 28.735c-1.4-6.035-7.752-9.784-13.85-7.802a10.774 10.774 0 0 0-8.776-4.562 10.77 10.77 0 0 0-8.775 4.562c-6.102-1.985-12.453 1.773-13.85 7.802-4.798 1.107-8.357 5.43-8.357 10.475 0 5.044 3.559 9.368 8.356 10.473 1.4 6.034 7.751 9.786 13.85 7.803a10.777 10.777 0 0 0 8.776 4.561c3.515 0 6.784-1.741 8.776-4.561 6.1 1.983 12.451-1.772 13.85-7.803 4.798-1.105 8.357-5.429 8.357-10.473 0-5.046-3.56-9.368-8.357-10.475zM68.38 45.908a2.02 2.02 0 0 0-1.867 1.861c-.355 4.816-5.642 7.746-9.944 5.398a2.022 2.022 0 0 0-2.807.927c-1.096 2.383-3.485 3.922-6.09 3.922-2.604 0-4.994-1.54-6.089-3.922a2.022 2.022 0 0 0-2.807-.927c-4.297 2.346-9.588-.579-9.943-5.398a2.017 2.017 0 0 0-1.868-1.86c-3.496-.257-6.234-3.2-6.234-6.7s2.738-6.441 6.234-6.699a2.02 2.02 0 0 0 1.868-1.86c.355-4.815 5.64-7.747 9.943-5.399a2.023 2.023 0 0 0 2.807-.929 6.728 6.728 0 0 1 6.09-3.92c2.603 0 4.993 1.538 6.09 3.92a2.022 2.022 0 0 0 2.806.928c4.297-2.344 9.59.58 9.944 5.4a2.02 2.02 0 0 0 1.867 1.86c3.496.258 6.235 3.2 6.235 6.7 0 3.499-2.739 6.442-6.235 6.698z" fill="#90C6C2"/></g></svg>