<svg width="95" height="95" viewBox="0 0 95 95" xmlns="http://www.w3.org/2000/svg"><title>DEF49847-D8F5-4BC5-94D1-D8BD5E227D54</title><g fill="none" fill-rule="evenodd"><path d="M46.052 94.76C19.932 94.022-.718 72.172.019 46.052.756 19.932 22.606-.718 48.726.019c26.12.737 46.77 22.588 46.034 48.707-.738 26.12-22.588 46.77-48.708 46.034z" fill="#FFF" fill-rule="nonzero"/><g fill="#00948F"><path d="M78.77 31.582a3.413 3.413 0 0 0-2.437-1.007c-1.737-.001-3.149 1.334-3.432 3.258l-2.21 15.958-6.253 6.253h-.001a.595.595 0 0 1-1.015-.419c0-.091.024-.267.174-.416l4.728-4.728c.014-.015.024-.029.038-.043.02-.021.04-.041.056-.062a3.631 3.631 0 0 0-.095-5.036 3.641 3.641 0 0 0-5.142 0L50.203 58.318a1.374 1.374 0 0 0-.403.974v13.884a1.377 1.377 0 0 0 2.755 0V59.862L65.13 47.287a.884.884 0 0 1 1.247-.002.886.886 0 0 1 0 1.25h-.001l-4.723 4.724h-.003a3.321 3.321 0 0 0-.979 2.365c0 .894.347 1.735.98 2.368a3.353 3.353 0 0 0 4.629.095c.01-.008.018-.019.028-.027.024-.023.05-.042.075-.067l6.582-6.583c.212-.212.348-.488.39-.783l2.273-16.405c.046-.308.251-.893.707-.893a.694.694 0 0 1 .692.693v18.345L62.423 66.97a1.376 1.376 0 0 0-.403.974v5.232a1.377 1.377 0 0 0 2.754 0v-4.662L79.378 53.91c.258-.26.403-.61.403-.976V34.02c0-.922-.359-1.787-1.01-2.439zM30.853 45.337a3.641 3.641 0 0 0-5.142 0 3.631 3.631 0 0 0-.096 5.036c.016.022.036.043.055.063l.039.042v.001l4.727 4.728a.583.583 0 0 1 .174.416.595.595 0 0 1-1.015.419l-6.253-6.254-2.211-15.957c-.281-1.924-1.694-3.26-3.432-3.259a3.417 3.417 0 0 0-2.437 1.008 3.421 3.421 0 0 0-1.01 2.438v18.916c0 .366.145.716.403.976l14.604 14.6v4.662a1.377 1.377 0 1 0 2.754 0v-5.23c0-.366-.146-.716-.404-.974L17.007 52.367V34.021a.693.693 0 0 1 .691-.694c.456 0 .663.586.707.894l2.273 16.405a1.4 1.4 0 0 0 .39.783l6.583 6.582v.001c.024.025.05.045.075.068.01.008.019.019.028.027a3.353 3.353 0 0 0 4.628-.095c.635-.633.98-1.474.98-2.368 0-.893-.347-1.733-.978-2.364v-.001h-.002v-.002l-4.722-4.723h-.002a.886.886 0 0 1 0-1.249.884.884 0 0 1 1.247.002L41.48 59.862v13.314a1.377 1.377 0 0 0 2.755 0V59.29c0-.365-.145-.716-.403-.974l-12.98-12.98z"/><path d="M64.46 30.124c0-5.785-4.533-10.32-10.318-10.32-2.566 0-5.102.954-7.067 2.609-1.966-1.656-4.5-2.608-7.067-2.608-5.786 0-10.319 4.534-10.319 10.32 0 6.87 5.882 12.082 14.03 19.288l2.162 2.157a1.687 1.687 0 0 0 2.386 0l2.165-2.157C58.58 42.209 64.46 36.995 64.46 30.124zm-16.304 16.79c-.025.023-.05.046-.074.071l-1.007 1.003-1.005-1.003c-.024-.023-.049-.048-.074-.07-8.256-7.301-12.927-11.68-12.927-16.79 0-3.958 2.983-6.94 6.94-6.94 2.156 0 4.37 1.033 5.777 2.696a1.69 1.69 0 0 0 2.58 0c1.408-1.663 3.621-2.696 5.778-2.696 3.957 0 6.94 2.982 6.94 6.94-.001 5.11-4.673 9.49-12.928 16.79z" fill-rule="nonzero"/></g></g></svg>