<svg width="95" height="95" viewBox="0 0 95 95" xmlns="http://www.w3.org/2000/svg"><title>3AC76DAE-629C-4FA4-B7BA-5FE31B31F4FD</title><g fill="none" fill-rule="evenodd"><path d="M46.16 94.98C19.98 94.242-.72 72.34.02 46.16.756 19.977 22.657-.72 48.84.02c26.18.737 46.88 22.64 46.14 48.82-.739 26.18-22.64 46.88-48.82 46.14z" fill="#FFF" fill-rule="nonzero"/><path d="M38.244 47.923V34.62c0-4.334-3.536-7.848-7.897-7.848-4.361 0-7.897 3.514-7.897 7.848v13.303h15.794z"/><path d="M30.347 24.776c-5.462 0-9.905 4.416-9.905 9.844v26.605c0 5.428 4.443 9.844 9.905 9.844s9.905-4.416 9.905-9.844V34.62c0-5.428-4.443-9.844-9.905-9.844zm0 3.991c3.248 0 5.889 2.626 5.889 5.853v12.167h-11.78V34.62c0-3.228 2.643-5.853 5.891-5.853zm0 38.311c-3.248 0-5.89-2.626-5.89-5.853V49.06h11.78v12.166c-.001 3.228-2.642 5.853-5.89 5.853zm35.19 3.992c5.462 0 9.905-4.417 9.905-9.845V34.62c0-5.428-4.443-9.844-9.905-9.844-5.461 0-9.905 4.416-9.905 9.844v26.605c0 5.428 4.444 9.844 9.905 9.844zm0-3.992c-3.248 0-5.889-2.626-5.889-5.853V49.06h11.78v12.166c0 3.228-2.643 5.853-5.89 5.853zm0-38.31c3.248 0 5.89 2.625 5.89 5.852v12.167h-11.78V34.62c0-3.228 2.641-5.853 5.89-5.853z" fill="#4395B2" fill-rule="nonzero"/><path d="M57.64 47.923v13.302c0 4.335 3.536 7.849 7.897 7.849 4.361 0 7.897-3.514 7.897-7.849V47.923H57.64z"/><path fill="#4395B2" d="M53.255 46.864h-3.651v-3.629h-2.13v3.63h-3.65v2.116h3.65v3.63h2.13v-3.63h3.651z"/></g></svg>