<svg width="278" height="499" viewBox="0 0 278 499" xmlns="http://www.w3.org/2000/svg" xmlns:xlink="http://www.w3.org/1999/xlink"><title>2EFF7AB0-A32E-4146-9259-72A80FFBCF21</title><defs><path id="a" d="M0 0h97v363H0z"/></defs><g fill="none" fill-rule="evenodd"><circle fill="#2AA19B" cx="68" cy="462" r="16"/><circle fill="#4395B2" cx="184.5" cy="6.5" r="6.5"/><circle fill="#92C8C4" cx="33.5" cy="34.5" r="14.5"/><g transform="matrix(-1 0 0 1 283 0)"><mask id="b" fill="#fff"><use xlink:href="#a"/></mask><use fill-opacity="0" fill="#FFF" xlink:href="#a"/><path d="M-53 323c78.424 0 142-63.576 142-142 0-23.98-5.944-46.57-16.438-66.38C48.734 69.64 1.445 39-53 39c-78.424 0-142 63.576-142 142s63.576 142 142 142z" fill="#92C8C4" mask="url(#b)"/></g><path d="M34 321c-18.778 0-34-15.222-34-34s15.222-34 34-34 34 15.222 34 34-15.222 34-34 34zm.5-16c9.665 0 17.5-7.835 17.5-17.5S44.165 270 34.5 270 17 277.835 17 287.5 24.835 305 34.5 305z" fill="#2AA19B"/><path d="M75 188c-13.255 0-24-10.745-24-24s10.745-24 24-24 24 10.745 24 24-10.745 24-24 24zm0-12c6.627 0 12-5.373 12-12s-5.373-12-12-12-12 5.373-12 12 5.373 12 12 12z" fill="#92C8C4"/><circle fill="#4395B2" cx="234.5" cy="488.5" r="10.5"/><circle fill="#4395B2" cx="166.5" cy="112.5" r="11.5"/><circle fill="#4395B2" cx="156.5" cy="373.5" r="21.5"/></g></svg>