<svg width="157" height="386" viewBox="0 0 157 386" xmlns="http://www.w3.org/2000/svg" xmlns:xlink="http://www.w3.org/1999/xlink"><title>64719305-8079-4C83-A7C9-F454DE4DB655</title><defs><path id="a" d="M0 0h61v230H0z"/></defs><g fill="none" fill-rule="evenodd"><circle fill="#2AA19B" cx="44" cy="352" r="10"/><circle fill="#4395B2" cx="116" cy="4" r="4"/><circle fill="#92C8C4" cx="21" cy="22" r="9"/><g transform="matrix(-1 0 0 1 179 0)"><mask id="b" fill="#fff"><use xlink:href="#a"/></mask><use fill-opacity="0" fill="#FFF" xlink:href="#a"/><path d="M-33.33 204.656c49.319 0 89.3-40.282 89.3-89.973 0-15.193-3.739-29.507-10.338-42.059C30.647 44.125.909 24.711-33.33 24.711c-49.318 0-89.299 40.282-89.299 89.972s39.98 89.973 89.3 89.973z" fill="#92C8C4" mask="url(#b)"/></g><path d="M21.5 204C9.626 204 0 194.374 0 182.5S9.626 161 21.5 161 43 170.626 43 182.5 33.374 204 21.5 204zm.316-10.118c6.112 0 11.066-4.954 11.066-11.066 0-6.112-4.954-11.066-11.066-11.066-6.112 0-11.066 4.954-11.066 11.066 0 6.112 4.954 11.066 11.066 11.066z" fill="#2AA19B"/><path d="M48 119c-8.284 0-15-6.716-15-15 0-8.284 6.716-15 15-15 8.284 0 15 6.716 15 15 0 8.284-6.716 15-15 15zm0-7.5a7.5 7.5 0 1 0 0-15 7.5 7.5 0 0 0 0 15z" fill="#92C8C4"/><circle fill="#4395B2" cx="147.5" cy="379.5" r="6.5"/><circle fill="#4395B2" cx="106" cy="72" r="8"/><circle fill="#4395B2" cx="99" cy="236" r="13"/></g></svg>