<svg width="1280" height="862" viewBox="0 0 1280 862" xmlns="http://www.w3.org/2000/svg"><title>9B4A480B-9CA9-4034-A841-2F16F6F4E0A6</title><g transform="translate(-42)" fill="none" fill-rule="evenodd"><path fill="#67C6C1" d="M0 0h1360v341H0z"/><path fill="#4CB0AB" d="M40 0h782v344H40z"/><path fill="#39ABA8" d="M822 0h17v339h-17z"/><path fill="#3EAAA7" d="M1008 3h14v337h-14z"/><path fill="#3EAAA7" d="M1359.97 160.5v13H822.434v-13zM1359.534 0v4H822V0zm.436 328.5v13H822.434v-13z"/><path fill="#3EAAA7" d="M1190 0h14v339h-14z"/><path fill="#2AA19B" d="M1322 340v522H39V340z"/><ellipse fill="#1E9690" cx="759.5" cy="521.5" rx="271.5" ry="70.5"/><ellipse fill="#1C8983" cx="787" cy="520.5" rx="186" ry="48.5"/><g transform="translate(879 528)" stroke="#FFF" stroke-width="2"><circle cx="43.5" cy="43.5" r="43.5"/><path d="M61 4C47.525 8.394 36.406 16.577 27.644 28.548 14.5 46.505 16.057 61.581 16.057 77"/><path d="M79 19.04c-16.93-3.38-30.13 1.478-39.6 14.578-14.207 19.65-4.75 44.84 1.848 52.382M18.906 9c.574 12.045-1.47 21.338-6.133 27.878C8.111 43.42 3.853 48.126 0 51"/><path d="M4 25c7.1.338 13.077.98 17.932 1.93C29.214 28.353 43 31.27 60.463 43.295c.282.194 13.17 9.93 21.537 21.705"/></g><g stroke="#FFF"><path d="M172.685 299.808c13.052-.28 12.483-.441 22.718 2.52 10.235 2.96 21.486 5.393 32.542 3.952 11.057-1.44 14.335-2.815 18.27-3.384 3.933-.568 17.168-3.81 26.56-3.81s22.25.722 31.951.722c9.7 0 28.744-.722 32.188-.722 3.444 0 14.079-5.719 19.312-5.719 5.234 0 9.496 1.816 17.147 1.816 7.651 0 17.365-.222 25.65-2.965 9.427-1.699 21.22-3.907 25-3.907 3.779 0 9.66-.185 12.354 2.436 2.695 2.62 2.695 6.585 6.555 11.58 3.86 4.996 10.314 7.564 13.356 7.564s5.576-.323 10.764 4.681c4.827 4.657 12.528 3.892 16.128 5.23 2.4.893 10.645 5.397 24.734 13.513 11.482 4.429 17.463 8.253 17.943 11.474.722 4.831 0 23.418 0 34.75 0 11.333-2.07 25.794-3.922 31.667-1.854 5.873-8.068 16.296-9.98 20.928-1.911 4.632-.226 7.462-2.34 10.452s-5.446 5.002-26.435 7.664c-13.993 1.775-26.35 3.362-37.07 4.76l-79.278 10.481-80.412 9.781c-48.33 6.045-75.763 9.166-82.3 9.363-9.806.297-17.991-2.596-24.313-7.366-6.322-4.77-12.453-11.934-17.207-18.684-3.17-4.5-7.64-11.571-13.413-21.214l-11.549-23.22c-4.691-11.956-7.51-20.769-8.454-26.437-1.417-8.502-1.417-20.21-1.417-29.252 0-9.043 2.357-31.65 4.787-39.446 2.431-7.796 5.48-9.762 13.066-13.757 7.586-3.995 14.014-5.17 27.065-5.45z" stroke-width="3"/><path d="M140.592 310.45c-1.156 2.85 3.096 25.153 5.156 29.085 2.06 3.933 11.465 18.094 12.205 20.935.74 2.84 4.357 10.228 2.12 15.282s-1.426 8.643 0 9.864c1.425 1.22 1.795 2.756 11.819.906 10.023-1.85 19.81-2.226 24.69-2.981 4.879-.756 13.269-2.636 22.428 1.131 6.106 2.512 12.268 8.622 18.486 18.33 4.099 7.824 8.075 13.575 11.927 17.252 5.778 5.517 15.458 8.908 34.863 8.908 12.936 0 32.34-1.538 58.213-4.613l62.036-8.697c15.648-2.371 26.846-4.593 33.592-6.663 10.119-3.106 13.915-6.125 15.411-8.326.998-1.468 4.58-7.664 10.746-18.589l7.126-15.664c2.525-6.81 4.114-10.702 4.765-11.674.977-1.457 3.408-5.7 10.679-5.7 7.27 0 13.59.351 16.72 0 3.129-.35 7.946-1.174 10.11-2.915 1.463-1.176 6.932-4.676 6.4-6.321-.255-.788-3.95-1.313-5.084-2-3.502-2.12-6.522 2.223-9.188 3.198-2.667.976-15.629 1.11-18.958 1.009-3.33-.102-13.062.587-15.444 4.912-2.382 4.324-10.48 24.217-12.818 27.46-1.062 1.473-4.69 9.801-8.143 14.185-4.154 5.274-5.914 7.803-9.986 9.951-4.073 2.148-43.073 5.891-52.82 7.307-9.748 1.415-21.488 2.817-53.681 5.794-32.193 2.976-53.985 5.19-57.963 5.013-3.978-.177-19.077-.976-26.576-8.763-7.499-7.787-15.157-22.067-16.492-24.525-.69-1.27-7.057-8.842-13.92-10.482-6.865-1.64-9.938-.941-15.79-.941-3.826 0-5.076-7.45-5.753-9.507-1.764-5.366-5.115-11.807-15.082-27.008.075.01-3.084-4.815-8.383-10.408a81.758 81.758 0 0 0-4.214-4.143c-4.637-4.233-9.457-8.058-13.272-10.462-2.597-1.636-1.616-.614-6.019-2.614-4.403-2-8.896-.017-9.906 2.473z" stroke-width="2"/><path d="M164.97 398.41c5.297-.061 45.915-7.74 51.213-.061 5.298 7.68 22.958 42.694 75.938 37.667 52.98-5.027 162.473-12.857 170.42-23.527 7.947-10.67 12.362-40.237 22.958-45.793 7.064-3.704 18.837-6.365 35.32-7.982m-384.204-31.379c-1.766 12.375 0 11.49 0 15.91 0 2.947 2.06 6.483 6.18 10.608 5.888 5.893 8.831 10.607 8.831 14.143 0 5.303.883 7.071-9.713 20.33" stroke-width="2" stroke-linecap="round" stroke-dasharray="1,7"/></g><path d="M147 306c7 0 17.562 5.642 20.923 7.724 5.043 3.122 12.749 10.766 15.87 14.083 3.12 3.316 8.392 12.205 11.508 16.378 2.078 2.782 3.614 6.213 6.608 10.294 3.775 4.94 6.37 7.736 7.786 8.388 2.124.979 4.305 2.133 11.305 1 4-1 7.746.727 12 .133-2.67 1.423-9.46.527-13 2-5.31 2.21-4.218 2.348-8.379 4.482-2.774 1.422-6.719 1.422-11.836 0-.285.813-1.388-1.296-3.309-6.325-2.881-7.545-6.489-16.475-8.476-20.157-1.987-3.682-4.676-6.92-8.532-12-2.57-3.387-5.481-8.95-9.42-10.945-5.867-4.664-9.883-7.682-12.048-9.055-7.474-4.739-14.236-6-11-6zm113.358 43.43c.733-4.062 1.1-8.504 1.1-13.328 1.783 4.244 2.893 8.835 3.33 13.771.653 7.405.109 9.377.708 9.657.598.28 6.12-2.127 8.437-4.254 1.544-1.419 3.287-6.05 5.23-13.897-.45 10.683.264 16.379 2.138 17.088 1.875.709 6.865.709 14.97 0 7.107-.232 12.81-.942 17.109-2.128 6.448-1.779 8.583-3.19 9.877-5.318 1.295-2.127 2.41-7.177 3.737-15.764a115.183 115.183 0 0 0 1.355-17.21c.72 2.384 1.115 4.368 1.185 5.953.105 2.378.312 12.391.485 18.244.172 5.852.038 12.907.469 14.095.431 1.188-.09-3.966 1.3-7.445 1.39-3.48 2.05-3.473 3.852-6.65 1.803-3.178 2.824-3.428 4.44-6.987 1.078-2.373 1.777-4.48 2.096-6.318.159 3.621-.173 6.85-.995 9.687-1.233 4.255-3.047 5.358-5.102 11.247-1.37 3.927-.707 5.343 1.988 4.25l7.39-8.802c-3.634 4.94-4.851 7.873-3.65 8.803 1.803 1.394 22.354-.694 29.386-.694s17.672 3.347 21.548 3.347c3.876 0 7.743.626 12.456-6.904 4.713-7.53 5.137-16.468 6.556-22.713 1.419-6.245 3.198-11.131 6.514-17.327 3.316-6.196 2.852-5.424 4.438-9.682 1.058-2.84 1.433-5.529 1.125-8.068a16.483 16.483 0 0 1 1.738 2.746c.476.952.633 2.24.472 3.865l7.215-4.661c-4.959 4.645-9.151 9.503-12.577 14.573s-5.825 12.633-7.195 22.691c-1.249 8.13-1.968 14.323-2.158 18.576-.284 6.38.146 8.328 2.158 10.721 2.012 2.393 6.655 1.772 10.932 4.005 4.277 2.233 5.771 4.695 6.585 3.44 2.138-3.296 4.339-6.381 7.183-9.572 2.843-3.191 7.95-8.056 14.202-13.146 6.253-5.09 9.013-6.802 13.901-10.064 3.258-2.175 7.179-4.281 11.762-6.318l-11.762 8.097c-5.399 4.24-9.712 7.894-12.94 10.96-4.84 4.6-4.841 4.707-9.079 9.73-4.238 5.021-4.946 6.963-6.084 9.197-1.14 2.233-1.362 5.973 0 8.438 1.361 2.465 2.728 2.56 3.817 2.028 1.089-.531 1.837-2.326 4.736-7.836s3.858-7.824 6.61-11.828c2.754-4.003 4.763-4.898 7.317-7.729 2.553-2.831 8.337-5.752 8.337-5.752s-9.583 10.215-11 11.756c-1.417 1.541-4.456 5.766-6 8.678-1.295 2.442-2.657 5.087-4 8.069-1.476 3.276-1.661 5.047-2.264 6.915-.788 2.44-.736.685-.736 4.204 0 2.345 1.445 4.205 3 6.134-2.71-1.798-4.53-2.936-7.598-6.244-4.6-4.961-5.954-8.192-10.55-11.462-4.597-3.269-7.406-5.03-12.645-6.382-5.238-1.351-11.87-1.17-16.147-2.127-4.277-.958-5.532-2.127-14.97-4.255-9.437-2.127-15.723-1.063-22.887-1.063-7.163 0-32.715 2.127-43.408 2.127-10.693 0-32.078 2.084-34.217 2.084-2.138 0-10.716.122-13.985.71-3.27.59-12.845 1.866-20.325 1.866-4.986 0-9.945-.49-14.876-1.47 2.538-.737 4.124-1.564 4.757-2.479.95-1.373 1.425-2.786 1.922-7.181.331-2.93.475-5.865.43-8.803.785 3.722 1.407 6.424 1.866 8.109.688 2.526.577 2.304 1.717 5.037 1.14 2.732 2.496 4.922 3.587 4.922 1.853.03 2.872-.152 4.253-2.084 1.38-1.932 4.335-5.783 5.434-11.875z" fill="#FFF"/><g stroke="#FFF"><path d="M1127.837 435.302c.706 1.2-4.462-3.013-6.577-4.991-2.114-1.978-8.991-7.305-10.565-8.232-1.575-.928-5.49-3.035-10.213-3.035-4.722 0-7.116.457-10.912 2.671-3.672 2.143-6.858 7.622-5.745 13.587 1.113 5.966 5.129 10.15 10.577 11.344 5.448 1.196 13.001-.434 17.867-3.362 3.244-1.952 7.055-5.452 11.433-10.498l3.653 2.516c-8.546 10.011-17.851 15.017-27.915 15.017-15.095 0-19.627-11.562-19.177-16.895.45-5.333 2.119-9.793 7.422-12.661 3.81-1.72 8.027-2.41 11.362-2.41 3.335 0 6.32.71 11.118 2.41 3.198 1.132 8.195 3.594 14.991 7.386 1.98-2.128 3.661-4.151 5.044-6.07 5.579-7.967 15.303-24.68 21.43-39.038 1.918-4.493 12.975-25.49 19.07-25.49 6.093 0 9.92-3.458 16.929-5.86 6.312-2.722 16.064-3.695 28.586-2.508 7.462.708 12.175 1.306 16.688 3.226 2.541 1.082 6.346 3.21 6.408 3.256 1.293.968 2.52 3.188 3.54 6.13 1.022 2.94 8.482 5.04 15.354 15.404 3.778 6.115 5.073 11.913 5.665 20.25-.057 3.042.87 10.276-3.078 17.633-3.947 7.356-9.455 8.737-15.891 8.255-7.573-1.187-10.939-2.993-15.44-4.293-5.345-1.393-8.924 0-10.928.96-4.715 2.55-7.353 5.063-13.644 9.49-6.29 4.426-20.523 5.88-28.756 3.838s-14.245-6.184-18.183-12.21c-1.708-2.613-3.26-5.592-4.723-10.922-1.364-4.972-1.597-8.725-1.597-12.344 0-6.391 10.995-21.504 12.975-23.941 1.095-1.347 3.37-4.424 8.893-8.254.967-.64 3.656-1.93 8.066-3.867l-2.602-1.486c-1.186 0-3.408 1.043-6.664 3.13-4.885 3.131-7.692 7.707-9.353 10.477-1.108 1.847-4.03 7.337-8.768 16.469" stroke-width="2"/><path d="M1230.638 371.236c-4.25 4.85-4.46 10.033-4.46 13.702 0 3.67.592 12.844 4.46 19 5.203 9.917 9.883 12.059 14.432 12.059 4.55 0 8.034-4.686 8.034-9.258 0-4.571-.735-7.02-5.25-13.626-4.516-6.605-7.813-9.574-6.84-16.29.971-6.717-6.127-10.438-10.376-5.587z" stroke-width="2"/><path d="M1193.5 424.174c14.636 0 26.5-11.64 26.5-26s-11.864-26-26.5-26-26.5 11.64-26.5 26 11.864 26 26.5 26z" stroke-width="2" stroke-linecap="round" stroke-dasharray="1,7"/><path d="M1188.34 364.415c2.129-1.209 5.297-2.575 9.505-4.097 6.597-2.11 21.1-3.534 31.227-1.508 6.75 1.35 12.095 3.219 16.033 5.605" stroke-linecap="square" stroke-linejoin="round"/><path d="M1178.038 369.901c-6.352 4.668-10.735 9.812-13.15 15.432-3.62 8.43-2.672 15.727-2.672 21.818m6.418 17.221l-5.524-9.546c1.275 1.418 2.963 3.871 5.064 7.36 3.151 5.232-1.008.208.856 2.802 4.1 5.707 8.916 8.111 14.896 9.186"/><path d="M1153.508 391.843l-6.69 12.873-11.266 18.956-5.468 7.936-5-3.535c1.219.875 3.085 2.053 5.6 3.535 2.515 1.482 6.309 3.542 11.38 6.18 2.379-1.079 4.529-1.794 6.45-2.144 2.881-.527 6.072-.527 9.89.314 3.82.842 9.99 5.408 10.507 5.8.517.392 8.66 6.02 13.317 6.02h23.295c4.721.082 8.098.397 10.132.945 3.05.823 5.96 3.548 9.617 3.548 3.657 0 8.996 0 10.942-1.702 1.298-1.135 2.336-.207 3.114 2.783.415.746 2.762.933 7.041.56 4.28-.373 6.253 1.598 5.919 5.914-.386 3.065-2.642 5.083-6.77 6.053-6.19 1.456-12.995-1.154-16.161-5.195-3.167-4.042-3.97-4.185-7.05-3.889-3.081.297-8.706 3.426-17.24 2.642-8.534-.784-26.873-5.638-34.584-5.176-12.396 1.8-17.691-.31-20.503-1.39-2.813-1.082-6.913-3.92-8.992-6.683-2.08-2.765-2.733-3.895-6.532-6.42-2.532-1.683-4.787-3.058-6.764-4.124 6.712-10.228 11.77-18.178 15.174-23.85 3.403-5.671 6.95-12.322 10.642-19.951z" stroke-width="2"/><path d="M1207.47 447.59c.092 2.16-.535 4.242-1.884 6.247-1.348 2.005-3.1 3.46-5.254 4.368m15.328-9.143c-.355 1.737-1.138 2.758-2.347 3.062-.796.2-1.767-.217-3.014 0-.647.113-1.256 1.054-1.099 1.9.158.847.818 1.119 1.596 1.477.779.359 2.067.077 2.167.97.066.596.066 1.434 0 2.516m23.685-3.508c.776 0 3.108 1.95 4.747 1.95 1.638 0 4.41-1.36 5.242 0 .833 1.36.176 2.345-2.67 3.529-2.847 1.184-4.61.487-6.082-.493-1.471-.98-2.86-2.24-2.86-3.458 0-1.217.846-1.528 1.623-1.528zm-45.938-21.959c-7.207 0-11.21-1.764-14.634-3.452-2.283-1.125-4.917-3.71-7.901-7.757"/><path d="M1183 358.39c8.234-2.84 23.108-6.62 36.362-5 8.836 1.08 15.049 2.746 18.638 5" stroke-width="2" stroke-linecap="round" stroke-dasharray="1,7"/><path d="M1142 442c5.547 2.667 11.88 5 19 7" stroke-width="2" stroke-linecap="round" stroke-dasharray="2,7"/><path d="M1167.237 440.822c-2.522.731-4.087 1.918-4.696 3.559-.914 2.461.326 4.73 3.017 4.73 2.69 0 3.63.097 4.499 1.61.87 1.512-.348 3.155-1.084 3.736"/><path d="M1144.043 436.97c-1.6.859-2.726 1.812-3.376 2.858-.65 1.047-1.003 2.47-1.057 4.271" stroke-width="2"/></g><g stroke="#FFF" stroke-width="2"><g transform="translate(479 564)"><ellipse cx="59.5" cy="18" rx="45.5" ry="17"/><path d="M45.251 1.059c9.393-1.232 16.996-1.581 31.753 0 14.758 1.58 30.39 10.923 31.371 15.967 1.153 4.74 3.223 8.197 6.879 17.127 3.656 8.93 4.706 11.184 5.476 12.717.77 1.532 3.03 3.666 2.01 6.285-.68 1.746-1.133 2.784-1.36 3.116-1.768-3.701-2.976-6.028-3.624-6.981-.972-1.43-3.764-2.705-5.223-1.455-1.46 1.249-1.415 2.634-1.087 5.32.328 2.686 2.561 7.15 3.808 8.778.335.437-3.1 2.851-5.852 4.14-2.75 1.29-4.562 2.205-10.375 4.136-5.814 1.93-14.144 3.17-20.294 3.85-6.15.681-10.424.941-21.575.941-5.38 0-13.996-.695-22-1.73-9.396-1.216-21.998-5.478-26.483-8.785C.37 58.36-.385 55.78.122 52.425c.339-2.238 4.197-14.037 11.573-35.399.052-2.21 1.06-4.1 3.02-5.67 1.385-1.11 5.244-4.138 15.102-7.094C33.5 3.158 35.858 2.29 45.251 1.06zM122 49l-3 3"/></g><path d="M481 612c4.07 4.71 7.987 8.014 11.754 9.912 3.767 1.897 7.516 3.26 11.246 4.088m8 1.482c13.635 2.028 25.723 2.83 36.264 2.41C564.076 629.258 575 626 575 626m17-6c-1.433 1.037-3.104 1.978-5.014 2.822A48.316 48.316 0 0 1 581 625"/><path d="M539.368 578.997c5.29-.116 7.973.248 11.32 0 3.345-.248 4.531-.737 5.899-1.276 1.367-.539 3.562-2.98 5.642-4.116 2.08-1.135 6.068-1.447 9.883.201 3.816 1.648 4.896 4.375 4.068 6.277-.551 1.268-2.47 3.076-5.757 5.423 4.63 2.563 5.85 4.644 3.657 6.244-1.832 1.336-5.42 2.19-8.3 3-2.292.645-4.09 1.662-4.528 0-.99-3.752-6.24-6.636-9.458-7.574-3.218-.938-16.974-2.134-21.134.137-4.16 2.27-6.413 5.365-9.148 6.444-2.735 1.078-7.378 1.332-10.366-2.218-2.987-3.55-.792-5.992.69-7.837.989-1.23 1.939-2.025 2.85-2.385-1.271-.55-2.306-1.297-3.102-2.244-1.195-1.42-2.218-4.8-.735-6.645 1.482-1.846 3.022-4.344 7.607-3.945 4.586.398 6.436 1.875 8.056 5.965.347.875.368 2.149 1.08 2.726 2.615 2.122 9.228 1.879 11.776 1.823z" fill="#FFF"/></g></g></svg>