<svg width="320" height="511" viewBox="0 0 320 511" xmlns="http://www.w3.org/2000/svg"><title>A2118FDB-A67E-49FB-9864-43F5DF97D207</title><g transform="translate(-242)" fill="none" fill-rule="evenodd"><path fill="#67C6C1" d="M4 0h768v431H4z"/><path fill="#2AA19B" d="M577.5 181.5v329h-346v-329z"/><g fill="#FFF" fill-rule="nonzero"><path d="M328.317 306.292c-8.915 0-16.183-2.65-16.183-6.292 0-3.641 7.268-6.292 16.183-6.292 8.916 0 16.183 2.65 16.183 6.292 0 3.641-7.267 6.292-16.183 6.292zm0-1.25c8.246 0 14.89-2.424 14.89-5.042s-6.644-5.042-14.89-5.042-14.89 2.424-14.89 5.042 6.644 5.042 14.89 5.042z"/><path d="M349.028 310.498a5.65 5.65 0 0 1-.382-.596c-.358-.696-.812-1.714-1.89-4.283-.352-.84-1.842-4.126-2.102-4.874-.108-.31-.199-.612-.282-.951-.3-1.506-5.725-4.357-10.147-4.82-4.574-.478-7.139-.456-10.689-.002-1.745.224-2.842.417-3.742.643-.27.068-.519.137-.85.234l-.575.17c-2.578.755-3.91 1.448-4.938 2.252-.527.412-.778.873-.791 1.419l-.003.096-.032.092c-2.488 7.034-3.818 11.003-3.924 11.69-.16 1.027.286 1.712 2.667 3.426 1.454 1.046 5.679 2.423 8.74 2.81 2.752.347 5.651.571 7.43.571 3.56 0 5.058-.068 7.295-.31 2.674-.289 5.132-.715 6.796-1.255 1.27-.412 2.002-.688 2.757-1.025l.203-.091.512-.235a9.239 9.239 0 0 0 1.465-.862c-.506-.81-1.037-2.038-1.133-2.804-.155-1.242-.071-1.768.59-2.321.8-.668 2.17-.212 2.742.609.14.2.334.539.589 1.024-.04-.165-.14-.357-.306-.607zm-37.676-10.939c.05-.884.484-1.648 1.267-2.26 1.156-.903 2.635-1.674 5.375-2.476l.575-.17c.347-.102.61-.175.901-.248.957-.24 2.104-.442 3.897-.672 3.653-.467 6.322-.49 10.997-.002 4.923.515 10.838 3.625 11.27 5.798.069.275.149.541.245.817.238.686 1.703 3.917 2.075 4.804 1.065 2.54 1.51 3.535 1.85 4.195.042.083.106.178.31.475.512.768.697 1.38.4 2.123-.254.639-.415.997-.533 1.165l-.635.905-.483-.989c-.589-1.203-.993-1.963-1.19-2.245-.19-.273-.72-.449-.825-.361-.232.194-.26.365-.152 1.225.085.678.73 2.058 1.174 2.623.219.28.17.552.024.785-.056.09-.128.171-.22.257a4.736 4.736 0 0 1-.548.429 10.53 10.53 0 0 1-1.493.852l-.514.236-.213.096c-.798.356-1.573.649-2.887 1.075-1.77.574-4.305 1.014-7.063 1.312-2.289.247-3.834.317-7.439.317-1.841 0-4.794-.228-7.596-.582-3.262-.412-7.688-1.854-9.345-3.047-2.722-1.96-3.419-3.03-3.173-4.614.124-.802 1.42-4.67 3.949-11.823z"/><path d="M308.192 310.406l.982-.812c1.338 1.512 2.614 2.562 3.815 3.153a16.07 16.07 0 0 0 3.689 1.31l-.283 1.22a17.386 17.386 0 0 1-3.991-1.416c-1.37-.674-2.771-1.827-4.212-3.455zm10.98 5.373l.192-1.236c4.618.67 8.705.935 12.261.796a45.835 45.835 0 0 0 5.961-.622c.834-.143 1.58-.296 2.227-.45a22.847 22.847 0 0 0 .781-.199l.373 1.197-.225.062a23.6 23.6 0 0 1-.622.155c-.673.16-1.446.318-2.307.466a47.164 47.164 0 0 1-6.136.64c-3.643.142-7.81-.128-12.505-.81zm27.032-3.617l.763 1.01c-.528.372-1.138.707-1.83 1.006a17.42 17.42 0 0 1-2.125.755l-.366-1.2a16.1 16.1 0 0 0 1.964-.697 8.792 8.792 0 0 0 1.594-.874zm2.996-2.269l.918.88-1.025 1-.918-.88zm-12.453-6.005c.084-.024.43-.133.454-.14a7.45 7.45 0 0 1 .262-.077l.867-.232c.91-.248 1.454-.447 1.757-.663.12-.084.109-.044.074-.103-.136-.226-.559-.554-1.257-.933l-.887-.481.821-.572c1.027-.714 1.62-1.26 1.746-1.543.157-.356-.158-.894-1.058-1.275-1.019-.433-2.19-.427-2.804-.1-.202.106-.427.267-.747.525l-.3.244c-.124.1-.213.171-.3.238-.25.19-.447.315-.648.392l-.106.04c-.641.245-1.132.355-2.097.422a12 12 0 0 1-.678.027c-.293.004-.569 0-1.023-.013-1.165-.032-1.467-.037-2.197-.024l-.541.01a15.399 15.399 0 0 1-1.614-.057c-1.003-.095-1.776-.306-2.291-.714-.282-.224-.38-.454-.49-.9l-.011-.046a1.7 1.7 0 0 0-.063-.22c-.476-1.166-.913-1.487-2.21-1.601-.833-.073-1.248.134-1.725.698-.066.077-.29.356-.307.378-.222.27-.08 1.048.246 1.427.206.239.478.431.823.577l1.422.604-1.438.55c-.191.073-.433.27-.705.602l-.171.208c-.536.663-.595 1.004-.068 1.615.681.79 1.829.94 2.805.566a2.52 2.52 0 0 0 .54-.303c.201-.142 1.166-.93 1.472-1.153a8.55 8.55 0 0 1 1.032-.65c1.374-.73 5.95-.581 7.708-.076 1.559.448 3.148 1.522 3.616 2.778l.09-.025zm-18.117-4.496c-.679-.786-.936-2.195-.27-3.006.01-.01.242-.3.32-.391.726-.86 1.533-1.263 2.835-1.148 1.79.157 2.647.787 3.302 2.392a2.563 2.563 0 0 1 .13.435c.043.176.068.235.049.22.263.208.826.362 1.593.435.449.042.926.055 1.475.05.153-.001.293-.004.53-.009.758-.014 1.073-.009 2.259.024.437.013.698.017.968.013.209-.003.406-.01.603-.024.833-.058 1.196-.14 1.719-.339l.103-.039c.119-.046.091-.025.9-.675.378-.305.658-.504.95-.659.98-.521 2.572-.529 3.943.053 1.492.633 2.206 1.849 1.733 2.918-.192.433-.66.923-1.422 1.512 1.28.904 1.603 1.852.506 2.631-.47.335-1.109.569-2.168.858l-.869.232c-.068.019-.14.04-.22.065-.011.003-.374.117-.476.147-.2.058-.36.092-.517.105-.544.043-.987-.224-1.135-.767-.222-.814-1.542-1.732-2.792-2.091-1.459-.42-5.72-.558-6.72-.026-.3.159-.584.34-.878.554-.265.193-1.24.989-1.49 1.164-.285.201-.548.35-.822.455-1.449.554-3.19.327-4.276-.932-.994-1.153-.83-2.113.038-3.187l.178-.216a4.83 4.83 0 0 1 .326-.36 3.204 3.204 0 0 1-.405-.394z"/></g><path fill="#4CB0AB" d="M0 0h442v183H0z"/><ellipse fill="#1E9690" cx="400.5" cy="269" rx="112.5" ry="29"/><ellipse fill="#1C8983" cx="400" cy="268" rx="77" ry="20"/><path fill="#39ABA8" d="M442 0h9v180h-9z"/><path fill="#3EAAA7" d="M541 2h7v179h-7z"/><path fill="#3EAAA7" d="M771.5 85.5v7h-330v-7zm0 89v7h-330v-7z"/><g fill="#FFF" fill-rule="nonzero"><path d="M495.43 206.81l.185.129.059-.035a.43.43 0 0 1 .07.227.357.357 0 0 1-.43.36c-2.944 3.396-6.167 5.106-9.658 5.106-2.448 0-4.314-.863-5.542-2.345-.972-1.174-1.462-2.69-1.365-3.85.186-2.213.958-3.677 2.742-4.647 1.25-.567 2.714-.86 4.03-.86 1.149 0 2.18.23 3.921.85 1.08.385 2.727 1.196 4.95 2.437.59-.651 1.096-1.27 1.515-1.857 2.223-3.193 5.428-8.964 7.304-13.387.46-1.086 1.65-3.307 2.755-5.024 1.613-2.504 2.986-3.968 4.089-3.968.742 0 1.41-.155 2.206-.481a70.55 70.55 0 0 0 1.92-.887 16.445 16.445 0 0 1 1.535-.623c2.266-.983 5.696-1.297 9.955-.89 3.087.294 4.397.53 5.816 1.137.687.294 2.123 1.056 2.265 1.163.499.376.95 1.17 1.33 2.275.02.055.053.116.102.182.115.153.304.325.621.57.11.085.827.618 1.066.802 1.082.838 1.962 1.686 2.823 2.818.208.274.41.56.613.867 1.25 2.035 1.768 3.986 1.99 7.164-.002.137 0 .215.01.629.056 2.273-.157 3.828-1.104 5.603-1.288 2.415-3.08 3.227-5.795 3.022a19.132 19.132 0 0 1-3.334-.818c-.248-.084-1.062-.37-1.063-.37a19.13 19.13 0 0 0-.923-.298c-1.414-.371-2.45-.202-3.493.3a14.955 14.955 0 0 0-1.535.962c-.314.222-2.293 1.713-3.102 2.286-2.154 1.526-7.079 2.136-10.125 1.376-2.869-.716-5.017-2.177-6.43-4.353-.72-1.108-1.206-2.192-1.66-3.86-.42-1.538-.56-2.775-.56-4.345 0-1.004.666-2.546 1.806-4.463 1.105-2.127 1.809-3.445 2.117-3.962 1.032-1.732 1.898-2.812 3.311-3.723 1.172-.756 1.97-1.133 2.467-1.133h.09l1.56.897-.622.275c-1.489.658-2.402 1.099-2.704 1.3a14.22 14.22 0 0 0-2.042 1.701 10.76 10.76 0 0 0-.77.875l-.162.202c-.528.653-1.611 2.202-2.45 3.576l-.198.33c-.27.521-.566 1.091-.884 1.71l-.04-.022c-.51 1.037-.794 1.877-.794 2.437 0 1.512.133 2.689.535 4.162.436 1.6.893 2.618 1.573 3.666 1.315 2.025 3.316 3.385 6.022 4.06 2.866.716 7.588.131 9.566-1.27.798-.564 2.777-2.056 3.103-2.286a15.861 15.861 0 0 1 1.618-1.012c1.193-.575 2.387-.77 3.984-.35.3.086.593.182.964.31.005.002.815.286 1.059.368a18.47 18.47 0 0 0 3.194.788c2.436.183 3.965-.51 5.114-2.664.876-1.644 1.076-3.096 1.022-5.26-.01-.427-.012-.507-.008-.628-.215-3.044-.705-4.891-1.883-6.81a14.86 14.86 0 0 0-.58-.82c-.821-1.08-1.66-1.887-2.698-2.69-.231-.18-.947-.712-1.064-.802-.364-.28-.59-.487-.752-.703a1.36 1.36 0 0 1-.201-.37c-.34-.986-.732-1.677-1.095-1.95-.089-.067-1.481-.805-2.122-1.08-1.334-.57-2.593-.797-5.613-1.085-4.154-.397-7.475-.093-9.644.847-.493.17-.963.363-1.497.608.08-.038-1.517.722-1.946.897-.872.357-1.625.532-2.464.532-1.432 0-4.79 5.213-6.214 8.573-1.895 4.468-5.123 10.28-7.375 13.516a22.208 22.208 0 0 1-1.754 2.125l-.183.198-.235-.132a63.73 63.73 0 0 0-3.323-1.76c.89.682 1.95 1.538 2.39 1.953.359.337.976.865 1.466 1.25.255.202.46.353.583.43a.866.866 0 0 0 .051.029c-.002 0-.012-.004-.03-.007zm-15.999-.35c-.082.977.351 2.315 1.21 3.35 1.095 1.325 2.769 2.098 5.015 2.098 3.24 0 6.253-1.58 9.048-4.764l-.684-.474c-1.436 1.64-2.699 2.79-3.795 3.454-1.8 1.09-4.473 1.618-6.367 1.2-2.02-.446-3.483-2.012-3.885-4.182-.324-1.748.353-3.549 1.517-4.591-1.319.832-1.902 2.046-2.059 3.91zm14.79-.022l-.452.058.251.174a38.5 38.5 0 0 0 .202-.232zm16.603-23.64c.303-.203 1.028-.56 2.193-1.084l-.214-.123c-.349.049-1.04.388-2.016 1.018-.822.53-1.448 1.128-2.045 1.912a15.049 15.049 0 0 1 2.082-1.723zm-17.93 22.813c-.687-.646-3.026-2.475-3.558-2.791-1.01-.599-2.1-.998-3.323-.998-1.637 0-2.372.174-3.564.873-1.28.752-2.127 2.572-1.803 4.32.353 1.903 1.611 3.25 3.358 3.636 1.716.379 4.212-.115 5.868-1.117 1.033-.626 2.256-1.743 3.662-3.352-.243-.208-.469-.41-.64-.571z"/><path d="M534.468 186.98c-.147 1.025-.003 1.795.45 2.646.185.349.416.706.782 1.227l.5.701c.215.303.384.545.554.795 1.516 2.231 1.858 3.155 1.858 4.889 0 1.833-1.397 3.534-3.094 3.534-2.006 0-3.605-1.195-5.23-4.316-1.116-1.785-1.58-4.394-1.58-6.73 0-2.085.346-3.493 1.611-4.947 1.696-1.948 4.528-.43 4.15 2.2zm-5.076 2.747c0 2.216.445 4.714 1.488 6.386 1.53 2.935 2.915 3.97 4.638 3.97 1.287 0 2.41-1.367 2.41-2.845 0-1.58-.295-2.375-1.74-4.5a42.481 42.481 0 0 0-.545-.783c.033.046-.393-.55-.501-.704-.382-.542-.626-.92-.828-1.3-.52-.978-.692-1.896-.523-3.07.284-1.978-1.73-3.058-2.956-1.648-1.134 1.301-1.443 2.56-1.443 4.494zm-11.531 13.863a.343.343 0 0 1-.342-.345c0-.19.153-.345.342-.345.11 0 .22-.002.33-.006a.343.343 0 0 1 .355.332.344.344 0 0 1-.33.357 9.694 9.694 0 0 1-.355.006zm2.81-.422a.345.345 0 0 1-.2-.659 7.11 7.11 0 0 0 .312-.103.345.345 0 0 1 .225.65c-.111.04-.224.077-.337.112zm2.561-1.24a.341.341 0 0 1-.476-.09.346.346 0 0 1 .09-.478c.09-.063.18-.127.268-.192a.341.341 0 0 1 .48.072.346.346 0 0 1-.072.482c-.096.07-.192.14-.29.207zm2.07-1.94a.341.341 0 0 1-.481.057.346.346 0 0 1-.056-.484c.068-.087.134-.175.2-.264a.341.341 0 0 1 .478-.075.346.346 0 0 1 .074.482c-.07.096-.142.19-.215.284zm1.405-2.506a.342.342 0 0 1-.44.203.345.345 0 0 1-.202-.444c.039-.103.075-.207.109-.312a.342.342 0 1 1 .65.215 9.158 9.158 0 0 1-.117.338zm.562-2.804a.343.343 0 0 1-.356.33.344.344 0 0 1-.328-.36c.004-.11.007-.22.007-.33a.345.345 0 0 1 .344-.344c.189 0 .342.156.341.346 0 .12-.003.239-.008.358zm-.314-2.813a.342.342 0 1 1-.66.182 8.455 8.455 0 0 0-.094-.318.342.342 0 1 1 .653-.208c.036.114.07.228.1.344zm-1.172-2.61c.103.16.06.373-.099.478a.341.341 0 0 1-.474-.1 8.623 8.623 0 0 0-.186-.273.346.346 0 0 1 .08-.48.341.341 0 0 1 .478.08c.069.098.136.196.2.296zm-1.895-2.116c.146.12.168.338.048.485a.34.34 0 0 1-.482.048 8.755 8.755 0 0 0-.258-.205.346.346 0 0 1-.067-.482.341.341 0 0 1 .48-.067c.095.072.188.146.28.221zm-2.457-1.463c.176.071.26.272.19.449a.342.342 0 0 1-.445.19 8.74 8.74 0 0 0-.308-.117.345.345 0 0 1 .231-.649c.112.04.223.083.332.127zm-2.777-.66a.344.344 0 0 1-.056.688 8.933 8.933 0 0 0-.33-.021.344.344 0 0 1-.326-.36.343.343 0 0 1 .357-.329c.119.006.237.013.355.023zm-2.788.178a.345.345 0 0 1 .142.674 8.77 8.77 0 0 0-.321.075.345.345 0 0 1-.167-.668 9.45 9.45 0 0 1 .346-.081zm-2.66 1.005a.341.341 0 0 1 .466.132.346.346 0 0 1-.131.47c-.096.053-.19.109-.285.166a.341.341 0 0 1-.47-.114.346.346 0 0 1 .114-.474c.1-.062.203-.122.307-.18zm-2.236 1.749a.34.34 0 0 1 .484-.013.346.346 0 0 1 .013.487 7.32 7.32 0 0 0-.222.245.34.34 0 0 1-.483.031.346.346 0 0 1-.031-.486 7.51 7.51 0 0 1 .24-.264zm-1.623 2.362a.341.341 0 0 1 .457-.16c.17.082.242.288.16.46a8.113 8.113 0 0 0-.137.3.342.342 0 0 1-.45.179.345.345 0 0 1-.178-.454 9.2 9.2 0 0 1 .148-.325zm-.823 2.77a.343.343 0 1 1 .68.09 8.944 8.944 0 0 0-.038.329.343.343 0 1 1-.681-.064c.01-.119.024-.237.04-.356zm.06 2.804a.343.343 0 0 1 .674-.12c.02.109.04.217.064.325a.342.342 0 1 1-.67.146 9.16 9.16 0 0 1-.068-.351zm.927 2.705a.346.346 0 0 1 .141-.466.341.341 0 0 1 .463.142c.052.098.105.194.16.29a.346.346 0 0 1-.123.47.341.341 0 0 1-.468-.124 9.25 9.25 0 0 1-.173-.312zm1.7 2.283a.346.346 0 0 1-.005-.488.34.34 0 0 1 .484-.005c.078.078.158.154.24.228.14.128.15.346.023.487a.34.34 0 0 1-.484.023 9.423 9.423 0 0 1-.259-.245zm2.314 1.674a.346.346 0 0 1-.15-.463.341.341 0 0 1 .461-.15c.098.05.197.098.297.145.171.08.246.285.166.457a.341.341 0 0 1-.454.168 9.427 9.427 0 0 1-.32-.157zm2.72.907a.344.344 0 0 1 .115-.68c.108.019.217.036.326.05a.344.344 0 0 1-.09.683 9.505 9.505 0 0 1-.35-.053zm-.065-20.648l-.15.086-.169-.3.15-.085c.738-.422 1.83-.897 3.286-1.426 2.617-.842 7.601-1.164 10.777-.525 2.33.47 4.178 1.12 5.545 1.953l.147.09-.178.294-.146-.089c-1.33-.81-3.141-1.448-5.435-1.91-3.118-.627-8.043-.31-10.6.513-1.432.521-2.509.988-3.228 1.4z"/><path d="M512.466 184.407l.203.278c-2.152 1.59-3.633 3.34-4.447 5.246-.836 1.96-.992 3.451-.92 6.325.015.6.02.823.02 1.124h-.343c0-.297-.004-.518-.02-1.115-.072-2.92.087-4.452.949-6.47.84-1.967 2.36-3.763 4.558-5.388zm-5.98 14.275l1.097 1.227c.446.498 1.03 1.351 1.754 2.562.286.477.42.743.44.876a.221.221 0 0 1-.065.201c1.267 1.719 2.768 2.587 4.902 2.973l-.06.339c-2.27-.41-3.87-1.357-5.21-3.234-.172-.241-.227-.316-.226-.367l-2.632-4.577z"/><path d="M496.346 205.525l-.48.086.197-.287.283.201zm1.38-2.629l3.848-6.514 2.29-4.435.613.308c-1.268 2.638-2.488 4.938-3.659 6.902-1.036 1.737-2.517 4.09-4.443 7.06l-.195-.114c-.87-.515-1.516-.926-1.943-1.235l.397-.561 1.429 1.017 1.663-2.428zm-1.908 4.179a32.05 32.05 0 0 1 2.017 1.256c.597.4.993.713 1.318 1.042.146.148.28.301.425.482.081.103.164.211.274.36l.303.407c.631.844 1.951 1.81 2.928 2.188.345.134.482.184.708.257 1.491.48 3.35.61 6.17.2 1.217-.073 3.003.18 6.173.789l.628.121c3.285.639 4.073.78 5.091.874 1.396.13 2.584-.03 3.98-.426.224-.063.912-.27 1.017-.3.363-.105.615-.162.842-.184 1.256-.122 1.625.069 2.716 1.47 1.055 1.356 3.283 2.118 5.186 1.668 1.285-.305 1.944-.897 2.054-1.777.099-1.276-.401-1.778-1.655-1.668-1.652.145-2.493.077-2.74-.369l-.02-.038-.012-.042c-.213-.825-.338-.938-.51-.787-.472.416-1.325.594-2.584.65-.402.018-.728.022-1.387.022-.691 0-1.218-.194-2.166-.69a10.34 10.34 0 0 0-.774-.385 3.26 3.26 0 0 0-.442-.16c-.663-.18-1.796-.286-3.38-.313h-7.976c-.775 0-1.796-.385-2.975-1.028-.73-.4-1.519-.908-1.792-1.116a20.468 20.468 0 0 0-1.348-.923c-.846-.53-1.588-.897-2.116-1.014-1.196-.265-2.246-.29-3.251-.106-.628.116-1.338.353-2.128.714l-.152.07-.148-.078c-1.615-.846-2.854-1.52-3.717-2.023l-.557.857zm-.079-1.138l-1.5-1.068.397-.56c.346.25.855.577 1.523.98 1.749-2.705 3.106-4.867 4.072-6.487 1.16-1.944 2.37-4.227 3.63-6.847l.611.31-2.3 4.452-3.87 6.55-1.604 2.343a94.378 94.378 0 0 0 3.564 1.943c.778-.345 1.49-.577 2.135-.695 1.096-.202 2.238-.174 3.522.11.624.139 1.421.534 2.33 1.102a21.145 21.145 0 0 1 1.4.959 18.731 18.731 0 0 0 1.705 1.06c1.084.59 2.02.944 2.648.944h7.982c1.642.028 2.822.14 3.552.337.172.047.347.11.535.192.225.098.334.153.819.406.855.448 1.303.613 1.85.613.65 0 .968-.004 1.356-.021 1.103-.05 1.852-.206 2.165-.48.699-.616 1.273-.131 1.597 1.036l.035.012c.087.03.22.053.396.067.38.03.93.015 1.645-.048 1.676-.147 2.528.71 2.396 2.424-.152 1.216-1.039 2.014-2.58 2.378-2.16.511-4.66-.344-5.881-1.913-.957-1.228-1.108-1.306-2.112-1.209a4.203 4.203 0 0 0-.72.16c-.098.029-.788.236-1.018.302-1.47.416-2.738.586-4.228.448-1.052-.097-1.84-.238-5.158-.883a303.08 303.08 0 0 0-.628-.122c-3.105-.596-4.866-.846-5.975-.78-2.891.422-4.854.285-6.448-.229a11.842 11.842 0 0 1-.744-.27c-1.094-.423-2.52-1.466-3.23-2.417l-.303-.408a13.148 13.148 0 0 0-.261-.342 5.217 5.217 0 0 0-.377-.428c-.288-.29-.65-.578-1.211-.953a29.723 29.723 0 0 0-2.29-1.405l-.328-.179.205-.314.696-1.07z"/><path d="M522.474 211.32l.342-.015c.033.782-.193 1.536-.674 2.256a4.183 4.183 0 0 1-1.875 1.568l-.133-.318a3.84 3.84 0 0 0 1.724-1.442c.441-.661.646-1.343.616-2.049zm2.807.465l.336.069c-.134.658-.444 1.065-.93 1.188-.14.035-.233.032-.51.003-.242-.026-.373-.029-.534 0-.13.022-.273.26-.238.453.028.15.109.223.349.337l.101.047c.05.023.114.038.225.054l.05.008c.374.054.534.129.565.41.025.216.025.514.001.896l-.342-.021a5.235 5.235 0 0 0 .001-.837c-.006-.054-.051-.075-.274-.107l-.051-.008a1.102 1.102 0 0 1-.421-.13c-.331-.156-.487-.298-.54-.586-.069-.372.186-.798.515-.856.2-.035.357-.032.628-.003.233.025.307.027.391.006.343-.087.568-.383.678-.923zm7.354 2.418c-.254 0-.385.098-.385.354 0 .292.336.668.903 1.048.602.403 1.133.484 1.922.154.874-.366 1.052-.609.834-.967-.095-.156-.336-.163-.886-.042l-.075.016c-.373.083-.515.109-.688.109-.187 0-.394-.06-.634-.168a5.053 5.053 0 0 1-.372-.19c-.629-.348-.563-.314-.62-.314zm0-.345c.098 0 .206.041.366.124.084.044.43.24.418.234.135.074.244.13.347.177.2.09.364.137.494.137.138 0 .27-.023.615-.1l.075-.017c.703-.154 1.042-.144 1.251.2.363.596.046 1.029-.995 1.464-.901.378-1.55.279-2.242-.185-.659-.442-1.056-.886-1.056-1.335 0-.472.302-.699.727-.699zm-15.729-7.565v.344c-2.103 0-3.374-.358-5.086-1.207-.812-.402-1.73-1.31-2.767-2.725l.275-.204c1.007 1.374 1.891 2.247 2.643 2.62 1.669.828 2.89 1.172 4.935 1.172zm-2.528-25.388a.345.345 0 0 1-.223-.651c.107-.038.217-.075.328-.112a.345.345 0 0 1 .216.654c-.109.036-.216.073-.321.11zm2.598-.786a.345.345 0 0 1-.172-.667l.334-.086a.345.345 0 0 1 .166.668l-.328.085zm2.649-.588a.344.344 0 1 1-.121-.678l.34-.06a.344.344 0 1 1 .115.68 19.44 19.44 0 0 0-.334.058zm2.687-.367a.344.344 0 1 1-.06-.686l.345-.029a.343.343 0 0 1 .367.318.344.344 0 0 1-.316.37l-.336.027zm2.695-.089a.344.344 0 0 1-.333-.354.343.343 0 0 1 .352-.334c.117.003.233.007.348.013.19.008.335.17.327.36a.343.343 0 0 1-.358.328c-.111-.005-.223-.01-.336-.013zm2.688.262a.344.344 0 0 1 .1-.682l.341.053a.344.344 0 0 1-.106.68l-.335-.05zm2.653.524a.345.345 0 0 1 .172-.667c.115.03.227.06.337.092a.345.345 0 0 1-.185.663c-.106-.03-.214-.06-.324-.088zm2.469.95a.346.346 0 0 1-.12-.473.341.341 0 0 1 .47-.12l.113.07c.16.1.208.314.108.475a.341.341 0 0 1-.472.108 4.718 4.718 0 0 0-.1-.06zm-32.737 28.886a.345.345 0 0 1-.16-.46.341.341 0 0 1 .457-.161c.201.097.406.194.613.289a.345.345 0 0 1 .17.456.342.342 0 0 1-.453.171 31.493 31.493 0 0 1-.627-.295zm2.865 1.224a.345.345 0 0 1-.2-.443.342.342 0 0 1 .44-.202c.21.08.423.157.638.234a.345.345 0 0 1-.23.65 40.55 40.55 0 0 1-.648-.239zm2.945.99a.345.345 0 0 1 .195-.66c.215.064.433.128.653.19a.345.345 0 0 1-.186.664 51.112 51.112 0 0 1-.662-.194zm2.931-3.096l.096.331c-.816.238-1.308.614-1.495 1.12-.282.766.1 1.398.872 1.398 1.085 0 1.375.092 1.69.641.298.524.03 1.157-.414 1.509l-.212-.271c.326-.259.524-.724.328-1.066-.234-.41-.419-.468-1.392-.468-1.022 0-1.555-.882-1.193-1.862.23-.624.81-1.066 1.72-1.332z"/><path d="M500.766 207.35l.324.607c-.5.27-.84.56-1.027.863-.188.303-.294.736-.31 1.3l-.685-.02c.02-.677.155-1.226.413-1.644.258-.417.688-.784 1.285-1.106z"/></g><g fill="#FFF" fill-rule="nonzero"><path d="M455.288 319.559c-8.107 0-14.68-6.483-14.68-14.48 0-7.996 6.573-14.479 14.68-14.479 8.108 0 14.68 6.483 14.68 14.48 0 7.996-6.572 14.479-14.68 14.479zm0-1.2c7.437 0 13.465-5.946 13.465-13.28 0-7.333-6.028-13.279-13.465-13.279-7.436 0-13.464 5.946-13.464 13.28 0 7.333 6.028 13.279 13.464 13.279z"/><path d="M460.761 291.906l.377 1.14c-4.237 1.363-7.729 3.898-10.489 7.617-3.081 4.152-3.703 7.174-3.642 13.529l.002.16c.007.706.01 1.02.01 1.416h-1.217c0-.39-.002-.702-.009-1.405l-.001-.16c-.064-6.59.605-9.84 3.876-14.249 2.91-3.92 6.611-6.607 11.093-8.048z"/><path d="M466.892 296.687l-.238 1.177c-5.248-1.034-9.278.429-12.2 4.414-1.984 2.707-2.619 5.962-2.116 9.367.398 2.69 1.53 5.303 2.679 6.6l-.915.79c-1.312-1.48-2.537-4.308-2.966-7.217-.547-3.696.149-7.263 2.333-10.243 3.207-4.374 7.718-6.012 13.423-4.888zm-20.167-2.587l1.214-.057c.192 3.967-.499 7.062-2.096 9.272-1.542 2.133-2.96 3.679-4.264 4.639l-.727-.963c1.189-.874 2.526-2.332 4.001-4.373 1.42-1.963 2.051-4.798 1.872-8.518z"/><path d="M442.48 299.776l.059-1.199c2.324.11 4.286.318 5.888.626 4.452.858 8.06 2.17 12.694 5.317.328.223 1.49 1.157 2.568 2.128 1.76 1.585 3.335 3.257 4.55 4.944l-.99.695c-1.159-1.607-2.678-3.22-4.38-4.753-1.04-.937-2.16-1.837-2.437-2.026-4.479-3.04-7.937-4.298-12.238-5.127-1.538-.296-3.444-.499-5.713-.605z"/></g><g fill="#FFF"><path d="M324.68 166.806c-1.004 0-1.779-.084-2.919-.274a193.284 193.284 0 0 1-.635-.106 15.73 15.73 0 0 0-.591-.086 7.352 7.352 0 0 0-.913-.062c-.461 0-1.201.202-2.318.61-.143.052-.292.107-.467.173-2.14.805-2.357.879-2.912.879-.222 0-.687.01-1.49.032l-2.545.072-1.453.039c-1.713.043-3.037.066-4.008.066-1.163 0-2.31-.027-4.54-.098l-.23-.007c-2.491-.079-3.514-.104-4.655-.104-.718 0-1.565.066-2.529.192a46.29 46.29 0 0 0-2.278.361c-.434.08-2.59.499-2.924.546-.08.012-.161.024-.245.04-.322.055-1.685.364-1.802.389-.98.208-2.014.384-3.352.556-2.96.38-5.977-.054-9.899-1.171-1.824-.52-2.256-.626-2.913-.695-.64-.067-.864-.066-3.569-.009-3.828.081-5.58.423-7.659 1.5-2.414 1.253-2.914 1.733-3.497 3.575-.635 2.004-1.38 8.375-1.38 11.246 0 1.862.007 2.767.04 3.876.052 1.827.168 3.315.369 4.504.267 1.58 1.082 4.091 2.442 7.507l3.38 6.692c1.687 2.775 2.993 4.808 3.912 6.094 1.539 2.151 3.279 4.049 4.919 5.268 1.835 1.363 4.114 2.072 6.71 1.995 1.892-.057 9.994-.964 24.212-2.716l23.713-2.84 23.389-3.045c3.163-.407 6.81-.868 10.938-1.383 5.292-.661 6.709-1.115 7.293-1.928a1.28 1.28 0 0 0 .08-.128c.102-.194.132-.373.156-.871.041-.827.11-1.262.375-1.897.138-.327.34-.74.641-1.32.162-.311.775-1.47.852-1.617l.225-.43c.618-1.196 1.009-2.041 1.205-2.655.57-1.78 1.124-5.973 1.124-8.983 0-.919.011-1.752.047-3.781l.002-.144c.067-3.78.066-5.356-.041-6.064-.032-.207-.381-.582-1.101-1.036-.834-.525-2.081-1.105-3.733-1.733l-.053-.02-.049-.028c-4.1-2.325-6.536-3.636-7.186-3.874-.19-.07-.456-.12-.976-.193-1.017-.14-1.181-.166-1.653-.28-.965-.231-1.748-.601-2.382-1.203-.978-.93-1.49-1.148-2.253-1.16a11.927 11.927 0 0 0-.414.001c-1.34 0-3.383-1.028-4.52-2.477a7.67 7.67 0 0 1-.835-1.322c-.09-.18-.173-.36-.266-.573l-.213-.493c-.205-.467-.348-.707-.55-.9-.269-.257-.833-.419-1.66-.476-.355-.025-.654-.03-1.259-.028h-.215c-.673 0-2.32.25-5.27.773l-.36.063-1.565.279c-2.125.685-4.372.882-7.747.882zm40.006 9.708c3.628 1.382 5.502 2.568 5.7 3.878.126.83.127 2.363.058 6.3l-.002.145a205.33 205.33 0 0 0-.048 3.756c0 3.147-.572 7.484-1.19 9.415-.229.712-.644 1.61-1.298 2.874a86.36 86.36 0 0 1-.228.438l-.85 1.611a17.81 17.81 0 0 0-.59 1.215c-.186.444-.233.743-.266 1.418-.035.697-.09 1.029-.32 1.464a2.52 2.52 0 0 1-.183.295c-.915 1.274-2.595 1.812-8.304 2.525-4.127.516-7.771.977-10.932 1.383l-23.394 3.045-23.72 2.842c-14.299 1.76-22.382 2.667-24.346 2.725-2.928.087-5.534-.723-7.636-2.285-1.778-1.321-3.615-3.324-5.233-5.588-.948-1.325-2.275-3.392-3.987-6.208l-.027-.049-3.407-6.745-.026-.058c-1.401-3.516-2.245-6.116-2.534-7.824-.214-1.265-.334-2.812-.389-4.7a124.91 124.91 0 0 1-.04-3.916c0-3.004.762-9.511 1.446-11.673.718-2.267 1.487-3.006 4.211-4.419 2.31-1.198 4.275-1.58 8.31-1.666 2.806-.06 3.022-.06 3.756.016.777.082 1.25.198 3.165.744 3.746 1.067 6.585 1.474 9.302 1.126a39.164 39.164 0 0 0 3.233-.536c.085-.018 1.49-.336 1.855-.4a9.29 9.29 0 0 1 .291-.046c.29-.041 2.4-.452 2.87-.537.85-.154 1.619-.277 2.35-.373 1.023-.133 1.93-.205 2.72-.205 1.164 0 2.195.026 4.703.106l.231.007c2.214.07 3.35.097 4.492.097.956 0 2.27-.023 3.97-.066l1.45-.038 2.545-.072a71.274 71.274 0 0 1 1.53-.034c.27 0 .636-.123 2.39-.783l.48-.178c1.283-.469 2.132-.7 2.828-.7a8.8 8.8 0 0 1 1.095.073c.198.024.402.054.646.094a49.08 49.08 0 0 1 .643.107c1.066.178 1.767.254 2.674.254 3.253 0 5.388-.19 7.337-.825l.1-.025 1.615-.288.36-.064c3.086-.545 4.726-.795 5.53-.795h.211c.64-.002.964.003 1.365.031 1.145.08 1.996.323 2.579.88.37.356.598.736.872 1.362.6 1.367.652 1.47 1.13 2.08.865 1.101 2.483 1.916 3.36 1.916h.437c1.146.016 2.01.385 3.248 1.562.424.403.98.666 1.714.842.403.097.551.12 1.509.252.625.087.96.15 1.282.27.763.279 3.175 1.576 7.358 3.948z" fill-rule="nonzero"/><path d="M268.767 177.597c2.764 4.152 3.905 6.193 4.484 7.928.01.031.266.97.382 1.297.266.75.568 1.136.852 1.136.328 0 .596-.006 1.07-.022.465-.015.6-.018.822-.02.981-.01 1.794.073 2.88.328 1.742.41 3.862 2.268 4.421 3.283a132.123 132.123 0 0 0 .327.588c.179.32.366.646.567.986a46.12 46.12 0 0 0 1.662 2.631c.723 1.057 1.421 1.957 2.075 2.653l.157.163c.909.929 2.318 1.572 4.067 1.967 1.191.269 2.258.38 3.443.432.511.022 2.164-.098 5.363-.383 1.665-.149 9.725-.895 11.67-1.072 8.559-.779 12.482-1.204 15.81-1.68.59-.084 1.51-.194 3.101-.375.435-.05 2.06-.232 2.132-.24.903-.102 1.61-.183 2.298-.263 1.028-.119 1.933-.228 2.755-.331 2.93-.37 4.779-.676 5.139-.863.52-.27.906-.563 1.315-.987.335-.348.21-.195 1.475-1.777.06-.074.12-.154.183-.24.269-.37.557-.835.87-1.396.244-.433 1.201-2.283 1.337-2.468.266-.363.835-1.554 1.844-3.804l.069-.153c1.47-3.281 1.553-3.465 1.837-3.971.691-1.237 2.972-1.737 4.998-1.676 1.635.05 4.856-.064 5.41-.263.156-.057.266-.128.727-.459.977-.7 1.605-.907 2.404-.43.055.032.206.083.494.163l.089.024c.288.08.424.121.567.176.3.114.478.227.56.48.153.463-.13.848-.722 1.357a9.21 9.21 0 0 1-.434.349c-.206.156-.823.599-.89.651-.634.503-1.81.793-3.234.95-.544.06-1.051.06-2.968.026-.876-.016-1.417-.023-2.018-.023-1.002 0-1.697.282-2.205.764a2.854 2.854 0 0 0-.323.366 4.31 4.31 0 0 0-.118.165l-.1.148c-.159.235-.629 1.369-1.366 3.323l-2.122 4.588c-1.83 3.194-2.885 4.99-3.19 5.434-.647.936-2.13 1.798-4.807 2.608-2.019.61-5.342 1.259-9.985 1.952l-18.311 2.528c-7.65.895-13.391 1.343-17.23 1.343-5.455 0-8.654-.87-10.622-2.72-1.18-1.11-2.382-2.822-3.593-5.1-1.785-2.746-3.535-4.455-5.228-5.14-1.77-.718-3.384-.764-5.555-.427l-.8.128c-.284.043-.626.084-1.08.129-.15.015-2.142.197-2.82.268-1.245.131-2.33.278-3.37.467-2.366.43-3.133.333-3.792-.28l-.016-.014a2.332 2.332 0 0 0-.085-.077c-.706-.595-.789-1.954-.129-3.423.167-.371.21-.838.139-1.397-.058-.456-.184-.94-.38-1.524a34.243 34.243 0 0 1-.41-1.204c-.08-.3-.654-1.287-1.719-2.985l-.076-.122-.274-.436-.27-.428c-.215-.342-.365-.58-.502-.802a23.617 23.617 0 0 1-.72-1.207c-.705-1.327-1.929-7.909-1.54-8.852.45-1.092 2.154-1.611 3.576-.975.3.134.529.227.715.294.07.025.13.046.197.067.026.008.132.04.159.05l.086.028c.19.068.365.158.677.351 1.135.705 2.574 1.824 3.984 3.091a26.155 26.155 0 0 1 3.134 3.39c.195.254.366.487.498.678a6.65 6.65 0 0 1 .173.263.508.508 0 0 1 .01.018zm-1.459-.38a25.196 25.196 0 0 0-3.014-3.261c-1.37-1.232-2.766-2.317-3.847-2.988-.257-.16-.373-.22-.486-.26a1.963 1.963 0 0 0-.057-.019l-.157-.049a6.128 6.128 0 0 1-.234-.078c-.21-.076-.461-.179-.783-.323-.946-.423-2.041-.09-2.268.463-.26.63.915 6.945 1.5 8.047.122.228.344.599.688 1.152.136.22.285.457.5.798l.27.428.274.437.077.122c1.166 1.86 1.714 2.802 1.832 3.246.042.158.376 1.099.391 1.145.215.639.355 1.177.422 1.707.091.717.034 1.352-.214 1.902-.505 1.124-.449 2.038-.128 2.308.038.032.07.061.12.108l.016.014c.38.354.854.414 2.944.034a45.91 45.91 0 0 1 3.445-.477c.686-.072 2.68-.255 2.824-.269a20.57 20.57 0 0 0 1.029-.122l.797-.127c2.333-.363 4.11-.312 6.08.486 1.91.774 3.795 2.614 5.7 5.546 1.186 2.23 2.33 3.86 3.423 4.888 1.753 1.647 4.72 2.454 9.947 2.454 3.793 0 9.5-.445 17.105-1.335l18.296-2.526c4.594-.685 7.878-1.327 9.84-1.92 2.484-.751 3.788-1.51 4.285-2.23.283-.409 1.341-2.213 3.13-5.329l2.089-4.518c.766-2.035 1.233-3.162 1.457-3.492l.1-.147a3.808 3.808 0 0 1 .575-.689c.687-.652 1.624-1.033 2.88-1.033.61 0 1.155.007 2.037.023 1.851.033 2.36.033 2.842-.02 1.237-.136 2.293-.397 2.73-.743.09-.07.718-.52.906-.664a8.27 8.27 0 0 0 .388-.311c.12-.103.217-.196.291-.277a11.627 11.627 0 0 0-.319-.092l-.09-.025c-.388-.108-.571-.169-.734-.266-.34-.202-.642-.103-1.323.386-.558.4-.685.482-.967.584-.725.26-3.982.376-5.775.322-1.66-.05-3.673.39-4.114 1.178-.261.467-.364.694-1.799 3.896l-.069.154c-1.06 2.364-1.617 3.53-1.945 3.977-.084.115-.993 1.872-1.273 2.37a15.12 15.12 0 0 1-.931 1.49c-.071.099-.141.19-.21.277-1.302 1.628-1.166 1.462-1.534 1.843a5.75 5.75 0 0 1-1.568 1.176c-.522.27-2.314.568-5.47.966-.826.104-1.734.213-2.765.333-.688.08-1.397.16-2.301.262l-2.131.24c-1.582.18-2.495.29-3.072.372-3.35.479-7.287.905-15.861 1.686-1.944.177-10.005.923-11.672 1.071-3.276.293-4.916.412-5.494.387-1.24-.054-2.358-.171-3.618-.456-1.917-.433-3.489-1.15-4.552-2.237a12.812 12.812 0 0 1-.17-.176c-.693-.737-1.42-1.674-2.168-2.769a46.963 46.963 0 0 1-1.698-2.686 57.402 57.402 0 0 1-.906-1.597c-.112-.203-.672-.833-1.266-1.353-.843-.739-1.717-1.264-2.526-1.455a10.173 10.173 0 0 0-2.642-.302c-.213.002-.344.006-.8.02-.484.016-.761.022-1.102.022-.854 0-1.38-.67-1.773-1.778-.13-.37-.39-1.32-.387-1.313-.547-1.639-1.66-3.627-4.394-7.733l-.232-.35c-.11-.154-.243-.333-.391-.525z" fill-rule="nonzero"/><path d="M263.207 196.554a.484.484 0 0 1-.494-.473.483.483 0 0 1 .482-.485c.09-.001.237-.012.442-.033a.486.486 0 0 1 .535.427.481.481 0 0 1-.435.527 6.31 6.31 0 0 1-.53.037zm3.927-.464a.486.486 0 0 1-.544-.415.481.481 0 0 1 .422-.536l.486-.06a.486.486 0 0 1 .543.418.481.481 0 0 1-.424.534l-.483.06zm3.857-.405a.485.485 0 0 1-.526-.44.482.482 0 0 1 .447-.516l.49-.037a.486.486 0 0 1 .522.444.482.482 0 0 1-.451.512l-.482.037zm3.841-.126a.483.483 0 0 1-.47-.496.484.484 0 0 1 .506-.462c.172.006.34.015.501.025a.482.482 0 0 1 .455.51.485.485 0 0 1-.519.447 16.66 16.66 0 0 0-.473-.024zm3.197.95a.474.474 0 0 1 .14-.665.493.493 0 0 1 .676.138c.07.105.141.214.267.408a.475.475 0 0 1-.149.662.493.493 0 0 1-.673-.146l-.26-.398zm2.242 3.188a.474.474 0 0 1 .079-.673.493.493 0 0 1 .685.078c.099.122.199.244.3.365a.474.474 0 0 1-.064.675.493.493 0 0 1-.687-.064c-.106-.126-.21-.253-.313-.38zm2.741 2.844a.474.474 0 0 1-.045-.676.493.493 0 0 1 .688-.045c.12.103.24.204.362.304.207.17.234.472.062.676a.493.493 0 0 1-.687.06 20.523 20.523 0 0 1-.38-.319zm3.254 2.288a.475.475 0 0 1-.18-.655.492.492 0 0 1 .665-.177c.137.077.276.153.416.228a.475.475 0 0 1 .196.65.492.492 0 0 1-.66.193 20.051 20.051 0 0 1-.437-.24zm3.659 1.611a.478.478 0 0 1-.307-.607.49.49 0 0 1 .617-.302c.15.05.301.098.453.144a.478.478 0 0 1 .322.6.49.49 0 0 1-.61.316c-.16-.049-.318-.099-.475-.15zm3.861.904a.48.48 0 0 1-.41-.545.486.486 0 0 1 .554-.403c.157.023.315.044.473.064a.481.481 0 0 1 .422.537.486.486 0 0 1-.546.414c-.165-.02-.33-.043-.493-.067zm3.964.278a.484.484 0 0 1-.488-.48c0-.264.218-.479.488-.479.159 0 .319-.001.48-.004a.484.484 0 0 1 .495.471.483.483 0 0 1-.479.488 30.5 30.5 0 0 1-.496.004zm3.945-.232a.485.485 0 0 1-.53-.433.482.482 0 0 1 .44-.521l.485-.045a.485.485 0 0 1 .53.433.482.482 0 0 1-.44.522l-.485.044zm3.881-.347a.485.485 0 0 1-.529-.435.482.482 0 0 1 .442-.52l.486-.043a.485.485 0 0 1 .529.435.482.482 0 0 1-.442.52l-.486.043zm3.885-.34a.485.485 0 0 1-.528-.435.482.482 0 0 1 .442-.52l.487-.042a.485.485 0 0 1 .529.435.482.482 0 0 1-.443.52l-.487.043zm3.886-.339a.485.485 0 0 1-.53-.435.482.482 0 0 1 .443-.52l.486-.043a.485.485 0 0 1 .529.435.482.482 0 0 1-.442.52l-.486.043zm3.887-.346a.485.485 0 0 1-.53-.434.482.482 0 0 1 .441-.52l.484-.045a.485.485 0 0 1 .53.434.482.482 0 0 1-.44.521l-.485.044zm3.888-.358a.485.485 0 0 1-.532-.431.482.482 0 0 1 .439-.523l.486-.046a.485.485 0 0 1 .532.431.482.482 0 0 1-.439.523l-.486.046zm3.882-.374a.486.486 0 0 1-.534-.429.482.482 0 0 1 .437-.525l.485-.048a.486.486 0 0 1 .534.429.482.482 0 0 1-.436.525l-.486.048zm3.884-.397a.486.486 0 0 1-.537-.425.481.481 0 0 1 .432-.528l.485-.052a.486.486 0 0 1 .538.425.481.481 0 0 1-.432.528 484.6 484.6 0 0 1-.486.052zm3.881-.428a.486.486 0 0 1-.54-.42.481.481 0 0 1 .427-.532l.484-.056a.486.486 0 0 1 .542.42.481.481 0 0 1-.427.532l-.486.056zm3.878-.471a.486.486 0 0 1-.547-.413.481.481 0 0 1 .42-.538c.162-.02.323-.042.482-.063a.486.486 0 0 1 .548.412.48.48 0 0 1-.42.539l-.483.063zm3.873-.536a.486.486 0 0 1-.555-.402.48.48 0 0 1 .409-.545l.48-.073a.487.487 0 0 1 .557.4.48.48 0 0 1-.407.547l-.484.073zm3.865-.64a.487.487 0 0 1-.57-.381.48.48 0 0 1 .389-.56l.475-.09a.488.488 0 0 1 .573.378.48.48 0 0 1-.385.562l-.482.091zm3.845-.858a.489.489 0 0 1-.602-.33.478.478 0 0 1 .336-.592c.159-.044.311-.088.457-.133a.49.49 0 0 1 .61.317.478.478 0 0 1-.323.6c-.153.046-.312.092-.478.138zm3.55-2.103a.492.492 0 0 1-.669.164.475.475 0 0 1-.167-.657 9.35 9.35 0 0 0 .228-.397.492.492 0 0 1 .66-.196.475.475 0 0 1 .2.649c-.084.153-.167.299-.252.437zm1.617-3.588a.49.49 0 0 1-.626.286.477.477 0 0 1-.29-.615l.165-.448a.49.49 0 0 1 .624-.289c.253.09.385.364.294.613l-.167.453zm1.314-3.615a.49.49 0 0 1-.626.282.477.477 0 0 1-.288-.616l.173-.453a.49.49 0 0 1 .63-.277.477.477 0 0 1 .281.619l-.17.445zm1.539-3.433a.492.492 0 0 1-.665.18.475.475 0 0 1-.182-.654c.086-.15.174-.293.262-.43a.493.493 0 0 1 .672-.15.475.475 0 0 1 .152.662c-.08.124-.16.255-.239.392zm2.588-2.321a.49.49 0 0 1-.637-.26.477.477 0 0 1 .264-.626 14.6 14.6 0 0 1 .47-.181.49.49 0 0 1 .627.281.477.477 0 0 1-.286.617 13.44 13.44 0 0 0-.438.169zm3.656-1.053a.488.488 0 0 1-.578-.37.48.48 0 0 1 .376-.568l.485-.097a.487.487 0 0 1 .572.378.48.48 0 0 1-.384.563c-.16.03-.317.062-.471.094zm3.816-.613a.486.486 0 0 1-.545-.416.481.481 0 0 1 .423-.535l.488-.059a.486.486 0 0 1 .541.42.481.481 0 0 1-.427.532l-.48.058zm-111.956-9.87a.486.486 0 0 1 .551-.407.48.48 0 0 1 .414.542l-.065.469a.486.486 0 0 1-.546.414.481.481 0 0 1-.421-.537c.02-.154.042-.315.067-.482zm-.08 3.973a.48.48 0 0 1 .386-.562c.265-.05.52.119.572.379.04.197.062.35.077.527a.482.482 0 0 1-.446.516.485.485 0 0 1-.526-.438 3.56 3.56 0 0 0-.062-.422zm1.598 3.68a.474.474 0 0 1 .034-.678.494.494 0 0 1 .689.034c.101.11.208.222.321.335a.474.474 0 0 1-.007.678.494.494 0 0 1-.69-.007 12.842 12.842 0 0 1-.347-.363zm2.44 2.866a.475.475 0 0 1 .178-.655.492.492 0 0 1 .666.176c.093.158.175.312.246.463a.476.476 0 0 1-.238.636.491.491 0 0 1-.647-.233 4.87 4.87 0 0 0-.205-.387zm.22 3.314a.49.49 0 0 1 .637-.26.477.477 0 0 1 .265.626c-.063.15-.137.307-.223.471a.492.492 0 0 1-.657.206.475.475 0 0 1-.21-.645c.074-.141.136-.273.189-.398zm-2.06 3.088a.493.493 0 0 1 .684-.083c.212.162.25.463.085.672-.097.123-.199.25-.304.38a.493.493 0 0 1-.685.079.474.474 0 0 1-.08-.674c.104-.128.204-.253.3-.374z" fill-rule="nonzero"/><path d="M257.61 169.273c2.084 0 5.228 1.65 6.228 2.259 1.5.913 3.794 3.15 4.723 4.12.929.97 2.498 3.57 3.426 4.79.618.814 1.075 1.817 1.966 3.011 1.124 1.445 1.896 2.263 2.317 2.454.633.286 1.282.624 3.365.292 1.19-.292 2.305.213 3.572.04-.795.415-2.816.153-3.87.584-1.58.647-1.255.687-2.493 1.311-.826.416-2 .416-3.523 0-.085.238-.413-.379-.985-1.85-.857-2.207-1.931-4.819-2.523-5.896-.591-1.077-1.391-2.024-2.539-3.51-.765-.99-1.631-2.618-2.804-3.202-1.746-1.364-2.941-2.247-3.585-2.648-2.225-1.386-4.237-1.755-3.274-1.755zm33.632 12.728c.216-1.173.324-2.456.324-3.849a12.99 12.99 0 0 1 .98 3.977c.194 2.139.033 2.709.21 2.79.176.08 1.803-.615 2.485-1.23.455-.409.969-1.747 1.54-4.013-.131 3.085.079 4.73.63 4.935.553.205 2.023.205 4.41 0 2.094-.067 3.774-.271 5.04-.614 1.9-.514 2.53-.922 2.91-1.536.382-.615.71-2.073 1.101-4.553.26-1.654.394-3.31.4-4.97.212.688.328 1.26.349 1.719.03.686.092 3.578.143 5.269.05 1.69.01 3.728.138 4.07.127.344-.027-1.145.383-2.15.41-1.004.604-1.002 1.135-1.92.53-.918.832-.99 1.308-2.018.317-.686.523-1.294.617-1.825.047 1.046-.05 1.979-.293 2.798-.363 1.229-.898 1.547-1.503 3.248-.404 1.134-.208 1.544.586 1.228l2.177-2.542c-1.071 1.426-1.43 2.274-1.075 2.542.53.403 6.585-.2 8.656-.2 2.072 0 5.206.966 6.348.966 1.142 0 2.281.181 3.67-1.994 1.388-2.174 1.513-4.756 1.93-6.56.419-1.804.943-3.215 1.92-5.004.977-1.79.84-1.567 1.307-2.797.312-.82.422-1.596.332-2.33.2.254.371.518.512.793.14.275.186.647.139 1.117l2.125-1.347c-1.46 1.342-2.696 2.745-3.705 4.21-1.01 1.464-1.716 3.648-2.12 6.553-.367 2.348-.58 4.137-.635 5.365-.084 1.843.043 2.406.636 3.097.592.69 1.96.511 3.22 1.156 1.26.646 1.7 1.357 1.94.994.63-.952 1.278-1.843 2.116-2.765.838-.921 2.342-2.326 4.184-3.796 1.842-1.47 2.655-1.965 4.095-2.907.96-.628 2.115-1.237 3.465-1.825l-3.465 2.339c-1.59 1.224-2.861 2.28-3.812 3.165-1.426 1.329-1.426 1.36-2.675 2.81-1.248 1.45-1.457 2.012-1.792 2.657-.336.645-.401 1.725 0 2.437.401.712.804.74 1.124.586.321-.154.541-.672 1.396-2.264.854-1.591 1.136-2.26 1.947-3.416.811-1.156 1.403-1.414 2.155-2.232.753-.818 2.456-1.662 2.456-1.662s-2.823 2.95-3.24 3.396c-.418.445-1.313 1.665-1.768 2.506-.381.706-.782 1.47-1.178 2.33-.435.947-.49 1.459-.667 1.998-.232.705-.217.198-.217 1.214 0 .678.426 1.215.884 1.772-.799-.52-1.335-.848-2.238-1.803-1.356-1.433-1.754-2.367-3.108-3.31-1.355-.945-2.182-1.454-3.725-1.844-1.543-.39-3.497-.338-4.757-.615-1.26-.276-1.63-.614-4.41-1.228-2.78-.615-4.632-.308-6.742-.308-2.11 0-9.638.615-12.788.615-3.15 0-9.45.602-10.08.602-.63 0-3.157.035-4.12.205-.963.17-3.784.539-5.988.539-1.469 0-2.93-.142-4.382-.425.748-.213 1.215-.451 1.401-.716.28-.396.42-.805.566-2.074.098-.846.14-1.694.127-2.542.231 1.075.415 1.855.55 2.342.203.73.17.665.506 1.454.336.79.735 1.422 1.056 1.422.546.009.847-.044 1.253-.602.407-.558 1.277-1.67 1.601-3.43z"/></g></g></svg>