<svg width="204" height="77" viewBox="0 0 204 77" xmlns="http://www.w3.org/2000/svg"><title>FEF8B26F-F439-437D-A86D-F70F636DFF23</title><g fill="none" fill-rule="evenodd"><path d="M87.125 20.297h6.727v12.694l10.012-12.694h7.987L100.678 33.29l11.782 14.69h-8.494L93.853 34.69v13.29h-6.727V20.294v.003h-.001zm39.753 0c5.712 0 8.096 3.849 8.096 7.246a6.425 6.425 0 0 1-4.247 5.745c3.022.67 5.195 3.336 5.258 6.449 0 4.295-3.13 8.241-9.454 8.241h-11.983V20.293h12.338l-.008.004zm-5.614 10.692h4.4a2.505 2.505 0 0 0 2.732-2.496 2.421 2.421 0 0 0-2.731-2.498h-4.4v4.994h-.001zm0 11.293h4.808c2.73 0 3.338-1.7 3.338-2.8 0-.749-.305-2.798-3.338-2.798h-4.804v5.598h-.004zm65.806-3.583a52.59 52.59 0 0 0 2.59-18.618h-17.2v17.02a5.848 5.848 0 0 1-1.004 3.642 4.817 4.817 0 0 1-4.626 1.258v5.96c3.362.661 6.83-.406 9.248-2.847a11.269 11.269 0 0 0 2.68-8.012v-11.06h8.312V38.7v-.002zm-2.738 9.198S197.882 27.81 186.52 0c0 0 6.566 5.666 6.879 10.61.274 4.362.42-3.918.73-3.606 6.983 7.005 3.856 25.132 3.335 26.165-.521 1.033 2.398-3.192 2.398-3.192 1.458 8.963-5.108 18.024-5.42 18.024-.312 0-10.11-.11-10.11-.11v.006zm18.449-30.08c4.065-8.034-3.337-11.535-3.337-11.535a20.32 20.32 0 0 1 3.337 11.54v-.005zm-2.244-1.57c2.857-5.645-2.343-8.105-2.343-8.105a14.257 14.257 0 0 1 2.343 8.106zm1.26 26.694c.314.127.601.315.843.554.234.245.424.527.56.837.134.328.202.679.2 1.033a2.63 2.63 0 0 1-.2 1.028c-.133.31-.323.592-.56.832a2.571 2.571 0 0 1-.843.553 2.86 2.86 0 0 1-2.103 0 2.579 2.579 0 0 1-1.603-2.414 2.609 2.609 0 0 1 .766-1.869 2.46 2.46 0 0 1 .836-.554 2.87 2.87 0 0 1 2.103 0h.001zm-1.945.348a2.201 2.201 0 0 0-1.18 1.19 2.43 2.43 0 0 0 0 1.761 2.222 2.222 0 0 0 1.18 1.195 2.258 2.258 0 0 0 2.497-.483 2.301 2.301 0 0 0 0-3.185 2.274 2.274 0 0 0-.708-.478 2.352 2.352 0 0 0-1.789 0zm-.067 3.588v-3.03h1.181c.269-.02.537.058.755.217a.827.827 0 0 1 .236.623l-.058.345-.169.255-.248.16-.298.088.92 1.346h-.444l-.863-1.346h-.636v1.346h-.378l.002-.004zm1.218-1.676l.293-.058.21-.158.077-.304-.063-.256-.165-.163-.23-.078-.272-.02h-.692v1.049h.502l.34-.012zm-56.56-14.254c1.357-4.312 5.93-6.699 10.217-5.333a8.164 8.164 0 0 1 5.303 5.333H144.43h.011zm22.265 3.25c-.007-8.101-6.542-14.66-14.595-14.653-8.053.007-14.575 6.58-14.566 14.68.007 8.1 6.542 14.659 14.595 14.651 6.11-.005 11.57-3.843 13.675-9.613h-6.965a8.118 8.118 0 0 1-6.655 3.552c-4.642 0-7.365-2.491-8.086-6.496l22.429.089c.11-.732.164-1.47.164-2.21h.004z" fill="#1FB4B0" fill-rule="nonzero"/><path d="M55.16 19.939v29.048h-6.727V26.125H38.016v22.86h-6.727V19.94H55.16zm-40.709 23.12c-4.614.33-8.614-3.247-8.934-7.988-.32-4.74 3.16-8.85 7.775-9.18 4.614-.328 8.614 3.248 8.934 7.988.014.198.02.397.02.596.15 4.58-3.337 8.42-7.795 8.585zm8.503-23.083v3.294c-2.456-2.445-5.737-3.818-9.156-3.831C6.178 19.439 0 26.24 0 34.63s6.179 15.195 13.798 15.195c3.419-.013 6.701-1.385 9.156-3.828v3.023h6.396V19.976h-6.396zm48.591 23.41c-4.713.275-8.75-3.426-9.017-8.267-.268-4.843 3.334-8.99 8.046-9.266 4.713-.277 8.75 3.425 9.018 8.267.01.165.014.332.014.498.127 4.707-3.48 8.63-8.06 8.768zm-.015-24.254c-8.278-.261-15.195 6.42-15.45 14.923-.256 8.506 6.247 15.612 14.523 15.875 8.278.262 15.195-6.42 15.451-14.924.005-.158.007-.315.007-.474.124-8.374-6.38-15.267-14.53-15.4z" fill="#0085A5" fill-rule="nonzero"/><path d="M10.448 71.084a.36.36 0 0 1 .267.116l.723.76a5.154 5.154 0 0 1-1.847 1.332c-.726.314-1.6.471-2.622.471-.895 0-1.706-.149-2.432-.446a5.365 5.365 0 0 1-1.86-1.249 5.577 5.577 0 0 1-1.193-1.918c-.28-.744-.421-1.563-.421-2.456s.147-1.712.443-2.456A5.61 5.61 0 0 1 2.75 63.32a5.627 5.627 0 0 1 1.916-1.249c.743-.297 1.566-.446 2.467-.446.878 0 1.659.138 2.342.413a5.934 5.934 0 0 1 1.782 1.1l-.603.819a.52.52 0 0 1-.15.149.433.433 0 0 1-.237.057c-.11 0-.237-.052-.383-.157a5.665 5.665 0 0 0-.577-.351 4.653 4.653 0 0 0-.883-.351c-.35-.105-.786-.158-1.308-.158a4.46 4.46 0 0 0-1.688.31 3.749 3.749 0 0 0-1.322.893c-.37.39-.657.866-.86 1.43-.205.566-.306 1.204-.306 1.915 0 .722.106 1.364.318 1.927.213.562.505 1.039.878 1.43s.813.69 1.318.893c.505.204 1.05.306 1.636.306.356 0 .676-.02.96-.062.284-.041.545-.103.783-.186.239-.083.464-.189.676-.318.213-.13.422-.286.629-.468a.694.694 0 0 1 .146-.095.373.373 0 0 1 .164-.037zm9.824-5.854v8.4h-1.688v-3.869h-4.003v3.87H12.9v-8.4h1.68v3.306h4.003V65.23h1.688zm9.945 0v8.4h-1.688v-5.49a5.138 5.138 0 0 1 .069-.777 9.748 9.748 0 0 1-.168.327 2.08 2.08 0 0 1-.168.269l-4.02 5.267a1.272 1.272 0 0 1-.25.28.529.529 0 0 1-.353.133h-1.016V65.23h1.679v5.499a4.645 4.645 0 0 1-.069.769c.115-.243.227-.439.336-.587l4.02-5.276c.064-.093.148-.184.255-.273a.545.545 0 0 1 .357-.132h1.016zm12.192-.025v8.426h-1.515v-5.342c0-.165.01-.352.03-.562.02-.21.05-.402.09-.579l-2.927 4.978a.602.602 0 0 1-.198.22.509.509 0 0 1-.284.078h-.19a.515.515 0 0 1-.28-.079.588.588 0 0 1-.202-.219l-2.97-4.994a6.965 6.965 0 0 1 .12 1.157v5.342h-1.515v-8.426h1.36c.115 0 .23.025.344.075.115.05.213.146.293.29l2.557 4.15c.075.132.144.273.207.422.063.148.124.297.18.446.058-.149.117-.298.177-.446.06-.15.128-.29.203-.422l2.523-4.15c.08-.15.178-.248.292-.294a.905.905 0 0 1 .345-.07h1.36zm7.06 4.697c-.682.022-1.262.073-1.739.153-.476.08-.864.186-1.162.318-.299.132-.514.288-.646.467a.986.986 0 0 0-.198.6c0 .21.036.39.108.541.072.152.17.276.293.372.123.097.268.167.434.211.167.044.348.066.543.066.258 0 .495-.024.71-.074a2.904 2.904 0 0 0 1.15-.546 4.76 4.76 0 0 0 .508-.455v-1.653zm-4.924-3.498a5.029 5.029 0 0 1 1.588-1 5.182 5.182 0 0 1 1.881-.331c.5 0 .942.079 1.326.236.385.157.71.376.973.657.264.281.464.617.599 1.009.135.391.202.824.202 1.298v5.358h-.749c-.166 0-.293-.026-.379-.079-.086-.052-.155-.15-.206-.293l-.181-.736a7.188 7.188 0 0 1-.663.525 4.288 4.288 0 0 1-.685.389 3.597 3.597 0 0 1-.762.243c-.27.056-.568.083-.895.083-.345 0-.668-.045-.969-.136a2.203 2.203 0 0 1-.788-.418 1.98 1.98 0 0 1-.53-.703 2.336 2.336 0 0 1-.193-.984c0-.33.093-.649.28-.955.186-.306.49-.58.913-.822.421-.243.972-.441 1.653-.596.68-.154 1.517-.242 2.51-.264v-.612c0-.634-.141-1.108-.422-1.422-.282-.315-.695-.472-1.24-.472-.368 0-.676.044-.926.133-.25.088-.465.186-.646.293-.18.108-.338.206-.473.294a.753.753 0 0 1-.418.132.49.49 0 0 1-.297-.09.77.77 0 0 1-.202-.216l-.301-.52zm14.62 2.092c0-.32-.048-.615-.142-.885a1.898 1.898 0 0 0-1.09-1.166 2.353 2.353 0 0 0-.912-.165c-.706 0-1.262.196-1.666.587-.405.392-.662.935-.77 1.63h4.58zm1.386 3.936a3.27 3.27 0 0 1-.715.6c-.27.167-.556.304-.86.409a5.398 5.398 0 0 1-.943.231c-.325.05-.645.075-.96.075a4.667 4.667 0 0 1-1.675-.294 3.735 3.735 0 0 1-1.335-.86 3.896 3.896 0 0 1-.878-1.406c-.21-.559-.314-1.203-.314-1.93 0-.584.094-1.129.284-1.633a3.9 3.9 0 0 1 .814-1.319c.353-.375.784-.67 1.295-.885.511-.215 1.085-.322 1.722-.322.534 0 1.026.084 1.477.252.45.168.84.412 1.167.732.327.32.584.714.77 1.182.187.469.28 1.003.28 1.604 0 .248-.028.415-.086.5-.057.086-.163.129-.318.129H54.54c.017.501.092.938.224 1.31.132.372.314.682.547.93.232.248.51.433.83.554.322.122.68.182 1.077.182.373 0 .696-.041.969-.124.272-.082.508-.172.706-.269a5.99 5.99 0 0 0 .499-.268.708.708 0 0 1 .357-.124c.138 0 .244.05.319.149l.482.595zm9.153-5.978h-3.298v7.177h-1.688v-7.177h-3.297V65.23h8.283v1.224zm5.2-.347a3.88 3.88 0 0 1 1.206-.728c.476-.188 1.047-.281 1.713-.281.534 0 1.005.062 1.412.186.408.124.751.29 1.03.496.278.207.487.442.628.707.14.264.21.54.21.827a1.773 1.773 0 0 1-.344 1.033c-.12.166-.28.319-.477.46-.198.14-.444.257-.737.35.54.16.968.414 1.283.761.316.348.474.78.474 1.298 0 .392-.093.745-.28 1.059-.186.314-.438.58-.753.798-.316.217-.68.384-1.094.5a4.766 4.766 0 0 1-1.291.174c-.276 0-.559-.025-.849-.075a4.744 4.744 0 0 1-.856-.231 4.016 4.016 0 0 1-.801-.405 3.153 3.153 0 0 1-.68-.604l.482-.595c.075-.1.18-.15.319-.15.109 0 .222.043.34.129.117.085.26.178.43.277.17.1.373.191.612.277.238.085.535.128.89.128.305 0 .576-.036.814-.107.239-.072.44-.171.603-.298a1.232 1.232 0 0 0 .504-1.009c0-.397-.17-.714-.508-.95-.339-.238-.861-.356-1.567-.356h-.99v-1.075h.99c.62 0 1.102-.112 1.446-.335.345-.223.517-.511.517-.864a.93.93 0 0 0-.112-.442 1.078 1.078 0 0 0-.34-.373 1.77 1.77 0 0 0-.568-.252 3.064 3.064 0 0 0-.788-.09c-.333 0-.615.031-.844.094-.23.064-.425.134-.586.211a5.28 5.28 0 0 0-.4.211.557.557 0 0 1-.271.095.412.412 0 0 1-.203-.045.58.58 0 0 1-.176-.186l-.388-.62zm15.688-.877l-4.856 10.84a.681.681 0 0 1-.206.281c-.087.066-.213.1-.38.1h-1.248l1.602-3.35-3.59-7.87h1.463a.514.514 0 0 1 .508.322l2.221 5.043c.046.127.09.255.134.385.043.13.079.257.108.384a9.025 9.025 0 0 1 .275-.777l2.144-5.035a.539.539 0 0 1 .19-.232.496.496 0 0 1 .292-.09h1.343zm6.44 7.227v-5.962h-2.617a27.312 27.312 0 0 1-.232 2.183c-.098.64-.211 1.2-.34 1.683a8.38 8.38 0 0 1-.426 1.24 4.41 4.41 0 0 1-.491.856h4.107zm3.23-.05v3.597a.49.49 0 0 1-.134.364.474.474 0 0 1-.348.132h-1.042v-2.87H91.59v2.407a.503.503 0 0 1-.112.322c-.074.094-.192.141-.353.141H90.06v-4.043h.284c.2 0 .399-.03.594-.091a1.38 1.38 0 0 0 .564-.364c.18-.182.351-.438.512-.769.16-.33.307-.763.44-1.298.131-.535.246-1.187.344-1.956.097-.769.175-1.685.232-2.749h5.631v7.177h1.602zm13.5-7.177l-4.855 10.84a.681.681 0 0 1-.207.281c-.086.066-.213.1-.379.1h-1.248l1.601-3.35-3.59-7.87h1.463a.514.514 0 0 1 .508.322l2.222 5.043c.046.127.09.255.133.385.043.13.08.257.108.384a9.026 9.026 0 0 1 .275-.777l2.144-5.035a.539.539 0 0 1 .19-.232.496.496 0 0 1 .293-.09h1.343zm11.762 1.571a.913.913 0 0 1-.15.145.353.353 0 0 1-.211.054.514.514 0 0 1-.289-.104 3.463 3.463 0 0 0-.93-.446 2.642 2.642 0 0 0-.796-.104 2.62 2.62 0 0 0-1.094.215 2.091 2.091 0 0 0-.787.612c-.21.265-.37.587-.478.968-.11.38-.164.807-.164 1.281 0 .49.058.928.172 1.31.115.384.279.706.491.968.213.262.47.46.775.595.304.136.643.203 1.016.203.362 0 .66-.043.896-.128.235-.086.43-.178.585-.277.155-.1.284-.192.388-.277a.497.497 0 0 1 .318-.128c.138 0 .244.05.319.149l.482.595a3.2 3.2 0 0 1-.676.604c-.25.165-.515.3-.796.405a4.646 4.646 0 0 1-.883.231c-.307.05-.619.075-.934.075a4.012 4.012 0 0 1-1.529-.29 3.464 3.464 0 0 1-1.23-.843 4.003 4.003 0 0 1-.823-1.36c-.201-.538-.302-1.148-.302-1.832 0-.623.09-1.199.272-1.728.18-.53.447-.985.8-1.368a3.7 3.7 0 0 1 1.305-.902c.517-.217 1.108-.326 1.774-.326.625 0 1.176.096 1.653.29.476.192.901.465 1.274.818l-.448.595zm5.683-1.703c.643 0 1.224.1 1.744.302.52.2.961.49 1.326.868.364.377.644.832.84 1.364.194.532.292 1.129.292 1.79 0 .662-.098 1.26-.293 1.794-.195.535-.475.99-.84 1.365a3.67 3.67 0 0 1-1.325.864c-.52.201-1.1.302-1.744.302a4.827 4.827 0 0 1-1.752-.302 3.713 3.713 0 0 1-1.33-.864 3.81 3.81 0 0 1-.848-1.365 5.135 5.135 0 0 1-.297-1.794c0-.661.099-1.258.297-1.79.198-.532.48-.987.848-1.364a3.67 3.67 0 0 1 1.33-.868c.52-.202 1.104-.302 1.752-.302zm0 7.392c.827 0 1.444-.268 1.851-.802.408-.535.612-1.287.612-2.258 0-.97-.204-1.724-.612-2.261-.407-.537-1.024-.806-1.85-.806-.839 0-1.463.269-1.874.806-.41.537-.615 1.291-.615 2.261 0 .97.205 1.723.615 2.258.41.534 1.035.802 1.873.802zm10.057.058c.832 0 1.457-.253 1.873-.757.416-.504.624-1.22.624-2.146 0-.92-.202-1.635-.607-2.145-.405-.51-1.012-.765-1.821-.765-.396 0-.75.06-1.063.178-.313.118-.58.293-.801.525a2.276 2.276 0 0 0-.504.856 3.644 3.644 0 0 0-.172 1.17c0 .975.207 1.733.62 2.273.413.54 1.03.81 1.851.81zm.594-9.17c-.568.044-1.057.161-1.468.351-.41.19-.749.448-1.016.773a3.36 3.36 0 0 0-.607 1.162 6.01 6.01 0 0 0-.241 1.517c.143-.248.323-.474.538-.678.215-.204.46-.379.736-.525.276-.146.577-.257.904-.335a4.488 4.488 0 0 1 1.034-.115c.585 0 1.11.099 1.575.297.465.199.86.477 1.184.836.325.358.573.79.745 1.294.172.504.258 1.065.258 1.682 0 .629-.1 1.195-.301 1.7a3.66 3.66 0 0 1-.857 1.293c-.37.359-.816.634-1.339.827a4.988 4.988 0 0 1-1.739.29 4.788 4.788 0 0 1-1.675-.286 3.254 3.254 0 0 1-1.339-.938c-.378-.436-.675-1.006-.89-1.712-.216-.705-.324-1.573-.324-2.604 0-.877.084-1.684.25-2.423.167-.739.435-1.384.805-1.935.37-.551.854-.995 1.451-1.331.597-.336 1.323-.537 2.178-.604l3.117-.248.095.844a.697.697 0 0 1-.082.463c-.077.127-.21.195-.4.206l-2.592.199zm10.22 6.524c-.683.022-1.262.073-1.739.153-.476.08-.864.186-1.162.318-.299.132-.514.288-.646.467a.986.986 0 0 0-.198.6c0 .21.036.39.108.541.071.152.17.276.292.372.124.097.269.167.435.211.167.044.348.066.543.066.258 0 .495-.024.71-.074a2.904 2.904 0 0 0 1.15-.546 4.76 4.76 0 0 0 .508-.455v-1.653zm-4.925-3.498a5.029 5.029 0 0 1 1.59-1 5.182 5.182 0 0 1 1.88-.331c.5 0 .942.079 1.326.236.385.157.71.376.973.657.264.281.464.617.599 1.009.135.391.202.824.202 1.298v5.358h-.749c-.166 0-.293-.026-.379-.079-.086-.052-.155-.15-.206-.293l-.181-.736a7.188 7.188 0 0 1-.663.525 4.288 4.288 0 0 1-.685.389 3.597 3.597 0 0 1-.762.243c-.27.056-.568.083-.895.083-.345 0-.668-.045-.969-.136a2.203 2.203 0 0 1-.788-.418 1.98 1.98 0 0 1-.53-.703 2.336 2.336 0 0 1-.193-.984c0-.33.093-.649.28-.955.186-.306.49-.58.913-.822.421-.243.972-.441 1.653-.596.68-.154 1.517-.242 2.51-.264v-.612c0-.634-.141-1.108-.422-1.422-.282-.315-.695-.472-1.24-.472-.368 0-.676.044-.926.133-.25.088-.465.186-.646.293-.18.108-.338.206-.473.294a.753.753 0 0 1-.418.132.49.49 0 0 1-.297-.09.77.77 0 0 1-.202-.216l-.302-.52zm14.113-.736c.086-.126.2-.231.344-.314a.9.9 0 0 1 .457-.124h1.317l-2.213 3.175a2.56 2.56 0 0 1-.43.513 1.56 1.56 0 0 1-.552.306c.276.077.508.191.698.343.19.151.359.349.508.591l2.23 3.473h-1.162c-.305 0-.539-.048-.702-.145a1.241 1.241 0 0 1-.418-.417l-1.601-2.539a1.305 1.305 0 0 0-.495-.471 1.442 1.442 0 0 0-.685-.157h-.904v3.737h-1.679V65.23h1.68v3.589h.791c.241 0 .447-.047.616-.141.17-.094.314-.232.435-.413l1.765-2.597z" fill="#007798"/></g></svg>