<svg width="30" height="38" viewBox="0 0 30 38" xmlns="http://www.w3.org/2000/svg"><title>61B7B0F6-1B9A-4611-B8C3-8271FB5F77E8</title><g fill="none" fill-rule="evenodd"><path d="M15 35.868c5.19-4.773 13-13.473 13-20.73C28 7.883 22.18 2 15 2S2 7.882 2 15.139c0 7.256 7.429 15.956 13 20.729z" fill="#FFF" stroke="#B13B5F" stroke-linecap="round" stroke-width="3"/><path d="M24.905 17.155a.786.786 0 0 1-.383.125h-.059c-.083 0-.142-.25-.177-.75h-.03c-.183.312-.36.542-.53.688h-.089l-.264-.063c.137-.746.205-1.214.205-1.404a.583.583 0 0 1 .326-.124h.028l.03.124h-.03l.03.062a.25.25 0 0 1-.03.125l.03.062c-.02.2-.04.314-.058.345h.059l.264-.407c.102-.27.22-.405.354-.405a1.03 1.03 0 0 1 .265-.063l.059.095v.062c-.073.096-.132.366-.177.81.04.28.098.52.177.718zm-.077-1.49v-.1h-.1c.011.067.045.1.1.1zM22.96 17.28c-.045-.006-.106-.103-.182-.29h.03a.54.54 0 0 1-.06-.195h.03c-.02-.032-.03-.097-.03-.195h-.033c-.134.39-.246.584-.335.584-.074 0-.176-.173-.305-.518h-.06c0 .254-.072.448-.215.582h-.092c-.217-.026-.337-.089-.361-.187-.146.146-.266.22-.36.22h-.03c-.04 0-.06-.054-.06-.161h-.03l-.241.128c-.303-.064-.454-.277-.454-.639a.856.856 0 0 1 .332-.32h.152c.143.044.223.065.24.065v-.16c0-.022.011-.033.031-.033-.041-.127-.082-.19-.121-.19-.118.138-.219.213-.302.222v-.032l-.06.032c-.12 0-.18-.063-.18-.19.114-.32.264-.48.45-.48 0-.044.041-.065.122-.065.302 0 .454.191.454.575v.032c0 .049-.01.091-.03.128 0 .022.01.032.03.032l-.03.223v.129c.05.21.079.356.087.437.169-.218.31-.571.423-1.06 0-.302.03-.453.09-.453h.215c.122.03.184.15.184.357 0 .057.04.24.121.55.04 0 .122-.314.244-.94l.061-.032h.184l.183.13a.25.25 0 0 1-.03.097c0 .513.112.934.336 1.262v.032c0 .154-.122.261-.366.323h-.032zm-2.274-.703c-.121.021-.182.054-.182.096 0 .128.06.191.182.191h.029c.029 0 .06-.032.09-.096 0-.106-.039-.17-.119-.191zm-.303-.639v.032h.066l.034-.128c-.032 0-.066.032-.1.096zm.794-.24l-.1-.05v.05l.1.05v-.05zm1.028-.034l-.1-.033c.034.043.05.076.05.1h.05v-.067zm.824-.033h-.1v.1h.1v-.1zm.175 1.423h.052l.048-.129h-.1v.129zm-3.682.226h-.18c-.208 0-.408-.126-.597-.38a1.453 1.453 0 0 1-.12-.507c0-.432.17-.717.509-.855l.24-.062c.324 0 .553.105.687.316l.03.221v.032c-.035.254-.085.38-.15.38h-.15c-.099-.056-.149-.098-.15-.126.02-.117.03-.202.03-.254 0-.106-.05-.159-.15-.159-.178 0-.288.18-.328.54.084.294.214.442.39.442h.119l.24-.19H20c.1.056.15.098.15.128v.062c-.168.275-.378.412-.628.412zm.306-1.515h.033v-.1h-.1c.007.067.03.1.067.1zm-.785.343v.126h.033c0-.032.022-.074.067-.126h-.1zm.868.765H20l.03-.1H20c-.039.034-.069.05-.09.05v.05zm-2.11.407c-.096 0-.177-.129-.245-.387.239-.194.37-.291.396-.291v-.032c0-.022-.214-.172-.64-.452-.101-.093-.152-.178-.152-.257.242-.258.384-.387.427-.387.078.225.261.45.548.676h.03c.09-.408.14-.612.153-.612.133 0 .234.043.304.129 0 .423-.163.864-.487 1.322a1.22 1.22 0 0 1-.334.291zm-.302-1.645l-.034.1h.1c0-.067-.022-.1-.066-.1zm1.007.164h.034c0-.067-.023-.1-.067-.1h-.033c.007.066.03.1.066.1zm-2.874 1.481h-.179c-.209 0-.408-.126-.598-.38a1.453 1.453 0 0 1-.12-.507c0-.432.17-.717.509-.855l.24-.062c.324 0 .553.105.687.316l.03.221v.032c-.034.254-.085.38-.15.38h-.15c-.099-.056-.149-.098-.15-.126.02-.117.03-.202.03-.254 0-.106-.05-.159-.15-.159-.178 0-.288.18-.328.54.084.294.214.442.39.442h.119l.24-.19h.058c.1.056.15.098.15.128v.062c-.168.275-.378.412-.628.412zm.306-1.515h.033v-.1h-.1c.007.067.03.1.067.1zm-.785.343v.126h.033c0-.032.023-.074.067-.126h-.1zm.868.765h.09l.03-.1h-.03c-.039.034-.069.05-.09.05v.05zm-2.54.407h-.059c-.083 0-.142-.25-.177-.75h-.03c-.183.312-.36.542-.53.688h-.089l-.264-.063c.137-.746.205-1.214.205-1.404a.583.583 0 0 1 .326-.124h.028l.03.124h-.03l.03.062a.25.25 0 0 1-.03.125l.03.062c-.02.2-.04.314-.058.345h.059l.264-.407c.102-.27.22-.405.354-.405a1.03 1.03 0 0 1 .265-.063l.059.095v.062c-.073.096-.132.366-.177.81.039.28.098.52.177.718a.786.786 0 0 1-.383.125zm.306-1.615v-.1h-.1c.011.067.044.1.1.1zm-1.868 1.615c-.045-.006-.106-.103-.182-.29h.03a.54.54 0 0 1-.06-.195h.03c-.02-.032-.03-.097-.03-.195h-.033c-.134.39-.246.584-.335.584-.074 0-.176-.173-.305-.518h-.06c0 .254-.072.448-.215.582h-.093c-.243-.03-.365-.105-.365-.226.17-.218.313-.574.428-1.068 0-.302.03-.453.09-.453h.215c.122.03.184.15.184.357 0 .057.04.24.121.55.04 0 .122-.314.244-.94l.061-.032h.184l.183.13a.25.25 0 0 1-.03.097c0 .513.112.934.335 1.262v.032c0 .154-.121.261-.365.323h-.032zm-.755-1.616l-.1-.033c.034.043.05.076.05.1h.05v-.067zm.824-.033h-.1v.1h.1v-.1zm.175 1.423h.051l.05-.129h-.1v.129zm-1.923-.82l-.03.223v.129c.06.256.09.416.09.48-.147.149-.267.223-.362.223h-.03c-.04 0-.06-.053-.06-.16h-.031l-.241.128c-.302-.064-.453-.277-.453-.639a.855.855 0 0 1 .332-.32h.151c.143.043.223.065.241.065v-.16c0-.022.01-.033.03-.033-.04-.127-.081-.191-.12-.191-.119.14-.22.214-.302.223v-.032l-.061.032c-.12 0-.18-.063-.18-.19.114-.321.265-.481.451-.481 0-.043.04-.064.122-.064.302 0 .453.191.453.575v.032c0 .048-.01.091-.03.128 0 .022.01.032.03.032zm-.603.352c-.122.021-.182.053-.182.096 0 .128.06.191.182.191h.028c.03 0 .06-.032.091-.096 0-.106-.04-.17-.12-.191zm-.304-.64v.033H9.4l.033-.128c-.032 0-.065.032-.1.096zm.795-.238l-.1-.05v.05l.1.05v-.05zM7.56 17.476c-1.403 0-2.466-1.072-2.466-2.465 0-1.299.942-2.375 2.184-2.487a.128.128 0 0 1 .132.088l.078.22c.03.083-.023.174-.106.183a1.857 1.857 0 0 0-.926.382c-1.275.963-.578 2.605-.34 2.867.223.244 1.078 1.233 2.625.353a.069.069 0 0 1 .1.038l.067.188a.24.24 0 0 1-.092.282c-.334.21-.75.351-1.256.351zm-1.85-1.307s-.271-.308-.36-.794c0 0 .015.584.36.794zm.585-2.84c-.026.015-.939.548-.747 1.697-.007-.075-.077-1.07.747-1.697z" fill="#C02355"/><path d="M8.81 16.397c-.333.286-.778.46-1.265.46h-.006a1.25 1.25 0 0 1-.14-.005 1.229 1.229 0 0 1-.138-.015l-.04-.006a2.002 2.002 0 0 1-.269-.062v-.001l.573-1.292c.09.085.264.219.492.257a1.17 1.17 0 0 0 .53-.044c.013.024.104.175.143.256.048.1.101.285.105.296l-.074-.028.089.184zm-.204-.968c-.07.018-.098.049-.1.104 0 .01 0 .023.002.037a1 1 0 0 1-.467.04.876.876 0 0 1-.46-.26l.428-.969.138.328c.027.004.211.033.303.074.1.043.084.173.134.207.05.033.094.044.119.056.024.013.058.125.052.2a.235.235 0 0 1-.15.183z" fill="#30559A"/><path d="M7.3 14.592a.523.523 0 0 1-.23.067.439.439 0 0 1-.24-.093.365.365 0 0 0 .04-.046c.014-.023-.002-.05-.035-.082-.096-.092-.332-.209-.357-.268-.033-.078-.031-.396.034-.426a.247.247 0 0 1 .091-.013c.09 0 .209.018.25.024h.007c.05 0 .1-.078.167-.089.081-.012.129.002.15-.026.036-.047.017-.074.017-.165a.5.5 0 0 1 .026-.16.376.376 0 0 1 .117-.172l.234.693-.27.756zm-.805.674c.003-.009.052-.145.073-.19.023-.045.124-.2.124-.2l-.05-.002-.032-.001s.047-.094.116-.187l.019-.044.01.008a.561.561 0 0 0 .31.126h.009a.568.568 0 0 0 .174-.035l-.023.064-.513 1.433a1.424 1.424 0 0 1-.379-.287l.262-.733-.1.048z" fill="#A3CD3A"/><path d="M6.626 15.094l-.12.191.088.003a.54.54 0 0 0-.026.038c-.033.057-.097.2-.11.23l-.13.295.119-.047-.234.434a1.799 1.799 0 0 1-.499-1.236c0-.99.82-1.798 1.853-1.86l.004.041a.576.576 0 0 0-.15.472c-.029.001-.068.002-.113.008a.448.448 0 0 0-.188.079l-.034.02a3.281 3.281 0 0 0-.348-.026.52.52 0 0 0-.178.023.215.215 0 0 0-.122.128c-.057.138-.056.423.002.535.036.071.121.118.295.21.053.028.138.073.195.109a1.473 1.473 0 0 0-.304.353z" fill="#FECF0A"/></g></svg>