<svg width="29" height="38" viewBox="0 0 29 38" xmlns="http://www.w3.org/2000/svg"><title>AC861E67-4802-4FA0-B29D-F14F9B3E2662</title><g fill="none" fill-rule="evenodd"><path d="M14.629 35.075c5.04-4.661 12.628-13.158 12.628-20.244S21.603 2 14.63 2C7.654 2 2 7.745 2 14.831c0 7.086 7.216 15.583 12.629 20.244z" fill="#FFF" stroke="#D41247" stroke-linecap="round" stroke-width="3"/><path d="M20.021 19.735c-.033 2-1.106 2.723-2.246 2.656-1.14-.067-1.933-.592-2.742-.592l-.034.02c-.812 0-1.602.54-2.742.61-1.14.068-2.214-.622-2.247-2.621.066-1.836 1.476-1.97 2.676-4.14C13.744 13.76 15 13.915 15 13.915h.037s1.263-.146 2.313 1.755c1.191 2.172 2.607 2.23 2.672 4.066zm-7.058-6.645c1.01-.076 1.742-1.276 1.635-2.68-.108-1.405-1.013-2.482-2.023-2.406-1.01.076-1.741 1.276-1.634 2.68.107 1.405 1.013 2.483 2.02 2.406h.002zm3.828.024c.986.27 2.092-.631 2.47-2.001.376-1.37-.118-2.706-1.105-2.969-.987-.262-2.092.632-2.47 2.002-.377 1.37.118 2.702 1.105 2.968zm4.57-1.098c-.859-.233-1.821.548-2.15 1.743-.328 1.195.102 2.353.961 2.585.859.233 1.822-.548 2.15-1.743.329-1.195-.101-2.353-.96-2.585zm-10.14 1.743c-.328-1.195-1.29-1.976-2.15-1.743-.86.232-1.29 1.39-.96 2.585.329 1.195 1.29 1.975 2.15 1.743.86-.232 1.289-1.39.96-2.585z" fill="#D41247"/></g></svg>