<svg width="30" height="38" viewBox="0 0 30 38" xmlns="http://www.w3.org/2000/svg"><title>82AEC47C-DDA0-4365-9B15-1FA182AFC87D</title><g fill="none" fill-rule="evenodd"><path d="M15 35.868c5.19-4.773 13-13.473 13-20.73C28 7.883 22.18 2 15 2S2 7.882 2 15.139c0 7.256 7.429 15.956 13 20.729z" stroke="#F95E1A" stroke-width="3" fill="#FFF" stroke-linecap="round"/><path d="M21.544 13.132a.345.345 0 0 0 .261-.384c-.029-.17-.174-.256-.349-.213a.345.345 0 0 0-.261.384c.029.17.174.256.349.213zM11.8 18.478c-.027.3-.08.6-.37.573 0 0-.184-.055-.342-.055-.342 0-.421.192-.421.356 0 .464.474.6.764.6.29 0 .605-.109.843-.3.447-.328.737-1.065.869-1.393-.132-.055-.29-.11-.422-.164-.237.246-.58.383-.922.383z" fill="#FFF"/><path d="M16.45 16.484c.054.19.134.568.188.73 0 0-.27.109-.296.136-.081.027-.081.108-.054.19.027.08.108.08.189.054.35-.19 1.348-.623 1.779-.19.243.217.458.948.297 1.435-.081.298-.297.46-.648.487a.525.525 0 0 1-.458-.135c-.296-.27-.296-.812-.296-.812 0-.054-.027-.081-.081-.108-.027-.027-.081-.027-.135 0 0 0-.755.541-1.375.243-.89-.433-.674-1.597-.674-1.624 0-.081-.027-.136-.108-.136-.08 0-.135.028-.135.109 0 0-.054.325 0 .677-.647-.082-1.213-.19-1.698-.38.27-.297.404-.676.404-1.11a.128.128 0 0 0-.135-.135c-.08 0-.134.054-.134.136 0 .785-.647 1.407-1.402 1.407-.566 0-1.079-.352-1.321-.893.027-.081-.027-.081-.108-.081-.081.027-.081.108-.081.162.08.19.189.352.323.515-.296.65-.835 1.38-1.752 1.11-.296-.082-.485-.271-.54-.515-.026-.19 0-.379.136-.46a.405.405 0 0 1 .431-.027c.458.162.728-.596.998-1.327.134-.406.323-.866.458-.947.162-.109.566-.109.782.19.027.08.054.27.054.27 0 .054.08.108.134.081.081 0 .108-.081.108-.135-.135-.785.081-1.273.27-1.516 0 0-1.402-1.056-1.186-2.464 0-.081.054-.135.08-.135.027 0 .081.08.081.19.081.27.216.676.594 1.11.35.432.647.676.943.784.027 0 .701.136 1.968.136.728 0 1.672-.082 1.726-.109.054.325.215.867.647 1.354.404.46.835.65 1.159.785.458.19.863.27 1.132.325 0 .027-.027.027-.027.054a2.53 2.53 0 0 1-.808 1.056c-.324-.027-.701.054-.998.163-.027-.082-.08-.298-.189-.677-.027-.082-.08-.109-.161-.082-.054-.027-.081.055-.081.109zm2.182-5.816c-.21-.031-.443.742-.537 1.02a1.4 1.4 0 0 1 .56.217c.047-.093.117-1.237-.023-1.237z" fill="#FFF"/><path d="M18.809 14.997s-.081-.025-.19 0c.109.253.352.43.676.507.541.126 1.163.101 1.812-.456.324-.279.648-.785.703-1.241-.055.076-.136.101-.217.152-.351.101-.784-.05-.892-.355-.08-.177 0-.329.135-.456a6.407 6.407 0 0 1-.351.076c-.352.076-.622.127-.757.026-.108-.102-.135-.253-.216-.43-.081-.254-.162-.533-.433-.685-.567-.329-1.216-.227-1.243-.227-.054 0-.081 0-.108-.051-.027-.025-.109-.71-.244-.912-.135-.253-.243-.278-.27-.278-.27 0-.703.633-.865 1.544 0 .026-.027.026-.027.051-.324.33-.703 1.469-.703 1.849v.05c.027.38.703 2.026 2.73 2.077h.054c.73-.05 1.514-.354 1.866-.532-.244.076-.676.102-1.055.026-.405-.102-.675-.33-.838-.634-.054.026-.08.076-.108.152-.027.051-.108.076-.162.051-.081-.025-.081-.101-.054-.152.216-.38.622-.43.811-.405.081 0 .108.076.108.127-.027.1-.081.126-.162.126zm.568-1.924c.08 0 .135.075.135.202 0 .101-.081.203-.135.203-.082 0-.136-.076-.136-.203-.027-.101.054-.202.136-.202zm-1.92-1.115a.723.723 0 0 1-.324.076c-.135.026-.135-.076-.027-.354.108-.254.19-.38.19-.38.107-.102.188.658.161.658zm1.27 1.925c-.134 0-.242-.152-.242-.33 0-.177.108-.354.243-.354s.243.152.243.33c0 .177-.108.354-.243.354z" fill="#FFF" fill-rule="nonzero"/><path d="M18.437 16.983c-.085.15-.192.276-.342.427.064.025.128.075.193.125.085.1.17.251.235.427a1.98 1.98 0 0 0 .342-.176.058.058 0 0 1 .085 0c.021.026.043.05.064.1.086.704.342.904.577.804.192-.075.3-.226.342-.427.085-.451-.128-1.029-.32-1.23-.236-.276-.77-.175-1.176-.05z" fill="#FFF"/><path d="M18.084 15.903l-.156.31-.027.025c-.548-.051-2.457-.464-2.901-2.347 0 0 0-.026.026-.026l.288-.103c.026 0 .026 0 .026.026.078.438.862 2.012 2.718 2.089.026 0 .053 0 .026.026z" fill="#1F9E38"/><g transform="translate(6.333 6.333)"><circle fill="#16932B" cx="8.744" cy="8.615" r="8.537"/><circle fill="#FF6927" cx="8.744" cy="8.615" r="7.606"/><path d="M14.98 6.26c.154-.025.258-.129.232-.232-.026-.104-.155-.155-.31-.13-.156.026-.26.13-.233.233.026.104.155.156.31.13zm-9.625 4.968c-.026.284-.077.569-.362.543 0 0-.181-.052-.336-.052-.337 0-.414.181-.414.337 0 .44.465.569.75.569s.595-.104.828-.285c.44-.31.724-1.009.854-1.32-.13-.05-.285-.103-.414-.154-.233.233-.57.362-.906.362z" fill="#FFF"/><path d="M9.83 10.09c.053.18.13.543.182.698 0 0-.259.104-.285.13-.077.025-.077.103-.051.18.025.078.103.078.18.052.337-.18 1.294-.595 1.708-.18.233.206.44.905.285 1.37-.078.285-.285.44-.621.466a.506.506 0 0 1-.44-.13c-.285-.258-.285-.776-.285-.776 0-.051-.025-.077-.077-.103-.026-.026-.078-.026-.13 0 0 0-.724.517-1.319.233-.854-.414-.647-1.527-.647-1.552 0-.078-.026-.13-.103-.13-.078 0-.13.026-.13.104 0 0-.051.31 0 .647-.62-.078-1.164-.182-1.63-.363.26-.284.389-.646.389-1.06 0-.078-.052-.13-.13-.13-.077 0-.129.052-.129.13 0 .75-.62 1.345-1.345 1.345-.544 0-1.035-.336-1.268-.854.026-.077-.026-.077-.103-.077-.078.025-.078.103-.078.155a2 2 0 0 0 .31.491c-.284.621-.802 1.32-1.681 1.061-.285-.078-.466-.259-.518-.492-.025-.18 0-.362.13-.44a.39.39 0 0 1 .414-.025c.44.155.698-.57.957-1.268.13-.388.31-.828.44-.905.155-.104.543-.104.75.18.026.078.052.26.052.26 0 .051.077.103.13.077.077 0 .103-.078.103-.13-.13-.75.077-1.215.258-1.448 0 0-1.345-1.009-1.138-2.354 0-.078.052-.13.078-.13.025 0 .077.078.077.181.078.26.207.647.57 1.061.336.414.62.647.905.75.026 0 .672.13 1.888.13.699 0 1.604-.078 1.656-.104.052.31.207.828.621 1.294.388.44.802.62 1.112.75.44.181.828.259 1.087.31 0 .026-.026.026-.026.052a2.419 2.419 0 0 1-.776 1.01c-.31-.027-.673.051-.957.154-.026-.077-.078-.284-.181-.646-.026-.078-.078-.104-.156-.078-.051-.026-.077.052-.077.104zm2.847-6.52c-.233-.026-.492.621-.595.854.207.026.414.077.62.181.052-.078.13-1.035-.025-1.035z" fill="#FFF"/><path d="M12.547 7.813s-.077-.026-.18 0c.103.259.335.44.646.517.517.13 1.112.104 1.733-.465.31-.285.621-.802.673-1.268-.052.078-.13.103-.207.155-.336.104-.75-.052-.854-.362-.077-.181 0-.336.13-.466a6.807 6.807 0 0 1-.337.078c-.336.078-.595.13-.724.026-.104-.104-.13-.259-.207-.44-.078-.259-.155-.543-.414-.698-.543-.337-1.164-.233-1.19-.233-.052 0-.078 0-.104-.052-.025-.026-.103-.724-.232-.931-.13-.26-.233-.285-.26-.285-.258 0-.672.647-.827 1.578 0 .026-.026.026-.026.052-.31.336-.672 1.5-.672 1.888v.052c.025.388.672 2.07 2.612 2.122h.052c.699-.052 1.449-.363 1.785-.544-.233.078-.646.104-1.009.026a1.208 1.208 0 0 1-.802-.647c-.051.026-.077.078-.103.156a.124.124 0 0 1-.155.051c-.078-.025-.078-.103-.052-.155a.776.776 0 0 1 .776-.414c.078 0 .103.078.103.13-.025.103-.077.129-.155.129zm.544-1.966c.077 0 .129.077.129.207 0 .103-.078.207-.13.207-.077 0-.129-.078-.129-.207-.026-.104.052-.207.13-.207zm-1.837-1.139c-.052.026-.155.078-.31.078-.13.026-.13-.078-.027-.362.104-.259.182-.388.182-.388.103-.104.18.672.155.672zm1.216 1.967c-.13 0-.233-.156-.233-.337 0-.18.103-.362.233-.362.129 0 .232.155.232.336 0 .182-.103.363-.232.363z" fill="#FFF" fill-rule="nonzero"/><path d="M11.9 10.193a2.153 2.153 0 0 1-.413.44c.077.026.155.077.232.13.104.103.207.258.285.439.233-.078.414-.181.414-.181a.079.079 0 0 1 .103 0 .367.367 0 0 1 .078.103c.103.725.414.932.699.828a.592.592 0 0 0 .413-.44c.104-.465-.155-1.06-.388-1.267-.284-.285-.931-.181-1.423-.052z" fill="#FFF"/><path d="M12.185 9.132l-.155.31-.026.027c-.543-.052-2.432-.466-2.872-2.355 0 0 0-.025.026-.025l.285-.104c.026 0 .026 0 .026.026.077.44.853 2.018 2.69 2.095.026 0 .052 0 .026.026z" fill="#1F9E38"/></g></g></svg>