<svg width="290" height="8" viewBox="0 0 290 8" xmlns="http://www.w3.org/2000/svg"><title>9E72DEF9-301C-408A-A104-1518EB1D809E</title><path d="M.554 4.95L3.08.043h.455v6.08h-.553V1.302L.498 6.123H0V.043h.554V4.95zm7.829 1.173V1.422L6.93 5.027h-.314L5.16 1.422v4.701h-.554V.043h.585L6.77 3.99 8.358.043h.578v6.08h-.553zm4.587-.685v.685h-2.964V.043h2.91v.685H10.56v1.97h2.048v.642H10.56v2.098h2.41zm4.035.728a1.43 1.43 0 0 1-.744-.201 1.907 1.907 0 0 1-.59-.565 3.093 3.093 0 0 1-.407-.874A4.706 4.706 0 0 1 15.08 3.4h-.787v2.723h-.554V.043h.554v2.672h.793a4.59 4.59 0 0 1 .197-1.126c.107-.334.246-.618.418-.852a1.94 1.94 0 0 1 .594-.544c.223-.129.464-.193.722-.193.295 0 .565.077.809.231.244.154.453.37.627.647.175.277.31.604.406.98.097.377.145.788.145 1.234 0 .468-.05.892-.151 1.271-.1.38-.24.703-.418.968a2.01 2.01 0 0 1-.634.617c-.244.145-.51.218-.796.218zm-1.372-3.083c0 .377.033.712.099 1.006.065.294.159.544.28.75.12.205.265.362.433.47.168.11.357.163.566.163.221 0 .421-.057.6-.17.178-.115.329-.278.452-.489a2.65 2.65 0 0 0 .283-.754c.065-.29.098-.616.098-.976a4.36 4.36 0 0 0-.105-1.006 2.468 2.468 0 0 0-.295-.745 1.432 1.432 0 0 0-.452-.467 1.078 1.078 0 0 0-.58-.163c-.214 0-.406.057-.576.172a1.42 1.42 0 0 0-.434.48c-.118.205-.21.454-.273.748a4.629 4.629 0 0 0-.096.981zm7.3-2.355h-1.506v5.395h-.554V.728h-1.506V.043h3.567v.685zm.345 2.312c0-.365.046-.73.138-1.092.093-.362.228-.688.406-.976a2.31 2.31 0 0 1 .655-.698 1.52 1.52 0 0 1 .88-.265c.39 0 .723.122 1.002.368a2.2 2.2 0 0 1 .621.959l-.436.394a1.912 1.912 0 0 0-.237-.488 1.354 1.354 0 0 0-.301-.317 1.094 1.094 0 0 0-.336-.171 1.18 1.18 0 0 0-.338-.052c-.242 0-.456.07-.643.21-.186.14-.343.323-.47.548a2.79 2.79 0 0 0-.286.762 3.873 3.873 0 0 0-.095.852c0 .32.038.624.113.913.076.288.182.543.317.766.135.223.295.4.48.531.184.131.385.197.603.197a1.124 1.124 0 0 0 .7-.253 1.672 1.672 0 0 0 .548-.818l.461.352a2.054 2.054 0 0 1-.716 1.044c-.158.12-.325.212-.501.274a1.534 1.534 0 0 1-.517.095c-.3 0-.574-.092-.824-.274a2.51 2.51 0 0 1-.649-.715 3.717 3.717 0 0 1-.424-1.002 4.415 4.415 0 0 1-.151-1.144zm6.777 3.083V3.768h-1.008l-1.003 2.355H27.4l1.082-2.466a1.223 1.223 0 0 1-.354-.27 1.76 1.76 0 0 1-.28-.407 2.27 2.27 0 0 1-.18-.505 2.494 2.494 0 0 1 .033-1.25c.065-.223.157-.421.274-.596.116-.174.256-.315.418-.423a.936.936 0 0 1 .532-.163h1.685v6.08h-.554zm0-5.395h-1.1a.549.549 0 0 0-.305.094.9.9 0 0 0-.252.253c-.072.105-.13.23-.172.372a1.564 1.564 0 0 0-.065.454c0 .154.019.303.055.446.037.142.089.268.154.376a.863.863 0 0 0 .237.262.523.523 0 0 0 .31.098h1.138V.728zm3.18-.685h3.48v6.08h-.553V.728h-2.374v5.395h-.553V.043zm4.551 6.08V.043h1.82a.92.92 0 0 1 .532.167c.162.111.302.26.419.445a2.576 2.576 0 0 1 .372 1.332c0 .251-.031.494-.093.728a2.291 2.291 0 0 1-.261.625 1.433 1.433 0 0 1-.406.437.908.908 0 0 1-.526.162H38.34v2.184h-.553zm.553-2.869h1.274a.523.523 0 0 0 .31-.098.822.822 0 0 0 .237-.274c.066-.117.117-.253.154-.407a2.09 2.09 0 0 0-.01-.985 1.522 1.522 0 0 0-.172-.402.848.848 0 0 0-.252-.266.549.549 0 0 0-.304-.094h-1.237v2.526zm5.056 2.912c-.308 0-.587-.087-.84-.261a2.329 2.329 0 0 1-.648-.694 3.584 3.584 0 0 1-.419-.989 4.425 4.425 0 0 1 .01-2.304c.104-.37.249-.699.433-.985.185-.285.403-.512.655-.68a1.45 1.45 0 0 1 1.658.017c.25.18.465.415.645.706s.32.621.419.99c.098.368.147.743.147 1.126 0 .405-.052.793-.157 1.164a3.592 3.592 0 0 1-.43.98c-.183.284-.4.509-.652.677a1.45 1.45 0 0 1-.821.253zM41.9 3.083c0 .308.036.607.108.895.072.288.173.544.304.766.132.223.29.4.474.531.184.132.39.197.615.197.234 0 .443-.07.627-.21.185-.14.342-.322.47-.547a2.86 2.86 0 0 0 .296-.767 3.739 3.739 0 0 0-.006-1.76 2.736 2.736 0 0 0-.308-.762 1.762 1.762 0 0 0-.473-.527A1.013 1.013 0 0 0 43.4.702c-.234 0-.443.069-.627.206a1.76 1.76 0 0 0-.47.54c-.13.222-.23.476-.3.762a3.67 3.67 0 0 0-.104.873zM49.367.728H47.86v5.395h-.554V.728H45.8V.043h3.567v.685zM50.56 4.95L53.087.043h.455v6.08h-.553V1.302l-2.485 4.821h-.498V.043h.554V4.95zm7.281-.394c0 .234-.033.448-.101.642s-.16.36-.277.497a1.237 1.237 0 0 1-.406.317 1.124 1.124 0 0 1-.495.111H54.49V.043h2.17c.152 0 .29.045.413.137.123.091.227.21.313.355.086.146.153.311.2.497a2.27 2.27 0 0 1-.092 1.4 1.204 1.204 0 0 1-.464.574c.25.103.447.293.593.57.146.276.218.603.218.98zm-.56-.137c0-.137-.017-.27-.052-.398a1.292 1.292 0 0 0-.141-.338.76.76 0 0 0-.212-.232.463.463 0 0 0-.27-.085h-1.563v2.09h1.52a.501.501 0 0 0 .282-.086.852.852 0 0 0 .228-.227 1.13 1.13 0 0 0 .153-.33 1.39 1.39 0 0 0 .056-.394zM55.044.711v2.03h1.39a.48.48 0 0 0 .27-.082.743.743 0 0 0 .213-.218c.06-.092.106-.199.141-.321a1.588 1.588 0 0 0 .003-.792 1.22 1.22 0 0 0-.132-.326.648.648 0 0 0-.203-.214.464.464 0 0 0-.255-.077h-1.427zm5.474 5.455c-.308 0-.588-.087-.84-.261a2.329 2.329 0 0 1-.649-.694 3.584 3.584 0 0 1-.418-.989 4.425 4.425 0 0 1 .01-2.304c.104-.37.248-.699.433-.985.184-.285.403-.512.655-.68a1.45 1.45 0 0 1 1.657.017c.25.18.466.415.646.706s.32.621.418.99c.099.368.148.743.148 1.126 0 .405-.052.793-.157 1.164a3.592 3.592 0 0 1-.43.98c-.183.284-.4.509-.652.677a1.45 1.45 0 0 1-.821.253zm-1.495-3.083c0 .308.036.607.108.895.072.288.173.544.304.766.131.223.29.4.474.531.184.132.39.197.615.197.233 0 .443-.07.627-.21.185-.14.341-.322.47-.547.13-.226.228-.482.296-.767a3.739 3.739 0 0 0-.006-1.76 2.736 2.736 0 0 0-.308-.762 1.762 1.762 0 0 0-.473-.527 1.013 1.013 0 0 0-.606-.197c-.234 0-.443.069-.628.206a1.76 1.76 0 0 0-.47.54c-.13.222-.229.476-.298.762a3.67 3.67 0 0 0-.105.873zm4.33-3.04h3.48v6.08h-.553V.728h-2.374v5.395h-.553V.043zm6.316 6.123c-.308 0-.587-.087-.84-.261a2.329 2.329 0 0 1-.648-.694 3.584 3.584 0 0 1-.419-.989 4.425 4.425 0 0 1 .01-2.304c.104-.37.249-.699.433-.985.185-.285.403-.512.655-.68a1.45 1.45 0 0 1 1.658.017c.25.18.465.415.645.706s.32.621.419.99c.098.368.147.743.147 1.126 0 .405-.052.793-.157 1.164a3.592 3.592 0 0 1-.43.98c-.183.284-.4.509-.652.677a1.45 1.45 0 0 1-.821.253zm-1.495-3.083c0 .308.036.607.108.895.072.288.173.544.304.766.132.223.29.4.474.531.185.132.39.197.615.197.234 0 .443-.07.627-.21.185-.14.342-.322.47-.547a2.86 2.86 0 0 0 .296-.767 3.739 3.739 0 0 0-.006-1.76 2.736 2.736 0 0 0-.308-.762 1.762 1.762 0 0 0-.473-.527 1.013 1.013 0 0 0-.606-.197c-.234 0-.443.069-.627.206a1.76 1.76 0 0 0-.47.54c-.13.222-.23.476-.299.762a3.67 3.67 0 0 0-.105.873zm4.884-.394h.553L75.043.043h.634L74.12 2.98l1.697 3.143h-.633l-1.513-2.749h-.615v2.75h-.554V.042h.554v2.646zM77.65.043h.467l1.784 6.08h-.59l-.517-1.781h-1.833l-.51 1.781h-.591l1.79-6.08zm1.02 3.7l-.787-2.81-.811 2.81h1.599zm1.55-2.98c.14-.258.305-.449.495-.575a1.27 1.27 0 0 1 .71-.188c.407 0 .721.123.945.368.223.246.335.603.335 1.07 0 .349-.061.647-.184.896-.123.248-.296.41-.517.484.27.045.488.197.652.453.164.257.246.591.246 1.002 0 .275-.038.527-.114.758a1.885 1.885 0 0 1-.317.6c-.135.168-.295.3-.48.394a1.306 1.306 0 0 1-.602.141c-.291 0-.55-.083-.775-.248a1.545 1.545 0 0 1-.517-.702l.443-.454c.095.217.211.388.35.513.14.126.314.189.524.189a.814.814 0 0 0 .372-.086.902.902 0 0 0 .292-.235c.082-.1.146-.22.193-.36.048-.14.071-.293.071-.458 0-.36-.103-.644-.31-.852-.207-.209-.495-.313-.864-.313h-.333v-.685h.333c.307 0 .549-.086.725-.257.177-.171.265-.411.265-.72 0-.28-.069-.487-.206-.624a.705.705 0 0 0-.52-.206c-.185 0-.35.05-.498.15a.983.983 0 0 0-.345.424l-.369-.48zm4.785-.72h.468l1.783 6.08h-.59l-.517-1.781h-1.833l-.51 1.781h-.59l1.79-6.08zm1.021 3.7L85.24.932l-.812 2.81h1.6zm5.338-3.7v6.08h-.553V3.357h-2.405v2.766h-.553V.043h.553v2.629h2.405V.042h.553zM92.99 4.95L95.517.043h.455v6.08h-.554V1.302l-2.484 4.821h-.499V.043h.554V4.95zm6.347 1.173V3.768h-1.009l-1.002 2.355h-.646l1.082-2.466a1.223 1.223 0 0 1-.353-.27 1.76 1.76 0 0 1-.28-.407 2.27 2.27 0 0 1-.182-.505 2.494 2.494 0 0 1 .034-1.25c.066-.223.157-.421.274-.596.117-.174.256-.315.418-.423a.936.936 0 0 1 .532-.163h1.685v6.08h-.553zm0-5.395h-1.101a.549.549 0 0 0-.304.094.9.9 0 0 0-.253.253c-.071.105-.129.23-.172.372a1.564 1.564 0 0 0-.064.454c0 .154.018.303.055.446.037.142.088.268.154.376a.863.863 0 0 0 .236.262.523.523 0 0 0 .311.098h1.138V.728zm1.482 5.395v-.959h.455v.96h-.455zm6.451-6.08v6.08h-.553V3.357h-2.405v2.766h-.553V.043h.553v2.629h2.405V.042h.553zm4.035 5.395v.685h-2.965V.043h2.91v.685h-2.356v1.97h2.048v.642h-2.048v2.098h2.41zm2.527.728c-.307 0-.587-.087-.839-.261a2.329 2.329 0 0 1-.649-.694 3.584 3.584 0 0 1-.418-.989 4.425 4.425 0 0 1 .01-2.304c.104-.37.248-.699.433-.985.184-.285.403-.512.655-.68a1.45 1.45 0 0 1 1.657.017c.25.18.466.415.646.706s.32.621.418.99c.099.368.148.743.148 1.126 0 .405-.053.793-.157 1.164a3.592 3.592 0 0 1-.43.98c-.183.284-.4.509-.652.677a1.45 1.45 0 0 1-.822.253zm-1.494-3.083c0 .308.036.607.108.895.071.288.173.544.304.766.131.223.29.4.474.531.184.132.39.197.615.197.233 0 .442-.07.627-.21.184-.14.341-.322.47-.547a2.86 2.86 0 0 0 .296-.767 3.739 3.739 0 0 0-.007-1.76 2.736 2.736 0 0 0-.307-.762 1.762 1.762 0 0 0-.474-.527 1.013 1.013 0 0 0-.605-.197c-.234 0-.443.069-.628.206a1.76 1.76 0 0 0-.47.54c-.13.222-.229.476-.298.762a3.67 3.67 0 0 0-.105.873zm4.33-3.04h3.069v.685h-2.516v1.816h1.458c.176 0 .341.038.495.115.154.077.289.19.406.338.117.149.209.336.276.561a2.7 2.7 0 0 1 .102.775 2.7 2.7 0 0 1-.102.775 1.713 1.713 0 0 1-.273.561c-.115.149-.25.262-.406.339a1.109 1.109 0 0 1-.498.115h-2.011V.043zm2.01 5.412a.59.59 0 0 0 .536-.304c.123-.202.184-.475.184-.818 0-.342-.06-.615-.181-.817a.588.588 0 0 0-.538-.304h-1.458v2.243h1.458zm2.135-5.412l1.328 2.535L123.47.043h.608l-1.642 3.083 1.593 2.997h-.609l-1.279-2.449-1.279 2.45h-.615l1.593-2.998-1.642-3.083h.615zm5.584 6.123a1.45 1.45 0 0 1-.84-.261 2.329 2.329 0 0 1-.648-.694 3.584 3.584 0 0 1-.418-.989 4.425 4.425 0 0 1 .009-2.304c.104-.37.249-.699.433-.985.185-.285.403-.512.655-.68a1.45 1.45 0 0 1 1.658.017c.25.18.465.415.646.706.18.291.32.621.418.99.098.368.147.743.147 1.126 0 .405-.052.793-.156 1.164a3.592 3.592 0 0 1-.431.98c-.182.284-.4.509-.652.677a1.45 1.45 0 0 1-.82.253zm-1.494-3.083c0 .308.035.607.107.895.072.288.173.544.305.766.13.223.289.4.473.531.185.132.39.197.615.197.234 0 .443-.07.628-.21.184-.14.34-.322.47-.547a2.86 2.86 0 0 0 .295-.767 3.739 3.739 0 0 0-.006-1.76 2.736 2.736 0 0 0-.307-.762 1.762 1.762 0 0 0-.474-.527 1.013 1.013 0 0 0-.606-.197c-.233 0-.443.069-.627.206a1.76 1.76 0 0 0-.47.54c-.13.222-.23.476-.299.762a3.67 3.67 0 0 0-.104.873zm3.905 2.355h.055a.67.67 0 0 0 .246-.064.56.56 0 0 0 .215-.201 1.65 1.65 0 0 0 .185-.407 5.07 5.07 0 0 0 .16-.672c.05-.274.093-.607.132-.998.04-.391.075-.855.108-1.392l.098-1.661h2.313v5.395h.676v2.278h-.492V6.123H129.3v1.593h-.492V5.438zm2.958 0V.728h-1.242l-.062 1.01c-.061 1.022-.148 1.829-.261 2.42-.113.59-.264 1.018-.452 1.28h2.017zm2.423-.488l2.528-4.907h.455v6.08h-.554V1.302l-2.484 4.821h-.498V.043h.553V4.95zm5.818 1.216a1.45 1.45 0 0 1-.84-.261 2.329 2.329 0 0 1-.648-.694 3.584 3.584 0 0 1-.418-.989 4.425 4.425 0 0 1 .009-2.304c.104-.37.249-.699.433-.985.185-.285.403-.512.655-.68a1.45 1.45 0 0 1 1.658.017c.25.18.465.415.646.706.18.291.32.621.418.99.098.368.147.743.147 1.126 0 .405-.052.793-.156 1.164a3.592 3.592 0 0 1-.43.98c-.183.284-.4.509-.653.677a1.45 1.45 0 0 1-.82.253zm-1.494-3.083c0 .308.036.607.107.895.072.288.174.544.305.766.13.223.289.4.473.531.185.132.39.197.615.197.234 0 .443-.07.628-.21.184-.14.34-.322.47-.547a2.86 2.86 0 0 0 .295-.767 3.739 3.739 0 0 0-.006-1.76 2.736 2.736 0 0 0-.307-.762 1.762 1.762 0 0 0-.474-.527 1.013 1.013 0 0 0-.606-.197c-.233 0-.443.069-.627.206a1.76 1.76 0 0 0-.47.54c-.13.222-.23.476-.299.762a3.67 3.67 0 0 0-.104.873zm5.885-3.04h3.481v6.08h-.553V.728h-2.374v5.395h-.554V.043zm4.551 6.08V.043h1.82a.92.92 0 0 1 .533.167c.162.111.301.26.418.445a2.576 2.576 0 0 1 .372 1.332c0 .251-.03.494-.092.728a2.291 2.291 0 0 1-.262.625 1.433 1.433 0 0 1-.406.437.908.908 0 0 1-.525.162h-1.304v2.184h-.554zm.554-2.869h1.273a.523.523 0 0 0 .31-.098.822.822 0 0 0 .237-.274c.066-.117.117-.253.154-.407a2.091 2.091 0 0 0-.01-.985 1.522 1.522 0 0 0-.171-.402.848.848 0 0 0-.253-.266.549.549 0 0 0-.304-.094h-1.236v2.526zm5.055 2.912a1.45 1.45 0 0 1-.84-.261 2.329 2.329 0 0 1-.648-.694 3.584 3.584 0 0 1-.418-.989 4.425 4.425 0 0 1 .009-2.304c.104-.37.249-.699.433-.985.185-.285.403-.512.655-.68a1.45 1.45 0 0 1 1.658.017c.25.18.465.415.646.706.18.291.32.621.418.99.098.368.147.743.147 1.126 0 .405-.052.793-.156 1.164a3.592 3.592 0 0 1-.43.98c-.183.284-.4.509-.653.677a1.45 1.45 0 0 1-.82.253zm-1.494-3.083c0 .308.036.607.107.895.072.288.174.544.305.766.131.223.289.4.473.531.185.132.39.197.615.197.234 0 .443-.07.628-.21.184-.14.341-.322.47-.547a2.86 2.86 0 0 0 .295-.767 3.739 3.739 0 0 0-.006-1.76 2.736 2.736 0 0 0-.307-.762 1.762 1.762 0 0 0-.474-.527 1.013 1.013 0 0 0-.606-.197c-.233 0-.442.069-.627.206a1.76 1.76 0 0 0-.47.54 2.83 2.83 0 0 0-.299.762 3.67 3.67 0 0 0-.104.873zm4.883-.394h.553l1.433-2.646h.634L159.01 2.98l1.697 3.143h-.633l-1.513-2.749h-.615v2.75h-.554V.042h.554v2.646zm5.043 3.477c-.308 0-.587-.087-.84-.261a2.329 2.329 0 0 1-.648-.694 3.584 3.584 0 0 1-.419-.989 4.425 4.425 0 0 1 .01-2.304c.104-.37.249-.699.433-.985.185-.285.403-.512.655-.68a1.45 1.45 0 0 1 1.658.017c.25.18.465.415.645.706s.32.621.419.99c.098.368.147.743.147 1.126 0 .405-.052.793-.157 1.164a3.592 3.592 0 0 1-.43.98c-.183.284-.4.509-.652.677a1.45 1.45 0 0 1-.821.253zm-1.495-3.083c0 .308.036.607.108.895.072.288.173.544.305.766.13.223.289.4.473.531.185.132.39.197.615.197.234 0 .443-.07.627-.21.185-.14.342-.322.47-.547a2.86 2.86 0 0 0 .296-.767 3.739 3.739 0 0 0-.006-1.76 2.736 2.736 0 0 0-.308-.762 1.762 1.762 0 0 0-.473-.527 1.013 1.013 0 0 0-.606-.197c-.234 0-.443.069-.627.206a1.76 1.76 0 0 0-.47.54c-.13.222-.23.476-.299.762a3.67 3.67 0 0 0-.105.873zm7.842-3.04v6.08h-.554V3.357h-2.404v2.766h-.554V.043h.554v2.629h2.404V.042h.554zm.775 2.997c0-.365.046-.73.138-1.092.092-.362.228-.688.406-.976.178-.288.397-.521.655-.698a1.52 1.52 0 0 1 .88-.265c.389 0 .723.122 1.002.368a2.2 2.2 0 0 1 .621.959l-.437.394a1.912 1.912 0 0 0-.236-.488 1.354 1.354 0 0 0-.302-.317 1.094 1.094 0 0 0-.335-.171 1.18 1.18 0 0 0-.338-.052c-.242 0-.456.07-.643.21-.186.14-.343.323-.47.548a2.79 2.79 0 0 0-.286.762 3.873 3.873 0 0 0-.096.852c0 .32.038.624.114.913.076.288.182.543.317.766.135.223.295.4.48.531.184.131.385.197.602.197a1.124 1.124 0 0 0 .701-.253 1.672 1.672 0 0 0 .548-.818l.461.352a2.054 2.054 0 0 1-.716 1.044c-.158.12-.325.212-.502.274a1.534 1.534 0 0 1-.516.095c-.3 0-.574-.092-.824-.274a2.51 2.51 0 0 1-.65-.715 3.717 3.717 0 0 1-.424-1.002c-.1-.374-.15-.756-.15-1.144zm4.994 3.143c-.078 0-.164-.01-.259-.03a.763.763 0 0 1-.24-.09v-.66c.07.04.147.07.231.087.084.017.161.025.23.025.14 0 .264-.06.373-.18.108-.12.216-.356.323-.71L174.176.043h.584l1.26 3.742 1.194-3.742h.584l-1.537 4.624c-.09.274-.179.507-.265.698a2.61 2.61 0 0 1-.264.471.88.88 0 0 1-.29.266.712.712 0 0 1-.337.081zm4.428-4.444c-.05.787-.111 1.461-.185 2.02a7.71 7.71 0 0 1-.289 1.38c-.119.36-.261.623-.427.792a.812.812 0 0 1-.6.252l-.098-.745a.67.67 0 0 0 .246-.064.56.56 0 0 0 .215-.201 1.69 1.69 0 0 0 .184-.407 5.07 5.07 0 0 0 .16-.672c.05-.274.094-.607.132-.998.04-.391.075-.855.108-1.392l.098-1.661h2.313v6.08h-.554V.728h-1.242l-.061 1.01zm2.933-1.696h.554v2.244h.934a1.31 1.31 0 0 1 1.04.488c.131.16.235.36.31.6.076.239.114.516.114.83 0 .314-.039.59-.117.83-.078.24-.183.44-.316.6a1.338 1.338 0 0 1-1.03.488h-1.489V.043zm.554 5.412h.934c.304 0 .53-.112.68-.338.15-.226.225-.53.225-.912 0-.383-.078-.687-.234-.912-.156-.226-.38-.338-.67-.338h-.935v2.5zm6.242-4.727h-1.507v5.395h-.553V.728h-1.507V.043h3.567v.685zm1.193 4.222l2.528-4.907h.455v6.08h-.554V1.302L190.4 6.123h-.498V.043h.553V4.95zm4.053 1.173V.043h1.82a.92.92 0 0 1 .532.167c.162.111.302.26.419.445a2.576 2.576 0 0 1 .372 1.332c0 .251-.031.494-.093.728a2.291 2.291 0 0 1-.261.625 1.433 1.433 0 0 1-.406.437.908.908 0 0 1-.526.162h-1.303v2.184h-.554zm.554-2.869h1.273a.523.523 0 0 0 .31-.098.822.822 0 0 0 .237-.274c.066-.117.117-.253.154-.407a2.09 2.09 0 0 0-.01-.985 1.522 1.522 0 0 0-.172-.402.848.848 0 0 0-.252-.266.549.549 0 0 0-.304-.094h-1.236v2.526zm5.055 2.912c-.308 0-.587-.087-.84-.261a2.329 2.329 0 0 1-.648-.694 3.584 3.584 0 0 1-.419-.989 4.425 4.425 0 0 1 .01-2.304c.104-.37.249-.699.433-.985.185-.285.403-.512.655-.68a1.45 1.45 0 0 1 1.658.017c.25.18.465.415.645.706s.32.621.419.99c.098.368.147.743.147 1.126 0 .405-.052.793-.157 1.164a3.592 3.592 0 0 1-.43.98c-.183.284-.4.509-.652.677a1.45 1.45 0 0 1-.821.253zm-1.495-3.083c0 .308.036.607.108.895.072.288.173.544.304.766.132.223.29.4.474.531.184.132.39.197.615.197.234 0 .443-.07.627-.21.185-.14.342-.322.47-.547a2.86 2.86 0 0 0 .296-.767 3.739 3.739 0 0 0-.006-1.76 2.736 2.736 0 0 0-.308-.762 1.762 1.762 0 0 0-.473-.527 1.013 1.013 0 0 0-.606-.197c-.234 0-.443.069-.627.206a1.76 1.76 0 0 0-.47.54c-.13.222-.23.476-.3.762a3.67 3.67 0 0 0-.104.873zm7.559 1.473c0 .234-.034.448-.102.642a1.54 1.54 0 0 1-.276.497 1.237 1.237 0 0 1-.406.317 1.124 1.124 0 0 1-.495.111h-2.073V.043H205c.152 0 .29.045.412.137.123.091.228.21.314.355.086.146.152.311.2.497a2.27 2.27 0 0 1-.093 1.4 1.204 1.204 0 0 1-.464.574c.25.103.448.293.593.57.146.276.219.603.219.98zm-.56-.137c0-.137-.017-.27-.052-.398a1.292 1.292 0 0 0-.142-.338.76.76 0 0 0-.212-.232.463.463 0 0 0-.27-.085h-1.562v2.09h1.519a.501.501 0 0 0 .283-.086.852.852 0 0 0 .227-.227 1.13 1.13 0 0 0 .154-.33 1.39 1.39 0 0 0 .055-.394zM203.383.711v2.03h1.39a.48.48 0 0 0 .27-.082.743.743 0 0 0 .212-.218c.06-.092.107-.199.142-.321a1.588 1.588 0 0 0 .003-.792 1.22 1.22 0 0 0-.132-.326.648.648 0 0 0-.203-.214.464.464 0 0 0-.256-.077h-1.426zm5.024-.668h.468l1.783 6.08h-.59l-.517-1.781h-1.833l-.51 1.781h-.59l1.79-6.08zm1.021 3.7l-.787-2.81-.812 2.81h1.599zm4.963-3.015h-1.507v5.395h-.553V.728h-1.507V.043h3.567v.685zm.64-.685h.553v2.244h.935a1.31 1.31 0 0 1 1.04.488c.13.16.234.36.31.6.076.239.114.516.114.83 0 .314-.04.59-.117.83-.078.24-.184.44-.317.6a1.338 1.338 0 0 1-1.03.488h-1.488V.043zm.553 5.412h.935c.303 0 .53-.112.68-.338.15-.226.224-.53.224-.912 0-.383-.078-.687-.234-.912-.155-.226-.379-.338-.67-.338h-.935v2.5zm2.81-2.415c0-.365.047-.73.14-1.092.091-.362.227-.688.405-.976.178-.288.397-.521.655-.698a1.52 1.52 0 0 1 .88-.265c.39 0 .723.122 1.002.368a2.2 2.2 0 0 1 .621.959l-.436.394a1.912 1.912 0 0 0-.237-.488 1.354 1.354 0 0 0-.302-.317 1.094 1.094 0 0 0-.335-.171 1.18 1.18 0 0 0-.338-.052c-.242 0-.456.07-.643.21-.186.14-.343.323-.47.548a2.79 2.79 0 0 0-.286.762 3.873 3.873 0 0 0-.096.852c0 .32.038.624.114.913.076.288.182.543.317.766.135.223.295.4.48.531.184.131.385.197.602.197a1.124 1.124 0 0 0 .702-.253 1.672 1.672 0 0 0 .547-.818l.461.352a2.054 2.054 0 0 1-.716 1.044c-.158.12-.325.212-.502.274a1.534 1.534 0 0 1-.516.095c-.3 0-.574-.092-.824-.274a2.51 2.51 0 0 1-.65-.715 3.717 3.717 0 0 1-.423-1.002 4.415 4.415 0 0 1-.151-1.144zm6.778 3.083V3.768h-1.008l-1.003 2.355h-.646l1.083-2.466a1.223 1.223 0 0 1-.354-.27 1.76 1.76 0 0 1-.28-.407 2.27 2.27 0 0 1-.181-.505 2.494 2.494 0 0 1 .034-1.25 2.17 2.17 0 0 1 .273-.596c.117-.174.257-.315.419-.423a.936.936 0 0 1 .532-.163h1.685v6.08h-.554zm0-5.395h-1.1a.549.549 0 0 0-.305.094.9.9 0 0 0-.252.253c-.072.105-.13.23-.172.372a1.564 1.564 0 0 0-.065.454c0 .154.018.303.055.446.037.142.088.268.154.376a.863.863 0 0 0 .237.262.523.523 0 0 0 .31.098h1.138V.728zm2.885 2.312c0-.365.046-.73.138-1.092.092-.362.228-.688.406-.976.178-.288.397-.521.655-.698a1.52 1.52 0 0 1 .88-.265c.389 0 .723.122 1.002.368a2.2 2.2 0 0 1 .62.959l-.436.394a1.912 1.912 0 0 0-.237-.488 1.354 1.354 0 0 0-.3-.317 1.094 1.094 0 0 0-.336-.171 1.18 1.18 0 0 0-.338-.052c-.242 0-.456.07-.643.21a1.74 1.74 0 0 0-.47.548 2.79 2.79 0 0 0-.286.762 3.873 3.873 0 0 0-.096.852c0 .32.038.624.114.913.076.288.181.543.317.766.135.223.295.4.48.531.184.131.385.197.602.197a1.124 1.124 0 0 0 .701-.253 1.672 1.672 0 0 0 .548-.818l.46.352a2.054 2.054 0 0 1-.716 1.044c-.157.12-.325.212-.5.274a1.534 1.534 0 0 1-.517.095c-.3 0-.574-.092-.825-.274a2.51 2.51 0 0 1-.648-.715 3.717 3.717 0 0 1-.425-1.002c-.1-.374-.15-.756-.15-1.144zm6.248 3.126a1.45 1.45 0 0 1-.84-.261 2.329 2.329 0 0 1-.648-.694 3.584 3.584 0 0 1-.418-.989 4.425 4.425 0 0 1 .009-2.304c.104-.37.249-.699.433-.985.185-.285.403-.512.655-.68a1.45 1.45 0 0 1 1.658.017c.25.18.465.415.646.706.18.291.32.621.418.99.098.368.147.743.147 1.126 0 .405-.052.793-.157 1.164a3.592 3.592 0 0 1-.43.98c-.182.284-.4.509-.652.677a1.45 1.45 0 0 1-.821.253zm-1.494-3.083c0 .308.035.607.107.895.072.288.173.544.305.766.13.223.289.4.473.531.185.132.39.197.615.197.234 0 .443-.07.627-.21.185-.14.342-.322.471-.547a2.86 2.86 0 0 0 .295-.767 3.739 3.739 0 0 0-.006-1.76 2.736 2.736 0 0 0-.307-.762 1.762 1.762 0 0 0-.474-.527 1.013 1.013 0 0 0-.606-.197c-.234 0-.443.069-.627.206a1.76 1.76 0 0 0-.47.54c-.13.222-.23.476-.299.762a3.67 3.67 0 0 0-.104.873zm5.59-.043c0-.365.046-.73.138-1.092.093-.362.228-.688.406-.976a2.31 2.31 0 0 1 .655-.698 1.52 1.52 0 0 1 .88-.265c.39 0 .723.122 1.002.368a2.2 2.2 0 0 1 .621.959l-.436.394a1.912 1.912 0 0 0-.237-.488 1.354 1.354 0 0 0-.301-.317 1.094 1.094 0 0 0-.336-.171 1.18 1.18 0 0 0-.338-.052c-.242 0-.456.07-.643.21-.186.14-.343.323-.47.548a2.79 2.79 0 0 0-.286.762 3.873 3.873 0 0 0-.095.852c0 .32.038.624.113.913.076.288.182.543.317.766.135.223.295.4.48.531.184.131.385.197.603.197a1.124 1.124 0 0 0 .7-.253 1.672 1.672 0 0 0 .548-.818l.461.352a2.054 2.054 0 0 1-.716 1.044c-.158.12-.325.212-.501.274a1.534 1.534 0 0 1-.517.095c-.3 0-.574-.092-.824-.274a2.51 2.51 0 0 1-.649-.715 3.717 3.717 0 0 1-.424-1.002 4.415 4.415 0 0 1-.151-1.144zm4.483-2.997h3.481v6.08h-.553V.728h-2.374v5.395h-.554V.043zm7.516 5.395v.685h-2.965V.043h2.91v.685h-2.356v1.97h2.048v.642h-2.048v2.098h2.41zm4.157.685h-3.388V.043h.553v5.395h2.097V.043h.554v5.395h.676v2.278h-.492V6.123zm1.685-1.173L258.77.043h.455v6.08h-.553V1.302l-2.485 4.821h-.498V.043h.553V4.95zm5.37-4.907h.467l1.783 6.08h-.59l-.517-1.781h-1.832l-.51 1.781h-.591l1.79-6.08zm1.02 3.7l-.787-2.81-.812 2.81h1.6zm2.934-2.004a29.82 29.82 0 0 1-.185 2.02 7.71 7.71 0 0 1-.289 1.38c-.119.36-.261.623-.427.792a.812.812 0 0 1-.6.252l-.098-.745a.67.67 0 0 0 .246-.064.56.56 0 0 0 .215-.201c.066-.097.127-.233.185-.407a5.07 5.07 0 0 0 .16-.672c.049-.274.093-.607.132-.998.039-.391.075-.855.107-1.392l.099-1.661h2.312v6.08h-.553V.728h-1.243l-.061 1.01zm3.487 3.211L271.58.043h.455v6.08h-.554V1.302l-2.484 4.821h-.499V.043h.554V4.95zm3.758-1.91c0-.365.046-.73.138-1.092.092-.362.228-.688.406-.976.178-.288.397-.521.655-.698a1.52 1.52 0 0 1 .88-.265c.389 0 .723.122 1.002.368a2.2 2.2 0 0 1 .62.959l-.436.394a1.912 1.912 0 0 0-.237-.488 1.354 1.354 0 0 0-.3-.317 1.094 1.094 0 0 0-.336-.171 1.18 1.18 0 0 0-.338-.052c-.242 0-.456.07-.643.21a1.74 1.74 0 0 0-.47.548 2.79 2.79 0 0 0-.286.762 3.873 3.873 0 0 0-.096.852c0 .32.038.624.114.913.076.288.181.543.317.766.135.223.295.4.48.531.184.131.385.197.602.197a1.124 1.124 0 0 0 .701-.253 1.672 1.672 0 0 0 .548-.818l.46.352a2.054 2.054 0 0 1-.716 1.044c-.157.12-.325.212-.5.274a1.534 1.534 0 0 1-.517.095c-.3 0-.574-.092-.825-.274a2.51 2.51 0 0 1-.648-.715 3.717 3.717 0 0 1-.425-1.002c-.1-.374-.15-.756-.15-1.144zm7.62-2.312h-1.507v5.395h-.554V.728h-1.507V.043h3.568v.685zm2.404 5.438a1.45 1.45 0 0 1-.84-.261 2.329 2.329 0 0 1-.648-.694 3.584 3.584 0 0 1-.418-.989 4.425 4.425 0 0 1 .009-2.304c.104-.37.249-.699.433-.985.185-.285.403-.512.655-.68a1.45 1.45 0 0 1 1.658.017c.25.18.465.415.646.706.18.291.32.621.418.99.098.368.147.743.147 1.126 0 .405-.052.793-.156 1.164a3.592 3.592 0 0 1-.43.98c-.183.284-.4.509-.653.677a1.45 1.45 0 0 1-.82.253zm-1.494-3.083c0 .308.036.607.107.895.072.288.174.544.305.766.131.223.289.4.473.531.185.132.39.197.615.197.234 0 .443-.07.628-.21.184-.14.341-.322.47-.547a2.86 2.86 0 0 0 .295-.767 3.739 3.739 0 0 0-.006-1.76 2.736 2.736 0 0 0-.307-.762 1.762 1.762 0 0 0-.474-.527 1.013 1.013 0 0 0-.606-.197c-.233 0-.442.069-.627.206a1.76 1.76 0 0 0-.47.54 2.83 2.83 0 0 0-.299.762 3.67 3.67 0 0 0-.104.873zm8.105 3.04V1.422l-1.45 3.605h-.315l-1.457-3.605v4.701h-.554V.043h.585l1.58 3.948 1.587-3.948H290v6.08h-.554z" fill="#FFF" fill-rule="evenodd"/></svg>