<svg width="1200" height="32" viewBox="0 0 1200 32" xmlns="http://www.w3.org/2000/svg"><title>CF082FB2-73B3-4A85-BF4C-C3AC35A68041</title><path d="M2.29 20.483L12.75.177h1.883v25.16h-2.29V5.388L2.06 25.336H0V.178h2.29v20.306zm32.396 4.855V5.883L28.68 20.802h-1.297L21.35 5.882v19.456h-2.29V.178h2.418l6.54 16.336L34.585.177h2.392v25.16h-2.29zm18.985-2.835v2.835H41.405V.178h12.037v2.834h-9.747v8.15h8.474v2.659h-8.474v8.682h9.976zm16.694 3.012a5.91 5.91 0 0 1-3.08-.833c-.932-.555-1.747-1.335-2.442-2.339-.696-1.004-1.256-2.209-1.68-3.614-.424-1.406-.678-2.96-.763-4.66h-3.258v11.269h-2.29V.178h2.29v11.056h3.283c.102-1.725.373-3.278.815-4.66.44-1.382 1.018-2.558 1.73-3.526.713-.969 1.531-1.72 2.456-2.25A5.9 5.9 0 0 1 70.416 0a6.14 6.14 0 0 1 3.347.957c1.009.638 1.874 1.53 2.595 2.675.721 1.146 1.281 2.499 1.68 4.058.399 1.56.598 3.26.598 5.103 0 1.937-.208 3.691-.624 5.262-.415 1.571-.992 2.906-1.73 4.005-.738 1.098-1.612 1.949-2.621 2.551a6.315 6.315 0 0 1-3.296.904zM64.69 12.757c0 1.56.136 2.948.407 4.164.272 1.217.658 2.25 1.158 3.101.5.85 1.099 1.5 1.794 1.95a4.225 4.225 0 0 0 2.342.673c.916 0 1.743-.237 2.48-.71.739-.472 1.362-1.145 1.871-2.02.51-.873.9-1.913 1.171-3.118.271-1.205.407-2.551.407-4.04 0-1.559-.144-2.947-.432-4.163-.289-1.217-.696-2.245-1.222-3.083-.526-.84-1.15-1.483-1.87-1.932a4.459 4.459 0 0 0-2.405-.673 4.17 4.17 0 0 0-2.38.709c-.704.472-1.302 1.134-1.794 1.984-.492.85-.87 1.884-1.132 3.1-.263 1.218-.395 2.57-.395 4.058zm30.208-9.745h-6.235v22.326h-2.29V3.012h-6.236V.177h14.76v2.835zm1.425 9.568c0-1.512.19-3.018.572-4.518.382-1.5.942-2.847 1.68-4.04s1.641-2.156 2.71-2.888c1.069-.732 2.282-1.099 3.64-1.099 1.611 0 2.994.508 4.147 1.524 1.154 1.016 2.01 2.34 2.57 3.97l-1.806 1.63c-.272-.804-.598-1.477-.98-2.02-.382-.544-.797-.981-1.247-1.312a4.525 4.525 0 0 0-1.387-.709 4.88 4.88 0 0 0-1.4-.212c-1 0-1.887.29-2.659.868-.772.579-1.42 1.335-1.947 2.268-.526.933-.92 1.985-1.183 3.154a16.025 16.025 0 0 0-.394 3.526c0 1.323.156 2.581.47 3.774.314 1.193.751 2.25 1.31 3.172.56.921 1.222 1.654 1.986 2.197.763.543 1.595.815 2.494.815a4.65 4.65 0 0 0 2.901-1.045 6.917 6.917 0 0 0 1.285-1.383c.399-.555.725-1.222.98-2.002l1.909 1.453c-.289.945-.692 1.778-1.21 2.499a8.481 8.481 0 0 1-1.755 1.825 7.68 7.68 0 0 1-2.074 1.134c-.73.26-1.442.39-2.138.39-1.238 0-2.375-.379-3.41-1.135-1.035-.756-1.93-1.742-2.685-2.959-.755-1.216-1.34-2.598-1.756-4.146a18.158 18.158 0 0 1-.623-4.73zm28.044 12.758v-9.746h-4.174l-4.148 9.746h-2.672l4.48-10.206a5.061 5.061 0 0 1-1.464-1.116 7.285 7.285 0 0 1-1.158-1.684 9.394 9.394 0 0 1-.75-2.09 10.32 10.32 0 0 1-.268-2.375c0-.945.136-1.878.407-2.8a8.902 8.902 0 0 1 1.133-2.462 6.312 6.312 0 0 1 1.73-1.755 3.874 3.874 0 0 1 2.201-.673h6.973v25.16h-2.29zm0-22.326h-4.555c-.441 0-.861.13-1.26.39s-.747.608-1.043 1.045a5.596 5.596 0 0 0-.713 1.542 6.47 6.47 0 0 0-.267 1.878c0 .638.076 1.252.229 1.843.153.59.365 1.11.636 1.56.272.448.598.808.98 1.08s.81.407 1.285.407h4.708V3.012zM137.524.177h14.404v25.16h-2.29V3.013h-9.824v22.326h-2.29V.178zm18.832 25.16V.178h7.533c.797 0 1.53.23 2.2.691.671.46 1.248 1.075 1.731 1.843.484.768.861 1.63 1.133 2.587.271.957.407 1.931.407 2.923 0 1.04-.127 2.044-.382 3.013a9.505 9.505 0 0 1-1.081 2.587c-.467.756-1.027 1.358-1.68 1.807a3.756 3.756 0 0 1-2.176.673h-5.395v9.037h-2.29zm2.29-11.87h5.268c.475 0 .903-.137 1.285-.408.382-.272.708-.65.98-1.134a6.546 6.546 0 0 0 .636-1.684 8.652 8.652 0 0 0 .23-2.02c0-.732-.09-1.417-.268-2.055a6.3 6.3 0 0 0-.713-1.665c-.297-.473-.644-.84-1.043-1.099a2.27 2.27 0 0 0-1.26-.39h-5.115v10.454zm20.919 12.048a5.98 5.98 0 0 1-3.474-1.08c-1.043-.721-1.938-1.678-2.685-2.871-.746-1.193-1.323-2.558-1.73-4.093a18.311 18.311 0 0 1-.611-4.714c0-1.677.216-3.283.649-4.819.433-1.536 1.03-2.894 1.794-4.075.764-1.182 1.667-2.12 2.71-2.818C177.262.348 178.394 0 179.616 0a5.79 5.79 0 0 1 3.46 1.116c1.036.744 1.926 1.719 2.673 2.924.746 1.205 1.323 2.57 1.73 4.093a17.94 17.94 0 0 1 .611 4.66 17.69 17.69 0 0 1-.649 4.82c-.432 1.535-1.026 2.888-1.781 4.057-.755 1.17-1.654 2.103-2.698 2.8-1.043.696-2.176 1.045-3.397 1.045zm-6.184-12.758c0 1.276.148 2.51.445 3.704.297 1.193.717 2.25 1.26 3.171.543.922 1.196 1.654 1.96 2.197a4.288 4.288 0 0 0 2.544.816c.967 0 1.833-.29 2.596-.869.763-.579 1.412-1.335 1.947-2.268.534-.933.941-1.99 1.221-3.171.28-1.182.42-2.375.42-3.58 0-1.275-.148-2.51-.445-3.703-.297-1.193-.721-2.244-1.273-3.154-.55-.91-1.204-1.636-1.959-2.18a4.194 4.194 0 0 0-2.507-.814 4.24 4.24 0 0 0-2.595.85c-.764.567-1.413 1.312-1.947 2.233-.535.921-.946 1.973-1.235 3.154a15.184 15.184 0 0 0-.432 3.614zm30.894-9.745h-6.235v22.326h-2.29V3.012h-6.235V.177h14.76v2.835zm4.937 17.47L219.672.178h1.883v25.16h-2.29V5.388l-10.282 19.95h-2.061V.178h2.29v20.306zm30.131-1.63c0 .97-.14 1.855-.42 2.659-.28.803-.661 1.488-1.145 2.055a5.12 5.12 0 0 1-1.68 1.311 4.65 4.65 0 0 1-2.048.46h-8.576V.178h8.983a2.79 2.79 0 0 1 1.705.567c.51.378.942.868 1.298 1.47.357.603.632 1.288.827 2.056a9.39 9.39 0 0 1 .293 2.321c0 1.252-.225 2.41-.674 3.473-.45 1.063-1.09 1.855-1.922 2.375 1.035.425 1.854 1.21 2.456 2.356.602 1.146.903 2.498.903 4.058zm-2.315-.566c0-.567-.072-1.117-.217-1.648a5.346 5.346 0 0 0-.585-1.4 3.143 3.143 0 0 0-.878-.957 1.917 1.917 0 0 0-1.12-.354h-6.464v8.647h6.286c.424 0 .814-.118 1.17-.355.357-.236.67-.549.942-.939.272-.39.484-.844.637-1.364.152-.52.229-1.063.229-1.63zM227.764 2.94v8.399h5.752c.407 0 .78-.112 1.12-.337.339-.224.631-.525.877-.903a4.85 4.85 0 0 0 .586-1.33 5.877 5.877 0 0 0 .216-1.612 6.56 6.56 0 0 0-.204-1.665 5.051 5.051 0 0 0-.547-1.347 2.68 2.68 0 0 0-.84-.886 1.92 1.92 0 0 0-1.056-.319h-5.904zm22.65 22.574a5.98 5.98 0 0 1-3.474-1.08c-1.044-.721-1.939-1.678-2.685-2.871s-1.323-2.558-1.73-4.093a18.311 18.311 0 0 1-.611-4.714c0-1.677.216-3.283.649-4.819.432-1.536 1.03-2.894 1.794-4.075.763-1.182 1.667-2.12 2.71-2.818C248.11.348 249.243 0 250.464 0a5.79 5.79 0 0 1 3.461 1.116c1.035.744 1.926 1.719 2.673 2.924.746 1.205 1.323 2.57 1.73 4.093.407 1.524.61 3.077.61 4.66a17.69 17.69 0 0 1-.648 4.82c-.433 1.535-1.027 2.888-1.782 4.057-.755 1.17-1.654 2.103-2.697 2.8-1.043.696-2.176 1.045-3.397 1.045zm-6.184-12.758c0 1.276.148 2.51.445 3.704.297 1.193.717 2.25 1.26 3.171.543.922 1.196 1.654 1.96 2.197a4.288 4.288 0 0 0 2.544.816c.967 0 1.832-.29 2.596-.869.763-.579 1.412-1.335 1.947-2.268.534-.933.941-1.99 1.221-3.171.28-1.182.42-2.375.42-3.58 0-1.275-.148-2.51-.445-3.703-.297-1.193-.721-2.244-1.273-3.154-.551-.91-1.204-1.636-1.96-2.18a4.194 4.194 0 0 0-2.506-.814c-.967 0-1.832.283-2.596.85-.763.567-1.412 1.312-1.947 2.233-.534.921-.945 1.973-1.234 3.154a15.184 15.184 0 0 0-.432 3.614zM262.145.177h14.404v25.16h-2.29V3.013h-9.823v22.326h-2.29V.178zm26.136 25.338c-1.272 0-2.43-.36-3.474-1.08-1.043-.721-1.938-1.678-2.685-2.871-.746-1.193-1.323-2.558-1.73-4.093a18.311 18.311 0 0 1-.61-4.714c0-1.677.215-3.283.648-4.819.433-1.536 1.03-2.894 1.794-4.075.764-1.182 1.667-2.12 2.71-2.818C285.978.348 287.11 0 288.332 0a5.79 5.79 0 0 1 3.46 1.116c1.036.744 1.926 1.719 2.673 2.924.746 1.205 1.323 2.57 1.73 4.093a17.94 17.94 0 0 1 .611 4.66 17.69 17.69 0 0 1-.649 4.82c-.432 1.535-1.026 2.888-1.781 4.057-.755 1.17-1.654 2.103-2.698 2.8-1.043.696-2.176 1.045-3.397 1.045zm-6.184-12.758c0 1.276.148 2.51.445 3.704.297 1.193.717 2.25 1.26 3.171.543.922 1.196 1.654 1.96 2.197a4.288 4.288 0 0 0 2.544.816c.967 0 1.833-.29 2.596-.869.764-.579 1.413-1.335 1.947-2.268.534-.933.942-1.99 1.221-3.171.28-1.182.42-2.375.42-3.58 0-1.275-.148-2.51-.445-3.703-.297-1.193-.721-2.244-1.272-3.154-.552-.91-1.205-1.636-1.96-2.18a4.194 4.194 0 0 0-2.507-.814 4.24 4.24 0 0 0-2.595.85c-.764.567-1.413 1.312-1.947 2.233-.535.921-.946 1.973-1.234 3.154a15.184 15.184 0 0 0-.433 3.614zm20.206-1.63h2.29l5.93-10.95h2.621l-6.438 12.155 7.023 13.006h-2.62l-6.261-11.376h-2.545v11.376h-2.29V.178h2.29v10.95zm19.01-10.95h1.934l7.38 25.16h-2.443l-2.137-7.37h-7.584l-2.112 7.37h-2.443l7.405-25.16zm4.225 15.31L322.28 3.862l-3.359 11.623h6.617zm6.413-12.333c.576-1.063 1.26-1.855 2.048-2.374.79-.52 1.769-.78 2.94-.78 1.68 0 2.981.508 3.906 1.524.925 1.016 1.387 2.492 1.387 4.43 0 1.44-.255 2.675-.764 3.703-.509 1.027-1.221 1.695-2.137 2.002 1.12.189 2.019.815 2.697 1.878.679 1.063 1.018 2.445 1.018 4.146 0 1.134-.157 2.18-.47 3.136-.314.957-.751 1.784-1.311 2.481a6.068 6.068 0 0 1-1.985 1.63 5.404 5.404 0 0 1-2.494.585c-1.205 0-2.274-.343-3.207-1.028-.933-.685-1.645-1.653-2.137-2.906l1.832-1.878c.39.898.874 1.607 1.45 2.126.577.52 1.298.78 2.164.78.56 0 1.073-.118 1.54-.354a3.73 3.73 0 0 0 1.208-.975c.34-.413.607-.91.802-1.488a5.907 5.907 0 0 0 .292-1.896c0-1.488-.428-2.664-1.285-3.526-.857-.862-2.048-1.294-3.575-1.294h-1.375v-2.835h1.375c1.272 0 2.273-.354 3.003-1.063.73-.708 1.094-1.7 1.094-2.976 0-1.158-.284-2.02-.853-2.587-.568-.567-1.285-.85-2.15-.85a3.59 3.59 0 0 0-2.061.62c-.611.413-1.086.997-1.425 1.753l-1.527-1.984zM351.75.177h1.934l7.38 25.16h-2.443l-2.138-7.37h-7.584l-2.112 7.37h-2.443L351.75.178zm4.224 15.31l-3.257-11.624-3.36 11.623h6.617zm22.09-15.31v25.16h-2.291V13.892h-9.95v11.447h-2.29V.178h2.29v10.878h9.95V.177h2.29zm6.718 20.306L395.242.177h1.882v25.16h-2.29V5.388l-10.281 19.95h-2.062V.178h2.29v20.306zm26.263 4.855v-9.746h-4.174l-4.148 9.746h-2.672l4.479-10.206a5.061 5.061 0 0 1-1.463-1.116 7.285 7.285 0 0 1-1.158-1.684 9.394 9.394 0 0 1-.751-2.09 10.321 10.321 0 0 1-.267-2.375c0-.945.135-1.878.407-2.8a8.902 8.902 0 0 1 1.132-2.462A6.312 6.312 0 0 1 404.16.85a3.874 3.874 0 0 1 2.202-.673h6.973v25.16h-2.29zm0-22.326h-4.556c-.44 0-.86.13-1.26.39-.398.26-.746.608-1.043 1.045a5.595 5.595 0 0 0-.712 1.542 6.47 6.47 0 0 0-.267 1.878c0 .638.076 1.252.229 1.843.152.59.364 1.11.636 1.56.271.448.598.808.98 1.08.381.272.81.407 1.285.407h4.708V3.012zm6.133 22.326v-3.97h1.883v3.97h-1.883zM443.873.178v25.16h-2.29V13.89h-9.95v11.447h-2.29V.178h2.29v10.878h9.95V.177h2.29zm16.695 22.325v2.835H448.3V.178h12.037v2.834h-9.746v8.15h8.474v2.659h-8.474v8.682h9.976zm10.459 3.012a5.98 5.98 0 0 1-3.474-1.08c-1.043-.721-1.938-1.678-2.685-2.871-.746-1.193-1.323-2.558-1.73-4.093a18.311 18.311 0 0 1-.611-4.714c0-1.677.216-3.283.649-4.819.433-1.536 1.03-2.894 1.794-4.075.764-1.182 1.667-2.12 2.71-2.818C468.724.348 469.856 0 471.078 0a5.79 5.79 0 0 1 3.46 1.116c1.036.744 1.926 1.719 2.673 2.924.746 1.205 1.323 2.57 1.73 4.093a17.94 17.94 0 0 1 .611 4.66 17.69 17.69 0 0 1-.649 4.82c-.432 1.535-1.026 2.888-1.781 4.057-.755 1.17-1.654 2.103-2.698 2.8-1.043.696-2.176 1.045-3.397 1.045zm-6.184-12.758c0 1.276.148 2.51.445 3.704.297 1.193.717 2.25 1.26 3.171.543.922 1.196 1.654 1.96 2.197a4.288 4.288 0 0 0 2.544.816c.967 0 1.833-.29 2.596-.869.764-.579 1.412-1.335 1.947-2.268.534-.933.941-1.99 1.221-3.171.28-1.182.42-2.375.42-3.58 0-1.275-.148-2.51-.445-3.703-.297-1.193-.721-2.244-1.272-3.154-.552-.91-1.205-1.636-1.96-2.18a4.194 4.194 0 0 0-2.507-.814 4.24 4.24 0 0 0-2.595.85c-.764.567-1.413 1.312-1.947 2.233-.535.921-.946 1.973-1.235 3.154a15.184 15.184 0 0 0-.432 3.614zM482.759.177h12.698v2.835H485.05v7.513h6.031c.73 0 1.413.16 2.049.478a4.99 4.99 0 0 1 1.68 1.4c.483.614.865 1.388 1.145 2.321.28.933.42 2.002.42 3.207s-.14 2.274-.42 3.207c-.28.934-.658 1.707-1.133 2.322a4.81 4.81 0 0 1-1.68 1.4 4.587 4.587 0 0 1-2.06.478h-8.322V.178zm8.321 22.397c.967 0 1.705-.42 2.214-1.258.51-.84.764-1.967.764-3.385 0-1.417-.25-2.545-.751-3.384-.5-.839-1.243-1.258-2.227-1.258h-6.031v9.285h6.031zM499.91.177l5.498 10.49 5.497-10.49h2.52l-6.796 12.758 6.592 12.403h-2.52l-5.293-10.135-5.293 10.135h-2.545l6.59-12.403L497.367.177h2.545zm23.108 25.338c-1.272 0-2.43-.36-3.474-1.08-1.043-.721-1.938-1.678-2.684-2.871-.747-1.193-1.324-2.558-1.73-4.093a18.311 18.311 0 0 1-.612-4.714c0-1.677.217-3.283.65-4.819.432-1.536 1.03-2.894 1.793-4.075.764-1.182 1.667-2.12 2.71-2.818C520.716.348 521.849 0 523.07 0a5.79 5.79 0 0 1 3.461 1.116c1.035.744 1.926 1.719 2.672 2.924.747 1.205 1.324 2.57 1.73 4.093a17.94 17.94 0 0 1 .611 4.66 17.69 17.69 0 0 1-.648 4.82c-.433 1.535-1.027 2.888-1.782 4.057-.755 1.17-1.654 2.103-2.697 2.8-1.044.696-2.176 1.045-3.398 1.045zm-6.184-12.758c0 1.276.149 2.51.446 3.704.296 1.193.716 2.25 1.26 3.171.542.922 1.195 1.654 1.959 2.197a4.288 4.288 0 0 0 2.545.816c.967 0 1.832-.29 2.595-.869.764-.579 1.413-1.335 1.947-2.268.535-.933.942-1.99 1.222-3.171.28-1.182.42-2.375.42-3.58 0-1.275-.149-2.51-.446-3.703-.297-1.193-.72-2.244-1.272-3.154-.552-.91-1.205-1.636-1.96-2.18a4.194 4.194 0 0 0-2.506-.814c-.967 0-1.833.283-2.596.85-.764.567-1.412 1.312-1.947 2.233-.534.921-.946 1.973-1.234 3.154a15.184 15.184 0 0 0-.433 3.614zm16.16 9.746h.23a2.772 2.772 0 0 0 1.017-.266c.322-.154.62-.431.89-.833.272-.401.527-.963.764-1.683.238-.72.458-1.648.662-2.782.203-1.134.386-2.51.547-4.128.161-1.619.31-3.538.445-5.759l.407-6.875h9.57v22.326h2.798v9.426h-2.035v-6.591h-13.26v6.591h-2.035v-9.426zm12.24 0V3.013h-5.14l-.254 4.18c-.255 4.23-.615 7.567-1.082 10.012-.466 2.445-1.09 4.211-1.87 5.298h8.347zm10.027-2.02L565.721.177h1.883v25.16h-2.29V5.388l-10.282 19.95h-2.06V.178h2.29v20.306zm24.075 5.032a5.98 5.98 0 0 1-3.474-1.08c-1.043-.721-1.938-1.678-2.685-2.871-.746-1.193-1.323-2.558-1.73-4.093a18.311 18.311 0 0 1-.611-4.714c0-1.677.216-3.283.649-4.819.433-1.536 1.03-2.894 1.794-4.075.764-1.182 1.667-2.12 2.71-2.818C577.033.348 578.165 0 579.387 0a5.79 5.79 0 0 1 3.46 1.116c1.036.744 1.926 1.719 2.673 2.924.746 1.205 1.323 2.57 1.73 4.093.407 1.524.611 3.077.611 4.66a17.69 17.69 0 0 1-.649 4.82c-.433 1.535-1.026 2.888-1.781 4.057-.755 1.17-1.654 2.103-2.698 2.8-1.043.696-2.176 1.045-3.397 1.045zm-6.184-12.758c0 1.276.148 2.51.445 3.704.297 1.193.717 2.25 1.26 3.171.543.922 1.196 1.654 1.96 2.197a4.288 4.288 0 0 0 2.544.816c.967 0 1.833-.29 2.596-.869.763-.579 1.412-1.335 1.947-2.268.534-.933.941-1.99 1.221-3.171.28-1.182.42-2.375.42-3.58 0-1.275-.148-2.51-.445-3.703-.297-1.193-.721-2.244-1.273-3.154-.55-.91-1.204-1.636-1.96-2.18a4.194 4.194 0 0 0-2.506-.814c-.967 0-1.832.283-2.596.85-.763.567-1.412 1.312-1.946 2.233-.535.921-.946 1.973-1.235 3.154a15.184 15.184 0 0 0-.432 3.614zM597.506.177h14.404v25.16h-2.29V3.013h-9.824v22.326h-2.29V.178zm18.832 25.16V.178h7.533c.797 0 1.53.23 2.201.691.67.46 1.247 1.075 1.73 1.843.484.768.862 1.63 1.133 2.587.271.957.407 1.931.407 2.923 0 1.04-.127 2.044-.382 3.013a9.505 9.505 0 0 1-1.081 2.587c-.467.756-1.027 1.358-1.68 1.807a3.756 3.756 0 0 1-2.176.673h-5.395v9.037h-2.29zm2.29-11.87h5.268c.475 0 .904-.137 1.285-.408.382-.272.709-.65.98-1.134a6.546 6.546 0 0 0 .636-1.684 8.652 8.652 0 0 0 .23-2.02c0-.732-.09-1.417-.268-2.055a6.3 6.3 0 0 0-.712-1.665c-.297-.473-.645-.84-1.044-1.099a2.27 2.27 0 0 0-1.26-.39h-5.115v10.454zm20.919 12.048c-1.272 0-2.43-.36-3.474-1.08-1.043-.721-1.938-1.678-2.685-2.871-.746-1.193-1.323-2.558-1.73-4.093a18.311 18.311 0 0 1-.61-4.714c0-1.677.216-3.283.648-4.819.433-1.536 1.03-2.894 1.794-4.075.764-1.182 1.667-2.12 2.71-2.818C637.245.348 638.377 0 639.599 0a5.79 5.79 0 0 1 3.46 1.116c1.036.744 1.927 1.719 2.673 2.924.747 1.205 1.323 2.57 1.73 4.093a17.94 17.94 0 0 1 .611 4.66 17.69 17.69 0 0 1-.649 4.82c-.432 1.535-1.026 2.888-1.781 4.057-.755 1.17-1.654 2.103-2.698 2.8-1.043.696-2.175 1.045-3.397 1.045zm-6.184-12.758c0 1.276.148 2.51.445 3.704.297 1.193.717 2.25 1.26 3.171.543.922 1.196 1.654 1.96 2.197a4.288 4.288 0 0 0 2.544.816c.968 0 1.833-.29 2.596-.869.764-.579 1.413-1.335 1.947-2.268.534-.933.942-1.99 1.222-3.171.28-1.182.42-2.375.42-3.58 0-1.275-.149-2.51-.446-3.703-.297-1.193-.72-2.244-1.272-3.154-.552-.91-1.205-1.636-1.96-2.18a4.194 4.194 0 0 0-2.507-.814 4.24 4.24 0 0 0-2.595.85c-.764.567-1.413 1.312-1.947 2.233-.535.921-.946 1.973-1.234 3.154a15.184 15.184 0 0 0-.433 3.614zm20.206-1.63h2.29l5.93-10.95h2.621l-6.438 12.155 7.024 13.006h-2.622l-6.26-11.376h-2.545v11.376h-2.29V.178h2.29v10.95zm20.868 14.388c-1.272 0-2.43-.36-3.474-1.08-1.043-.721-1.938-1.678-2.685-2.871-.746-1.193-1.323-2.558-1.73-4.093a18.311 18.311 0 0 1-.61-4.714c0-1.677.215-3.283.648-4.819.433-1.536 1.03-2.894 1.794-4.075.764-1.182 1.667-2.12 2.71-2.818C672.134.348 673.266 0 674.488 0a5.79 5.79 0 0 1 3.46 1.116c1.036.744 1.926 1.719 2.673 2.924.746 1.205 1.323 2.57 1.73 4.093a17.94 17.94 0 0 1 .611 4.66 17.69 17.69 0 0 1-.649 4.82c-.432 1.535-1.026 2.888-1.781 4.057-.755 1.17-1.654 2.103-2.698 2.8-1.043.696-2.176 1.045-3.397 1.045zm-6.184-12.758c0 1.276.148 2.51.445 3.704.297 1.193.717 2.25 1.26 3.171.543.922 1.196 1.654 1.96 2.197a4.288 4.288 0 0 0 2.544.816c.967 0 1.833-.29 2.596-.869.764-.579 1.413-1.335 1.947-2.268.534-.933.942-1.99 1.221-3.171.28-1.182.42-2.375.42-3.58 0-1.275-.148-2.51-.445-3.703-.297-1.193-.721-2.244-1.272-3.154-.552-.91-1.205-1.636-1.96-2.18a4.194 4.194 0 0 0-2.507-.814 4.24 4.24 0 0 0-2.595.85c-.764.567-1.413 1.312-1.947 2.233-.535.921-.946 1.973-1.234 3.154a15.184 15.184 0 0 0-.433 3.614zM700.7.177v25.16h-2.29V13.892h-9.95v11.447h-2.291V.178h2.29v10.878h9.95V.177h2.29zm3.206 12.403c0-1.512.191-3.018.573-4.518.382-1.5.942-2.847 1.68-4.04s1.641-2.156 2.71-2.888c1.069-.732 2.282-1.099 3.639-1.099 1.612 0 2.994.508 4.148 1.524 1.154 1.016 2.01 2.34 2.57 3.97l-1.806 1.63c-.272-.804-.599-1.477-.98-2.02-.382-.544-.798-.981-1.247-1.312a4.525 4.525 0 0 0-1.387-.709 4.88 4.88 0 0 0-1.4-.212c-1 0-1.887.29-2.66.868-.771.579-1.42 1.335-1.946 2.268-.526.933-.92 1.985-1.183 3.154a16.025 16.025 0 0 0-.395 3.526c0 1.323.157 2.581.471 3.774.314 1.193.75 2.25 1.31 3.172.56.921 1.222 1.654 1.986 2.197.763.543 1.594.815 2.494.815a4.65 4.65 0 0 0 2.9-1.045 6.917 6.917 0 0 0 1.286-1.383c.398-.555.725-1.222.98-2.002l1.908 1.453a8.485 8.485 0 0 1-1.209 2.499 8.481 8.481 0 0 1-1.756 1.825 7.68 7.68 0 0 1-2.074 1.134c-.73.26-1.442.39-2.137.39-1.239 0-2.375-.379-3.41-1.135-1.035-.756-1.93-1.742-2.685-2.959-.755-1.216-1.34-2.598-1.756-4.146a18.158 18.158 0 0 1-.624-4.73zm20.665 13.006c-.323 0-.68-.042-1.07-.124a3.156 3.156 0 0 1-.992-.372v-2.73c.289.165.607.284.955.354.347.071.665.107.954.107.577 0 1.09-.248 1.54-.744.45-.497.894-1.477 1.336-2.942L720.728.177h2.417l5.217 15.486L733.3.177h2.418l-6.362 19.136a29.967 29.967 0 0 1-1.094 2.889c-.357.791-.721 1.44-1.095 1.949-.373.508-.772.874-1.196 1.098-.424.225-.89.337-1.4.337zm18.322-18.392c-.203 3.26-.458 6.048-.763 8.363-.305 2.315-.704 4.217-1.196 5.705-.492 1.489-1.082 2.581-1.769 3.278-.687.697-1.514 1.046-2.48 1.046l-.408-3.083a2.772 2.772 0 0 0 1.018-.266c.322-.154.62-.431.89-.833.272-.401.526-.963.764-1.683.237-.72.458-1.648.662-2.782.203-1.134.386-2.51.547-4.128.161-1.619.31-3.538.445-5.759l.407-6.875h9.569v25.16h-2.29V3.013h-5.141l-.255 4.182zm12.14-7.017h2.29v9.285h3.868c.848 0 1.641.171 2.38.514a5.418 5.418 0 0 1 1.92 1.506c.544.661.972 1.488 1.286 2.48.314.993.47 2.138.47 3.438 0 1.3-.16 2.445-.483 3.437-.322.992-.759 1.82-1.31 2.48a5.536 5.536 0 0 1-1.934 1.507 5.466 5.466 0 0 1-2.329.514h-6.159V.178zm2.29 22.397h3.868c1.255 0 2.193-.467 2.812-1.4.62-.933.929-2.191.929-3.774 0-1.583-.322-2.841-.967-3.774-.645-.933-1.57-1.4-2.774-1.4h-3.868v10.348zm25.83-19.562h-6.235v22.326h-2.29V3.012h-6.235V.177h14.76v2.835zm4.937 17.47L798.55.178h1.883v25.16h-2.29V5.388l-10.282 19.95H785.8V.178h2.29v20.306zm16.77 4.856V.178h7.533c.798 0 1.532.23 2.202.69.67.46 1.247 1.075 1.73 1.843.484.768.861 1.63 1.133 2.587.271.957.407 1.931.407 2.923 0 1.04-.127 2.044-.382 3.013a9.505 9.505 0 0 1-1.081 2.587c-.467.756-1.027 1.358-1.68 1.807a3.756 3.756 0 0 1-2.176.673h-5.395v9.037h-2.29zm2.291-11.872h5.268c.475 0 .903-.136 1.285-.407.382-.272.708-.65.98-1.134a6.546 6.546 0 0 0 .636-1.684 8.652 8.652 0 0 0 .23-2.02c0-.732-.09-1.417-.268-2.055a6.3 6.3 0 0 0-.713-1.665c-.297-.473-.644-.84-1.043-1.099a2.27 2.27 0 0 0-1.26-.39h-5.115v10.454zm20.919 12.049a5.98 5.98 0 0 1-3.474-1.08c-1.043-.721-1.938-1.678-2.685-2.871-.746-1.193-1.323-2.558-1.73-4.093a18.311 18.311 0 0 1-.611-4.714c0-1.677.216-3.283.649-4.819.432-1.536 1.03-2.894 1.794-4.075.763-1.182 1.667-2.12 2.71-2.818C825.767.348 826.9 0 828.121 0a5.79 5.79 0 0 1 3.46 1.116c1.036.744 1.926 1.719 2.673 2.924.746 1.205 1.323 2.57 1.73 4.093.407 1.524.611 3.077.611 4.66a17.69 17.69 0 0 1-.649 4.82c-.433 1.535-1.026 2.888-1.781 4.057-.755 1.17-1.654 2.103-2.698 2.8-1.043.696-2.176 1.045-3.397 1.045zm-6.184-12.758c0 1.276.148 2.51.445 3.704.297 1.193.717 2.25 1.26 3.171.543.922 1.196 1.654 1.96 2.197a4.288 4.288 0 0 0 2.544.816c.967 0 1.832-.29 2.596-.869.763-.579 1.412-1.335 1.947-2.268.534-.933.941-1.99 1.221-3.171.28-1.182.42-2.375.42-3.58 0-1.275-.148-2.51-.445-3.703-.297-1.193-.721-2.244-1.273-3.154-.551-.91-1.204-1.636-1.96-2.18a4.194 4.194 0 0 0-2.506-.814c-.967 0-1.832.283-2.596.85-.763.567-1.412 1.312-1.946 2.233-.535.921-.946 1.973-1.235 3.154a15.184 15.184 0 0 0-.432 3.614zm31.276 6.096c0 .968-.14 1.854-.42 2.658-.28.803-.662 1.488-1.145 2.055a5.12 5.12 0 0 1-1.68 1.311 4.65 4.65 0 0 1-2.048.46h-8.576V.178h8.983a2.79 2.79 0 0 1 1.705.567c.509.378.942.868 1.298 1.47.356.603.632 1.288.827 2.056a9.39 9.39 0 0 1 .293 2.321c0 1.252-.225 2.41-.675 3.473-.45 1.063-1.09 1.855-1.921 2.375 1.035.425 1.853 1.21 2.456 2.356.602 1.146.903 2.498.903 4.058zm-2.316-.567c0-.567-.072-1.117-.216-1.648a5.346 5.346 0 0 0-.585-1.4 3.143 3.143 0 0 0-.878-.957 1.917 1.917 0 0 0-1.12-.354h-6.464v8.647h6.286c.424 0 .814-.118 1.17-.355.357-.236.67-.549.942-.939.271-.39.483-.844.636-1.364.153-.52.23-1.063.23-1.63zM841.583 2.94v8.399h5.751c.407 0 .78-.112 1.12-.337.34-.224.632-.525.878-.903a4.85 4.85 0 0 0 .585-1.33 5.877 5.877 0 0 0 .217-1.612 6.56 6.56 0 0 0-.204-1.665 5.051 5.051 0 0 0-.547-1.347 2.68 2.68 0 0 0-.84-.886 1.92 1.92 0 0 0-1.056-.319h-5.904zM862.374.177h1.934l7.38 25.16h-2.443l-2.137-7.37h-7.584l-2.112 7.37h-2.443l7.405-25.16zm4.225 15.31L863.34 3.862l-3.359 11.623h6.617zm20.537-12.475H880.9v22.326h-2.29V3.012h-6.235V.177h14.76v2.835zm2.646-2.835h2.29v9.285h3.869c.848 0 1.641.171 2.38.514a5.418 5.418 0 0 1 1.92 1.506c.544.661.972 1.488 1.286 2.48.314.993.47 2.138.47 3.438 0 1.3-.16 2.445-.483 3.437-.322.992-.759 1.82-1.31 2.48a5.536 5.536 0 0 1-1.934 1.507 5.466 5.466 0 0 1-2.329.514h-6.159V.178zm2.29 22.397h3.869c1.255 0 2.193-.467 2.812-1.4.62-.933.929-2.191.929-3.774 0-1.583-.322-2.841-.967-3.774-.645-.933-1.57-1.4-2.774-1.4h-3.868v10.348zm11.63-9.994c0-1.512.192-3.018.573-4.518.382-1.5.942-2.847 1.68-4.04s1.641-2.156 2.71-2.888c1.07-.732 2.282-1.099 3.64-1.099 1.611 0 2.994.508 4.147 1.524 1.154 1.016 2.01 2.34 2.57 3.97l-1.806 1.63c-.272-.804-.598-1.477-.98-2.02-.382-.544-.797-.981-1.247-1.312a4.525 4.525 0 0 0-1.387-.709 4.88 4.88 0 0 0-1.4-.212c-1 0-1.887.29-2.659.868-.772.579-1.42 1.335-1.947 2.268-.526.933-.92 1.985-1.183 3.154a16.025 16.025 0 0 0-.394 3.526c0 1.323.157 2.581.47 3.774.314 1.193.751 2.25 1.311 3.172.56.921 1.221 1.654 1.985 2.197.763.543 1.595.815 2.494.815a4.65 4.65 0 0 0 2.901-1.045 6.917 6.917 0 0 0 1.285-1.383c.399-.555.725-1.222.98-2.002l1.909 1.453c-.289.945-.692 1.778-1.21 2.499a8.481 8.481 0 0 1-1.755 1.825 7.68 7.68 0 0 1-2.074 1.134c-.73.26-1.442.39-2.138.39-1.238 0-2.375-.379-3.41-1.135-1.035-.756-1.93-1.742-2.685-2.959-.755-1.216-1.34-2.598-1.756-4.146a18.158 18.158 0 0 1-.623-4.73zm28.045 12.758v-9.746h-4.174l-4.148 9.746h-2.672l4.48-10.206a5.061 5.061 0 0 1-1.464-1.116 7.285 7.285 0 0 1-1.158-1.684 9.394 9.394 0 0 1-.75-2.09 10.32 10.32 0 0 1-.268-2.375c0-.945.136-1.878.407-2.8a8.902 8.902 0 0 1 1.133-2.462 6.312 6.312 0 0 1 1.73-1.755 3.874 3.874 0 0 1 2.202-.673h6.972v25.16h-2.29zm0-22.326h-4.555c-.441 0-.861.13-1.26.39s-.746.608-1.043 1.045a5.596 5.596 0 0 0-.713 1.542 6.47 6.47 0 0 0-.267 1.878c0 .638.076 1.252.229 1.843.153.59.365 1.11.636 1.56.272.448.598.808.98 1.08s.81.407 1.285.407h4.708V3.012zm11.935 9.568c0-1.512.191-3.018.573-4.518.382-1.5.942-2.847 1.68-4.04s1.641-2.156 2.71-2.888c1.069-.732 2.282-1.099 3.639-1.099 1.612 0 2.994.508 4.148 1.524 1.154 1.016 2.01 2.34 2.57 3.97l-1.806 1.63c-.272-.804-.598-1.477-.98-2.02-.382-.544-.798-.981-1.247-1.312a4.525 4.525 0 0 0-1.387-.709 4.88 4.88 0 0 0-1.4-.212c-1 0-1.887.29-2.66.868-.771.579-1.42 1.335-1.946 2.268-.526.933-.92 1.985-1.183 3.154a16.025 16.025 0 0 0-.395 3.526c0 1.323.157 2.581.471 3.774.314 1.193.75 2.25 1.31 3.172.56.921 1.222 1.654 1.986 2.197.763.543 1.594.815 2.494.815a4.65 4.65 0 0 0 2.9-1.045 6.917 6.917 0 0 0 1.286-1.383c.399-.555.725-1.222.98-2.002l1.908 1.453a8.485 8.485 0 0 1-1.209 2.499 8.481 8.481 0 0 1-1.756 1.825 7.68 7.68 0 0 1-2.074 1.134c-.73.26-1.442.39-2.137.39-1.239 0-2.375-.379-3.41-1.135-1.035-.756-1.93-1.742-2.685-2.959-.755-1.216-1.34-2.598-1.756-4.146a18.158 18.158 0 0 1-.624-4.73zm25.856 12.935c-1.272 0-2.43-.36-3.474-1.08-1.043-.721-1.938-1.678-2.684-2.871-.747-1.193-1.324-2.558-1.73-4.093a18.312 18.312 0 0 1-.612-4.714c0-1.677.217-3.283.65-4.819.432-1.536 1.03-2.894 1.793-4.075.764-1.182 1.667-2.12 2.71-2.818C967.236.348 968.368 0 969.59 0a5.79 5.79 0 0 1 3.461 1.116c1.035.744 1.926 1.719 2.672 2.924.747 1.205 1.323 2.57 1.73 4.093a17.94 17.94 0 0 1 .611 4.66 17.69 17.69 0 0 1-.649 4.82c-.432 1.535-1.026 2.888-1.781 4.057-.755 1.17-1.654 2.103-2.698 2.8-1.043.696-2.175 1.045-3.397 1.045zm-6.184-12.758c0 1.276.149 2.51.445 3.704.297 1.193.717 2.25 1.26 3.171.543.922 1.196 1.654 1.96 2.197a4.288 4.288 0 0 0 2.545.816c.967 0 1.832-.29 2.595-.869.764-.579 1.413-1.335 1.947-2.268.535-.933.942-1.99 1.222-3.171.28-1.182.42-2.375.42-3.58 0-1.275-.149-2.51-.446-3.703-.297-1.193-.72-2.244-1.272-3.154-.552-.91-1.205-1.636-1.96-2.18a4.194 4.194 0 0 0-2.506-.814c-.967 0-1.833.283-2.596.85-.764.567-1.413 1.312-1.947 2.233s-.946 1.973-1.234 3.154a15.184 15.184 0 0 0-.433 3.614zm23.133-.177c0-1.512.19-3.018.572-4.518.382-1.5.942-2.847 1.68-4.04s1.641-2.156 2.71-2.888c1.07-.732 2.282-1.099 3.64-1.099 1.611 0 2.994.508 4.148 1.524 1.153 1.016 2.01 2.34 2.57 3.97L1000 7.158c-.271-.804-.598-1.477-.98-2.02a5.577 5.577 0 0 0-1.247-1.312 4.525 4.525 0 0 0-1.387-.709 4.88 4.88 0 0 0-1.4-.212c-1 0-1.887.29-2.659.868-.772.579-1.42 1.335-1.947 2.268-.525.933-.92 1.985-1.183 3.154a16.025 16.025 0 0 0-.394 3.526c0 1.323.157 2.581.47 3.774.314 1.193.751 2.25 1.311 3.172.56.921 1.222 1.654 1.985 2.197.763.543 1.595.815 2.494.815a4.65 4.65 0 0 0 2.901-1.045 6.917 6.917 0 0 0 1.285-1.383c.399-.555.726-1.222.98-2.002l1.909 1.453c-.289.945-.692 1.778-1.21 2.499a8.48 8.48 0 0 1-1.755 1.825 7.68 7.68 0 0 1-2.074 1.134c-.73.26-1.442.39-2.138.39-1.238 0-2.375-.379-3.41-1.135-1.035-.756-1.93-1.742-2.685-2.959-.755-1.216-1.34-2.598-1.756-4.146a18.158 18.158 0 0 1-.623-4.73zM1005.039.177h14.404v25.16h-2.29V3.013h-9.824v22.326h-2.29V.178zm31.098 22.326v2.835h-12.266V.178h12.037v2.834h-9.747v8.15h8.474v2.659h-8.474v8.682h9.976zm17.203 2.835h-14.022V.178h2.29v22.325h8.678V.177h2.29v22.326h2.8v9.426h-2.036v-6.591zm6.973-4.855l10.46-20.306h1.883v25.16h-2.29V5.388l-10.282 19.95h-2.061V.178h2.29v20.306zM1082.53.177h1.934l7.38 25.16h-2.443l-2.138-7.37h-7.584l-2.112 7.37h-2.443l7.406-25.16zm4.224 15.31l-3.257-11.624-3.36 11.623h6.617zm12.139-8.293c-.204 3.26-.458 6.048-.763 8.363-.306 2.315-.705 4.217-1.197 5.705-.492 1.489-1.081 2.581-1.768 3.278-.687.697-1.514 1.046-2.481 1.046l-.408-3.083a2.772 2.772 0 0 0 1.018-.266c.323-.154.62-.431.891-.833.271-.401.526-.963.763-1.683.238-.72.459-1.648.662-2.782.204-1.134.386-2.51.547-4.128.161-1.619.31-3.538.446-5.759l.407-6.875h9.568v25.16h-2.29V3.013h-5.14l-.255 4.182zm14.43 13.289L1123.781.177h1.883v25.16h-2.29V5.388l-10.282 19.95h-2.061V.178h2.29v20.306zm15.548-7.903c0-1.512.191-3.018.573-4.518.382-1.5.942-2.847 1.68-4.04s1.641-2.156 2.71-2.888c1.069-.732 2.282-1.099 3.639-1.099 1.612 0 2.994.508 4.148 1.524 1.154 1.016 2.01 2.34 2.57 3.97l-1.806 1.63c-.272-.804-.599-1.477-.98-2.02-.382-.544-.798-.981-1.247-1.312a4.525 4.525 0 0 0-1.387-.709 4.88 4.88 0 0 0-1.4-.212c-1 0-1.887.29-2.66.868-.771.579-1.42 1.335-1.946 2.268-.526.933-.92 1.985-1.183 3.154a16.025 16.025 0 0 0-.395 3.526c0 1.323.157 2.581.471 3.774.314 1.193.75 2.25 1.31 3.172.56.921 1.222 1.654 1.986 2.197.763.543 1.594.815 2.494.815a4.65 4.65 0 0 0 2.9-1.045 6.917 6.917 0 0 0 1.286-1.383c.398-.555.725-1.222.98-2.002l1.908 1.453a8.485 8.485 0 0 1-1.209 2.499 8.481 8.481 0 0 1-1.756 1.825 7.68 7.68 0 0 1-2.074 1.134c-.73.26-1.442.39-2.137.39-1.239 0-2.375-.379-3.41-1.135-1.035-.756-1.93-1.742-2.685-2.959-.755-1.216-1.34-2.598-1.756-4.146a18.158 18.158 0 0 1-.624-4.73zm31.531-9.568h-6.235v22.326h-2.29V3.012h-6.235V.177h14.76v2.835zm9.95 22.503c-1.272 0-2.43-.36-3.473-1.08-1.044-.721-1.939-1.678-2.685-2.871-.747-1.193-1.323-2.558-1.73-4.093a18.311 18.311 0 0 1-.611-4.714c0-1.677.216-3.283.649-4.819.432-1.536 1.03-2.894 1.794-4.075.763-1.182 1.667-2.12 2.71-2.818 1.043-.697 2.176-1.045 3.397-1.045a5.79 5.79 0 0 1 3.461 1.116c1.035.744 1.926 1.719 2.672 2.924.747 1.205 1.324 2.57 1.731 4.093.407 1.524.61 3.077.61 4.66a17.69 17.69 0 0 1-.648 4.82c-.433 1.535-1.027 2.888-1.782 4.057-.755 1.17-1.654 2.103-2.697 2.8-1.044.696-2.176 1.045-3.398 1.045zm-6.184-12.758c0 1.276.149 2.51.446 3.704.297 1.193.717 2.25 1.26 3.171.542.922 1.196 1.654 1.96 2.197a4.288 4.288 0 0 0 2.544.816c.967 0 1.832-.29 2.596-.869.763-.579 1.412-1.335 1.946-2.268.535-.933.942-1.99 1.222-3.171.28-1.182.42-2.375.42-3.58 0-1.275-.149-2.51-.445-3.703-.297-1.193-.721-2.244-1.273-3.154-.551-.91-1.204-1.636-1.96-2.18a4.194 4.194 0 0 0-2.506-.814c-.967 0-1.832.283-2.596.85-.763.567-1.412 1.312-1.947 2.233-.534.921-.945 1.973-1.234 3.154a15.184 15.184 0 0 0-.433 3.614zm33.542 12.58V5.884l-6.006 14.919h-1.298l-6.031-14.92v19.456h-2.29V.178h2.417l6.54 16.336 6.566-16.337H1200v25.16h-2.29z" fill="#FFF" fill-rule="evenodd"/></svg>