<svg width="732" height="20" viewBox="0 0 732 20" xmlns="http://www.w3.org/2000/svg"><title>49814FFE-E254-4586-9109-52C99808A27E</title><path d="M1.397 12.495L7.777.108h1.15v15.348H7.528V3.286l-6.272 12.17H0V.108h1.397v12.387zm19.762 2.961V3.588l-3.664 9.101h-.792l-3.679-9.1v11.867h-1.397V.108h1.475l3.99 9.965L21.096.108h1.459v15.348h-1.397zm11.58-1.73v1.73h-7.482V.108H32.6v1.73h-5.946v4.971h5.17v1.622h-5.17v5.296h6.085zm10.184 1.838c-.683 0-1.31-.17-1.879-.508-.569-.339-1.066-.814-1.49-1.427-.424-.612-.766-1.347-1.024-2.205-.26-.857-.414-1.805-.466-2.842h-1.987v6.874H34.68V.108h1.397v6.745h2.002c.062-1.052.228-2 .497-2.843.27-.843.621-1.56 1.056-2.151.434-.59.934-1.048 1.498-1.373A3.599 3.599 0 0 1 42.954 0c.745 0 1.425.195 2.041.584.616.389 1.144.933 1.584 1.632.44.699.78 1.524 1.024 2.475.243.951.365 1.989.365 3.113 0 1.181-.127 2.251-.38 3.21-.254.958-.606 1.772-1.056 2.442-.45.67-.983 1.19-1.599 1.557a3.852 3.852 0 0 1-2.01.551zM39.46 7.782c0 .951.083 1.798.248 2.54.166.742.401 1.373.707 1.892.305.518.67.915 1.094 1.188.424.274.9.411 1.428.411.56 0 1.064-.144 1.514-.432.45-.288.83-.7 1.14-1.232.311-.534.55-1.168.715-1.903a11.24 11.24 0 0 0 .248-2.464c0-.951-.088-1.798-.264-2.54-.176-.742-.424-1.369-.745-1.88-.32-.512-.7-.905-1.14-1.179a2.72 2.72 0 0 0-1.468-.41c-.538 0-1.022.144-1.451.432-.43.288-.794.692-1.095 1.21-.3.52-.53 1.15-.69 1.892-.16.742-.241 1.567-.241 2.475zm18.427-5.945h-3.804v13.619h-1.397V1.837h-3.803V.108h9.004v1.73zm.869 5.837c0-.922.116-1.841.35-2.756a8.755 8.755 0 0 1 1.024-2.464A5.793 5.793 0 0 1 61.784.692a3.835 3.835 0 0 1 2.22-.67c.983 0 1.826.31 2.53.93.704.619 1.227 1.426 1.568 2.42L67 4.367a4.85 4.85 0 0 0-.598-1.233 3.418 3.418 0 0 0-.76-.8 2.76 2.76 0 0 0-.846-.432 2.976 2.976 0 0 0-.854-.13c-.61 0-1.152.177-1.622.53a4.39 4.39 0 0 0-1.188 1.384 7.04 7.04 0 0 0-.722 1.924c-.16.713-.24 1.43-.24 2.15 0 .807.095 1.575.287 2.303.191.727.458 1.372.8 1.934.34.562.744 1.01 1.21 1.34a2.57 2.57 0 0 0 1.521.498 2.837 2.837 0 0 0 1.77-.638c.28-.223.54-.504.784-.843.243-.339.442-.746.598-1.221l1.164.886a5.184 5.184 0 0 1-.738 1.524 5.16 5.16 0 0 1-1.07 1.113c-.4.303-.82.533-1.266.692-.445.158-.88.238-1.304.238-.755 0-1.449-.23-2.08-.692-.631-.461-1.177-1.063-1.638-1.805a9.382 9.382 0 0 1-1.07-2.53 11.076 11.076 0 0 1-.381-2.885zm17.107 7.782V9.511h-2.546l-2.53 5.945h-1.63L71.89 9.23a3.087 3.087 0 0 1-.893-.68 4.444 4.444 0 0 1-.706-1.027 5.73 5.73 0 0 1-.458-1.276A6.296 6.296 0 0 1 69.67 4.8c0-.577.083-1.146.248-1.708a5.43 5.43 0 0 1 .691-1.502A3.85 3.85 0 0 1 71.665.52a2.36 2.36 0 0 1 1.343-.41h4.253v15.347h-1.397zm0-13.619h-2.779c-.269 0-.525.08-.768.238a2.27 2.27 0 0 0-.637.638 3.42 3.42 0 0 0-.434.94 3.9 3.9 0 0 0-.163 1.146c0 .389.046.764.14 1.124.092.36.222.677.387.951.166.274.365.494.598.66.233.165.494.248.784.248h2.872V1.837zM83.89.108h8.786v15.348h-1.397V1.837h-5.992v13.619H83.89V.108zm11.487 15.348V.108h4.595c.486 0 .934.14 1.343.422.409.28.76.655 1.055 1.124a6 6 0 0 1 .691 1.578c.166.583.249 1.178.249 1.783a7.2 7.2 0 0 1-.233 1.838 5.783 5.783 0 0 1-.66 1.578 3.616 3.616 0 0 1-1.025 1.102c-.398.274-.84.41-1.327.41h-3.29v5.513h-1.398zm1.397-7.242h3.214c.29 0 .55-.082.783-.248.233-.166.433-.397.598-.692a3.97 3.97 0 0 0 .388-1.027c.093-.389.14-.8.14-1.232a4.63 4.63 0 0 0-.163-1.254 3.843 3.843 0 0 0-.435-1.016 2.14 2.14 0 0 0-.636-.67 1.385 1.385 0 0 0-.769-.238h-3.12v6.377zm12.76 7.35a3.64 3.64 0 0 1-2.118-.66c-.637-.439-1.183-1.022-1.638-1.75a9.047 9.047 0 0 1-1.056-2.497 11.17 11.17 0 0 1-.372-2.875c0-1.023.132-2.003.396-2.94a9.056 9.056 0 0 1 1.094-2.486c.466-.72 1.017-1.293 1.653-1.718A3.658 3.658 0 0 1 109.566 0c.776 0 1.48.227 2.11.68.632.455 1.175 1.05 1.63 1.784a9.237 9.237 0 0 1 1.056 2.497c.249.93.373 1.877.373 2.843a10.79 10.79 0 0 1-.396 2.94c-.264.936-.626 1.761-1.087 2.475-.46.713-1.009 1.282-1.645 1.707a3.658 3.658 0 0 1-2.072.638zm-3.772-7.782c0 .778.09 1.531.272 2.259.181.728.437 1.373.768 1.935.332.562.73 1.009 1.196 1.34.465.331.983.497 1.552.497.59 0 1.118-.176 1.583-.53a4.532 4.532 0 0 0 1.188-1.383c.326-.57.574-1.214.745-1.935.17-.72.256-1.448.256-2.183a9.32 9.32 0 0 0-.271-2.259 6.905 6.905 0 0 0-.777-1.924c-.336-.555-.734-.998-1.195-1.33a2.558 2.558 0 0 0-1.529-.496 2.59 2.59 0 0 0-1.583.518c-.466.346-.862.8-1.188 1.362a7.232 7.232 0 0 0-.753 1.924 9.262 9.262 0 0 0-.264 2.205zm18.846-5.945h-3.803v13.619h-1.397V1.837h-3.804V.108h9.004v1.73zm3.012 10.658L134 .108h1.148v15.348h-1.397V3.286l-6.271 12.17h-1.258V.108h1.398v12.387zM146 11.5a4.89 4.89 0 0 1-.257 1.621 3.86 3.86 0 0 1-.698 1.254 3.123 3.123 0 0 1-1.025.8 2.837 2.837 0 0 1-1.25.281h-5.23V.108h5.479c.383 0 .73.115 1.04.346.31.23.574.53.792.897.217.368.385.785.504 1.254.12.468.179.94.179 1.416 0 .764-.137 1.47-.412 2.118-.274.649-.665 1.131-1.172 1.449.632.259 1.131.738 1.498 1.437.368.699.551 1.524.551 2.475zm-1.413-.346c0-.346-.044-.68-.132-1.005a3.26 3.26 0 0 0-.357-.854 1.917 1.917 0 0 0-.536-.583 1.17 1.17 0 0 0-.683-.217h-3.943v5.275h3.835c.258 0 .496-.072.714-.216a2.15 2.15 0 0 0 .574-.573 2.85 2.85 0 0 0 .388-.832 3.51 3.51 0 0 0 .14-.995zm-5.65-9.36v5.123h3.508c.248 0 .476-.068.683-.205.207-.137.385-.32.535-.551.15-.23.27-.501.357-.81.088-.31.132-.639.132-.984 0-.36-.041-.7-.124-1.016a3.081 3.081 0 0 0-.334-.822c-.14-.23-.31-.41-.512-.54a1.171 1.171 0 0 0-.644-.195h-3.602zm13.815 13.77c-.776 0-1.482-.22-2.119-.66-.636-.439-1.182-1.022-1.637-1.75a9.047 9.047 0 0 1-1.056-2.497 11.17 11.17 0 0 1-.373-2.875c0-1.023.132-2.003.396-2.94.264-.937.629-1.765 1.095-2.486.465-.72 1.016-1.293 1.653-1.718A3.658 3.658 0 0 1 152.783 0c.776 0 1.48.227 2.112.68.63.455 1.174 1.05 1.63 1.784a9.237 9.237 0 0 1 1.055 2.497c.248.93.373 1.877.373 2.843a10.79 10.79 0 0 1-.396 2.94c-.264.936-.626 1.761-1.087 2.475-.46.713-1.009 1.282-1.645 1.707a3.658 3.658 0 0 1-2.073.638zm-3.772-7.782c0 .778.09 1.531.272 2.259.18.728.437 1.373.768 1.935s.73 1.009 1.195 1.34c.466.331.984.497 1.553.497.59 0 1.117-.176 1.583-.53a4.532 4.532 0 0 0 1.188-1.383c.326-.57.574-1.214.745-1.935.17-.72.256-1.448.256-2.183a9.32 9.32 0 0 0-.272-2.259 6.905 6.905 0 0 0-.776-1.924 4.457 4.457 0 0 0-1.195-1.33 2.558 2.558 0 0 0-1.53-.496c-.59 0-1.117.173-1.583.518-.465.346-.861.8-1.187 1.362a7.232 7.232 0 0 0-.753 1.924 9.262 9.262 0 0 0-.264 2.205zM159.909.108h8.786v15.348h-1.397V1.837h-5.992v13.619h-1.397V.108zm15.942 15.456c-.776 0-1.482-.22-2.119-.66-.636-.439-1.182-1.022-1.637-1.75a9.047 9.047 0 0 1-1.056-2.497 11.17 11.17 0 0 1-.373-2.875c0-1.023.132-2.003.396-2.94a9.118 9.118 0 0 1 1.095-2.486c.465-.72 1.017-1.293 1.653-1.718A3.658 3.658 0 0 1 175.882 0c.777 0 1.48.227 2.112.68.63.455 1.174 1.05 1.63 1.784a9.237 9.237 0 0 1 1.055 2.497c.249.93.373 1.877.373 2.843a10.79 10.79 0 0 1-.396 2.94c-.264.936-.626 1.761-1.087 2.475-.46.713-1.009 1.282-1.645 1.707a3.658 3.658 0 0 1-2.073.638zm-3.772-7.782c0 .778.09 1.531.272 2.259.18.728.437 1.373.768 1.935s.73 1.009 1.196 1.34c.465.331.983.497 1.552.497.59 0 1.118-.176 1.583-.53a4.532 4.532 0 0 0 1.188-1.383c.326-.57.574-1.214.745-1.935.17-.72.256-1.448.256-2.183a9.32 9.32 0 0 0-.272-2.259 6.905 6.905 0 0 0-.776-1.924c-.336-.555-.734-.998-1.195-1.33a2.558 2.558 0 0 0-1.53-.496c-.589 0-1.117.173-1.583.518-.465.346-.861.8-1.187 1.362a7.232 7.232 0 0 0-.753 1.924 9.262 9.262 0 0 0-.264 2.205zm12.326-.994h1.397l3.617-6.68h1.599l-3.928 7.415 4.285 7.933h-1.599l-3.819-6.939h-1.552v6.939h-1.397V.108h1.397v6.68zM196 .108h1.18l4.502 15.348h-1.49l-1.305-4.496h-4.626l-1.288 4.496h-1.49L196 .108zm2.577 9.339l-1.987-7.09-2.05 7.09h4.037zm3.912-7.523c.352-.649.768-1.131 1.25-1.448.48-.317 1.078-.476 1.793-.476 1.024 0 1.818.31 2.382.93.564.62.846 1.52.846 2.702 0 .879-.155 1.632-.465 2.259-.31.626-.745 1.034-1.304 1.22.683.116 1.231.498 1.645 1.147.414.648.621 1.491.621 2.529 0 .692-.096 1.33-.287 1.913a4.757 4.757 0 0 1-.8 1.513 3.701 3.701 0 0 1-1.21.994 3.297 3.297 0 0 1-1.522.357 3.22 3.22 0 0 1-1.956-.627c-.569-.418-1.003-1.009-1.304-1.772l1.118-1.146c.238.548.533.98.885 1.297.352.317.792.476 1.32.476.341 0 .654-.073.939-.217a2.28 2.28 0 0 0 .737-.594 2.85 2.85 0 0 0 .489-.908 3.6 3.6 0 0 0 .179-1.156c0-.908-.262-1.625-.784-2.151-.523-.526-1.25-.79-2.181-.79h-.839V6.248h.839c.776 0 1.386-.216 1.831-.648.445-.433.668-1.038.668-1.816 0-.706-.174-1.232-.52-1.578-.347-.346-.784-.519-1.312-.519a2.19 2.19 0 0 0-1.257.378c-.373.253-.663.61-.87 1.07l-.931-1.21zM214.567.108h1.18l4.502 15.348h-1.49l-1.304-4.496h-4.626l-1.289 4.496h-1.49L214.567.108zm2.577 9.339l-1.987-7.09-2.049 7.09h4.036zM230.62.108v15.348h-1.397V8.474h-6.07v6.982h-1.397V.108h1.397v6.636h6.07V.108h1.397zm4.098 12.387l6.38-12.387h1.149v15.348h-1.397V3.286l-6.272 12.17h-1.257V.108h1.397v12.387zm16.02 2.961V9.511h-2.546l-2.53 5.945h-1.63l2.732-6.226a3.087 3.087 0 0 1-.892-.68 4.444 4.444 0 0 1-.707-1.027 5.73 5.73 0 0 1-.458-1.276 6.296 6.296 0 0 1-.163-1.448c0-.577.083-1.146.249-1.708a5.43 5.43 0 0 1 .69-1.502 3.85 3.85 0 0 1 1.056-1.07 2.36 2.36 0 0 1 1.343-.41h4.253v15.347h-1.397zm0-13.619h-2.778c-.27 0-.526.08-.769.238a2.27 2.27 0 0 0-.636.638 3.42 3.42 0 0 0-.435.94c-.109.36-.163.742-.163 1.146 0 .389.047.764.14 1.124.093.36.222.677.388.951.165.274.365.494.597.66.233.165.495.248.784.248h2.872V1.837zm3.741 13.619v-2.421h1.15v2.421h-1.15zM270.763.108v15.348h-1.397V8.474h-6.07v6.982h-1.397V.108h1.397v6.636h6.07V.108h1.397zm10.183 13.619v1.729h-7.482V.108h7.342v1.73h-5.945v4.971h5.17v1.622h-5.17v5.296h6.085zm6.38 1.837c-.776 0-1.482-.22-2.119-.66-.636-.439-1.182-1.022-1.637-1.75a9.047 9.047 0 0 1-1.056-2.497 11.17 11.17 0 0 1-.373-2.875c0-1.023.132-2.003.396-2.94.264-.937.629-1.765 1.095-2.486.465-.72 1.017-1.293 1.653-1.718A3.658 3.658 0 0 1 287.357 0c.777 0 1.48.227 2.112.68.63.455 1.174 1.05 1.63 1.784a9.237 9.237 0 0 1 1.055 2.497c.249.93.373 1.877.373 2.843a10.79 10.79 0 0 1-.396 2.94c-.264.936-.626 1.761-1.087 2.475-.46.713-1.009 1.282-1.645 1.707a3.658 3.658 0 0 1-2.073.638zm-3.772-7.782c0 .778.09 1.531.272 2.259.18.728.437 1.373.768 1.935s.73 1.009 1.196 1.34c.465.331.983.497 1.552.497.59 0 1.118-.176 1.583-.53a4.532 4.532 0 0 0 1.188-1.383c.326-.57.574-1.214.745-1.935.17-.72.256-1.448.256-2.183a9.32 9.32 0 0 0-.272-2.259 6.905 6.905 0 0 0-.776-1.924c-.336-.555-.734-.998-1.195-1.33a2.558 2.558 0 0 0-1.53-.496c-.589 0-1.117.173-1.583.518-.465.346-.861.8-1.187 1.362a7.232 7.232 0 0 0-.753 1.924 9.262 9.262 0 0 0-.264 2.205zM294.483.108h7.746v1.73h-6.35V6.42h3.68c.445 0 .862.097 1.25.292.388.195.73.48 1.024.854.295.375.528.847.699 1.416.17.569.256 1.221.256 1.956 0 .735-.085 1.387-.256 1.956-.171.57-.401 1.042-.691 1.416-.29.375-.631.66-1.025.854a2.798 2.798 0 0 1-1.257.292h-5.076V.108zm5.076 13.662c.59 0 1.04-.256 1.35-.767.311-.512.466-1.2.466-2.065s-.152-1.553-.458-2.064c-.305-.512-.758-.768-1.358-.768h-3.68v5.664h3.68zM304.946.108l3.353 6.399 3.353-6.399h1.537l-4.145 7.782 4.02 7.566h-1.536l-3.23-6.182-3.228 6.182h-1.553l4.021-7.566-4.145-7.782h1.553zm14.095 15.456c-.776 0-1.482-.22-2.119-.66-.636-.439-1.182-1.022-1.638-1.75a9.047 9.047 0 0 1-1.055-2.497 11.17 11.17 0 0 1-.373-2.875c0-1.023.132-2.003.396-2.94a9.116 9.116 0 0 1 1.094-2.486c.466-.72 1.017-1.293 1.654-1.718A3.658 3.658 0 0 1 319.072 0c.776 0 1.48.227 2.111.68.632.455 1.175 1.05 1.63 1.784a9.237 9.237 0 0 1 1.056 2.497c.248.93.373 1.877.373 2.843a10.79 10.79 0 0 1-.396 2.94c-.264.936-.626 1.761-1.087 2.475-.46.713-1.009 1.282-1.646 1.707a3.658 3.658 0 0 1-2.072.638zm-3.772-7.782c0 .778.09 1.531.272 2.259.18.728.437 1.373.768 1.935s.73 1.009 1.195 1.34a2.62 2.62 0 0 0 1.553.497c.59 0 1.117-.176 1.583-.53a4.532 4.532 0 0 0 1.188-1.383c.326-.57.574-1.214.745-1.935.17-.72.256-1.448.256-2.183a9.32 9.32 0 0 0-.272-2.259 6.905 6.905 0 0 0-.776-1.924 4.457 4.457 0 0 0-1.195-1.33 2.558 2.558 0 0 0-1.53-.496c-.59 0-1.117.173-1.583.518-.465.346-.861.8-1.187 1.362a7.232 7.232 0 0 0-.753 1.924 9.262 9.262 0 0 0-.264 2.205zm9.857 5.945h.14a1.72 1.72 0 0 0 .621-.162c.197-.094.378-.263.543-.508.166-.245.321-.588.466-1.027.145-.44.28-1.005.404-1.697a33.14 33.14 0 0 0 .333-2.519c.099-.987.19-2.158.272-3.512l.248-4.194h5.837v13.619h1.708v5.75h-1.242v-4.021h-8.088v4.02h-1.242v-5.75zm7.467 0V1.837h-3.136l-.155 2.551c-.155 2.58-.375 4.615-.66 6.107-.284 1.492-.664 2.569-1.14 3.232h5.091zm6.117-1.232L345.09.108h1.148v15.348h-1.397V3.286l-6.271 12.17h-1.258V.108h1.398v12.387zm14.685 3.07c-.776 0-1.483-.22-2.12-.66-.636-.44-1.182-1.023-1.637-1.751a9.047 9.047 0 0 1-1.055-2.497 11.17 11.17 0 0 1-.373-2.875c0-1.023.132-2.003.396-2.94a9.116 9.116 0 0 1 1.094-2.486c.466-.72 1.017-1.293 1.653-1.718A3.658 3.658 0 0 1 353.426 0c.776 0 1.48.227 2.111.68.631.455 1.175 1.05 1.63 1.784a9.237 9.237 0 0 1 1.056 2.497c.248.93.372 1.877.372 2.843a10.79 10.79 0 0 1-.396 2.94c-.264.936-.626 1.761-1.086 2.475-.46.713-1.01 1.282-1.646 1.707a3.658 3.658 0 0 1-2.072.638zm-3.772-7.783c0 .778.09 1.531.271 2.259a7.23 7.23 0 0 0 .769 1.935c.33.562.73 1.009 1.195 1.34.466.331.983.497 1.552.497a2.55 2.55 0 0 0 1.584-.53 4.532 4.532 0 0 0 1.187-1.383c.326-.57.575-1.214.745-1.935.171-.72.257-1.448.257-2.183a9.32 9.32 0 0 0-.272-2.259 6.905 6.905 0 0 0-.776-1.924c-.337-.555-.735-.998-1.196-1.33a2.558 2.558 0 0 0-1.529-.496c-.59 0-1.117.173-1.583.518-.466.346-.862.8-1.188 1.362a7.232 7.232 0 0 0-.752 1.924 9.262 9.262 0 0 0-.264 2.205zM364.479.108h8.786v15.348h-1.397V1.837h-5.992v13.619h-1.397V.108zm11.487 15.348V.108h4.595c.487 0 .934.14 1.343.422.409.28.76.655 1.056 1.124.294.468.525.994.69 1.578.166.583.249 1.178.249 1.783a7.2 7.2 0 0 1-.233 1.838 5.784 5.784 0 0 1-.66 1.578 3.616 3.616 0 0 1-1.024 1.102c-.399.274-.841.41-1.328.41h-3.29v5.513h-1.398zm1.397-7.242h3.214c.29 0 .55-.082.784-.248.232-.166.432-.397.597-.692a3.97 3.97 0 0 0 .388-1.027c.093-.389.14-.8.14-1.232a4.63 4.63 0 0 0-.163-1.254 3.843 3.843 0 0 0-.435-1.016 2.14 2.14 0 0 0-.636-.67 1.385 1.385 0 0 0-.768-.238h-3.12v6.377zm12.76 7.35a3.64 3.64 0 0 1-2.118-.66c-.637-.439-1.183-1.022-1.638-1.75a9.047 9.047 0 0 1-1.056-2.497 11.17 11.17 0 0 1-.372-2.875c0-1.023.132-2.003.396-2.94.264-.937.628-1.765 1.094-2.486.466-.72 1.017-1.293 1.653-1.718A3.658 3.658 0 0 1 390.155 0c.776 0 1.48.227 2.11.68.632.455 1.176 1.05 1.63 1.784a9.237 9.237 0 0 1 1.057 2.497c.248.93.372 1.877.372 2.843a10.79 10.79 0 0 1-.396 2.94c-.264.936-.626 1.761-1.086 2.475-.461.713-1.01 1.282-1.646 1.707a3.658 3.658 0 0 1-2.072.638zm-3.772-7.782c0 .778.091 1.531.272 2.259.181.728.437 1.373.769 1.935.33.562.73 1.009 1.195 1.34.466.331.983.497 1.552.497a2.55 2.55 0 0 0 1.584-.53 4.532 4.532 0 0 0 1.187-1.383c.326-.57.575-1.214.745-1.935.171-.72.256-1.448.256-2.183a9.32 9.32 0 0 0-.271-2.259 6.905 6.905 0 0 0-.776-1.924c-.337-.555-.735-.998-1.196-1.33a2.558 2.558 0 0 0-1.529-.496c-.59 0-1.117.173-1.583.518-.466.346-.862.8-1.188 1.362a7.232 7.232 0 0 0-.753 1.924 9.262 9.262 0 0 0-.264 2.205zm12.326-.994h1.397l3.617-6.68h1.6l-3.928 7.415 4.284 7.933h-1.599l-3.818-6.939h-1.553v6.939h-1.397V.108h1.397v6.68zm12.73 8.776c-.777 0-1.483-.22-2.12-.66-.636-.439-1.182-1.022-1.637-1.75a9.047 9.047 0 0 1-1.056-2.497 11.17 11.17 0 0 1-.372-2.875c0-1.023.132-2.003.396-2.94a9.056 9.056 0 0 1 1.094-2.486c.466-.72 1.017-1.293 1.653-1.718A3.658 3.658 0 0 1 411.438 0c.776 0 1.48.227 2.11.68.632.455 1.175 1.05 1.63 1.784a9.237 9.237 0 0 1 1.056 2.497c.249.93.373 1.877.373 2.843a10.79 10.79 0 0 1-.396 2.94c-.264.936-.626 1.761-1.087 2.475-.46.713-1.009 1.282-1.645 1.707a3.658 3.658 0 0 1-2.072.638zm-3.773-7.782c0 .778.09 1.531.272 2.259.181.728.437 1.373.768 1.935.332.562.73 1.009 1.196 1.34.465.331.983.497 1.552.497.59 0 1.118-.176 1.583-.53a4.532 4.532 0 0 0 1.188-1.383c.326-.57.574-1.214.745-1.935.17-.72.256-1.448.256-2.183a9.32 9.32 0 0 0-.271-2.259 6.905 6.905 0 0 0-.777-1.924c-.336-.555-.734-.998-1.195-1.33a2.558 2.558 0 0 0-1.529-.496 2.59 2.59 0 0 0-1.583.518c-.466.346-.862.8-1.188 1.362a7.232 7.232 0 0 0-.753 1.924 9.262 9.262 0 0 0-.264 2.205zM427.427.108v15.348h-1.397V8.474h-6.07v6.982h-1.397V.108h1.397v6.636h6.07V.108h1.397zm1.956 7.566c0-.922.116-1.841.35-2.756a8.755 8.755 0 0 1 1.024-2.464A5.793 5.793 0 0 1 432.41.692a3.835 3.835 0 0 1 2.22-.67c.983 0 1.826.31 2.53.93.704.619 1.227 1.426 1.568 2.42l-1.102.995a4.85 4.85 0 0 0-.598-1.233 3.418 3.418 0 0 0-.76-.8 2.76 2.76 0 0 0-.846-.432 2.976 2.976 0 0 0-.854-.13c-.61 0-1.152.177-1.622.53a4.39 4.39 0 0 0-1.188 1.384 7.04 7.04 0 0 0-.722 1.924c-.16.713-.24 1.43-.24 2.15 0 .807.095 1.575.287 2.303.191.727.458 1.372.8 1.934.34.562.744 1.01 1.21 1.34a2.57 2.57 0 0 0 1.521.498 2.837 2.837 0 0 0 1.77-.638c.28-.223.54-.504.784-.843.243-.339.442-.746.598-1.221l1.164.886a5.184 5.184 0 0 1-.737 1.524c-.316.44-.673.81-1.072 1.113-.398.303-.82.533-1.265.692-.445.158-.88.238-1.304.238-.755 0-1.449-.23-2.08-.692-.631-.461-1.177-1.063-1.638-1.805a9.382 9.382 0 0 1-1.07-2.53 11.077 11.077 0 0 1-.381-2.885zm12.605 7.933c-.197 0-.414-.025-.652-.075a1.925 1.925 0 0 1-.605-.227V13.64c.176.101.37.173.582.216.212.044.406.065.582.065.352 0 .665-.151.94-.454.273-.302.545-.9.814-1.794L439.644.108h1.475l3.182 9.447 3.012-9.447h1.474l-3.88 11.673a18.28 18.28 0 0 1-.668 1.762 6.59 6.59 0 0 1-.668 1.189c-.227.31-.47.533-.73.67a1.797 1.797 0 0 1-.853.205zm11.177-11.219c-.124 1.989-.28 3.69-.466 5.102-.186 1.412-.43 2.572-.73 3.48-.3.908-.659 1.575-1.078 2a2.05 2.05 0 0 1-1.514.637l-.248-1.88a1.71 1.71 0 0 0 .62-.162c.197-.094.379-.263.544-.508.166-.245.321-.588.466-1.027.145-.44.28-1.005.403-1.697a33.14 33.14 0 0 0 .334-2.519c.099-.987.19-2.158.272-3.512l.248-4.194h5.837v15.348h-1.397V1.837h-3.136l-.155 2.551zm7.405-4.28h1.397v5.664h2.36a3.305 3.305 0 0 1 2.623 1.232c.331.403.592.908.784 1.513.191.605.287 1.304.287 2.097 0 .792-.098 1.491-.295 2.097-.196.605-.463 1.11-.8 1.513a3.334 3.334 0 0 1-2.6 1.232h-3.756V.108zm1.397 13.662h2.36c.765 0 1.337-.285 1.715-.854.378-.57.566-1.337.566-2.302 0-.966-.196-1.733-.59-2.302-.393-.57-.957-.854-1.691-.854h-2.36v6.312zm15.756-11.933h-3.803v13.619h-1.397V1.837h-3.803V.108h9.003v1.73zm3.012 10.658l6.38-12.387h1.149v15.348h-1.397V3.286l-6.272 12.17h-1.257V.108h1.397v12.387zm10.23 2.961V.108h4.595c.486 0 .934.14 1.343.422.409.28.76.655 1.055 1.124a6 6 0 0 1 .691 1.578c.166.583.249 1.178.249 1.783 0 .634-.078 1.247-.233 1.838a5.784 5.784 0 0 1-.66 1.578 3.616 3.616 0 0 1-1.025 1.102c-.398.274-.84.41-1.327.41h-3.29v5.513h-1.398zm1.397-7.242h3.214c.29 0 .55-.082.783-.248.233-.166.433-.397.598-.692a3.97 3.97 0 0 0 .388-1.027c.093-.389.14-.8.14-1.232a4.63 4.63 0 0 0-.163-1.254 3.843 3.843 0 0 0-.435-1.016 2.14 2.14 0 0 0-.636-.67 1.385 1.385 0 0 0-.769-.238h-3.12v6.377zm12.76 7.35a3.64 3.64 0 0 1-2.118-.66c-.637-.439-1.183-1.022-1.638-1.75a9.047 9.047 0 0 1-1.056-2.497 11.17 11.17 0 0 1-.372-2.875c0-1.023.132-2.003.396-2.94a9.056 9.056 0 0 1 1.094-2.486c.466-.72 1.017-1.293 1.653-1.718A3.658 3.658 0 0 1 505.154 0c.776 0 1.48.227 2.11.68.632.455 1.175 1.05 1.63 1.784a9.237 9.237 0 0 1 1.056 2.497c.249.93.373 1.877.373 2.843a10.79 10.79 0 0 1-.396 2.94c-.264.936-.626 1.761-1.087 2.475-.46.713-1.009 1.282-1.645 1.707a3.658 3.658 0 0 1-2.072.638zm-3.772-7.782c0 .778.09 1.531.272 2.259.181.728.437 1.373.768 1.935.332.562.73 1.009 1.196 1.34.465.331.983.497 1.552.497.59 0 1.118-.176 1.583-.53a4.532 4.532 0 0 0 1.188-1.383c.326-.57.574-1.214.745-1.935.17-.72.256-1.448.256-2.183a9.32 9.32 0 0 0-.271-2.259 6.905 6.905 0 0 0-.777-1.924c-.336-.555-.734-.998-1.195-1.33a2.558 2.558 0 0 0-1.529-.496 2.59 2.59 0 0 0-1.583.518c-.466.346-.862.8-1.188 1.362a7.232 7.232 0 0 0-.753 1.924 9.262 9.262 0 0 0-.264 2.205zm19.08 3.718c0 .591-.086 1.131-.256 1.621a3.88 3.88 0 0 1-.699 1.254 3.123 3.123 0 0 1-1.024.8 2.837 2.837 0 0 1-1.25.281h-5.232V.108h5.48c.383 0 .73.115 1.04.346.31.23.575.53.792.897.217.368.386.785.505 1.254.119.468.178.94.178 1.416 0 .764-.137 1.47-.411 2.118-.275.649-.665 1.131-1.172 1.449.631.259 1.13.738 1.498 1.437.367.699.55 1.524.55 2.475zm-1.413-.346c0-.346-.044-.68-.132-1.005a3.26 3.26 0 0 0-.357-.854 1.917 1.917 0 0 0-.535-.583 1.17 1.17 0 0 0-.683-.217h-3.943v5.275h3.834c.259 0 .497-.072.714-.216a2.15 2.15 0 0 0 .574-.573 2.85 2.85 0 0 0 .388-.832 3.51 3.51 0 0 0 .14-.995zm-5.65-9.36v5.123h3.508c.248 0 .476-.068.683-.205.207-.137.385-.32.536-.551.15-.23.269-.501.357-.81.088-.31.131-.639.131-.984 0-.36-.04-.7-.124-1.016a3.081 3.081 0 0 0-.333-.822c-.14-.23-.31-.41-.513-.54a1.171 1.171 0 0 0-.644-.195h-3.601zM526.048.108h1.18l4.502 15.348h-1.49l-1.304-4.496h-4.626l-1.289 4.496h-1.49L526.048.108zm2.577 9.339l-1.987-7.09-2.049 7.09h4.036zm12.528-7.61h-3.803v13.619h-1.398V1.837h-3.803V.108h9.004v1.73zm1.614-1.729h1.397v5.664h2.36a3.305 3.305 0 0 1 2.623 1.232c.332.403.593.908.784 1.513.192.605.288 1.304.288 2.097 0 .792-.099 1.491-.295 2.097-.197.605-.463 1.11-.8 1.513a3.334 3.334 0 0 1-2.6 1.232h-3.757V.108zm1.397 13.662h2.36c.766 0 1.338-.285 1.715-.854.378-.57.567-1.337.567-2.302 0-.966-.197-1.733-.59-2.302-.393-.57-.957-.854-1.692-.854h-2.36v6.312zm7.095-6.096c0-.922.116-1.841.349-2.756a8.755 8.755 0 0 1 1.025-2.464 5.793 5.793 0 0 1 1.653-1.762 3.835 3.835 0 0 1 2.22-.67c.983 0 1.826.31 2.53.93.704.619 1.226 1.426 1.568 2.42l-1.102.995a4.85 4.85 0 0 0-.598-1.233 3.418 3.418 0 0 0-.76-.8 2.76 2.76 0 0 0-.847-.432 2.976 2.976 0 0 0-.853-.13c-.611 0-1.152.177-1.623.53a4.4 4.4 0 0 0-1.187 1.384 7.04 7.04 0 0 0-.722 1.924c-.16.713-.24 1.43-.24 2.15 0 .807.095 1.575.287 2.303.191.727.457 1.372.799 1.934.342.562.745 1.01 1.21 1.34a2.57 2.57 0 0 0 1.522.498 2.837 2.837 0 0 0 1.77-.638c.28-.223.54-.504.784-.843.243-.339.442-.746.597-1.221l1.165.886a5.184 5.184 0 0 1-.738 1.524 5.16 5.16 0 0 1-1.07 1.113c-.4.303-.821.533-1.266.692-.445.158-.88.238-1.304.238-.755 0-1.449-.23-2.08-.692-.631-.461-1.177-1.063-1.638-1.805a9.382 9.382 0 0 1-1.071-2.53 11.076 11.076 0 0 1-.38-2.885zm17.107 7.782V9.511h-2.546l-2.53 5.945h-1.63l2.732-6.226a3.087 3.087 0 0 1-.893-.68 4.444 4.444 0 0 1-.706-1.027 5.73 5.73 0 0 1-.458-1.276 6.296 6.296 0 0 1-.163-1.448c0-.577.083-1.146.248-1.708a5.43 5.43 0 0 1 .691-1.502 3.85 3.85 0 0 1 1.056-1.07c.408-.274.856-.41 1.342-.41h4.254v15.347h-1.397zm0-13.619h-2.779c-.27 0-.525.08-.768.238a2.27 2.27 0 0 0-.637.638 3.42 3.42 0 0 0-.435.94c-.108.36-.163.742-.163 1.146 0 .389.047.764.14 1.124.093.36.223.677.388.951.166.274.365.494.598.66.233.165.494.248.784.248h2.872V1.837zm7.28 5.837c0-.922.117-1.841.35-2.756a8.755 8.755 0 0 1 1.024-2.464 5.793 5.793 0 0 1 1.653-1.762 3.835 3.835 0 0 1 2.22-.67c.983 0 1.827.31 2.53.93.704.619 1.227 1.426 1.568 2.42l-1.102.995a4.85 4.85 0 0 0-.597-1.233 3.418 3.418 0 0 0-.761-.8 2.76 2.76 0 0 0-.846-.432 2.976 2.976 0 0 0-.854-.13c-.61 0-1.151.177-1.622.53a4.39 4.39 0 0 0-1.188 1.384 7.04 7.04 0 0 0-.721 1.924 9.794 9.794 0 0 0-.241 2.15c0 .807.096 1.575.287 2.303a7.27 7.27 0 0 0 .8 1.934c.341.562.745 1.01 1.21 1.34a2.57 2.57 0 0 0 1.522.498 2.837 2.837 0 0 0 1.77-.638c.279-.223.54-.504.783-.843.244-.339.443-.746.598-1.221l1.164.886a5.184 5.184 0 0 1-.737 1.524c-.316.44-.673.81-1.071 1.113-.399.303-.82.533-1.265.692-.445.158-.88.238-1.304.238a3.44 3.44 0 0 1-2.08-.692c-.632-.461-1.178-1.063-1.638-1.805a9.382 9.382 0 0 1-1.071-2.53 11.076 11.076 0 0 1-.38-2.885zm15.772 7.89c-.776 0-1.482-.22-2.119-.66-.636-.439-1.182-1.022-1.637-1.75a9.047 9.047 0 0 1-1.056-2.497 11.17 11.17 0 0 1-.373-2.875c0-1.023.132-2.003.396-2.94.264-.937.629-1.765 1.095-2.486.465-.72 1.016-1.293 1.653-1.718A3.658 3.658 0 0 1 591.449 0c.776 0 1.48.227 2.112.68.63.455 1.174 1.05 1.63 1.784a9.237 9.237 0 0 1 1.055 2.497c.248.93.373 1.877.373 2.843a10.79 10.79 0 0 1-.396 2.94c-.264.936-.626 1.761-1.087 2.475-.46.713-1.009 1.282-1.645 1.707a3.658 3.658 0 0 1-2.073.638zm-3.772-7.782c0 .778.09 1.531.272 2.259.18.728.437 1.373.768 1.935s.73 1.009 1.195 1.34c.466.331.984.497 1.553.497.59 0 1.117-.176 1.583-.53a4.532 4.532 0 0 0 1.188-1.383c.326-.57.574-1.214.745-1.935.17-.72.256-1.448.256-2.183a9.32 9.32 0 0 0-.272-2.259 6.905 6.905 0 0 0-.776-1.924 4.457 4.457 0 0 0-1.195-1.33 2.558 2.558 0 0 0-1.53-.496c-.59 0-1.117.173-1.583.518-.465.346-.861.8-1.187 1.362a7.232 7.232 0 0 0-.753 1.924 9.262 9.262 0 0 0-.264 2.205zm14.111-.108c0-.922.116-1.841.35-2.756a8.755 8.755 0 0 1 1.024-2.464 5.793 5.793 0 0 1 1.653-1.762 3.835 3.835 0 0 1 2.22-.67c.983 0 1.827.31 2.53.93.704.619 1.227 1.426 1.568 2.42L610 4.367a4.85 4.85 0 0 0-.598-1.233 3.418 3.418 0 0 0-.76-.8 2.76 2.76 0 0 0-.846-.432 2.976 2.976 0 0 0-.854-.13c-.61 0-1.151.177-1.622.53a4.39 4.39 0 0 0-1.188 1.384 7.04 7.04 0 0 0-.722 1.924c-.16.713-.24 1.43-.24 2.15 0 .807.095 1.575.287 2.303.191.727.458 1.372.8 1.934.34.562.744 1.01 1.21 1.34a2.57 2.57 0 0 0 1.521.498 2.837 2.837 0 0 0 1.77-.638c.28-.223.54-.504.784-.843.243-.339.442-.746.598-1.221l1.164.886a5.184 5.184 0 0 1-.737 1.524c-.316.44-.673.81-1.072 1.113-.398.303-.82.533-1.265.692-.445.158-.88.238-1.304.238-.755 0-1.449-.23-2.08-.692-.631-.461-1.177-1.063-1.638-1.805a9.382 9.382 0 0 1-1.07-2.53 11.076 11.076 0 0 1-.381-2.885zM613.074.108h8.786v15.348h-1.397V1.837h-5.992v13.619h-1.397V.108zm18.97 13.619v1.729h-7.483V.108h7.343v1.73h-5.946v4.971h5.17v1.622h-5.17v5.296h6.086zm10.493 1.729h-8.553V.108h1.397v13.619h5.294V.108h1.397v13.619h1.707v5.75h-1.242v-4.021zm4.254-2.961L653.17.108h1.149v15.348h-1.397V3.286l-6.272 12.17h-1.257V.108h1.397v12.387zM660.343.108h1.18l4.502 15.348h-1.49l-1.305-4.496h-4.626l-1.288 4.496h-1.49L660.343.108zm2.577 9.339l-1.987-7.09-2.05 7.09h4.037zm7.405-5.059c-.124 1.989-.28 3.69-.466 5.102-.186 1.412-.43 2.572-.73 3.48-.3.908-.66 1.575-1.078 2a2.05 2.05 0 0 1-1.514.637l-.248-1.88a1.71 1.71 0 0 0 .62-.162c.197-.094.378-.263.544-.508.165-.245.32-.588.466-1.027.144-.44.279-1.005.403-1.697a33.14 33.14 0 0 0 .334-2.519c.098-.987.189-2.158.272-3.512l.248-4.194h5.837v15.348h-1.397V1.837h-3.136l-.155 2.551zm8.802 8.107l6.38-12.387h1.149v15.348h-1.398V3.286l-6.271 12.17h-1.258V.108h1.398v12.387zm9.485-4.821c0-.922.116-1.841.349-2.756a8.755 8.755 0 0 1 1.024-2.464A5.793 5.793 0 0 1 691.64.692a3.835 3.835 0 0 1 2.22-.67c.983 0 1.826.31 2.53.93.704.619 1.226 1.426 1.568 2.42l-1.102.995a4.85 4.85 0 0 0-.598-1.233 3.418 3.418 0 0 0-.76-.8 2.76 2.76 0 0 0-.847-.432 2.976 2.976 0 0 0-.854-.13c-.61 0-1.15.177-1.622.53-.47.353-.867.814-1.187 1.384a7.04 7.04 0 0 0-.722 1.924c-.16.713-.24 1.43-.24 2.15 0 .807.095 1.575.286 2.303a7.27 7.27 0 0 0 .8 1.934c.341.562.745 1.01 1.21 1.34a2.57 2.57 0 0 0 1.522.498 2.837 2.837 0 0 0 1.77-.638c.28-.223.54-.504.784-.843.243-.339.442-.746.597-1.221l1.165.886a5.184 5.184 0 0 1-.738 1.524c-.315.44-.673.81-1.071 1.113-.398.303-.82.533-1.265.692-.445.158-.88.238-1.304.238-.756 0-1.449-.23-2.08-.692-.632-.461-1.177-1.063-1.638-1.805a9.382 9.382 0 0 1-1.071-2.53 11.077 11.077 0 0 1-.38-2.885zm19.233-5.837h-3.803v13.619h-1.397V1.837h-3.803V.108h9.003v1.73zm6.07 13.727c-.776 0-1.482-.22-2.119-.66-.636-.439-1.182-1.022-1.638-1.75a9.047 9.047 0 0 1-1.055-2.497 11.17 11.17 0 0 1-.373-2.875c0-1.023.132-2.003.396-2.94a9.116 9.116 0 0 1 1.094-2.486c.466-.72 1.017-1.293 1.654-1.718A3.658 3.658 0 0 1 713.946 0c.776 0 1.48.227 2.111.68.632.455 1.175 1.05 1.63 1.784a9.237 9.237 0 0 1 1.056 2.497c.248.93.372 1.877.372 2.843a10.79 10.79 0 0 1-.395 2.94c-.264.936-.627 1.761-1.087 2.475-.46.713-1.01 1.282-1.646 1.707a3.658 3.658 0 0 1-2.072.638zm-3.772-7.782c0 .778.09 1.531.271 2.259.182.728.438 1.373.769 1.935s.73 1.009 1.195 1.34a2.62 2.62 0 0 0 1.553.497c.59 0 1.117-.176 1.583-.53A4.532 4.532 0 0 0 716.7 11.9c.326-.57.575-1.214.746-1.935.17-.72.256-1.448.256-2.183a9.32 9.32 0 0 0-.272-2.259 6.905 6.905 0 0 0-.776-1.924 4.457 4.457 0 0 0-1.195-1.33 2.558 2.558 0 0 0-1.53-.496c-.59 0-1.117.173-1.583.518a4.44 4.44 0 0 0-1.187 1.362 7.232 7.232 0 0 0-.753 1.924 9.262 9.262 0 0 0-.264 2.205zm20.46 7.674V3.588l-3.664 9.101h-.791l-3.68-9.1v11.867h-1.397V.108h1.475l3.99 9.965L730.54.108H732v15.348h-1.397z" fill="#FFF" fill-rule="evenodd"/></svg>