<?xml version="1.0" encoding="UTF-8"?>
<svg width="92px" height="92px" viewBox="0 0 92 92" version="1.1" xmlns="http://www.w3.org/2000/svg" xmlns:xlink="http://www.w3.org/1999/xlink">
    <!-- Generator: sketchtool 52.4 (67378) - http://www.bohemiancoding.com/sketch -->
    <title>EFDF2D6F-0EAD-4C6B-A9C6-A90CBEBA45D8</title>
    <desc>Created with sketchtool.</desc>
    <g id="Page-1" stroke="none" stroke-width="1" fill="none" fill-rule="evenodd">
        <g id="главная_1280-" transform="translate(-720.000000, -6106.000000)">
            <g id="Group-35" transform="translate(444.000000, 5958.000000)">
                <g id="Group-60" transform="translate(276.000000, 148.000000)">
                    <g id="Group-82">
                        <g id="Group-88">
                            <path d="M44.701597,91.9814547 C19.3483004,91.2653692 -0.696400678,70.0560331 0.0185463472,44.701598 C0.733493373,19.347163 21.9428295,-0.69639967 47.2972646,0.0185473554 C72.6516996,0.733494381 92.6964007,21.943969 91.9814537,47.2972656 C91.2653682,72.6505622 70.0560321,92.6964017 44.701597,91.9814547 Z" id="Shape-Copy" fill="#FFFFFF"></path>
                            <g id="Group-57" transform="translate(20.000000, 19.000000)" fill="#6BACBC">
                                <g id="Group-30">
                                    <path d="M36.960202,49.6719159 C38.2573235,49.4058436 39.5567306,48.9003064 40.8218525,48.1691861 C41.2435599,46.8816278 42.0995457,45.5535802 43.2263842,44.4117833 C44.3406516,43.2815546 45.6526299,42.4197119 47.0206073,41.9176452 C49.2925698,37.8340146 49.1977142,33.5143896 46.6994697,30.9843896 L22.3764429,6.36345222 C21.1067496,5.07820759 19.3707783,4.39914495 17.3559544,4.39914495 C14.560572,4.39914495 11.4680517,5.72487883 8.87266596,8.03739369 L8.76295349,8.1345679 L1.85335333,1.02349794 C1.67164205,0.836090535 1.43050317,0.73428898 1.17222172,0.73428898 C0.918511628,0.73428898 0.680801268,0.832620027 0.500232822,1.01192958 C0.3173787,1.19239598 0.216808932,1.4353315 0.214523256,1.69446273 C0.212237579,1.95359396 0.31052167,2.19768633 0.48880444,2.38162323 L7.40869014,9.50426155 L7.31269173,9.61300412 C3.24875885,14.2704252 2.52991358,20.1575629 5.63957651,23.3041564 L29.958032,47.9204664 C31.6391471,49.6233288 34.1636768,50.2433928 36.960202,49.6719159 Z M44.2983665,33.4160585 C45.9223397,35.0587654 45.4240622,38.5049794 43.1121004,41.6099268 L43.0046736,41.7545313 L39.5315881,38.240064 C38.8904559,37.5910791 37.7716172,37.5910791 37.1304849,38.240064 C36.8093474,38.5651349 36.6322075,38.9977915 36.6322075,39.4570553 C36.6322075,39.9163192 36.8093474,40.3489758 37.1304849,40.671733 L40.6012848,44.1862003 L40.45843,44.2949428 C39.1030238,45.3256836 37.6596191,46.0197851 36.2847846,46.302053 C35.8322207,46.3945999 35.3876566,46.4420302 34.9659493,46.4420302 C33.8596818,46.4420302 32.9854105,46.1239003 32.3648494,45.4957385 C30.4403097,43.5476269 31.5488628,39.135455 34.7819523,35.8627663 C36.4390678,34.1841975 38.4801769,32.9995976 40.3784313,32.6097439 C42.0252612,32.2696342 43.4423807,32.5472748 44.2983665,33.4160585 Z M10.9537744,23.8224188 L8.04182254,20.8748011 C6.1172829,18.9266895 7.22469318,14.5145176 10.4589255,11.2406722 C12.5366054,9.13638775 15.1811332,7.83032007 17.3593829,7.83032007 C18.4462221,7.83032007 19.35135,8.1634888 19.9753397,8.79512117 L22.8884345,11.7438957 L22.6015821,11.7994239 C20.0061964,12.306118 17.3708113,13.8042204 15.1811332,16.0207179 C12.9925979,18.2360585 11.5114795,20.903722 11.0097735,23.532053 L10.9537744,23.8224188 Z M28.1534904,41.2327984 L15.1662763,28.0865158 C13.2417367,26.1372474 14.3491469,21.7262323 17.5822364,18.4523868 C19.6610592,16.3492593 22.3044441,15.0420348 24.4838367,15.0420348 C25.5718187,15.0420348 26.4758038,15.3752035 27.0986506,16.005679 L40.1018644,29.1681573 L39.8104407,29.2213717 C37.1304849,29.7685551 34.529385,31.256246 32.3819919,33.4299406 C30.191171,35.6475949 28.7111954,38.3152583 28.2106323,40.9424326 L28.1534904,41.2327984 Z" id="Shape" fill-rule="nonzero"></path>
                                    <path d="M51.7988141,43.9490489 C51.7988141,43.9478921 51.7988141,43.9478921 51.7976712,43.9478921 C51.7051013,43.8541884 51.6068173,43.7708962 51.502819,43.6910745 C51.4731052,43.6679378 51.4422485,43.6471148 51.4102491,43.6251349 C51.3302504,43.5684499 51.2468232,43.5152355 51.1622532,43.4666484 C51.1313965,43.4492958 51.1005399,43.4319433 51.0685404,43.4157476 C50.9542566,43.3555921 50.8354014,43.3012209 50.7119749,43.2561043 C50.6982608,43.2514769 50.6834039,43.2480064 50.6696899,43.2433791 C50.5588346,43.2040466 50.4445507,43.1716552 50.3279812,43.1438912 C50.2891247,43.1346365 50.2502682,43.1253818 50.2114117,43.1184408 C50.1085563,43.0976177 50.004558,43.0802652 49.898274,43.0686968 C49.8639889,43.0640695 49.8297038,43.0594422 49.7954186,43.0559717 C49.6559923,43.0420896 49.5154232,43.0363054 49.3714256,43.0374623 C49.3519974,43.0374623 49.3302834,43.0386191 49.3108552,43.0386191 C49.1817145,43.0409328 49.0525737,43.0490306 48.9222902,43.0629127 C48.8925764,43.0652263 48.8640054,43.06754 48.8342916,43.0710105 C48.690294,43.0883631 48.5451535,43.1114998 48.3988702,43.1404207 C48.3668708,43.1462048 48.3348713,43.1531459 48.3028718,43.1612437 C48.1668741,43.1901646 48.0285906,43.2248697 47.8891644,43.2642021 C47.870879,43.2688294 47.8525936,43.2734568 47.835451,43.2780841 C47.6845963,43.3232007 47.5337417,43.3764152 47.382887,43.4331001 C47.3463162,43.4458253 47.3108882,43.4608642 47.2766031,43.4759031 C47.1234627,43.5349017 46.9714652,43.5996845 46.8183249,43.6714083 C46.8046109,43.6783493 46.789754,43.687604 46.7748971,43.6933882 C46.6331851,43.7627984 46.4891875,43.8379927 46.3474756,43.9178144 C46.3143332,43.9363237 46.2811909,43.9525194 46.2491915,43.9721856 C46.1383362,44.0358116 46.0297665,44.1063786 45.9189112,44.1769456 C45.920054,44.1746319 45.9223397,44.1723182 45.9234826,44.1700046 C45.3600633,44.5297805 44.8092152,44.970535 44.2960809,45.4887974 C44.1406549,45.6461271 43.990943,45.8080841 43.8503739,45.971198 C43.5669501,46.2997394 43.31324,46.6386923 43.0881008,46.9834294 C42.7521064,47.500535 42.4823965,48.0315226 42.2823998,48.5590398 C42.1509734,48.9118747 42.0492608,49.2600823 41.9806905,49.6048194 C41.8092648,50.4643484 41.8389786,51.2810745 42.0881173,51.9774897 C42.2309721,52.3765981 42.4458257,52.7329035 42.733821,53.0359945 C42.7486779,53.0510334 42.7589634,53.0683859 42.7738203,53.0834248 C42.8663902,53.1782853 42.9658171,53.2615775 43.0698154,53.3413992 C43.0995292,53.3645359 43.1315287,53.3853589 43.1612425,53.4073388 C43.2412411,53.4640238 43.3246683,53.5172382 43.4092384,53.5658253 C43.440095,53.5831779 43.4709516,53.6016872 43.5018083,53.6178829 C43.6172349,53.6780384 43.7360901,53.7312529 43.8583738,53.7763695 C43.8732307,53.7821536 43.8880876,53.7844673 43.9040873,53.7914083 C44.0149427,53.8295839 44.1280836,53.8631321 44.2435103,53.8897394 C44.2823668,53.8989941 44.3212233,53.9082487 44.3612226,53.9151898 C44.4629353,53.9360128 44.5680764,53.9522085 44.6732175,53.9637769 C44.7086455,53.9684042 44.7429306,53.9730316 44.7772158,53.9776589 C44.916642,53.9892273 45.058354,53.9961683 45.2012088,53.9950114 C45.2217799,53.9950114 45.2412081,53.9938546 45.2617792,53.9938546 C45.3897771,53.9915409 45.5212035,53.9834431 45.6537727,53.969561 C45.6812008,53.9672474 45.7097718,53.9649337 45.7383428,53.9614632 C45.8811975,53.9452675 46.0286237,53.9209739 46.1760498,53.892053 C46.2069064,53.8862689 46.2377631,53.8793278 46.2686197,53.8723868 C46.408046,53.8423091 46.5463294,53.807604 46.6868985,53.7682716 C46.7040411,53.7636443 46.7211837,53.7578601 46.7371834,53.7532327 C46.8880381,53.7081161 47.0400355,53.6560585 47.192033,53.5993736 C47.2263182,53.5854915 47.2617462,53.5727663 47.2971742,53.5577275 C47.4503145,53.497572 47.6034548,53.4327892 47.7554523,53.3599086 C47.7691664,53.3529675 47.7817376,53.3448697 47.7965945,53.3390855 C47.9405921,53.2696754 48.0834469,53.194481 48.2263017,53.1135025 C48.259444,53.0949931 48.2925863,53.0787974 48.3234429,53.0591312 C48.4731547,52.9723685 48.6240094,52.8809785 48.7714355,52.7826475 C48.7988636,52.7641381 48.8262918,52.7444719 48.8548627,52.7248057 C48.9908605,52.6334156 49.1257154,52.5373983 49.2582846,52.4367535 C49.2811414,52.419401 49.3039982,52.4032053 49.3257121,52.3858528 C49.4708525,52.2724829 49.6148502,52.1533288 49.7565621,52.0295473 C49.7874187,52.0029401 49.8194182,51.9740192 49.8502748,51.9462551 C49.9942725,51.8166895 50.1371272,51.6836534 50.2765535,51.5425194 C51.0559692,50.7535574 51.6571021,49.8789895 52.0662382,48.9997942 C52.1485226,48.8227984 52.2228071,48.6469593 52.2890917,48.4722771 C52.9507951,46.7150434 52.830797,44.9948285 51.7988141,43.9490489 Z" id="Path"></path>
                                </g>
                                <path d="M26.4872322,26.0377595 C26.8895112,25.7254138 27.3100757,25.4547142 27.7397829,25.2487974 C28.2517744,25.0023914 28.4700566,24.3834842 28.2277748,23.8663786 C27.9843503,23.3481161 27.3729318,23.1271605 26.8620831,23.3735665 C26.2278079,23.6778144 25.6083895,24.0838637 25.0312562,24.5581664 L23.4689963,22.9709877 C23.0690029,22.5649383 22.4210136,22.5637814 22.0187345,22.9698308 C21.6175983,23.3735665 21.6164555,24.0318061 22.0164489,24.4378555 L23.5764231,26.0227206 C23.0358606,26.6936854 22.5935822,27.4213352 22.2758732,28.1686511 C22.0530197,28.6961683 22.2918729,29.3058208 22.8130071,29.5325606 C22.9455764,29.5904024 23.082717,29.6170096 23.2175719,29.6170096 C23.6152796,29.6170096 23.9935591,29.3821719 24.1604135,28.9888477 C24.3764099,28.47984 24.679262,27.9800869 25.0381132,27.5080979 L26.6209442,29.1160997 C26.8209409,29.3197028 27.0849366,29.4215043 27.3477894,29.4215043 C27.6094993,29.4215043 27.8712093,29.3208596 28.071206,29.1195702 C28.4723422,28.7146776 28.4734851,28.0575949 28.0734917,27.6515455 L26.4872322,26.0377595 Z" id="Path"></path>
                            </g>
                        </g>
                    </g>
                </g>
            </g>
        </g>
    </g>
</svg>