<?xml version="1.0" encoding="UTF-8"?>
<svg width="95px" height="95px" viewBox="0 0 95 95" version="1.1" xmlns="http://www.w3.org/2000/svg" xmlns:xlink="http://www.w3.org/1999/xlink">
    <!-- Generator: sketchtool 52.4 (67378) - http://www.bohemiancoding.com/sketch -->
    <title>B656217F-43BE-4B48-882F-5034359F870E</title>
    <desc>Created with sketchtool.</desc>
    <g id="Page-1" stroke="none" stroke-width="1" fill="none" fill-rule="evenodd">
        <g id="главная_1280-" transform="translate(-1121.000000, -6379.000000)">
            <g id="Group-99" transform="translate(40.000000, 6234.000000)">
                <g id="Group-55" transform="translate(1081.000000, 145.000000)">
                    <path d="M46.1592578,94.9808499 C19.9792232,94.2414138 -0.719109396,72.3404689 0.0191511194,46.1592588 C0.757411635,19.9780487 22.6583566,-0.719108355 48.8395667,0.0191521605 C75.0207768,0.757412676 95.7191094,22.6595332 94.9808489,48.8395677 C94.2414128,75.0196022 72.3404679,95.7191104 46.1592578,94.9808499 Z" id="Shape" fill="#FFFFFF" fill-rule="nonzero"></path>
                    <g id="icon5-2" transform="translate(21.000000, 23.000000)">
                        <g id="icon5">
                            <rect id="Rectangle" x="0.185952299" y="5.04671605" width="49.2323297" height="8.95012346"></rect>
                            <path d="M52.6136578,5.09214815 C52.6136578,4.288 51.9805254,3.65876543 51.1736816,3.65876543 L41.4824131,3.65876543 L41.4824131,1.64725926 C41.4824131,0.843111111 40.8481378,0.212740741 40.0390083,0.212740741 C39.2321645,0.212740741 38.5990321,0.843111111 38.5990321,1.64725926 L38.5990321,3.65876543 L14.835996,3.65876543 L14.835996,1.64725926 C14.835996,0.843111111 14.2017208,0.212740741 13.3925913,0.212740741 C12.5834618,0.212740741 11.9503294,0.843111111 11.9503294,1.64725926 L11.9503294,3.65876543 L1.94135188,3.65876543 C1.13222238,3.65876543 0.499089984,4.288 0.499089984,5.09214815 L0.499089984,46.630716 C0.499089984,47.3826173 1.1596505,48.0186667 1.94135188,48.0186667 L51.1736816,48.0186667 C51.9805254,48.0186667 52.6136578,47.3894321 52.6136578,46.585284 L52.6136578,5.09214815 Z M49.7314197,45.1961975 L3.38247093,45.1961975 L3.38247093,15.0508642 L49.7302768,15.0508642 L49.7302768,45.1961975 L49.7314197,45.1961975 Z M49.7759904,12.1852346 L3.38247093,12.1852346 L3.38247093,6.52666667 L11.9503294,6.52666667 L11.9503294,7.94755556 C11.9503294,8.7517037 12.5834618,9.38207407 13.3925913,9.38207407 C14.2017208,9.38207407 14.835996,8.7517037 14.835996,7.94755556 L14.835996,6.52666667 L38.5990321,6.52666667 L38.5990321,7.94755556 C38.5990321,8.7517037 39.2321645,9.38207407 40.0390083,9.38207407 C40.8481378,9.38207407 41.4824131,8.7517037 41.4824131,7.94755556 L41.4824131,6.52666667 L49.7759904,6.52666667 L49.7759904,12.1852346 Z" id="Shape" fill="#4395B2" fill-rule="nonzero"></path>
                            <rect id="Rectangle" fill="#4395B2" x="19.5044904" y="20.0631605" width="2.64452775" height="20.2661235"></rect>
                            <rect id="Rectangle" fill="#4395B2" x="30.3580254" y="20.0631605" width="2.64452775" height="20.2661235"></rect>
                            <path d="M41.3612722,22.6755062 L41.3612722,37.7169383 L12.2543244,37.7169383 L12.2543244,22.6755062 L41.3612722,22.6755062 Z M43.9898002,20.0631605 L9.62579638,20.0631605 L9.62579638,40.329284 L43.9898002,40.329284 L43.9898002,20.0631605 Z" id="Shape" fill="#4395B2" fill-rule="nonzero"></path>
                            <rect id="Rectangle" fill="#4395B2" x="11.8749021" y="28.8815309" width="30.3160707" height="2.63165432"></rect>
                        </g>
                    </g>
                </g>
            </g>
        </g>
    </g>
</svg>