<?xml version="1.0" encoding="UTF-8"?>
<svg width="95px" height="95px" viewBox="0 0 95 95" version="1.1" xmlns="http://www.w3.org/2000/svg" xmlns:xlink="http://www.w3.org/1999/xlink">
    <!-- Generator: sketchtool 52.4 (67378) - http://www.bohemiancoding.com/sketch -->
    <title>F4D3233D-F3DA-4E8A-9546-27CCBEAE404A</title>
    <desc>Created with sketchtool.</desc>
    <g id="Page-1" stroke="none" stroke-width="1" fill="none" fill-rule="evenodd">
        <g id="главная_1280-" transform="translate(-717.000000, -6655.000000)">
            <g id="Group-111" transform="translate(717.000000, 6655.000000)">
                <g id="Group-95">
                    <path d="M46.1592578,94.9808499 C19.9792232,94.2414138 -0.719109396,72.3404689 0.0191511194,46.1592588 C0.757411635,19.9780487 22.6583566,-0.719108355 48.8395667,0.0191521605 C75.0207768,0.757412676 95.7191094,22.6595332 94.9808489,48.8395677 C94.2414128,75.0196022 72.3404679,95.7191104 46.1592578,94.9808499 Z" id="Shape" fill="#FFFFFF" fill-rule="nonzero"></path>
                    <g id="Group-90" transform="translate(19.000000, 15.000000)">
                        <g id="Group-91" fill="#6BACBC" fill-rule="nonzero">
                            <path d="M0,36.9952767 C0,22.5967001 10.0063704,10.9062839 23.5054815,9.21147954 L23.5054815,8.29458416 C21.2986667,8.2033095 19.5305185,6.37885364 19.5305185,4.1488479 C19.5305185,1.86075828 21.390963,0 23.6786667,0 L32.3202963,0 C34.608,0 36.4684444,1.86075828 36.4684444,4.1488479 C36.4684444,6.37885364 34.7002963,8.2033095 32.4934815,8.29458416 L32.4934815,9.21147954 C45.9936296,10.9052467 56,22.5967001 56,36.9952767 C56,52.4372886 43.4394074,65 28,65 C12.5605926,65 0,52.4372886 0,36.9952767 Z M22.6416296,4.14988511 C22.6416296,4.72138891 23.1072593,5.18709708 23.6786667,5.18709708 L25.061037,5.18709708 C25.9207407,5.18709708 26.6165926,5.88306632 26.6165926,6.74291504 L26.6165926,10.6220878 C26.6165926,11.4383737 25.9860741,12.1156731 25.170963,12.1737569 C12.3884444,13.0833918 3.11111111,23.5218932 3.11111111,36.9952767 C3.11111111,50.72174 14.2768889,61.8883641 28,61.8883641 C41.7231111,61.8883641 52.8888889,50.72174 52.8888889,36.9952767 C52.8888889,23.5218932 43.6105185,13.0833918 30.828,12.1737569 C30.0139259,12.1156731 29.3823704,11.4383737 29.3823704,10.6220878 L29.3823704,6.74291504 C29.3823704,5.88306632 30.0782222,5.18709708 30.9379259,5.18709708 L32.3202963,5.18709708 C32.8917037,5.18709708 33.3573333,4.72138891 33.3573333,4.14988511 C33.3573333,3.57838131 32.8917037,3.11267313 32.3202963,3.11267313 L23.6786667,3.11267313 C23.1072593,3.11267313 22.6416296,3.57838131 22.6416296,4.14988511 Z" id="Shape"></path>
                            <g id="Group-103" transform="translate(12.000000, 22.000000)">
                                <path d="M21.6,10.4522693 L21.6,12.4592319 C21.6,12.635966 21.5431448,12.7899307 21.4294345,12.921126 C21.3157241,13.0523213 21.1523947,13.1173768 20.9404799,13.1173768 L19.9501661,13.1173768 L19.9501661,16.9827586 L16.9792247,16.9827586 L16.9792247,13.1173768 L10.5328814,13.1173768 C10.3199329,13.1173768 10.127659,13.0490685 9.95605974,12.9102834 C9.78342675,12.7725826 9.67591878,12.5991012 9.63146837,12.3909236 L9.28,10.6257506 L16.6939151,0.172413793 L19.9501661,0.172413793 L19.9501661,10.4522693 L21.6,10.4522693 Z M16.9802584,10.4522693 L16.9802584,6.06752762 C16.9802584,5.7986315 16.989562,5.5080502 17.0081692,5.19686799 C17.0257426,4.88460153 17.0536533,4.56040822 17.0908676,4.22103528 L12.8556738,10.4522693 L16.9802584,10.4522693 Z" id="Shape"></path>
                                <path d="M7.04,20.3457978 L7.04,28.1896552 L5.5574476,28.1896552 L5.5574476,24.8600177 C4.83547275,25.0365894 4.15731719,25.1452489 3.52193759,25.1889068 C2.88655799,25.2325646 2.33151374,25.1879366 1.85680484,25.0530824 C1.38209595,24.9191984 1.00754541,24.6834461 0.733153237,24.3448553 C0.457717746,24.0072347 0.32,23.5376705 0.32,22.9400432 L0.32,20.3457978 L1.81089893,20.3457978 L1.81089893,22.7304856 C1.81089893,23.1078834 1.89332091,23.4037865 2.05607825,23.6201353 C2.2198789,23.8374543 2.45984164,23.9868611 2.77596646,24.0693259 C3.09209129,24.1517907 3.4843782,24.1750748 3.94969725,24.1382082 C4.41605962,24.1023118 4.95128086,24.0169365 5.55640429,23.8830524 L5.55640429,20.3448276 L7.04,20.3448276 L7.04,20.3457978 Z" id="Path"></path>
                                <path d="M9.70046103,21.5510743 C10.1715038,21.1464888 10.6794292,20.8442231 11.2221295,20.6452159 C11.7669374,20.4452699 12.3686498,20.3448276 13.0304281,20.3448276 C13.5067398,20.3448276 13.9303622,20.4152311 14.3012953,20.5550994 C14.6711745,20.6949677 14.9820417,20.8892813 15.2349506,21.1399178 C15.4868057,21.3896156 15.6775412,21.6918813 15.8061032,22.0457762 C15.935719,22.4006099 16,22.7901759 16,23.2144743 L16,28.0694999 L15.3350604,28.0694999 C15.188584,28.0694999 15.0768825,28.0479095 14.9989023,28.0066061 C14.9198683,27.964364 14.8576948,27.8808185 14.8134358,27.7550309 L14.6448299,27.0359764 C14.421427,27.220903 14.2022393,27.3851778 13.9893743,27.5269235 C13.7765093,27.669608 13.5509989,27.7888246 13.3160044,27.8864508 C13.0810099,27.9840769 12.8291548,28.059174 12.5636004,28.111742 C12.2980461,28.1643099 12.0019319,28.1896552 11.6763117,28.1896552 C11.3454226,28.1896552 11.0345554,28.1483518 10.7426564,28.065745 C10.4518112,27.9840769 10.1967947,27.8601668 9.98182217,27.6949532 C9.76579583,27.5297397 9.59508233,27.3213453 9.46862788,27.0688314 C9.34322722,26.8163175 9.28,26.5178067 9.28,26.1732989 C9.28,25.8738493 9.37167947,25.5856643 9.55714599,25.3078051 C9.74261251,25.0308847 10.041888,24.7849418 10.4570801,24.5699764 C10.8722722,24.3550111 11.412865,24.178533 12.080966,24.0414808 C12.7469594,23.9044287 13.5657519,23.8265155 14.5362898,23.8058638 L14.5362898,23.2144743 C14.5362898,22.6259011 14.3940285,22.1790735 14.1073985,21.8777465 C13.8207684,21.5764195 13.4034687,21.4252867 12.8544457,21.4252867 C12.4835126,21.4252867 12.174753,21.4656513 11.9250055,21.5482581 C11.6763117,21.6308649 11.4602854,21.7237975 11.2779802,21.8251786 C11.0956751,21.9274983 10.9386608,22.0204309 10.8069374,22.1030377 C10.6752141,22.1856445 10.5445445,22.2260092 10.4159824,22.2260092 C10.3137651,22.2260092 10.2273546,22.2025413 10.1546432,22.154667 C10.0808782,22.1067926 10.0197585,22.0485923 9.96917673,21.9781888 L9.70046103,21.5510743 Z M14.5362898,24.6525832 C13.8471131,24.6732349 13.2590999,24.7211093 12.7743578,24.7980838 C12.2896158,24.875997 11.8944457,24.9764393 11.5888474,25.1012882 C11.2832492,25.2270758 11.0619539,25.3744538 10.9239078,25.5434222 C10.7869155,25.7133293 10.7184193,25.9029494 10.7184193,26.1122825 C10.7184193,26.3122284 10.7542481,26.484013 10.8280132,26.6295136 C10.9007245,26.7731367 11.0008342,26.8923533 11.1262349,26.9843472 C11.2526894,27.0772798 11.4002195,27.1448672 11.5719868,27.1861706 C11.7427003,27.2293514 11.9260593,27.2509418 12.1231175,27.2509418 C12.3865642,27.2509418 12.6278814,27.227474 12.8470692,27.1795996 C13.0652031,27.1317252 13.2706915,27.0631991 13.4645884,26.9730827 C13.6584852,26.8829662 13.8428979,26.7759528 14.0199341,26.651104 C14.1959166,26.5262551 14.3687377,26.3826319 14.5373436,26.2230507 L14.5373436,24.6525832 L14.5362898,24.6525832 Z" id="Shape"></path>
                                <path d="M23.3579487,21.8187957 C23.3138462,21.8743993 23.2707692,21.9168089 23.2266667,21.9469668 C23.1825641,21.9761823 23.1230769,21.9922037 23.0471795,21.9922037 C22.9651282,21.9922037 22.8758974,21.9611033 22.7764103,21.8979602 C22.6779487,21.8357595 22.5569231,21.7660193 22.4123077,21.691567 C22.2676923,21.6161722 22.0902564,21.5473744 21.88,21.4842313 C21.6687179,21.4220306 21.4112821,21.3909303 21.105641,21.3909303 C20.6974359,21.3909303 20.3364103,21.4569007 20.025641,21.589784 C19.7148718,21.7226673 19.4533333,21.914924 19.2441026,22.1646693 C19.0328205,22.4153569 18.8758974,22.7188209 18.7692308,23.0750613 C18.6625641,23.4313017 18.6102564,23.8299516 18.6102564,24.2710111 C18.6102564,24.7328042 18.6676923,25.1418209 18.7815385,25.5008886 C18.8964103,25.8590138 19.0584615,26.1596505 19.2687179,26.4037412 C19.4779487,26.6468893 19.7323077,26.832549 20.0297436,26.9607201 C20.3271795,27.0888913 20.6615385,27.1520344 21.0328205,27.1520344 C21.3866667,27.1520344 21.6789744,27.1133946 21.9087179,27.0361149 C22.1384615,26.9578928 22.3271795,26.8721313 22.4779487,26.7769454 C22.6276923,26.680817 22.7528205,26.5950554 22.854359,26.5168333 C22.9548718,26.4386112 23.0553846,26.3999714 23.1528205,26.3999714 C23.2738462,26.3999714 23.3661538,26.442381 23.4307692,26.5272001 L23.84,27.0163238 C23.6594872,27.2217746 23.4553846,27.3980099 23.225641,27.5431449 C22.9969231,27.6892223 22.7497436,27.8098539 22.4851282,27.9078672 C22.2205128,28.0058804 21.9435897,28.0775054 21.654359,28.1217999 C21.3641026,28.1670367 21.0697436,28.1896552 20.7702564,28.1896552 C20.2512821,28.1896552 19.7692308,28.1020087 19.3251282,27.9267159 C18.88,27.7504805 18.494359,27.4969656 18.1671795,27.1633436 C17.84,26.8297217 17.5825641,26.4197625 17.3979487,25.9334662 C17.2123077,25.4462274 17.12,24.8930181 17.12,24.2710111 C17.12,23.7036653 17.2061538,23.180614 17.3774359,22.6990298 C17.5497436,22.2174456 17.8010256,21.8027743 18.1302564,21.4540734 C18.4605128,21.1053725 18.8676923,20.8330088 19.3497436,20.6379248 C19.8328205,20.4418984 20.3876923,20.3448276 21.0153846,20.3448276 C21.6,20.3448276 22.1138462,20.4305892 22.5589744,20.6039972 C23.0041026,20.7764627 23.3979487,21.0214958 23.7415385,21.3372115 L23.3579487,21.8187957 Z" id="Path"></path>
                                <path d="M25.379473,21.5510743 C25.8505897,21.1464888 26.3585947,20.8442231 26.9013802,20.6452159 C27.4462735,20.4452699 28.0480803,20.3448276 28.7099624,20.3448276 C29.1863488,20.3448276 29.6100376,20.4152311 29.9810289,20.5550994 C30.3499122,20.6949677 30.6618821,20.8892813 30.9148306,21.1399178 C31.1667252,21.3896156 31.3574906,21.6918813 31.4860728,22.0457762 C31.6157089,22.4006099 31.68,22.7901759 31.68,23.2144743 L31.68,28.0694999 L31.0149561,28.0694999 C30.8695107,28.0694999 30.7567378,28.0479095 30.6787453,28.0066061 C30.5996989,27.964364 30.5385696,27.8808185 30.4932497,27.7550309 L30.3246173,27.0359764 C30.1011794,27.220903 29.8819573,27.3851778 29.669059,27.5269235 C29.4561606,27.669608 29.2316688,27.7888246 28.9966374,27.8864508 C28.7605521,27.9840769 28.5097114,28.059174 28.2441154,28.111742 C27.9774655,28.1643099 27.6813049,28.1896552 27.3566876,28.1896552 C27.0257465,28.1896552 26.7148306,28.1483518 26.4228858,28.065745 C26.130941,27.9840769 25.8769385,27.8601668 25.6619322,27.6949532 C25.445872,27.5297397 25.2751317,27.3213453 25.1486575,27.0688314 C25.0221832,26.8163175 24.96,26.5178067 24.96,26.1732989 C24.96,25.8738493 25.0516939,25.5856643 25.2371895,25.3078051 C25.4226851,25.029946 25.7220075,24.7849418 26.1372647,24.5699764 C26.552522,24.3550111 27.0931995,24.178533 27.7614053,24.0414808 C28.4285571,23.9044287 29.247478,23.8265155 30.2181681,23.8058638 L30.2181681,23.2144743 C30.2181681,22.6259011 30.0748306,22.1790735 29.7892095,21.8777465 C29.5035885,21.5764195 29.0851694,21.4252867 28.5360602,21.4252867 C28.166123,21.4252867 27.856261,21.4656513 27.6064743,21.5482581 C27.3577415,21.6308649 27.1406274,21.7237975 26.9593476,21.8251786 C26.7770138,21.9274983 26.6199749,22.0204309 26.4882309,22.1030377 C26.3564868,22.1856445 26.2257967,22.2260092 26.0972146,22.2260092 C25.9960351,22.2260092 25.9085571,22.2025413 25.8358344,22.154667 C25.7631117,22.1067926 25.7009285,22.0485923 25.6503388,21.9781888 L25.379473,21.5510743 Z M30.2160602,24.6525832 C29.5257215,24.6732349 28.93867,24.7211093 28.4538519,24.7980838 C27.9690339,24.875997 27.5738018,24.9764393 27.2681556,25.1012882 C26.9614555,25.2270758 26.7411794,25.3744538 26.6031117,25.5434222 C26.4660979,25.7133293 26.397591,25.9029494 26.397591,26.1122825 C26.397591,26.3122284 26.4334253,26.484013 26.507202,26.6295136 C26.5799247,26.7731367 26.6800502,26.8923533 26.8065245,26.9843472 C26.9319448,27.0772798 27.0805521,27.1448672 27.2512923,27.1861706 C27.4230866,27.2293514 27.6054203,27.2509418 27.8025094,27.2509418 C28.0659975,27.2509418 28.3062986,27.227474 28.5265747,27.1795996 C28.7447428,27.1317252 28.9502635,27.0631991 29.1441907,26.9730827 C29.3381179,26.8829662 29.5225596,26.7759528 29.6996236,26.651104 C29.8766876,26.5262551 30.0484818,26.3826319 30.2171142,26.2230507 L30.2171142,24.6525832 L30.2160602,24.6525832 Z" id="Shape"></path>
                            </g>
                        </g>
                        <g id="Group-85" transform="translate(13.000000, 22.000000)"></g>
                    </g>
                </g>
                <g id="Group-42" transform="translate(24.000000, 24.000000)"></g>
            </g>
        </g>
    </g>
</svg>