<?xml version="1.0" encoding="UTF-8"?>
<svg width="95px" height="95px" viewBox="0 0 95 95" version="1.1" xmlns="http://www.w3.org/2000/svg" xmlns:xlink="http://www.w3.org/1999/xlink">
    <!-- Generator: sketchtool 52.4 (67378) - http://www.bohemiancoding.com/sketch -->
    <title>A56AC5E8-4B00-4B04-BBD4-C90AFCA3A90E</title>
    <desc>Created with sketchtool.</desc>
    <g id="Page-1" stroke="none" stroke-width="1" fill="none" fill-rule="evenodd">
        <g id="главная_1280-" transform="translate(-1121.000000, -6103.000000)">
            <g id="Group-41" transform="translate(1121.000000, 6103.000000)">
                <path d="M46.1592578,94.9808499 C19.9792232,94.2414138 -0.719109396,72.3404689 0.0191511194,46.1592588 C0.757411635,19.9780487 22.6583566,-0.719108355 48.8395667,0.0191521605 C75.0207768,0.757412676 95.7191094,22.6595332 94.9808489,48.8395677 C94.2414128,75.0196022 72.3404679,95.7191104 46.1592578,94.9808499 Z" id="Shape" fill="#FFFFFF" fill-rule="nonzero"></path>
                <g id="Group-37" transform="translate(19.000000, 20.000000)" fill="#00948F">
                    <path d="M34.1785696,50.0802404 C33.7216917,50.2078937 33.2547108,50.3216212 32.7922201,50.4191019 C31.5809885,50.6744085 30.798571,51.8963989 31.045532,53.1485618 C31.0601252,53.2205119 31.078086,53.2889805 31.0971693,53.3562886 C31.4283217,54.4877611 32.5441366,55.1933358 33.6880152,54.9531155 C34.2403099,54.837067 34.7970948,54.7001298 35.3426542,54.5481063 C36.5381702,54.2162077 37.2442542,52.9466375 36.9220823,51.7107213 C36.601033,50.4759657 35.3729631,49.7483418 34.1785696,50.0802404 Z" id="Path"></path>
                    <path d="M18.6473491,49.8475445 C18.2054816,49.6603769 17.7670482,49.459063 17.3400623,49.2468672 C16.2216566,48.6918937 14.8422516,49.1043152 14.2607264,50.1663822 C13.9722533,50.6887102 13.9310429,51.2730647 14.0981741,51.7964809 C14.2698843,52.3362199 14.6613835,52.8128442 15.2280271,53.0946838 C15.7362892,53.3471423 16.2605776,53.5876308 16.784866,53.8107084 C17.9364689,54.2993028 19.2861109,53.8096203 19.8012415,52.7149077 C20.3152273,51.619107 19.7978073,50.337227 18.6473491,49.8475445 Z" id="Path"></path>
                    <path d="M25.9525316,51.1935847 C25.4833308,51.1525313 25.0085442,51.0945736 24.5415777,51.0245414 C23.3227727,50.8361788 22.1955735,51.752635 22.0224161,53.0687579 C21.975496,53.4261637 22.0034246,53.7763248 22.0950305,54.1011295 C22.3374509,54.9717025 23.0278464,55.653913 23.9148594,55.790355 C24.4700804,55.8748767 25.0353557,55.9437015 25.5939281,55.9919996 C26.8205531,56.0994628 27.8941293,55.1117669 27.992438,53.7859845 C28.0929811,52.4614094 27.1791566,51.2998405 25.9525316,51.1935847 Z" id="Path"></path>
                    <path d="M41.3632772,46.3704457 C40.9607329,46.6224469 40.543064,46.8660129 40.1219049,47.0969261 C39.1958203,47.6019829 38.799093,48.6047156 39.0980927,49.5030629 C39.1527736,49.6675491 39.230723,49.8299264 39.3342676,49.9838686 C39.9939284,50.9771117 41.4202849,51.2965944 42.5173927,50.6987506 C43.0176646,50.4256614 43.5156096,50.1346475 43.9949399,49.8362528 C45.0501645,49.1772539 45.3177518,47.8687456 44.5906124,46.9124064 C43.8634731,45.9539584 42.4196652,45.7125011 41.3632772,46.3704457 Z" id="Path"></path>
                    <path d="M49.9741444,40.4440227 C48.8648602,39.6849314 47.3188109,39.9230314 46.5197292,40.9756223 C46.2132492,41.3787423 45.8906386,41.7771473 45.5605831,42.1602291 C45.0171083,42.789662 44.8756559,43.6065102 45.1064466,44.3302401 C45.2429357,44.7616492 45.5121915,45.1612329 45.9067691,45.4676984 C46.96518,46.2904402 48.5223967,46.143101 49.3884821,45.1388374 C49.7830597,44.680318 50.1689516,44.2041178 50.5325089,43.7243815 C51.3315906,42.6729694 51.080947,41.203114 49.9741444,40.4440227 Z" id="Path"></path>
                    <path d="M52.3765804,32.0910189 C51.1793089,31.7419514 49.9265872,32.4276601 49.5769115,33.6217196 C49.4422468,34.0792353 49.2940024,34.5390103 49.13331,34.986359 C48.9635645,35.4585604 48.9613013,35.9499661 49.095966,36.3961851 C49.2962657,37.0570411 49.7953174,37.6173566 50.4946688,37.8670133 C51.6681759,38.2872499 52.9593732,37.6783587 53.380342,36.5080223 C53.5715886,35.9736891 53.7503871,35.4280593 53.9088162,34.8835592 C54.2584919,33.6894997 53.5715886,32.4378271 52.3765804,32.0910189 Z" id="Path"></path>
                    <path d="M57.0023305,18.2324649 L54.0719003,19.1435582 C51.848931,12.3215512 47.1682896,6.71508152 40.8335534,3.31023407 C40.1965034,2.96773462 39.5493946,2.65209788 38.8944625,2.36332383 C38.889992,2.36108527 38.8866391,2.35884672 38.8821685,2.35660816 C38.8553454,2.34429609 38.826287,2.33422257 38.7983462,2.3219105 C33.0235434,-0.209899144 26.631808,-0.68895066 20.5049513,0.972059735 C20.4568932,0.982133248 20.408835,0.991087482 20.3607768,1.00451883 C20.1562502,1.0604828 19.9494884,1.12092387 19.7460794,1.18248423 C19.4119076,1.28321936 19.0743828,1.39290873 18.7446815,1.50595593 C18.7044467,1.51938728 18.6686825,1.53617647 18.630683,1.5507271 C13.1609937,3.44790542 8.50270502,6.94677233 5.18110376,11.6208824 C5.16880981,11.6365524 5.15539823,11.651103 5.14422191,11.6678922 C4.8189911,12.1245581 4.50381898,12.5991325 4.20764659,13.0759455 C4.18864685,13.1072853 4.17411764,13.1386251 4.15623553,13.1699649 C3.86006315,13.651255 3.57506707,14.1437379 3.30571785,14.645175 C0.552991092,19.7860245 -0.498700291,25.527927 0.218819228,31.2004342 C0.21993686,31.2127463 0.221054491,31.2250584 0.222172123,31.2384897 C0.223289755,31.2474439 0.225525018,31.2575175 0.22664265,31.2664717 C0.422228189,32.7819758 0.741870841,34.2930028 1.19115876,35.785002 C2.37137779,39.7024793 4.34064476,43.2237318 7.04307809,46.25474 C7.86341972,47.1736683 9.2716356,47.2542564 10.1892112,46.4327054 C11.1067868,45.6122737 11.1872562,44.1997433 10.3669146,43.2819344 C9.01681558,41.7686688 7.88912525,40.1076584 6.98496124,38.3190502 C6.97490256,38.2966646 6.96707913,38.2731597 6.95590282,38.2530127 C6.7435528,37.8310444 6.54126148,37.3978834 6.35461699,36.9647223 C6.35349936,36.9613645 6.35238173,36.9591259 6.35126409,36.9568874 C6.01038644,36.1588413 5.71421405,35.3384096 5.45939404,34.4967116 C2.53902253,24.7959184 6.26408883,14.6474135 13.994747,8.97266776 C14.1087454,8.88984109 14.2227438,8.80477587 14.3378599,8.72418776 C16.3227737,7.32285015 18.5613899,6.21140587 21.0112385,5.47044301 C23.4767339,4.72612231 25.9712877,4.4138434 28.4133129,4.48659655 C28.45243,4.48883511 28.4904295,4.48995439 28.5295466,4.49107367 C28.6781916,4.49555079 28.8268366,4.50338574 28.9754816,4.51233998 C29.0358337,4.51457854 29.0950682,4.51793637 29.1554203,4.52241349 C36.7698447,4.99922645 43.7919244,9.2345791 47.7326936,15.8886942 C47.7349289,15.8931713 47.7371641,15.8965291 47.7382817,15.9010063 C47.7963986,15.9995028 47.8545154,16.0979994 47.9115147,16.1987345 C47.9182204,16.2099273 47.9249262,16.2200008 47.9327497,16.2311936 C48.687151,17.555301 49.3219658,18.9723085 49.8148414,20.473262 L46.8855288,21.3854745 C46.071893,21.6384317 45.9925411,22.224934 46.7067077,22.6883156 L53.080561,26.8218138 C53.7947277,27.2863147 54.6474806,27.0199262 54.9727114,26.2341922 L57.8852595,19.2084764 C58.2127256,18.4160267 57.8148487,17.9783885 57.0023305,18.2324649 Z" id="Path"></path>
                    <path d="M19.6069528,27.3053851 C17.5300233,28.857396 16.1115269,30.2054533 15.3557884,31.3462849 C14.6011311,32.4871166 14.1481204,33.7053851 14,35 L27,35 L27,31.4368098 L20.2329508,31.4368098 C20.6308217,31.0430811 20.9757152,30.724608 21.2697937,30.4824813 C21.5649534,30.2381731 22.1477046,29.8139059 23.0202096,29.205317 C24.4884398,28.1604635 25.5004158,27.202863 26.0583001,26.3292434 C26.614022,25.4567144 26.8929641,24.5394683 26.8929641,23.5818678 C26.8929641,22.6798909 26.6507818,21.8662577 26.1642548,21.1398773 C25.6777279,20.4145876 25.0117265,19.875801 24.1640885,19.5256987 C23.3175316,19.1755965 22.1304059,19 20.6048736,19 C19.1442116,19 18.0014138,19.1843217 17.174318,19.5540559 C16.3493846,19.9226994 15.7082502,20.4505794 15.2541583,21.140968 C14.8000665,21.8324472 14.4886893,22.792229 14.3178643,24.0235855 L18.6587658,24.3780504 C18.779857,23.4913429 19.0155522,22.8718473 19.3658516,22.5217451 C19.7172322,22.1705521 20.1691617,21.9949557 20.7227212,21.9949557 C21.2546574,21.9949557 21.6957751,22.1661895 22.0471557,22.5053851 C22.3985363,22.8456714 22.5747671,23.2546694 22.5747671,23.7345603 C22.5747671,24.1773688 22.3974551,24.6463531 22.0417498,25.1415133 C21.6892881,25.6312202 20.8773287,26.3543286 19.6069528,27.3053851 Z" id="Path"></path>
                    <path d="M40.9887355,35 L40.9887355,32.0599782 L43,32.0599782 L43,28.6684842 L40.9887355,28.6684842 L40.9887355,19 L37.1083611,19 L29,28.4645583 L29,32.0599782 L37.1083611,32.0599782 L37.1083611,35 L40.9887355,35 Z M32.8248453,28.6684842 L37.1083611,23.7186478 L37.1083611,28.6684842 L32.8248453,28.6684842 Z" id="Shape" fill-rule="nonzero"></path>
                </g>
            </g>
        </g>
    </g>
</svg>