<?xml version="1.0" encoding="UTF-8"?>
<svg width="94px" height="92px" viewBox="0 0 94 92" version="1.1" xmlns="http://www.w3.org/2000/svg" xmlns:xlink="http://www.w3.org/1999/xlink">
    <!-- Generator: sketchtool 52.4 (67378) - http://www.bohemiancoding.com/sketch -->
    <title>169E8131-C94A-46EF-94D0-264048739506</title>
    <desc>Created with sketchtool.</desc>
    <g id="Page-1" stroke="none" stroke-width="1" fill="none" fill-rule="evenodd">
        <g id="главная_1280-" transform="translate(-314.000000, -6106.000000)">
            <g id="item10" transform="translate(40.000000, 5958.000000)">
                <g id="icon4" transform="translate(274.000000, 148.000000)">
                    <g id="Group-27">
                        <g id="Group-69">
                            <path d="M45.6733709,91.9814547 C19.7689156,91.2653692 -0.711539824,70.0560331 0.0189495287,44.701598 C0.749438881,19.347163 22.4198475,-0.69639967 48.325466,0.0185473554 C74.2310844,0.733494381 94.7115398,21.943969 93.9810505,47.2972656 C93.2493979,72.6505622 71.5789893,92.6964017 45.6733709,91.9814547 Z" id="Shape" fill="#FFFFFF"></path>
                            <g id="Group-51" transform="translate(22.478261, 23.000000)" fill="#00948F">
                                <path d="M2.07719565,44.278 C2.07719565,44.278 2.397,41.391 2.97428261,41.266 C3.55156522,41.14 3.8723913,40.325 3.80802174,39.948 C3.74365217,39.571 4.38428261,40.261 4.51302174,39.571 C4.64176087,38.881 4.83384783,38.442 5.21802174,38.128 C5.60219565,37.814 5.85865217,37.437 6.05176087,36.81 C6.24486957,36.183 6.37156522,35.806 6.88447826,35.744 C7.3973913,35.681 7.46176087,35.368 7.33302174,34.803 C7.20530435,34.238 6.67706522,33.485 7.39023913,32.858 C8.10341304,32.231 7.84593478,30.976 7.84593478,30.976 C7.84593478,30.976 8.61530435,31.917 8.93613043,30.976 C9.25695652,30.035 8.35986957,29.156 9.57778261,28.717 C10.7956957,28.278 11.1798696,28.278 12.0779783,27.273 C12.9750652,26.269 13.6167174,26.08 14.2583696,25.328 C14.9000217,24.576 16.8229348,21.124 16.8229348,21.124 C16.8229348,21.124 18.3616739,21.563 18.5537609,21.124 C18.7458478,20.685 19.8360435,20.057 20.1568696,19.806 C20.4776957,19.555 19.8360435,18.676 20.4776957,18.362 C21.1183261,18.049 21.5035217,18.237 22.0164348,17.358 C22.5293478,16.479 22.2085217,16.543 23.2343478,16.166 C24.2601739,15.789 26.6326522,15.224 26.9534783,14.346 C27.2743043,13.468 28.0651304,13.406 28.6321957,13.342 C29.1982391,13.279 29.7111522,12.401 30.4805217,12.338 C31.2498913,12.275 29.9676087,12.035 31.3776087,11.402 C32.7876087,10.769 33.1738261,10.204 34.5838261,9.639 C35.9938261,9.075 37.0196522,8.572 37.5969348,8.447 C38.1731957,8.322 39.0713043,6.564 40.0981522,6.439 C41.1239783,6.314 41.5725217,6.753 41.7002391,6.439 C41.8279565,6.126 42.2131522,5.058 43.0468913,5.121 C43.8806304,5.184 44.7143696,5.618 45.0351957,5.119 C45.355,4.619 46.5095652,4.306 46.5095652,4.306 L47.7274783,4.306 C47.7274783,4.306 46.7660217,4.431 46.5095652,5.247 C46.2531087,6.063 46.1253913,6.753 45.4193696,6.753 C44.7133478,6.753 44.5856304,7.003 44.457913,7.443 C44.3301957,7.882 44.2014565,8.008 43.5608261,8.008 C42.9201957,8.008 42.7924783,7.067 42.4072826,8.259 C42.0231087,9.451 42.8558261,8.886 41.83,9.137 C40.8041739,9.388 40.8041739,9.513 40.8041739,9.953 C40.8041739,10.392 40.2912609,10.455 40.0991739,10.455 C39.907087,10.455 38.4316957,10.843 38.2396087,11.402 C38.0475217,11.961 38.3673261,12.087 37.2137826,12.087 C36.0602391,12.087 35.2898478,12.4 35.2265,12.965 C35.1621304,13.529 34.5215,13.718 34.1363043,13.906 C33.7511087,14.094 32.9827609,14.659 32.5331957,14.659 C32.0836304,14.659 32.2767391,14.534 31.5717391,15.224 C30.8667391,15.914 31.4440217,15.789 30.4815435,16.165 C29.520087,16.541 28.9428043,19.114 27.6605217,19.428 C26.3782391,19.742 25.6088696,20.558 25.352413,21.123 C25.0959565,21.687 24.5840652,23.068 23.8780435,23.194 C23.1730435,23.319 23.8136739,24.26 22.916587,24.292 C22.0184783,24.323 20.0955652,24.261 20.0311957,24.826 C19.9668261,25.39 20.5441087,24.951 19.3261957,26.018 C18.1072609,27.085 17.5953696,27.336 16.8893478,28.277 C16.1833261,29.218 15.3506087,28.528 15.3506087,29.469 C15.3506087,30.41 15.2228913,30.034 14.3247826,30.473 C13.4266739,30.912 14.1326957,31.665 13.2989565,32.356 C12.4652174,33.046 10.0927391,34.678 10.2214783,36.372 C10.3491957,38.066 9.90065217,37.689 9.51647826,37.564 C9.13230435,37.439 9.38773913,38.128 8.16982609,39.07 C6.95191304,40.012 6.05482609,40.262 5.66963043,40.89 C5.28443478,41.518 5.09234783,41.894 4.2586087,42.459 C3.42486957,43.023 2.33569565,44.279 2.33569565,44.279 L2.07719565,44.279 L2.07719565,44.278 Z" id="Path"></path>
                                <path d="M16.2998043,45.131 C16.2998043,45.131 16.524587,43.104 16.9302174,43.016 C17.3348261,42.928 17.5616522,42.355 17.5156739,42.091 C17.4707174,41.826 17.9213043,42.311 18.0112174,41.826 C18.1011304,41.342 18.2370217,41.033 18.5067609,40.812 C18.7765,40.592 18.9563261,40.327 19.0922174,39.886 C19.227087,39.446 19.317,39.181 19.6776739,39.137 C20.0383478,39.093 20.0822826,38.873 19.9923696,38.476 C19.9024565,38.08 19.5315652,37.551 20.0322174,37.11 C20.5328696,36.669 20.3530435,35.788 20.3530435,35.788 C20.3530435,35.788 20.8925217,36.449 21.1183261,35.788 C21.3431087,35.127 20.7137174,34.51 21.5678913,34.201 C22.423087,33.893 22.6938478,33.893 23.3242609,33.187 C23.9546739,32.482 24.4052609,32.349 24.8558478,31.821 C25.3064348,31.293 26.6561522,28.868 26.6561522,28.868 C26.6561522,28.868 27.7371522,29.177 27.8720217,28.868 C28.0068913,28.559 28.7721739,28.119 28.9979783,27.943 C29.2227609,27.767 28.7721739,27.15 29.2227609,26.929 C29.6733478,26.708 29.943087,26.841 30.3037609,26.224 C30.6644348,25.607 30.4386304,25.651 31.1589565,25.387 C31.8803043,25.123 33.5447174,24.726 33.7705217,24.109 C33.9963261,23.492 34.5521522,23.448 34.948587,23.404 C35.3470652,23.36 35.7067174,22.743 36.2472174,22.699 C36.7877174,22.655 35.8865435,22.487 36.8776304,22.042 C37.8676957,21.597 38.1384565,21.201 39.1285217,20.804 C40.118587,20.407 40.8399348,20.054 41.2445435,19.967 C41.6491522,19.88 42.280587,18.645 43.000913,18.557 C43.7212391,18.469 44.0369565,18.777 44.1268696,18.557 C44.2167826,18.336 44.4875435,17.587 45.073,17.632 C45.6584565,17.676 46.243913,17.981 46.4686957,17.63 C46.6945,17.279 47.5047391,17.06 47.5047391,17.06 L48.3599348,17.06 C48.3599348,17.06 47.6845652,17.148 47.5047391,17.721 C47.324913,18.294 47.2339783,18.778 46.7394565,18.778 C46.243913,18.778 46.154,18.954 46.064087,19.263 C45.9741739,19.572 45.8832391,19.659 45.4336739,19.659 C44.983087,19.659 44.8931739,18.998 44.6234348,19.835 C44.3526739,20.672 44.9381304,20.276 44.2178043,20.452 C43.4974783,20.628 43.4974783,20.716 43.4974783,21.025 C43.4974783,21.334 43.1378261,21.378 43.0029565,21.378 C42.868087,21.378 41.8320435,21.65 41.6971739,22.043 C41.5623043,22.436 41.787087,22.524 40.9758261,22.524 C40.165587,22.524 39.625087,22.744 39.5801304,23.141 C39.5351739,23.538 39.084587,23.67 38.8148478,23.802 C38.544087,23.934 38.0046087,24.331 37.6888913,24.331 C37.3731739,24.331 37.5090652,24.243 37.0135217,24.727 C36.5179783,25.212 36.9236087,25.124 36.2482391,25.388 C35.5728696,25.653 35.1672391,27.459 34.267087,27.68 C33.3669348,27.9 32.8264348,28.473 32.6466087,28.869 C32.4667826,29.266 32.1061087,30.235 31.6105652,30.324 C31.1150217,30.413 31.5656087,31.073 30.9351957,31.095 C30.3047826,31.117 28.9540435,31.074 28.909087,31.47 C28.8641304,31.866 29.2687391,31.558 28.4135435,32.307 C27.5583478,33.056 27.1976739,33.233 26.7031522,33.894 C26.2076087,34.555 25.6221522,34.07 25.6221522,34.731 C25.6221522,35.392 25.5322391,35.127 24.9008043,35.436 C24.2703913,35.744 24.7659348,36.273 24.1804783,36.758 C23.5950217,37.242 21.9285652,38.388 22.0195,39.578 C22.109413,40.768 21.7936957,40.503 21.5239565,40.415 C21.2531957,40.327 21.4340435,40.811 20.5778261,41.473 C19.7226304,42.134 19.0922174,42.31 18.8224783,42.751 C18.5527391,43.192 18.4178696,43.456 17.8313913,43.853 C17.2459348,44.249 16.4806522,45.131 16.4806522,45.131 L16.2998043,45.131 Z" id="Path"></path>
                                <path d="M0.26973913,28.56 C0.26973913,28.56 0.494521739,26.533 0.900152174,26.445 C1.30476087,26.357 1.53056522,25.784 1.4856087,25.52 C1.44065217,25.256 1.89021739,25.74 1.98115217,25.255 C2.07208696,24.77 2.20593478,24.463 2.47567391,24.241 C2.74643478,24.021 2.92626087,23.756 3.06113043,23.316 C3.196,22.876 3.28591304,22.61 3.64658696,22.567 C4.00726087,22.523 4.05119565,22.303 3.96128261,21.906 C3.87136957,21.509 3.50047826,20.98 4.00215217,20.54 C4.50280435,20.099 4.32195652,19.218 4.32195652,19.218 C4.32195652,19.218 4.86245652,19.879 5.08723913,19.218 C5.31202174,18.557 4.68263043,17.94 5.53782609,17.631 C6.39302174,17.323 6.66378261,17.323 7.29317391,16.617 C7.9246087,15.912 8.37417391,15.78 8.82476087,15.251 C9.27534783,14.723 10.626087,12.298 10.626087,12.298 C10.626087,12.298 11.707087,12.607 11.8419565,12.298 C11.9768261,11.989 12.7421087,11.549 12.967913,11.373 C13.1926957,11.197 12.7431304,10.579 13.1926957,10.359 C13.6432826,10.139 13.9140435,10.271 14.2736957,9.654 C14.6333478,9.037 14.4085652,9.081 15.1288913,8.817 C15.8492174,8.553 17.5146522,8.156 17.7404565,7.539 C17.9662609,6.922 18.5210652,6.878 18.9185217,6.834 C19.3159783,6.79 19.6766522,6.173 20.2171522,6.129 C20.7576522,6.085 19.8564783,5.917 20.8475652,5.472 C21.8376304,5.027 22.1083913,4.631 23.0984565,4.234 C24.0895435,3.838 24.8098696,3.484 25.2144783,3.397 C25.6201087,3.309 26.2505217,2.075 26.9708478,1.987 C27.6911739,1.899 28.0058696,2.207 28.0957826,1.987 C28.1856957,1.767 28.4564565,1.017 29.041913,1.062 C29.6273696,1.106 30.2128261,1.411 30.4376087,1.06 C30.6623913,0.709 31.4726304,0.49 31.4726304,0.49 L32.3278261,0.49 C32.3278261,0.49 31.6524565,0.578 31.4726304,1.151 C31.2928043,1.724 31.2028913,2.208 30.7073478,2.208 C30.2118043,2.208 30.1218913,2.384 30.0319783,2.693 C29.9420652,3.002 29.8521522,3.09 29.4015652,3.09 C28.9509783,3.09 28.8610652,2.429 28.5913261,3.266 C28.321587,4.103 28.9070435,3.707 28.1856957,3.883 C27.4653696,4.059 27.4653696,4.147 27.4653696,4.456 C27.4653696,4.765 27.1046957,4.809 26.9708478,4.809 C26.8349565,4.809 25.7999348,5.081 25.6650652,5.474 C25.5301957,5.867 25.7549783,5.955 24.9447391,5.955 C24.1345,5.955 23.594,6.175 23.5490435,6.572 C23.504087,6.968 23.0545217,7.101 22.7837609,7.233 C22.513,7.365 21.9735217,7.761 21.6578043,7.761 C21.342087,7.761 21.4779783,7.673 20.9824348,8.157 C20.4868913,8.642 20.8925217,8.554 20.2171522,8.818 C19.5417826,9.083 19.1361522,10.889 18.236,11.11 C17.3348261,11.33 16.7953478,11.903 16.6155217,12.299 C16.4356957,12.696 16.0750217,13.665 15.5794783,13.754 C15.0839348,13.843 15.5355435,14.503 14.9041087,14.525 C14.2736957,14.547 12.9239783,14.504 12.878,14.9 C12.8330435,15.296 13.2386739,14.988 12.3824565,15.737 C11.5262391,16.486 11.166587,16.663 10.6720652,17.324 C10.1765217,17.985 9.59106522,17.5 9.59106522,18.161 C9.59106522,18.822 9.50115217,18.557 8.86971739,18.866 C8.23930435,19.175 8.73484783,19.703 8.1493913,20.188 C7.56393478,20.672 5.8985,21.819 5.98841304,23.008 C6.07832609,24.198 5.7626087,23.933 5.49286957,23.845 C5.22313043,23.757 5.40295652,24.241 4.54776087,24.903 C3.69256522,25.565 3.06215217,25.74 2.7913913,26.181 C2.52063043,26.622 2.38678261,26.886 1.80030435,27.283 C1.21484783,27.679 0.449565217,28.561 0.449565217,28.561 L0.26973913,28.561 L0.26973913,28.56 Z" id="Path"></path>
                            </g>
                        </g>
                    </g>
                </g>
            </g>
        </g>
    </g>
</svg>