<?xml version="1.0" encoding="UTF-8"?>
<svg width="93px" height="92px" viewBox="0 0 93 92" version="1.1" xmlns="http://www.w3.org/2000/svg" xmlns:xlink="http://www.w3.org/1999/xlink">
    <!-- Generator: sketchtool 52.4 (67378) - http://www.bohemiancoding.com/sketch -->
    <title>0C38A9A5-697E-4F7A-ADA4-65734C6BC9F3</title>
    <desc>Created with sketchtool.</desc>
    <g id="Page-1" stroke="none" stroke-width="1" fill="none" fill-rule="evenodd">
        <g id="главная_1280-" transform="translate(-1123.000000, -7210.000000)">
            <g id="Group-56" transform="translate(1123.000000, 7210.000000)">
                <g id="Group-114">
                    <path d="M44.8738769,91.7674919 C19.4228687,91.0530721 -0.699084606,69.8930721 0.0186178249,44.5976153 C0.736320256,19.3021585 22.0273972,-0.694779739 47.4795482,0.0185042114 C72.9316992,0.731788162 93.0536526,21.892924 92.3359501,47.187245 C91.615962,72.4815659 70.326028,92.4807758 44.8738769,91.7674919 Z" id="Path" fill="#FFFFFF" fill-rule="nonzero"></path>
                    <path d="M32.2131822,47.38 C32.3160377,48.5498765 32.9800267,49.6516049 34.094294,50.2694815 C35.013136,50.784 35.9662631,51.1610864 36.9353899,51.4132346 C36.3868276,53.2464198 35.3857012,55.9053333 33.5971594,58.7425679 C31.8977589,61.4469136 31.8771878,64.7078025 33.5400174,67.6904198 C35.9971197,72.0848395 41.4141731,75.0413333 47.0220805,75.0413333 C50.8780168,75.0413333 54.3042459,73.2797037 56.6676354,70.0756049 C60.0515795,65.4971852 60.8024243,58.7380247 58.6733166,52.0004444 C56.6984921,45.7580741 59.3361628,42.4267654 61.0835625,40.9945185 C62.5086818,42.3529383 64.43665,43.1968395 66.5726147,43.1968395 C70.9416854,43.1968395 74.4867697,39.669037 74.4867697,35.3268642 C74.4867697,30.9790123 70.9416854,27.4557531 66.5726147,27.4557531 C62.1978298,27.4557531 58.6516027,30.9790123 58.6516027,35.3268642 C58.6516027,35.9345185 58.7293157,36.5319506 58.8653134,37.1032593 C55.5693679,39.4986667 51.7591451,44.8925926 54.4231011,53.3236543 C56.1019305,58.6448889 55.589939,64.0581235 53.0745519,67.453037 C52.0128552,68.8955062 50.0951726,70.6151111 47.0220805,70.6151111 C43.0461461,70.6151111 39.1033541,68.528642 37.4382388,65.5414815 C36.8211061,64.4386173 36.3136859,62.7746667 37.3708113,61.0914074 C39.7387722,57.3262222 40.920467,53.8177284 41.4816006,51.6699259 C42.7970074,51.4745679 44.0827004,51.0520494 45.3158229,50.3966914 C46.4140905,49.8094815 47.0883651,48.754321 47.2392197,47.6105679 C52.4688476,42.9140247 54.8836649,34.4443457 55.0230912,33.9502716 C55.3088007,32.930321 54.826523,31.8899259 53.9248236,31.4117531 C54.6505259,25.0546667 52.2814222,21.8517037 50.8517315,20.5478025 C50.961444,19.9344691 50.7168766,19.2802469 50.1774569,18.9304198 L47.5500717,17.2255802 C46.8655116,16.7826173 46.0003831,17.0097778 45.6266749,17.7310123 L44.3775527,20.136642 C43.9992733,20.8578765 44.3306964,21.6359012 45.1192548,21.8630617 L48.0894914,22.7330864 C48.841479,22.9545679 49.7420355,22.5979259 50.1683142,21.9448395 C51.3488661,23.1817284 53.0539808,25.938321 52.4642763,31.1970864 C51.660861,31.3515556 50.9648725,31.9319506 50.7317335,32.7724444 C50.0231738,35.3177778 47.9592078,40.5708642 44.9009726,43.7249877 C43.930703,43.3479012 42.8118643,43.3638025 41.817595,43.889679 C41.1696057,44.234963 40.5376161,44.4087407 39.888484,44.418963 L39.7547719,44.418963 C39.0747832,44.4087407 38.4062228,44.2133827 37.7239483,43.8374321 C36.7536786,43.2956543 35.6508397,43.251358 34.6817129,43.5898272 C31.6897623,40.4277531 29.6737956,35.2825679 28.9743786,32.7724444 C28.7355254,31.9330864 28.0418225,31.3515556 27.2372644,31.1970864 C26.6521312,25.938321 28.3526746,23.1817284 29.5389407,21.9448395 C29.9640765,22.5990617 30.8669187,22.9557037 31.6166206,22.7387654 L34.5857145,21.8676049 C35.3685587,21.6359012 35.705696,20.8578765 35.3274165,20.136642 L34.0794371,17.7310123 C33.7000148,17.0097778 32.8406004,16.7826173 32.1548975,17.2323951 L29.5275123,18.9360988 C28.9892355,19.2870617 28.7400967,19.941284 28.8486664,20.5489383 C27.4224042,21.8573827 25.0544433,25.0558025 25.7755743,31.4174321 C24.8773034,31.8910617 24.3961685,32.9371358 24.6773067,33.9514074 C24.816733,34.4352593 27.1606942,42.6368889 32.2131822,47.38 Z" id="Path" fill="#4395B2"></path>
                    <path d="M66.5714719,32.2522469 C68.2754437,32.2522469 69.6594209,33.6277037 69.6594209,35.328 C69.6594209,37.0226173 68.2754437,38.4037531 66.5714719,38.4037531 C64.860643,38.4037531 63.4766658,37.0237531 63.4766658,35.328 C63.4766658,33.6265679 64.860643,32.2522469 66.5714719,32.2522469 Z" id="Path" fill="#FFFFFF" fill-rule="nonzero"></path>
                </g>
            </g>
        </g>
    </g>
</svg>