<?xml version="1.0" encoding="UTF-8"?>
<svg width="95px" height="95px" viewBox="0 0 95 95" version="1.1" xmlns="http://www.w3.org/2000/svg" xmlns:xlink="http://www.w3.org/1999/xlink">
    <!-- Generator: sketchtool 52.4 (67378) - http://www.bohemiancoding.com/sketch -->
    <title>1BCC36EF-803A-45D7-A9C6-AE43CD3BF9B5</title>
    <desc>Created with sketchtool.</desc>
    <g id="Page-1" stroke="none" stroke-width="1" fill="none" fill-rule="evenodd">
        <g id="главная_1280-" transform="translate(-1121.000000, -6655.000000)">
            <g id="Group-54" transform="translate(1121.000000, 6655.000000)">
                <g id="Group-96">
                    <g id="Group-112">
                        <path d="M46.0677078,94.7924696 C19.9395974,94.0545001 -0.71768315,72.1969924 0.0191131361,46.0677088 C0.755909423,19.9384252 22.6134171,-0.717682111 48.7427007,0.019114175 C74.8719843,0.755910462 95.5292649,22.6145914 94.7924686,48.7427017 C94.0544991,74.8708121 72.1969914,95.5292659 46.0677078,94.7924696 Z" id="Shape" fill="#FFFFFF" fill-rule="nonzero"></path>
                        <path d="M49.294,45.484 L49.294,25 L34.863,25 L34.863,37.384 L46.464,37.384 L46.464,45.483 L25,68.676 L25,70.759 L70.759,70.759 L70.759,68.676 L49.294,45.484 Z M54.711,55.504 L52.357,57.199 L47.878,53.973 L43.4,57.199 L41.046,55.504 L47.878,48.122 L54.711,55.504 Z M37.694,34.553 L37.694,27.83 L46.465,27.83 L46.465,34.553 L37.694,34.553 Z M29.548,67.928 L39.11,57.596 L43.401,60.687 L47.88,57.46 L52.359,60.686 L56.65,57.596 L66.212,67.927 L29.548,67.927 L29.548,67.928 Z" id="Shape" fill="#90C6C2"></path>
                    </g>
                </g>
            </g>
        </g>
    </g>
</svg>