<?xml version="1.0" encoding="UTF-8"?>
<svg width="95px" height="95px" viewBox="0 0 95 95" version="1.1" xmlns="http://www.w3.org/2000/svg" xmlns:xlink="http://www.w3.org/1999/xlink">
    <!-- Generator: sketchtool 52.4 (67378) - http://www.bohemiancoding.com/sketch -->
    <title>DEF49847-D8F5-4BC5-94D1-D8BD5E227D54</title>
    <desc>Created with sketchtool.</desc>
    <g id="Page-1" stroke="none" stroke-width="1" fill="none" fill-rule="evenodd">
        <g id="главная_1280-" transform="translate(-1121.000000, -6931.000000)">
            <g id="Group-104" transform="translate(1121.000000, 6931.000000)">
                <path d="M46.0518843,94.7599101 C19.9327485,94.022194 -0.717436639,72.172194 0.019106571,46.0518854 C0.755649781,19.9315767 22.6056498,-0.7174356 48.7259584,0.0191076096 C74.8462671,0.75565082 95.4964523,22.6068237 94.759909,48.7259595 C94.022193,74.8450953 72.172193,95.4964533 46.0518843,94.7599101 Z" id="Shape" fill="#FFFFFF" fill-rule="nonzero"></path>
                <g id="Group-45" transform="translate(14.074074, 19.765432)" fill="#00948F">
                    <g id="Group-113">
                        <path d="M64.6961728,11.8167901 C64.0452469,11.1646914 63.1796914,10.8081481 62.2590123,10.809321 C60.522037,10.8081481 59.1099383,12.1440123 58.827284,14.0674691 L56.6164815,30.0251235 L50.3640741,36.2787037 C50.3640741,36.2787037 50.3629012,36.2787037 50.3629012,36.2787037 C50.1318519,36.5109259 49.7541975,36.5109259 49.5231481,36.2810494 C49.3718519,36.1297531 49.3483951,35.9514815 49.3483951,35.86 C49.3483951,35.7685185 49.3718519,35.5925926 49.5219753,35.443642 C49.5219753,35.443642 49.5219753,35.443642 49.5219753,35.443642 L54.2496914,30.7159259 C54.2496914,30.7159259 54.2496914,30.7159259 54.2496914,30.7147531 C54.2637654,30.700679 54.274321,30.6866049 54.2883951,30.6725309 C54.3071605,30.6514198 54.3270988,30.6314815 54.3435185,30.6103704 C54.9862346,29.9160494 55.3111111,29.0317284 55.3111111,28.1462346 C55.3111111,27.2161728 54.9569136,26.2837654 54.2485185,25.5741975 C52.8305556,24.1574074 50.5235802,24.1574074 49.1067901,25.5741975 L36.129321,38.5528395 C35.8701235,38.8108642 35.7258642,39.1615432 35.7258642,39.5262963 L35.7258642,53.4103704 C35.7258642,54.1703704 36.3427778,54.787284 37.1027778,54.787284 C37.8627778,54.787284 38.4808642,54.1703704 38.4808642,53.4103704 L38.4808642,40.0962963 L51.0560494,27.5211111 C51.3996914,27.1774691 51.9603086,27.1774691 52.3027778,27.5199383 C52.6464198,27.8635802 52.6464198,28.4241975 52.3027778,28.7690123 C52.3027778,28.7690123 52.3027778,28.7690123 52.3016049,28.7701852 L47.5785802,33.4932099 C47.5785802,33.4932099 47.5785802,33.4932099 47.5785802,33.4932099 C47.5785802,33.4932099 47.5785802,33.4932099 47.5762346,33.4932099 C47.5762346,33.4932099 47.5762346,33.4943827 47.5750617,33.4943827 C46.9440741,34.1253704 46.5969136,34.9651235 46.5969136,35.8588272 C46.5969136,36.7525309 46.9440741,37.5934568 47.5774074,38.2267901 C48.8487654,39.4958025 50.8941975,39.5239506 52.2054321,38.3217901 C52.2159877,38.3135802 52.2241975,38.3030247 52.2335802,38.2948148 C52.2582099,38.271358 52.2840123,38.2525926 52.308642,38.227963 C52.308642,38.227963 52.308642,38.227963 52.308642,38.2267901 L58.8906173,31.6448148 C59.1029012,31.4325309 59.2389506,31.1569136 59.2811728,30.861358 L61.5541358,14.4568519 C61.5998765,14.1483951 61.8051235,13.5631481 62.261358,13.5631481 C62.51,13.5631481 62.6741975,13.6898148 62.7504321,13.7648765 C62.8266667,13.8411111 62.9533333,14.0064815 62.9533333,14.2562963 L62.9533333,32.6018519 L48.3491358,47.2037037 C48.0911111,47.4617284 47.945679,47.8112346 47.945679,48.1771605 L47.945679,53.4091975 C47.945679,54.1691975 48.5625926,54.7861111 49.3225926,54.7861111 C50.0837654,54.7861111 50.6995062,54.1691975 50.6995062,53.4091975 L50.6995062,48.7471605 L65.3037037,34.1453086 C65.5617284,33.8861111 65.7071605,33.5354321 65.7071605,33.1695062 L65.7071605,14.2551235 C65.7071605,13.3332716 65.3482716,12.4688889 64.6961728,11.8167901 Z" id="Path"></path>
                        <path d="M16.778642,25.5718519 C15.3618519,24.1550617 13.0548765,24.1550617 11.6369136,25.5718519 C10.9285185,26.2814198 10.574321,27.2138272 10.574321,28.1438889 C10.574321,29.0293827 10.8980247,29.9137037 11.5407407,30.6080247 C11.5571605,30.6291358 11.5770988,30.6502469 11.5958642,30.6701852 C11.6099383,30.6842593 11.6204938,30.6983333 11.6345679,30.7124074 C11.6357407,30.7135802 11.6357407,30.7135802 11.6357407,30.7135802 L16.362284,35.4412963 C16.5135802,35.5902469 16.5358642,35.7673457 16.5358642,35.8576543 C16.5358642,35.947963 16.5124074,36.1262346 16.3611111,36.2787037 C16.1312346,36.5085802 15.7535802,36.5085802 15.521358,36.276358 C15.521358,36.276358 15.5201852,36.276358 15.5201852,36.276358 L9.26777778,30.0227778 L7.05697531,14.0651235 C6.77549383,12.1416667 5.36339506,10.8058025 3.62524691,10.8069753 C2.70574074,10.8058025 1.84018519,11.1623457 1.18808642,11.8144444 C0.535987654,12.4665432 0.177098765,13.3297531 0.177098765,14.2527778 L0.177098765,33.1683333 C0.177098765,33.5342593 0.322530864,33.8849383 0.580555556,34.1441358 L15.1847531,48.7459877 L15.1847531,53.4080247 C15.1847531,54.1680247 15.8004938,54.7849383 16.5616667,54.7849383 C17.3216667,54.7849383 17.9385802,54.1680247 17.9385802,53.4080247 L17.9385802,48.1771605 C17.9385802,47.8112346 17.7931481,47.4617284 17.5351235,47.2037037 L2.9332716,32.6018519 L2.9332716,14.2551235 C2.9332716,14.0053086 3.05993827,13.8399383 3.13617284,13.7637037 C3.21006173,13.6898148 3.37660494,13.5619753 3.62407407,13.5619753 C4.08030864,13.5619753 4.2867284,14.1472222 4.3312963,14.455679 L6.60425926,30.8601852 C6.64648148,31.1557407 6.78253086,31.431358 6.99481481,31.643642 L13.5767901,38.2256173 C13.5767901,38.2267901 13.5767901,38.2267901 13.5767901,38.2267901 C13.6014198,38.2514198 13.6272222,38.271358 13.6518519,38.2948148 C13.6612346,38.3030247 13.6706173,38.3135802 13.68,38.3217901 C14.9912346,39.5239506 17.0366667,39.4958025 18.3080247,38.2267901 C18.9425309,37.5934568 19.2885185,36.7525309 19.2885185,35.8588272 C19.2885185,34.9651235 18.941358,34.1253704 18.3103704,33.4943827 C18.3091975,33.4943827 18.3091975,33.4932099 18.3091975,33.4932099 C18.3080247,33.4932099 18.3080247,33.4932099 18.3080247,33.4932099 C18.3080247,33.4932099 18.3080247,33.4932099 18.3080247,33.492037 L13.5861728,28.7690123 C13.585,28.7690123 13.5838272,28.7690123 13.5838272,28.7690123 C13.2401852,28.4241975 13.2401852,27.8635802 13.5838272,27.5199383 C13.9262963,27.1774691 14.4869136,27.1774691 14.8305556,27.5211111 L27.4069136,40.0962963 L27.4069136,53.4103704 C27.4069136,54.1703704 28.0238272,54.787284 28.7838272,54.787284 C29.545,54.787284 30.1619136,54.1703704 30.1619136,53.4103704 L30.1619136,39.5251235 C30.1619136,39.1603704 30.0164815,38.8096914 29.7584568,38.5516667 L16.778642,25.5718519 Z" id="Path"></path>
                        <path d="M50.386358,10.3589506 C50.386358,4.57333333 45.8533333,0.0391358025 40.067716,0.0391358025 C37.5015432,0.0391358025 34.9658642,0.992654321 33.001358,2.64753086 C31.0345062,0.991481481 28.5,0.0391358025 25.9338272,0.0391358025 C20.1482099,0.0391358025 15.6151852,4.57333333 15.6151852,10.3589506 C15.6151852,17.2294444 21.4969753,22.4415432 29.6446914,29.6474691 L31.8074074,31.804321 C32.1381481,32.132716 32.5685802,32.2969136 33.001358,32.2969136 C33.4317901,32.2969136 33.8633951,32.132716 34.192963,31.804321 L36.3580247,29.6474691 C44.5057407,22.4438889 50.386358,17.2294444 50.386358,10.3589506 Z M34.0815432,27.149321 C34.0569136,27.1716049 34.032284,27.1950617 34.0076543,27.2196914 L33.001358,28.2224691 L31.9962346,27.2196914 C31.9716049,27.1962346 31.9469753,27.1716049 31.9223457,27.149321 C23.6655556,19.8483951 18.9953086,15.4690123 18.9953086,10.3589506 C18.9953086,6.40179012 21.9778395,3.41925926 25.935,3.41925926 C28.090679,3.41925926 30.305,4.45253086 31.7124074,6.11561728 C32.0337654,6.49561728 32.5052469,6.71493827 33.0025309,6.71493827 C33.4998148,6.71493827 33.9712963,6.49561728 34.2926543,6.11561728 C35.7000617,4.45253086 37.9132099,3.41925926 40.0700617,3.41925926 C44.0272222,3.41925926 47.0097531,6.40179012 47.0097531,10.3589506 C47.0085802,15.4690123 42.3371605,19.8495679 34.0815432,27.149321 Z" id="Shape" fill-rule="nonzero"></path>
                    </g>
                </g>
            </g>
        </g>
    </g>
</svg>