<?xml version="1.0" encoding="UTF-8"?>
<svg width="92px" height="92px" viewBox="0 0 92 92" version="1.1" xmlns="http://www.w3.org/2000/svg" xmlns:xlink="http://www.w3.org/1999/xlink">
    <!-- Generator: sketchtool 52.4 (67378) - http://www.bohemiancoding.com/sketch -->
    <title>3CB82B0E-750D-4F55-A28C-76F887488F83</title>
    <desc>Created with sketchtool.</desc>
    <g id="Page-1" stroke="none" stroke-width="1" fill="none" fill-rule="evenodd">
        <g id="главная_1280-" transform="translate(-316.000000, -6658.000000)">
            <g id="item10" transform="translate(40.000000, 6510.000000)">
                <g id="icon4" transform="translate(276.000000, 148.000000)">
                    <g id="Group-22">
                        <g id="Group-84">
                            <g id="Group-115">
                                <path d="M44.701597,91.9814547 C19.3483004,91.2653692 -0.696400678,70.0560331 0.0185463472,44.701598 C0.733493373,19.347163 21.9428295,-0.69639967 47.2972646,0.0185473554 C72.6516996,0.733494381 92.6964007,21.943969 91.9814537,47.2972656 C91.2653682,72.6505622 70.0560321,92.6964017 44.701597,91.9814547 Z" id="Shape" fill="#FFFFFF"></path>
                                <ellipse id="Oval" fill="#90C6C2" cx="26.5389902" cy="72.4338769" rx="2.00339548" ry="1.99799923"></ellipse>
                                <path d="M31.0943436,60.6373612 C28.6440983,60.6373612 26.6498455,62.6251026 26.6498455,65.0676082 C26.6498455,67.5112536 28.6440983,69.5001347 31.0943436,69.5001347 C33.543446,69.5001347 35.5365559,67.5112536 35.5365559,65.0676082 C35.5376987,62.6251026 33.5445888,60.6373612 31.0943436,60.6373612 Z M31.0943436,66.5458769 C30.2772142,66.5458769 29.6132252,65.8836763 29.6132252,65.068748 C29.6132252,64.2549593 30.2772142,63.5927588 31.0943436,63.5927588 C31.9103301,63.5927588 32.5743191,64.2560991 32.5743191,65.068748 C32.5754619,65.8825366 31.9103301,66.5458769 31.0943436,66.5458769 Z" id="Shape" fill="#90C6C2"></path>
                                <path d="M60.3338606,38.2444971 L56.9876302,38.2444971 L61.8264074,33.4187534 C63.1509569,32.0989113 62.2138295,29.82623 60.3338606,29.82623 L51.8928572,29.82623 C50.7260193,29.82623 49.7820349,30.7688115 49.7820349,31.9302269 C49.7820349,33.092782 50.7271621,34.0365033 51.8928572,34.0365033 L55.2390876,34.0365033 L50.4003104,38.8611072 C49.0769037,40.182089 50.0140311,42.4536307 51.8928572,42.4536307 L60.3338606,42.4536307 C61.4995556,42.4536307 62.4446829,41.5110492 62.4446829,40.3496338 C62.4446829,39.1870786 61.4995556,38.2444971 60.3338606,38.2444971 Z" id="Path" fill="#90C6C2"></path>
                                <path d="M43.4518537,42.4536307 L40.1056233,42.4536307 L44.9444005,37.627887 C46.2700929,36.3057654 45.3306798,34.0353635 43.4518537,34.0353635 L35.0108503,34.0353635 C33.8451553,34.0353635 32.9011709,34.977945 32.9011709,36.1405002 C32.9011709,37.3030554 33.8462981,38.2456369 35.0108503,38.2456369 L38.3570807,38.2456369 L33.5183035,43.0702408 C32.1926111,44.3912226 33.1320242,46.663904 35.0108503,46.663904 L43.4518537,46.663904 C44.6186916,46.663904 45.562676,45.7213225 45.562676,44.5587673 C45.562676,43.3962122 44.6175488,42.4536307 43.4518537,42.4536307 Z" id="Path" fill="#90C6C2"></path>
                                <path d="M70.2982674,28.7354797 C68.8982906,22.7004506 62.5463955,18.9506403 56.4482105,20.9326829 C54.4562434,18.111777 51.1865831,16.3713635 47.6723554,16.3713635 C44.1581278,16.3713635 40.8884675,18.111777 38.8965004,20.9326829 C32.7948869,18.9483608 26.4441346,22.7061494 25.0464434,28.7354797 C20.2488084,29.8421866 16.69001,34.1641564 16.69001,39.2098738 C16.69001,44.2544514 20.2488084,48.577561 25.0464434,49.6831281 C26.4464203,55.7170174 32.7971726,59.4691072 38.8965004,57.4859249 C40.8884675,60.3056911 44.1581278,62.0472443 47.6723554,62.0472443 C51.1865831,62.0472443 54.4562434,60.3056911 56.4482105,57.4859249 C62.5486812,59.4691072 68.8994334,55.7135981 70.2982674,49.6831281 C75.0959025,48.577561 78.6547008,44.2544514 78.6547008,39.2098738 C78.6547008,34.1641564 75.0959025,29.8421866 70.2982674,28.7354797 Z M68.379442,45.9082431 C67.3806013,45.9823275 66.5863288,46.7744607 66.5120443,47.7694712 C66.1566216,52.584957 60.8698517,55.5152799 56.5682085,53.1673744 C55.5373684,52.6043329 54.2482468,53.0340225 53.7613977,54.0939992 C52.6654158,56.4772373 50.275741,58.0159133 47.6712126,58.0159133 C45.0666842,58.0159133 42.6770094,56.4760976 41.5821703,54.0939992 C41.0941784,53.0328827 39.803914,52.6043329 38.7753595,53.1673744 C34.4782877,55.5130004 29.1869465,52.5883763 28.8315238,47.7694712 C28.7583821,46.7733209 27.9629667,45.9811878 26.9641261,45.9082431 C23.4681838,45.6517971 20.7299433,42.7089369 20.7299433,39.2098738 C20.7299433,35.7096709 23.4681838,32.7679504 26.9641261,32.5103647 C27.9629667,32.4362803 28.7572393,31.6452869 28.8315238,30.6491367 C29.1869465,25.8347906 34.4725735,22.9033279 38.7753595,25.2512334 C39.803914,25.8131351 41.0941784,25.3845854 41.5821703,24.3223291 C42.6770094,21.9402307 45.0666842,20.4015548 47.6712126,20.4015548 C50.2745982,20.4015548 52.6654158,21.9402307 53.7613977,24.3223291 C54.2482468,25.3857251 55.5407969,25.8119954 56.5682085,25.2500937 C60.8652804,22.9056074 66.1577644,25.8290918 66.5120443,30.6491367 C66.5863288,31.6452869 67.3806013,32.4362803 68.379442,32.5103647 C71.8753842,32.7679504 74.6136247,35.7096709 74.6136247,39.2098738 C74.6136247,42.7089369 71.8753842,45.6517971 68.379442,45.9082431 Z" id="Shape" fill="#90C6C2"></path>
                            </g>
                            <g id="Group-53" transform="translate(16.000000, 16.055749)"></g>
                        </g>
                    </g>
                </g>
            </g>
        </g>
    </g>
</svg>