<?xml version="1.0" encoding="UTF-8"?>
<svg width="95px" height="95px" viewBox="0 0 95 95" version="1.1" xmlns="http://www.w3.org/2000/svg" xmlns:xlink="http://www.w3.org/1999/xlink">
    <!-- Generator: sketchtool 52.4 (67378) - http://www.bohemiancoding.com/sketch -->
    <title>3AC76DAE-629C-4FA4-B7BA-5FE31B31F4FD</title>
    <desc>Created with sketchtool.</desc>
    <g id="Page-1" stroke="none" stroke-width="1" fill="none" fill-rule="evenodd">
        <g id="главная_1280-" transform="translate(-515.000000, -7207.000000)">
            <g id="Group-97" transform="translate(515.000000, 7207.000000)">
                <g id="Group-100">
                    <path d="M46.1592578,94.9808499 C19.9792232,94.2414138 -0.719109396,72.3404689 0.0191511194,46.1592588 C0.757411635,19.9780487 22.6583566,-0.719108355 48.8395667,0.0191521605 C75.0207768,0.757412676 95.7191094,22.6595332 94.9808489,48.8395677 C94.2414128,75.0196022 72.3404679,95.7191104 46.1592578,94.9808499 Z" id="Shape" fill="#FFFFFF" fill-rule="nonzero"></path>
                    <g id="Group-29" transform="translate(20.000000, 24.000000)">
                        <path d="M18.2439893,23.9227654 L18.2439893,10.6202469 C18.2439893,6.28602469 14.7080477,2.77185185 10.3469769,2.77185185 C5.98590605,2.77185185 2.44996446,6.28602469 2.44996446,10.6202469 L2.44996446,23.9227654 L18.2439893,23.9227654 Z" id="Path"></path>
                        <path d="M10.3469769,0.776246914 C4.8853528,0.776246914 0.441997622,5.19224691 0.441997622,10.6202469 L0.441997622,37.225284 C0.441997622,42.653284 4.8853528,47.069284 10.3469769,47.069284 C15.808601,47.069284 20.2519561,42.653284 20.2519561,37.225284 L20.2519561,10.6202469 C20.2519561,5.19224691 15.808601,0.776246914 10.3469769,0.776246914 Z M10.3469769,4.76745679 C13.5949232,4.76745679 16.2360225,7.3934321 16.2360225,10.6202469 L16.2360225,22.786963 L4.45678845,22.786963 L4.45678845,10.6202469 C4.45678845,7.3922963 7.09903052,4.76745679 10.3469769,4.76745679 Z M10.3469769,43.0780741 C7.09903052,43.0780741 4.45793129,40.4520988 4.45793129,37.225284 L4.45793129,25.0585679 L16.2371653,25.0585679 L16.2371653,37.225284 C16.2360225,40.4532346 13.5949232,43.0780741 10.3469769,43.0780741 Z" id="Shape" fill="#4395B2" fill-rule="nonzero"></path>
                        <path d="M45.5372528,47.069284 C50.9988768,47.069284 55.442232,42.653284 55.442232,37.225284 L55.442232,10.6202469 C55.442232,5.19224691 50.9988768,0.776246914 45.5372528,0.776246914 C40.0756287,0.776246914 35.6322735,5.19224691 35.6322735,10.6202469 L35.6322735,37.225284 C35.6322735,42.653284 40.0756287,47.069284 45.5372528,47.069284 Z M45.5372528,43.0780741 C42.2893064,43.0780741 39.6482072,40.4520988 39.6482072,37.225284 L39.6482072,25.0585679 L51.4274412,25.0585679 L51.4274412,37.225284 C51.4274412,40.4532346 48.7851991,43.0780741 45.5372528,43.0780741 Z M45.5372528,4.76745679 C48.7851991,4.76745679 51.4262984,7.3934321 51.4262984,10.6202469 L51.4262984,22.786963 L39.6482072,22.786963 L39.6482072,10.6202469 C39.6482072,7.3922963 42.2893064,4.76745679 45.5372528,4.76745679 Z" id="Shape" fill="#4395B2" fill-rule="nonzero"></path>
                        <path d="M37.6402404,23.9227654 L37.6402404,37.225284 C37.6402404,41.5595062 41.176182,45.073679 45.5372528,45.073679 C49.8983236,45.073679 53.4342652,41.5595062 53.4342652,37.225284 L53.4342652,23.9227654 L37.6402404,23.9227654 Z" id="Path"></path>
                        <polygon id="Path" fill="#4395B2" points="33.2551699 22.8641975 29.6038017 22.8641975 29.6038017 19.2353086 27.474694 19.2353086 27.474694 22.8641975 23.8233257 22.8641975 23.8233257 24.9813333 27.474694 24.9813333 27.474694 28.6102222 29.6038017 28.6102222 29.6038017 24.9813333 33.2551699 24.9813333"></polygon>
                    </g>
                </g>
            </g>
        </g>
    </g>
</svg>