<?xml version="1.0" encoding="UTF-8"?>
<svg width="1280px" height="862px" viewBox="0 0 1280 862" version="1.1" xmlns="http://www.w3.org/2000/svg" xmlns:xlink="http://www.w3.org/1999/xlink">
    <!-- Generator: sketchtool 52.4 (67378) - http://www.bohemiancoding.com/sketch -->
    <title>9B4A480B-9CA9-4034-A841-2F16F6F4E0A6</title>
    <desc>Created with sketchtool.</desc>
    <g id="Page-1" stroke="none" stroke-width="1" fill="none" fill-rule="evenodd">
        <g id="главная_1280-" transform="translate(0.000000, -1308.000000)">
            <g id="Group-74-Copy" transform="translate(-42.000000, 1308.000000)">
                <g id="Group-62">
                    <g id="Group-110">
                        <g id="Group-109">
                            <rect id="Rectangle" fill="#67C6C1" x="0" y="0" width="1360" height="341"></rect>
                            <rect id="Rectangle" fill="#4CB0AB" x="40" y="0" width="782" height="344"></rect>
                            <rect id="Rectangle" fill="#39ABA8" x="822" y="0" width="17" height="339"></rect>
                            <rect id="Rectangle-Copy" fill="#3EAAA7" x="1008" y="3" width="14" height="337"></rect>
                            <polygon id="Rectangle-Copy-4" fill="#3EAAA7" points="1359.96918 160.5 1359.96918 173.5 822.434898 173.5 822.434898 160.5"></polygon>
                            <polygon id="Rectangle-Copy-6" fill="#3EAAA7" points="1359.53428 -1.8920793e-14 1359.53428 4 822 4 822 1.8920793e-14"></polygon>
                            <polygon id="Rectangle-Copy-5" fill="#3EAAA7" points="1359.96918 328.5 1359.96918 341.5 822.434898 341.5 822.434898 328.5"></polygon>
                            <rect id="Rectangle-Copy-2" fill="#3EAAA7" x="1190" y="0" width="14" height="339"></rect>
                        </g>
                        <polygon id="Rectangle-Copy-7" fill="#2AA19B" transform="translate(680.500000, 601.000000) rotate(90.000000) translate(-680.500000, -601.000000) " points="419.5 -40.5 941.5 -40.5 941.5 1242.5 419.5 1242.5"></polygon>
                    </g>
                    <ellipse id="Oval-Copy-2" fill="#1E9690" cx="759.5" cy="521.5" rx="271.5" ry="70.5"></ellipse>
                    <ellipse id="Oval" fill="#1C8983" cx="787" cy="520.5" rx="186" ry="48.5"></ellipse>
                    <g id="Group-23" transform="translate(879.000000, 528.000000)" stroke="#FFFFFF" stroke-width="2">
                        <circle id="Oval" cx="43.5" cy="43.5" r="43.5"></circle>
                        <path d="M61,4 C47.5248361,8.39395951 36.4060992,16.5766162 27.6437895,28.5479702 C14.5003248,46.5050012 16.0571029,61.5806531 16.0571029,77" id="Path-20"></path>
                        <path d="M79,19.0407809 C62.0708038,15.659117 48.8707292,20.5181288 39.399776,33.6178166 C25.1933461,53.2673482 34.6506844,78.4572894 41.2475094,86" id="Path-20-Copy"></path>
                        <path d="M18.9055131,9 C19.4798577,21.0450481 17.4358094,30.3378773 12.7733681,36.8784876 C8.11092678,43.419098 3.85313737,48.1262687 0,51" id="Path-21"></path>
                        <path d="M4,25 C11.0995321,25.3376935 17.0767757,25.9808861 21.9317307,26.9295777 C29.2141632,28.3526152 43,31.2709539 60.4633278,43.294509 C60.7454199,43.4887303 73.6328452,53.2245037 82,65" id="Path-22"></path>
                    </g>
                    <g id="Group-36" transform="translate(127.000000, 288.000000)">
                        <g id="Group-106" transform="translate(-0.000000, -0.000000)" stroke="#FFFFFF">
                            <g id="Path-3" transform="translate(0.000000, 0.109397)" stroke-width="3">
                                <g id="Path-2">
                                    <path d="M45.6854818,11.6989703 C58.7369854,11.4180088 58.1675544,11.2573112 68.4026974,14.2182939 C78.6378403,17.1792765 89.8886685,19.6120307 100.945337,18.1709361 C112.002005,16.7298416 115.280279,15.3557026 119.214102,14.7869982 C123.147925,14.2182939 136.383149,10.9763495 145.774845,10.9763495 C155.166542,10.9763495 168.025451,11.6989703 177.726134,11.6989703 C187.426815,11.6989703 206.469608,10.9763495 209.913857,10.9763495 C213.358105,10.9763495 223.992529,5.25758892 229.226491,5.25758892 C234.460454,5.25758892 238.722053,7.07347167 246.373096,7.07347167 C254.02414,7.07347167 263.738391,6.85160532 272.023586,4.10886034 C281.450251,2.40961295 293.243891,0.201835428 297.022701,0.201835428 C300.801509,0.201835428 306.682149,0.0167740118 309.376899,2.63718147 C312.071649,5.25758892 312.071649,9.22267233 315.931879,14.2182939 C319.792109,19.2139153 326.245834,21.7814481 329.287671,21.7814481 C332.329507,21.7814481 334.863503,21.458246 340.051533,26.4629317 C344.879151,31.1199413 352.579576,30.3550043 356.179843,31.693379 C358.580021,32.5856288 366.824852,37.0898267 380.914338,45.2059727 C392.395513,49.6343144 398.376539,53.458917 398.857414,56.6797805 C399.578728,61.5110758 398.857414,80.0980847 398.857414,91.4303749 C398.857414,102.762665 396.787942,117.223375 394.934552,123.096613 C393.081161,128.96985 386.866569,139.392605 384.955157,144.024622 C383.043745,148.656638 384.729159,151.486693 382.615323,154.476186 C380.501487,157.46568 377.168932,159.479065 356.179843,162.140942 C342.187117,163.915528 329.830309,165.502114 319.109418,166.900702 L239.831686,177.381812 L159.420311,187.162594 C111.090659,193.207475 83.6572396,196.328636 77.1200537,196.526079 C67.3142749,196.822244 59.1286573,193.929141 52.8067613,189.159391 C46.4848654,184.389641 40.3536177,177.226009 35.5996122,170.475964 C32.4302752,165.975933 27.959381,158.904548 22.1869298,149.261809 L10.6380767,126.042044 C5.94657804,114.085106 3.12847766,105.272658 2.18377553,99.6046984 C0.766722336,91.1027591 0.766722336,79.3951623 0.766722336,70.3525535 C0.766722336,61.3099446 3.12378024,38.7018674 5.55443097,30.9064792 C7.9850817,23.111091 11.0332918,21.1448749 18.6195048,17.1497288 C26.2057179,13.1545828 32.6339783,11.9799319 45.6854818,11.6989703 Z" id="Path"></path>
                                </g>
                            </g>
                            <path d="M13.5922389,22.4491313 C12.4363261,25.2996727 16.6884192,47.6028033 18.7481516,51.5354756 C20.807884,55.4681478 30.2128436,69.6292819 30.9526458,72.4695908 C31.692448,75.3098996 35.3097887,82.6976391 33.07269,87.7517171 C30.8355914,92.8057952 31.6471341,96.3953275 33.07269,97.6159545 C34.4982461,98.8365815 34.8676991,100.372442 44.8915316,98.5223811 C54.9153642,96.6723199 64.7024749,96.2961063 69.5816597,95.5405785 C74.4608447,94.7850506 82.8506178,92.9050164 92.0101287,96.6723199 C98.1164693,99.1838556 104.278376,105.293709 110.495848,115.001879 C114.594845,122.825882 118.570515,128.576748 122.422861,132.254477 C128.201379,137.77107 137.881365,141.161643 157.285752,141.161643 C170.222011,141.161643 189.626399,139.624059 215.498916,136.548892 L277.535163,127.852054 C293.183471,125.480524 304.380635,123.259417 311.126655,121.188732 C321.245685,118.082706 325.042026,115.064409 326.538128,112.86294 C327.535529,111.395293 331.11736,105.198966 337.283621,94.2739583 L344.409833,78.6104506 C346.935214,71.7993311 348.523636,67.9080011 349.175099,66.9364606 C350.152295,65.4791497 352.583266,61.2364114 359.853706,61.2364114 C367.124146,61.2364114 373.443367,61.5869638 376.573157,61.2364114 C379.702947,60.8858591 384.520349,60.0617094 386.684258,58.3212729 C388.147017,57.1447729 393.615618,53.6446285 393.0837,52 C392.828734,51.2116738 389.134773,50.6870343 388,50 C384.497832,47.8796551 381.47847,52.2233056 378.811823,53.1984636 C376.145177,54.1736216 363.183487,54.3085003 359.853706,54.2066953 C356.523924,54.1048902 346.791682,54.7942706 344.409833,59.1186597 C342.027985,63.4430487 333.930325,83.3358586 331.591849,86.5796672 C330.530462,88.0519664 326.901913,96.3803855 323.449248,100.763643 C319.294912,106.037693 317.535386,108.56749 313.462518,110.715215 C309.38965,112.86294 270.390138,116.606471 260.642742,118.021924 C250.895346,119.437376 239.154829,120.839321 206.96178,123.81551 C174.768731,126.791698 152.977315,129.0052 148.998924,128.828762 C145.020535,128.652325 129.921662,127.853087 122.422861,120.066293 C114.92406,112.279498 107.265877,97.9994029 105.930725,95.5405785 C105.241652,94.2715778 98.8742965,86.6991647 92.0101287,85.0587927 C85.1459609,83.4184208 82.0725194,84.117742 76.2203193,84.117742 C72.3950192,84.117742 71.1453459,76.6685095 70.4684517,74.6105974 C68.7035689,69.2449524 65.3530678,62.8037957 55.3861948,47.6028033 C55.4610684,47.6136188 52.3020406,42.7879633 47.0025838,37.1949592 C45.7184571,35.8397023 44.308654,34.4393902 42.788732,33.0519163 C38.1520806,28.8193094 33.3317135,24.9941583 29.5165422,22.5901068 C26.9198331,20.9538442 27.9011912,21.9759105 23.498263,19.9759105 C19.0953347,17.9759105 14.6019926,19.9590256 13.5922389,22.4491313 Z" id="Path-4" stroke-width="2"></path>
                            <path d="M37.9690949,110.409909 C43.2671082,110.348961 83.8852097,102.669534 89.183223,110.348961 C94.4812362,118.028388 112.14128,153.042682 165.121413,148.015667 C218.101545,142.988652 327.593819,135.158981 335.540839,124.488858 C343.487859,113.818735 347.90287,84.2519492 358.498896,78.6957746 C365.562914,74.9916582 377.336277,72.3311619 393.818985,70.7142857" id="Path-3" stroke-width="2" stroke-linecap="round" stroke-dasharray="1,7"></path>
                            <path d="M9.61491293,39.3348214 C7.84890851,51.7098214 9.61491293,50.8258929 9.61491293,55.2455357 C9.61491293,58.1919643 11.6752514,61.7276786 15.7959284,65.8526786 C21.6826098,71.7455357 24.6259505,76.4598214 24.6259505,79.9955357 C24.6259505,85.2991071 25.5089527,87.0669643 14.9129262,100.325893" id="Path-7" stroke-width="2" stroke-linecap="round" stroke-dasharray="1,7"></path>
                        </g>
                        <path d="M20,18 C27,18 37.561958,23.6422067 40.9233947,25.72353 C45.9655497,28.8455149 53.6718284,36.4897675 56.7921253,39.8065834 C59.9124222,43.1233993 65.1848268,52.0121742 68.3014936,56.1848922 C70.3792715,58.9667042 71.9151285,62.3979529 74.9090647,66.4786384 C78.6836369,71.4188726 81.2789578,74.2150971 82.6950274,74.8673123 C84.8191317,75.8456349 87,77 94,75.8673123 C98,74.8673123 101.745914,76.5938699 106,76 C103.330349,77.4225096 96.5401739,76.5267857 93,78 C87.6897391,80.2098214 88.7816028,80.348107 84.6210342,82.4818714 C81.8473216,83.9043809 77.9019638,83.9043809 72.7849603,82.4818714 C72.500325,83.2945356 71.3974778,81.1861235 69.4764188,76.1566352 C66.5948302,68.6124028 62.9874777,59.6823033 61,56 C59.0125223,52.3176967 56.3239781,49.0807139 52.4683345,44 C49.8979055,40.6128574 46.986634,35.0491988 43.047499,33.0546985 C37.1808895,28.3909558 33.1650565,25.3727229 31,24 C23.5256375,19.2609879 16.7643279,18 20,18 Z" id="Path-6" fill="#FFFFFF"></path>
                        <path d="M133.358022,61.4296417 C134.090713,57.3680189 134.457057,52.9255271 134.457057,48.1021661 C136.240924,52.3464329 137.350923,56.9367712 137.787057,61.8731811 C138.441257,69.2777959 137.896801,71.2499053 138.495557,71.5302904 C139.094312,71.8106755 144.616742,69.4029633 146.93281,67.2756362 C148.476855,65.8574182 150.220171,61.2253574 152.162758,53.3794538 C151.713745,64.0617934 152.426596,69.7575178 154.301309,70.4666269 C156.176022,71.1757359 161.165975,71.1757359 169.271167,70.4666269 C176.377563,70.2345873 182.080366,69.5254782 186.379577,68.3392998 C192.828393,66.5600321 194.962592,65.1483092 196.257323,63.0209821 C197.552055,60.893655 198.66759,55.8442945 199.993784,47.2566366 C200.877912,41.5315315 201.329796,35.7951233 201.349435,30.0474124 C202.069188,32.4310464 202.464075,34.4153744 202.534096,36.0003965 C202.639129,38.3779295 202.84599,48.391432 203.018612,54.2436804 C203.191234,60.0959287 203.056805,67.1512103 203.487986,68.3392998 C203.919167,69.5273893 203.39731,64.372678 204.78725,60.893655 C206.17719,57.414632 206.838075,57.4214367 208.640402,54.2436804 C210.442728,51.0659241 211.464342,50.816079 213.080662,47.2566366 C214.158209,44.8836751 214.856614,42.777642 215.175879,40.9385375 C215.3346,44.5604296 215.002887,47.7895938 214.180742,50.6260298 C212.947525,54.880684 211.133725,55.9835598 209.079233,61.8731811 C207.709571,65.7995953 208.372125,67.2164284 211.066895,66.1236803 L218.457845,57.3214491 C214.82276,62.2602826 213.60599,65.1943597 214.807532,66.1236803 C216.609847,67.5176613 237.161031,65.429806 244.192771,65.429806 C251.224511,65.429806 261.864796,68.7771261 265.740658,68.7771261 C269.616521,68.7771261 273.483773,69.4029633 278.196831,61.8731811 C282.909889,54.3433989 283.333845,45.4053531 284.752932,39.1599654 C286.172019,32.9145776 287.9511,28.028633 291.267002,21.8325851 C294.582905,15.6365373 294.118726,16.4088421 295.705436,12.1505462 C296.763243,9.31168225 297.138028,6.62240012 296.829794,4.08269979 C297.512345,4.96089245 298.091711,5.87619016 298.567889,6.82859292 C299.044067,7.78099567 299.201309,9.0695451 299.039613,10.6942412 L306.254874,6.03292273 C301.296073,10.678314 297.103639,15.5358666 293.677572,20.6055806 C290.251504,25.6752947 287.853379,33.2390954 286.483195,43.296983 C285.234043,51.4278682 284.514754,57.6199342 284.325326,61.8731811 C284.041184,68.2530515 284.470904,70.2010719 286.483195,72.5939539 C288.495486,74.986836 293.137974,74.3655146 297.415076,76.5987926 C301.692179,78.8320705 303.186133,81.2941483 303.999892,80.0395987 C306.138444,76.7426572 308.338603,73.6576175 311.182521,70.4666269 C314.026439,67.2756362 319.132806,62.4110696 325.385404,57.3214491 C331.638003,52.2318284 334.398487,50.5186589 339.285987,47.2566366 C342.54432,45.0819552 346.464998,42.9759221 351.048019,40.9385375 L339.285987,49.0357282 C333.887438,53.27641 329.574397,56.9298969 326.346865,59.9961889 C321.505566,64.5956269 321.504907,64.7032972 317.267159,69.7252305 C313.029412,74.7471638 312.321238,76.6894221 311.182521,78.9227001 C310.043806,81.155978 309.820866,84.8964589 311.182521,87.3613744 C312.544178,89.82629 313.911331,89.9206581 315,89.3893457 C316.088669,88.8580334 316.836505,87.0625843 319.735683,81.5525147 C322.634859,76.0424451 323.594118,73.7289561 326.346865,69.7252305 C329.099612,65.721505 331.108877,64.8273652 333.662631,61.9961889 C336.216386,59.1650126 342,56.2436804 342,56.2436804 C342,56.2436804 332.417047,66.4585176 331,68 C329.582953,69.5414824 326.544366,73.7656743 325,76.6781736 C323.705224,79.1199748 322.34299,81.7648872 321,84.7467171 C319.524319,88.0231578 319.338734,89.7942659 318.735683,91.6622112 C317.947735,94.1028673 318,92.3469605 318,95.8656716 C318,98.2114791 319.444643,100.070898 321,102 C318.289394,100.201605 316.469205,99.0638374 313.402,95.7561624 C308.80119,90.7946498 307.447622,87.5635438 302.851256,84.2942529 C298.254892,81.0249619 295.445688,79.2636645 290.207386,77.9122716 C284.969084,76.5608788 278.337278,76.7426572 274.060176,75.7849446 C269.783073,74.8272319 268.527928,73.6576175 259.090317,71.5302904 C249.652707,69.4029633 243.366536,70.4666269 236.203225,70.4666269 C229.039914,70.4666269 203.487986,72.5939539 192.79523,72.5939539 C182.102474,72.5939539 160.716963,74.6781736 158.578411,74.6781736 C156.43986,74.6781736 147.861638,74.8002247 144.592725,75.3886676 C141.323811,75.9771104 131.748145,77.2537144 124.268396,77.2537144 C119.281897,77.2537144 114.323009,76.7641244 109.391734,75.7849446 C111.93045,75.0470972 113.516263,74.2204381 114.149175,73.3049673 C115.098541,71.9317611 115.574149,70.5189797 116.071052,66.1236803 C116.402321,63.1934807 116.545727,60.2594036 116.501268,57.3214491 C117.285804,61.042712 117.907634,63.7454977 118.366757,65.429806 C119.055441,67.9562687 118.944302,67.7338639 120.08449,70.4666269 C121.224678,73.1993898 122.580424,75.3886676 123.670584,75.3886676 C125.52405,75.4186907 126.543217,75.2367527 127.92393,73.3049673 C129.304643,71.3731819 132.258986,67.5220759 133.358022,61.4296417 Z" id="Path-7" fill="#FFFFFF"></path>
                    </g>
                    <g id="пылесос" transform="translate(1080.000000, 348.000000)" stroke="#FFFFFF">
                        <g id="Group-107">
                            <path d="M47.8366699,87.302246 C48.543457,88.502686 43.3754883,84.289062 41.260498,82.310791 C39.1455078,80.33252 32.269043,75.006348 30.6945801,74.078857 C29.1201172,73.151367 25.2050781,71.043945 20.4824219,71.043945 C15.7597656,71.043945 13.3657227,71.500732 9.5703125,73.715332 C5.8978191,75.85821 2.7123593,81.336516 3.8251953,87.302246 C4.9380313,93.267976 8.9538574,97.451416 14.4018555,98.646484 C19.8498535,99.841553 27.4030762,98.212158 32.269043,95.283936 C35.5130208,93.331787 39.3241374,89.832438 43.7023926,84.785889 L47.3554688,87.302246 C38.8089193,97.313314 29.5039063,102.318848 19.4404297,102.318848 C4.3452148,102.318848 -0.1872559,90.756592 0.2629395,85.423828 C0.7131348,80.091064 2.3818359,75.631104 7.6853027,72.762695 C11.4946289,71.043945 15.7121582,70.352783 19.0471191,70.352783 C22.3820801,70.352783 25.3671592,71.06393 30.1647949,72.762695 C33.3632187,73.895205 38.3602891,76.357445 45.1560059,80.149414 C47.1359863,78.021484 48.8172201,75.997965 50.199707,74.078857 C55.7788086,66.111572 65.5026855,49.398438 71.6303711,35.0410156 C73.5477796,30.5484478 84.60498,9.5507813 90.699219,9.5507813 C96.793457,9.5507813 100.619873,6.0932617 107.628906,3.690918 C113.940918,0.9692383 123.693359,-0.0039062 136.214844,1.1831055 C143.677128,1.8905151 148.389679,2.4885967 152.902832,4.4091797 C155.444336,5.4907227 159.249152,7.6182085 159.311035,7.6645508 C160.604004,8.6328125 161.830078,10.8530273 162.851563,13.7944336 C163.873047,16.7358398 171.333252,18.8359375 178.205078,29.1992188 C181.983154,35.3144531 183.277588,41.112305 183.870117,49.448242 C183.813232,52.491455 184.739258,59.725098 180.791992,67.081543 C176.844727,74.437988 171.336914,75.818604 164.900879,75.336914 C157.327881,74.149658 153.962308,72.344482 149.460355,71.043945 C144.116117,69.650879 140.537015,71.043945 138.532959,72.003418 C133.817871,74.554932 131.180176,77.066895 124.88916,81.493652 C118.598145,85.92041 104.366455,87.373779 96.133301,85.332031 C87.900146,83.290283 81.887695,79.147705 77.950195,73.122314 C76.242254,70.508723 74.6896973,67.530029 73.2272949,62.199707 C71.8632108,57.227746 71.6303711,53.475363 71.6303711,49.856201 C71.6303711,43.4646 82.625488,28.3515625 84.60498,25.9150391 C85.699527,24.56778 87.974854,21.4909668 93.497559,17.6611328 C94.465109,17.0206608 97.153911,15.731761 101.563965,13.7944336 L98.961914,12.3076172 C97.775508,12.3076172 95.554132,13.351237 92.297784,15.4384766 C87.413263,18.5693359 84.605957,23.1445313 82.944824,25.9150391 C81.837402,27.7620443 78.914876,33.2515462 74.1772461,42.383545" id="Path-8" stroke-width="2"></path>
                            <path d="M150.637695,23.2358398 C146.388184,28.0864258 146.177246,33.269043 146.177246,36.9384766 C146.177246,40.60791 146.769531,49.782227 150.637695,55.938477 C155.84082,65.85498 160.520508,67.996582 165.069824,67.996582 C169.619141,67.996582 173.104492,63.310547 173.104492,58.739258 C173.104492,54.167969 172.368652,51.718994 167.853516,45.113281 C163.338379,38.5075684 160.041016,35.5390625 161.013184,28.8227539 C161.985352,22.1064453 154.887207,18.3852539 150.637695,23.2358398 Z" id="Path-9" stroke-width="2"></path>
                            <path d="M113.5,76.174072 C128.135546,76.174072 140,64.5334755 140,50.174072 C140,35.8146685 128.135546,24.174072 113.5,24.174072 C98.8644541,24.174072 87,35.8146685 87,50.174072 C87,64.5334755 98.8644541,76.174072 113.5,76.174072 Z" id="Oval" stroke-width="2" stroke-linecap="round" stroke-dasharray="1,7"></path>
                            <path d="M108.340576,16.4152832 C110.468669,15.2059733 113.636963,13.8400879 117.845459,12.317627 C124.441895,10.2084961 138.944762,8.7843853 149.071533,10.8098145 C155.822714,12.1601006 161.167115,14.0285901 165.104736,16.4152832" id="Path-10" stroke-linecap="square" stroke-linejoin="round"></path>
                            <path d="M98.037598,21.9013672 C91.686035,26.5686849 87.30306,31.7125651 84.888672,37.3330078 C81.26709,45.763672 82.216309,53.05957 82.216309,59.151367" id="Path-11"></path>
                            <path d="M88.633649,76.37207 L83.109967,66.825928 C84.385451,68.243896 86.073486,70.697021 88.174072,74.185303 C91.324951,79.417725 87.166028,74.39422 89.029785,76.987793 C93.130687,82.694541 97.945602,85.099222 103.92627,86.173828" id="Path-12"></path>
                            <path d="M73.5075684,43.842529 L66.8181152,56.716064 L55.5517578,75.672363 L50.0837402,83.608398 L45.0847168,80.07251 C46.3028428,80.947849 48.1693792,82.126478 50.6843262,83.608398 C53.1992731,85.090319 56.9926488,87.14997 62.0644531,89.787354 C64.4430339,88.709066 66.5927734,87.994466 68.5136719,87.643555 C71.3950195,87.117188 74.5861816,87.117188 78.404785,87.958496 C82.223389,88.799805 88.394043,93.365967 88.910889,93.758057 C89.427734,94.150146 97.571533,99.777588 102.227539,99.777588 C105.331543,99.777588 113.096598,99.777588 125.522705,99.777588 C130.244059,99.859619 133.621338,100.174805 135.654541,100.723145 C138.704346,101.545654 141.615479,104.270752 145.272217,104.270752 C148.928955,104.270752 154.267578,104.270752 156.214111,102.568604 C157.5118,101.433838 158.549723,102.361735 159.327881,105.352295 C159.742757,106.098389 162.089925,106.284912 166.369385,105.911865 C170.648844,105.538818 172.621663,107.510091 172.287842,111.825684 C171.902425,114.891276 169.646077,116.90918 165.518799,117.879395 C159.327881,119.334717 152.523193,116.725098 149.356689,112.683594 C146.190186,108.64209 145.387207,108.498535 142.306396,108.79541 C139.225586,109.092285 133.601318,112.220947 125.067139,111.436768 C116.532959,110.652588 98.194092,105.799072 90.48291,106.260742 C78.086914,108.060791 72.7919922,105.951904 69.9797363,104.870361 C67.1674805,103.788818 63.0671387,100.951904 60.9880371,98.1875 C58.9089355,95.423096 58.2548828,94.293213 54.4560547,91.768555 C51.9235026,90.085449 49.6687012,88.710449 47.6916504,87.643555 C54.4041039,77.415614 59.462128,69.465825 62.8657227,63.794189 C66.2693173,58.122554 69.8165992,51.472 73.5075684,43.842529 Z" id="Path-13" stroke-width="2"></path>
                            <path d="M127.469971,99.590576 C127.562435,101.749955 126.934505,103.832067 125.586182,105.836914 C124.237858,107.841761 122.486312,109.297734 120.331543,110.204834" id="Path-16"></path>
                            <path d="M135.660156,101.061523 C135.304687,102.799479 134.522298,103.820394 133.312988,104.124268 C132.516527,104.324401 131.546211,103.907119 130.298828,104.124268 C129.652244,104.236827 129.043376,105.177984 129.200439,106.024414 C129.357503,106.870844 130.018066,107.142822 130.796387,107.501221 C131.574707,107.859619 132.862665,107.578358 132.962646,108.471436 C133.029301,109.066821 133.029301,109.905444 132.962646,110.987305" id="Path-17"></path>
                            <path d="M156.647705,107.47876 C157.424316,107.47876 159.756104,109.428711 161.394775,109.428711 C163.033447,109.428711 165.804443,108.069336 166.637207,109.428711 C167.469971,110.788086 166.812744,111.773682 163.966309,112.958008 C161.119873,114.142334 159.356445,113.445068 157.88501,112.4646 C156.413574,111.484131 155.024658,110.224609 155.024658,109.007324 C155.024658,107.790039 155.871094,107.47876 156.647705,107.47876 Z" id="Path-18"></path>
                            <path d="M110.710938,85.520752 C103.502574,85.520752 99.499742,83.755859 96.075663,82.068359 C93.792945,80.943359 91.159406,78.357422 88.175049,74.310547" id="Path-19"></path>
                            <path d="M103,10.3893457 C111.234009,7.55016069 126.107644,3.76920844 139.361934,5.38934574 C148.198128,6.46943728 154.410816,8.13610394 158,10.3893457" id="Path-2" stroke-width="2" stroke-linecap="round" stroke-dasharray="1,7"></path>
                            <g id="Group-108" transform="translate(62.000000, 92.000000)">
                                <path d="M-2.48689958e-14,2 C5.54654186,4.66666667 11.8798752,7 19,9" id="Path-4" stroke-width="2" stroke-linecap="round" stroke-dasharray="2,7"></path>
                                <path d="M25.236816,0.821777 C22.715332,1.553385 21.149984,2.739665 20.540771,4.380615 C19.626953,6.842041 20.866943,9.110352 23.557617,9.110352 C26.248291,9.110352 27.1875,9.208008 28.056885,10.720703 C28.92627,12.233398 27.709473,13.875977 26.973389,14.456543" id="Path-15"></path>
                            </g>
                        </g>
                        <path d="M64.0429688,88.969727 C62.4428214,89.828762 61.3174145,90.781561 60.666748,91.828125 C60.0160816,92.874689 59.6639495,94.298435 59.6103516,96.099365" id="Path-14" stroke-width="2"></path>
                    </g>
                    <g id="Group-25" transform="translate(479.000000, 564.000000)" stroke="#FFFFFF" stroke-width="2">
                        <g id="корм-с-костью">
                            <ellipse id="Oval" cx="59.5" cy="18" rx="45.5" ry="17"></ellipse>
                            <path d="M45.2510421,1.05852838 C54.6439478,-0.172643268 62.2469715,-0.522257868 77.0042791,1.05852838 C91.761586,2.63931471 107.394909,11.9824257 108.375263,17.026341 C109.527797,21.7668655 111.59764,25.2230242 115.253969,34.1534212 C118.910298,43.0838183 119.959598,45.3374197 120.729798,46.8697815 C121.499998,48.4021425 123.760086,50.536149 122.740281,53.1547732 C122.060411,54.9005227 121.606919,55.9392172 121.379803,56.270856 C119.612044,52.569759 118.404083,50.2427857 117.75592,49.2899362 C116.783677,47.860662 113.992301,46.585467 112.533014,47.8346152 C111.073728,49.0837627 111.118339,50.4686475 111.446108,53.1547732 C111.773875,55.8408997 114.007049,60.3048142 115.253969,61.9329247 C115.588509,62.369736 112.153629,64.783953 109.402442,66.0730882 C106.651254,67.3622235 104.840234,68.2782645 99.026867,70.2088492 C93.2134991,72.1394332 84.8834335,73.3784925 78.7328962,74.0593792 C72.582359,74.7402652 68.3086538,75 57.1582704,75 C51.7777403,75 43.16236,74.304567 35.1576197,73.2691695 C25.7615706,72.053808 13.1601515,67.7919735 8.67513651,64.484781 C0.369219889,58.3601055 -0.385863454,55.7800012 0.122195518,52.424361 C0.460901524,50.1872677 4.31865964,38.3879279 11.6954698,17.026341 C11.7473326,14.8163951 12.7541104,12.9261039 14.7158032,11.3554673 C16.1004136,10.2468738 19.9594595,7.21849326 29.8174698,4.26228951 C33.5000423,3.15796581 35.8581365,2.28970011 45.2510421,1.05852838 Z" id="Path-23"></path>
                            <path d="M122,49 L119,52" id="Path-27"></path>
                        </g>
                        <path d="M2,48 C6.06924733,52.7102484 9.98735668,56.0141932 13.754328,57.9118342 C17.5212993,59.809476 21.2698566,61.1721977 25,62" id="Path-24"></path>
                        <path d="M33,63.482404 C46.6346143,65.5097134 58.7226022,66.3126454 69.2639647,65.8912001 C85.0760078,65.2590321 96,62 96,62" id="Path-25"></path>
                        <path d="M113,56 C111.567479,57.0371143 109.896194,57.9777257 107.986146,58.8218329 C106.076098,59.6659407 104.080715,60.3919964 102,61" id="Path-26"></path>
                        <path d="M59.9792832,15.3031997 C65.2397088,14.7267292 67.9436587,14.8552753 71.2552297,14.3166822 C74.5668007,13.7780891 75.705658,13.18787 77.0210374,12.5315332 C78.336416,11.8751964 80.3103578,9.25158965 82.2836019,7.93926415 C84.2568452,6.62693865 88.2022843,5.96920931 92.1466756,7.27840185 C96.091067,8.58759432 97.4046995,11.2094605 96.7461372,13.1767303 C96.3070953,14.4882436 94.5526749,16.4560937 91.4828742,19.0802805 C96.3197886,21.2301588 97.7156101,23.1974799 95.6703392,24.9822438 C93.9616927,26.4732593 90.4615455,27.6358477 87.6627798,28.6942739 C85.4363094,29.5362714 83.7341735,30.7066885 83.1524008,29.0888809 C81.8393166,25.437421 76.3579344,23.0221307 73.0707093,22.3682307 C69.7834834,21.7143307 55.975669,21.7216411 52.0291823,24.3462921 C48.0826957,26.9709432 46.1084047,30.2501905 43.4776463,31.5628641 C40.846888,32.8755377 36.243934,33.5336151 32.9581052,30.2571528 C29.6722765,26.9806904 31.6462182,24.3570836 32.9622959,22.3894657 C33.8396809,21.0777204 34.7168332,20.2030687 35.5937526,19.7655108 C34.2789555,19.3291134 33.1834464,18.674053 32.3072254,17.8003297 C30.9928939,16.4897447 29.6796101,13.212238 30.9956877,11.24462 C32.3117652,9.27700201 33.6281921,6.65374347 38.2307969,6.65130667 C42.8334017,6.64886987 44.8052482,7.95910668 46.7756978,11.8919059 C47.1972978,12.7333728 47.3298715,14.0005521 48.0893308,14.513772 C50.879388,16.3992091 57.4453425,15.5808848 59.9792832,15.3031997 Z" id="Path-28" fill="#FFFFFF" transform="translate(63.679026, 19.602814) rotate(5.000000) translate(-63.679026, -19.602814) "></path>
                    </g>
                </g>
            </g>
        </g>
    </g>
</svg>