<?xml version="1.0" encoding="UTF-8"?>
<svg width="320px" height="511px" viewBox="0 0 320 511" version="1.1" xmlns="http://www.w3.org/2000/svg" xmlns:xlink="http://www.w3.org/1999/xlink">
    <!-- Generator: sketchtool 52.4 (67378) - http://www.bohemiancoding.com/sketch -->
    <title>A2118FDB-A67E-49FB-9864-43F5DF97D207</title>
    <desc>Created with sketchtool.</desc>
    <g id="Page-1" stroke="none" stroke-width="1" fill="none" fill-rule="evenodd">
        <g id="моб_главная+3-карточки" transform="translate(0.000000, -382.000000)">
            <g id="Group-15" transform="translate(-242.000000, 382.000000)">
                <rect id="Rectangle" fill="#67C6C1" x="4" y="0" width="768" height="431"></rect>
                <polygon id="Rectangle-Copy-7" fill="#2AA19B" transform="translate(404.500000, 346.000000) rotate(90.000000) translate(-404.500000, -346.000000) " points="240 173 569 173 569 519 240 519"></polygon>
                <g id="корм-с-костью" transform="translate(308.000000, 294.000000)" fill="#FFFFFF" fill-rule="nonzero">
                    <path d="M20.3170732,12.2916667 C11.4015115,12.2916667 4.13433396,9.64110531 4.13433396,6 C4.13433396,2.35889469 11.4015115,-0.291666667 20.3170732,-0.291666667 C29.2326348,-0.291666667 36.4998124,2.35889469 36.4998124,6 C36.4998124,9.64110531 29.2326348,12.2916667 20.3170732,12.2916667 Z M20.3170732,11.0416667 C28.5627498,11.0416667 35.2075047,8.61812186 35.2075047,6 C35.2075047,3.38187814 28.5627498,0.958333333 20.3170732,0.958333333 C12.0713965,0.958333333 5.42664165,3.38187814 5.42664165,6 C5.42664165,8.61812186 12.0713965,11.0416667 20.3170732,11.0416667 Z" id="Oval"></path>
                    <path d="M41.0276401,16.4983556 C40.8359716,16.2214948 40.7266996,16.0578121 40.6464156,15.9018851 C40.2879202,15.2056183 39.8335842,14.1880974 38.7562549,11.6194262 C38.4036572,10.7787291 36.9135212,7.49255806 36.6535734,6.74451967 C36.5458998,6.43467275 36.4554285,6.1326964 36.371693,5.79364137 C36.0719935,4.28840359 30.6468912,1.43664443 26.2246946,0.974222228 C21.6514348,0.496003637 19.0859873,0.518250739 15.5363133,0.972445033 C13.7913736,1.19571672 12.6943965,1.38931799 11.7944537,1.61498192 C11.523886,1.68282774 11.2754476,1.75173086 10.9442726,1.84897306 C10.8698516,1.87082511 10.4837206,1.98530992 10.368747,2.01896712 C7.79069558,2.77366171 6.45979087,3.46720609 5.43101791,4.27128534 C4.9040238,4.68317895 4.6526833,5.14385128 4.63955428,5.68997637 L4.6372346,5.78646772 L4.60493004,5.87778718 C2.11668416,12.9116317 0.787158227,16.8812989 0.680728481,17.5675117 C0.521348177,18.5951268 0.967262213,19.2798024 3.34800513,20.9935331 C4.80165348,22.0399133 9.02683386,23.4167001 12.0886814,23.8033148 C14.839727,24.1506847 17.7393082,24.375 19.5174582,24.375 C23.0772147,24.375 24.5756646,24.3070712 26.8126581,24.0653244 C29.4868027,23.7763354 31.9453171,23.3495995 33.6087137,22.8103482 C34.8797719,22.3982875 35.6112158,22.1216915 36.3655105,21.7853882 C36.4301043,21.756589 36.4967915,21.726538 36.5693203,21.6935803 C36.6774248,21.6444568 37.0634738,21.467233 37.0806963,21.4593552 C37.4933852,21.270584 37.988069,20.986169 38.3762127,20.7187385 C38.4377108,20.6763663 38.4947111,20.6356209 38.5462336,20.5973451 C38.0397275,19.7870991 37.5089766,18.5588085 37.4132863,17.7932781 C37.2579793,16.5508118 37.3417251,16.0249054 38.0034943,15.4719192 C38.8025922,14.8041785 40.1733483,15.2600841 40.7451471,16.0806593 C40.884419,16.2805251 41.0792506,16.6199218 41.333988,17.1054426 C41.2942745,16.9397141 41.1943751,16.7482246 41.0276401,16.4983556 Z M3.35172196,5.55932968 C3.40241842,4.67526811 3.83593349,3.91090638 4.61879888,3.29902621 C5.77479129,2.39551343 7.25358992,1.62490043 9.99440311,0.822559221 C10.1066013,0.789714508 10.4920322,0.675437254 10.5688872,0.652870504 C10.915588,0.551069532 11.1799403,0.477752746 11.4701551,0.404980335 C12.4269407,0.16506286 13.5736262,-0.0373112342 15.3668374,-0.266759445 C19.0200873,-0.734206685 21.6890047,-0.757351058 26.3635936,-0.268536639 C31.287441,0.246342398 37.2023141,3.35555446 37.6343707,5.52907184 C37.7027473,5.80361747 37.7826927,6.0704606 37.8785328,6.34625472 C38.11677,7.03181765 39.5817663,10.2625485 39.9537725,11.1495213 C41.0194159,13.69033 41.4634234,14.6847192 41.8032028,15.344636 C41.8460442,15.4278423 41.9097313,15.5232416 42.113422,15.8204874 C42.6255218,16.5879196 42.8108196,17.1996064 42.5141442,17.9432625 C42.2595052,18.5815488 42.0991359,18.9401185 41.9814407,19.1078877 L41.3464666,20.0130143 L40.8627133,19.0243115 C40.2741129,17.8213206 39.8696873,17.060799 39.6735299,16.7792981 C39.4833499,16.5063751 38.9533152,16.3300887 38.8483202,16.4178243 C38.6158678,16.6120657 38.5886894,16.7827408 38.6962506,17.6432376 C38.7809518,18.3208549 39.4257058,19.7005177 39.8697384,20.2664896 C40.0886815,20.5455583 40.0391814,20.8178248 39.8935343,21.0509939 C39.8375534,21.1406147 39.7656114,21.2220226 39.6747372,21.3079264 C39.5401739,21.4351295 39.3523306,21.5808961 39.1259798,21.7368515 C38.6775656,22.0458084 38.1173851,22.3678803 37.6331666,22.5893703 C37.6179791,22.5963174 37.2296567,22.7745848 37.1188145,22.8249524 C37.0435952,22.8591326 36.9741086,22.8904451 36.9064851,22.9205951 C36.1076125,23.2767735 35.3329549,23.5697108 34.0193905,23.9955514 C32.2484844,24.569656 29.7142775,25.0095302 26.956149,25.3075951 C24.6672227,25.5549541 23.1220722,25.625 19.5174582,25.625 C17.6757359,25.625 14.7234301,25.3966058 11.9214002,25.0427982 C8.65908559,24.6308709 4.2327033,23.1885219 2.57647837,21.9963209 C-0.146035127,20.0365734 -0.84300646,18.9664137 -0.597277881,17.3820623 C-0.472895148,16.5800965 0.822235199,12.7114065 3.35172196,5.55932968 Z" id="Path-23"></path>
                    <path d="M0.192056043,16.406435 L1.17379762,15.593565 C2.51232751,17.1060545 3.7875128,18.1557518 4.98943643,18.7468141 C6.22880853,19.3562923 7.45811255,19.7925438 8.67780633,20.0567764 L8.3953644,21.2765569 C7.06764276,20.9889212 5.73695643,20.5166915 4.40376326,19.8610755 C3.03312102,19.1870436 1.63252431,18.0341111 0.192056043,16.406435 Z" id="Path-24"></path>
                    <path d="M11.1724038,21.778881 L11.3641815,20.5427217 C15.9818445,21.2129673 20.0693843,21.4780133 23.6250593,21.3392415 C25.7353266,21.2568815 27.7378979,21.0352225 29.5864675,20.7174258 C30.4201432,20.5741045 31.1660098,20.4207465 31.8130394,20.267714 C32.0382341,20.214452 32.2346183,20.1651542 32.4008158,20.1211181 C32.4986563,20.095194 32.5635753,20.0771235 32.5941977,20.0682052 L32.9667779,21.2651281 C32.9259247,21.2770259 32.850626,21.2979856 32.7422401,21.3267039 C32.5647268,21.3737382 32.3568584,21.4259189 32.119992,21.4819414 C31.4468472,21.6411506 30.6741066,21.8000341 29.81261,21.9481383 C27.9087644,22.2754378 25.8485138,22.5034811 23.6771605,22.5882252 C20.0338563,22.730417 15.8661848,22.460175 11.1724038,21.778881 Z" id="Path-25"></path>
                    <path d="M38.204161,18.1620213 L38.9665707,19.171312 C38.4389659,19.544192 37.8287973,19.8794229 37.136517,20.1780778 C36.4579391,20.4708218 35.749718,20.7223851 35.0120409,20.9328086 L34.6464957,19.733858 C35.3297958,19.5389456 35.9842751,19.3064716 36.6101194,19.0364773 C37.2222616,18.7723946 37.7534585,18.4805513 38.204161,18.1620213 Z" id="Path-26"></path>
                    <polygon id="Path-27" points="41.1995426 15.8934266 42.1175306 16.7732401 41.0931403 17.7732401 40.1751523 16.8934266"></polygon>
                    <path d="M29.0118904,9.26547215 C29.0938254,9.23380697 29.4299057,9.09458684 29.4527401,9.08533838 C29.544039,9.04836018 29.6258482,9.01646646 29.7066957,8.98667766 C29.8336057,8.9399168 30.4000869,8.7353659 30.5505977,8.67982477 C31.434716,8.35356969 31.9598044,8.10782193 32.2432049,7.86649105 C32.35472,7.77152988 32.3474594,7.81265738 32.3072619,7.75738963 C32.1520792,7.54402757 31.7026792,7.25407825 30.973849,6.93743781 L30.0479537,6.53518236 L30.8166012,5.89400277 C31.7768857,5.0929661 32.3206203,4.49757529 32.420899,4.2045704 C32.5470508,3.83596678 32.1856347,3.32797796 31.2564394,3.02631162 C30.2035601,2.68449082 29.0370359,2.79232025 28.4540136,3.1705299 C28.2623971,3.29483251 28.0520773,3.47462479 27.7553737,3.75933099 C27.6902871,3.82178575 27.4352776,4.06975648 27.4777219,4.02859986 C27.3637431,4.13912074 27.2807842,4.21792721 27.1999397,4.29159221 C26.9675128,4.50337816 26.7822728,4.64485876 26.5885771,4.73908066 C26.5383552,4.76353164 26.5383552,4.76353164 26.4869148,4.78849249 C25.8687854,5.08767766 25.3901406,5.23995575 24.433966,5.39102238 C24.2133732,5.42587398 23.9931755,5.45391661 23.7611062,5.47735125 C23.470164,5.50673094 23.1947487,5.52660286 22.7411835,5.55358689 C21.5776721,5.6228079 21.2764743,5.64414586 20.5499996,5.7212948 C20.3165872,5.74654011 20.1707121,5.76202904 20.0118253,5.77750229 C19.4230491,5.83484048 18.9040758,5.86555846 18.39949,5.86203157 C17.3919407,5.85498913 16.6038618,5.71240385 16.0548032,5.35002186 C15.7546039,5.15188857 15.6375661,4.93126319 15.4886734,4.4969677 C15.4806829,4.47361666 15.4806829,4.47361666 15.4730489,4.45125903 C15.4319269,4.33092457 15.4112746,4.27701039 15.3910864,4.23772904 C14.8153423,3.11746977 14.3524848,2.83584351 13.0501082,2.83550697 C12.2139055,2.8352909 11.8186325,3.07822432 11.392625,3.6814638 C11.3341206,3.76430774 11.1355603,4.06132872 11.1196068,4.08462546 C10.9217116,4.37359917 11.1307962,5.1359975 11.4888192,5.48445031 C11.7152956,5.70487289 12.0026138,5.87270338 12.3589563,5.98839114 L13.8286795,6.46554161 L12.4436629,7.13927286 C12.25977,7.2287262 12.0365694,7.44596166 11.794152,7.79994825 C11.8198862,7.76237032 11.6767294,7.97048289 11.6418529,8.02230384 C11.1656579,8.72985442 11.137024,9.0745732 11.7144954,9.63660847 C12.4625868,10.3647029 13.6187958,10.4139274 14.5585206,9.95680518 C14.714393,9.8809822 14.8785326,9.76837496 15.0698779,9.60696007 C15.2582008,9.44809486 16.1507716,8.57937874 16.4363835,8.33064795 C16.7541317,8.05393059 17.068932,7.81243757 17.407193,7.59300581 C18.7124427,6.74628338 23.2836922,6.49562675 25.0796057,6.84565441 C26.6711601,7.15585208 28.3476473,8.08726578 28.9237524,9.29821804 C28.9504149,9.28878132 28.9797516,9.27789275 29.0118904,9.26547215 Z M10.5721951,6.36559325 C9.82767004,5.64096982 9.44907413,4.26047167 10.0421473,3.39444471 C10.0501285,3.38278983 10.2559639,3.07488627 10.3255122,2.97640387 C10.9744123,2.05754189 11.7430022,1.58516917 13.0504534,1.58550702 C14.8466316,1.58597115 15.7556961,2.13909265 16.5482948,3.68129881 C16.6048262,3.7912953 16.639757,3.88248414 16.7000627,4.05895562 C16.7078282,4.08169775 16.7078282,4.08169775 16.7152955,4.10351995 C16.7738949,4.27444464 16.8040241,4.33124057 16.7831912,4.31749075 C17.0638305,4.50271433 17.6384535,4.60667954 18.4088282,4.6120642 C18.859449,4.6152139 19.3357748,4.58702022 19.8823683,4.53379001 C20.0345105,4.51897358 20.1736511,4.50419971 20.4089638,4.47876111 C21.1630021,4.39868501 21.4774618,4.37640753 22.6618478,4.30594463 C23.0983986,4.27997283 23.3587615,4.26118699 23.6269198,4.23410804 C23.8350004,4.2130958 24.0305943,4.18818652 24.2256437,4.15737054 C25.0510176,4.0269692 25.4052428,3.91427449 25.9086082,3.67063705 C25.957333,3.64699392 25.957333,3.64699392 26.0079562,3.62234819 C26.1225758,3.56659231 26.0970741,3.58982932 26.8452319,2.8719236 C27.1962373,2.53511131 27.4569451,2.31224481 27.7342048,2.13238504 C28.6665093,1.52759411 30.2504436,1.38118075 31.6676473,1.84128066 C33.208535,2.34153497 34.0263731,3.49104854 33.647732,4.5974028 C33.4942834,5.04576506 33.0701731,5.57418176 32.3630388,6.22710187 C33.7177646,7.01663468 34.1216561,7.93228125 33.0971449,8.80470798 C32.6570961,9.17943338 32.0415577,9.46751284 31.0112383,9.8477187 C30.8550513,9.90535443 30.2881614,10.1100529 30.1667251,10.1547969 C30.1003313,10.1792602 30.0311254,10.2062405 29.9518782,10.2383374 C29.9420514,10.2423175 29.5907398,10.3878472 29.4913733,10.426249 C29.2964952,10.501563 29.1409502,10.5498733 28.9851043,10.5760098 C28.4471856,10.6662224 27.983009,10.4393623 27.7880545,9.9112359 C27.4959045,9.11980846 26.1009605,8.31984253 24.8243376,8.07102574 C23.3346293,7.78067819 19.0782525,8.01406932 18.127002,8.6311506 C17.843082,8.81533106 17.5756559,9.02048182 17.301075,9.25960604 C17.0538903,9.4748718 16.1516366,10.353012 15.9192846,10.5490193 C15.6524799,10.77409 15.4032957,10.9450418 15.1391414,11.0735377 C13.7440364,11.7521763 11.9894479,11.6774763 10.7978714,10.5177514 C9.70721075,9.45624489 9.78780923,8.48593367 10.5588139,7.34034264 C10.5978405,7.2823553 10.7462721,7.06657438 10.7167706,7.10965356 C10.8130444,6.96907102 10.9107288,6.83979057 11.0102206,6.72198945 C10.8528793,6.61534958 10.7067422,6.49654378 10.5721951,6.36559325 Z" id="Path-28" transform="translate(21.744972, 6.538160) rotate(5.000000) translate(-21.744972, -6.538160) "></path>
                </g>
                <rect id="Rectangle" fill="#4CB0AB" x="0" y="0" width="442" height="183"></rect>
                <ellipse id="Oval-Copy-2" fill="#1E9690" cx="400.5" cy="269" rx="112.5" ry="29"></ellipse>
                <ellipse id="Oval" fill="#1C8983" cx="400" cy="268" rx="77" ry="20"></ellipse>
                <rect id="Rectangle" fill="#39ABA8" x="442" y="0" width="9" height="180"></rect>
                <rect id="Rectangle-Copy" fill="#3EAAA7" x="541" y="2" width="7" height="179"></rect>
                <polygon id="Rectangle-Copy-4" fill="#3EAAA7" transform="translate(606.500000, 89.000000) rotate(90.000000) translate(-606.500000, -89.000000) " points="603 -76 610 -76 610 254 603 254"></polygon>
                <polygon id="Rectangle-Copy-5" fill="#3EAAA7" transform="translate(606.500000, 178.000000) rotate(90.000000) translate(-606.500000, -178.000000) " points="603 13 610 13 610 343 603 343"></polygon>
                <g id="пылесос-" transform="translate(479.000000, 177.000000)" fill="#FFFFFF" fill-rule="nonzero">
                    <path d="M16.430245,29.8103783 L16.6154504,29.9387536 L16.6739092,29.9041188 C16.7170476,29.9778465 16.7426057,30.042046 16.7437702,30.1307049 C16.7467501,30.3575733 16.5613536,30.5065393 16.3628603,30.4957714 C16.3458357,30.4948479 16.3294709,30.4930761 16.3134675,30.4904268 C13.3697601,33.886585 10.1469196,35.5972502 6.65623408,35.5972502 C4.20830936,35.5972502 2.34152033,34.7341883 1.1140987,33.2517712 C0.142399176,32.0782021 -0.348423174,30.5622294 -0.251149504,29.4027561 C-0.0654452698,27.189216 0.707166295,25.7250439 2.49056537,24.7554491 C3.7401421,24.1881114 5.20523309,23.8946563 6.52156795,23.8946563 C7.66999897,23.8946563 8.70114029,24.1242873 10.4424461,24.7447208 C11.5224431,25.1295276 13.1692493,25.9409524 15.3919509,27.1815643 C15.9821623,26.5310308 16.4880069,25.9112351 16.9074784,25.3253405 C19.1300137,22.1315316 22.3347503,16.3607103 24.2107068,11.9377104 C24.6712681,10.851831 25.8609782,8.63059572 26.9664958,6.91396217 C28.5793004,4.40961996 29.9515841,2.94606751 31.0546239,2.94606751 C31.7970173,2.94606751 32.4646377,2.79100471 33.2613149,2.46477862 C33.6690042,2.29783664 35.2455979,1.54876244 35.1807944,1.57845048 C35.734228,1.32490951 36.2238421,1.12382242 36.7156316,0.955281396 C38.9823213,-0.0282210279 42.4124654,-0.341615587 46.6710913,0.0646245343 C49.7579308,0.359085274 51.0682213,0.594694675 52.4866706,1.20210341 C53.173986,1.49642576 54.6102426,2.2581625 54.7519491,2.36494741 C55.2506074,2.74071722 55.7011133,3.53485762 56.0824016,4.63967555 C56.1016656,4.69549472 56.1348251,4.75556605 56.1842339,4.82174387 C56.2988203,4.97522032 56.4876573,5.14727562 56.805249,5.39233736 C56.9153714,5.47731057 57.6321938,6.00963092 57.8705357,6.19420027 C58.9529215,7.03238836 59.8332742,7.88037403 60.6939314,9.01199127 C60.9020211,9.28559358 61.1044391,9.57119998 61.3071532,9.87914751 C62.5566865,11.9143349 63.074769,13.8654925 63.2978607,17.0432284 C63.2953258,17.179691 63.2967324,17.2584185 63.3069681,17.6715353 C63.3633062,19.9453594 63.1496195,21.5003518 62.2033092,23.2750288 C60.9154237,25.6902846 59.1230982,26.5024328 56.4075964,26.296796 C55.1410891,26.0969946 54.1721249,25.8486003 53.074332,25.4785981 C52.8256933,25.3947965 52.0116759,25.1091808 52.0108086,25.1088808 C51.6492758,24.9838314 51.3659537,24.8917731 51.0875617,24.8107228 C49.6738324,24.4399001 48.6385474,24.6088463 47.5954327,25.1109167 C47.5635747,25.1282643 47.5319175,25.1456515 47.5004463,25.1630853 C47.004231,25.4379701 46.5557736,25.72294 46.0603869,26.0726691 C45.7457835,26.2947701 43.7673851,27.7863095 42.9579988,28.3594154 C40.8037009,29.8848198 35.8794315,30.4947953 32.8327928,29.7345198 C29.9641354,29.0186588 27.8158211,27.5576424 26.4028503,25.3818773 C25.6835513,24.2742634 25.1972063,23.1901649 24.7421991,21.5213084 C24.3229662,19.9836633 24.1832249,18.7466939 24.1832249,17.1773466 C24.1832249,16.1730353 24.8488162,14.6309721 25.9888891,12.7136506 C27.0935079,10.5869253 27.7978582,9.26858201 28.1059336,8.7515396 C29.137862,7.01965588 30.0044516,5.94028236 31.4171919,5.0290732 C32.5891227,4.27318486 33.3871782,3.89590172 33.8836988,3.89590172 L33.9746221,3.89590172 L35.5348024,4.79298034 L34.9123282,5.06814624 C33.4233739,5.72634137 32.5098588,6.16698775 32.2078649,6.36805022 C31.3776955,6.94735752 30.7130351,7.5106037 30.1656721,8.06942805 C29.9575374,8.28192101 29.774176,8.48563681 29.5976774,8.69622563 C29.5308183,8.77599844 29.4678801,8.85315897 29.3954642,8.94357232 C29.3792928,8.96376284 29.2635563,9.10904861 29.2337539,9.14596184 C28.7061981,9.79939233 27.6229181,11.3475828 26.7844649,12.7222503 C26.7167573,12.8332588 26.6505922,12.9430837 26.5860109,13.0516649 C26.3152413,13.5730227 26.0204077,14.1429685 25.7015692,14.7613972 L25.6612218,14.7403339 C25.1515746,15.7770657 24.8680075,16.6171973 24.8680075,17.1773466 C24.8680075,18.6890234 25.0009703,19.8659903 25.4025789,21.3389939 C25.8387168,22.9386421 26.2956133,23.9570978 26.9760875,25.0049273 C28.2911583,27.029941 30.2916813,28.390448 32.9976199,29.0657033 C35.8643587,29.7810856 40.5863154,29.1961707 42.563926,27.7958742 C43.362045,27.2307464 45.3409549,25.7388215 45.6670981,25.5085736 C46.1818252,25.1451908 46.6510159,24.847046 47.1702012,24.5594367 C47.2031174,24.5412024 47.2362216,24.5230205 47.2846271,24.497142 C48.4776109,23.9224018 49.6724079,23.7274252 51.2689512,24.1463227 C51.5685619,24.2334177 51.8620068,24.3287652 52.2334071,24.4572276 C52.2377928,24.4587446 53.0479277,24.7429979 53.2918192,24.8251996 C54.3551891,25.1835998 55.2875166,25.4226023 56.4861811,25.6128388 C58.9223505,25.7963113 60.4511397,25.1035781 61.5999027,22.9492277 C62.4763986,21.3054781 62.6760187,19.8528487 62.6223983,17.6887101 C62.6118182,17.2616962 62.6103876,17.1816264 62.6139996,17.0612178 C62.3989275,14.0165278 61.9085523,12.1697189 60.7305126,10.2506394 C60.5422852,9.96499728 60.3488447,9.69205793 60.150131,9.43078344 C59.3295545,8.35186552 58.491214,7.54434736 57.4529024,6.74028997 C57.2216973,6.56124721 56.5055101,6.02939861 56.3885539,5.93915223 C56.0249458,5.65858309 55.7984209,5.45218913 55.636746,5.23564266 C55.5468853,5.11528364 55.4795285,4.99326128 55.4355166,4.86573258 C55.0953324,3.88001765 54.7035089,3.18932105 54.3414766,2.9165074 C54.2522919,2.84930097 52.8596477,2.11069463 52.2185295,1.83615487 C50.8849118,1.26507275 49.6255624,1.0386233 46.606465,0.750624634 C42.4523249,0.354351647 39.1306175,0.657838901 36.9622162,1.59758572 C36.4690194,1.76768851 35.999231,1.96063309 35.4645333,2.20559069 C35.5455508,2.16847465 33.9475287,2.92772994 33.5194227,3.10303221 C32.6465207,3.46047107 31.894473,3.63514314 31.0546239,3.63514314 C29.6227173,3.63514314 26.2658811,8.84759537 24.8405256,12.2081995 C22.9457346,16.6756061 19.7178222,22.4881603 17.4657554,25.7243526 C16.9835841,26.3978778 16.3989036,27.1060062 15.7116881,27.8492025 L15.5287289,28.0470657 L15.294187,27.9153722 C13.9904081,27.1833106 12.8821407,26.596486 11.9711933,26.1554096 C12.8608508,26.8367634 13.92052,27.6928506 14.3611259,28.1075581 C14.7198492,28.4451959 15.3371479,28.9725623 15.8265727,29.3585792 C16.0824805,29.5604177 16.2875735,29.7111098 16.4103166,29.787059 C16.4315673,29.8002082 16.4489459,29.8102178 16.4613463,29.8167047 C16.4592235,29.8162092 16.4488145,29.8128342 16.430245,29.8103783 Z M0.431205901,29.4607221 C0.34928595,30.4371837 0.782270673,31.7745168 1.6402036,32.8106844 C2.73631472,34.1345114 4.40973571,34.9081745 6.65623408,34.9081745 C9.89655816,34.9081745 12.9089976,33.3282415 15.704466,30.1440387 L15.0202673,29.669786 C13.5835093,31.3095698 12.3210017,32.4605536 11.2251815,33.1241263 C9.42539875,34.2139823 6.75235243,34.7421937 4.85770774,34.3239802 C2.83777599,33.878112 1.37542871,32.3122917 0.97312822,30.1421047 C0.649075053,28.3940184 1.32610632,26.5931415 2.49000533,25.5508478 C1.1713131,26.3834065 0.587520355,27.5974996 0.431205901,29.4607221 Z M15.2219444,29.4377281 L14.7690896,29.495682 L15.0202673,29.669786 C15.0871156,29.5934915 15.154341,29.516139 15.2219444,29.4377281 Z M31.8237595,5.79763174 C32.1274903,5.59531599 32.8521887,5.23776287 34.0167062,4.71373389 L33.8033816,4.59107566 C33.4542713,4.63972706 32.7630992,4.97944959 31.7867254,5.60920478 C30.9653254,6.13900295 30.3392131,6.73705129 29.7421202,7.52071221 C30.3066447,6.9529888 30.9844534,6.38322057 31.8237595,5.79763174 Z M13.8933456,28.6108021 C13.2068136,27.9646238 10.8683754,26.1355414 10.3357722,25.8198264 C9.32560558,25.2210234 8.23585143,24.8218634 7.01300315,24.8218634 C5.37605371,24.8218634 4.64062886,24.99584 3.4493483,25.6953031 C2.16986976,26.4465516 1.32221474,28.2674915 1.646299,30.0157455 C1.99889748,31.9178178 3.25729205,33.2652541 5.0044325,33.6509079 C6.7201338,34.0296224 9.21633522,33.5363568 10.8720978,32.533712 C11.9051772,31.9081318 13.1284623,30.7905893 14.5342511,29.1824993 C14.2911103,28.9736115 14.0650311,28.7723962 13.8933456,28.6108021 Z" id="Path-8"></path>
                    <path d="M55.4683739,9.97988522 C55.3209421,11.0048168 55.4654312,11.7754144 55.9175573,12.625918 C56.1030065,12.9747702 56.3336081,13.3321018 56.7002758,13.8525876 C56.8069345,14.00399 57.2310646,14.59809 57.1998309,14.5541988 C57.4153712,14.8570878 57.5844921,15.0988899 57.7542533,15.3488101 C59.2698495,17.5800516 59.6118641,18.5041379 59.6118641,20.2378956 C59.6118641,22.0707175 58.2150758,23.7719316 56.5184723,23.7719316 C54.5115264,23.7719316 52.9131754,22.5769431 51.2871245,19.4562236 C50.1724404,17.6710628 49.7074266,15.0618653 49.7074266,12.726702 C49.7074266,10.6408806 50.0536045,9.23259573 51.3194993,7.77858697 C53.0148772,5.83127373 55.8467766,7.34926775 55.4683739,9.97988522 Z M50.3922092,12.726702 C50.3922092,14.9430799 50.8373375,17.4406999 51.8802277,19.1128411 C53.4107506,22.0481128 54.7947662,23.082856 56.5184723,23.082856 C57.8049112,23.082856 58.9270815,21.716112 58.9270815,20.2378956 C58.9270815,18.6586537 58.6326244,17.8630624 57.1889153,15.7376524 C57.0223976,15.4925072 56.8559512,15.254529 56.6430722,14.9553797 C56.6755234,15.0009819 56.2497463,14.4045747 56.1416227,14.2510931 C55.7597281,13.7089927 55.5156918,13.3308431 55.3137383,12.9509443 C54.7940549,11.9733573 54.6218287,11.0548306 54.7906542,9.88117209 C55.0752168,7.90292143 53.0614494,6.82347385 51.8345744,8.23266402 C50.7014556,9.53416608 50.3922092,10.79221 50.3922092,12.726702 Z" id="Path-9"></path>
                    <path d="M38.861413,26.5893862 C38.6723155,26.5893862 38.5190217,26.4351313 38.5190217,26.2448483 C38.5190217,26.0545654 38.6723155,25.9003105 38.861413,25.9003105 C38.9715592,25.9003105 39.0814566,25.8983 39.1910697,25.8942885 C39.3800423,25.8873728 39.5388062,26.0359194 39.5456788,26.2260767 C39.5525515,26.4162339 39.4049303,26.5759932 39.2159577,26.5829089 C39.0980526,26.5872238 38.9798579,26.5893862 38.861413,26.5893862 Z M41.6711465,26.1680632 C41.4903542,26.2238364 41.2988617,26.1215695 41.243436,25.9396438 C41.1880103,25.757718 41.28964,25.565025 41.4704323,25.5092519 C41.5754432,25.4768568 41.6797649,25.4425066 41.783351,25.4062237 C41.9619385,25.3436701 42.1571061,25.4386418 42.2192701,25.6183489 C42.281434,25.7980561 42.1870539,25.9944472 42.0084664,26.0570008 C41.8968008,26.0961138 41.7843439,26.1331426 41.6711465,26.1680632 Z M44.2319966,24.9287454 C44.0758405,25.0360588 43.8627982,24.9956703 43.7561534,24.8385352 C43.6495086,24.6814 43.6896455,24.4670221 43.8458016,24.3597088 C43.936551,24.2973441 44.0260985,24.2332856 44.1143947,24.1675715 C44.2664277,24.0544217 44.4808293,24.0867153 44.5932742,24.2397014 C44.705719,24.3926874 44.6736266,24.6084332 44.5215936,24.721583 C44.4263914,24.7924369 44.3298414,24.8615047 44.2319966,24.9287454 Z M46.3018937,22.9884287 C46.1845736,23.1376616 45.9692433,23.1629358 45.8209401,23.0448802 C45.6726369,22.9268245 45.6475201,22.7101443 45.7648403,22.5609113 C45.8329877,22.4742268 45.8994559,22.386274 45.9642048,22.2971026 C46.0757654,22.1434624 46.2899772,22.1099172 46.4426601,22.2221772 C46.5953431,22.3344372 46.6286794,22.5499919 46.5171187,22.7036321 C46.4472142,22.7999039 46.3754581,22.8948538 46.3018937,22.9884287 Z M47.7070067,20.481952 C47.6410038,20.6602676 47.4438451,20.7509795 47.2666405,20.6845629 C47.0894358,20.6181462 46.999289,20.4197515 47.0652919,20.2414359 C47.1035568,20.1380583 47.1398095,20.0339196 47.1740259,19.9290682 C47.2330221,19.748283 47.4264902,19.6498533 47.6061491,19.7092193 C47.785808,19.7685853 47.8836245,19.9632663 47.8246283,20.1440515 C47.7876137,20.2574773 47.7483978,20.3701285 47.7070067,20.481952 Z M48.2690087,17.6776974 C48.2610506,17.8678118 48.1014414,18.0154383 47.9125114,18.0074304 C47.7235815,17.9994225 47.5768747,17.8388126 47.5848327,17.6486982 C47.5894418,17.53859 47.5919467,17.4281847 47.5923372,17.3175194 C47.5930086,17.1272376 47.7468458,16.9735314 47.9359421,16.974207 C48.1250384,16.9748827 48.2777869,17.1296842 48.2771155,17.319966 C48.2766938,17.4394861 48.273988,17.5587439 48.2690087,17.6776974 Z M47.9547182,14.8646268 C48.0046815,15.0481476 47.8973386,15.2376778 47.7149611,15.2879543 C47.5325837,15.3382308 47.3442343,15.230215 47.294271,15.0466942 C47.2652866,14.9402311 47.2342363,14.8344031 47.2011414,14.7292572 C47.1440449,14.5478554 47.243898,14.3542242 47.4241696,14.2967697 C47.6044412,14.2393152 47.7968661,14.3397943 47.8539626,14.5211961 C47.8897668,14.6349499 47.9233599,14.7494441 47.9547182,14.8646268 Z M46.7826287,12.2557697 C46.8863595,12.4148678 46.842279,12.6284599 46.6841721,12.732841 C46.5260652,12.8372221 46.3138038,12.7928652 46.210073,12.6337671 C46.1499085,12.5414892 46.0879614,12.4503482 46.0242693,12.3603942 C45.9145417,12.2054231 45.9504362,11.9902848 46.1044418,11.8798694 C46.2584474,11.7694539 46.4722453,11.8055734 46.5819729,11.9605445 C46.6507515,12.0576823 46.7176504,12.1561086 46.7826287,12.2557697 Z M44.8881356,10.139256 C45.0344485,10.2598001 45.0559469,10.4768741 44.9361538,10.6241042 C44.8163606,10.7713344 44.6006391,10.7929677 44.4543262,10.6724235 C44.3693808,10.6024388 44.2831024,10.5340457 44.1955397,10.4672852 C44.0448192,10.3523712 44.015212,10.1362659 44.12941,9.98460053 C44.2436081,9.83293516 44.458367,9.80314227 44.6090875,9.91805627 C44.703504,9.99004237 44.7965374,10.0637902 44.8881356,10.139256 Z M42.431356,8.67634285 C42.6067724,8.74740384 42.6917281,8.94810476 42.6211099,9.1246209 C42.5504916,9.30113704 42.3510411,9.38662534 42.1756246,9.31556435 C42.0737509,9.27429543 41.9710599,9.23493271 41.8675997,9.19750104 C41.6896544,9.13312084 41.5972665,8.93577284 41.6612456,8.75671195 C41.7252247,8.57765106 41.9213432,8.48468399 42.0992885,8.54906418 C42.2108231,8.58941715 42.3215297,8.63185232 42.431356,8.67634285 Z M39.6535274,8.01681475 C39.8419951,8.03233164 39.9822778,8.19865167 39.9668576,8.38830092 C39.9514374,8.57795017 39.7861535,8.71911234 39.5976858,8.70359544 C39.4882954,8.69458913 39.3785583,8.68759053 39.268512,8.68261083 C39.0796054,8.67406262 38.9333529,8.51303383 38.9418479,8.32294295 C38.9503428,8.13285208 39.1103684,7.98568267 39.299275,7.99423087 C39.4176912,7.99958932 39.5357893,8.00712115 39.6535274,8.01681475 Z M36.8655374,8.19381826 C37.0505258,8.15436556 37.2322719,8.27328563 37.2714788,8.45943368 C37.3106857,8.64558173 37.1925066,8.82846728 37.0075182,8.86791999 C36.9000255,8.89084511 36.7930807,8.91576376 36.6867279,8.94265801 C36.5033327,8.98903455 36.3173001,8.87702694 36.2712125,8.69248201 C36.2251249,8.50793709 36.3364347,8.32073826 36.5198299,8.27436172 C36.6344485,8.24537724 36.7497004,8.21852299 36.8655374,8.19381826 Z M34.2065235,9.19885568 C34.3715526,9.10595536 34.5801765,9.16526598 34.672498,9.33132965 C34.7648196,9.49739333 34.7058784,9.70732512 34.5408494,9.80022544 C34.4449655,9.85420165 34.3501302,9.90996905 34.2563934,9.96749389 C34.0949503,10.0665691 33.8842588,10.0151894 33.7858008,9.85273415 C33.6873429,9.69027888 33.7384024,9.47826653 33.8998456,9.37919132 C34.0009056,9.31717234 34.1031494,9.25704837 34.2065235,9.19885568 Z M31.9701588,10.9477906 C32.1003073,10.8097473 32.3170224,10.8040087 32.4542057,10.9349731 C32.5913889,11.0659374 32.5970918,11.2840112 32.4669433,11.4220545 C32.3913505,11.5022327 32.317305,11.5838163 32.2448506,11.6667581 C32.1200047,11.8096744 31.9036624,11.8236891 31.7616364,11.6980606 C31.6196104,11.5724321 31.6056831,11.3547335 31.7305289,11.2118171 C31.8087086,11.1223213 31.888601,11.0342956 31.9701588,10.9477906 Z M30.347141,13.3098508 C30.4292951,13.1384641 30.633965,13.0665442 30.804284,13.1492134 C30.974603,13.2318825 31.0460748,13.4378355 30.9639207,13.6092223 C30.9162659,13.7086378 30.8705473,13.8089647 30.8267935,13.9101529 C30.7513475,14.0846348 30.5496222,14.1645358 30.3762274,14.0886169 C30.2028325,14.0126979 30.1234293,13.8097079 30.1988752,13.6352261 C30.246186,13.5258118 30.2956184,13.4173353 30.347141,13.3098508 Z M29.5242852,16.0793925 C29.5490424,15.8907473 29.7210865,15.7580158 29.9085563,15.7829282 C30.0960262,15.8078407 30.2279308,15.9809633 30.2031735,16.1696085 C30.1888337,16.2788749 30.1765988,16.3885602 30.1664824,16.4986236 C30.1490669,16.6880979 29.9823066,16.8274907 29.7940128,16.809966 C29.605719,16.7924414 29.4671947,16.6246357 29.4846101,16.4351614 C29.4955482,16.3161584 29.5087781,16.1975534 29.5242852,16.0793925 Z M29.5838898,18.8836475 C29.5510699,18.6962524 29.6754313,18.517566 29.8616589,18.4845403 C30.0478865,18.4515146 30.2254596,18.5766557 30.2582796,18.7640507 C30.277311,18.8727163 30.2984423,18.9808877 30.3216562,19.0885209 C30.3617621,19.2744749 30.2444681,19.4579365 30.0596725,19.4982939 C29.874877,19.5386512 29.6925584,19.4206218 29.6524525,19.2346678 C29.6273383,19.118224 29.6044779,19.0012009 29.5838898,18.8836475 Z M30.5109371,21.5889597 C30.4221022,21.4209815 30.4854121,21.2123417 30.6523439,21.1229498 C30.8192756,21.0335579 31.0266155,21.0972648 31.1154505,21.2652431 C31.1669651,21.3626521 31.2203677,21.4590725 31.2756256,21.5544539 C31.3708618,21.7188424 31.315633,21.9297939 31.1522686,22.0256272 C30.9889042,22.1214604 30.779267,22.0658854 30.6840308,21.9014968 C30.6243203,21.7984297 30.5666105,21.6942325 30.5109371,21.5889597 Z M32.2104634,23.8716692 C32.0753915,23.7385012 32.0731756,23.5203633 32.2055139,23.3844446 C32.3378523,23.2485259 32.5546311,23.2462961 32.689703,23.3794641 C32.7681345,23.4567901 32.8480442,23.5326464 32.9293855,23.6069885 C33.0693644,23.7349224 33.0797749,23.95282 32.9526381,24.0936764 C32.8255012,24.2345328 32.6089611,24.2450086 32.4689823,24.1170747 C32.3812516,24.0368931 32.295062,23.9550753 32.2104634,23.8716692 Z M34.5251649,25.5462853 C34.3567278,25.4597999 34.289856,25.2522884 34.3758026,25.0827953 C34.4617491,24.9133023 34.6679678,24.8460113 34.8364049,24.9324967 C34.9342278,24.9827246 35.0330195,25.0311189 35.1327306,25.0776499 C35.3042788,25.1577043 35.3788535,25.3625402 35.2992979,25.5351639 C35.2197423,25.7077875 35.0161825,25.7828297 34.8446343,25.7027754 C34.7371357,25.6526103 34.6306281,25.6004363 34.5251649,25.5462853 Z M37.2455499,26.4528735 C37.0591223,26.421011 36.9336617,26.2431044 36.9653258,26.055508 C36.9969898,25.8679117 37.1737881,25.7416645 37.3602157,25.7735271 C37.4684305,25.7920222 37.577118,25.8085158 37.686237,25.8229933 C37.8737119,25.8478668 38.0056521,26.020962 37.9809336,26.2096122 C37.956215,26.3982625 37.7841982,26.5310298 37.5967233,26.5061563 C37.4791948,26.4905631 37.3621219,26.472797 37.2455499,26.4528735 Z" id="Oval"></path>
                    <path d="M37.1794522,5.80546112 L37.03061,5.89057242 L36.8614479,5.5910218 L37.0102901,5.5059105 C37.7488733,5.08357208 38.8417474,4.60946869 40.2971229,4.07980275 C42.9139626,3.23785435 47.8984226,2.91627087 51.074372,3.55546655 C53.4039232,4.02431499 55.2519436,4.67446348 56.6191639,5.50836606 L56.7655658,5.59766034 L56.5880899,5.89229984 L56.4416879,5.80300556 C55.1124939,4.99229612 53.3007615,4.35491402 51.0072212,3.89331319 C47.8892546,3.26578721 42.9637087,3.58356972 40.4074983,4.40588294 C38.9748691,4.92739841 37.8981503,5.3944934 37.1794522,5.80546112 Z" id="Path-10"></path>
                    <path d="M33.465848,7.40702983 L33.6685941,7.68466858 C31.5170545,9.27559563 30.0361768,11.0244562 29.2224397,12.9306268 C28.3855448,14.8910442 28.2303964,16.3823457 28.3020703,19.2561272 C28.3170441,19.8565048 28.3213449,20.0791657 28.3213449,20.3798827 L27.9789536,20.3798827 C27.9789536,20.0831191 27.9746844,19.8620961 27.9597867,19.2647713 C27.8869633,16.3448973 28.0463736,14.8126304 28.9078466,12.794639 C29.7474404,10.8278994 31.2679479,9.03223749 33.465848,7.40702983 Z" id="Path-11"></path>
                    <path d="M27.4864618,21.6817192 L28.5834094,22.9088517 C29.0290791,23.4074131 29.6123006,24.2602892 30.3366931,25.4707737 C30.6225224,25.9484041 30.7562089,26.2137686 30.7763019,26.3465317 C30.7888319,26.4293225 30.7622798,26.5029931 30.7116098,26.5481182 C31.9787924,28.2669121 33.4797036,29.1347438 35.6137267,29.5205888 L35.5531756,29.8596961 C33.2845424,29.4495127 31.6843888,28.5026901 30.3440012,26.625735 C30.1719143,26.3847604 30.1172428,26.3101835 30.1183099,26.2586485 L27.4864618,21.6817192 Z" id="Path-12"></path>
                    <path d="M17.3459558,28.5249685 L16.8662914,28.6107731 L17.0630272,28.3235941 L17.3459558,28.5249685 Z M18.7261074,25.895963 L22.5741201,19.3819648 L24.8645307,14.9465451 L25.4765702,15.255453 C24.2085815,17.8928989 22.9892649,20.1932426 21.8182609,22.1567972 C20.7823441,23.8938362 19.3014105,26.2472081 17.3750072,29.2177373 C17.3077421,29.1784878 17.2427572,29.140273 17.180052,29.1030926 C16.3107981,28.587678 15.6639667,28.176674 15.2368115,27.8677982 L15.6343336,27.3067214 L17.0630272,28.3235941 L18.7261074,25.895963 Z M16.8181763,30.0745143 C17.4231729,30.4174845 18.0952374,30.8362076 18.8347937,31.3307897 C19.4320567,31.7302124 19.8284689,32.0444923 20.1526313,32.3725599 C20.2993071,32.5210027 20.4335601,32.6742624 20.5778727,32.8554442 C20.6592326,32.9575901 20.7419054,33.0659539 20.852385,33.2142212 C20.8802523,33.2516202 21.0879238,33.5319202 21.1554109,33.6222146 C21.7862505,34.4662466 23.1062629,35.4321007 24.0833552,35.8102286 C24.4279495,35.9435842 24.5647178,35.9941671 24.790766,36.0669973 C26.2823825,36.5475793 28.1406983,36.6776604 30.9600992,36.2669219 C32.1781793,36.193538 33.9641413,36.4463893 37.1336138,37.055556 C37.3256497,37.0924649 37.5263734,37.1313052 37.7624073,37.1771819 C41.0474455,37.8156765 41.8352106,37.9569589 42.8532301,38.0510881 C44.2492097,38.1801645 45.4371389,38.0205359 46.8332575,37.6252859 C47.0567229,37.5620215 47.7451986,37.3547976 47.8498868,37.3247339 C48.2131254,37.2204211 48.4652904,37.1631311 48.6916309,37.1411836 C49.9481405,37.019344 50.316702,37.2097436 51.4079503,38.6112685 C52.4633207,39.966714 54.6911296,40.7285964 56.593846,40.2785137 C57.8794285,39.9744123 58.5381435,39.3816151 58.6484874,38.5016054 C58.7465344,37.2261204 58.2470425,36.7238911 56.9931647,36.8338787 C55.341438,36.9787649 54.4997972,36.9114627 54.2532418,36.4652889 L54.2320858,36.4270045 L54.2211235,36.3846109 C54.0078526,35.5598452 53.8829429,35.4474767 53.7117393,35.5981244 C53.23866,36.0144026 52.3862982,36.1918082 51.1267159,36.2480572 C50.7251452,36.2659902 50.3990829,36.2697549 49.7399439,36.2697549 C49.049018,36.2697549 48.522212,36.0760865 47.5738496,35.5797244 C47.107184,35.335477 47.0033322,35.2829259 46.8003169,35.1948551 C46.6403769,35.1254709 46.4953773,35.0729264 46.3577802,35.0355848 C45.6954927,34.855851 44.5624387,34.7494454 42.9778827,34.72169 L35.0018204,34.72169 C34.2267187,34.72169 33.2059781,34.3373525 32.0272933,33.6936486 C31.297071,33.2948593 30.5080835,32.7858628 30.2353786,32.5776864 C30.1509646,32.5132468 29.984613,32.3915693 29.7934356,32.2572394 C29.5041406,32.0539676 29.197703,31.8491646 28.8869023,31.65477 C28.040761,31.1255393 27.2988638,30.7584244 26.7714483,30.6414965 C25.5748054,30.3762014 24.524689,30.3507626 23.5200155,30.5354478 C22.892114,30.6508723 22.1821585,30.8883497 21.391698,31.2489377 L21.240069,31.318107 L21.0923637,31.2408174 C19.476806,30.395446 18.2381652,29.7213946 17.3750072,29.2177373 C17.1933579,29.497842 17.0077477,29.7834341 16.8181763,30.0745143 Z M16.7392491,28.93717 L15.2388963,27.8692939 L15.6364184,27.3082171 C15.9824015,27.5583973 16.4905076,27.8858018 17.1590514,28.2890293 C18.9076362,25.5844951 20.265108,23.4219996 21.2310927,21.8022238 C22.3908103,19.8575943 23.6006106,17.5752038 24.8601343,14.9553653 L25.4721738,15.2642732 L23.172273,19.7168564 L19.3023845,26.2674723 L17.6984648,28.609923 C18.5252723,29.093121 19.7134677,29.7409966 21.2617231,30.5526916 C22.0401343,30.2082429 22.7514509,29.9762506 23.3969554,29.8575901 C24.4926006,29.656182 25.6345503,29.6838455 26.918785,29.9685596 C27.5426437,30.1068689 28.340489,30.5016687 29.2483995,31.0695338 C29.5703006,31.2708713 29.8867309,31.4823529 30.1854796,31.6922672 C30.3839053,31.8316901 30.5575286,31.9586864 30.6492518,32.0287058 C30.7132302,32.0775453 30.94165,32.2339726 31.1900069,32.3941941 C31.5588526,32.6321462 31.9544536,32.869853 32.3539328,33.0880168 C33.4378193,33.6799493 34.3744426,34.0326144 35.0018204,34.0326144 C37.3939481,34.0326144 37.3939481,34.0326144 42.9838307,34.0326663 C44.6264268,34.0613845 45.8060753,34.1721658 46.5360902,34.3702797 C46.7079473,34.4169189 46.8831796,34.480419 47.0714146,34.562078 C47.2962096,34.6595972 47.4054874,34.7148938 47.889837,34.9683969 C48.7446315,35.4157866 49.1931633,35.5806793 49.7399439,35.5806793 C50.3891244,35.5806793 50.7081344,35.5769959 51.0963561,35.5596592 C52.1992131,35.510409 52.9483428,35.3544895 53.2609671,35.0794011 C53.9598013,34.4644734 54.5337798,34.9485873 54.8584505,36.1164106 C54.8659728,36.1186596 54.8771675,36.1228179 54.8926029,36.1280624 C54.9803672,36.1578822 55.1137161,36.1813789 55.2888793,36.1953859 C55.6683749,36.2257325 56.2183541,36.2101548 56.9336967,36.1474064 C58.610318,36.0003365 59.4617783,36.8564633 59.3295759,38.571155 C59.1776476,39.7871633 58.2912547,40.5848546 56.7505489,40.9493047 C54.5907065,41.4602099 52.0904979,40.6051702 50.8689128,39.03625 C49.9123721,37.8077343 49.7613631,37.7297227 48.7573141,37.8270821 C48.5825488,37.8440285 48.3639977,37.8936817 48.0378106,37.9873542 C47.9391466,38.015688 47.2490202,38.2234086 47.0187158,38.2886092 C45.5485666,38.7048178 44.2812875,38.875109 42.7905715,38.737273 C41.7386813,38.6400121 40.9511124,38.4987649 37.6325395,37.8537522 C37.3969356,37.8079592 37.1966572,37.769205 37.0051423,37.7323962 C33.9003563,37.1356622 32.138571,36.8862337 31.0297649,36.9518056 C28.1390015,37.3742111 26.1758547,37.236792 24.5819535,36.7232549 C24.3395068,36.6451413 24.1941084,36.5913667 23.8375512,36.4533815 C22.7443135,36.0303062 21.3188417,34.9872874 20.6081363,34.0363989 C20.5395782,33.9446716 20.3314983,33.6638202 20.3045087,33.6275993 C20.1980698,33.4847547 20.1194518,33.3817057 20.0435387,33.2863982 C19.9136758,33.1233578 19.7953204,32.9882463 19.6670327,32.8584131 C19.3791524,32.5670647 19.0175417,32.2803758 18.4557655,31.9046851 C17.5968204,31.330261 16.8335323,30.8618824 16.1666037,30.4997254 L15.8382151,30.321403 L16.0429556,30.0074788 C16.2811495,29.6422611 16.5132476,29.2854911 16.7392491,28.93717 Z" id="Path-13"></path>
                    <path d="M43.4735707,34.3200892 L43.8156486,34.3053497 C43.8489198,35.0872283 43.6231415,35.8405656 43.1416743,36.5609564 C42.6615695,37.2793083 42.0356808,37.80284 41.266897,38.1285064 L41.1340509,37.8109591 C41.8408155,37.5115649 42.414355,37.0318211 42.857559,36.3686819 C43.2994002,35.707581 43.5036172,35.0261857 43.4735707,34.3200892 Z" id="Path-16"></path>
                    <path d="M46.2811344,34.7849963 L46.6165811,34.8540363 C46.4828314,35.5120638 46.1729716,35.9189248 45.6869285,36.0418228 C45.5478331,36.0769935 45.4539397,36.0739894 45.1761415,36.0446075 C44.9348791,36.01909 44.8036424,36.0162443 44.6425463,36.0444643 C44.5121415,36.0673078 44.3699279,36.3054706 44.4054291,36.4979902 C44.4331485,36.6483088 44.5135385,36.7214634 44.7539891,36.8348121 C44.7774006,36.8458484 44.8029119,36.8576483 44.8551503,36.8817595 C44.9050138,36.9048643 44.9691316,36.9198363 45.0800676,36.9363563 C45.1044191,36.939939 45.1044191,36.939939 45.1293574,36.9435306 C45.504128,36.997592 45.6641784,37.0728312 45.6953866,37.3533453 C45.7195027,37.5701088 45.7195027,37.8681082 45.6961254,38.2499172 L45.3543821,38.2287299 C45.3766491,37.8650549 45.3766491,37.5851796 45.355121,37.3916775 C45.3491587,37.3380856 45.3037743,37.3167505 45.0807711,37.2845819 C45.0557347,37.2809766 45.0557347,37.2809766 45.0299441,37.2771823 C44.8885951,37.2561334 44.7996964,37.2353749 44.7119407,37.1947121 C44.6603235,37.17089 44.6334633,37.1584662 44.6087392,37.1468112 C44.2779326,36.9908685 44.1218982,36.8488777 44.0687845,36.5608495 C44.0002342,36.1891085 44.2548823,35.7626535 44.5838249,35.7050313 C44.7842034,35.66993 44.9413372,35.6733373 45.2119324,35.7019573 C45.4453428,35.7266443 45.5191213,35.7290049 45.603487,35.7076728 C45.9455584,35.6211786 46.1714651,35.3245522 46.2811344,34.7849963 Z" id="Path-17"></path>
                    <path d="M53.634812,37.2027661 C53.3809752,37.2027661 53.2502905,37.3007407 53.2502905,37.5571452 C53.2502905,37.8494198 53.5862444,38.2246752 54.153384,38.6049492 C54.7550842,39.0083964 55.2861004,39.0894994 56.0748738,38.7592543 C56.9493111,38.3931433 57.1271405,38.1503898 56.9091498,37.7923187 C56.8141556,37.6362812 56.5729081,37.629423 56.0227695,37.7500363 C55.9856902,37.7581966 55.9856902,37.7581966 55.9484368,37.7664678 C55.5749441,37.8494445 55.4329253,37.8745979 55.2601675,37.8745979 C55.072872,37.8745979 54.8662659,37.8158331 54.6260336,37.7073014 C54.5124965,37.6560078 54.3957772,37.5957885 54.2541955,37.517299 C53.6252822,37.1686444 53.6908382,37.2027661 53.634812,37.2027661 Z M53.634812,36.8582282 C53.7328622,36.8582282 53.8407193,36.8991873 54.0007051,36.9824593 C54.0852689,37.0264745 54.4317435,37.2223631 54.4194127,37.2155271 C54.5535345,37.2898811 54.6626151,37.3461593 54.7662696,37.3929882 C54.966313,37.4833634 55.1304899,37.5300601 55.2601675,37.5300601 C55.3977339,37.5300601 55.5291227,37.5067894 55.8746212,37.430032 C55.9121171,37.4217069 55.9121171,37.4217069 55.9498807,37.413396 C56.6528743,37.2592705 56.992036,37.2689122 57.2011115,37.6123393 C57.5641522,38.2086696 57.2469308,38.6417061 56.206403,39.0773562 C55.3050246,39.4547469 54.6553078,39.3555145 53.963525,38.8916659 C53.3052721,38.4502993 52.9078992,38.0064398 52.9078992,37.5571452 C52.9078992,37.084774 53.2100801,36.8582282 53.634812,36.8582282 Z" id="Path-18"></path>
                    <path d="M37.9064625,29.2928641 L37.9064625,29.6374019 C35.803246,29.6374019 34.5320839,29.2793402 32.8197922,28.4301755 C32.0084137,28.0277941 31.089227,27.1195633 30.0525878,25.7050376 L30.3281523,25.5005494 C31.3351479,26.8746254 32.2193632,27.7483017 32.9711509,28.1211307 C34.6399089,28.948706 35.8617114,29.2928641 37.9064625,29.2928641 Z" id="Path-19"></path>
                    <path d="M35.3779162,3.90524079 C35.1991477,3.96726876 35.0042568,3.87172331 34.9426153,3.69183406 C34.8809738,3.5119448 34.975924,3.31583214 35.1546925,3.25380417 C35.262208,3.21649911 35.3715982,3.17921132 35.4826816,3.14201832 C35.6621075,3.08194291 35.8559582,3.17960743 35.9156593,3.36015814 C35.9753605,3.54070884 35.8783044,3.73577485 35.6988786,3.79585027 C35.5901386,3.83225863 35.4830907,3.868748 35.3779162,3.90524079 Z M37.975907,3.11914792 C37.7929042,3.16706811 37.6059461,3.05663192 37.5583245,2.8724818 C37.5107028,2.68833168 37.620451,2.50020152 37.8034538,2.45228132 C37.9146384,2.42316711 38.0262023,2.39449939 38.1381036,2.36629761 C38.3215355,2.32006843 38.5074792,2.43222546 38.5534203,2.61680736 C38.5993615,2.80138925 38.4879032,2.9884986 38.3044713,3.03472778 C38.1946068,3.06241622 38.0850714,3.0905627 37.975907,3.11914792 Z M40.6248118,2.53110726 C40.4387131,2.56486057 40.2606583,2.44041444 40.2271153,2.25314905 C40.1935723,2.06588366 40.3172431,1.8867126 40.5033418,1.85295929 C40.6170614,1.83233359 40.7307076,1.81232274 40.8442598,1.79293768 C41.0306934,1.76111067 41.2074678,1.88739157 41.2390965,2.07499395 C41.2707253,2.26259633 41.1452311,2.440479 40.9587975,2.47230601 C40.8475672,2.4912947 40.7362316,2.51089869 40.6248118,2.53110726 Z M43.3116179,2.16426393 C43.1232535,2.18100253 42.9570691,2.040915 42.9404348,1.85136967 C42.9238005,1.66182434 43.0630153,1.49459817 43.2513797,1.47785957 C43.3669246,1.46759192 43.4821122,1.458098 43.5969282,1.44938656 C43.7854905,1.43507977 43.9498761,1.57730003 43.9640937,1.76704441 C43.9783114,1.95678878 43.8369772,2.12220494 43.6484149,2.13651173 C43.5365304,2.14500075 43.4242598,2.15425425 43.3116179,2.16426393 Z M46.0068049,2.0754979 C45.8177835,2.07010031 45.6688997,1.91153194 45.6742636,1.72132553 C45.6796276,1.53111912 45.8372081,1.38130196 46.0262295,1.38669955 C46.1428677,1.39003021 46.2588803,1.39433891 46.3742546,1.39963427 C46.5631557,1.4083043 46.7093057,1.56942737 46.7006897,1.75951273 C46.6920737,1.94959809 46.5319544,2.09666427 46.3430533,2.08799424 C46.2316223,2.08287987 46.1195351,2.07871696 46.0068049,2.0754979 Z M48.6945632,2.33707413 C48.5075073,2.30918808 48.3783339,2.13399259 48.4060462,1.94576406 C48.4337585,1.75753552 48.6078625,1.62755226 48.7949184,1.65543831 C48.9102458,1.67263119 49.024099,1.69016324 49.1364784,1.70803475 C49.3232578,1.73773796 49.4507432,1.91418103 49.4212251,2.10213137 C49.3917069,2.29008172 49.2163631,2.41836636 49.0295837,2.38866315 C48.9193962,2.37114022 48.8077225,2.35394379 48.6945632,2.33707413 Z M51.3480522,2.8611829 C51.1649938,2.81347774 51.0550275,2.62547664 51.1024354,2.4412707 C51.1498434,2.25706475 51.3366732,2.146409 51.5197315,2.19411416 C51.6345399,2.22403332 51.7469402,2.25452509 51.8569342,2.28559134 C52.0389963,2.33701221 52.1451616,2.52721281 52.0940611,2.71041627 C52.0429606,2.89361973 51.8539449,3.00045062 51.6718829,2.94902975 C51.5663775,2.91923125 51.4584334,2.88994834 51.3480522,2.8611829 Z M53.8165199,3.8103445 C53.6539396,3.71317044 53.6004266,3.50177165 53.6969953,3.3381721 C53.793564,3.17457254 54.0036457,3.12072405 54.166226,3.21789812 C54.2048303,3.24097184 54.2427129,3.26424565 54.2798739,3.28772106 C54.4400273,3.38889358 54.4883518,3.60155407 54.3878096,3.76271155 C54.2872673,3.92386902 54.0759318,3.97249644 53.9157783,3.87132391 C53.8834083,3.85087506 53.8503222,3.83054808 53.8165199,3.8103445 Z" id="Path-2"></path>
                    <path d="M21.0799019,32.6970689 C20.9094781,32.6146188 20.8377448,32.4087578 20.9196812,32.2372656 C21.0016176,32.0657733 21.206196,31.9935903 21.3766198,32.0760404 C21.5780675,32.1734996 21.7826144,32.269668 21.9902608,32.3645447 C22.1624398,32.4432158 22.2386402,32.647445 22.1604592,32.8207034 C22.0822782,32.9939618 21.8793214,33.0706399 21.7071424,32.9919688 C21.494962,32.8950204 21.2858818,32.7967207 21.0799019,32.6970689 Z M23.9445942,33.921088 C23.7675355,33.8542784 23.6778235,33.6556842 23.7442169,33.4775155 C23.8106102,33.2993468 24.0079671,33.2090724 24.1850258,33.275882 C24.3949743,33.3551018 24.6075373,33.433227 24.8227149,33.510257 C25.0008742,33.574035 25.0939206,33.7710695 25.0305399,33.9503457 C24.9671592,34.1296219 24.7713523,34.2232517 24.593193,34.1594737 C24.3743841,34.0811437 24.1581845,34.001682 23.9445942,33.921088 Z M26.8896602,34.9114722 C26.7084057,34.8572392 26.6051606,34.6654178 26.6590557,34.483027 C26.7129508,34.3006362 26.9035772,34.1967438 27.0848316,34.2509768 C27.3003529,34.3154627 27.5181126,34.3790076 27.7381106,34.4416111 C27.9200722,34.4933909 28.025867,34.6838004 27.9744099,34.8669028 C27.9229527,35.0500051 27.7337294,35.1564632 27.5517678,35.1046834 C27.3288333,35.0412442 27.1081308,34.9768406 26.8896602,34.9114722 Z" id="Path-4"></path>
                    <path d="M29.8214223,31.8151668 L29.9168321,32.1460577 C29.1009789,32.3842614 28.6088522,32.7595514 28.4217344,33.2667237 C28.1395238,34.0316412 28.5218271,34.6640709 29.2941841,34.6640709 C30.3788467,34.6640709 30.6692985,34.755862 30.9831225,35.3053263 C31.2821487,35.8288817 31.0132419,36.4615665 30.5697329,36.813565 L30.3576965,36.5430444 C30.6839665,36.2840947 30.8816222,35.8190496 30.6862662,35.4770069 C30.4521295,35.0670645 30.2671596,35.0086087 29.2941841,35.0086087 C28.2718802,35.0086087 27.7390524,34.1271723 28.1007501,33.1468093 C28.3308108,32.5232426 28.9106077,32.0810962 29.8214223,31.8151668 Z" id="Path-15"></path>
                    <path d="M21.7658056,30.3498755 L22.0897057,30.9569952 C21.5905468,31.2266473 21.2499974,31.516773 21.0625425,31.8201749 C20.8753231,32.1231957 20.768996,32.5557941 20.7523058,33.1201146 L20.0678263,33.0996159 C20.0878389,32.4229595 20.2226458,31.8744893 20.4809915,31.4563482 C20.7391016,31.0385885 21.1692111,30.6721636 21.7658056,30.3498755 Z" id="Path-14"></path>
                </g>
                <g id="мяч" transform="translate(440.000000, 290.000000)" fill="#FFFFFF" fill-rule="nonzero">
                    <path d="M15.2883291,29.5588058 C7.18063475,29.5588058 0.607843137,23.0762691 0.607843137,15.0794029 C0.607843137,7.08253667 7.18063475,0.6 15.2883291,0.6 C23.3960234,0.6 29.968815,7.08253667 29.968815,15.0794029 C29.968815,23.0762691 23.3960234,29.5588058 15.2883291,29.5588058 Z M15.2883291,28.3588058 C22.7248467,28.3588058 28.7531287,22.4133018 28.7531287,15.0794029 C28.7531287,7.74550401 22.7248467,1.8 15.2883291,1.8 C7.85181137,1.8 1.82352941,7.74550401 1.82352941,15.0794029 C1.82352941,22.4133018 7.85181137,28.3588058 15.2883291,28.3588058 Z" id="Oval"></path>
                    <path d="M20.7614406,1.90578159 L21.1380335,3.04675227 C16.9013175,4.40928351 13.4093539,6.94385011 10.6490516,10.6632806 C7.56788893,14.8150614 6.94568022,17.8374421 7.00732538,24.1919795 C7.0081001,24.2714978 7.0081001,24.2714978 7.00888195,24.3510669 C7.01582698,25.0578734 7.01814719,25.3729351 7.01814719,25.7681385 L5.80246091,25.7681385 C5.80246091,25.3781047 5.8001598,25.0656364 5.79325285,24.3627053 C5.79247076,24.2831117 5.79247076,24.2831117 5.79169484,24.2034699 C5.72776419,17.6133385 6.39709495,14.3620622 9.66835198,9.95413459 C12.5774222,6.03424349 16.2794821,3.347183 20.7614406,1.90578159 Z" id="Path-20"></path>
                    <path d="M26.89187,6.68688454 L26.6539292,7.863675 C21.4055574,6.82969099 17.3758174,8.29268892 14.4543136,12.2780606 C12.4696763,14.985405 11.8352477,18.2395179 12.3384621,21.6450156 C12.7359392,24.3349367 13.8671497,26.9478816 15.0170016,28.2445517 L14.1022544,29.0349264 C12.7896032,27.55467 11.5652656,24.726614 11.1355048,21.8182133 C10.5893499,18.1221163 11.2848691,14.5546575 13.4694255,11.5745932 C16.6757994,7.20061576 21.1867461,5.56291561 26.89187,6.68688454 Z" id="Path-20-Copy"></path>
                    <path d="M6.72463833,4.10020191 L7.93894261,4.04299929 C8.13072357,8.00976541 7.44049282,11.1046625 5.84280548,13.3151691 C4.30094378,15.4484372 2.88375636,16.9936852 1.57889003,17.9535119 L0.852482514,16.9912949 C2.04066578,16.1172974 3.37834504,14.6587421 4.8531669,12.618228 C6.27216328,10.6549523 6.90446871,7.8197841 6.72463833,4.10020191 Z" id="Path-21"></path>
                    <path d="M2.4808668,9.77599187 L2.53857798,8.57734479 C4.86269617,8.68637486 6.82474536,8.89460571 8.42727695,9.20345141 C12.8786121,10.0613289 16.4869992,11.373053 21.1206241,14.5195106 C21.4490641,14.7425375 22.6107744,15.6767231 23.6886636,16.6476951 C25.4490009,18.2334222 27.0238608,19.9052719 28.2387818,21.5916097 L27.2480715,22.2870656 C26.0900427,20.6796954 24.5709153,19.0670105 22.8691887,17.5340804 C21.8294565,16.5974806 20.709435,15.6968189 20.4316135,15.5081645 C15.9532815,12.4671584 12.4953218,11.2101178 8.19432142,10.3812133 C6.65560935,10.0846672 4.75027393,9.88245531 2.4808668,9.77599187 Z" id="Path-22"></path>
                </g>
                <g id="диван" transform="translate(252.000000, 164.000000)" fill="#FFFFFF">
                    <path d="M72.6800634,2.8056919 C71.6762176,2.8056919 70.9013792,2.72227517 69.7610108,2.53176446 C69.6825449,2.5186559 69.5963967,2.50411982 69.4366197,2.47713555 C69.3086049,2.45556943 69.2159018,2.44016381 69.1256636,2.42556063 C68.898124,2.38873809 68.7116404,2.3613594 68.5347547,2.33951651 C68.2037582,2.2986431 67.910532,2.27816273 67.6218149,2.27816273 C67.1609508,2.27816273 66.4209469,2.47958647 65.3036297,2.88786078 C65.1613038,2.93986752 65.0119471,2.99540438 64.8365701,3.06136535 C62.6963229,3.86633287 62.4796734,3.93951067 61.9245877,3.93951067 C61.7026258,3.93951067 61.2376038,3.94991999 60.435207,3.97202955 C60.0881054,3.98159372 58.3743546,4.03072261 57.8896777,4.04418743 C57.362834,4.0588237 56.888757,4.0714957 56.4370911,4.08290434 C54.7242446,4.12616921 53.4003718,4.14943807 52.4292094,4.14943807 C51.2663891,4.14943807 50.1193743,4.1220737 47.8898847,4.05143861 C47.7742124,4.0477712 47.7742124,4.0477712 47.6585941,4.04409939 C45.16789,3.96499102 44.1451488,3.93951067 43.0035794,3.93951067 C42.285558,3.93951067 41.4394158,4.00639415 40.4754294,4.13189186 C39.771133,4.22358151 39.025728,4.34331334 38.197427,4.49340595 C37.7631126,4.57210606 35.6061233,4.99168552 35.2729895,5.03911268 C35.1928612,5.05052028 35.1117542,5.06344121 35.0279807,5.07808976 C34.7064859,5.13430598 33.3434507,5.44270714 33.2255263,5.46771372 C32.2453594,5.67556401 31.2120469,5.85174965 29.873567,6.02354709 C26.9138529,6.40343424 23.8974488,5.97031775 19.9752093,4.85290733 C18.1509488,4.33319206 17.7193999,4.22708994 17.0619791,4.15814398 C16.4216386,4.09098927 16.1976824,4.09193308 13.4929861,4.14927095 C9.665491,4.23041144 7.91265271,4.57185674 5.83403112,5.64985912 C3.4201533,6.90173012 2.9200771,7.38226318 2.3369145,9.22405913 C1.70249038,11.2277538 0.957588048,17.598918 0.957588048,20.4697878 C0.957588048,22.3316082 0.964337283,23.2374799 0.996397951,24.3459632 C1.04924155,26.1730071 1.16456777,27.6614049 1.36570042,28.8497732 C1.63322561,30.430414 2.4477965,32.9410199 3.80760108,36.356551 L7.18758011,43.0487621 C8.87487514,45.8237754 10.1805432,47.8570201 11.1002145,49.1429473 C12.6387801,51.2942409 14.3786594,53.1918025 16.0190019,54.410566 C17.854321,55.7741961 20.133454,56.4827552 22.7282966,56.4055762 C24.6211587,56.3492764 32.7230544,55.4415403 46.9405261,53.690355 L70.6543193,50.8499012 L94.042502,47.8048887 C97.2060799,47.3984697 100.852184,46.9374461 104.980874,46.4218097 C110.272714,45.7609064 111.689962,45.3071484 112.273977,44.4937812 C112.304635,44.4510826 112.330771,44.4088803 112.353143,44.3664367 C112.455858,44.1715668 112.485921,43.992729 112.510461,43.4946911 C112.551207,42.6677143 112.619582,42.2328779 112.885497,41.5982854 C113.022622,41.2710436 113.22469,40.8578385 113.526144,40.2774773 C113.687613,39.9666159 114.300863,38.8079576 114.37816,38.6606764 C114.4584,38.5077876 114.532323,38.3660717 114.602671,38.2301532 C115.221245,37.0350115 115.611579,36.1895694 115.808083,35.5763478 C116.378308,33.7968649 116.931532,29.6031699 116.931532,26.5930718 C116.931532,25.6741509 116.943117,24.841165 116.978928,22.8120182 C116.980201,22.73993 116.980201,22.73993 116.981471,22.6678403 C117.048074,18.888369 117.046871,17.3117843 116.939523,16.603722 C116.908127,16.3966397 116.558757,16.0215184 115.838723,15.5680987 C115.004582,15.0428239 113.75776,14.4625258 112.106122,13.8351808 L112.053256,13.8151009 L112.004169,13.7872548 C107.904587,11.4616767 105.467878,10.1507571 104.817806,9.91277704 C104.628,9.84329203 104.36173,9.79224523 103.842116,9.72043032 C102.825268,9.57989367 102.66065,9.55411357 102.18945,9.44089133 C101.22424,9.2089663 100.440969,8.83882882 99.8069456,8.23652457 C98.8285833,7.30710757 98.3178254,7.08860539 97.5541258,7.07794561 C97.4855197,7.076988 97.4291986,7.07705104 97.2970553,7.07785444 C97.2203377,7.078321 97.1846814,7.07848244 97.1398629,7.07848244 C95.7997717,7.07848244 93.7572707,6.04984114 92.6207746,4.60146641 C92.2847589,4.17324092 92.0193312,3.74587356 91.7848643,3.27861842 C91.6946376,3.09881103 91.6120632,2.91991771 91.5186577,2.70584141 C91.4829672,2.62404228 91.3416916,2.29389382 91.3062999,2.21322844 C91.1013599,1.74612463 90.9576638,1.50622018 90.7558286,1.31294142 C90.487108,1.05561284 89.9230611,0.894191117 89.0954055,0.836716005 C88.7411482,0.812115222 88.4418705,0.807313157 87.8374884,0.80900924 C87.7281604,0.809319146 87.6798008,0.809423925 87.6216967,0.809423925 C86.9493365,0.809423925 85.3021375,1.05982752 82.3511106,1.5817574 C82.1715719,1.61353801 82.1715719,1.61353801 81.9921755,1.64538359 C81.7438993,1.68948186 80.7618689,1.86458125 80.427357,1.92404521 C78.3022975,2.60857292 76.0545927,2.8056919 72.6800634,2.8056919 Z M112.686363,12.5139834 C116.313793,13.8963547 118.187813,15.0821921 118.386352,16.3917429 C118.51229,17.2224188 118.513458,18.7547092 118.444062,22.6927479 C118.442791,22.7648652 118.442791,22.7648652 118.441518,22.8369632 C118.405869,24.8569362 118.394342,25.6857373 118.394342,26.5930718 C118.394342,29.740357 117.822293,34.0767505 117.203303,36.0084113 C116.975163,36.72036 116.560359,37.6188026 115.906426,38.8822621 C115.834747,39.0207519 115.759586,39.1648423 115.678148,39.3200133 C115.598553,39.4716731 114.987353,40.6264575 114.828939,40.9314367 C114.544399,41.4792345 114.356054,41.8643781 114.238046,42.145998 C114.051821,42.5904148 114.00481,42.8893882 113.971558,43.5642624 C113.937231,44.260943 113.881488,44.5925435 113.651946,45.0280242 C113.598814,45.1288265 113.537999,45.2270287 113.469063,45.3230365 C112.554041,46.5974036 110.873557,47.1354417 105.165234,47.8483598 C101.038178,48.3637921 97.3937744,48.8246007 94.2333066,49.2306191 L70.8388131,52.2764149 L47.1199223,55.1175145 C32.8204414,56.8788052 24.7366136,57.784517 22.7725351,57.842935 C19.8454407,57.9299962 17.2392855,57.1197693 15.1369874,55.5577755 C13.3593936,54.2370352 11.5224216,52.2335816 9.90355664,49.9700097 C8.9559682,48.6450474 7.62868528,46.5777152 5.91730157,43.7624182 L5.89004156,43.7133349 L2.4831299,36.9677984 L2.45720379,36.910276 C1.05602854,33.3935583 0.211812359,30.793815 -0.0772728526,29.0857894 C-0.291367681,27.8208355 -0.411248431,26.2736571 -0.46582104,24.3868335 C-0.498402278,23.2603518 -0.50522187,22.3450368 -0.50522187,20.4697878 C-0.50522187,17.4661029 0.255586897,10.9588907 0.940199772,8.7966854 C1.65783543,6.53018469 2.42732716,5.79076494 5.15147674,4.37798264 C7.46178247,3.17982561 9.42638543,2.79712947 13.4614481,2.71158867 C16.2670454,2.65211177 16.4825747,2.65120347 17.2171535,2.72824126 C17.9937298,2.80968347 18.466918,2.92602317 20.3823821,3.47172153 C24.1277845,4.53875266 26.966866,4.94640793 29.6841818,4.59763325 C30.9824155,4.4310015 31.9760178,4.26158668 32.9170752,4.0620298 C33.0017157,4.04408126 34.4076844,3.72596597 34.7718062,3.66229602 C34.8707098,3.64500185 34.9672902,3.62961589 35.0633307,3.61594293 C35.3525383,3.57476941 37.4626197,3.1643145 37.9322551,3.07921403 C38.7830243,2.92505005 39.5518085,2.80156291 40.2833851,2.70632175 C41.3060116,2.57318991 42.213034,2.50149414 43.0035794,2.50149414 C44.167004,2.50149414 45.1979533,2.52717899 47.7058315,2.60683283 C47.8214201,2.61050369 47.8214201,2.61050369 47.9370043,2.61416831 C50.1506925,2.68430278 51.2874123,2.71142155 52.4292094,2.71142155 C53.3847004,2.71142155 54.69832,2.68833289 56.3995173,2.64536228 C56.8498148,2.63398819 57.3226778,2.62134864 57.8483552,2.60674478 C58.3320905,2.59330612 60.0460673,2.54417075 60.3942213,2.53457757 C61.213118,2.51201337 61.6830502,2.50149414 61.9245877,2.50149414 C62.1942146,2.50149414 62.5597859,2.37801497 64.3138583,1.71829152 C64.493247,1.65082169 64.6467622,1.59373853 64.7939647,1.53994985 C66.0766604,1.07124525 66.9256874,0.840146203 67.6218149,0.840146203 C67.9761025,0.840146203 68.329057,0.864798298 68.7170727,0.912712776 C68.9148322,0.937133281 69.1188055,0.967079726 69.3632724,1.00664161 C69.4572803,1.02185484 69.5527987,1.03772831 69.6837,1.0597807 C69.8443192,1.0869067 69.9290185,1.10119829 70.0060884,1.11407365 C71.0724733,1.29222461 71.7733177,1.36767537 72.6800634,1.36767537 C75.9325751,1.36767537 78.0683078,1.17816894 80.0167368,0.542978489 L80.1169859,0.51787436 C80.3874096,0.469870085 81.4690418,0.277001151 81.7320859,0.23027983 C81.9119517,0.198350932 81.9119517,0.198350932 82.0920905,0.166464097 C85.1784198,-0.379395886 86.8176798,-0.628592604 87.6216967,-0.628592604 C87.6778967,-0.628592604 87.7245576,-0.628693703 87.8333125,-0.62900143 C88.4727309,-0.630795835 88.797252,-0.625588728 89.1984823,-0.597725981 C90.3429009,-0.518253812 91.1944423,-0.274555481 91.7765419,0.282866811 C92.1473227,0.637928947 92.374957,1.01797055 92.649499,1.6437126 C93.2495963,3.01146717 93.3010544,3.11401506 93.779034,3.72316244 C94.6438374,4.82528614 96.2624828,5.64046591 97.1398629,5.64046591 C97.1806854,5.64046591 97.2128626,5.64032023 97.2880085,5.63986541 C97.4301394,5.63900129 97.4929998,5.63893093 97.5748937,5.64007402 C98.7211907,5.65607411 99.5843664,6.0253406 100.823459,7.20244433 C101.247261,7.60504407 101.803097,7.86770637 102.536776,8.04399805 C102.939691,8.14081233 103.088443,8.16410787 104.045771,8.29641832 C104.671269,8.38286726 105.005187,8.44688296 105.328301,8.56516952 C106.091364,8.84451409 108.503273,10.1415827 112.686363,12.5139834 Z" id="Path" fill-rule="nonzero"></path>
                    <path d="M16.7674723,13.5973947 C19.5307044,17.7491866 20.6718641,19.7901876 21.2514627,21.5254695 C21.2616551,21.555985 21.5170212,22.4951349 21.6331784,22.8223029 C21.8994008,23.5721442 22.2012409,23.9575709 22.4849942,23.9575709 C22.8126868,23.9575709 23.0807812,23.9515585 23.554232,23.9363123 C24.019706,23.921323 24.1541703,23.9176153 24.3773686,23.915365 C25.3581626,23.9054764 26.1714734,23.9887762 27.2565101,24.244126 C28.9986387,24.6541141 31.1185679,26.5119103 31.6782399,27.5269124 C31.7321771,27.6248981 31.7698219,27.693248 31.8086995,27.76354 C31.8732151,27.8801866 31.9369672,27.9946584 32.0047469,28.1153127 C32.1840093,28.4344172 32.3714589,28.7611316 32.5715227,29.1011032 C33.1085281,30.013645 33.6656718,30.901799 34.233949,31.7324665 C34.9569387,32.7892818 35.6551241,33.6893252 36.3094298,34.3845364 C36.3620738,34.4404716 36.4143546,34.4949894 36.4662613,34.5480689 C37.3745789,35.4769097 38.7840575,36.1197236 40.5333807,36.5149693 C41.7242967,36.7840474 42.7907742,36.8951925 43.9763239,36.9469697 C44.4872735,36.9692848 46.1401457,36.849146 49.3388779,36.5637132 C51.0039636,36.4151324 59.0640604,35.6691945 61.0087604,35.4921479 C69.5675396,34.7129518 73.4907895,34.2880142 76.8194171,33.8120128 C77.4094837,33.7276318 78.3281114,33.6176001 79.9201359,33.4371565 C80.354668,33.3879057 81.9793929,33.2050531 82.0518148,33.1968828 C82.9548799,33.0950034 83.6626224,33.0143031 84.3496771,32.9344929 C85.3777836,32.8150652 86.2825041,32.7063934 87.1046459,32.6028428 C90.0352462,32.233727 91.8837632,31.9267703 92.2436907,31.7398614 C92.7631199,31.4701239 93.1497801,31.1771253 93.5590367,30.7525146 C93.8943992,30.4045703 93.7695473,30.5575018 95.0342288,28.9763976 C95.0936689,28.9020856 95.1546162,28.8218815 95.2169977,28.7359612 C95.4857449,28.3658062 95.7735636,27.9009306 96.0878716,27.3402422 C96.3307637,26.9069516 97.2884383,25.0570684 97.4238216,24.8721313 C97.6896024,24.5090679 98.259306,23.3175056 99.2680245,21.0681523 C99.3024123,20.9914552 99.3024123,20.9914552 99.3367946,20.9147146 C100.806434,17.6339796 100.890096,17.4504449 101.173624,16.9435189 C101.865085,15.7072455 104.146429,15.2074054 106.17177,15.2683856 C107.80654,15.3176062 111.027804,15.2040029 111.581765,15.0045109 C111.738431,14.9480924 111.84844,14.8766542 112.308789,14.5464999 C113.285741,13.8458468 113.914263,13.6394305 114.712859,14.1155697 C114.767948,14.1484144 114.918509,14.1986079 115.206503,14.2786783 C115.250649,14.2909289 115.250649,14.2909289 115.295535,14.3033506 C115.583861,14.3831782 115.719997,14.4239903 115.863103,14.4786263 C116.162753,14.5930293 116.340594,14.7060911 116.42371,14.9591619 C116.575822,15.4223141 116.293021,15.8067229 115.701439,16.3159694 C115.572515,16.4269504 115.42875,16.5420252 115.267162,16.6648667 C115.061133,16.8214931 114.443692,17.2638713 114.37778,17.3160775 C113.74266,17.8191279 112.567729,18.1089435 111.14345,18.2660411 C110.598775,18.3261186 110.091906,18.3261186 108.174698,18.2915804 C107.298738,18.2758001 106.758165,18.2690301 106.156843,18.2690301 C105.155496,18.2690301 104.460442,18.5513371 103.952091,19.0331216 C103.833242,19.1457596 103.72857,19.2657715 103.628912,19.3987701 C103.589844,19.4509089 103.55272,19.5033782 103.511391,19.5641934 C103.49232,19.5922561 103.426286,19.6910491 103.411858,19.7122388 C103.252013,19.9469888 102.782128,21.0805901 102.044863,23.0352079 L99.9234826,27.6226719 C98.0927396,30.8168848 97.0381417,32.6134906 96.7322592,33.0567347 C96.0864789,33.9925128 94.6033238,34.8551236 91.925673,35.6645119 C89.9070117,36.2747039 86.5843177,36.9237694 81.9406844,37.6167752 L63.6298305,40.1445756 C55.9798978,41.0399905 50.238829,41.4879803 46.3992969,41.4879803 C40.9450606,41.4879803 37.7464661,40.6183336 35.7777339,38.7674557 C34.5971182,37.6575154 33.395911,35.9464075 32.1854533,33.6672043 C30.4002906,30.9222317 28.6496431,29.2128028 26.9572344,28.5273142 C25.187227,27.8103952 23.573135,27.7639155 21.4017563,28.1014385 C21.2713724,28.1217056 20.732961,28.2089416 20.6013321,28.2290136 C20.3181511,28.2721957 19.9755893,28.3125106 19.5218083,28.3577736 C19.3711056,28.3728057 17.3803775,28.5550666 16.7027169,28.6262935 C15.4572674,28.757199 14.3716683,28.9038992 13.3316522,29.0929285 C10.966423,29.5228233 10.1989032,29.4255223 9.53984676,28.8131462 C9.53195637,28.8058134 9.53195637,28.8058134 9.52429379,28.7986966 C9.48489899,28.762126 9.46224027,28.741694 9.43898657,28.7220862 C8.73336573,28.1271002 8.65011473,26.7679773 9.3104389,25.2988796 C9.4771486,24.9279817 9.51938067,24.4607416 9.44858051,23.9020855 C9.39080384,23.4461926 9.26512801,22.9628545 9.06826186,22.3782663 C9.06614612,22.3719836 8.71245419,21.3753003 8.65911817,21.1736462 C8.57986958,20.8740211 8.00485766,19.8867254 6.94030913,18.1887447 C6.90226872,18.1280844 6.90226872,18.1280844 6.86419994,18.0674338 C6.78256837,17.9374067 6.69855886,17.8038369 6.58985624,17.631186 C6.45389926,17.4152938 6.45389926,17.4152938 6.32048807,17.2033964 C6.10471403,16.8605666 5.9554855,16.6225424 5.81785819,16.4012008 C5.46236791,15.8294773 5.23295206,15.4461989 5.09859689,15.1935788 C4.39291906,13.8667341 3.16935208,7.28498964 3.55773363,6.34180322 C4.00732226,5.24997504 5.71151771,4.7305886 7.13394095,5.36687682 C7.43454721,5.5013461 7.66265572,5.59442409 7.84876154,5.66141684 C7.91834295,5.68646415 7.9795925,5.7070327 8.04551058,5.72789527 C8.07245296,5.73642233 8.17788418,5.76894792 8.20496739,5.77758881 C8.23621654,5.78755885 8.26393524,5.79679627 8.29127648,5.80645461 C8.48164408,5.87370227 8.6561813,5.96399638 8.96765503,6.15727677 C10.1030595,6.86183516 11.5417849,7.98064038 12.9517296,9.24812362 C13.3875276,9.63988847 13.8107895,10.0507541 14.2200063,10.4760624 C14.9204089,11.2040068 15.5508426,11.9433282 16.0857671,12.6385505 C16.2809581,12.8922334 16.4515075,13.1249834 16.5842566,13.3159744 C16.6381832,13.3935606 16.6833039,13.460644 16.7156151,13.511035 C16.7325295,13.537414 16.7376606,13.5457434 16.7571132,13.5787085 C16.7618519,13.5870164 16.764434,13.5915434 16.7674723,13.5973947 Z M15.3079932,13.2168784 C14.7937719,12.5485632 14.1861472,11.8359903 13.5115181,11.134833 C13.1180501,10.7258927 12.7115015,10.3312509 12.2936223,9.95559437 C10.9231606,8.72360471 9.52806805,7.63872999 8.44710488,6.96795433 C8.19046547,6.80870056 8.0736764,6.74828156 7.96148955,6.70865137 C7.94456926,6.70267426 7.9261751,6.69654429 7.90392156,6.6894443 C7.88254072,6.68262275 7.77858469,6.65055226 7.74665039,6.64044529 C7.66906061,6.61588871 7.59577936,6.59127973 7.51343687,6.5616388 C7.3026348,6.48575611 7.05200188,6.3834872 6.7300342,6.23946239 C5.78359532,5.81609479 4.68890348,6.14972325 4.46168734,6.70151875 C4.20242847,7.33113014 5.37660194,13.6471798 5.96281255,14.7493973 C6.08374464,14.9767788 6.30576304,15.3476984 6.6499335,15.9012167 C6.7864329,16.1207443 6.93487283,16.3575106 7.14979253,16.698983 C7.28303738,16.9106162 7.28303738,16.9106162 7.41908105,17.1266461 C7.52798462,17.2996161 7.61219555,17.4335062 7.69408323,17.5639413 C7.73229827,17.6248248 7.73229827,17.6248248 7.77050387,17.6857486 C8.93715801,19.5465902 9.48536555,20.4878628 9.60294287,20.9324021 C9.64457342,21.0897999 9.97851913,22.0308395 9.99405559,22.0769746 C10.2092065,22.7158588 10.3492499,23.2544535 10.4163058,23.7835649 C10.5071727,24.50056 10.4497187,25.1362098 10.2024482,25.6863405 C9.69736284,26.8100609 9.75335291,27.7241325 10.0739005,27.9944212 C10.1119249,28.0264838 10.1439351,28.0553483 10.1938456,28.1016808 C10.2019075,28.1091684 10.2019075,28.1091684 10.2097262,28.1164346 C10.5901869,28.4699476 11.0644789,28.5300752 13.1543514,28.1502281 C14.2217924,27.9562142 15.3308312,27.8063466 16.5990395,27.6730489 C17.2848241,27.6009682 19.2791571,27.4183772 19.4233633,27.4039931 C19.8615273,27.3602878 20.1889506,27.3217546 20.4518472,27.2816656 C20.5777978,27.2624595 21.114296,27.1755335 21.2494471,27.1545253 C23.5817899,26.7919818 25.359137,26.8431626 27.3287415,27.6409258 C29.2390736,28.4146815 31.123951,30.2551799 33.0283561,33.1868696 C34.2150484,35.4174923 35.3594864,37.0477332 36.4517542,38.0746143 C38.2045037,39.7224388 41.17218,40.5293026 46.3992969,40.5293026 C50.1921584,40.5293026 55.8996798,40.0839306 63.504369,39.193918 L81.799685,36.6681859 C86.3939301,35.9825208 89.6775628,35.3410857 91.6390533,34.7481751 C94.1243812,33.9969213 95.4283753,33.2385115 95.9252362,32.5185273 C96.2078198,32.1090448 97.2664991,30.305486 99.0547062,27.1891634 L101.143615,22.6706114 C101.909649,20.6360239 102.376932,19.508699 102.601451,19.178968 C102.612867,19.1622017 102.678579,19.0638906 102.700496,19.0316404 C102.749526,18.9594932 102.794877,18.895396 102.843732,18.8301962 C102.974208,18.6560694 103.114122,18.4956503 103.27524,18.3429521 C103.963314,17.6908372 104.900087,17.3103524 106.156843,17.3103524 C106.765611,17.3103524 107.311069,17.3171836 108.192566,17.3330637 C110.044044,17.3664177 110.553512,17.3664177 111.034713,17.3133415 C112.271895,17.1768806 113.328095,16.916352 113.765932,16.5695606 C113.854349,16.4995294 114.482656,16.049366 114.670587,15.9064979 C114.817588,15.7947455 114.946478,15.6915772 115.058986,15.5947281 C115.178057,15.4922287 115.275988,15.3990088 115.350123,15.3178165 C115.271885,15.2936054 115.17228,15.2651992 115.031163,15.2261289 C114.986338,15.213724 114.986338,15.213724 114.941105,15.2011715 C114.552705,15.0931858 114.369646,15.0321584 114.207141,14.9352693 C113.867743,14.7329141 113.564779,14.8324125 112.883549,15.3209782 C112.325737,15.7210313 112.199419,15.8030605 111.917211,15.9046891 C111.192341,16.1657288 107.93505,16.2806026 106.141916,16.2266139 C104.482173,16.1766415 102.468703,16.6177906 102.028177,17.4054143 C101.767,17.872377 101.663878,18.0986047 100.229295,21.3010815 C100.194839,21.3779856 100.194839,21.3779856 100.160367,21.4548715 C99.1000719,23.8192358 98.5427546,24.9848913 98.2153693,25.4321081 C98.1312721,25.5469871 97.2217654,27.3038272 96.9419755,27.8029392 C96.6109683,28.393417 96.3048906,28.887784 96.0107631,29.2928961 C95.939875,29.3905328 95.869927,29.4825815 95.8008278,29.5689694 C94.4986111,31.1969999 94.6345345,31.0305069 94.2669429,31.4118895 C93.7861815,31.9106876 93.3149274,32.2677888 92.6991949,32.5875363 C92.1772493,32.8585805 90.3851139,33.1561747 87.2285801,33.5537473 C86.4029234,33.6577406 85.4951584,33.7667782 84.4641168,33.8865468 C83.7757946,33.9665042 83.0670573,34.047318 82.163,34.1493093 C82.0902336,34.1575185 80.4659053,34.3403264 80.0318338,34.3895251 C78.4501931,34.5687917 77.5366571,34.6782136 76.9598008,34.7607054 C73.6109266,35.2396022 69.6729281,35.6661372 61.0986896,36.4467408 C59.1554453,36.6236548 51.0940718,37.3697109 49.4270365,37.5184656 C46.1512757,37.8107719 44.5114367,37.9299634 43.9330414,37.9047027 C42.6935091,37.8505679 41.5750998,37.7340106 40.314937,37.4492867 C38.3976181,37.0160837 36.8261335,36.2993846 35.7632268,35.2124618 C35.706966,35.1549298 35.6504248,35.0959693 35.5936058,35.0355981 C34.9004899,34.2991504 34.1734858,33.3619563 33.4247231,32.2674677 C32.8430078,31.4171573 32.2746602,30.5111432 31.7273888,29.5811561 C31.5239147,29.2353893 31.3333187,28.9031908 31.1510662,28.5787638 C31.0821903,28.4561582 31.0174271,28.3398709 30.951943,28.2214733 C30.9125817,28.1503066 30.8744277,28.0810322 30.8208877,27.9837668 C30.7092226,27.7812547 30.1485388,27.1512891 29.5549278,26.6310792 C28.7118871,25.892282 27.8377378,25.3666765 27.0294658,25.1764598 C26.0249509,24.9400598 25.2909423,24.8648823 24.3873698,24.8739923 C24.1743904,24.8761395 24.0434971,24.8797488 23.5861601,24.8944761 C23.1028071,24.9100411 22.8260147,24.9162486 22.4849942,24.9162486 C21.6308627,24.9162486 21.1055637,24.2454818 20.7124407,23.1382127 C20.5811628,22.7684558 20.3226477,21.817725 20.3249238,21.8245395 C19.7777404,20.1863065 18.665215,18.1982041 15.9309452,14.0915223 L15.6987498,13.742781 C15.5884349,13.5880113 15.4559716,13.4092006 15.3079932,13.2168784 Z" id="Path-4" fill-rule="nonzero"></path>
                    <path d="M11.2065018,32.5543118 C10.9372238,32.5573624 10.7164152,32.3452423 10.7133121,32.0805284 C10.7102089,31.8158144 10.9259862,31.5987484 11.1952642,31.5956978 C11.2846156,31.5946856 11.4323545,31.5838529 11.6370414,31.5630202 C11.9049055,31.5357574 12.1445341,31.7271228 12.1722669,31.9904468 C12.1999998,32.2537708 12.0053349,32.4893379 11.7374709,32.5166007 C11.5053897,32.5402216 11.3327248,32.5528819 11.2065018,32.5543118 Z M15.1343955,32.0904369 C14.8672197,32.1235897 14.6232919,31.9375475 14.5895676,31.6749 C14.5558432,31.4122526 14.7450931,31.1724591 15.0122689,31.1393064 C15.1773373,31.1188237 15.3388426,31.099048 15.4980975,31.0798374 C15.7653886,31.0475946 16.0086594,31.2344663 16.0414581,31.497227 C16.0742569,31.7599877 15.8841633,31.9991353 15.6168722,32.0313781 C15.4587652,32.0504502 15.2983742,32.0700895 15.1343955,32.0904369 Z M18.990919,31.6846873 C18.7225043,31.7060863 18.4872649,31.5095285 18.465497,31.2456633 C18.443729,30.981798 18.6436757,30.7505457 18.9120903,30.7291467 C19.0777666,30.7159384 19.2411814,30.7036067 19.4023684,30.6921671 C19.6709652,30.6731045 19.9044257,30.8717014 19.923817,31.1357457 C19.9432082,31.39979 19.7411872,31.6292935 19.4725904,31.6483561 C19.3143126,31.6595893 19.1537645,31.6717047 18.990919,31.6846873 Z M22.8321381,31.5590867 C22.563023,31.5493887 22.3528593,31.3270637 22.3627245,31.0625099 C22.3725896,30.797956 22.5987478,30.5913545 22.8678629,30.6010524 C23.0401614,30.6072615 23.207235,30.615564 23.3690243,30.6260098 C23.6377412,30.6433593 23.8412723,30.8715698 23.8236237,31.1357322 C23.8059751,31.3998946 23.57383,31.599976 23.305113,31.5826265 C23.1529157,31.5728 22.9952225,31.5649636 22.8321381,31.5590867 Z M26.0294853,32.5080773 C25.8816384,32.286811 25.9442494,31.989617 26.1693306,31.8442761 C26.3944119,31.6989352 26.6967299,31.7604849 26.8445767,31.9817512 C26.9151816,32.087418 26.9860582,32.1957966 27.112206,32.3902453 C27.2570083,32.6134488 27.1903319,32.909787 26.96328,33.052135 C26.7362281,33.1944831 26.4347808,33.1289368 26.2899784,32.9057332 C26.1661025,32.7147865 26.0969618,32.6090622 26.0294853,32.5080773 Z M28.2705642,35.6973658 C28.1032121,35.4899595 28.1385814,35.1884571 28.3495637,35.0239415 C28.560546,34.8594259 28.8672467,34.8941956 29.0345988,35.101602 C29.1335618,35.224251 29.2337957,35.3458938 29.3354366,35.4666041 C29.5071513,35.6705352 29.4781843,35.972697 29.2707372,36.1415012 C29.06329,36.3103055 28.7559186,36.2818296 28.5842039,36.0778984 C28.4782032,35.9520103 28.373704,35.8251912 28.2705642,35.6973658 Z M31.0121938,38.541129 C30.8096669,38.3666461 30.7893715,38.0638021 30.9668626,37.8647078 C31.1443538,37.6656136 31.4524194,37.6456621 31.6549463,37.820145 C31.7741938,37.9228803 31.8948122,38.0243006 32.0168318,38.1243877 C32.2236025,38.2939922 32.2513611,38.5962635 32.0788324,38.7995296 C31.9063037,39.0027957 31.5988208,39.0300838 31.3920501,38.8604793 C31.2639548,38.7554087 31.1373466,38.6489518 31.0121938,38.541129 Z M34.2659435,40.8286811 C34.0323463,40.6969648 33.9515964,40.4040292 34.0855837,40.1743913 C34.219571,39.9447533 34.5175572,39.8653722 34.7511544,39.9970885 C34.8883129,40.0744268 35.0267592,40.1502491 35.1665083,40.224537 C35.4033892,40.3504585 35.4915797,40.6413131 35.3634872,40.8741792 C35.2353947,41.1070452 34.9395253,41.1937409 34.7026444,41.0678195 C34.5557174,40.9897159 34.4101551,40.9099964 34.2659435,40.8286811 Z M37.9249966,42.4403606 C37.669688,42.3561517 37.5321612,42.0844263 37.617822,41.833445 C37.7034828,41.5824636 37.9798931,41.4472678 38.2352017,41.5314767 C38.3850335,41.580896 38.5360218,41.6287744 38.6881754,41.675098 C38.945417,41.7534158 39.0893688,42.0219059 39.0097007,42.2747875 C38.9300325,42.5276691 38.6569132,42.6691811 38.3996716,42.5908633 C38.2402554,42.5423286 38.0820328,42.4921561 37.9249966,42.4403606 Z M41.7863464,43.3439898 C41.5199894,43.3049862 41.3362281,43.0611023 41.3759041,42.7992598 C41.4155801,42.5374173 41.6636689,42.3567706 41.9300259,42.3957741 C42.0867797,42.4187281 42.2445353,42.4402319 42.4032983,42.4602752 C42.6704006,42.4939961 42.8591223,42.7341914 42.82482,42.9967666 C42.7905177,43.2593417 42.5461811,43.4448647 42.2790788,43.4111438 C42.1138251,43.390281 41.9495825,43.367893 41.7863464,43.3439898 Z M45.7504,43.6219052 C45.4811042,43.6220935 45.2626416,43.4076388 45.26245,43.1429074 C45.2622585,42.8781759 45.4804106,42.663416 45.7497064,42.6632277 C45.9087168,42.6631166 46.0685735,42.6617023 46.2292798,42.6589777 C46.4985356,42.6544128 46.720575,42.8652875 46.7252186,43.1299797 C46.7298623,43.3946719 46.5153517,43.6129479 46.2460959,43.6175128 C46.0800229,43.6203284 45.9147919,43.6217902 45.7504,43.6219052 Z M49.6950966,43.3901463 C49.426966,43.4147471 49.1893165,43.2210114 49.1642914,42.9574254 C49.1392664,42.6938394 49.3363424,42.4602178 49.604473,42.4356169 C49.7633295,42.4210419 49.9250043,42.4062685 50.0896787,42.391279 C50.3578275,42.3668708 50.595333,42.5607773 50.620162,42.8243812 C50.644991,43.0879851 50.4477413,43.3214651 50.1795925,43.3458732 C50.0151517,43.3608414 49.8537132,43.3755933 49.6950966,43.3901463 Z M53.5762991,43.0427986 C53.3080738,43.066381 53.0711874,42.8717441 53.0471984,42.608065 C53.0232095,42.344386 53.2212021,42.1115146 53.4894274,42.0879322 C53.7312366,42.0666825 53.7312366,42.0666825 53.9748935,42.0453082 C54.2431244,42.0217877 54.4799644,42.2164792 54.5038904,42.4801638 C54.5278164,42.7438484 54.3297682,42.9766741 54.0615373,43.0001946 C53.8179878,43.0215595 53.8179878,43.0215595 53.5762991,43.0427986 Z M57.461339,42.703587 C57.1930932,42.7269417 56.9563778,42.5321039 56.9326204,42.2684045 C56.9088631,42.0047052 57.1070602,41.7720019 57.3753061,41.7486473 C57.6179845,41.7275179 57.6179845,41.7275179 57.8618471,41.7062802 C58.1300922,41.6829172 58.3668139,41.8777476 58.3905798,42.1414462 C58.4143457,42.4051448 58.2161561,42.6378543 57.947911,42.6612173 C57.7040285,42.6824567 57.7040285,42.6824567 57.461339,42.703587 Z M61.3469929,42.3639637 C61.0787695,42.3875659 60.8418681,42.1929466 60.817859,41.9292693 C60.7938498,41.665592 60.9918246,41.4327059 61.2600481,41.4091037 C61.5024992,41.387761 61.5024992,41.387761 61.7456681,41.3663198 C62.0138863,41.3426598 62.2508311,41.537228 62.2748991,41.8009001 C62.298967,42.0645723 62.1010442,42.297501 61.832826,42.321161 C61.589547,42.3426119 61.589547,42.3426119 61.3469929,42.3639637 Z M65.2344478,42.0178171 C64.9662811,42.0420341 64.7289187,41.8479584 64.7042842,41.5843368 C64.6796497,41.3207153 64.8770716,41.087376 65.1452383,41.063159 C65.3871086,41.0413019 65.3871086,41.0413019 65.62933,41.019352 C65.8974873,40.9950344 66.134925,41.189021 66.1596619,41.4526333 C66.1843988,41.7162456 65.9870676,41.9496589 65.7189103,41.9739765 C65.4765001,41.9959436 65.4765001,41.9959436 65.2344478,42.0178171 Z M69.1217648,41.6601757 C68.8536897,41.6853537 68.6156091,41.4921301 68.5899969,41.2285986 C68.5643847,40.9650671 68.7609398,40.7310218 69.0290149,40.7058437 C69.2720223,40.6829983 69.2720223,40.6829983 69.5150599,40.660061 C69.7831209,40.634737 70.0213103,40.827831 70.0470709,41.0913485 C70.0728315,41.354866 69.8764083,41.5890183 69.6083474,41.6143423 C69.3650373,41.6373053 69.3650373,41.6373053 69.1217648,41.6601757 Z M73.0044337,41.2862041 C72.7364925,41.3127245 72.4974136,41.1206958 72.470436,40.857296 C72.4434583,40.5938962 72.6387979,40.3588694 72.906739,40.3323491 C73.0692541,40.3162636 73.2309544,40.3001986 73.3918561,40.2841522 C73.6597768,40.2574329 73.8990032,40.449284 73.9261832,40.7126637 C73.9533632,40.9760434 73.7582043,41.2112151 73.4902835,41.2379344 C73.3291365,41.2540054 73.167192,41.2700945 73.0044337,41.2862041 Z M76.8879035,40.8891505 C76.6201554,40.9174932 76.3797303,40.7270957 76.350899,40.4638857 C76.3220676,40.2006758 76.5157479,39.9643257 76.7834959,39.935983 C76.9459612,39.9187851 77.1075458,39.9015988 77.2682578,39.8844227 C77.5359762,39.8558102 77.7765997,40.0459654 77.8057055,40.3091461 C77.8348113,40.5723269 77.6413775,40.808872 77.3736592,40.8374845 C77.2126144,40.8546962 77.0506986,40.8719177 76.8879035,40.8891505 Z M80.769288,40.4609877 C80.501825,40.4918218 80.2595764,40.3036712 80.2282106,40.0407415 C80.1968448,39.7778118 80.3882393,39.5396691 80.6557023,39.5088349 C80.81819,39.4901027 80.9796466,39.4713758 81.1400759,39.4526531 C81.407494,39.4214443 81.650015,39.6092555 81.6817618,39.872141 C81.7135086,40.1350266 81.5224593,40.3734371 81.2550413,40.4046458 C81.0941499,40.4234224 80.9322334,40.4422027 80.769288,40.4609877 Z M84.6465956,39.9896317 C84.3795785,40.023998 84.1347786,39.8390661 84.0998198,39.5765746 C84.064861,39.3140832 84.2529814,39.0734325 84.5199985,39.0390662 C84.6820549,39.0182088 84.8428233,38.9973515 85.0023041,38.9764933 C85.2692478,38.9415802 85.5144391,39.1260103 85.5499542,39.3884295 C85.5854692,39.6508488 85.3978593,39.8918843 85.1309156,39.9267974 C84.9707598,39.9477439 84.80932,39.9686883 84.6465956,39.9896317 Z M88.5203317,39.4543348 C88.2540896,39.4940895 88.0054745,39.3141433 87.9650344,39.0524138 C87.9245942,38.7906842 88.1076429,38.546283 88.373885,38.5065283 C88.5357922,38.4823526 88.6959371,38.4581718 88.8543162,38.4339849 C89.1204202,38.3933466 89.369652,38.5724665 89.4109908,38.8340603 C89.4523297,39.0956541 89.2701216,39.3406616 89.0040175,39.3812998 C88.8445465,39.4056535 88.6833168,39.4299982 88.5203317,39.4543348 Z M92.3851388,38.8144332 C92.1205357,38.8636393 91.8654553,38.6926611 91.8154009,38.4325428 C91.7653465,38.1724244 91.9392726,37.9216675 92.2038757,37.8724614 C92.3651653,37.8424677 92.5236691,37.812463 92.6793758,37.7824466 C92.9436385,37.7315031 93.1998755,37.9008016 93.2516973,38.1605853 C93.303519,38.4203689 93.1313016,38.672263 92.8670389,38.7232064 C92.7091789,38.753638 92.5485426,38.7840464 92.3851388,38.8144332 Z M96.2301262,37.9564941 C95.9710542,38.0287467 95.7014528,37.8808594 95.6279544,37.6261785 C95.554456,37.3714977 95.7048931,37.1064657 95.963965,37.0342131 C96.1226975,36.9899441 96.2750142,36.9456864 96.4208614,36.9014474 C96.6781863,36.8233944 96.9511547,36.9651875 97.0305534,37.218151 C97.109952,37.4711145 96.9657143,37.7394563 96.7083894,37.8175092 C96.5552926,37.8639471 96.3958643,37.9102713 96.2301262,37.9564941 Z M99.7801906,35.8529873 C99.6415824,36.0799593 99.3420488,36.1534969 99.1111634,36.0172381 C98.880278,35.8809793 98.8054726,35.5865225 98.9440807,35.3595504 C99.0199812,35.2352626 99.0960392,35.1031007 99.1724092,34.9629389 C99.2995619,34.7295757 99.5950795,34.641728 99.8324663,34.7667256 C100.069853,34.8917232 100.159215,35.182232 100.032063,35.4155952 C99.9483808,35.5691762 99.8645158,35.714904 99.7801906,35.8529873 Z M101.396605,32.2654577 C101.303993,32.514042 101.023925,32.6417552 100.771055,32.5507132 C100.518184,32.4596712 100.388269,32.1843498 100.480881,31.9357655 C100.533975,31.7932528 100.588658,31.6449669 100.646011,31.4880861 C100.737089,31.2389549 101.016365,31.1095761 101.269792,31.1991106 C101.523218,31.288645 101.654828,31.5631878 101.56375,31.812319 C101.505757,31.9709508 101.450408,32.1210432 101.396605,32.2654577 Z M102.711463,28.6495644 C102.617856,28.8977882 102.337278,29.0244162 102.084775,28.932396 C101.832271,28.8403758 101.70346,28.5645535 101.797067,28.3163297 C101.855933,28.1602291 101.913457,28.0096302 101.970125,27.8633703 C102.065977,27.6159759 102.347691,27.4918093 102.599351,27.5860366 C102.85101,27.6802638 102.977318,27.9572029 102.881466,28.2045974 C102.82586,28.3481165 102.76935,28.49606 102.711463,28.6495644 Z M104.250007,25.2171019 C104.116775,25.4471646 103.819052,25.5274925 103.585023,25.3965193 C103.350993,25.2655462 103.269281,24.9728689 103.402512,24.7428062 C103.489263,24.5930051 103.576555,24.4496782 103.66458,24.3127227 C103.808423,24.0889205 104.109586,24.0221243 104.337247,24.1635292 C104.564908,24.3049341 104.632856,24.600993 104.489013,24.8247952 C104.409157,24.9490416 104.329525,25.0797908 104.250007,25.2171019 Z M106.83778,22.8959128 C106.588947,22.9971361 106.303756,22.8808939 106.200787,22.6362786 C106.097819,22.3916634 106.216065,22.1113058 106.464898,22.0100826 C106.61647,21.9484244 106.77296,21.8879696 106.934376,21.8287079 C107.186652,21.7360876 107.467541,21.8620482 107.561758,22.1100488 C107.655975,22.3580493 107.527843,22.634177 107.275566,22.7267973 C107.124652,22.7822035 106.978722,22.8385788 106.83778,22.8959128 Z M110.493884,21.8434406 C110.230394,21.8981137 109.971707,21.7324542 109.916091,21.4734298 C109.860476,21.2144054 110.028991,20.9601034 110.292482,20.9054303 C110.451271,20.8724823 110.612682,20.8401275 110.776715,20.808365 C111.040934,20.7572033 111.297316,20.92629 111.34936,21.1860307 C111.401404,21.4457715 111.229402,21.6978077 110.965183,21.7489695 C110.805434,21.7799022 110.648334,21.8113929 110.493884,21.8434406 Z M114.309842,21.229721 C114.042645,21.2627084 113.798837,21.0765152 113.765281,20.813847 C113.731724,20.5511787 113.921128,20.3115025 114.188325,20.2785151 C114.349091,20.2586674 114.511613,20.2392095 114.675892,20.2201411 C114.94333,20.1890988 115.18573,20.3770608 115.217308,20.639966 C115.248885,20.9028712 115.057682,21.1411628 114.790244,21.1722052 C114.628342,21.1909976 114.468208,21.2101696 114.309842,21.229721 Z" id="Path-3" fill-rule="nonzero"></path>
                    <path d="M2.35366971,11.3594927 C2.39164953,11.0974072 2.63856366,10.9152118 2.90516786,10.9525479 C3.17177206,10.989884 3.35710874,11.2326131 3.31912892,11.4946986 C3.29552769,11.6575625 3.27388942,11.81381 3.25415888,11.9636845 C3.21959599,12.2262266 2.97507531,12.4115151 2.70800664,12.3775381 C2.44093797,12.343561 2.2524548,12.1031847 2.28701769,11.8406426 C2.30729129,11.686643 2.32949051,11.5263449 2.35366971,11.3594927 Z M2.27482088,15.3327871 C2.22338056,15.0729302 2.39596759,14.8212807 2.6603048,14.7707123 C2.924642,14.7201439 3.18063027,14.8898057 3.23207058,15.1496626 C3.27108924,15.34677 3.29448731,15.4990621 3.30922465,15.6766471 C3.33112131,15.940502 3.13128749,16.1718486 2.86288331,16.1933742 C2.59447914,16.2148997 2.35914381,16.0184529 2.33724714,15.7545979 C2.3258523,15.61729 2.30752066,15.497974 2.27482088,15.3327871 Z M3.87200141,19.0122301 C3.69128711,18.8159579 3.70664258,18.5128329 3.90629881,18.3351816 C4.10595504,18.1575302 4.41430627,18.1726254 4.59502057,18.3688977 C4.69619101,18.478778 4.80331962,18.5905101 4.91640365,18.7040736 C5.10478359,18.8932522 5.10149203,19.1967355 4.90905175,19.3819225 C4.71661146,19.5671096 4.40789567,19.5638738 4.21951573,19.3746952 C4.09768242,19.2523454 3.98184522,19.1315305 3.87200141,19.0122301 Z M6.31165043,21.8788485 C6.17713177,21.6495109 6.25720311,21.3563955 6.49049476,21.2241568 C6.72378641,21.0919181 7.02195558,21.1706323 7.15647424,21.3999699 C7.24903336,21.5577716 7.33088749,21.7120667 7.40198135,21.8629654 C7.51515669,22.1031833 7.40881084,22.3881101 7.16445125,22.4993673 C6.92009166,22.6106244 6.63025234,22.506081 6.517077,22.2658631 C6.45851872,22.1415715 6.39006162,22.0125298 6.31165043,21.8788485 Z M6.53271875,25.1931217 C6.63544376,24.9484075 6.92051922,24.8318911 7.16945262,24.932875 C7.41838602,25.0338589 7.53691134,25.3141026 7.43418633,25.5588168 C7.37095475,25.7094487 7.29681102,25.8658215 7.21060661,26.0301058 C7.08715182,26.26538 6.79305608,26.3577239 6.55372538,26.2363615 C6.31439469,26.1149992 6.22045871,25.8258881 6.3439135,25.5906139 C6.41780196,25.4498008 6.48032084,25.3179453 6.53271875,25.1931217 Z M4.47139084,28.281487 C4.63679668,28.0725773 4.94315929,28.0350378 5.15567087,28.1976402 C5.36818245,28.3602425 5.4063692,28.6614126 5.24096336,28.8703223 C5.14353475,28.9933758 5.04236692,29.1200299 4.93732795,29.2504483 C4.77016452,29.4580016 4.46349562,29.4930409 4.25236377,29.3287108 C4.04123193,29.1643806 4.00558848,28.8629095 4.17275191,28.6553562 C4.2761423,28.5269847 4.37564602,28.402414 4.47139084,28.281487 Z" id="Path-7" fill-rule="nonzero"></path>
                    <path d="M5.61068201,5.27272727 C7.69407162,5.27272727 10.8375964,6.92311951 11.838051,7.53192383 C13.3387329,8.44513027 15.6323302,10.6811375 16.5610151,11.6513337 C17.4897,12.6215298 19.0589104,15.2215701 19.9865149,16.4421247 C20.6049179,17.2558278 21.0620305,18.2594965 21.953107,19.4531308 C23.076522,20.8981903 23.8489598,21.7161091 24.2704204,21.9068875 C24.9026114,22.1930549 25.5516969,22.5307163 27.6350865,22.1993958 C28.8255949,21.9068875 29.9404804,22.4119199 31.2066116,22.238208 C30.4120512,22.6543039 28.3911111,22.3922972 27.3374594,22.8232246 C25.7569819,23.4696157 26.0819501,23.5100653 24.8436522,24.1342091 C24.0181202,24.550305 22.8438749,24.550305 21.320916,24.1342091 C21.2362009,24.3719201 20.9079637,23.7551921 20.3362045,22.2840251 C19.4785656,20.0772746 18.4049198,17.4651465 17.8133926,16.3880422 C17.2218654,15.310938 16.4216818,14.3640937 15.2741379,12.8779428 C14.5091085,11.8871755 13.6426353,10.2597592 12.470242,9.67635138 C10.7241801,8.31216796 9.52895942,7.42930984 8.88457997,7.027777 C6.66000724,5.6415767 4.64765833,5.27272727 5.61068201,5.27272727 Z" id="Path-6" fill-rule="evenodd"></path>
                    <path d="M39.2421022,18.0012631 C39.4579474,16.8281638 39.5658696,15.5450598 39.5658696,14.1519512 C40.0913832,15.3778028 40.4183803,16.7036086 40.5468621,18.1293685 C40.7395843,20.2680085 40.5791918,20.8376035 40.7555807,20.9185858 C40.9319692,20.9995681 42.5588346,20.30416 43.2411304,19.6897341 C43.6959941,19.2801169 44.2095616,17.9422607 44.7818328,15.6761654 C44.6495572,18.7614951 44.8595576,20.4065643 45.4118335,20.6113729 C45.9641095,20.8161815 47.4341113,20.8161815 49.8218387,20.6113729 C51.9153283,20.544354 53.5953301,20.3395454 54.8618445,19.9969471 C56.7616161,19.4830496 57.3903348,19.0753083 57.7717527,18.4608825 C58.1531706,17.8464566 58.4817988,16.3880737 58.8724852,13.907741 C59.1329427,12.2541859 59.266064,10.5973661 59.2718496,8.93728193 C59.4838833,9.6257357 59.6002139,10.1988598 59.6208417,10.6566542 C59.6517835,11.3433459 59.7127232,14.2354986 59.7635762,15.9257759 C59.8144293,17.6160531 59.7748277,19.6537968 59.9018504,19.9969471 C60.028873,20.3400974 59.8751377,18.8512864 60.2846035,17.8464566 C60.694069,16.8416268 60.8887607,16.8435922 61.4197124,15.9257759 C61.9506638,15.0079595 62.2516233,14.9357979 62.7277788,13.907741 C63.045216,13.2223697 63.2509607,12.6140941 63.3450135,12.0829142 C63.3917715,13.1290082 63.2940515,14.0616725 63.051854,14.8809069 C62.6885578,16.1097586 62.1542261,16.428297 61.5489885,18.1293685 C61.1454967,19.2634162 61.3406801,19.6726334 62.1345386,19.3570202 L64.3118555,16.8147132 C63.2409875,18.2411732 62.8825363,19.0886089 63.2365016,19.3570202 C63.7674495,19.7596371 69.8216702,19.1566117 71.8931668,19.1566117 C73.9646634,19.1566117 77.0992093,20.1234024 78.2410085,20.1234024 C79.3828079,20.1234024 80.5220707,20.30416 81.9105013,18.1293685 C83.2989319,15.9545771 83.423826,13.3730435 83.8418782,11.5692176 C84.2599303,9.76539174 84.7840339,8.35420741 85.7608733,6.56463215 C86.7377127,4.77505689 86.6009692,4.99811805 87.0684017,3.76821453 C87.3800234,2.94827886 87.4904323,2.17154619 87.399629,1.43801653 C87.6007032,1.69166077 87.7713798,1.95602189 87.9116583,2.23109988 C88.0519368,2.50617788 88.0982589,2.87834353 88.0506245,3.34759684 L90.1761849,2.00129022 C88.7153603,3.34299665 87.4803015,4.74598066 86.4710085,6.21024223 C85.4617152,7.67450383 84.755246,9.85912069 84.3516004,12.7640929 C83.9836097,15.1124981 83.7717128,16.9009233 83.7159089,18.1293685 C83.6322029,19.9720364 83.7587949,20.5346739 84.3516004,21.2257988 C84.9444059,21.9169236 86.3120471,21.7374703 87.5720485,22.3824974 C88.83205,23.0275245 89.2721575,23.7386348 89.5118847,23.3762892 C90.1418855,22.4240491 90.7900356,21.5330117 91.627832,20.6113729 C92.4656284,19.6897341 93.9699246,18.2847243 95.8118921,16.8147132 C97.6538595,15.3447021 98.4670768,14.8498955 99.9068968,13.907741 C100.866777,13.279638 102.021778,12.6713624 103.371901,12.0829142 L99.9068968,14.4215876 C98.3165258,15.6464037 97.0459372,16.7016231 96.0951309,17.5872457 C94.6689214,18.9156797 94.6687274,18.9467776 93.4203195,20.3972389 C92.1719116,21.8477002 91.9632891,22.4086735 91.627832,23.0537006 C91.2923752,23.6987277 91.2266988,24.7790732 91.627832,25.4910031 C92.0289654,26.2029331 92.4317183,26.230189 92.7524318,26.0767325 C93.0731453,25.9232761 93.2934522,25.404705 94.1475275,23.8132576 C95.0016024,22.2218102 95.2841927,21.5536161 96.0951309,20.3972389 C96.9060691,19.2408618 97.4979832,18.9826116 98.2502995,18.1648963 C99.0026158,17.347181 100.706424,16.5034264 100.706424,16.5034264 C100.706424,16.5034264 97.8833599,19.4537296 97.4659087,19.8989487 C97.0484575,20.3441678 96.1533131,21.5642212 95.6983549,22.4054246 C95.3169238,23.1106786 94.9156201,23.8745961 94.5199856,24.735824 C94.0852615,25.6821429 94.0305894,26.1936837 93.8529351,26.7331935 C93.620812,27.4381167 93.6362087,26.9309664 93.6362087,27.9472592 C93.6362087,28.6247877 94.0617896,29.1618348 94.5199856,29.7190083 C93.7214619,29.1995864 93.1852483,28.8709703 92.2816732,27.9156301 C90.9263101,26.4826198 90.5275593,25.5493948 89.1735054,24.6051409 C87.8194517,23.660887 86.9918818,23.1521798 85.4487183,22.7618634 C83.9055548,22.3715469 81.951876,22.4240491 80.6918745,22.1474375 C79.431873,21.8708259 79.0621168,21.5330117 76.2818694,20.9185858 C73.501622,20.30416 71.6497644,20.6113729 69.539508,20.6113729 C67.4292516,20.6113729 59.9018504,21.2257988 56.7518467,21.2257988 C53.601843,21.2257988 47.3018357,21.8277741 46.671835,21.8277741 C46.0418343,21.8277741 43.5147561,21.8630255 42.5517594,22.0329827 C41.5887626,22.2029399 38.7678449,22.5716554 36.5643685,22.5716554 C35.0953841,22.5716554 33.634534,22.4302494 32.1818182,22.1474375 C32.9297043,21.9343285 33.3968729,21.6955685 33.5833238,21.4311574 C33.8629997,21.0345407 34.00311,20.6264937 34.1494938,19.3570202 C34.2470831,18.5107044 34.2893294,17.6632688 34.2762323,16.8147132 C34.5073506,17.8895081 34.6905368,18.6701409 34.8257911,19.1566117 C35.0286721,19.886318 34.9959313,19.8220819 35.3318218,20.6113729 C35.6677124,21.4006639 36.0671048,22.0329827 36.3882575,22.0329827 C36.9342744,22.0416542 37.2345132,21.9891058 37.6412606,21.4311574 C38.0480079,20.8732089 38.9183347,19.7609122 39.2421022,18.0012631 Z" id="Path-7" fill-rule="evenodd"></path>
                </g>
            </g>
        </g>
    </g>
</svg>