<?xml version="1.0" encoding="UTF-8"?>
<svg width="204px" height="77px" viewBox="0 0 204 77" version="1.1" xmlns="http://www.w3.org/2000/svg" xmlns:xlink="http://www.w3.org/1999/xlink">
    <!-- Generator: sketchtool 52.4 (67378) - http://www.bohemiancoding.com/sketch -->
    <title>FEF8B26F-F439-437D-A86D-F70F636DFF23</title>
    <desc>Created with sketchtool.</desc>
    <g id="Page-1" stroke="none" stroke-width="1" fill="none" fill-rule="evenodd">
        <g id="комп_тест_4---7-правильных-ответа_1280--" transform="translate(-40.000000, -33.000000)">
            <g id="Group-10">
                <g id="Group-7" transform="translate(0.000000, 33.000000)">
                    <g id="логотип" transform="translate(40.000000, 0.000000)">
                        <path d="M87.125,20.2971767 L93.8521994,20.2971767 L93.8521994,32.9911905 L103.864198,20.2971767 L111.851128,20.2971767 L100.67763,33.2886726 L112.459944,47.9792902 L103.965667,47.9792902 L93.8532789,34.6881409 L93.8532789,47.9792902 L87.1260795,47.9792902 L87.1260795,20.2939196 L87.1260795,20.2971767 L87.125,20.2971767 Z M126.878301,20.2971767 C132.589728,20.2971767 134.974257,24.145986 134.974257,27.5431439 C134.84796,30.1466544 133.169399,32.4157691 130.726579,33.2875869 C133.749069,33.95855 135.922024,36.6239455 135.984632,39.7366497 C135.984632,44.0316821 132.854196,47.9782045 126.530715,47.9782045 L114.547621,47.9782045 L114.547621,20.2928339 L126.885858,20.2928339 L126.878301,20.2971767 Z M121.264026,30.9891582 L125.663908,30.9891582 C127.038062,31.1183566 128.256773,30.101055 128.385229,28.7178721 C128.391705,28.6440445 128.396023,28.5669597 128.396023,28.4931321 C128.446758,27.1533773 127.408317,26.0264198 126.077341,25.9753919 C125.93917,25.9710491 125.802079,25.9764776 125.664987,25.9949345 L121.265105,25.9949345 L121.265105,30.9891582 L121.264026,30.9891582 Z M121.264026,42.2815324 L126.071944,42.2815324 C128.8019,42.2815324 129.409637,40.5813249 129.409637,39.4825957 C129.409637,38.7334621 129.105229,36.683659 126.071944,36.683659 L121.268344,36.683659 L121.268344,42.2815324 L121.264026,42.2815324 Z M187.070113,38.6987197 C189.043367,32.7013084 189.922048,26.3933867 189.659739,20.0811222 L172.460691,20.0811222 L172.460691,37.1016538 C172.537333,38.3936378 172.184349,39.6747647 171.455713,40.7430943 C170.243478,41.9547364 168.483957,42.4346162 166.830223,42.0014216 L166.830223,47.961919 C170.191664,48.6220251 173.659972,47.5547812 176.077964,45.1141258 C177.975656,42.896039 178.936376,40.022189 178.758265,37.1016538 L178.758265,26.0416196 L187.070113,26.0416196 L187.070113,38.7008911 L187.070113,38.6987197 Z M184.331521,47.896777 C184.331521,47.896777 197.881992,27.811312 186.519588,0 C186.519588,0 193.085948,5.66627253 193.398991,10.610554 C193.673174,14.9718142 193.818901,6.6922598 194.129786,7.00385593 C201.111738,14.0087976 197.98454,32.1356583 197.46424,33.1692455 C196.942861,34.2017469 199.861723,29.9772851 199.861723,29.9772851 C201.320074,38.9397453 194.753714,48.0010042 194.44175,48.0010042 C194.129786,48.0010042 184.331521,47.8913485 184.331521,47.8913485 L184.331521,47.896777 Z M202.780585,17.817436 C206.845834,9.78325001 199.443971,6.28186489 199.443971,6.28186489 C201.692488,9.69965104 202.856147,13.7243439 202.780585,17.8228645 L202.780585,17.817436 Z M200.537465,16.2475126 C203.393718,10.6018684 198.193956,8.14167038 198.193956,8.14167038 C199.774286,10.5421549 200.591438,13.3693198 200.537465,16.2475126 Z M201.797196,42.9405528 C202.111319,43.0675798 202.398455,43.2564917 202.640255,43.4953459 C202.874498,43.7396286 203.064483,44.0219108 203.199415,44.3324212 C203.334348,44.6603029 203.402354,45.0109842 203.400195,45.3649227 C203.403433,45.7166897 203.335427,46.0673711 203.199415,46.3930813 C203.066642,46.7025061 202.876657,46.9847883 202.640255,47.2247282 C202.397376,47.4635823 202.112398,47.6514086 201.797196,47.7784356 C201.121453,48.045518 200.370149,48.045518 199.694406,47.7784356 C199.380283,47.65358 199.093147,47.464668 198.855665,47.2247282 C198.360193,46.7339914 198.083851,46.0630283 198.091407,45.3649227 C198.088169,45.0109842 198.157254,44.6592172 198.294346,44.3324212 C198.427119,44.0208251 198.618184,43.7363715 198.856745,43.4953459 C199.095306,43.2543203 199.380283,43.0654084 199.693327,42.9405528 C200.370149,42.6745561 201.120374,42.6745561 201.796116,42.9405528 L201.797196,42.9405528 Z M199.852008,43.2890627 C199.58646,43.4008899 199.34574,43.5626593 199.142802,43.7667711 C198.940943,43.9708828 198.780103,44.2129941 198.671077,44.4789908 C198.450867,45.0446409 198.450867,45.6743474 198.671077,46.2399975 C198.780103,46.5059942 198.939863,46.7491912 199.142802,46.9522173 C199.34574,47.1574147 199.58646,47.3224412 199.852008,47.4353541 C200.703702,47.8034067 201.693568,47.6112377 202.3488,46.9522173 C202.550659,46.7481055 202.708261,46.5059942 202.816207,46.2399975 C203.164873,45.396408 202.981364,44.4225344 202.3488,43.7667711 C202.144782,43.563745 201.904062,43.4019756 201.640674,43.2890627 C201.066401,43.0534657 200.424122,43.0534657 199.852008,43.2890627 Z M199.785081,46.8773039 L199.785081,43.8471129 L200.966011,43.8471129 C201.234797,43.8264846 201.502503,43.9046551 201.720554,44.0642531 C201.883553,44.2292796 201.96883,44.4561911 201.956956,44.6874454 L201.898665,45.0316125 L201.730269,45.2867522 L201.481993,45.4463502 L201.184062,45.5353777 L202.103763,46.880561 L201.660104,46.880561 L200.796536,45.5353777 L200.160733,45.5353777 L200.160733,46.880561 L199.782922,46.880561 L199.785081,46.8773039 Z M201.002713,45.2009819 L201.296326,45.1434397 L201.506821,44.9849274 L201.583463,44.6809312 L201.519774,44.4247058 L201.354617,44.2618507 L201.124692,44.1836802 L200.852668,44.1630519 L200.160733,44.1630519 L200.160733,45.2129246 L200.662683,45.2129246 L201.003792,45.2009819 L201.002713,45.2009819 Z M144.442207,30.9468159 C145.800169,26.635498 150.373844,24.2480419 154.660383,25.6138535 C157.185242,26.4183578 159.162814,28.4073617 159.962694,30.9468159 L144.431413,30.9468159 L144.442207,30.9468159 Z M166.708244,34.1963184 C166.700688,26.0959047 160.165633,19.5371861 152.112856,19.5437003 C144.060078,19.5513002 137.537976,26.1241329 137.546612,34.223461 C137.554168,42.3238747 144.089224,48.8825933 152.142001,48.8749934 C158.252828,48.8695649 163.711661,45.0316125 165.81661,39.2621984 L158.851929,39.2621984 C157.345002,41.4705139 154.860083,42.7972403 152.197053,42.8135258 C147.555372,42.8135258 144.831893,40.3229281 144.110813,36.3177778 L166.539849,36.4068053 C166.649954,35.6750429 166.703927,34.9367664 166.703927,34.1974041 L166.708244,34.1963184 Z" id="Shape" fill="#1FB4B0" fill-rule="nonzero"></path>
                        <path d="M55.1599966,19.9387657 L55.1599966,48.986747 L48.4328769,48.986747 L48.4328769,26.1254667 L38.0159223,26.1254667 L38.0159223,48.9856333 L31.2888027,48.9856333 L31.2888027,19.9387657 L55.1599966,19.9387657 Z M14.451492,43.0595422 C9.83703046,43.3892026 5.83718006,39.8119418 5.51740882,35.0708462 C5.19655361,30.3308642 8.67718224,26.2201327 13.2916438,25.8915861 C17.9061054,25.5630394 21.9059558,29.1391865 22.225727,33.8791684 C22.2398186,34.0774101 22.2463224,34.2756518 22.2463224,34.4750073 C22.3959103,39.0557276 18.9087779,42.8958257 14.451492,43.0595422 Z M22.954155,19.9755184 L22.954155,23.2698949 C20.4978783,20.8252849 17.2167003,19.4520711 13.7978579,19.4387065 C6.17754673,19.4387065 0,26.2412934 0,34.6309277 C0,43.0205621 6.1786307,49.8264901 13.7978579,49.8264901 C17.2167003,49.8131255 20.4989623,48.4410254 22.954155,45.9975291 L22.954155,49.0212723 L29.3495798,49.0212723 L29.3495798,19.9755184 L22.954155,19.9755184 Z M71.5452916,43.3858614 C66.8321888,43.6609497 62.7954834,39.9600662 62.5277427,35.118736 C62.260002,30.2762921 65.8620353,26.1288079 70.5740542,25.8526059 C75.2871571,25.576404 79.3238625,29.2784011 79.5916031,34.1197314 C79.6013589,34.2845616 79.6056948,34.4516192 79.6056948,34.6175631 C79.7325193,39.3252472 76.1261501,43.2477605 71.5452916,43.3858614 Z M71.530116,19.1324342 C63.2518349,18.8707106 56.3350204,25.5519022 56.0792034,34.0551357 C55.8244704,42.5605967 62.3272082,49.6672285 70.6033214,49.9300658 C78.8805186,50.1917894 85.7984171,43.5105978 86.0542341,35.0062505 C86.0585699,34.8481026 86.0607379,34.6910685 86.0607379,34.5318069 C86.1853945,26.1577646 79.6804887,19.2649666 71.530116,19.1324342 Z" id="Shape" fill="#0085A5" fill-rule="nonzero"></path>
                        <path d="M10.4477291,71.084144 C10.5510532,71.084144 10.6400254,71.1227298 10.7146484,71.1999027 L11.4379138,71.9606031 C10.9327736,72.5338874 10.3171431,72.9776249 9.59100404,73.2918288 C8.86486495,73.6060327 7.99092804,73.7631323 6.96916711,73.7631323 C6.07369123,73.7631323 5.26289591,73.6143011 4.53675682,73.3166342 C3.81061773,73.0189674 3.19068219,72.6027913 2.67693161,72.0680934 C2.16318103,71.5333955 1.76567606,70.8939726 1.48440479,70.1498054 C1.20313352,69.4056383 1.0625,68.5870667 1.0625,67.6940661 C1.0625,66.8010656 1.2103087,65.982494 1.50593055,65.2383268 C1.80155239,64.4941597 2.21627779,63.8547368 2.75011917,63.3200389 C3.28396056,62.785341 3.92255157,62.3691649 4.66591135,62.0714981 C5.40927113,61.7738312 6.23154674,61.625 7.13276284,61.625 C8.01101803,61.625 8.7916776,61.7628067 9.47476496,62.0384241 C10.1578523,62.3140416 10.7519572,62.6806073 11.2570975,63.1381323 L10.6543763,63.9567121 C10.6141947,64.0173479 10.5639685,64.0669583 10.503696,64.1055447 C10.4434236,64.1441312 10.3644966,64.1634241 10.2669127,64.1634241 C10.1578484,64.1634241 10.0301302,64.1110576 9.8837543,64.006323 C9.73737844,63.9015883 9.54508362,63.7844527 9.30686408,63.6549125 C9.06864453,63.5253722 8.77446216,63.4082366 8.42430813,63.3035019 C8.0741541,63.1987673 7.63790317,63.1464008 7.11554224,63.1464008 C6.50133763,63.1464008 5.93880353,63.2497558 5.42792307,63.4564689 C4.9170426,63.663182 4.47648656,63.9608444 4.10624172,64.349465 C3.73599689,64.7380856 3.4489897,65.2148967 3.24521153,65.7799125 C3.04143337,66.3449282 2.93954582,66.9829731 2.93954582,67.6940661 C2.93954582,68.4161839 3.04573848,69.0583629 3.25812699,69.6206226 C3.4705155,70.1828822 3.76326283,70.6596932 4.13637778,71.05107 C4.50949273,71.4424468 4.94861373,71.7401092 5.45375397,71.9440661 C5.95889421,72.1480231 6.50420788,72.25 7.08971133,72.25 C7.44560559,72.25 7.76561861,72.229329 8.04976,72.1879864 C8.33390138,72.1466438 8.59507793,72.0846308 8.83329747,72.0019455 C9.07151701,71.9192603 9.29681766,71.8131492 9.50920617,71.6836089 C9.72159468,71.5540687 9.93110993,71.3983472 10.1377582,71.2164397 C10.18368,71.1778532 10.2324713,71.1461577 10.2841333,71.1213521 C10.3357954,71.0965466 10.3903268,71.084144 10.4477291,71.084144 Z M20.2720836,65.2300584 L20.2720836,73.6308366 L18.5844644,73.6308366 L18.5844644,69.7611868 L14.580674,69.7611868 L14.580674,73.6308366 L12.9016651,73.6308366 L12.9016651,65.2300584 L14.580674,65.2300584 L14.580674,68.5374514 L18.5844644,68.5374514 L18.5844644,65.2300584 L20.2720836,65.2300584 Z M30.2169823,65.2300584 L30.2169823,73.6308366 L28.5293631,73.6308366 L28.5293631,68.1405642 C28.5293631,68.0303172 28.5351032,67.9076693 28.5465837,67.7726167 C28.5580641,67.6375642 28.5752846,67.5011356 28.5982455,67.3633268 C28.5408432,67.4790862 28.4848768,67.5879534 28.4303446,67.6899319 C28.3758124,67.7919104 28.319846,67.8814847 28.2624437,67.9586576 L24.2414327,73.2256809 C24.1782902,73.3249032 24.0950581,73.4186118 23.991734,73.5068093 C23.8884098,73.5950069 23.7707369,73.6391051 23.6387116,73.6391051 L22.622696,73.6391051 L22.622696,65.2300584 L24.3017048,65.2300584 L24.3017048,70.7285992 C24.3017048,70.8388462 24.2959647,70.9614941 24.2844842,71.0965467 C24.2730038,71.2315992 24.2557834,71.3652717 24.2328224,71.4975681 C24.347627,71.2550247 24.4595598,71.0593393 24.5686242,70.9105058 L28.5896352,65.635214 C28.6527777,65.5415041 28.7374448,65.4505517 28.8436391,65.3623541 C28.9498334,65.2741565 29.0689413,65.2300584 29.2009666,65.2300584 L30.2169823,65.2300584 Z M42.4091698,65.2052529 L42.4091698,73.6308366 L40.8937566,73.6308366 L40.8937566,68.2893969 C40.8937566,68.1240264 40.9038019,67.9366093 40.9238927,67.7271401 C40.9439835,67.5176708 40.9741192,67.3247415 41.0143008,67.1483463 L38.0867982,72.1259728 C38.0351361,72.2196827 37.9691245,72.2927202 37.8887613,72.3450875 C37.808398,72.3974549 37.7136857,72.4236381 37.6046213,72.4236381 L37.4151947,72.4236381 C37.3118705,72.4236381 37.2185932,72.3974549 37.1353598,72.3450875 C37.0521265,72.2927202 36.9846798,72.2196827 36.9330177,72.1259728 L33.9624636,67.1318093 C33.996905,67.3082045 34.0256057,67.5025119 34.0485666,67.7147374 C34.0715275,67.9269628 34.0830078,68.1185141 34.0830078,68.2893969 L34.0830078,73.6308366 L32.5675947,73.6308366 L32.5675947,65.2052529 L33.9280224,65.2052529 C34.042827,65.2052529 34.1576299,65.2300581 34.2724345,65.2796693 C34.3872391,65.3292804 34.4848215,65.4257451 34.5651847,65.5690661 L37.1224444,69.7198444 C37.1970674,69.8521407 37.2659491,69.9927035 37.3290916,70.141537 C37.3922342,70.2903704 37.4525057,70.4392016 37.509908,70.588035 C37.5673103,70.4392016 37.6261467,70.2903704 37.6864192,70.141537 C37.7466916,69.9927035 37.8141383,69.8521407 37.8887613,69.7198444 L40.4115797,65.5690661 C40.4919429,65.4202327 40.5895254,65.32239 40.70433,65.275535 C40.8191346,65.2286801 40.9339375,65.2052529 41.0487421,65.2052529 L42.4091698,65.2052529 Z M49.4696173,69.901751 C48.78653,69.9238004 48.2067754,69.9747888 47.7303363,70.0547179 C47.2538972,70.134647 46.8664375,70.2407581 46.5679456,70.3730545 C46.2694536,70.5053509 46.0541982,70.6610724 45.9221729,70.8402237 C45.7901476,71.0193751 45.724136,71.2191947 45.724136,71.4396887 C45.724136,71.649158 45.7600119,71.8296847 45.8317648,71.9812743 C45.9035176,72.1328639 46.0011001,72.2568899 46.124515,72.353356 C46.24793,72.4498221 46.3928686,72.5201035 46.5593353,72.5642023 C46.7258019,72.6083011 46.9066165,72.6303502 47.1017843,72.6303502 C47.3600946,72.6303502 47.5968756,72.605545 47.8121342,72.5559339 C48.0273928,72.5063227 48.2297329,72.4360413 48.4191605,72.3450875 C48.6085881,72.2541338 48.7894026,72.1425104 48.9616095,72.010214 C49.1338164,71.8779176 49.3031507,71.7263303 49.4696173,71.5554475 L49.4696173,69.901751 Z M44.5445246,66.4041829 C45.0324442,65.9576826 45.5619724,65.6241905 46.1331253,65.4036965 C46.7042782,65.1832025 47.3313889,65.0729572 48.0144763,65.0729572 C48.5138763,65.0729572 48.9558674,65.151507 49.3404628,65.3086089 C49.7250582,65.4657109 50.0493763,65.6848235 50.3134269,65.9659533 C50.5774775,66.2470831 50.7769475,66.5833314 50.9118429,66.9747082 C51.0467383,67.366085 51.114185,67.7987979 51.114185,68.2728599 L51.114185,73.6308366 L50.3650887,73.6308366 C50.198622,73.6308366 50.0723389,73.6046533 49.9862354,73.552286 C49.900132,73.4999187 49.8312503,73.4020759 49.7795882,73.2587549 L49.5987718,72.5228599 C49.3749029,72.7213045 49.1539073,72.896319 48.9357786,73.0479086 C48.7176499,73.1994982 48.4894791,73.3290364 48.2512596,73.4365272 C48.0130401,73.544018 47.7590387,73.625324 47.4892479,73.6804475 C47.2194571,73.735571 46.9209696,73.7631323 46.5937765,73.7631323 C46.2493627,73.7631323 45.9264796,73.7176561 45.6251175,73.6267023 C45.3237554,73.5357486 45.0611439,73.3965638 44.8372749,73.209144 C44.6134059,73.0217241 44.4368965,72.7874528 44.3077413,72.506323 C44.1785862,72.2251931 44.1140095,71.8972133 44.1140095,71.5223735 C44.1140095,71.1916326 44.2072869,70.8732992 44.3938443,70.5673638 C44.5804018,70.2614284 44.8846294,69.9871932 45.3065363,69.7446498 C45.7284433,69.5021064 46.2794971,69.3036648 46.9597143,69.1493191 C47.6399316,68.9949733 48.4765575,68.906777 49.4696173,68.8847276 L49.4696173,68.2728599 C49.4696173,67.6389398 49.3289838,67.1648848 49.0477125,66.8506809 C48.7664413,66.536477 48.3531509,66.3793774 47.8078291,66.3793774 C47.4404543,66.3793774 47.1319216,66.4234756 46.8822216,66.5116732 C46.6325216,66.5998707 46.4172662,66.6977135 46.236449,66.8052043 C46.0556317,66.9126951 45.8977778,67.0105378 45.7628823,67.0987354 C45.6279869,67.186933 45.4887885,67.2310311 45.3452827,67.2310311 C45.2304781,67.2310311 45.1314606,67.2007137 45.0482273,67.1400778 C44.964994,67.079442 44.8975473,67.0077825 44.8458852,66.9250973 L44.5445246,66.4041829 Z M59.1648173,68.4961089 C59.1648173,68.1763927 59.1174611,67.8814864 59.0227473,67.6113813 C58.9280335,67.3412762 58.788835,67.1070049 58.6051476,66.9085603 C58.4214603,66.7101157 58.1975947,66.5557723 57.9335441,66.4455253 C57.6694935,66.3352783 57.3652659,66.2801556 57.0208521,66.2801556 C56.3148038,66.2801556 55.7594449,66.4758411 55.3547587,66.8672179 C54.9500725,67.2585947 54.693201,67.8015529 54.5841367,68.4961089 L59.1648173,68.4961089 Z M60.5510759,72.4319066 C60.3444276,72.6634253 60.1062116,72.8632449 59.8364208,73.0313716 C59.56663,73.1994982 59.2796228,73.3359268 58.9753906,73.4406615 C58.6711584,73.5453961 58.3568856,73.6225678 58.0325626,73.672179 C57.7082396,73.7217901 57.3882266,73.7465953 57.0725139,73.7465953 C56.4697898,73.7465953 55.9115608,73.6487526 55.3978102,73.4530642 C54.8840596,73.2573758 54.4391985,72.9707379 54.0632134,72.593142 C53.6872283,72.2155461 53.394481,71.7470034 53.1849626,71.1875 C52.9754442,70.6279966 52.8706866,69.9844394 52.8706866,69.2568093 C52.8706866,68.6725003 52.9653989,68.128164 53.1548265,67.623784 C53.3442541,67.1194041 53.6154759,66.6798008 53.9685001,66.3049611 C54.3215242,65.9301213 54.75347,65.6352151 55.2643505,65.4202335 C55.775231,65.2052518 56.3492454,65.0977626 56.9864109,65.0977626 C57.5202523,65.0977626 58.0124696,65.1818247 58.4630777,65.3499514 C58.9136857,65.518078 59.3025805,65.7619958 59.6297736,66.0817121 C59.9569667,66.4014283 60.2138381,66.7955554 60.4003956,67.2641051 C60.5869531,67.7326547 60.6802304,68.2673446 60.6802304,68.8681907 C60.6802304,69.1162464 60.6515297,69.2829924 60.5941274,69.3684339 C60.5367251,69.4538753 60.4305324,69.4965953 60.2755462,69.4965953 L54.5410851,69.4965953 C54.5583058,69.9982191 54.6329277,70.4350662 54.764953,70.8071498 C54.8969783,71.1792334 55.0792278,71.4892984 55.3117072,71.7373541 C55.5441865,71.9854098 55.8211484,72.1700707 56.1426013,72.2913424 C56.4640542,72.4126141 56.8228132,72.473249 57.218889,72.473249 C57.592004,72.473249 57.9148871,72.431907 58.187548,72.3492218 C58.4602089,72.2665366 58.6955548,72.1769622 58.8935928,72.0804961 C59.0916307,71.98403 59.2580949,71.8944557 59.3929903,71.8117704 C59.5278857,71.7290852 59.6469937,71.6877432 59.7503178,71.6877432 C59.8880833,71.6877432 59.994276,71.7373536 60.068899,71.8365759 L60.5510759,72.4319066 Z M69.7038268,66.4537938 L66.4060812,66.4537938 L66.4060812,73.6308366 L64.718462,73.6308366 L64.718462,66.4537938 L61.4207164,66.4537938 L61.4207164,65.2300584 L69.7038268,65.2300584 L69.7038268,66.4537938 Z M74.9044492,66.1065175 C75.2316423,65.8088507 75.6334523,65.5663109 76.1098914,65.3788911 C76.5863305,65.1914712 77.1574748,65.0977626 77.8233415,65.0977626 C78.3571829,65.0977626 78.8278747,65.1597756 79.235431,65.2838035 C79.6429873,65.4078314 79.9859609,65.5731994 80.2643621,65.7799125 C80.5427632,65.9866255 80.7522785,66.2222749 80.8929141,66.4868677 C81.0335498,66.7514605 81.1038665,67.0270738 81.1038665,67.313716 C81.1038665,67.4790864 81.0766008,67.6513448 81.0220687,67.8304961 C80.9675365,68.0096475 80.8799993,68.1819058 80.7594544,68.3472763 C80.6389096,68.5126467 80.4796206,68.6656121 80.2815827,68.806177 C80.0835448,68.9467419 79.8381536,69.0638776 79.5454019,69.1575875 C80.0849835,69.3174457 80.5126242,69.5710099 80.8283369,69.9182879 C81.1440495,70.2655659 81.3019035,70.6982789 81.3019035,71.2164397 C81.3019035,71.6078165 81.2086261,71.9606015 81.0220687,72.2748054 C80.8355112,72.5890094 80.5843799,72.8549762 80.2686672,73.072714 C79.9529546,73.2904518 79.5884555,73.4571979 79.1751589,73.5729572 C78.7618623,73.6887165 78.3313516,73.7465953 77.8836136,73.7465953 C77.6080826,73.7465953 77.3253805,73.7217901 77.0354989,73.672179 C76.7456173,73.6225678 76.4600451,73.5453961 76.1787738,73.4406615 C75.8975026,73.3359268 75.6305859,73.2008763 75.3780158,73.0355058 C75.1254456,72.8701354 74.89871,72.6689376 74.6978019,72.4319066 L75.1799788,71.8365759 C75.2546018,71.7373536 75.3607945,71.6877432 75.49856,71.6877432 C75.6076244,71.6877432 75.7209922,71.7304633 75.8386669,71.8159047 C75.9563416,71.9013461 76.0998452,71.9936765 76.269182,72.0928988 C76.4385188,72.1921211 76.6422939,72.2844516 76.8805134,72.369893 C77.118733,72.4553344 77.4157854,72.4980545 77.7716797,72.4980545 C78.0759119,72.4980545 78.3471337,72.4622247 78.5853532,72.3905642 C78.8235728,72.3189037 79.0244778,72.2196829 79.1880744,72.0928988 C79.3516709,71.9661148 79.476519,71.8172836 79.5626225,71.6464008 C79.6487259,71.475518 79.691777,71.2881009 79.691777,71.084144 C79.691777,70.6872548 79.5224428,70.3702995 79.1837692,70.1332685 C78.8450956,69.8962375 78.3227425,69.7777237 77.6166943,69.7777237 L76.6265095,69.7777237 L76.6265095,68.702821 L77.6166943,68.702821 C78.2366391,68.702821 78.7188112,68.5911976 79.063225,68.3679475 C79.4076388,68.1446973 79.5798431,67.8566814 79.5798431,67.5038911 C79.5798431,67.3495453 79.5425322,67.2020921 79.4679092,67.0615272 C79.3932862,66.9209623 79.2799183,66.7969363 79.1278022,66.6894455 C78.9756861,66.5819547 78.7862614,66.4978927 78.5595223,66.4372568 C78.3327832,66.376621 78.0701716,66.3463035 77.7716797,66.3463035 C77.4387463,66.3463035 77.1574793,66.377999 76.9278701,66.4413911 C76.6982609,66.5047831 76.503096,66.5750645 76.3423696,66.6522374 C76.1816431,66.7294102 76.0481848,66.7996916 75.9419905,66.8630837 C75.8357963,66.9264757 75.745389,66.9581712 75.670766,66.9581712 C75.5904028,66.9581712 75.5229561,66.9430125 75.4684239,66.9126946 C75.4138917,66.8823766 75.3550553,66.8203636 75.2919127,66.7266537 L74.9044492,66.1065175 Z M90.5924192,65.2300584 L85.736209,76.0700389 C85.6845469,76.1913106 85.6156652,76.2850191 85.5295617,76.3511673 C85.4434583,76.4173155 85.3171751,76.4503891 85.1507084,76.4503891 L83.9022146,76.4503891 L85.5037308,73.1016537 L81.9132349,65.2300584 L83.3769862,65.2300584 C83.520492,65.2300584 83.6324248,65.263132 83.712788,65.3292802 C83.7931512,65.3954283 83.8505527,65.4698439 83.884994,65.5525292 L86.1064519,70.5963035 C86.1523738,70.7230875 86.1968599,70.8512477 86.2399116,70.9807879 C86.2829633,71.1103281 86.3188392,71.2384883 86.3475404,71.3652724 C86.387722,71.232976 86.4307731,71.1020597 86.4766949,70.9725195 C86.5226168,70.8429792 86.571408,70.7148191 86.62307,70.588035 L88.7670352,65.5525292 C88.8072168,65.4588192 88.8703584,65.3816475 88.9564619,65.3210117 C89.0425653,65.2603758 89.1401478,65.2300584 89.2492121,65.2300584 L90.5924192,65.2300584 Z M97.0329251,72.4567121 L97.0329251,66.4951362 L94.4153933,66.4951362 C94.357991,67.3109639 94.280499,68.0385831 94.1829151,68.6780156 C94.0853312,69.3174481 93.9719634,69.8783212 93.8428082,70.3606518 C93.713653,70.8429823 93.5715845,71.2564023 93.4165983,71.6009241 C93.261612,71.945446 93.0980179,72.2307057 92.925811,72.4567121 L97.0329251,72.4567121 Z M100.261788,72.4071012 L100.261788,76.0038911 C100.261788,76.1582368 100.217302,76.2795067 100.128329,76.3677043 C100.039355,76.4559019 99.9231171,76.5 99.7796114,76.5 L98.7377648,76.5 L98.7377648,73.6308366 L91.5912142,73.6308366 L91.5912142,76.036965 C91.5912142,76.1582367 91.5539033,76.2657259 91.4792803,76.3594358 C91.4046573,76.4531457 91.2869844,76.5 91.1262579,76.5 L90.0585805,76.5 L90.0585805,72.4567121 L90.3427205,72.4567121 C90.5436285,72.4567121 90.7416635,72.4263946 90.9368313,72.3657588 C91.1319991,72.3051229 91.3199888,72.183853 91.5008061,72.0019455 C91.6816233,71.820038 91.8523926,71.5637176 92.013119,71.2329767 C92.1738455,70.9022357 92.3202191,70.4695228 92.4522444,69.9348249 C92.5842697,69.400127 92.6990726,68.7483015 92.7966565,67.9793288 C92.8942404,67.2103561 92.9717324,66.2939418 93.0291347,65.2300584 L98.6602721,65.2300584 L98.6602721,72.4071012 L100.261788,72.4071012 Z M113.762742,65.2300584 L108.906531,76.0700389 C108.854869,76.1913106 108.785988,76.2850191 108.699884,76.3511673 C108.613781,76.4173155 108.487498,76.4503891 108.321031,76.4503891 L107.072537,76.4503891 L108.674053,73.1016537 L105.083557,65.2300584 L106.547309,65.2300584 C106.690814,65.2300584 106.802747,65.263132 106.88311,65.3292802 C106.963474,65.3954283 107.020875,65.4698439 107.055316,65.5525292 L109.276774,70.5963035 C109.322696,70.7230875 109.367182,70.8512477 109.410234,70.9807879 C109.453286,71.1103281 109.489162,71.2384883 109.517863,71.3652724 C109.558044,71.232976 109.601096,71.1020597 109.647017,70.9725195 C109.692939,70.8429792 109.74173,70.7148191 109.793392,70.588035 L111.937358,65.5525292 C111.977539,65.4588192 112.040681,65.3816475 112.126784,65.3210117 C112.212888,65.2603758 112.31047,65.2300584 112.419535,65.2300584 L113.762742,65.2300584 Z M125.524414,66.80107 C125.472752,66.8617059 125.422526,66.9099382 125.373734,66.9457685 C125.324942,66.9815988 125.254625,66.9995136 125.162781,66.9995136 C125.070938,66.9995136 124.97479,66.965062 124.874336,66.8961576 C124.773882,66.8272532 124.647599,66.7528376 124.495483,66.6729086 C124.343367,66.5929795 124.159682,66.5185639 123.944424,66.4496595 C123.729165,66.3807552 123.463683,66.3463035 123.147971,66.3463035 C122.734674,66.3463035 122.370175,66.417963 122.054462,66.561284 C121.73875,66.7046051 121.476138,66.908559 121.26662,67.1731518 C121.057101,67.4377445 120.897812,67.7602121 120.788748,68.1405642 C120.679684,68.5209163 120.625152,68.948117 120.625152,69.422179 C120.625152,69.9127781 120.682554,70.3496252 120.797358,70.7327335 C120.912163,71.1158417 121.075757,71.4383093 121.288146,71.7001459 C121.500534,71.9619825 121.758841,72.1604241 122.063073,72.2954767 C122.367305,72.4305292 122.705973,72.4980545 123.079088,72.4980545 C123.440723,72.4980545 123.73921,72.4553344 123.97456,72.369893 C124.209909,72.2844516 124.405074,72.1921211 124.56006,72.0928988 C124.715046,71.9936765 124.8442,71.9013461 124.947524,71.8159047 C125.050848,71.7304633 125.157041,71.6877432 125.266105,71.6877432 C125.403871,71.6877432 125.510063,71.7373536 125.584686,71.8365759 L126.066863,72.4319066 C125.865955,72.6689376 125.640654,72.8701354 125.390954,73.0355058 C125.141254,73.2008763 124.875773,73.3359268 124.594501,73.4406615 C124.31323,73.5453961 124.019048,73.6225678 123.711946,73.672179 C123.404843,73.7217901 123.09344,73.7465953 122.777728,73.7465953 C122.232406,73.7465953 121.722968,73.6501307 121.249399,73.4571984 C120.77583,73.2642662 120.36541,72.9831406 120.018126,72.6138132 C119.670842,72.2444858 119.39675,71.7911019 119.195842,71.2536479 C118.994934,70.7161938 118.894482,70.1057103 118.894482,69.422179 C118.894482,68.7992835 118.984889,68.2232517 119.165706,67.6940661 C119.346523,67.1648806 119.61344,66.7087406 119.966464,66.3256323 C120.319488,65.942524 120.754304,65.6421055 121.270925,65.4243677 C121.787546,65.2066299 122.37878,65.0977626 123.044647,65.0977626 C123.670332,65.0977626 124.221386,65.1942273 124.697825,65.3871595 C125.174264,65.5800918 125.599035,65.8529489 125.97215,66.2057393 L125.524414,66.80107 Z M131.207213,65.0977626 C131.850119,65.0977626 132.431309,65.1983615 132.950799,65.3995623 C133.47029,65.600763 133.912281,65.890157 134.276786,66.2677529 C134.641291,66.6453488 134.921123,67.1001108 135.11629,67.6320525 C135.311458,68.1639942 135.409041,68.7606971 135.409041,69.422179 C135.409041,70.0836609 135.311458,70.6817418 135.11629,71.2164397 C134.921123,71.7511376 134.641291,72.2058996 134.276786,72.5807393 C133.912281,72.955579 133.47029,73.243595 132.950799,73.4447957 C132.431309,73.6459965 131.850119,73.7465953 131.207213,73.7465953 C130.558567,73.7465953 129.974508,73.6459965 129.455017,73.4447957 C128.935526,73.243595 128.4921,72.955579 128.124725,72.5807393 C127.757351,72.2058996 127.474648,71.7511376 127.276611,71.2164397 C127.078573,70.6817418 126.979555,70.0836609 126.979555,69.422179 C126.979555,68.7606971 127.078573,68.1639942 127.276611,67.6320525 C127.474648,67.1001108 127.757351,66.6453488 128.124725,66.2677529 C128.4921,65.890157 128.935526,65.600763 129.455017,65.3995623 C129.974508,65.1983615 130.558567,65.0977626 131.207213,65.0977626 Z M131.207213,72.489786 C132.033806,72.489786 132.650872,72.2224411 133.058428,71.6877432 C133.465985,71.1530453 133.66976,70.4006209 133.66976,69.4304475 C133.66976,68.460274 133.465985,67.7064716 133.058428,67.1690175 C132.650872,66.6315635 132.033806,66.3628405 131.207213,66.3628405 C130.36914,66.3628405 129.744899,66.6315635 129.334473,67.1690175 C128.924046,67.7064716 128.718836,68.460274 128.718836,69.4304475 C128.718836,70.4006209 128.924046,71.1530453 129.334473,71.6877432 C129.744899,72.2224411 130.36914,72.489786 131.207213,72.489786 Z M141.264046,72.5476654 C142.096379,72.5476654 142.72062,72.2954792 143.136787,71.7910992 C143.552953,71.2867193 143.761034,70.5715027 143.761034,69.645428 C143.761034,68.7248657 143.558693,68.0096491 143.154007,67.4997568 C142.749321,66.9898645 142.142301,66.7349222 141.332928,66.7349222 C140.936852,66.7349222 140.582399,66.794179 140.269556,66.9126946 C139.956714,67.0312101 139.689797,67.2062245 139.468798,67.4377432 C139.247799,67.6692619 139.0799,67.9545217 138.965095,68.2935311 C138.850291,68.6325406 138.792889,69.0225335 138.792889,69.4635214 C138.792889,70.4392072 138.999534,71.1971439 139.412831,71.7373541 C139.826128,72.2775643 140.443193,72.5476654 141.264046,72.5476654 Z M141.858157,63.3779183 C141.289874,63.4220171 140.800527,63.5391527 140.3901,63.7293288 C139.979674,63.9195048 139.641005,64.1772033 139.374085,64.5024319 C139.107164,64.8276605 138.904824,65.2148972 138.767058,65.6641537 C138.629293,66.1134102 138.548931,66.6191606 138.52597,67.1814202 C138.669476,66.9333645 138.848855,66.7073616 139.064114,66.5034047 C139.279372,66.2994477 139.524764,66.1244333 139.800295,65.978356 C140.075826,65.8322788 140.377183,65.7206554 140.704376,65.6434825 C141.031569,65.5663096 141.375978,65.5277237 141.737613,65.5277237 C142.323116,65.5277237 142.848339,65.6269445 143.313298,65.8253891 C143.778256,66.0238337 144.172891,66.3022031 144.497214,66.6605058 C144.821537,67.0188085 145.069799,67.4501434 145.242005,67.9545233 C145.414212,68.4589033 145.500314,69.0197764 145.500314,69.6371595 C145.500314,70.2655673 145.399862,70.8319527 145.198954,71.3363327 C144.998046,71.8407126 144.712474,72.2720475 144.342229,72.6303502 C143.971984,72.9886529 143.525688,73.2642662 143.003327,73.4571984 C142.480966,73.6501307 141.901211,73.7465953 141.264046,73.7465953 C140.661322,73.7465953 140.103093,73.6515087 139.589342,73.4613327 C139.075592,73.2711566 138.629295,72.9583355 138.25044,72.5228599 C137.871585,72.0873843 137.574533,71.5168647 137.359274,70.811284 C137.144015,70.1057033 137.036388,69.2375214 137.036388,68.2067121 C137.036388,67.3302485 137.11962,66.5227015 137.286086,65.7840467 C137.452553,65.0453919 137.720905,64.4004567 138.09115,63.8492218 C138.461395,63.2979869 138.945002,62.8542494 139.541986,62.5179961 C140.138969,62.1817428 140.865098,61.9805451 141.720392,61.9143969 L144.837321,61.6663424 L144.932035,62.5097276 C144.954995,62.6916352 144.92773,62.8459786 144.850237,62.9727626 C144.772744,63.0995467 144.639285,63.16845 144.449858,63.1794747 L141.858157,63.3779183 Z M152.078585,69.901751 C151.395498,69.9238004 150.815743,69.9747888 150.339304,70.0547179 C149.862865,70.134647 149.475405,70.2407581 149.176913,70.3730545 C148.878421,70.5053509 148.663166,70.6610724 148.531141,70.8402237 C148.399115,71.0193751 148.333104,71.2191947 148.333104,71.4396887 C148.333104,71.649158 148.36898,71.8296847 148.440733,71.9812743 C148.512485,72.1328639 148.610068,72.2568899 148.733483,72.353356 C148.856898,72.4498221 149.001836,72.5201035 149.168303,72.5642023 C149.33477,72.6083011 149.515584,72.6303502 149.710752,72.6303502 C149.969062,72.6303502 150.205843,72.605545 150.421102,72.5559339 C150.636361,72.5063227 150.838701,72.4360413 151.028128,72.3450875 C151.217556,72.2541338 151.39837,72.1425104 151.570577,72.010214 C151.742784,71.8779176 151.912118,71.7263303 152.078585,71.5554475 L152.078585,69.901751 Z M147.153492,66.4041829 C147.641412,65.9576826 148.17094,65.6241905 148.742093,65.4036965 C149.313246,65.1832025 149.940357,65.0729572 150.623444,65.0729572 C151.122844,65.0729572 151.564835,65.151507 151.949431,65.3086089 C152.334026,65.4657109 152.658344,65.6848235 152.922395,65.9659533 C153.186445,66.2470831 153.385915,66.5833314 153.520811,66.9747082 C153.655706,67.366085 153.723153,67.7987979 153.723153,68.2728599 L153.723153,73.6308366 L152.974057,73.6308366 C152.80759,73.6308366 152.681307,73.6046533 152.595203,73.552286 C152.5091,73.4999187 152.440218,73.4020759 152.388556,73.2587549 L152.20774,72.5228599 C151.983871,72.7213045 151.762875,72.896319 151.544746,73.0479086 C151.326618,73.1994982 151.098447,73.3290364 150.860227,73.4365272 C150.622008,73.544018 150.368007,73.625324 150.098216,73.6804475 C149.828425,73.735571 149.529937,73.7631323 149.202744,73.7631323 C148.858331,73.7631323 148.535447,73.7176561 148.234085,73.6267023 C147.932723,73.5357486 147.670112,73.3965638 147.446243,73.209144 C147.222374,73.0217241 147.045864,72.7874528 146.916709,72.506323 C146.787554,72.2251931 146.722977,71.8972133 146.722977,71.5223735 C146.722977,71.1916326 146.816255,70.8732992 147.002812,70.5673638 C147.18937,70.2614284 147.493597,69.9871932 147.915504,69.7446498 C148.337411,69.5021064 148.888465,69.3036648 149.568682,69.1493191 C150.248899,68.9949733 151.085525,68.906777 152.078585,68.8847276 L152.078585,68.2728599 C152.078585,67.6389398 151.937952,67.1648848 151.65668,66.8506809 C151.375409,66.536477 150.962119,66.3793774 150.416797,66.3793774 C150.049422,66.3793774 149.740889,66.4234756 149.491189,66.5116732 C149.241489,66.5998707 149.026234,66.6977135 148.845417,66.8052043 C148.6646,66.9126951 148.506746,67.0105378 148.37185,67.0987354 C148.236955,67.186933 148.097756,67.2310311 147.954251,67.2310311 C147.839446,67.2310311 147.740428,67.2007137 147.657195,67.1400778 C147.573962,67.079442 147.506515,67.0077825 147.454853,66.9250973 L147.153492,66.4041829 Z M161.265777,65.6682879 C161.351881,65.5415039 161.466684,65.4367708 161.610189,65.3540856 C161.753695,65.2714004 161.905809,65.2300584 162.066535,65.2300584 L163.383912,65.2300584 L161.171064,68.4051556 C161.033298,68.6146249 160.889795,68.7855052 160.740549,68.9178016 C160.591303,69.0500979 160.407618,69.1520749 160.18949,69.2237354 C160.465021,69.3009083 160.697496,69.4152878 160.886924,69.5668774 C161.076352,69.718467 161.245686,69.9155306 161.394932,70.1580739 L163.625,73.6308366 L162.462609,73.6308366 C162.158377,73.6308366 161.924466,73.5826042 161.76087,73.4861381 C161.597273,73.389672 161.458075,73.2504873 161.34327,73.0685798 L159.741754,70.5301556 C159.609729,70.3206864 159.444699,70.1635868 159.246661,70.0588521 C159.048624,69.9541175 158.820453,69.901751 158.562142,69.901751 L157.658061,69.901751 L157.658061,73.6391051 L155.979052,73.6391051 L155.979052,65.2300584 L157.658061,65.2300584 L157.658061,68.8185798 L158.450209,68.8185798 C158.691298,68.8185798 158.896508,68.7717255 159.065845,68.6780156 C159.235182,68.5843056 159.380121,68.446499 159.500665,68.2645914 L161.265777,65.6682879 Z" id="Снимает-зуд-у-собак" fill="#007798"></path>
                    </g>
                </g>
            </g>
        </g>
    </g>
</svg>