<?xml version="1.0" encoding="UTF-8"?>
<svg width="29px" height="38px" viewBox="0 0 29 38" version="1.1" xmlns="http://www.w3.org/2000/svg" xmlns:xlink="http://www.w3.org/1999/xlink">
    <!-- Generator: sketchtool 52.4 (67378) - http://www.bohemiancoding.com/sketch -->
    <title>AC861E67-4802-4FA0-B29D-F14F9B3E2662</title>
    <desc>Created with sketchtool.</desc>
    <g id="Page-1" stroke="none" stroke-width="1" fill="none" fill-rule="evenodd">
        <g id="комп_где-купить_карта_1280-" transform="translate(-893.000000, -831.000000)">
            <g id="Group-8-Copy" transform="translate(895.000000, 833.000000)">
                <g id="Group-17-Copy-3" fill="#FFFFFF" stroke="#D41247" stroke-linecap="round" stroke-width="3">
                    <path d="M12.6285714,33.0748299 C17.6696641,28.4138524 25.2571429,19.9174325 25.2571429,12.8310431 C25.2571429,5.74465366 19.6031388,0 12.6285714,0 C5.65400402,0 0,5.74465366 0,12.8310431 C0,19.9174325 7.21632653,28.4138524 12.6285714,33.0748299 Z" id="Oval-Copy-2"></path>
                </g>
                <path d="M18.0214823,17.7347723 C17.9881085,19.7344374 16.9147366,20.4578164 15.7746173,20.3910707 C14.6344979,20.324325 13.8416459,19.7993791 13.032558,19.7993791 L12.9991842,19.8183205 C12.1873904,19.8183205 11.3972443,20.3595018 10.2571249,20.4280514 C9.11700556,20.4966011 8.04273168,19.8074968 8.01025993,17.8078318 C8.07610543,15.9723251 9.48592077,15.8379317 10.6864737,13.6686965 C11.7436097,11.7592283 12.9991842,11.914367 12.9991842,11.914367 L13.0361659,11.914367 C13.0361659,11.914367 14.2989564,11.768248 15.3488765,13.6686965 C16.5404095,15.8406376 17.9556368,15.8992656 18.0214823,17.7347723 Z M10.9633856,11.0899674 C11.973618,11.014202 12.7051344,9.81368138 12.5977973,8.4093158 C12.4904601,7.00495022 11.5848589,5.92799935 10.5746265,6.00376474 C9.56439418,6.07953012 8.8337797,7.28005073 8.94111689,8.68441632 C9.04845408,10.0887819 9.95405524,11.1666347 10.9615816,11.0899674 L10.9633856,11.0899674 Z M14.7905427,11.1143205 C15.7773232,11.3849112 16.8831669,10.4829423 17.2602,9.11285155 C17.6372332,7.74276078 17.1429409,6.40694484 16.1561604,6.14447189 C15.1693798,5.88199893 14.0635362,6.77585012 13.686503,8.14594088 C13.3094699,9.51603165 13.8037621,10.8482397 14.7905427,11.1143205 Z M19.3618441,10.0157224 C18.5022446,9.78301444 17.5398179,10.5641195 17.2114924,11.7592283 C16.8831669,12.9543371 17.3134176,14.1115632 18.1721151,14.3442712 C19.0308126,14.5769792 19.9941414,13.7958741 20.3224669,12.6007653 C20.6507924,11.4056565 20.2205417,10.2484304 19.3618441,10.0157224 Z M9.22163677,11.7592283 C8.89331125,10.5641195 7.93088453,9.78301444 7.07128502,10.0157224 C6.21168552,10.2484304 5.78143477,11.4056565 6.11066228,12.6007653 C6.43988979,13.7958741 7.40141453,14.5760772 8.26101403,14.3442712 C9.12061353,14.1124652 9.54996229,12.9543371 9.22163677,11.7592283 Z" id="Forma_1_copy_2-Copy" fill="#D41247"></path>
            </g>
        </g>
    </g>
</svg>