<?xml version="1.0" encoding="UTF-8"?>
<svg width="30px" height="38px" viewBox="0 0 30 38" version="1.1" xmlns="http://www.w3.org/2000/svg" xmlns:xlink="http://www.w3.org/1999/xlink">
    <!-- Generator: sketchtool 52.4 (67378) - http://www.bohemiancoding.com/sketch -->
    <title>61B7B0F6-1B9A-4611-B8C3-8271FB5F77E8</title>
    <desc>Created with sketchtool.</desc>
    <g id="Page-1" stroke="none" stroke-width="1" fill="none" fill-rule="evenodd">
        <g id="комп_где-купить_карта_1280-" transform="translate(-861.000000, -741.000000)">
            <g id="Group-23-Copy" transform="translate(863.000000, 743.000000)">
                <g id="Group-21" fill="#FFFFFF" stroke="#B13B5F" stroke-linecap="round" stroke-width="3">
                    <path d="M13,33.8679894 C18.1893601,29.0952381 26,20.3950676 26,13.1387412 C26,5.8824148 20.1797017,9.59232693e-14 13,9.59232693e-14 C5.82029825,9.59232693e-14 -2.84217094e-14,5.8824148 -2.84217094e-14,13.1387412 C-2.84217094e-14,20.3950676 7.42857143,29.0952381 13,33.8679894 Z" id="Oval-Copy"></path>
                </g>
                <g id="sami-logo-2" transform="translate(3.095238, 10.523810)">
                    <path d="M19.8095238,4.63157378 C19.6656703,4.71489466 19.5381685,4.75652399 19.4269304,4.75652399 L19.3679414,4.75652399 C19.2848059,4.75652399 19.2258168,4.50662356 19.1909744,4.00682272 L19.1606447,4.00682272 C18.9774945,4.3186071 18.8010842,4.54769286 18.6314139,4.69404888 L18.5420952,4.69404888 L18.2774799,4.63157378 C18.4145641,3.88545052 18.4831062,3.41716725 18.4831062,3.22675507 C18.6010842,3.14461649 18.7095092,3.10357831 18.8084103,3.10357831 L18.8370403,3.10357831 L18.8673993,3.22675507 L18.8370403,3.22675507 L18.8673993,3.28923018 C18.8673993,3.33683322 18.8572601,3.37849366 18.8370403,3.41418039 L18.8673993,3.47665549 C18.8471502,3.67540598 18.8274872,3.79021332 18.8084103,3.82117085 L18.8673993,3.82117085 L19.1319853,3.41418039 C19.2342271,3.14405645 19.3522051,3.00896337 19.4859487,3.00896337 C19.6128645,2.96733404 19.7010696,2.94648827 19.7505348,2.94648827 L19.8095238,3.0411032 L19.8095238,3.10357831 C19.7364689,3.1987844 19.6775092,3.46893944 19.6325568,3.91398123 C19.6718828,4.19365689 19.7308718,4.4328544 19.8095238,4.63157378 Z M19.7325568,3.1411032 L19.7325568,3.0411032 L19.6325568,3.0411032 C19.6439825,3.10783627 19.6773158,3.1411032 19.7325568,3.1411032 Z M17.8645568,4.75652399 C17.8196044,4.75058138 17.7589451,4.65363296 17.6825201,4.46555427 L17.7128498,4.46555427 C17.6724103,4.3775042 17.6521905,4.3126645 17.6521905,4.27100406 L17.6825201,4.27100406 C17.6623297,4.23889534 17.6521905,4.17402452 17.6521905,4.07645384 L17.6201905,4.07645384 C17.4853626,4.46555427 17.3735385,4.6601356 17.2847766,4.6601356 C17.2106374,4.6601356 17.1089231,4.48761346 16.9797216,4.14250695 L16.919033,4.14250695 C16.919033,4.39595427 16.8476777,4.58994445 16.7049963,4.72441527 L16.6123077,4.72441527 C16.395956,4.69803136 16.2758388,4.63546291 16.2514579,4.53692772 C16.1058462,4.68328375 15.9862271,4.75652399 15.8926593,4.75652399 L15.8623004,4.75652399 C15.8218315,4.75652399 15.801641,4.70297834 15.801641,4.59588705 L15.7713114,4.59588705 L15.5302857,4.72441527 C15.2280147,4.6601356 15.0768938,4.44713532 15.0768938,4.08535219 C15.1645421,3.94254306 15.2752234,3.83607403 15.4089377,3.76582065 L15.5606154,3.76582065 C15.7032967,3.8086945 15.7836484,3.83010031 15.801641,3.83010031 L15.801641,3.66943226 C15.801641,3.64802645 15.8117509,3.63729243 15.8319707,3.63729243 C15.7903883,3.50997762 15.7499487,3.44628911 15.7106227,3.44628911 C15.5926447,3.58555134 15.4920733,3.65994277 15.4089377,3.66943226 L15.4089377,3.63729243 L15.3482491,3.66943226 C15.2280147,3.66943226 15.1679121,3.60580597 15.1679121,3.47842894 C15.2825201,3.15833736 15.4330842,2.99826046 15.6196044,2.99826046 C15.6196044,2.95541773 15.660044,2.93401191 15.7409524,2.93401191 C16.0431941,2.93401191 16.1943443,3.12560638 16.1943443,3.50876421 L16.1943443,3.54090405 C16.1943443,3.58975161 16.1842051,3.63256324 16.1640147,3.66943226 C16.1640147,3.69086919 16.1740952,3.7015721 16.1943443,3.7015721 L16.1640147,3.92468414 L16.1640147,4.05321235 C16.213978,4.26391027 16.2433114,4.40948847 16.2521319,4.49025807 C16.4204249,4.27187522 16.5613187,3.91871042 16.6746374,3.43023475 C16.6746374,3.12797098 16.7049963,2.97685465 16.7656557,2.97685465 L16.9797216,2.97685465 C17.1021832,3.00778107 17.1634286,3.12675757 17.1634286,3.33384636 C17.1634286,3.39097002 17.2038681,3.57425729 17.2847766,3.88364596 C17.3252161,3.88364596 17.4066813,3.57067928 17.5291722,2.94471482 L17.5898608,2.91257499 L17.7735385,2.91257499 L17.9572454,3.04290776 C17.9572454,3.06549587 17.9471648,3.09763571 17.9269158,3.13929615 C17.9269158,3.65222672 18.0387106,4.07287583 18.2623297,4.40130572 L18.2623297,4.43344555 C18.2623297,4.58695759 18.1403956,4.69467114 17.8965861,4.75652399 L17.8645568,4.75652399 Z M15.5909744,4.05321235 C15.4695971,4.07464928 15.4089377,4.10678911 15.4089377,4.14960074 C15.4089377,4.27694666 15.4695971,4.34060406 15.5909744,4.34060406 L15.6196044,4.34060406 C15.6487912,4.34060406 15.6791502,4.30849534 15.7106227,4.24421568 C15.7106227,4.1383378 15.6707399,4.07464928 15.5909744,4.05321235 Z M15.2875897,3.41418039 L15.2875897,3.44628911 L15.3542349,3.44628911 L15.3875897,3.31776089 C15.3554584,3.31776089 15.3221358,3.34990072 15.2875897,3.41418039 Z M16.081978,3.17503945 L15.981978,3.12501523 L15.981978,3.17503945 L16.081978,3.22501523 L16.081978,3.17503945 Z M17.1100513,3.14050041 L17.0100513,3.10715632 C17.0434168,3.15037775 17.0600271,3.18368956 17.0600271,3.20715632 L17.1100513,3.20715632 L17.1100513,3.14050041 Z M17.9342271,3.10715632 L17.8342271,3.10715632 L17.8342271,3.20715632 L17.9342271,3.20715632 L17.9342271,3.10715632 Z M18.1089524,4.52983394 L18.1603152,4.52983394 L18.2089524,4.40130572 L18.1089524,4.40130572 L18.1089524,4.52983394 Z M14.4263443,4.75652399 L14.2476777,4.75652399 C14.0386813,4.75652399 13.8392381,4.62980033 13.6493773,4.3763219 C13.5695824,4.17284223 13.5296996,4.00386698 13.5296996,3.86936505 C13.5296996,3.43739076 13.6993407,3.15239476 14.0386813,3.01434594 L14.2780073,2.95183972 C14.6027253,2.95183972 14.8319414,3.05715756 14.9656557,3.26782436 L14.9959853,3.48916296 L14.9959853,3.52130279 C14.9611722,3.77478122 14.9111502,3.90150488 14.8460073,3.90150488 L14.696,3.90150488 C14.5970989,3.84556352 14.5471062,3.80331193 14.5459927,3.77478122 C14.5662418,3.65816932 14.5763223,3.57366614 14.5763223,3.52130279 C14.5763223,3.4153938 14.5263297,3.36240819 14.4263443,3.36240819 C14.2476777,3.36240819 14.1381099,3.54211746 14.0976703,3.90150488 C14.181978,4.19664375 14.3117363,4.34418207 14.4870037,4.34418207 L14.6066813,4.34418207 L14.8460073,4.15498331 L14.9049963,4.15498331 C15.0038681,4.20971125 15.0538608,4.25199395 15.0549744,4.28170696 L15.0549744,4.34418207 C14.8864762,4.61909742 14.6768645,4.75652399 14.4263443,4.75652399 Z M14.732337,3.24106959 L14.7656703,3.24106959 L14.7656703,3.14106959 L14.6656703,3.14106959 C14.6730777,3.20775286 14.6953322,3.24106959 14.732337,3.24106959 Z M13.9476923,3.5837779 L13.9476923,3.71050156 L13.9810256,3.71050156 C13.9810256,3.67836172 14.0032479,3.63614125 14.0476923,3.5837779 L13.9476923,3.5837779 Z M14.8156484,4.34959824 L14.9049963,4.34959824 L14.935326,4.24959824 L14.9049963,4.24959824 C14.8667839,4.28291543 14.837011,4.29957403 14.8156484,4.29957403 L14.8156484,4.34959824 Z M12.7055531,4.75652399 C12.6100513,4.75652399 12.5285861,4.62743573 12.4611575,4.36916589 C12.69937,4.17523793 12.8313553,4.07822729 12.8572308,4.07822729 L12.8572308,4.04608745 C12.8560879,4.02465053 12.6426081,3.87412535 12.2167619,3.5944808 C12.115663,3.50163931 12.0651136,3.41595384 12.0651136,3.33742437 C12.3066667,3.07921675 12.4487912,2.95006627 12.4914872,2.95006627 C12.5701392,3.17498287 12.7527326,3.40052174 13.0392674,3.62658952 L13.0695971,3.62658952 C13.1594725,3.21844787 13.2105788,3.01434594 13.2229451,3.01434594 C13.3555165,3.01434594 13.456674,3.05715756 13.5263297,3.14284304 C13.5263297,3.56651013 13.363956,4.00741387 13.0392674,4.46555427 C12.9313993,4.5952959 12.8201319,4.69227543 12.7055531,4.75652399 Z M12.4034618,3.11070321 L12.3701392,3.21070321 L12.4701392,3.21070321 C12.4701392,3.14405268 12.4479241,3.11070321 12.4034618,3.11070321 Z M13.4109704,3.27498287 L13.444293,3.27498287 C13.444293,3.20834762 13.4221102,3.17498287 13.3776478,3.17498287 L13.344293,3.17498287 C13.3517303,3.24166525 13.3739453,3.27498287 13.4109704,3.27498287 Z M10.5364103,4.75652399 L10.3577729,4.75652399 C10.1487766,4.75652399 9.94933333,4.62980033 9.75947253,4.3763219 C9.67967766,4.17284223 9.63979487,4.00386698 9.63979487,3.86936505 C9.63979487,3.43739076 9.8094359,3.15239476 10.1487766,3.01434594 L10.3881026,2.95183972 C10.7128205,2.95183972 10.9420366,3.05715756 11.0757509,3.26782436 L11.1060806,3.48916296 L11.1060806,3.52130279 C11.0712674,3.77478122 11.0212454,3.90150488 10.9560733,3.90150488 L10.8060952,3.90150488 C10.7071941,3.84556352 10.6572015,3.80331193 10.6560879,3.77478122 C10.6763077,3.65816932 10.6864176,3.57366614 10.6864176,3.52130279 C10.6864176,3.4153938 10.6364249,3.36240819 10.5364103,3.36240819 C10.3577729,3.36240819 10.2482051,3.54211746 10.2077656,3.90150488 C10.2920733,4.19664375 10.4218315,4.34418207 10.5970989,4.34418207 L10.7167766,4.34418207 L10.9560733,4.15498331 L11.0150623,4.15498331 C11.1139634,4.20971125 11.163956,4.25199395 11.1650696,4.28170696 L11.1650696,4.34418207 C10.9965421,4.61909742 10.7869597,4.75652399 10.5364103,4.75652399 Z M10.8424137,3.24106959 L10.8757363,3.24106959 L10.8757363,3.14106959 L10.7757363,3.14106959 C10.7831735,3.20775286 10.8053885,3.24106959 10.8424137,3.24106959 Z M10.0577582,3.5837779 L10.0577582,3.71050156 L10.091113,3.71050156 C10.091113,3.67836172 10.1133281,3.63614125 10.1577582,3.5837779 L10.0577582,3.5837779 Z M10.9257436,4.34959824 L11.0150623,4.34959824 L11.0454212,4.24959824 L11.0150623,4.24959824 C10.9768791,4.28291543 10.9471062,4.29957403 10.9257436,4.29957403 L10.9257436,4.34959824 Z M8.38584615,4.75652399 L8.32685714,4.75652399 C8.24372161,4.75652399 8.1847326,4.50662356 8.14989011,4.00682272 L8.11956044,4.00682272 C7.93641026,4.3186071 7.76,4.54769286 7.59032967,4.69404888 L7.50101099,4.69404888 L7.23642491,4.63157378 C7.37347985,3.88545052 7.44202198,3.41716725 7.44202198,3.22675507 C7.56,3.14461649 7.66842491,3.10357831 7.76732601,3.10357831 L7.79598535,3.10357831 L7.82631502,3.22675507 L7.79598535,3.22675507 L7.82631502,3.28923018 C7.82631502,3.33683322 7.81617582,3.37849366 7.79598535,3.41418039 L7.82631502,3.47665549 C7.80606593,3.67540598 7.78640293,3.79021332 7.76732601,3.82117085 L7.82631502,3.82117085 L8.0909011,3.41418039 C8.19314286,3.14405645 8.31112088,3.00896337 8.44486447,3.00896337 C8.57178022,2.96733404 8.65998535,2.94648827 8.70945055,2.94648827 L8.76843956,3.0411032 L8.76843956,3.10357831 C8.69541392,3.1987844 8.63642491,3.46893944 8.59147253,3.91398123 C8.63079853,4.19365689 8.68978755,4.4328544 8.76843956,4.63157378 C8.62458608,4.71489466 8.49708425,4.75652399 8.38584615,4.75652399 Z M8.69147253,3.1411032 L8.69147253,3.0411032 L8.59147253,3.0411032 C8.60289826,3.10783627 8.63623159,3.1411032 8.69147253,3.1411032 Z M6.82347253,4.75652399 C6.77854945,4.75058138 6.71786081,4.65363296 6.6414359,4.46555427 L6.67179487,4.46555427 C6.63135531,4.3775042 6.61110623,4.3126645 6.61110623,4.27100406 L6.6414359,4.27100406 C6.62124542,4.23889534 6.61110623,4.17402452 6.61110623,4.07645384 L6.57910623,4.07645384 C6.44427839,4.46555427 6.33245421,4.6601356 6.24372161,4.6601356 C6.16955311,4.6601356 6.06783883,4.48761346 5.93863736,4.14250695 L5.87797802,4.14250695 C5.87797802,4.39595427 5.80662271,4.58994445 5.66391209,4.72441527 L5.57122344,4.72441527 C5.32738462,4.69467114 5.20547985,4.61909742 5.20547985,4.49769411 C5.37626374,4.27993352 5.51897436,3.9241241 5.63358242,3.43023475 C5.63358242,3.12797098 5.66391209,2.97685465 5.72460073,2.97685465 L5.93863736,2.97685465 C6.0610989,3.00778107 6.12234432,3.12675757 6.12234432,3.33384636 C6.12234432,3.39097002 6.16278388,3.57425729 6.24372161,3.88364596 C6.28416117,3.88364596 6.36559707,3.57067928 6.48808791,2.94471482 L6.54877656,2.91257499 L6.73245421,2.91257499 L6.91619048,3.04290776 C6.91619048,3.06549587 6.90608059,3.09763571 6.8858315,3.13929615 C6.8858315,3.65222672 6.99762637,4.07287583 7.22124542,4.40130572 L7.22124542,4.43344555 C7.22124542,4.58695759 7.09931136,4.69467114 6.85550183,4.75652399 L6.82347253,4.75652399 Z M6.06896703,3.14050041 L5.96896703,3.10715632 C6.00233256,3.15037775 6.01899118,3.18368956 6.01899118,3.20715632 L6.06896703,3.20715632 L6.06896703,3.14050041 Z M6.89314286,3.10715632 L6.79314286,3.10715632 L6.79314286,3.20715632 L6.89314286,3.20715632 L6.89314286,3.10715632 Z M7.06786813,4.52983394 L7.11923091,4.52983394 L7.16786813,4.40130572 L7.06786813,4.40130572 L7.06786813,4.52983394 Z M5.14482051,3.71047044 L5.11449084,3.9336136 L5.11449084,4.06214181 C5.17515018,4.31801595 5.20550916,4.47806174 5.20550916,4.54231029 C5.05825641,4.69109314 4.93749451,4.76545345 4.84313553,4.76545345 L4.81280586,4.76545345 C4.772337,4.76545345 4.75211722,4.71187669 4.75211722,4.6047854 L4.72178755,4.6047854 L4.4807619,4.73331361 C4.17849084,4.66906506 4.02739927,4.45603366 4.02739927,4.09425053 C4.11501832,3.95147252 4.22569963,3.84497237 4.35941392,3.77475011 L4.51109158,3.77475011 C4.65377289,3.81759285 4.73412454,3.83899866 4.75211722,3.83899866 L4.75211722,3.67833061 C4.75211722,3.65695591 4.76222711,3.64622189 4.78244689,3.64622189 C4.74086447,3.51890708 4.70042491,3.45521857 4.6610989,3.45521857 C4.54312088,3.5944808 4.44254945,3.66884111 4.35941392,3.67833061 L4.35941392,3.64622189 L4.29872527,3.67833061 C4.17849084,3.67833061 4.11838828,3.61470432 4.11838828,3.48732729 C4.23299634,3.16723571 4.38356044,3.00718992 4.57008059,3.00718992 C4.57008059,2.96431607 4.61052015,2.94291026 4.69142857,2.94291026 C4.99367033,2.94291026 5.14482051,3.13453584 5.14482051,3.51769367 L5.14482051,3.54980239 C5.14482051,3.59864996 5.13468132,3.6414927 5.11449084,3.67833061 C5.11449084,3.69976754 5.12457143,3.71047044 5.14482051,3.71047044 Z M4.54145055,4.06214181 C4.42010256,4.08354763 4.35941392,4.11568746 4.35941392,4.1585302 C4.35941392,4.28587612 4.42010256,4.34953352 4.54145055,4.34953352 L4.57008059,4.34953352 C4.5992967,4.34953352 4.62962637,4.31739369 4.6610989,4.25314514 C4.6610989,4.14723614 4.62121612,4.08354763 4.54145055,4.06214181 Z M4.23806593,3.42307874 L4.23806593,3.45521857 L4.30471114,3.45521857 L4.33806593,3.32669035 C4.30596677,3.32669035 4.27261197,3.35879907 4.23806593,3.42307874 Z M5.03245421,3.18391358 L4.93245421,3.13391358 L4.93245421,3.18391358 L5.03245421,3.23391358 L5.03245421,3.18391358 Z M2.46593407,4.95238095 C1.06297436,4.95238095 0,3.8799435 0,2.4874767 C0,1.18844253 0.942241758,0.11227151 2.184,0.000513253774 C2.2414359,-0.00477597327 2.29506227,0.0312529968 2.31528205,0.0883455358 L2.39355311,0.309061869 C2.42285714,0.391636037 2.37098901,0.482268498 2.2880293,0.491571315 C1.9920293,0.524177844 1.67668864,0.635593856 1.36164103,0.8736713 C0.0867692308,1.83655953 0.783970696,3.47858451 1.02224176,3.74024568 C1.2443956,3.98392348 2.10019048,4.97347563 3.64703297,4.09288156 C3.68600733,4.07082237 3.73230769,4.08852572 3.74725275,4.13105733 L3.81406593,4.31913602 C3.85131136,4.42470277 3.81289377,4.54420819 3.7214652,4.60161186 C3.38736996,4.81081635 2.97207326,4.95238095 2.46593407,4.95238095 Z M0.615472527,3.64525738 C0.615472527,3.64525738 0.344380952,3.33673988 0.25643956,2.85093993 C0.25643956,2.85093993 0.271091575,3.4351195 0.615472527,3.64525738 Z M1.20102564,0.805689175 C1.1752381,0.820592351 0.261714286,1.3529375 0.453684982,2.50265989 C0.447238095,2.42755287 0.377201465,1.43271149 1.20102564,0.805689175 Z" id="Shape" fill="#C02355"></path>
                    <path d="M3.71428571,3.87332817 C3.38150078,4.15886544 2.93710225,4.33332605 2.44943107,4.33332605 L2.44369454,4.33332605 C2.42087983,4.33340394 2.3980676,4.33285694 2.37528727,4.33168574 C2.3511178,4.33129901 2.32697221,4.33007051 2.30290091,4.32800279 C2.29451166,4.3275695 2.28658663,4.32676482 2.27862844,4.32592919 C2.25912395,4.32484509 2.23968322,4.32292421 2.22036786,4.32017264 C2.20177377,4.31826329 2.18323231,4.31593109 2.16476002,4.31317813 C2.15152953,4.31110453 2.13873011,4.30946422 2.12593069,4.30742158 C2.06242679,4.29712673 1.99952988,4.2838011 1.93748741,4.26749711 C1.9104646,4.26072353 1.88367051,4.2531787 1.85714286,4.24487325 L1.85760708,4.24403762 L2.42956875,2.95203253 C2.51959576,3.03723566 2.69348219,3.17093619 2.9216501,3.20922034 C2.97744325,3.21842243 3.03400492,3.222959 3.09066214,3.22277609 C3.26633916,3.22277609 3.40534219,3.18040664 3.45080334,3.16517964 C3.46492913,3.18904146 3.55585144,3.34004259 3.59468077,3.42153182 C3.64279465,3.52193101 3.69618083,3.70586207 3.69926463,3.71737517 L3.62601614,3.68899476 C3.62601614,3.68899476 3.67366579,3.78815598 3.71428571,3.87332817 Z M3.51039028,2.9051445 C3.44065665,2.92324978 3.41283615,2.95410613 3.41021658,3.0088243 C3.41021658,3.01953272 3.41064765,3.03228379 3.41240508,3.04627283 C3.38727047,3.05490765 3.17850065,3.1260908 2.94549151,3.08700197 C2.71377557,3.04791314 2.54164658,2.88539891 2.48560767,2.82572886 L2.91412298,1.85714286 L3.05140174,2.18508053 C3.07918908,2.18919677 3.26279113,2.21797952 3.3550398,2.25870866 C3.45478244,2.30234703 3.43843499,2.43196226 3.48830631,2.46569688 C3.53817763,2.4994315 3.58231242,2.50970663 3.60748019,2.5224577 C3.63218373,2.53523972 3.66574076,2.64671872 3.66000423,2.72161577 C3.65469877,2.79691516 3.57965969,2.88660593 3.51039028,2.9051445 Z" id="Shape" fill="#30559A"></path>
                    <path d="M2.20569734,2.0680548 C2.16124241,2.09275839 2.0756414,2.13212793 1.97566831,2.13519418 C1.88673317,2.13750833 1.79244324,2.08347285 1.73492967,2.04257019 C1.75364621,2.02287096 1.76837191,2.00667188 1.77504015,1.99585322 C1.78910912,1.97346378 1.77271637,1.94528896 1.73995611,1.91404789 C1.64399912,1.82177102 1.4079333,1.70522447 1.38317999,1.64653175 C1.35009137,1.56779268 1.35175843,1.24974122 1.41662222,1.22003327 C1.4363491,1.21115271 1.46946298,1.20768148 1.50790639,1.20768148 C1.59785186,1.20768148 1.71654149,1.2254426 1.75867265,1.23160404 C1.76066807,1.23160404 1.76268875,1.23200901 1.76503779,1.23200901 C1.81484752,1.23200901 1.86400054,1.15286497 1.93219845,1.14245128 C2.01312664,1.12972343 2.06058734,1.14438938 2.08200653,1.11659061 C2.11810091,1.06949759 2.09905601,1.04207487 2.09905601,0.951012932 C2.09905601,0.888848985 2.10974035,0.835970578 2.12512277,0.791972736 C2.16624359,0.674645156 2.24181698,0.619047619 2.24181698,0.619047619 L2.47619048,1.31190516 L2.20569734,2.0680548 Z M1.39957274,2.74196521 C1.4025785,2.73348963 1.45140316,2.59724384 1.47315071,2.55284102 C1.49588335,2.50728113 1.59719514,2.35252212 1.59719514,2.35252212 L1.54768851,2.35058401 L1.51427153,2.34905089 C1.51427153,2.34905089 1.56208585,2.25486484 1.63061212,2.16183587 L1.64968228,2.11861906 C1.65235968,2.12052823 1.6556938,2.12324736 1.65902792,2.12593757 C1.72156793,2.17340664 1.84392004,2.25217464 1.96897481,2.25217464 C1.97198057,2.25217464 1.97533995,2.25176966 1.97834571,2.25176966 C2.04353786,2.24983156 2.10304685,2.23478956 2.15252823,2.21702843 L2.12946723,2.28150653 L1.61725038,3.71428571 C1.47746992,3.6424891 1.34976301,3.54483183 1.23809524,3.42747532 L1.50020255,2.69371512 L1.39957274,2.74196521 Z" id="Shape" fill="#A3CD3A"></path>
                    <path d="M1.53115752,2.56991665 L1.4115749,2.76138341 L1.49919772,2.76399017 C1.48805135,2.77930491 1.47924435,2.79240389 1.47322393,2.80247251 C1.43940641,2.85884377 1.37545241,3.00309553 1.36292995,3.03150925 L1.23316423,3.32701845 L1.35178359,3.28022705 L1.1177443,3.71428571 C0.808604649,3.38514927 0.619047619,2.95327377 0.619047619,2.4785496 C0.619047619,1.48804473 1.43799591,0.680241386 2.47199339,0.619047619 L2.47619048,0.659256942 C2.40435834,0.737948608 2.32275593,0.868221601 2.32275593,1.05356247 C2.32275593,1.08503913 2.32461366,1.1112371 2.32647138,1.13137435 C2.29681655,1.13222155 2.25787307,1.13355751 2.21246195,1.13922723 C2.13134117,1.14971945 2.06972654,1.18904899 2.02476265,1.21791889 C2.01454514,1.2240122 2.00019936,1.23320104 1.99091072,1.23844715 C1.92141794,1.23013809 1.76567844,1.21267278 1.64286199,1.21267278 C1.56267008,1.21267278 1.50752309,1.21964587 1.46489856,1.2353842 C1.41064603,1.25594505 1.3693976,1.29876114 1.34297658,1.36301785 C1.28600626,1.50114372 1.2864535,1.78658429 1.34438708,1.89851219 C1.38054396,1.9693184 1.46582743,2.0165334 1.63962817,2.10832405 C1.69291744,2.13628158 1.77727203,2.18088982 1.83472398,2.21715641 C1.79626214,2.25039264 1.75129825,2.29014578 1.7128364,2.33211467 C1.6080812,2.44707293 1.53394411,2.56509414 1.53115752,2.56991665 Z" id="Path" fill="#FECF0A"></path>
                </g>
            </g>
        </g>
    </g>
</svg>