<?xml version="1.0" encoding="UTF-8"?>
<svg width="30px" height="38px" viewBox="0 0 30 38" version="1.1" xmlns="http://www.w3.org/2000/svg" xmlns:xlink="http://www.w3.org/1999/xlink">
    <!-- Generator: sketchtool 52.4 (67378) - http://www.bohemiancoding.com/sketch -->
    <title>82AEC47C-DDA0-4365-9B15-1FA182AFC87D</title>
    <desc>Created with sketchtool.</desc>
    <g id="Page-1" stroke="none" stroke-width="1" fill="none" fill-rule="evenodd">
        <g id="комп_где-купить_карта_1280-" transform="translate(-699.000000, -859.000000)">
            <g id="Group-17" transform="translate(701.000000, 861.000000)">
                <g id="Group-22">
                    <path d="M13,33.8679894 C18.1893601,29.0952381 26,20.3950676 26,13.1387412 C26,5.8824148 20.1797017,9.59232693e-14 13,9.59232693e-14 C5.82029825,9.59232693e-14 -2.84217094e-14,5.8824148 -2.84217094e-14,13.1387412 C-2.84217094e-14,20.3950676 7.42857143,29.0952381 13,33.8679894 Z" id="Oval-Copy" stroke="#F95E1A" stroke-width="3" fill="#FFFFFF" stroke-linecap="round"></path>
                    <g id="Group-Copy" transform="translate(6.190476, 8.666667)">
                        <path d="M13.3531058,2.46531811 C13.527434,2.42265362 13.6436528,2.25199565 13.6145981,2.08133768 C13.5855434,1.91067971 13.4402699,1.82535073 13.2659418,1.86801522 C13.0916136,1.91067971 12.9753949,2.08133768 13.0044495,2.25199565 C13.0335042,2.42265362 13.1787777,2.50798261 13.3531058,2.46531811 Z" id="Path" fill="#FFFFFF"></path>
                        <path d="M3.60891591,7.81092437 C3.58257345,8.11134454 3.52988855,8.41176471 3.24012158,8.38445378 C3.24012158,8.38445378 3.05572442,8.32983193 2.89766971,8.32983193 C2.55521783,8.32983193 2.47619048,8.5210084 2.47619048,8.68487395 C2.47619048,9.14915966 2.95035461,9.28571429 3.24012158,9.28571429 C3.52988855,9.28571429 3.84599797,9.17647059 4.08308004,8.98529412 C4.53090172,8.65756303 4.82066869,7.92016807 4.95238095,7.59243697 C4.82066869,7.53781513 4.66261398,7.48319328 4.53090172,7.42857143 C4.29381966,7.67436975 3.95136778,7.81092437 3.60891591,7.81092437 Z" id="Path" fill="#FFFFFF"></path>
                        <path d="M8.25916634,5.81708876 C8.31308642,6.00660068 8.39396653,6.38562451 8.44788661,6.5480633 C8.44788661,6.5480633 8.17828623,6.65635582 8.15132619,6.68342895 C8.07044608,6.71050208 8.07044608,6.79172148 8.09740611,6.87294087 C8.12436615,6.95416026 8.20524626,6.95416026 8.28612638,6.92708713 C8.63660687,6.73757521 9.63412827,6.30440512 10.0654889,6.73757521 C10.3081292,6.95416026 10.5238095,7.6851348 10.3620493,8.17245116 C10.2811692,8.4702556 10.0654889,8.63269438 9.71500839,8.65976751 C9.52628812,8.68684064 9.36452789,8.63269438 9.25668774,8.52440186 C8.96012733,8.25367055 8.96012733,7.71220793 8.96012733,7.71220793 C8.96012733,7.65806167 8.93316729,7.63098854 8.87924721,7.60391541 C8.85228717,7.57684227 8.7983671,7.57684227 8.74444702,7.60391541 C8.74444702,7.60391541 7.98956596,8.14537802 7.36948509,7.84757358 C6.47980384,7.41440349 6.69548414,6.25025886 6.69548414,6.22318573 C6.69548414,6.14196633 6.6685241,6.08782007 6.58764399,6.08782007 C6.50676388,6.08782007 6.4528438,6.1148932 6.4528438,6.1961126 C6.4528438,6.1961126 6.39892373,6.52099017 6.4528438,6.87294087 C5.80580289,6.79172148 5.2396421,6.68342895 4.75436141,6.49391704 C5.02396179,6.1961126 5.15876198,5.81708876 5.15876198,5.38391867 C5.15876198,5.30269927 5.10484191,5.24855301 5.02396179,5.24855301 C4.94308168,5.24855301 4.8891616,5.30269927 4.8891616,5.38391867 C4.8891616,6.16903946 4.24212069,6.79172148 3.48723963,6.79172148 C2.92107884,6.79172148 2.40883812,6.43977077 2.16619778,5.89830816 C2.19315781,5.81708876 2.13923774,5.81708876 2.05835762,5.81708876 C1.97747751,5.84416189 1.97747751,5.92538129 1.97747751,5.97952755 C2.05835762,6.16903946 2.16619778,6.33147825 2.30099796,6.49391704 C2.30099796,6.49391704 2.30099796,6.49391704 2.30099796,6.49391704 C2.00443755,7.14367218 1.46523679,7.87464671 0.548595502,7.60391541 C0.252035085,7.52269601 0.0633148194,7.3331841 0.0093947436,7.08952592 C-0.0175652943,6.900014 0.0093947436,6.71050208 0.144194933,6.62928269 C0.252035085,6.5480633 0.413795312,6.52099017 0.575555539,6.60220956 C1.03387618,6.76464835 1.30347656,6.00660068 1.57307694,5.27562614 C1.70787713,4.86952918 1.8965974,4.40928595 2.03139759,4.32806656 C2.19315781,4.21977404 2.59755838,4.21977404 2.81323868,4.51757848 C2.84019872,4.59879787 2.86715876,4.78830979 2.86715876,4.78830979 C2.86715876,4.84245605 2.94803887,4.89660231 3.00195895,4.86952918 C3.08283906,4.86952918 3.1097991,4.78830979 3.1097991,4.73416352 C2.97499891,3.94904273 3.19067922,3.46172637 3.37939948,3.21806819 C3.37939948,3.21806819 1.97747751,2.16221608 2.19315781,0.754413274 C2.19315781,0.673193881 2.24707789,0.619047619 2.27403793,0.619047619 C2.30099796,0.619047619 2.35491804,0.700267012 2.35491804,0.808559536 C2.43579815,1.07929085 2.57059834,1.48538781 2.94803887,1.9185579 C3.29851937,2.351728 3.59507978,2.59538618 3.8916402,2.7036787 C3.91860024,2.7036787 4.59260119,2.83904436 5.85972297,2.83904436 C6.58764399,2.83904436 7.53124532,2.75782496 7.58516539,2.73075183 C7.63908547,3.0556294 7.8008457,3.59709202 8.2322063,4.08440838 C8.63660687,4.54465161 9.06796748,4.73416352 9.39148793,4.86952918 C9.84980858,5.0590411 10.2542091,5.14026049 10.5238095,5.19440675 C10.5238095,5.19440675 10.5238095,5.19440675 10.5238095,5.19440675 C10.5238095,5.22147988 10.4968495,5.22147988 10.4968495,5.24855301 C10.3350893,5.65464998 10.0654889,6.00660068 9.68804835,6.30440512 C9.36452789,6.27733199 8.98708736,6.35855138 8.69052695,6.46684391 C8.66356691,6.38562451 8.60964683,6.16903946 8.50180668,5.79001563 C8.47484664,5.70879624 8.42092657,5.68172311 8.34004645,5.70879624 C8.28612638,5.68172311 8.25916634,5.7629425 8.25916634,5.81708876 Z" id="Path" fill="#FFFFFF"></path>
                        <path d="M10.4411441,0.000901667924 C10.2312554,-0.0300281713 9.99804577,0.74321781 9.9047619,1.02158636 C10.0913296,1.0525162 10.2778974,1.11437588 10.4644651,1.23809524 C10.511107,1.14530572 10.5810699,0.000901667924 10.4411441,0.000901667924 Z" id="Path" fill="#FFFFFF"></path>
                        <path d="M10.6184238,4.33051948 C10.6184238,4.33051948 10.5373258,4.30519481 10.4291953,4.33051948 C10.5373258,4.58376623 10.7806197,4.76103896 11.1050114,4.83701299 C11.6456644,4.96363636 12.2674153,4.93831169 12.9161988,4.38116883 C13.2405906,4.1025974 13.5649823,3.5961039 13.6190476,3.14025974 C13.5649823,3.21623377 13.4838844,3.24155844 13.4027864,3.29220779 C13.051362,3.39350649 12.6188397,3.24155844 12.5107091,2.93766234 C12.4296111,2.76038961 12.5107091,2.60844156 12.6458723,2.48181818 C12.5377417,2.50714286 12.4296111,2.53246753 12.2944479,2.55779221 C11.9430235,2.63376623 11.672697,2.68441558 11.5375338,2.58311688 C11.4294032,2.48181818 11.4023706,2.32987013 11.3212726,2.1525974 C11.2401747,1.89935065 11.1590767,1.62077922 10.8887503,1.46883117 C10.3210647,1.13961039 9.67228114,1.24090909 9.64524849,1.24090909 C9.5911832,1.24090909 9.56415055,1.24090909 9.5371179,1.19025974 C9.51008526,1.16493506 9.42898732,0.481168831 9.29382408,0.278571429 C9.15866084,0.0253246753 9.05053026,0 9.02349761,0 C8.75317114,0 8.32064878,0.633116883 8.1584529,1.54480519 C8.1584529,1.57012987 8.13142025,1.57012987 8.13142025,1.59545455 C7.80702849,1.92467532 7.42857143,3.06428571 7.42857143,3.44415584 C7.42857143,3.44415584 7.42857143,3.46948052 7.42857143,3.49480519 C7.45560408,3.87467532 8.13142025,5.52077922 10.1588688,5.57142857 C10.1859014,5.57142857 10.1859014,5.57142857 10.2129341,5.57142857 C10.9428156,5.52077922 11.7267623,5.21688312 12.0781867,5.03961039 C11.8348929,5.11558442 11.4023706,5.14090909 11.0239135,5.06493506 C10.6184238,4.96363636 10.3480973,4.73571429 10.1859014,4.43181818 C10.1318361,4.45714286 10.1048035,4.50779221 10.0777708,4.58376623 C10.0507382,4.63441558 9.96964026,4.65974026 9.91557496,4.63441558 C9.83447702,4.60909091 9.83447702,4.53311688 9.86150967,4.48246753 C10.0777708,4.1025974 10.4832606,4.05194805 10.6724891,4.07727273 C10.753587,4.07727273 10.7806197,4.15324675 10.7806197,4.2038961 C10.753587,4.30519481 10.6995217,4.33051948 10.6184238,4.33051948 Z M11.1861094,2.40584416 C11.2672073,2.40584416 11.3212726,2.48181818 11.3212726,2.60844156 C11.3212726,2.70974026 11.2401747,2.81103896 11.1861094,2.81103896 C11.1050114,2.81103896 11.0509461,2.73506494 11.0509461,2.60844156 C11.0239135,2.50714286 11.1050114,2.40584416 11.1861094,2.40584416 Z M9.26679143,1.29155844 C9.21272614,1.31688312 9.10459555,1.36753247 8.94239967,1.36753247 C8.80723643,1.39285714 8.80723643,1.29155844 8.91536702,1.01298701 C9.02349761,0.75974026 9.10459555,0.633116883 9.10459555,0.633116883 C9.21272614,0.531818182 9.29382408,1.29155844 9.26679143,1.29155844 Z M10.5373258,3.21623377 C10.4021626,3.21623377 10.294032,3.06428571 10.294032,2.88701299 C10.294032,2.70974026 10.4021626,2.53246753 10.5373258,2.53246753 C10.6724891,2.53246753 10.7806197,2.68441558 10.7806197,2.86168831 C10.7806197,3.03896104 10.6724891,3.21623377 10.5373258,3.21623377 Z" id="Shape" fill="#FFFFFF" fill-rule="nonzero"></path>
                        <path d="M10.2466716,6.31655584 C10.1611941,6.46715784 10.0543474,6.59265951 9.9047619,6.74326151 C9.96886996,6.76836184 10.032978,6.81856251 10.0970861,6.86876318 C10.1825635,6.96916451 10.2680409,7.11976651 10.332149,7.29546885 C10.5244732,7.22016785 10.6740586,7.11976651 10.6740586,7.11976651 C10.695428,7.09466618 10.7381667,7.09466618 10.759536,7.11976651 C10.7809054,7.14486684 10.8022747,7.16996718 10.8236441,7.22016785 C10.9091215,7.92297718 11.1655537,8.12377985 11.4006166,8.02337852 C11.5929408,7.94807752 11.6997876,7.79747552 11.7425263,7.59667285 C11.8280037,7.14486684 11.6143102,6.56755917 11.421986,6.36675651 C11.1869231,6.09065284 10.6526893,6.19105417 10.2466716,6.31655584 Z" id="Path" fill="#FFFFFF"></path>
                        <path d="M9.89393475,5.23611111 L9.73710029,5.54563492 C9.73710029,5.54563492 9.71096122,5.57142857 9.71096122,5.57142857 C9.16204062,5.51984127 7.2538881,5.10714286 6.80952381,3.22420635 C6.80952381,3.22420635 6.80952381,3.1984127 6.83566289,3.1984127 L7.12319272,3.0952381 C7.14933179,3.0952381 7.14933179,3.0952381 7.14933179,3.12103175 C7.22774902,3.55952381 8.01192129,5.13293651 9.86779567,5.21031746 C9.89393475,5.21031746 9.92007382,5.21031746 9.89393475,5.23611111 Z" id="Path" fill="#1F9E38"></path>
                    </g>
                </g>
                <g id="logo-copy" transform="translate(4.333333, 4.333333)">
                    <g id="Group">
                        <circle id="Oval" fill="#16932B" cx="8.74427861" cy="8.61492537" r="8.53731343"></circle>
                        <circle id="Oval" fill="#FF6927" cx="8.74427861" cy="8.61492537" r="7.60597015"></circle>
                        <path d="M14.9791045,6.26069652 C15.1343284,6.23482587 15.2378109,6.13134328 15.2119403,6.0278607 C15.1860697,5.92437811 15.0567164,5.87263682 14.9014925,5.89850746 C14.7462687,5.92437811 14.6427861,6.0278607 14.6686567,6.13134328 C14.6945274,6.23482587 14.8238806,6.28656716 14.9791045,6.26069652 Z" id="Path" fill="#FFFFFF"></path>
                        <path d="M5.35522388,11.2278607 C5.32935323,11.5124378 5.27761194,11.7970149 4.99303483,11.7711443 C4.99303483,11.7711443 4.8119403,11.719403 4.65671642,11.719403 C4.32039801,11.719403 4.24278607,11.9004975 4.24278607,12.0557214 C4.24278607,12.4955224 4.70845771,12.6248756 4.99303483,12.6248756 C5.27761194,12.6248756 5.5880597,12.521393 5.82089552,12.3402985 C6.26069652,12.0298507 6.54527363,11.3313433 6.67462687,11.0208955 C6.54527363,10.9691542 6.39004975,10.9174129 6.26069652,10.8656716 C6.0278607,11.0985075 5.69154229,11.2278607 5.35522388,11.2278607 Z" id="Path" fill="#FFFFFF"></path>
                        <path d="M9.83084577,10.0895522 C9.88258706,10.2706468 9.960199,10.6328358 10.0119403,10.7880597 C10.0119403,10.7880597 9.75323383,10.8915423 9.72736318,10.9174129 C9.64975124,10.9432836 9.64975124,11.0208955 9.67562189,11.0985075 C9.70149254,11.1761194 9.77910448,11.1761194 9.85671642,11.1502488 C10.1930348,10.9691542 11.1502488,10.5552239 11.5641791,10.9691542 C11.7970149,11.1761194 12.0039801,11.8746269 11.8487562,12.3402985 C11.7711443,12.6248756 11.5641791,12.7800995 11.2278607,12.8059701 C11.0467662,12.8318408 10.8915423,12.7800995 10.7880597,12.6766169 C10.5034826,12.4179104 10.5034826,11.9004975 10.5034826,11.9004975 C10.5034826,11.8487562 10.4776119,11.8228856 10.4258706,11.7970149 C10.4,11.7711443 10.3482587,11.7711443 10.2965174,11.7970149 C10.2965174,11.7970149 9.5721393,12.3144279 8.97711443,12.0298507 C8.12338308,11.6159204 8.33034826,10.5034826 8.33034826,10.4776119 C8.33034826,10.4 8.30447761,10.3482587 8.22686567,10.3482587 C8.14925373,10.3482587 8.09751244,10.3741294 8.09751244,10.4517413 C8.09751244,10.4517413 8.04577114,10.7621891 8.09751244,11.0985075 C7.47661692,11.0208955 6.93333333,10.9174129 6.46766169,10.7363184 C6.72636816,10.4517413 6.85572139,10.0895522 6.85572139,9.67562189 C6.85572139,9.59800995 6.8039801,9.54626866 6.72636816,9.54626866 C6.64875622,9.54626866 6.59701493,9.59800995 6.59701493,9.67562189 C6.59701493,10.4258706 5.9761194,11.0208955 5.25174129,11.0208955 C4.70845771,11.0208955 4.21691542,10.6845771 3.9840796,10.1671642 C4.00995025,10.0895522 3.95820896,10.0895522 3.88059701,10.0895522 C3.80298507,10.1154229 3.80298507,10.1930348 3.80298507,10.2447761 C3.88059701,10.4258706 3.9840796,10.5810945 4.11343284,10.7363184 C4.11343284,10.7363184 4.11343284,10.7363184 4.11343284,10.7363184 C3.82885572,11.3572139 3.31144279,12.0557214 2.4318408,11.7970149 C2.14726368,11.719403 1.96616915,11.5383085 1.91442786,11.3054726 C1.88855721,11.1243781 1.91442786,10.9432836 2.04378109,10.8656716 C2.14726368,10.7880597 2.30248756,10.7621891 2.45771144,10.839801 C2.89751244,10.9950249 3.15621891,10.2706468 3.41492537,9.5721393 C3.54427861,9.1840796 3.72537313,8.74427861 3.85472637,8.66666667 C4.00995025,8.56318408 4.39800995,8.56318408 4.60497512,8.84776119 C4.63084577,8.92537313 4.65671642,9.10646766 4.65671642,9.10646766 C4.65671642,9.15820896 4.73432836,9.20995025 4.78606965,9.1840796 C4.86368159,9.1840796 4.88955224,9.10646766 4.88955224,9.05472637 C4.760199,8.30447761 4.96716418,7.83880597 5.14825871,7.60597015 C5.14825871,7.60597015 3.80298507,6.59701493 4.00995025,5.25174129 C4.00995025,5.17412935 4.06169154,5.12238806 4.08756219,5.12238806 C4.11343284,5.12238806 4.16517413,5.2 4.16517413,5.30348259 C4.24278607,5.56218905 4.3721393,5.95024876 4.73432836,6.3641791 C5.07064677,6.77810945 5.35522388,7.01094527 5.639801,7.11442786 C5.66567164,7.11442786 6.31243781,7.24378109 7.52835821,7.24378109 C8.22686567,7.24378109 9.13233831,7.16616915 9.1840796,7.14029851 C9.2358209,7.45074627 9.39104478,7.9681592 9.80497512,8.43383085 C10.1930348,8.87363184 10.6069652,9.05472637 10.9174129,9.1840796 C11.3572139,9.36517413 11.7452736,9.44278607 12.0039801,9.49452736 C12.0039801,9.49452736 12.0039801,9.49452736 12.0039801,9.49452736 C12.0039801,9.52039801 11.9781095,9.52039801 11.9781095,9.54626866 C11.8228856,9.93432836 11.5641791,10.2706468 11.20199,10.5552239 C10.8915423,10.5293532 10.5293532,10.6069652 10.2447761,10.7104478 C10.2189055,10.6328358 10.1671642,10.4258706 10.0636816,10.0636816 C10.0378109,9.98606965 9.98606965,9.960199 9.90845771,9.98606965 C9.85671642,9.960199 9.83084577,10.0378109 9.83084577,10.0895522 Z" id="Path" fill="#FFFFFF"></path>
                        <path d="M12.6766169,3.57014925 C12.4437811,3.54427861 12.1850746,4.19104478 12.081592,4.4238806 C12.2885572,4.44975124 12.4955224,4.50149254 12.7024876,4.60497512 C12.7542289,4.52736318 12.8318408,3.57014925 12.6766169,3.57014925 Z" id="Path" fill="#FFFFFF"></path>
                        <path d="M12.5472637,7.81293532 C12.5472637,7.81293532 12.4696517,7.78706468 12.3661692,7.81293532 C12.4696517,8.07164179 12.7024876,8.25273632 13.0129353,8.33034826 C13.5303483,8.45970149 14.1253731,8.43383085 14.7462687,7.86467662 C15.0567164,7.5800995 15.3671642,7.06268657 15.4189055,6.59701493 C15.3671642,6.67462687 15.2895522,6.70049751 15.2119403,6.75223881 C14.8756219,6.85572139 14.4616915,6.70049751 14.358209,6.39004975 C14.280597,6.20895522 14.358209,6.05373134 14.4875622,5.92437811 C14.3840796,5.95024876 14.280597,5.9761194 14.1512438,6.00199005 C13.8149254,6.07960199 13.5562189,6.13134328 13.4268657,6.0278607 C13.3233831,5.92437811 13.2975124,5.76915423 13.2199005,5.5880597 C13.1422886,5.32935323 13.0646766,5.04477612 12.8059701,4.88955224 C12.2626866,4.55323383 11.641791,4.65671642 11.6159204,4.65671642 C11.5641791,4.65671642 11.5383085,4.65671642 11.5124378,4.60497512 C11.4865672,4.57910448 11.4089552,3.88059701 11.279602,3.67363184 C11.1502488,3.41492537 11.0467662,3.38905473 11.0208955,3.38905473 C10.7621891,3.38905473 10.3482587,4.0358209 10.1930348,4.96716418 C10.1930348,4.99303483 10.1671642,4.99303483 10.1671642,5.01890547 C9.85671642,5.35522388 9.49452736,6.51940299 9.49452736,6.90746269 C9.49452736,6.90746269 9.49452736,6.93333333 9.49452736,6.95920398 C9.52039801,7.34726368 10.1671642,9.02885572 12.1074627,9.08059701 C12.1333333,9.08059701 12.1333333,9.08059701 12.159204,9.08059701 C12.8577114,9.02885572 13.6079602,8.71840796 13.9442786,8.53731343 C13.7114428,8.61492537 13.2975124,8.64079602 12.9353234,8.56318408 C12.5472637,8.45970149 12.2885572,8.22686567 12.1333333,7.91641791 C12.081592,7.94228856 12.0557214,7.99402985 12.0298507,8.07164179 C12.0039801,8.12338308 11.9263682,8.14925373 11.8746269,8.12338308 C11.7970149,8.09751244 11.7970149,8.0199005 11.8228856,7.9681592 C12.0298507,7.5800995 12.4179104,7.52835821 12.599005,7.55422886 C12.6766169,7.55422886 12.7024876,7.6318408 12.7024876,7.68358209 C12.6766169,7.78706468 12.6248756,7.81293532 12.5472637,7.81293532 Z M13.0905473,5.84676617 C13.1681592,5.84676617 13.2199005,5.92437811 13.2199005,6.05373134 C13.2199005,6.15721393 13.1422886,6.26069652 13.0905473,6.26069652 C13.0129353,6.26069652 12.961194,6.18308458 12.961194,6.05373134 C12.9353234,5.95024876 13.0129353,5.84676617 13.0905473,5.84676617 Z M11.2537313,4.70845771 C11.20199,4.73432836 11.0985075,4.78606965 10.9432836,4.78606965 C10.8139303,4.8119403 10.8139303,4.70845771 10.9174129,4.4238806 C11.0208955,4.16517413 11.0985075,4.0358209 11.0985075,4.0358209 C11.20199,3.93233831 11.279602,4.70845771 11.2537313,4.70845771 Z M12.4696517,6.67462687 C12.3402985,6.67462687 12.2368159,6.51940299 12.2368159,6.33830846 C12.2368159,6.15721393 12.3402985,5.9761194 12.4696517,5.9761194 C12.599005,5.9761194 12.7024876,6.13134328 12.7024876,6.31243781 C12.7024876,6.49353234 12.599005,6.67462687 12.4696517,6.67462687 Z" id="Shape" fill="#FFFFFF" fill-rule="nonzero"></path>
                        <path d="M11.9004975,10.1930348 C11.7970149,10.3482587 11.6676617,10.4776119 11.4865672,10.6328358 C11.5641791,10.6587065 11.641791,10.7104478 11.719403,10.7621891 C11.8228856,10.8656716 11.9263682,11.0208955 12.0039801,11.20199 C12.2368159,11.1243781 12.4179104,11.0208955 12.4179104,11.0208955 C12.4437811,10.9950249 12.4955224,10.9950249 12.521393,11.0208955 C12.5472637,11.0467662 12.5731343,11.0726368 12.599005,11.1243781 C12.7024876,11.8487562 13.0129353,12.0557214 13.2975124,11.9522388 C13.5303483,11.8746269 13.6597015,11.719403 13.7114428,11.5124378 C13.8149254,11.0467662 13.5562189,10.4517413 13.3233831,10.2447761 C13.038806,9.960199 12.3920398,10.0636816 11.9004975,10.1930348 Z" id="Path" fill="#FFFFFF"></path>
                        <path d="M12.1850746,9.13233831 L12.0298507,9.44278607 C12.0298507,9.44278607 12.0039801,9.46865672 12.0039801,9.46865672 C11.4606965,9.41691542 9.5721393,9.00298507 9.13233831,7.11442786 C9.13233831,7.11442786 9.13233831,7.08855721 9.15820896,7.08855721 L9.44278607,6.98507463 C9.46865672,6.98507463 9.46865672,6.98507463 9.46865672,7.01094527 C9.54626866,7.45074627 10.3223881,9.02885572 12.159204,9.10646766 C12.1850746,9.10646766 12.2109453,9.10646766 12.1850746,9.13233831 Z" id="Path" fill="#1F9E38"></path>
                    </g>
                </g>
            </g>
        </g>
    </g>
</svg>