<?xml version="1.0" encoding="UTF-8"?>
<svg width="290px" height="8px" viewBox="0 0 290 8" version="1.1" xmlns="http://www.w3.org/2000/svg" xmlns:xlink="http://www.w3.org/1999/xlink">
    <!-- Generator: sketchtool 52.4 (67378) - http://www.bohemiancoding.com/sketch -->
    <title>9E72DEF9-301C-408A-A104-1518EB1D809E</title>
    <desc>Created with sketchtool.</desc>
    <g id="Page-1" stroke="none" stroke-width="1" fill="none" fill-rule="evenodd">
        <g id="моб_тест_2" transform="translate(-15.000000, -690.000000)" fill="#FFFFFF">
            <g id="Group-11" transform="translate(0.000000, 520.000000)">
                <g id="Group-9" transform="translate(0.000000, 165.000000)">
                    <path d="M15.5535055,9.95001859 L18.0811808,5.04282023 L18.5362854,5.04282023 L18.5362854,11.1232929 L17.9827798,11.1232929 L17.9827798,6.30173499 L15.498155,11.1232929 L15,11.1232929 L15,5.04282023 L15.5535055,5.04282023 L15.5535055,9.95001859 Z M23.3825338,11.1232929 L23.3825338,6.42163164 L21.9311193,10.027095 L21.6174662,10.027095 L20.1599016,6.42163164 L20.1599016,11.1232929 L19.6063961,11.1232929 L19.6063961,5.04282023 L20.1906519,5.04282023 L21.7712177,8.99084544 L23.3579336,5.04282023 L23.9360394,5.04282023 L23.9360394,11.1232929 L23.3825338,11.1232929 Z M27.9704797,10.4381692 L27.9704797,11.1232929 L25.0061501,11.1232929 L25.0061501,5.04282023 L27.9151292,5.04282023 L27.9151292,5.72794391 L25.5596556,5.72794391 L25.5596556,7.69767449 L27.6076261,7.69767449 L27.6076261,8.33997794 L25.5596556,8.33997794 L25.5596556,10.4381692 L27.9704797,10.4381692 Z M32.00492,11.1661131 C31.734316,11.1661131 31.486266,11.0990288 31.2607626,10.964858 C31.0352592,10.8306873 30.8384592,10.6422802 30.6703567,10.399631 C30.5022542,10.1569818 30.3669542,9.86580717 30.2644526,9.52609831 C30.1619511,9.18638946 30.1004511,8.81100253 30.0799508,8.39992626 L29.2927429,8.39992626 L29.2927429,11.1232929 L28.7392374,11.1232929 L28.7392374,5.04282023 L29.2927429,5.04282023 L29.2927429,7.71480258 L30.0861009,7.71480258 C30.1107012,7.29801693 30.1763012,6.92263 30.2829028,6.58863053 C30.3895044,6.25463107 30.5289044,5.97059305 30.701107,5.73650796 C30.8733096,5.50242286 31.0711346,5.32115237 31.2945879,5.19269104 C31.5180413,5.0642297 31.7589163,5 32.0172202,5 C32.3124246,5 32.5819996,5.07707564 32.8259533,5.23122924 C33.0699069,5.38538284 33.2790069,5.60090918 33.4532595,5.87781472 C33.6275121,6.15472025 33.7628121,6.48157807 33.8591636,6.85839798 C33.955515,7.23521789 34.00369,7.64628799 34.00369,8.09162061 C34.00369,8.5597908 33.953465,8.98370683 33.8530135,9.36338144 C33.752562,9.74305604 33.613162,10.0656319 33.4348093,10.3311186 C33.2564567,10.5966054 33.0453067,10.8021404 32.801353,10.94773 C32.5573994,11.0933195 32.2919244,11.1661131 32.00492,11.1661131 Z M30.6334563,8.08305656 C30.6334563,8.45987647 30.6662563,8.79529825 30.7318573,9.08933197 C30.7974583,9.38336568 30.8907333,9.63314786 31.0116851,9.83868599 C31.1326369,10.0442241 31.2771619,10.2012301 31.4452645,10.3097085 C31.613367,10.418187 31.801967,10.4724254 32.0110701,10.4724254 C32.2324734,10.4724254 32.4323484,10.4153323 32.6107011,10.3011445 C32.7890538,10.1869566 32.9397288,10.0242414 33.0627306,9.81299385 C33.1857325,9.60174633 33.2800325,9.35053683 33.3456335,9.05935781 C33.4112344,8.76817879 33.4440344,8.44274829 33.4440344,8.08305656 C33.4440344,7.70623665 33.4091844,7.37081487 33.3394834,7.07678116 C33.2697823,6.78274744 33.1713823,6.53439259 33.0442804,6.33170915 C32.9171785,6.12902572 32.7665035,5.9734471 32.5922509,5.86496865 C32.4179983,5.75649019 32.2242733,5.70225177 32.0110701,5.70225177 C31.7978669,5.70225177 31.6061919,5.75934484 31.4360394,5.87353269 C31.2658868,5.98772054 31.1213618,6.14758114 31.00246,6.35311927 C30.8835582,6.5586574 30.7923332,6.80843958 30.7287823,7.10247329 C30.6652313,7.39650701 30.6334563,7.72336483 30.6334563,8.08305656 Z M37.9335793,5.72794391 L36.4268143,5.72794391 L36.4268143,11.1232929 L35.8733087,11.1232929 L35.8733087,5.72794391 L34.3665437,5.72794391 L34.3665437,5.04282023 L37.9335793,5.04282023 L37.9335793,5.72794391 Z M38.2779828,8.04023633 C38.2779828,7.67483521 38.3241078,7.31086689 38.4163592,6.94832047 C38.5086105,6.58577404 38.6439105,6.26034355 38.8222632,5.97201922 C39.0006159,5.6836949 39.2189409,5.45104064 39.4772448,5.27404947 C39.7355486,5.0970583 40.0286986,5.00856405 40.3567036,5.00856405 C40.7462094,5.00856405 41.0803594,5.13131414 41.3591636,5.37681802 C41.6379678,5.6223219 41.8450178,5.94204309 41.9803198,6.33599118 L41.5436654,6.72993729 C41.4780645,6.53581795 41.3991395,6.3731027 41.3068881,6.24178667 C41.2146367,6.11047064 41.1141867,6.00484846 41.0055351,5.92491697 C40.8968834,5.84498547 40.7851584,5.7878924 40.6703567,5.75363605 C40.555555,5.71937969 40.442805,5.70225177 40.3321033,5.70225177 C40.0901997,5.70225177 39.8759747,5.77219078 39.6894219,5.9120709 C39.5028691,6.05195102 39.3460441,6.23464884 39.2189422,6.46016984 C39.0918403,6.68569085 38.9965153,6.93975501 38.9329643,7.22236994 C38.8694134,7.50498487 38.8376384,7.78902289 38.8376384,8.07449252 C38.8376384,8.3942185 38.8755634,8.69823909 38.9514145,8.98656342 C39.0272657,9.27488774 39.1328407,9.53037922 39.2681427,9.75304553 C39.4034447,9.97571184 39.5633447,10.1527004 39.7478475,10.2840164 C39.9323502,10.4153324 40.1332502,10.4809894 40.3505535,10.4809894 C40.4653552,10.4809894 40.5832302,10.4610069 40.704182,10.4210411 C40.8251339,10.3810754 40.9409589,10.3168457 41.0516605,10.2283501 C41.1623622,10.1398545 41.2658872,10.028523 41.3622386,9.89435229 C41.4585901,9.76018157 41.5375151,9.59889365 41.599016,9.41048369 L42.0602706,9.76160958 C41.9905696,9.98998528 41.8931946,10.1912383 41.7681427,10.3653748 C41.6430908,10.5395113 41.5016408,10.6865259 41.3437884,10.8064232 C41.1859361,10.9263204 41.0188611,11.0176693 40.8425584,11.0804727 C40.6662558,11.143276 40.4940558,11.1746772 40.3259533,11.1746772 C40.0266488,11.1746772 39.7519488,11.0833283 39.501845,10.9006277 C39.2517413,10.7179271 39.0354663,10.4795636 38.8530135,10.1855299 C38.6705608,9.89149614 38.5291108,9.55750169 38.4286593,9.18353647 C38.3282078,8.80957126 38.2779828,8.42847502 38.2779828,8.04023633 Z M45.0553506,11.1232929 L45.0553506,8.76818024 L44.0467405,8.76818024 L43.0442804,11.1232929 L42.398524,11.1232929 L43.4809348,8.65684764 C43.3538329,8.59404433 43.2359579,8.50412274 43.1273063,8.38708019 C43.0186546,8.27003765 42.9253796,8.13444161 42.8474785,7.98028801 C42.7695773,7.82613441 42.7091023,7.65770986 42.6660517,7.4750093 C42.623001,7.29230873 42.601476,7.10104695 42.601476,6.90121821 C42.601476,6.67284251 42.634276,6.44732489 42.699877,6.22465858 C42.765478,6.00199227 42.856703,5.80359385 42.9735547,5.62945738 C43.0904065,5.45532091 43.2298065,5.31401556 43.3917589,5.2055371 C43.5537113,5.09705865 43.7310363,5.04282023 43.9237392,5.04282023 L45.6088561,5.04282023 L45.6088561,11.1232929 L45.0553506,11.1232929 Z M45.0553506,5.72794391 L43.9544895,5.72794391 C43.8478879,5.72794391 43.7464129,5.7593451 43.6500615,5.82214842 C43.5537101,5.88495173 43.4696601,5.96916401 43.397909,6.07478777 C43.3261579,6.18041154 43.2687579,6.30458896 43.2257073,6.44732377 C43.1826566,6.59005859 43.1611316,6.74135522 43.1611316,6.90121821 C43.1611316,7.05537181 43.1795816,7.20381379 43.2164822,7.34654861 C43.2533827,7.48928342 43.3046327,7.61488817 43.3702337,7.72336663 C43.4358347,7.83184509 43.5147597,7.91891202 43.6070111,7.98457003 C43.6992625,8.05022805 43.8027875,8.08305656 43.9175892,8.08305656 L45.0553506,8.08305656 L45.0553506,5.72794391 Z M48.2349323,5.04282023 L51.7158672,5.04282023 L51.7158672,11.1232929 L51.1623616,11.1232929 L51.1623616,5.72794391 L48.7884379,5.72794391 L48.7884379,11.1232929 L48.2349323,11.1232929 L48.2349323,5.04282023 Z M52.7859779,11.1232929 L52.7859779,5.04282023 L54.6063961,5.04282023 C54.799099,5.04282023 54.976424,5.09848597 55.1383764,5.20981913 C55.3003288,5.32115228 55.4397288,5.46959426 55.5565806,5.65514952 C55.6734323,5.84070478 55.7646573,6.04909448 55.8302583,6.28032488 C55.8958593,6.51155528 55.9286593,6.74706419 55.9286593,6.98685867 C55.9286593,7.23807195 55.8979093,7.48071749 55.8364084,7.71480258 C55.7749074,7.94888768 55.6877824,8.15727738 55.5750308,8.33997794 C55.4622791,8.5226785 55.3269791,8.66826583 55.1691267,8.77674429 C55.0112743,8.88522275 54.8359993,8.93946116 54.6432964,8.93946116 L53.3394834,8.93946116 L53.3394834,11.1232929 L52.7859779,11.1232929 Z M53.3394834,8.25433748 L54.6125461,8.25433748 C54.7273478,8.25433748 54.8308728,8.22150897 54.9231242,8.15585095 C55.0153756,8.09019294 55.0943006,7.99884403 55.1599016,7.88180148 C55.2255026,7.76475893 55.2767526,7.62916289 55.3136531,7.4750093 C55.3505537,7.3208557 55.3690037,7.15814045 55.3690037,6.98685867 C55.3690037,6.8098675 55.3474787,6.6442976 55.304428,6.490144 C55.2613774,6.33599041 55.2039774,6.20182169 55.1322263,6.08763384 C55.0604752,5.97344599 54.9764252,5.88495173 54.8800738,5.82214842 C54.7837224,5.7593451 54.6822474,5.72794391 54.5756458,5.72794391 L53.3394834,5.72794391 L53.3394834,8.25433748 Z M58.3948339,11.1661131 C58.0873293,11.1661131 57.8075043,11.0790462 57.5553506,10.9049097 C57.3031968,10.7307732 57.0869218,10.4995463 56.9065191,10.211222 C56.7261164,9.92289767 56.5867164,9.5931852 56.4883149,9.22207468 C56.3899134,8.85096416 56.3407134,8.47129525 56.3407134,8.08305656 C56.3407134,7.67768969 56.3929884,7.28945682 56.49754,6.9183463 C56.6020915,6.54723579 56.7466165,6.21895064 56.9311193,5.93348101 C57.1156221,5.64801139 57.3339471,5.42106644 57.5861009,5.25263936 C57.8382546,5.08421228 58.1119296,5 58.4071341,5 C58.7146387,5 58.9934387,5.08992158 59.2435424,5.26976745 C59.4936462,5.44961331 59.7088962,5.68512222 59.8892989,5.97630124 C60.0697016,6.26748026 60.2091016,6.59719274 60.3075031,6.96544856 C60.4059046,7.33370438 60.4551046,7.70909131 60.4551046,8.09162061 C60.4551046,8.49698748 60.4028296,8.88522035 60.298278,9.25633086 C60.1937264,9.62744138 60.0502264,9.9542992 59.8677737,10.2369141 C59.6853209,10.5195291 59.4680209,10.7450467 59.2158672,10.9134738 C58.9637134,11.0819008 58.6900384,11.1661131 58.3948339,11.1661131 Z M56.900369,8.08305656 C56.900369,8.39136376 56.936244,8.68967505 57.0079951,8.97799937 C57.0797462,9.26632369 57.1812212,9.52181518 57.3124231,9.74448149 C57.4436251,9.9671478 57.6014751,10.1441363 57.7859779,10.2754523 C57.9704806,10.4067684 58.1754806,10.4724254 58.400984,10.4724254 C58.6346875,10.4724254 58.8437875,10.4024864 59.0282903,10.2626063 C59.2127931,10.1227262 59.3696181,9.94002833 59.49877,9.71450733 C59.6279219,9.48898632 59.7263219,9.23349484 59.7939729,8.94802521 C59.861624,8.66255558 59.895449,8.37423558 59.895449,8.08305656 C59.895449,7.77474936 59.859574,7.47643808 59.7878229,7.18811375 C59.7160718,6.89978943 59.6135718,6.64572527 59.4803198,6.42591366 C59.3470678,6.20610205 59.1892178,6.03054086 59.0067651,5.89922483 C58.8243123,5.7679088 58.6223873,5.70225177 58.400984,5.70225177 C58.1672805,5.70225177 57.9581805,5.77076346 57.7736777,5.90778888 C57.589175,6.0448143 57.43235,6.22465747 57.303198,6.44732377 C57.1740461,6.66999008 57.0746211,6.92405424 57.00492,7.20952387 C56.935219,7.4949935 56.900369,7.78616815 56.900369,8.08305656 Z M64.3665437,5.72794391 L62.8597786,5.72794391 L62.8597786,11.1232929 L62.3062731,11.1232929 L62.3062731,5.72794391 L60.799508,5.72794391 L60.799508,5.04282023 L64.3665437,5.04282023 L64.3665437,5.72794391 Z M65.5596556,9.95001859 L68.0873309,5.04282023 L68.5424354,5.04282023 L68.5424354,11.1232929 L67.9889299,11.1232929 L67.9889299,6.30173499 L65.504305,11.1232929 L65.0061501,11.1232929 L65.0061501,5.04282023 L65.5596556,5.04282023 L65.5596556,9.95001859 Z M72.8413284,9.55607247 C72.8413284,9.79015757 72.8075034,10.0042566 72.7398524,10.1983759 C72.6722014,10.3924953 72.5799514,10.5580652 72.4630996,10.6950906 C72.3462479,10.832116 72.2109479,10.9377382 72.0571956,11.0119603 C71.9034433,11.0861824 71.7384183,11.1232929 71.5621156,11.1232929 L69.4895449,11.1232929 L69.4895449,5.04282023 L71.6605166,5.04282023 C71.8122189,5.04282023 71.9495689,5.08849469 72.0725707,5.17984497 C72.1955726,5.27119525 72.3001226,5.38966337 72.3862239,5.53525288 C72.4723252,5.68084239 72.5389502,5.84641229 72.5861009,6.03196754 C72.6332516,6.2175228 72.6568266,6.4045026 72.6568266,6.59291256 C72.6568266,6.89551036 72.6025016,7.1752664 72.4938499,7.43218907 C72.3851983,7.68911173 72.2304233,7.88037351 72.0295203,8.00598015 C72.279624,8.10874921 72.477449,8.29858367 72.6230012,8.57548921 C72.7685534,8.85239475 72.8413284,9.17925257 72.8413284,9.55607247 Z M72.2816728,9.41904774 C72.2816728,9.28202232 72.2642478,9.14928093 72.2293973,9.0208196 C72.1945468,8.89235827 72.1473968,8.77959946 72.0879459,8.68253978 C72.028495,8.58548011 71.95777,8.50840447 71.8757688,8.45131054 C71.7937675,8.39421661 71.7035675,8.36567008 71.6051661,8.36567008 L70.0430504,8.36567008 L70.0430504,10.4552973 L71.5621156,10.4552973 C71.6646172,10.4552973 71.7589172,10.4267508 71.8450185,10.3696568 C71.9311197,10.3125629 72.0069697,10.2369146 72.0725707,10.1427096 C72.1381717,10.0485046 72.1894217,9.93860049 72.2263223,9.81299385 C72.2632228,9.68738722 72.2816728,9.55607316 72.2816728,9.41904774 Z M70.0430504,5.71081582 L70.0430504,7.74049472 L71.4329643,7.74049472 C71.5313658,7.74049472 71.6215658,7.71337551 71.703567,7.65913628 C71.7855683,7.60489706 71.8562933,7.53210339 71.9157442,7.44075311 C71.975195,7.34940283 72.022345,7.24235333 72.0571956,7.11960139 C72.0920461,6.99684945 72.1094711,6.86696271 72.1094711,6.72993729 C72.1094711,6.58720248 72.0930711,6.45303377 72.0602706,6.32742713 C72.0274701,6.20182049 71.9833951,6.09334366 71.9280443,6.00199338 C71.8726935,5.9106431 71.8050435,5.83927677 71.7250923,5.78789223 C71.6451411,5.7365077 71.5600661,5.71081582 71.4698647,5.71081582 L70.0430504,5.71081582 Z M75.5166052,11.1661131 C75.2091006,11.1661131 74.9292756,11.0790462 74.6771218,10.9049097 C74.424968,10.7307732 74.208693,10.4995463 74.0282903,10.211222 C73.8478876,9.92289767 73.7084876,9.5931852 73.6100861,9.22207468 C73.5116846,8.85096416 73.4624846,8.47129525 73.4624846,8.08305656 C73.4624846,7.67768969 73.5147596,7.28945682 73.6193112,6.9183463 C73.7238628,6.54723579 73.8683878,6.21895064 74.0528905,5.93348101 C74.2373933,5.64801139 74.4557183,5.42106644 74.7078721,5.25263936 C74.9600259,5.08421228 75.2337009,5 75.5289053,5 C75.8364099,5 76.1152099,5.08992158 76.3653137,5.26976745 C76.6154174,5.44961331 76.8306674,5.68512222 77.0110701,5.97630124 C77.1914728,6.26748026 77.3308728,6.59719274 77.4292743,6.96544856 C77.5276758,7.33370438 77.5768758,7.70909131 77.5768758,8.09162061 C77.5768758,8.49698748 77.5246008,8.88522035 77.4200492,9.25633086 C77.3154976,9.62744138 77.1719976,9.9542992 76.9895449,10.2369141 C76.8070922,10.5195291 76.5897922,10.7450467 76.3376384,10.9134738 C76.0854846,11.0819008 75.8118096,11.1661131 75.5166052,11.1661131 Z M74.0221402,8.08305656 C74.0221402,8.39136376 74.0580152,8.68967505 74.1297663,8.97799937 C74.2015174,9.26632369 74.3029924,9.52181518 74.4341943,9.74448149 C74.5653963,9.9671478 74.7232463,10.1441363 74.9077491,10.2754523 C75.0922518,10.4067684 75.2972518,10.4724254 75.5227552,10.4724254 C75.7564587,10.4724254 75.9655587,10.4024864 76.1500615,10.2626063 C76.3345643,10.1227262 76.4913893,9.94002833 76.6205412,9.71450733 C76.7496931,9.48898632 76.8480931,9.23349484 76.9157442,8.94802521 C76.9833952,8.66255558 77.0172202,8.37423558 77.0172202,8.08305656 C77.0172202,7.77474936 76.9813452,7.47643808 76.9095941,7.18811375 C76.837843,6.89978943 76.735343,6.64572527 76.602091,6.42591366 C76.468839,6.20610205 76.310989,6.03054086 76.1285363,5.89922483 C75.9460835,5.7679088 75.7441585,5.70225177 75.5227552,5.70225177 C75.2890517,5.70225177 75.0799517,5.77076346 74.895449,5.90778888 C74.7109462,6.0448143 74.5541212,6.22465747 74.4249692,6.44732377 C74.2958173,6.66999008 74.1963923,6.92405424 74.1266913,7.20952387 C74.0569902,7.4949935 74.0221402,7.78616815 74.0221402,8.08305656 Z M78.3517835,5.04282023 L81.8327183,5.04282023 L81.8327183,11.1232929 L81.2792128,11.1232929 L81.2792128,5.72794391 L78.9052891,5.72794391 L78.9052891,11.1232929 L78.3517835,11.1232929 L78.3517835,5.04282023 Z M84.6678967,11.1661131 C84.3603921,11.1661131 84.0805671,11.0790462 83.8284133,10.9049097 C83.5762595,10.7307732 83.3599845,10.4995463 83.1795818,10.211222 C82.9991791,9.92289767 82.8597791,9.5931852 82.7613776,9.22207468 C82.6629761,8.85096416 82.6137761,8.47129525 82.6137761,8.08305656 C82.6137761,7.67768969 82.6660511,7.28945682 82.7706027,6.9183463 C82.8751543,6.54723579 83.0196793,6.21895064 83.204182,5.93348101 C83.3886848,5.64801139 83.6070098,5.42106644 83.8591636,5.25263936 C84.1113174,5.08421228 84.3849924,5 84.6801968,5 C84.9877014,5 85.2665014,5.08992158 85.5166052,5.26976745 C85.7667089,5.44961331 85.9819589,5.68512222 86.1623616,5.97630124 C86.3427643,6.26748026 86.4821643,6.59719274 86.5805658,6.96544856 C86.6789673,7.33370438 86.7281673,7.70909131 86.7281673,8.09162061 C86.7281673,8.49698748 86.6758923,8.88522035 86.5713407,9.25633086 C86.4667891,9.62744138 86.3232891,9.9542992 86.1408364,10.2369141 C85.9583837,10.5195291 85.7410837,10.7450467 85.4889299,10.9134738 C85.2367761,11.0819008 84.9631011,11.1661131 84.6678967,11.1661131 Z M83.1734317,8.08305656 C83.1734317,8.39136376 83.2093067,8.68967505 83.2810578,8.97799937 C83.3528089,9.26632369 83.4542839,9.52181518 83.5854859,9.74448149 C83.7166878,9.9671478 83.8745378,10.1441363 84.0590406,10.2754523 C84.2435434,10.4067684 84.4485434,10.4724254 84.6740467,10.4724254 C84.9077502,10.4724254 85.1168502,10.4024864 85.301353,10.2626063 C85.4858558,10.1227262 85.6426808,9.94002833 85.7718327,9.71450733 C85.9009847,9.48898632 85.9993847,9.23349484 86.0670357,8.94802521 C86.1346867,8.66255558 86.1685117,8.37423558 86.1685117,8.08305656 C86.1685117,7.77474936 86.1326367,7.47643808 86.0608856,7.18811375 C85.9891345,6.89978943 85.8866345,6.64572527 85.7533825,6.42591366 C85.6201305,6.20610205 85.4622805,6.03054086 85.2798278,5.89922483 C85.0973751,5.7679088 84.8954501,5.70225177 84.6740467,5.70225177 C84.4403432,5.70225177 84.2312432,5.77076346 84.0467405,5.90778888 C83.8622377,6.0448143 83.7054127,6.22465747 83.5762608,6.44732377 C83.4471088,6.66999008 83.3476838,6.92405424 83.2779828,7.20952387 C83.2082817,7.4949935 83.1734317,7.78616815 83.1734317,8.08305656 Z M88.0565806,7.68911045 L88.6100861,7.68911045 L90.0430504,5.04282023 L90.6765068,5.04282023 L89.1205412,7.98028801 L90.8179582,11.1232929 L90.1845018,11.1232929 L88.6715867,8.37423413 L88.0565806,8.37423413 L88.0565806,11.1232929 L87.503075,11.1232929 L87.503075,5.04282023 L88.0565806,5.04282023 L88.0565806,7.68911045 Z M92.6506765,5.04282023 L93.1180812,5.04282023 L94.901599,11.1232929 L94.3111931,11.1232929 L93.7945879,9.34197132 L91.9618696,9.34197132 L91.4514145,11.1232929 L90.8610086,11.1232929 L92.6506765,5.04282023 Z M93.6715867,8.7424881 L92.8843788,5.93348101 L92.0725707,8.7424881 L93.6715867,8.7424881 Z M95.2214022,5.76220009 C95.3608043,5.50527743 95.5258293,5.31401565 95.7164822,5.18840901 C95.907135,5.06280238 96.14391,5 96.4268143,5 C96.8327204,5 97.1473954,5.1227501 97.3708487,5.36825398 C97.5943021,5.61375786 97.7060271,5.97058954 97.7060271,6.43875973 C97.7060271,6.78703267 97.6445271,7.08534396 97.5215252,7.33370254 C97.3985234,7.58206111 97.2263234,7.74334903 97.00492,7.81757114 C97.2755241,7.86324628 97.4928241,8.01454291 97.6568266,8.27146557 C97.820829,8.52838824 97.902829,8.86238269 97.902829,9.27345896 C97.902829,9.5475098 97.864904,9.80014663 97.7890529,10.031377 C97.7132018,10.2626074 97.6076268,10.4624332 97.4723247,10.6308602 C97.3370227,10.7992873 97.1771227,10.9306014 96.9926199,11.0248064 C96.8081172,11.1190113 96.6072172,11.1661131 96.3899139,11.1661131 C96.0988095,11.1661131 95.8405095,11.0833282 95.6150062,10.9177558 C95.3895028,10.7521834 95.2173028,10.5181018 95.098401,10.215504 L95.5412054,9.76160958 C95.6355068,9.9785665 95.7523568,10.1498457 95.8917589,10.2754523 C96.031161,10.401059 96.205411,10.4638614 96.4145141,10.4638614 C96.5498162,10.4638614 96.6738412,10.4353148 96.7865929,10.3782209 C96.8993446,10.321127 96.9967196,10.242624 97.0787208,10.1427096 C97.160722,10.0427953 97.225297,9.92289981 97.2724477,9.78301969 C97.3195984,9.64313958 97.3431734,9.49041562 97.3431734,9.32484323 C97.3431734,8.9651515 97.2396484,8.68111348 97.0325953,8.47272065 C96.8255422,8.26432783 96.5375172,8.16013298 96.1685117,8.16013298 L95.8364084,8.16013298 L95.8364084,7.4750093 L96.1685117,7.4750093 C96.4760163,7.4750093 96.7179163,7.38936969 96.8942189,7.21808792 C97.0705216,7.04680614 97.1586716,6.80701525 97.1586716,6.49870805 C97.1586716,6.21894782 97.0899966,6.01055811 96.9526445,5.87353269 C96.8152925,5.73650727 96.6420675,5.66799559 96.4329643,5.66799559 C96.2484616,5.66799559 96.0824116,5.71795202 95.9348093,5.81786639 C95.7872071,5.91778076 95.6724071,6.05908611 95.5904059,6.24178667 L95.2214022,5.76220009 Z M100.00615,5.04282023 L100.473555,5.04282023 L102.257073,11.1232929 L101.666667,11.1232929 L101.150062,9.34197132 L99.3173432,9.34197132 L98.8068881,11.1232929 L98.2164822,11.1232929 L100.00615,5.04282023 Z M101.02706,8.7424881 L100.239852,5.93348101 L99.4280443,8.7424881 L101.02706,8.7424881 Z M106.365314,5.04282023 L106.365314,11.1232929 L105.811808,11.1232929 L105.811808,8.35710603 L103.407134,8.35710603 L103.407134,11.1232929 L102.853629,11.1232929 L102.853629,5.04282023 L103.407134,5.04282023 L103.407134,7.67198235 L105.811808,7.67198235 L105.811808,5.04282023 L106.365314,5.04282023 Z M107.98893,9.95001859 L110.516605,5.04282023 L110.97171,5.04282023 L110.97171,11.1232929 L110.418204,11.1232929 L110.418204,6.30173499 L107.933579,11.1232929 L107.435424,11.1232929 L107.435424,5.04282023 L107.98893,5.04282023 L107.98893,9.95001859 Z M114.335793,11.1232929 L114.335793,8.76818024 L113.327183,8.76818024 L112.324723,11.1232929 L111.678967,11.1232929 L112.761378,8.65684764 C112.634276,8.59404433 112.516401,8.50412274 112.407749,8.38708019 C112.299097,8.27003765 112.205822,8.13444161 112.127921,7.98028801 C112.05002,7.82613441 111.989545,7.65770986 111.946494,7.4750093 C111.903444,7.29230873 111.881919,7.10104695 111.881919,6.90121821 C111.881919,6.67284251 111.914719,6.44732489 111.98032,6.22465858 C112.045921,6.00199227 112.137146,5.80359385 112.253998,5.62945738 C112.370849,5.45532091 112.510249,5.31401556 112.672202,5.2055371 C112.834154,5.09705865 113.011479,5.04282023 113.204182,5.04282023 L114.889299,5.04282023 L114.889299,11.1232929 L114.335793,11.1232929 Z M114.335793,5.72794391 L113.234932,5.72794391 C113.128331,5.72794391 113.026856,5.7593451 112.930504,5.82214842 C112.834153,5.88495173 112.750103,5.96916401 112.678352,6.07478777 C112.606601,6.18041154 112.549201,6.30458896 112.50615,6.44732377 C112.463099,6.59005859 112.441574,6.74135522 112.441574,6.90121821 C112.441574,7.05537181 112.460024,7.20381379 112.496925,7.34654861 C112.533826,7.48928342 112.585076,7.61488817 112.650677,7.72336663 C112.716277,7.83184509 112.795202,7.91891202 112.887454,7.98457003 C112.979705,8.05022805 113.08323,8.08305656 113.198032,8.08305656 L114.335793,8.08305656 L114.335793,5.72794391 Z M115.817958,11.1232929 L115.817958,10.1641197 L116.273063,10.1641197 L116.273063,11.1232929 L115.817958,11.1232929 Z M122.269373,5.04282023 L122.269373,11.1232929 L121.715867,11.1232929 L121.715867,8.35710603 L119.311193,8.35710603 L119.311193,11.1232929 L118.757688,11.1232929 L118.757688,5.04282023 L119.311193,5.04282023 L119.311193,7.67198235 L121.715867,7.67198235 L121.715867,5.04282023 L122.269373,5.04282023 Z M126.303813,10.4381692 L126.303813,11.1232929 L123.339483,11.1232929 L123.339483,5.04282023 L126.248462,5.04282023 L126.248462,5.72794391 L123.892989,5.72794391 L123.892989,7.69767449 L125.940959,7.69767449 L125.940959,8.33997794 L123.892989,8.33997794 L123.892989,10.4381692 L126.303813,10.4381692 Z M128.831488,11.1661131 C128.523984,11.1661131 128.244159,11.0790462 127.992005,10.9049097 C127.739851,10.7307732 127.523576,10.4995463 127.343173,10.211222 C127.162771,9.92289767 127.023371,9.5931852 126.924969,9.22207468 C126.826568,8.85096416 126.777368,8.47129525 126.777368,8.08305656 C126.777368,7.67768969 126.829643,7.28945682 126.934194,6.9183463 C127.038746,6.54723579 127.183271,6.21895064 127.367774,5.93348101 C127.552276,5.64801139 127.770601,5.42106644 128.022755,5.25263936 C128.274909,5.08421228 128.548584,5 128.843788,5 C129.151293,5 129.430093,5.08992158 129.680197,5.26976745 C129.930301,5.44961331 130.145551,5.68512222 130.325953,5.97630124 C130.506356,6.26748026 130.645756,6.59719274 130.744157,6.96544856 C130.842559,7.33370438 130.891759,7.70909131 130.891759,8.09162061 C130.891759,8.49698748 130.839484,8.88522035 130.734932,9.25633086 C130.630381,9.62744138 130.486881,9.9542992 130.304428,10.2369141 C130.121975,10.5195291 129.904675,10.7450467 129.652522,10.9134738 C129.400368,11.0819008 129.126693,11.1661131 128.831488,11.1661131 Z M127.337023,8.08305656 C127.337023,8.39136376 127.372898,8.68967505 127.444649,8.97799937 C127.516401,9.26632369 127.617876,9.52181518 127.749077,9.74448149 C127.880279,9.9671478 128.038129,10.1441363 128.222632,10.2754523 C128.407135,10.4067684 128.612135,10.4724254 128.837638,10.4724254 C129.071342,10.4724254 129.280442,10.4024864 129.464945,10.2626063 C129.649447,10.1227262 129.806272,9.94002833 129.935424,9.71450733 C130.064576,9.48898632 130.162976,9.23349484 130.230627,8.94802521 C130.298278,8.66255558 130.332103,8.37423558 130.332103,8.08305656 C130.332103,7.77474936 130.296228,7.47643808 130.224477,7.18811375 C130.152726,6.89978943 130.050226,6.64572527 129.916974,6.42591366 C129.783722,6.20610205 129.625872,6.03054086 129.443419,5.89922483 C129.260967,5.7679088 129.059042,5.70225177 128.837638,5.70225177 C128.603935,5.70225177 128.394835,5.77076346 128.210332,5.90778888 C128.025829,6.0448143 127.869004,6.22465747 127.739852,6.44732377 C127.6107,6.66999008 127.511275,6.92405424 127.441574,7.20952387 C127.371873,7.4949935 127.337023,7.78616815 127.337023,8.08305656 Z M131.666667,5.04282023 L134.735547,5.04282023 L134.735547,5.72794391 L132.220172,5.72794391 L132.220172,7.54352166 L133.677737,7.54352166 C133.854039,7.54352166 134.019064,7.58205948 134.172817,7.65913628 C134.326569,7.73621308 134.461869,7.8489719 134.578721,7.9974161 C134.695573,8.14586031 134.787823,8.33284011 134.855474,8.55836111 C134.923125,8.78388212 134.95695,9.04222826 134.95695,9.33340728 C134.95695,9.6245863 134.923125,9.88293244 134.855474,10.1084534 C134.787823,10.3339744 134.696598,10.5209542 134.581796,10.6693985 C134.466994,10.8178427 134.331694,10.9306015 134.175892,11.0076783 C134.020089,11.0847551 133.854039,11.1232929 133.677737,11.1232929 L131.666667,11.1232929 L131.666667,5.04282023 Z M133.677737,10.4552973 C133.91144,10.4552973 134.08979,10.3539571 134.212792,10.1512737 C134.335794,9.94859024 134.397294,9.67597083 134.397294,9.33340728 C134.397294,8.99084373 134.336819,8.71822432 134.215867,8.51554088 C134.094915,8.31285745 133.91554,8.21151725 133.677737,8.21151725 L132.220172,8.21151725 L132.220172,10.4552973 L133.677737,10.4552973 Z M135.811808,5.04282023 L137.140221,7.57777785 L138.468635,5.04282023 L139.077491,5.04282023 L137.435424,8.12587679 L139.02829,11.1232929 L138.419434,11.1232929 L137.140221,8.67397574 L135.861009,11.1232929 L135.246002,11.1232929 L136.838868,8.12587679 L135.196802,5.04282023 L135.811808,5.04282023 Z M141.396064,11.1661131 C141.088559,11.1661131 140.808734,11.0790462 140.556581,10.9049097 C140.304427,10.7307732 140.088152,10.4995463 139.907749,10.211222 C139.727346,9.92289767 139.587946,9.5931852 139.489545,9.22207468 C139.391143,8.85096416 139.341943,8.47129525 139.341943,8.08305656 C139.341943,7.67768969 139.394218,7.28945682 139.49877,6.9183463 C139.603322,6.54723579 139.747847,6.21895064 139.932349,5.93348101 C140.116852,5.64801139 140.335177,5.42106644 140.587331,5.25263936 C140.839485,5.08421228 141.11316,5 141.408364,5 C141.715869,5 141.994669,5.08992158 142.244772,5.26976745 C142.494876,5.44961331 142.710126,5.68512222 142.890529,5.97630124 C143.070932,6.26748026 143.210332,6.59719274 143.308733,6.96544856 C143.407135,7.33370438 143.456335,7.70909131 143.456335,8.09162061 C143.456335,8.49698748 143.40406,8.88522035 143.299508,9.25633086 C143.194956,9.62744138 143.051456,9.9542992 142.869004,10.2369141 C142.686551,10.5195291 142.469251,10.7450467 142.217097,10.9134738 C141.964943,11.0819008 141.691268,11.1661131 141.396064,11.1661131 Z M139.901599,8.08305656 C139.901599,8.39136376 139.937474,8.68967505 140.009225,8.97799937 C140.080976,9.26632369 140.182451,9.52181518 140.313653,9.74448149 C140.444855,9.9671478 140.602705,10.1441363 140.787208,10.2754523 C140.971711,10.4067684 141.176711,10.4724254 141.402214,10.4724254 C141.635918,10.4724254 141.845018,10.4024864 142.02952,10.2626063 C142.214023,10.1227262 142.370848,9.94002833 142.5,9.71450733 C142.629152,9.48898632 142.727552,9.23349484 142.795203,8.94802521 C142.862854,8.66255558 142.896679,8.37423558 142.896679,8.08305656 C142.896679,7.77474936 142.860804,7.47643808 142.789053,7.18811375 C142.717302,6.89978943 142.614802,6.64572527 142.48155,6.42591366 C142.348298,6.20610205 142.190448,6.03054086 142.007995,5.89922483 C141.825542,5.7679088 141.623617,5.70225177 141.402214,5.70225177 C141.168511,5.70225177 140.959411,5.77076346 140.774908,5.90778888 C140.590405,6.0448143 140.43358,6.22465747 140.304428,6.44732377 C140.175276,6.66999008 140.075851,6.92405424 140.00615,7.20952387 C139.936449,7.4949935 139.901599,7.78616815 139.901599,8.08305656 Z M143.806888,10.4381692 L143.862239,10.4381692 C143.94834,10.4324598 144.03034,10.4110499 144.108241,10.3739389 C144.186142,10.3368278 144.257892,10.2697435 144.323493,10.1726838 C144.389094,10.0756241 144.450594,9.94002807 144.507995,9.7658916 C144.565396,9.59175513 144.618696,9.36766483 144.667897,9.09361399 C144.717097,8.81956315 144.761172,8.48699602 144.800123,8.09590263 C144.839074,7.70480924 144.874949,7.24092805 144.907749,6.70424515 L145.00615,5.04282023 L147.318573,5.04282023 L147.318573,10.4381692 L147.99508,10.4381692 L147.99508,12.7162055 L147.503075,12.7162055 L147.503075,11.1232929 L144.298893,11.1232929 L144.298893,12.7162055 L143.806888,12.7162055 L143.806888,10.4381692 Z M146.765068,10.4381692 L146.765068,5.72794391 L145.522755,5.72794391 L145.461255,6.73850134 C145.399754,7.76048261 145.312629,8.56692221 145.199877,9.15784434 C145.087125,9.74876646 144.93645,10.1755372 144.747847,10.4381692 L146.765068,10.4381692 Z M149.188192,9.95001859 L151.715867,5.04282023 L152.170972,5.04282023 L152.170972,11.1232929 L151.617466,11.1232929 L151.617466,6.30173499 L149.132841,11.1232929 L148.634686,11.1232929 L148.634686,5.04282023 L149.188192,5.04282023 L149.188192,9.95001859 Z M155.00615,11.1661131 C154.698645,11.1661131 154.41882,11.0790462 154.166667,10.9049097 C153.914513,10.7307732 153.698238,10.4995463 153.517835,10.211222 C153.337432,9.92289767 153.198032,9.5931852 153.099631,9.22207468 C153.00123,8.85096416 152.95203,8.47129525 152.95203,8.08305656 C152.95203,7.67768969 153.004305,7.28945682 153.108856,6.9183463 C153.213408,6.54723579 153.357933,6.21895064 153.542435,5.93348101 C153.726938,5.64801139 153.945263,5.42106644 154.197417,5.25263936 C154.449571,5.08421228 154.723246,5 155.01845,5 C155.325955,5 155.604755,5.08992158 155.854859,5.26976745 C156.104962,5.44961331 156.320212,5.68512222 156.500615,5.97630124 C156.681018,6.26748026 156.820418,6.59719274 156.918819,6.96544856 C157.017221,7.33370438 157.066421,7.70909131 157.066421,8.09162061 C157.066421,8.49698748 157.014146,8.88522035 156.909594,9.25633086 C156.805043,9.62744138 156.661543,9.9542992 156.47909,10.2369141 C156.296637,10.5195291 156.079337,10.7450467 155.827183,10.9134738 C155.575029,11.0819008 155.301354,11.1661131 155.00615,11.1661131 Z M153.511685,8.08305656 C153.511685,8.39136376 153.54756,8.68967505 153.619311,8.97799937 C153.691062,9.26632369 153.792537,9.52181518 153.923739,9.74448149 C154.054941,9.9671478 154.212791,10.1441363 154.397294,10.2754523 C154.581797,10.4067684 154.786797,10.4724254 155.0123,10.4724254 C155.246004,10.4724254 155.455104,10.4024864 155.639606,10.2626063 C155.824109,10.1227262 155.980934,9.94002833 156.110086,9.71450733 C156.239238,9.48898632 156.337638,9.23349484 156.405289,8.94802521 C156.47294,8.66255558 156.506765,8.37423558 156.506765,8.08305656 C156.506765,7.77474936 156.47089,7.47643808 156.399139,7.18811375 C156.327388,6.89978943 156.224888,6.64572527 156.091636,6.42591366 C155.958384,6.20610205 155.800534,6.03054086 155.618081,5.89922483 C155.435628,5.7679088 155.233703,5.70225177 155.0123,5.70225177 C154.778597,5.70225177 154.569497,5.77076346 154.384994,5.90778888 C154.200491,6.0448143 154.043666,6.22465747 153.914514,6.44732377 C153.785362,6.66999008 153.685937,6.92405424 153.616236,7.20952387 C153.546535,7.4949935 153.511685,7.78616815 153.511685,8.08305656 Z M159.397294,5.04282023 L162.878229,5.04282023 L162.878229,11.1232929 L162.324723,11.1232929 L162.324723,5.72794391 L159.9508,5.72794391 L159.9508,11.1232929 L159.397294,11.1232929 L159.397294,5.04282023 Z M163.948339,11.1232929 L163.948339,5.04282023 L165.768758,5.04282023 C165.961461,5.04282023 166.138786,5.09848597 166.300738,5.20981913 C166.46269,5.32115228 166.60209,5.46959426 166.718942,5.65514952 C166.835794,5.84070478 166.927019,6.04909448 166.99262,6.28032488 C167.058221,6.51155528 167.091021,6.74706419 167.091021,6.98685867 C167.091021,7.23807195 167.060271,7.48071749 166.99877,7.71480258 C166.937269,7.94888768 166.850144,8.15727738 166.737392,8.33997794 C166.624641,8.5226785 166.489341,8.66826583 166.331488,8.77674429 C166.173636,8.88522275 165.998361,8.93946116 165.805658,8.93946116 L164.501845,8.93946116 L164.501845,11.1232929 L163.948339,11.1232929 Z M164.501845,8.25433748 L165.774908,8.25433748 C165.889709,8.25433748 165.993234,8.22150897 166.085486,8.15585095 C166.177737,8.09019294 166.256662,7.99884403 166.322263,7.88180148 C166.387864,7.76475893 166.439114,7.62916289 166.476015,7.4750093 C166.512915,7.3208557 166.531365,7.15814045 166.531365,6.98685867 C166.531365,6.8098675 166.50984,6.6442976 166.46679,6.490144 C166.423739,6.33599041 166.366339,6.20182169 166.294588,6.08763384 C166.222837,5.97344599 166.138787,5.88495173 166.042435,5.82214842 C165.946084,5.7593451 165.844609,5.72794391 165.738007,5.72794391 L164.501845,5.72794391 L164.501845,8.25433748 Z M169.557196,11.1661131 C169.249691,11.1661131 168.969866,11.0790462 168.717712,10.9049097 C168.465558,10.7307732 168.249283,10.4995463 168.068881,10.211222 C167.888478,9.92289767 167.749078,9.5931852 167.650677,9.22207468 C167.552275,8.85096416 167.503075,8.47129525 167.503075,8.08305656 C167.503075,7.67768969 167.55535,7.28945682 167.659902,6.9183463 C167.764453,6.54723579 167.908978,6.21895064 168.093481,5.93348101 C168.277984,5.64801139 168.496309,5.42106644 168.748462,5.25263936 C169.000616,5.08421228 169.274291,5 169.569496,5 C169.877,5 170.1558,5.08992158 170.405904,5.26976745 C170.656008,5.44961331 170.871258,5.68512222 171.051661,5.97630124 C171.232063,6.26748026 171.371463,6.59719274 171.469865,6.96544856 C171.568266,7.33370438 171.617466,7.70909131 171.617466,8.09162061 C171.617466,8.49698748 171.565191,8.88522035 171.46064,9.25633086 C171.356088,9.62744138 171.212588,9.9542992 171.030135,10.2369141 C170.847683,10.5195291 170.630383,10.7450467 170.378229,10.9134738 C170.126075,11.0819008 169.8524,11.1661131 169.557196,11.1661131 Z M168.062731,8.08305656 C168.062731,8.39136376 168.098606,8.68967505 168.170357,8.97799937 C168.242108,9.26632369 168.343583,9.52181518 168.474785,9.74448149 C168.605987,9.9671478 168.763837,10.1441363 168.948339,10.2754523 C169.132842,10.4067684 169.337842,10.4724254 169.563346,10.4724254 C169.797049,10.4724254 170.006149,10.4024864 170.190652,10.2626063 C170.375155,10.1227262 170.53198,9.94002833 170.661132,9.71450733 C170.790284,9.48898632 170.888684,9.23349484 170.956335,8.94802521 C171.023986,8.66255558 171.057811,8.37423558 171.057811,8.08305656 C171.057811,7.77474936 171.021936,7.47643808 170.950185,7.18811375 C170.878433,6.89978943 170.775933,6.64572527 170.642681,6.42591366 C170.509429,6.20610205 170.351579,6.03054086 170.169127,5.89922483 C169.986674,5.7679088 169.784749,5.70225177 169.563346,5.70225177 C169.329642,5.70225177 169.120542,5.77076346 168.936039,5.90778888 C168.751537,6.0448143 168.594712,6.22465747 168.46556,6.44732377 C168.336408,6.66999008 168.236983,6.92405424 168.167282,7.20952387 C168.097581,7.4949935 168.062731,7.78616815 168.062731,8.08305656 Z M172.945879,7.68911045 L173.499385,7.68911045 L174.932349,5.04282023 L175.565806,5.04282023 L174.00984,7.98028801 L175.707257,11.1232929 L175.073801,11.1232929 L173.560886,8.37423413 L172.945879,8.37423413 L172.945879,11.1232929 L172.392374,11.1232929 L172.392374,5.04282023 L172.945879,5.04282023 L172.945879,7.68911045 Z M177.98893,11.1661131 C177.681425,11.1661131 177.4016,11.0790462 177.149446,10.9049097 C176.897293,10.7307732 176.681018,10.4995463 176.500615,10.211222 C176.320212,9.92289767 176.180812,9.5931852 176.082411,9.22207468 C175.984009,8.85096416 175.934809,8.47129525 175.934809,8.08305656 C175.934809,7.67768969 175.987084,7.28945682 176.091636,6.9183463 C176.196187,6.54723579 176.340712,6.21895064 176.525215,5.93348101 C176.709718,5.64801139 176.928043,5.42106644 177.180197,5.25263936 C177.432351,5.08421228 177.706026,5 178.00123,5 C178.308735,5 178.587535,5.08992158 178.837638,5.26976745 C179.087742,5.44961331 179.302992,5.68512222 179.483395,5.97630124 C179.663798,6.26748026 179.803198,6.59719274 179.901599,6.96544856 C180,7.33370438 180.0492,7.70909131 180.0492,8.09162061 C180.0492,8.49698748 179.996925,8.88522035 179.892374,9.25633086 C179.787822,9.62744138 179.644322,9.9542992 179.46187,10.2369141 C179.279417,10.5195291 179.062117,10.7450467 178.809963,10.9134738 C178.557809,11.0819008 178.284134,11.1661131 177.98893,11.1661131 Z M176.494465,8.08305656 C176.494465,8.39136376 176.53034,8.68967505 176.602091,8.97799937 C176.673842,9.26632369 176.775317,9.52181518 176.906519,9.74448149 C177.037721,9.9671478 177.195571,10.1441363 177.380074,10.2754523 C177.564577,10.4067684 177.769577,10.4724254 177.99508,10.4724254 C178.228783,10.4724254 178.437883,10.4024864 178.622386,10.2626063 C178.806889,10.1227262 178.963714,9.94002833 179.092866,9.71450733 C179.222018,9.48898632 179.320418,9.23349484 179.388069,8.94802521 C179.45572,8.66255558 179.489545,8.37423558 179.489545,8.08305656 C179.489545,7.77474936 179.45367,7.47643808 179.381919,7.18811375 C179.310168,6.89978943 179.207668,6.64572527 179.074416,6.42591366 C178.941164,6.20610205 178.783314,6.03054086 178.600861,5.89922483 C178.418408,5.7679088 178.216483,5.70225177 177.99508,5.70225177 C177.761376,5.70225177 177.552276,5.77076346 177.367774,5.90778888 C177.183271,6.0448143 177.026446,6.22465747 176.897294,6.44732377 C176.768142,6.66999008 176.668717,6.92405424 176.599016,7.20952387 C176.529315,7.4949935 176.494465,7.78616815 176.494465,8.08305656 Z M184.335793,5.04282023 L184.335793,11.1232929 L183.782288,11.1232929 L183.782288,8.35710603 L181.377614,8.35710603 L181.377614,11.1232929 L180.824108,11.1232929 L180.824108,5.04282023 L181.377614,5.04282023 L181.377614,7.67198235 L183.782288,7.67198235 L183.782288,5.04282023 L184.335793,5.04282023 Z M185.110701,8.04023633 C185.110701,7.67483521 185.156826,7.31086689 185.249077,6.94832047 C185.341329,6.58577404 185.476629,6.26034355 185.654982,5.97201922 C185.833334,5.6836949 186.051659,5.45104064 186.309963,5.27404947 C186.568267,5.0970583 186.861417,5.00856405 187.189422,5.00856405 C187.578928,5.00856405 187.913078,5.13131414 188.191882,5.37681802 C188.470686,5.6223219 188.677736,5.94204309 188.813038,6.33599118 L188.376384,6.72993729 C188.310783,6.53581795 188.231858,6.3731027 188.139606,6.24178667 C188.047355,6.11047064 187.946905,6.00484846 187.838253,5.92491697 C187.729602,5.84498547 187.617877,5.7878924 187.503075,5.75363605 C187.388273,5.71937969 187.275523,5.70225177 187.164822,5.70225177 C186.922918,5.70225177 186.708693,5.77219078 186.52214,5.9120709 C186.335587,6.05195102 186.178762,6.23464884 186.051661,6.46016984 C185.924559,6.68569085 185.829234,6.93975501 185.765683,7.22236994 C185.702132,7.50498487 185.670357,7.78902289 185.670357,8.07449252 C185.670357,8.3942185 185.708282,8.69823909 185.784133,8.98656342 C185.859984,9.27488774 185.965559,9.53037922 186.100861,9.75304553 C186.236163,9.97571184 186.396063,10.1527004 186.580566,10.2840164 C186.765069,10.4153324 186.965969,10.4809894 187.183272,10.4809894 C187.298074,10.4809894 187.415949,10.4610069 187.5369,10.4210411 C187.657852,10.3810754 187.773677,10.3168457 187.884379,10.2283501 C187.995081,10.1398545 188.098606,10.028523 188.194957,9.89435229 C188.291308,9.76018157 188.370233,9.59889365 188.431734,9.41048369 L188.892989,9.76160958 C188.823288,9.98998528 188.725913,10.1912383 188.600861,10.3653748 C188.475809,10.5395113 188.334359,10.6865259 188.176507,10.8064232 C188.018654,10.9263204 187.851579,11.0176693 187.675277,11.0804727 C187.498974,11.143276 187.326774,11.1746772 187.158672,11.1746772 C186.859367,11.1746772 186.584667,11.0833283 186.334563,10.9006277 C186.08446,10.7179271 185.868185,10.4795636 185.685732,10.1855299 C185.503279,9.89149614 185.361829,9.55750169 185.261378,9.18353647 C185.160926,8.80957126 185.110701,8.42847502 185.110701,8.04023633 Z M190.104551,11.1832412 C190.02665,11.1832412 189.94055,11.1732499 189.846248,11.1532671 C189.751947,11.1332842 189.671997,11.1033103 189.606396,11.0633446 L189.606396,10.403913 C189.676097,10.4438788 189.752972,10.4724253 189.837023,10.4895535 C189.921075,10.5066817 189.99795,10.5152456 190.067651,10.5152456 C190.207053,10.5152456 190.331078,10.4552979 190.439729,10.3354007 C190.548381,10.2155034 190.656006,9.97856718 190.762608,9.62458484 L189.175892,5.04282023 L189.760148,5.04282023 L191.02091,8.78530833 L192.214022,5.04282023 L192.798278,5.04282023 L191.260763,9.66740507 C191.170561,9.94145591 191.082411,10.1741102 190.99631,10.3653748 C190.910209,10.5566395 190.822059,10.7136454 190.731857,10.8363974 C190.641656,10.9591493 190.545306,11.0476435 190.442804,11.1018828 C190.340303,11.156122 190.227553,11.1832412 190.104551,11.1832412 Z M194.532595,6.73850134 C194.483395,7.52639751 194.421895,8.20009573 194.348093,8.7596162 C194.274292,9.31913667 194.177942,9.77873587 194.059041,10.1384276 C193.940139,10.4981193 193.797664,10.7621748 193.631611,10.9306019 C193.465559,11.0990289 193.265684,11.1832412 193.03198,11.1832412 L192.933579,10.4381692 C193.019681,10.4324598 193.101681,10.4110499 193.179582,10.3739389 C193.257483,10.3368278 193.329233,10.2697435 193.394834,10.1726838 C193.460435,10.0756241 193.521935,9.94002807 193.579336,9.7658916 C193.636737,9.59175513 193.690037,9.36766483 193.739237,9.09361399 C193.788438,8.81956315 193.832513,8.48699602 193.871464,8.09590263 C193.910414,7.70480924 193.946289,7.24092805 193.97909,6.70424515 L194.077491,5.04282023 L196.389914,5.04282023 L196.389914,11.1232929 L195.836408,11.1232929 L195.836408,5.72794391 L194.594096,5.72794391 L194.532595,6.73850134 Z M197.466175,5.04282023 L198.01968,5.04282023 L198.01968,7.28660028 L198.95449,7.28660028 C199.159493,7.28660028 199.351168,7.32799276 199.52952,7.41077895 C199.707873,7.49356514 199.862648,7.61488791 199.99385,7.77475091 C200.125052,7.9346139 200.228577,8.13443964 200.304428,8.37423413 C200.380279,8.61402861 200.418204,8.89093 200.418204,9.20494659 C200.418204,9.51896318 200.379254,9.79586456 200.301353,10.0356591 C200.223452,10.2754535 200.117877,10.4752793 199.984625,10.6351423 C199.851373,10.7950053 199.695573,10.916328 199.51722,10.9991142 C199.338867,11.0819004 199.151292,11.1232929 198.95449,11.1232929 L197.466175,11.1232929 L197.466175,5.04282023 Z M198.01968,10.4552973 L198.95449,10.4552973 C199.257894,10.4552973 199.484419,10.3425385 199.634071,10.1170175 C199.783724,9.89149648 199.858549,9.58747589 199.858549,9.20494659 C199.858549,8.82241729 199.780649,8.51839669 199.624846,8.29287569 C199.469044,8.06735468 199.245594,7.95459587 198.95449,7.95459587 L198.01968,7.95459587 L198.01968,10.4552973 Z M204.261993,5.72794391 L202.755228,5.72794391 L202.755228,11.1232929 L202.201722,11.1232929 L202.201722,5.72794391 L200.694957,5.72794391 L200.694957,5.04282023 L204.261993,5.04282023 L204.261993,5.72794391 Z M205.455105,9.95001859 L207.98278,5.04282023 L208.437884,5.04282023 L208.437884,11.1232929 L207.884379,11.1232929 L207.884379,6.30173499 L205.399754,11.1232929 L204.901599,11.1232929 L204.901599,5.04282023 L205.455105,5.04282023 L205.455105,9.95001859 Z M209.507995,11.1232929 L209.507995,5.04282023 L211.328413,5.04282023 C211.521116,5.04282023 211.698441,5.09848597 211.860394,5.20981913 C212.022346,5.32115228 212.161746,5.46959426 212.278598,5.65514952 C212.39545,5.84070478 212.486675,6.04909448 212.552276,6.28032488 C212.617877,6.51155528 212.650677,6.74706419 212.650677,6.98685867 C212.650677,7.23807195 212.619927,7.48071749 212.558426,7.71480258 C212.496925,7.94888768 212.4098,8.15727738 212.297048,8.33997794 C212.184296,8.5226785 212.048996,8.66826583 211.891144,8.77674429 C211.733292,8.88522275 211.558017,8.93946116 211.365314,8.93946116 L210.061501,8.93946116 L210.061501,11.1232929 L209.507995,11.1232929 Z M210.061501,8.25433748 L211.334563,8.25433748 C211.449365,8.25433748 211.55289,8.22150897 211.645141,8.15585095 C211.737393,8.09019294 211.816318,7.99884403 211.881919,7.88180148 C211.94752,7.76475893 211.99877,7.62916289 212.03567,7.4750093 C212.072571,7.3208557 212.091021,7.15814045 212.091021,6.98685867 C212.091021,6.8098675 212.069496,6.6442976 212.026445,6.490144 C211.983395,6.33599041 211.925995,6.20182169 211.854244,6.08763384 C211.782492,5.97344599 211.698442,5.88495173 211.602091,5.82214842 C211.50574,5.7593451 211.404265,5.72794391 211.297663,5.72794391 L210.061501,5.72794391 L210.061501,8.25433748 Z M215.116851,11.1661131 C214.809347,11.1661131 214.529522,11.0790462 214.277368,10.9049097 C214.025214,10.7307732 213.808939,10.4995463 213.628536,10.211222 C213.448134,9.92289767 213.308734,9.5931852 213.210332,9.22207468 C213.111931,8.85096416 213.062731,8.47129525 213.062731,8.08305656 C213.062731,7.67768969 213.115006,7.28945682 213.219557,6.9183463 C213.324109,6.54723579 213.468634,6.21895064 213.653137,5.93348101 C213.837639,5.64801139 214.055964,5.42106644 214.308118,5.25263936 C214.560272,5.08421228 214.833947,5 215.129151,5 C215.436656,5 215.715456,5.08992158 215.96556,5.26976745 C216.215663,5.44961331 216.430913,5.68512222 216.611316,5.97630124 C216.791719,6.26748026 216.931119,6.59719274 217.02952,6.96544856 C217.127922,7.33370438 217.177122,7.70909131 217.177122,8.09162061 C217.177122,8.49698748 217.124847,8.88522035 217.020295,9.25633086 C216.915744,9.62744138 216.772244,9.9542992 216.589791,10.2369141 C216.407338,10.5195291 216.190038,10.7450467 215.937884,10.9134738 C215.685731,11.0819008 215.412056,11.1661131 215.116851,11.1661131 Z M213.622386,8.08305656 C213.622386,8.39136376 213.658261,8.68967505 213.730012,8.97799937 C213.801763,9.26632369 213.903238,9.52181518 214.03444,9.74448149 C214.165642,9.9671478 214.323492,10.1441363 214.507995,10.2754523 C214.692498,10.4067684 214.897498,10.4724254 215.123001,10.4724254 C215.356705,10.4724254 215.565805,10.4024864 215.750308,10.2626063 C215.93481,10.1227262 216.091635,9.94002833 216.220787,9.71450733 C216.349939,9.48898632 216.448339,9.23349484 216.51599,8.94802521 C216.583641,8.66255558 216.617466,8.37423558 216.617466,8.08305656 C216.617466,7.77474936 216.581591,7.47643808 216.50984,7.18811375 C216.438089,6.89978943 216.335589,6.64572527 216.202337,6.42591366 C216.069085,6.20610205 215.911235,6.03054086 215.728782,5.89922483 C215.54633,5.7679088 215.344405,5.70225177 215.123001,5.70225177 C214.889298,5.70225177 214.680198,5.77076346 214.495695,5.90778888 C214.311192,6.0448143 214.154367,6.22465747 214.025215,6.44732377 C213.896063,6.66999008 213.796638,6.92405424 213.726937,7.20952387 C213.657236,7.4949935 213.622386,7.78616815 213.622386,8.08305656 Z M221.180812,9.55607247 C221.180812,9.79015757 221.146987,10.0042566 221.079336,10.1983759 C221.011685,10.3924953 220.919435,10.5580652 220.802583,10.6950906 C220.685731,10.832116 220.550431,10.9377382 220.396679,11.0119603 C220.242927,11.0861824 220.077902,11.1232929 219.901599,11.1232929 L217.829028,11.1232929 L217.829028,5.04282023 L220,5.04282023 C220.151702,5.04282023 220.289052,5.08849469 220.412054,5.17984497 C220.535056,5.27119525 220.639606,5.38966337 220.725707,5.53525288 C220.811809,5.68084239 220.878434,5.84641229 220.925584,6.03196754 C220.972735,6.2175228 220.99631,6.4045026 220.99631,6.59291256 C220.99631,6.89551036 220.941985,7.1752664 220.833333,7.43218907 C220.724682,7.68911173 220.569907,7.88037351 220.369004,8.00598015 C220.619107,8.10874921 220.816932,8.29858367 220.962485,8.57548921 C221.108037,8.85239475 221.180812,9.17925257 221.180812,9.55607247 Z M220.621156,9.41904774 C220.621156,9.28202232 220.603731,9.14928093 220.568881,9.0208196 C220.53403,8.89235827 220.48688,8.77959946 220.427429,8.68253978 C220.367978,8.58548011 220.297253,8.50840447 220.215252,8.45131054 C220.133251,8.39421661 220.043051,8.36567008 219.944649,8.36567008 L218.382534,8.36567008 L218.382534,10.4552973 L219.901599,10.4552973 C220.004101,10.4552973 220.098401,10.4267508 220.184502,10.3696568 C220.270603,10.3125629 220.346453,10.2369146 220.412054,10.1427096 C220.477655,10.0485046 220.528905,9.93860049 220.565806,9.81299385 C220.602706,9.68738722 220.621156,9.55607316 220.621156,9.41904774 Z M218.382534,5.71081582 L218.382534,7.74049472 L219.772448,7.74049472 C219.870849,7.74049472 219.961049,7.71337551 220.04305,7.65913628 C220.125052,7.60489706 220.195777,7.53210339 220.255228,7.44075311 C220.314678,7.34940283 220.361828,7.24235333 220.396679,7.11960139 C220.431529,6.99684945 220.448954,6.86696271 220.448954,6.72993729 C220.448954,6.58720248 220.432554,6.45303377 220.399754,6.32742713 C220.366954,6.20182049 220.322879,6.09334366 220.267528,6.00199338 C220.212177,5.9106431 220.144527,5.83927677 220.064576,5.78789223 C219.984624,5.7365077 219.899549,5.71081582 219.809348,5.71081582 L218.382534,5.71081582 Z M223.407134,5.04282023 L223.874539,5.04282023 L225.658057,11.1232929 L225.067651,11.1232929 L224.551046,9.34197132 L222.718327,9.34197132 L222.207872,11.1232929 L221.617466,11.1232929 L223.407134,5.04282023 Z M224.428044,8.7424881 L223.640836,5.93348101 L222.829028,8.7424881 L224.428044,8.7424881 Z M229.391144,5.72794391 L227.884379,5.72794391 L227.884379,11.1232929 L227.330873,11.1232929 L227.330873,5.72794391 L225.824108,5.72794391 L225.824108,5.04282023 L229.391144,5.04282023 L229.391144,5.72794391 Z M230.03075,5.04282023 L230.584256,5.04282023 L230.584256,7.28660028 L231.519065,7.28660028 C231.724068,7.28660028 231.915743,7.32799276 232.094096,7.41077895 C232.272449,7.49356514 232.427224,7.61488791 232.558426,7.77475091 C232.689628,7.9346139 232.793153,8.13443964 232.869004,8.37423413 C232.944855,8.61402861 232.98278,8.89093 232.98278,9.20494659 C232.98278,9.51896318 232.94383,9.79586456 232.865929,10.0356591 C232.788027,10.2754535 232.682452,10.4752793 232.5492,10.6351423 C232.415948,10.7950053 232.260148,10.916328 232.081796,10.9991142 C231.903443,11.0819004 231.715868,11.1232929 231.519065,11.1232929 L230.03075,11.1232929 L230.03075,5.04282023 Z M230.584256,10.4552973 L231.519065,10.4552973 C231.82247,10.4552973 232.048995,10.3425385 232.198647,10.1170175 C232.348299,9.89149648 232.423124,9.58747589 232.423124,9.20494659 C232.423124,8.82241729 232.345224,8.51839669 232.189422,8.29287569 C232.03362,8.06735468 231.81017,7.95459587 231.519065,7.95459587 L230.584256,7.95459587 L230.584256,10.4552973 Z M233.394834,8.04023633 C233.394834,7.67483521 233.440959,7.31086689 233.53321,6.94832047 C233.625462,6.58577404 233.760762,6.26034355 233.939114,5.97201922 C234.117467,5.6836949 234.335792,5.45104064 234.594096,5.27404947 C234.8524,5.0970583 235.14555,5.00856405 235.473555,5.00856405 C235.863061,5.00856405 236.197211,5.13131414 236.476015,5.37681802 C236.754819,5.6223219 236.961869,5.94204309 237.097171,6.33599118 L236.660517,6.72993729 C236.594916,6.53581795 236.515991,6.3731027 236.423739,6.24178667 C236.331488,6.11047064 236.231038,6.00484846 236.122386,5.92491697 C236.013735,5.84498547 235.90201,5.7878924 235.787208,5.75363605 C235.672406,5.71937969 235.559656,5.70225177 235.448954,5.70225177 C235.207051,5.70225177 234.992826,5.77219078 234.806273,5.9120709 C234.61972,6.05195102 234.462895,6.23464884 234.335793,6.46016984 C234.208691,6.68569085 234.113366,6.93975501 234.049815,7.22236994 C233.986265,7.50498487 233.95449,7.78902289 233.95449,8.07449252 C233.95449,8.3942185 233.992415,8.69823909 234.068266,8.98656342 C234.144117,9.27488774 234.249692,9.53037922 234.384994,9.75304553 C234.520296,9.97571184 234.680196,10.1527004 234.864699,10.2840164 C235.049201,10.4153324 235.250101,10.4809894 235.467405,10.4809894 C235.582206,10.4809894 235.700081,10.4610069 235.821033,10.4210411 C235.941985,10.3810754 236.05781,10.3168457 236.168512,10.2283501 C236.279213,10.1398545 236.382738,10.028523 236.47909,9.89435229 C236.575441,9.76018157 236.654366,9.59889365 236.715867,9.41048369 L237.177122,9.76160958 C237.107421,9.98998528 237.010046,10.1912383 236.884994,10.3653748 C236.759942,10.5395113 236.618492,10.6865259 236.46064,10.8064232 C236.302787,10.9263204 236.135712,11.0176693 235.95941,11.0804727 C235.783107,11.143276 235.610907,11.1746772 235.442804,11.1746772 C235.1435,11.1746772 234.8688,11.0833283 234.618696,10.9006277 C234.368592,10.7179271 234.152317,10.4795636 233.969865,10.1855299 C233.787412,9.89149614 233.645962,9.55750169 233.54551,9.18353647 C233.445059,8.80957126 233.394834,8.42847502 233.394834,8.04023633 Z M240.172202,11.1232929 L240.172202,8.76818024 L239.163592,8.76818024 L238.161132,11.1232929 L237.515375,11.1232929 L238.597786,8.65684764 C238.470684,8.59404433 238.352809,8.50412274 238.244157,8.38708019 C238.135506,8.27003765 238.042231,8.13444161 237.96433,7.98028801 C237.886428,7.82613441 237.825953,7.65770986 237.782903,7.4750093 C237.739852,7.29230873 237.718327,7.10104695 237.718327,6.90121821 C237.718327,6.67284251 237.751127,6.44732489 237.816728,6.22465858 C237.882329,6.00199227 237.973554,5.80359385 238.090406,5.62945738 C238.207258,5.45532091 238.346658,5.31401556 238.50861,5.2055371 C238.670563,5.09705865 238.847888,5.04282023 239.04059,5.04282023 L240.725707,5.04282023 L240.725707,11.1232929 L240.172202,11.1232929 Z M240.172202,5.72794391 L239.071341,5.72794391 C238.964739,5.72794391 238.863264,5.7593451 238.766913,5.82214842 C238.670561,5.88495173 238.586511,5.96916401 238.51476,6.07478777 C238.443009,6.18041154 238.385609,6.30458896 238.342558,6.44732377 C238.299508,6.59005859 238.277983,6.74135522 238.277983,6.90121821 C238.277983,7.05537181 238.296433,7.20381379 238.333333,7.34654861 C238.370234,7.48928342 238.421484,7.61488817 238.487085,7.72336663 C238.552686,7.83184509 238.631611,7.91891202 238.723862,7.98457003 C238.816114,8.05022805 238.919639,8.08305656 239.03444,8.08305656 L240.172202,8.08305656 L240.172202,5.72794391 Z M243.056581,8.04023633 C243.056581,7.67483521 243.102706,7.31086689 243.194957,6.94832047 C243.287208,6.58577404 243.422508,6.26034355 243.600861,5.97201922 C243.779214,5.6836949 243.997539,5.45104064 244.255843,5.27404947 C244.514146,5.0970583 244.807296,5.00856405 245.135301,5.00856405 C245.524807,5.00856405 245.858957,5.13131414 246.137761,5.37681802 C246.416566,5.6223219 246.623616,5.94204309 246.758918,6.33599118 L246.322263,6.72993729 C246.256662,6.53581795 246.177737,6.3731027 246.085486,6.24178667 C245.993234,6.11047064 245.892784,6.00484846 245.784133,5.92491697 C245.675481,5.84498547 245.563756,5.7878924 245.448954,5.75363605 C245.334153,5.71937969 245.221403,5.70225177 245.110701,5.70225177 C244.868797,5.70225177 244.654572,5.77219078 244.46802,5.9120709 C244.281467,6.05195102 244.124642,6.23464884 243.99754,6.46016984 C243.870438,6.68569085 243.775113,6.93975501 243.711562,7.22236994 C243.648011,7.50498487 243.616236,7.78902289 243.616236,8.07449252 C243.616236,8.3942185 243.654161,8.69823909 243.730012,8.98656342 C243.805863,9.27488774 243.911438,9.53037922 244.04674,9.75304553 C244.182042,9.97571184 244.341942,10.1527004 244.526445,10.2840164 C244.710948,10.4153324 244.911848,10.4809894 245.129151,10.4809894 C245.243953,10.4809894 245.361828,10.4610069 245.48278,10.4210411 C245.603732,10.3810754 245.719557,10.3168457 245.830258,10.2283501 C245.94096,10.1398545 246.044485,10.028523 246.140836,9.89435229 C246.237188,9.76018157 246.316113,9.59889365 246.377614,9.41048369 L246.838868,9.76160958 C246.769167,9.98998528 246.671792,10.1912383 246.54674,10.3653748 C246.421689,10.5395113 246.280239,10.6865259 246.122386,10.8064232 C245.964534,10.9263204 245.797459,11.0176693 245.621156,11.0804727 C245.444854,11.143276 245.272654,11.1746772 245.104551,11.1746772 C244.805247,11.1746772 244.530547,11.0833283 244.280443,10.9006277 C244.030339,10.7179271 243.814064,10.4795636 243.631611,10.1855299 C243.449159,9.89149614 243.307709,9.55750169 243.207257,9.18353647 C243.106806,8.80957126 243.056581,8.42847502 243.056581,8.04023633 Z M249.305043,11.1661131 C248.997538,11.1661131 248.717713,11.0790462 248.46556,10.9049097 C248.213406,10.7307732 247.997131,10.4995463 247.816728,10.211222 C247.636325,9.92289767 247.496925,9.5931852 247.398524,9.22207468 C247.300123,8.85096416 247.250923,8.47129525 247.250923,8.08305656 C247.250923,7.67768969 247.303198,7.28945682 247.407749,6.9183463 C247.512301,6.54723579 247.656826,6.21895064 247.841328,5.93348101 C248.025831,5.64801139 248.244156,5.42106644 248.49631,5.25263936 C248.748464,5.08421228 249.022139,5 249.317343,5 C249.624848,5 249.903648,5.08992158 250.153752,5.26976745 C250.403855,5.44961331 250.619105,5.68512222 250.799508,5.97630124 C250.979911,6.26748026 251.119311,6.59719274 251.217712,6.96544856 C251.316114,7.33370438 251.365314,7.70909131 251.365314,8.09162061 C251.365314,8.49698748 251.313039,8.88522035 251.208487,9.25633086 C251.103936,9.62744138 250.960436,9.9542992 250.777983,10.2369141 C250.59553,10.5195291 250.37823,10.7450467 250.126076,10.9134738 C249.873922,11.0819008 249.600247,11.1661131 249.305043,11.1661131 Z M247.810578,8.08305656 C247.810578,8.39136376 247.846453,8.68967505 247.918204,8.97799937 C247.989955,9.26632369 248.09143,9.52181518 248.222632,9.74448149 C248.353834,9.9671478 248.511684,10.1441363 248.696187,10.2754523 C248.88069,10.4067684 249.08569,10.4724254 249.311193,10.4724254 C249.544897,10.4724254 249.753997,10.4024864 249.938499,10.2626063 C250.123002,10.1227262 250.279827,9.94002833 250.408979,9.71450733 C250.538131,9.48898632 250.636531,9.23349484 250.704182,8.94802521 C250.771833,8.66255558 250.805658,8.37423558 250.805658,8.08305656 C250.805658,7.77474936 250.769783,7.47643808 250.698032,7.18811375 C250.626281,6.89978943 250.523781,6.64572527 250.390529,6.42591366 C250.257277,6.20610205 250.099427,6.03054086 249.916974,5.89922483 C249.734521,5.7679088 249.532596,5.70225177 249.311193,5.70225177 C249.07749,5.70225177 248.86839,5.77076346 248.683887,5.90778888 C248.499384,6.0448143 248.342559,6.22465747 248.213407,6.44732377 C248.084255,6.66999008 247.98483,6.92405424 247.915129,7.20952387 C247.845428,7.4949935 247.810578,7.78616815 247.810578,8.08305656 Z M253.400984,8.04023633 C253.400984,7.67483521 253.447109,7.31086689 253.53936,6.94832047 C253.631612,6.58577404 253.766912,6.26034355 253.945264,5.97201922 C254.123617,5.6836949 254.341942,5.45104064 254.600246,5.27404947 C254.85855,5.0970583 255.1517,5.00856405 255.479705,5.00856405 C255.869211,5.00856405 256.203361,5.13131414 256.482165,5.37681802 C256.760969,5.6223219 256.968019,5.94204309 257.103321,6.33599118 L256.666667,6.72993729 C256.601066,6.53581795 256.522141,6.3731027 256.429889,6.24178667 C256.337638,6.11047064 256.237188,6.00484846 256.128536,5.92491697 C256.019885,5.84498547 255.90816,5.7878924 255.793358,5.75363605 C255.678556,5.71937969 255.565806,5.70225177 255.455105,5.70225177 C255.213201,5.70225177 254.998976,5.77219078 254.812423,5.9120709 C254.62587,6.05195102 254.469045,6.23464884 254.341943,6.46016984 C254.214842,6.68569085 254.119517,6.93975501 254.055966,7.22236994 C253.992415,7.50498487 253.96064,7.78902289 253.96064,8.07449252 C253.96064,8.3942185 253.998565,8.69823909 254.074416,8.98656342 C254.150267,9.27488774 254.255842,9.53037922 254.391144,9.75304553 C254.526446,9.97571184 254.686346,10.1527004 254.870849,10.2840164 C255.055351,10.4153324 255.256251,10.4809894 255.473555,10.4809894 C255.588356,10.4809894 255.706231,10.4610069 255.827183,10.4210411 C255.948135,10.3810754 256.06396,10.3168457 256.174662,10.2283501 C256.285363,10.1398545 256.388888,10.028523 256.48524,9.89435229 C256.581591,9.76018157 256.660516,9.59889365 256.722017,9.41048369 L257.183272,9.76160958 C257.113571,9.98998528 257.016196,10.1912383 256.891144,10.3653748 C256.766092,10.5395113 256.624642,10.6865259 256.46679,10.8064232 C256.308937,10.9263204 256.141862,11.0176693 255.96556,11.0804727 C255.789257,11.143276 255.617057,11.1746772 255.448954,11.1746772 C255.14965,11.1746772 254.87495,11.0833283 254.624846,10.9006277 C254.374742,10.7179271 254.158467,10.4795636 253.976015,10.1855299 C253.793562,9.89149614 253.652112,9.55750169 253.551661,9.18353647 C253.451209,8.80957126 253.400984,8.42847502 253.400984,8.04023633 Z M257.884379,5.04282023 L261.365314,5.04282023 L261.365314,11.1232929 L260.811808,11.1232929 L260.811808,5.72794391 L258.437884,5.72794391 L258.437884,11.1232929 L257.884379,11.1232929 L257.884379,5.04282023 Z M265.399754,10.4381692 L265.399754,11.1232929 L262.435424,11.1232929 L262.435424,5.04282023 L265.344403,5.04282023 L265.344403,5.72794391 L262.98893,5.72794391 L262.98893,7.69767449 L265.0369,7.69767449 L265.0369,8.33997794 L262.98893,8.33997794 L262.98893,10.4381692 L265.399754,10.4381692 Z M269.557196,11.1232929 L266.168512,11.1232929 L266.168512,5.04282023 L266.722017,5.04282023 L266.722017,10.4381692 L268.819188,10.4381692 L268.819188,5.04282023 L269.372694,5.04282023 L269.372694,10.4381692 L270.0492,10.4381692 L270.0492,12.7162055 L269.557196,12.7162055 L269.557196,11.1232929 Z M271.242312,9.95001859 L273.769988,5.04282023 L274.225092,5.04282023 L274.225092,11.1232929 L273.671587,11.1232929 L273.671587,6.30173499 L271.186962,11.1232929 L270.688807,11.1232929 L270.688807,5.04282023 L271.242312,5.04282023 L271.242312,9.95001859 Z M276.611316,5.04282023 L277.078721,5.04282023 L278.862239,11.1232929 L278.271833,11.1232929 L277.755228,9.34197132 L275.922509,9.34197132 L275.412054,11.1232929 L274.821648,11.1232929 L276.611316,5.04282023 Z M277.632226,8.7424881 L276.845018,5.93348101 L276.03321,8.7424881 L277.632226,8.7424881 Z M280.565806,6.73850134 C280.516605,7.52639751 280.455105,8.20009573 280.381304,8.7596162 C280.307503,9.31913667 280.211153,9.77873587 280.092251,10.1384276 C279.973349,10.4981193 279.830874,10.7621748 279.664822,10.9306019 C279.498769,11.0990289 279.298894,11.1832412 279.065191,11.1832412 L278.96679,10.4381692 C279.052891,10.4324598 279.134891,10.4110499 279.212792,10.3739389 C279.290693,10.3368278 279.362443,10.2697435 279.428044,10.1726838 C279.493645,10.0756241 279.555145,9.94002807 279.612546,9.7658916 C279.669947,9.59175513 279.723247,9.36766483 279.772448,9.09361399 C279.821648,8.81956315 279.865723,8.48699602 279.904674,8.09590263 C279.943625,7.70480924 279.9795,7.24092805 280.0123,6.70424515 L280.110701,5.04282023 L282.423124,5.04282023 L282.423124,11.1232929 L281.869619,11.1232929 L281.869619,5.72794391 L280.627306,5.72794391 L280.565806,6.73850134 Z M284.052891,9.95001859 L286.580566,5.04282023 L287.03567,5.04282023 L287.03567,11.1232929 L286.482165,11.1232929 L286.482165,6.30173499 L283.99754,11.1232929 L283.499385,11.1232929 L283.499385,5.04282023 L284.052891,5.04282023 L284.052891,9.95001859 Z M287.810578,8.04023633 C287.810578,7.67483521 287.856703,7.31086689 287.948954,6.94832047 C288.041206,6.58577404 288.176506,6.26034355 288.354859,5.97201922 C288.533211,5.6836949 288.751536,5.45104064 289.00984,5.27404947 C289.268144,5.0970583 289.561294,5.00856405 289.889299,5.00856405 C290.278805,5.00856405 290.612955,5.13131414 290.891759,5.37681802 C291.170563,5.6223219 291.377613,5.94204309 291.512915,6.33599118 L291.076261,6.72993729 C291.01066,6.53581795 290.931735,6.3731027 290.839483,6.24178667 C290.747232,6.11047064 290.646782,6.00484846 290.53813,5.92491697 C290.429479,5.84498547 290.317754,5.7878924 290.202952,5.75363605 C290.08815,5.71937969 289.9754,5.70225177 289.864699,5.70225177 C289.622795,5.70225177 289.40857,5.77219078 289.222017,5.9120709 C289.035464,6.05195102 288.878639,6.23464884 288.751538,6.46016984 C288.624436,6.68569085 288.529111,6.93975501 288.46556,7.22236994 C288.402009,7.50498487 288.370234,7.78902289 288.370234,8.07449252 C288.370234,8.3942185 288.408159,8.69823909 288.48401,8.98656342 C288.559861,9.27488774 288.665436,9.53037922 288.800738,9.75304553 C288.93604,9.97571184 289.09594,10.1527004 289.280443,10.2840164 C289.464946,10.4153324 289.665846,10.4809894 289.883149,10.4809894 C289.997951,10.4809894 290.115826,10.4610069 290.236777,10.4210411 C290.357729,10.3810754 290.473554,10.3168457 290.584256,10.2283501 C290.694958,10.1398545 290.798483,10.028523 290.894834,9.89435229 C290.991185,9.76018157 291.07011,9.59889365 291.131611,9.41048369 L291.592866,9.76160958 C291.523165,9.98998528 291.42579,10.1912383 291.300738,10.3653748 C291.175686,10.5395113 291.034236,10.6865259 290.876384,10.8064232 C290.718531,10.9263204 290.551456,11.0176693 290.375154,11.0804727 C290.198851,11.143276 290.026651,11.1746772 289.858549,11.1746772 C289.559244,11.1746772 289.284544,11.0833283 289.03444,10.9006277 C288.784337,10.7179271 288.568062,10.4795636 288.385609,10.1855299 C288.203156,9.89149614 288.061706,9.55750169 287.961255,9.18353647 C287.860803,8.80957126 287.810578,8.42847502 287.810578,8.04023633 Z M295.430504,5.72794391 L293.923739,5.72794391 L293.923739,11.1232929 L293.370234,11.1232929 L293.370234,5.72794391 L291.863469,5.72794391 L291.863469,5.04282023 L295.430504,5.04282023 L295.430504,5.72794391 Z M297.835178,11.1661131 C297.527674,11.1661131 297.247849,11.0790462 296.995695,10.9049097 C296.743541,10.7307732 296.527266,10.4995463 296.346863,10.211222 C296.166461,9.92289767 296.027061,9.5931852 295.928659,9.22207468 C295.830258,8.85096416 295.781058,8.47129525 295.781058,8.08305656 C295.781058,7.67768969 295.833333,7.28945682 295.937884,6.9183463 C296.042436,6.54723579 296.186961,6.21895064 296.371464,5.93348101 C296.555966,5.64801139 296.774291,5.42106644 297.026445,5.25263936 C297.278599,5.08421228 297.552274,5 297.847478,5 C298.154983,5 298.433783,5.08992158 298.683887,5.26976745 C298.933991,5.44961331 299.149241,5.68512222 299.329643,5.97630124 C299.510046,6.26748026 299.649446,6.59719274 299.747847,6.96544856 C299.846249,7.33370438 299.895449,7.70909131 299.895449,8.09162061 C299.895449,8.49698748 299.843174,8.88522035 299.738622,9.25633086 C299.634071,9.62744138 299.490571,9.9542992 299.308118,10.2369141 C299.125665,10.5195291 298.908365,10.7450467 298.656212,10.9134738 C298.404058,11.0819008 298.130383,11.1661131 297.835178,11.1661131 Z M296.340713,8.08305656 C296.340713,8.39136376 296.376588,8.68967505 296.448339,8.97799937 C296.520091,9.26632369 296.621566,9.52181518 296.752768,9.74448149 C296.883969,9.9671478 297.041819,10.1441363 297.226322,10.2754523 C297.410825,10.4067684 297.615825,10.4724254 297.841328,10.4724254 C298.075032,10.4724254 298.284132,10.4024864 298.468635,10.2626063 C298.653137,10.1227262 298.809962,9.94002833 298.939114,9.71450733 C299.068266,9.48898632 299.166666,9.23349484 299.234317,8.94802521 C299.301968,8.66255558 299.335793,8.37423558 299.335793,8.08305656 C299.335793,7.77474936 299.299918,7.47643808 299.228167,7.18811375 C299.156416,6.89978943 299.053916,6.64572527 298.920664,6.42591366 C298.787412,6.20610205 298.629562,6.03054086 298.447109,5.89922483 C298.264657,5.7679088 298.062732,5.70225177 297.841328,5.70225177 C297.607625,5.70225177 297.398525,5.77076346 297.214022,5.90778888 C297.029519,6.0448143 296.872694,6.22465747 296.743542,6.44732377 C296.61439,6.66999008 296.514965,6.92405424 296.445264,7.20952387 C296.375563,7.4949935 296.340713,7.78616815 296.340713,8.08305656 Z M304.446494,11.1232929 L304.446494,6.42163164 L302.99508,10.027095 L302.681427,10.027095 L301.223862,6.42163164 L301.223862,11.1232929 L300.670357,11.1232929 L300.670357,5.04282023 L301.254613,5.04282023 L302.835178,8.99084544 L304.421894,5.04282023 L305,5.04282023 L305,11.1232929 L304.446494,11.1232929 Z" id="ИМЕЮТСЯ-ПРОТИВОПОКАЗ-Copy-2"></path>
                </g>
            </g>
        </g>
    </g>
</svg>