<?xml version="1.0" encoding="UTF-8"?>
<svg width="1200px" height="32px" viewBox="0 0 1200 32" version="1.1" xmlns="http://www.w3.org/2000/svg" xmlns:xlink="http://www.w3.org/1999/xlink">
    <!-- Generator: sketchtool 52.4 (67378) - http://www.bohemiancoding.com/sketch -->
    <title>CF082FB2-73B3-4A85-BF4C-C3AC35A68041</title>
    <desc>Created with sketchtool.</desc>
    <g id="Page-1" stroke="none" stroke-width="1" fill="none" fill-rule="evenodd">
        <g id="комп_тест_4---7-правильных-ответа_1280--" transform="translate(-40.000000, -862.000000)" fill="#FFFFFF">
            <g id="Group-44" transform="translate(0.000000, 685.000000)">
                <g id="Group-71">
                    <g id="Group-15" transform="translate(0.000000, 157.000000)">
                        <path d="M42.2903677,40.4828355 L52.7497137,20.1771872 L54.6329049,20.1771872 L54.6329049,45.3377637 L52.3425372,45.3377637 L52.3425372,25.3864896 L42.061331,45.3377637 L40,45.3377637 L40,20.1771872 L42.2903677,20.1771872 L42.2903677,40.4828355 Z M74.6863469,45.3377637 L74.6863469,25.8826137 L68.6804937,40.8017724 L67.3826187,40.8017724 L61.351317,25.8826137 L61.351317,45.3377637 L59.0609492,45.3377637 L59.0609492,20.1771872 L61.4785596,20.1771872 L68.0188319,36.5138432 L74.5845527,20.1771872 L76.9767146,20.1771872 L76.9767146,45.3377637 L74.6863469,45.3377637 Z M93.6709505,42.5027692 L93.6709505,45.3377637 L81.4047589,45.3377637 L81.4047589,20.1771872 L93.4419137,20.1771872 L93.4419137,23.0121817 L83.6951266,23.0121817 L83.6951266,31.162791 L92.1694872,31.162791 L92.1694872,33.8205984 L83.6951266,33.8205984 L83.6951266,42.5027692 L93.6709505,42.5027692 Z M110.365186,45.5149509 C109.245445,45.5149509 108.219032,45.2373604 107.285914,44.6821712 C106.352797,44.126982 105.538452,43.3473663 104.842855,42.3433007 C104.147259,41.3392351 103.587397,40.1343745 103.163252,38.7286827 C102.739108,37.3229909 102.484625,35.7696656 102.399796,34.0686604 L99.1423845,34.0686604 L99.1423845,45.3377637 L96.8520168,45.3377637 L96.8520168,20.1771872 L99.1423845,20.1771872 L99.1423845,31.2336659 L102.425245,31.2336659 C102.52704,29.5090356 102.798488,27.9557103 103.239598,26.5736436 C103.680708,25.1915768 104.257536,24.0162471 104.970098,23.0476191 C105.68266,22.0789912 106.501247,21.3289063 107.425881,20.7973422 C108.350516,20.2657781 109.34724,20 110.416083,20 C111.637619,20 112.753102,20.3189337 113.762565,20.9568107 C114.772029,21.5946876 115.63727,22.4865207 116.358315,23.6323368 C117.079361,24.7781528 117.639223,26.1306679 118.037918,27.6899227 C118.436614,29.2491775 118.635959,30.9501572 118.635959,32.7929129 C118.635959,34.7301688 118.428131,36.4843041 118.01247,38.0553715 C117.596808,39.6264388 117.019981,40.9612354 116.28197,42.0598013 C115.543959,43.1583671 114.670235,44.008857 113.660771,44.6112963 C112.651308,45.2137357 111.55279,45.5149509 110.365186,45.5149509 Z M104.690164,32.7574754 C104.690164,34.3167302 104.825888,35.7046824 105.097341,36.9213737 C105.368793,38.1380649 105.754758,39.1716463 106.255249,40.0221489 C106.755739,40.8726515 107.353774,41.5223313 108.04937,41.9712077 C108.744967,42.4200841 109.525381,42.6445189 110.390635,42.6445189 C111.306787,42.6445189 112.133856,42.4082717 112.871867,41.9357702 C113.609878,41.4632688 114.23336,40.7899643 114.742334,39.9158366 C115.251307,39.041709 115.641514,38.0022213 115.912966,36.7973426 C116.184418,35.5924639 116.320143,34.245855 116.320143,32.7574754 C116.320143,31.1982206 116.175936,29.8102684 115.887517,28.5935772 C115.599099,27.376886 115.191927,26.3492107 114.665988,25.5105206 C114.140049,24.6718306 113.516566,24.028057 112.795521,23.5791806 C112.074476,23.1303042 111.272855,22.9058694 110.390635,22.9058694 C109.508415,22.9058694 108.715277,23.1421166 108.011197,23.614618 C107.307118,24.0871195 106.709083,24.7486116 106.217076,25.5991142 C105.725069,26.4496168 105.347586,27.4831983 105.084616,28.6998895 C104.821647,29.9165807 104.690164,31.2690959 104.690164,32.7574754 Z M134.89757,23.0121817 L128.66268,23.0121817 L128.66268,45.3377637 L126.372312,45.3377637 L126.372312,23.0121817 L120.137422,23.0121817 L120.137422,20.1771872 L134.89757,20.1771872 L134.89757,23.0121817 Z M136.322687,32.5802883 C136.322687,31.0682836 136.513549,29.5622078 136.895279,28.0620157 C137.277009,26.5618236 137.836871,25.2152147 138.574882,24.0221485 C139.312893,22.8290823 140.216307,21.8663751 141.285151,21.1339978 C142.353994,20.4016206 143.567029,20.0354374 144.924291,20.0354374 C146.536039,20.0354374 147.918729,20.5433689 149.072401,21.559247 C150.226074,22.5751251 151.082832,23.8981093 151.642703,25.5282394 L149.835857,27.1583612 C149.564405,26.3551087 149.237818,25.6818043 148.856089,25.1384276 C148.474359,24.5950509 148.058704,24.1579936 147.609111,23.8272426 C147.159518,23.4964916 146.697207,23.2602444 146.222166,23.118494 C145.747124,22.9767436 145.280572,22.9058694 144.822497,22.9058694 C143.821516,22.9058694 142.935068,23.1952722 142.163125,23.7740865 C141.391182,24.3529008 140.742251,25.1088917 140.216313,26.0420821 C139.690374,26.9752725 139.295925,28.0265724 139.032956,29.1960135 C138.769986,30.3654546 138.638504,31.5407844 138.638504,32.722038 C138.638504,34.0450421 138.795435,35.3030583 139.109301,36.4961245 C139.423168,37.6891906 139.86003,38.7463968 140.419901,39.6677746 C140.979771,40.5891524 141.641426,41.3215187 142.404886,41.8648954 C143.168346,42.4082721 143.999656,42.6799563 144.898842,42.6799563 C145.373884,42.6799563 145.861642,42.5972698 146.362133,42.4318943 C146.862623,42.2665188 147.341899,42.0007407 147.799975,41.6345521 C148.25805,41.2683635 148.68643,40.8076814 149.085125,40.2524922 C149.483821,39.697303 149.810407,39.0299047 150.064894,38.2502773 L151.973534,39.703212 C151.685115,40.648215 151.282184,41.4809863 150.764728,42.201551 C150.247272,42.9221157 149.661962,43.5304522 149.00878,44.0265787 C148.355598,44.5227052 147.664253,44.9007007 146.934725,45.1605765 C146.205196,45.4204523 145.492645,45.5503883 144.797048,45.5503883 C143.558547,45.5503883 142.421857,45.1723928 141.386945,44.4163905 C140.352033,43.6603881 139.457102,42.6740562 138.702125,41.4573649 C137.947148,40.2406737 137.361838,38.8586277 136.946176,37.3111854 C136.530515,35.7637431 136.322687,34.1867932 136.322687,32.5802883 Z M164.366968,45.3377637 L164.366968,35.59247 L160.193409,35.59247 L156.045298,45.3377637 L153.373203,45.3377637 L157.852144,35.1317834 C157.326205,34.8719076 156.838446,34.4998182 156.388854,34.0155043 C155.939261,33.5311903 155.553295,32.9701032 155.230945,32.3322262 C154.908596,31.6943493 154.658354,30.9974201 154.480214,30.2414178 C154.302073,29.4854154 154.213004,28.6939874 154.213004,27.8671098 C154.213004,26.9221069 154.348728,25.9889306 154.620181,25.0675527 C154.891633,24.1461749 155.269116,23.3252159 155.75264,22.6046512 C156.236165,21.8840865 156.812992,21.2993747 157.48314,20.8504984 C158.153288,20.401622 158.887047,20.1771872 159.684438,20.1771872 L166.657336,20.1771872 L166.657336,45.3377637 L164.366968,45.3377637 Z M164.366968,23.0121817 L159.811681,23.0121817 C159.370571,23.0121817 158.950674,23.1421176 158.551979,23.4019934 C158.153283,23.6618692 157.80549,24.0103338 157.508589,24.4473977 C157.211688,24.8844615 156.974171,25.3982991 156.79603,25.988926 C156.617889,26.5795528 156.52882,27.2056078 156.52882,27.8671098 C156.52882,28.5049868 156.605165,29.1192295 156.757857,29.7098563 C156.910549,30.3004831 157.122618,30.8202269 157.39407,31.2691033 C157.665523,31.7179797 157.992109,32.0782566 158.373839,32.349945 C158.755569,32.6216333 159.183948,32.7574754 159.65899,32.7574754 L164.366968,32.7574754 L164.366968,23.0121817 Z M177.523858,20.1771872 L191.927726,20.1771872 L191.927726,45.3377637 L189.637358,45.3377637 L189.637358,23.0121817 L179.814226,23.0121817 L179.814226,45.3377637 L177.523858,45.3377637 L177.523858,20.1771872 Z M196.35577,45.3377637 L196.35577,20.1771872 L203.888535,20.1771872 C204.685927,20.1771872 205.419685,20.4075282 206.089833,20.8682171 C206.759981,21.328906 207.336809,21.9431487 207.820333,22.7109635 C208.303858,23.4787784 208.681341,24.3410806 208.952793,25.297896 C209.224245,26.2547115 209.359969,27.2292311 209.359969,28.2214842 C209.359969,29.2609874 209.232728,30.2650379 208.978242,31.2336659 C208.723755,32.2022938 208.363238,33.0645961 207.896679,33.8205984 C207.43012,34.5766007 206.870258,35.179031 206.217076,35.6279074 C205.563894,36.0767838 204.838618,36.3012186 204.041227,36.3012186 L198.646138,36.3012186 L198.646138,45.3377637 L196.35577,45.3377637 Z M198.646138,33.4662241 L203.913984,33.4662241 C204.389026,33.4662241 204.817405,33.3303819 205.199135,33.0586936 C205.580865,32.7870053 205.907451,32.4090098 206.178903,31.9246958 C206.450356,31.4403818 206.662424,30.8792947 206.815116,30.2414178 C206.967808,29.6035408 207.044153,28.9302363 207.044153,28.2214842 C207.044153,27.4891069 206.955084,26.8039901 206.776944,26.1661131 C206.598803,25.5282362 206.361286,24.9730553 206.064385,24.5005538 C205.767484,24.0280524 205.419691,23.6618692 205.020995,23.4019934 C204.622299,23.1421176 204.202403,23.0121817 203.761293,23.0121817 L198.646138,23.0121817 L198.646138,33.4662241 Z M219.56483,45.5149509 C218.292397,45.5149509 217.134501,45.1546739 216.091106,44.4341092 C215.047711,43.7135445 214.15278,42.7567434 213.406286,41.5636772 C212.659792,40.370611 212.082964,39.0062836 211.675786,37.4706538 C211.268607,35.9350241 211.065021,34.3639804 211.065021,32.7574754 C211.065021,31.0800953 211.281331,29.4736144 211.713959,27.9379847 C212.146586,26.402355 212.74462,25.0439337 213.50808,23.8626801 C214.27154,22.6814264 215.174953,21.7423439 216.218348,21.0454042 C217.261743,20.3484646 218.394192,20 219.615727,20 C220.88816,20 222.041815,20.3720893 223.076727,21.1162791 C224.111639,21.8604689 225.002329,22.8349885 225.748823,24.0398672 C226.495317,25.2447459 227.072145,26.6090734 227.479323,28.1328906 C227.886502,29.6567078 228.090088,31.210033 228.090088,32.7929129 C228.090088,34.470293 227.873777,36.0767739 227.44115,37.6124036 C227.008523,39.1480333 226.41473,40.5005484 225.659753,41.6699895 C224.904776,42.8394306 224.005604,43.772607 222.962209,44.4695466 C221.918814,45.1664863 220.786366,45.5149509 219.56483,45.5149509 Z M213.380837,32.7574754 C213.380837,34.0332293 213.529286,35.2676209 213.826187,36.460687 C214.123088,37.6537532 214.542984,38.7109594 215.085889,39.6323372 C215.628793,40.553715 216.281966,41.2860813 217.045426,41.829458 C217.808885,42.3728346 218.657161,42.6445189 219.590279,42.6445189 C220.557328,42.6445189 221.422569,42.3551161 222.186029,41.7763018 C222.949488,41.1974875 223.59842,40.4414965 224.132841,39.5083062 C224.667263,38.5751158 225.074436,37.5179097 225.354371,36.336656 C225.634306,35.1554024 225.774272,33.9623541 225.774272,32.7574754 C225.774272,31.4817215 225.625823,30.24733 225.328922,29.0542638 C225.032021,27.8611976 224.607883,26.8098977 224.056496,25.9003324 C223.505108,24.9907671 222.851936,24.264307 222.096959,23.7209303 C221.341982,23.1775537 220.50643,22.9058694 219.590279,22.9058694 C218.62323,22.9058694 217.757988,23.189366 216.994529,23.7563678 C216.231069,24.3233695 215.582138,25.0675481 215.047716,25.988926 C214.513294,26.9103038 214.10188,27.9616038 213.813462,29.1428574 C213.525044,30.324111 213.380837,31.5289717 213.380837,32.7574754 Z M244.275353,23.0121817 L238.040463,23.0121817 L238.040463,45.3377637 L235.750095,45.3377637 L235.750095,23.0121817 L229.515205,23.0121817 L229.515205,20.1771872 L244.275353,20.1771872 L244.275353,23.0121817 Z M249.212368,40.4828355 L259.671714,20.1771872 L261.554905,20.1771872 L261.554905,45.3377637 L259.264537,45.3377637 L259.264537,25.3864896 L248.983331,45.3377637 L246.922,45.3377637 L246.922,20.1771872 L249.212368,20.1771872 L249.212368,40.4828355 Z M279.343428,38.8527137 C279.343428,39.8213417 279.203462,40.7072686 278.923527,41.5105211 C278.643592,42.3137735 278.261868,42.9988904 277.778343,43.5658921 C277.294819,44.1328939 276.734957,44.5699511 276.09874,44.8770771 C275.462524,45.184203 274.779662,45.3377637 274.050134,45.3377637 L265.473979,45.3377637 L265.473979,20.1771872 L274.45731,20.1771872 C275.085044,20.1771872 275.653388,20.3661849 276.162362,20.7441861 C276.671335,21.1221872 277.103955,21.6124001 277.460237,22.2148395 C277.816518,22.8172788 278.092208,23.5023957 278.287314,24.2702105 C278.48242,25.0380254 278.579972,25.8117349 278.579972,26.5913623 C278.579972,27.8434912 278.355179,29.0011023 277.905586,30.0642306 C277.455993,31.1273589 276.815545,31.9187869 275.984222,32.4385385 C277.019134,32.8637898 277.83772,33.6493117 278.440005,34.7951278 C279.04229,35.9409438 279.343428,37.2934589 279.343428,38.8527137 Z M277.027612,38.2857148 C277.027612,37.718713 276.955508,37.1694383 276.811299,36.6378742 C276.66709,36.1063101 276.471987,35.6397219 276.225983,35.2380956 C275.979979,34.8364694 275.687324,34.5175357 275.348009,34.281285 C275.008693,34.0450343 274.635452,33.9269107 274.228273,33.9269107 L267.764347,33.9269107 L267.764347,42.573644 L274.050134,42.573644 C274.474278,42.573644 274.864485,42.4555204 275.220766,42.2192697 C275.577047,41.983019 275.890909,41.6699915 276.162362,41.2801778 C276.433814,40.8903641 276.645883,40.4355882 276.798575,39.9158366 C276.951267,39.396085 277.027612,38.8527165 277.027612,38.2857148 Z M267.764347,22.9413068 L267.764347,31.3399782 L273.515714,31.3399782 C273.922893,31.3399782 274.296134,31.2277607 274.63545,31.0033226 C274.974765,30.7788844 275.26742,30.4776692 275.513424,30.099668 C275.759428,29.7216669 275.954531,29.2787034 276.09874,28.7707644 C276.242949,28.2628253 276.315053,27.725363 276.315053,27.1583612 C276.315053,26.5677344 276.247191,26.0125535 276.111465,25.4928019 C275.975738,24.9730503 275.793359,24.5241807 275.564321,24.1461795 C275.335283,23.7681784 275.055352,23.4728694 274.72452,23.2602437 C274.393687,23.0476181 274.041653,22.9413068 273.668406,22.9413068 L267.764347,22.9413068 Z M290.413539,45.5149509 C289.141106,45.5149509 287.983209,45.1546739 286.939814,44.4341092 C285.896419,43.7135445 285.001488,42.7567434 284.254994,41.5636772 C283.5085,40.370611 282.931673,39.0062836 282.524494,37.4706538 C282.117316,35.9350241 281.913729,34.3639804 281.913729,32.7574754 C281.913729,31.0800953 282.13004,29.4736144 282.562667,27.9379847 C282.995294,26.402355 283.593329,25.0439337 284.356788,23.8626801 C285.120248,22.6814264 286.023662,21.7423439 287.067057,21.0454042 C288.110452,20.3484646 289.2429,20 290.464436,20 C291.736869,20 292.890524,20.3720893 293.925436,21.1162791 C294.960348,21.8604689 295.851038,22.8349885 296.597531,24.0398672 C297.344025,25.2447459 297.920853,26.6090734 298.328032,28.1328906 C298.73521,29.6567078 298.938796,31.210033 298.938796,32.7929129 C298.938796,34.470293 298.722486,36.0767739 298.289859,37.6124036 C297.857232,39.1480333 297.263438,40.5005484 296.508462,41.6699895 C295.753485,42.8394306 294.854312,43.772607 293.810917,44.4695466 C292.767522,45.1664863 291.635074,45.5149509 290.413539,45.5149509 Z M284.229546,32.7574754 C284.229546,34.0332293 284.377994,35.2676209 284.674895,36.460687 C284.971796,37.6537532 285.391693,38.7109594 285.934597,39.6323372 C286.477502,40.553715 287.130674,41.2860813 287.894134,41.829458 C288.657594,42.3728346 289.50587,42.6445189 290.438987,42.6445189 C291.406036,42.6445189 292.271278,42.3551161 293.034737,41.7763018 C293.798197,41.1974875 294.447128,40.4414965 294.98155,39.5083062 C295.515972,38.5751158 295.923144,37.5179097 296.203079,36.336656 C296.483015,35.1554024 296.62298,33.9623541 296.62298,32.7574754 C296.62298,31.4817215 296.474532,30.24733 296.177631,29.0542638 C295.88073,27.8611976 295.456592,26.8098977 294.905204,25.9003324 C294.353817,24.9907671 293.700644,24.264307 292.945667,23.7209303 C292.190691,23.1775537 291.355139,22.9058694 290.438987,22.9058694 C289.471938,22.9058694 288.606697,23.189366 287.843237,23.7563678 C287.079777,24.3233695 286.430846,25.0675481 285.896424,25.988926 C285.362003,26.9103038 284.950589,27.9616038 284.662171,29.1428574 C284.373753,30.324111 284.229546,31.5289717 284.229546,32.7574754 Z M302.145311,20.1771872 L316.549179,20.1771872 L316.549179,45.3377637 L314.258812,45.3377637 L314.258812,23.0121817 L304.435679,23.0121817 L304.435679,45.3377637 L302.145311,45.3377637 L302.145311,20.1771872 Z M328.280952,45.5149509 C327.008519,45.5149509 325.850622,45.1546739 324.807227,44.4341092 C323.763832,43.7135445 322.868901,42.7567434 322.122407,41.5636772 C321.375913,40.370611 320.799086,39.0062836 320.391907,37.4706538 C319.984729,35.9350241 319.781143,34.3639804 319.781143,32.7574754 C319.781143,31.0800953 319.997453,29.4736144 320.43008,27.9379847 C320.862707,26.402355 321.460742,25.0439337 322.224202,23.8626801 C322.987661,22.6814264 323.891075,21.7423439 324.93447,21.0454042 C325.977865,20.3484646 327.110313,20 328.331849,20 C329.604282,20 330.757937,20.3720893 331.792849,21.1162791 C332.827761,21.8604689 333.718451,22.8349885 334.464945,24.0398672 C335.211439,25.2447459 335.788266,26.6090734 336.195445,28.1328906 C336.602623,29.6567078 336.806209,31.210033 336.806209,32.7929129 C336.806209,34.470293 336.589899,36.0767739 336.157272,37.6124036 C335.724645,39.1480333 335.130852,40.5005484 334.375875,41.6699895 C333.620898,42.8394306 332.721726,43.772607 331.678331,44.4695466 C330.634936,45.1664863 329.502487,45.5149509 328.280952,45.5149509 Z M322.096959,32.7574754 C322.096959,34.0332293 322.245407,35.2676209 322.542308,36.460687 C322.839209,37.6537532 323.259106,38.7109594 323.80201,39.6323372 C324.344915,40.553715 324.998088,41.2860813 325.761547,41.829458 C326.525007,42.3728346 327.373283,42.6445189 328.3064,42.6445189 C329.273449,42.6445189 330.138691,42.3551161 330.90215,41.7763018 C331.66561,41.1974875 332.314541,40.4414965 332.848963,39.5083062 C333.383385,38.5751158 333.790557,37.5179097 334.070492,36.336656 C334.350428,35.1554024 334.490393,33.9623541 334.490393,32.7574754 C334.490393,31.4817215 334.341945,30.24733 334.045044,29.0542638 C333.748143,27.8611976 333.324005,26.8098977 332.772617,25.9003324 C332.22123,24.9907671 331.568057,24.264307 330.813081,23.7209303 C330.058104,23.1775537 329.222552,22.9058694 328.3064,22.9058694 C327.339351,22.9058694 326.47411,23.189366 325.71065,23.7563678 C324.94719,24.3233695 324.298259,25.0675481 323.763838,25.988926 C323.229416,26.9103038 322.818002,27.9616038 322.529584,29.1428574 C322.241166,30.324111 322.096959,31.5289717 322.096959,32.7574754 Z M342.303092,31.1273536 L344.59346,31.1273536 L350.522967,20.1771872 L353.144166,20.1771872 L346.705688,32.3322262 L353.729482,45.3377637 L351.108283,45.3377637 L344.847945,33.9623481 L342.303092,33.9623481 L342.303092,45.3377637 L340.012724,45.3377637 L340.012724,20.1771872 L342.303092,20.1771872 L342.303092,31.1273536 Z M361.313144,20.1771872 L363.247232,20.1771872 L370.627306,45.3377637 L368.184247,45.3377637 L366.046571,37.9667779 L358.462909,37.9667779 L356.350681,45.3377637 L353.907622,45.3377637 L361.313144,20.1771872 Z M365.5376,35.4861577 L362.280188,23.8626801 L358.920982,35.4861577 L365.5376,35.4861577 Z M371.95063,23.1539314 C372.527466,22.0908032 373.210328,21.2993751 373.999237,20.7796235 C374.788145,20.2598719 375.767904,20 376.938542,20 C378.618153,20 379.920257,20.5079314 380.844891,21.5238096 C381.769526,22.5396877 382.231836,24.0162326 382.231836,25.9534885 C382.231836,27.394618 381.977353,28.6290095 381.46838,29.6567001 C380.959407,30.6843908 380.246855,31.3517891 379.330704,31.658915 C380.450445,31.8479156 381.349617,32.4739707 382.028248,33.5370989 C382.706879,34.6002272 383.046189,35.9822732 383.046189,37.6832784 C383.046189,38.8172819 382.889258,39.8626757 382.575391,40.8194911 C382.261524,41.7763066 381.824662,42.6031717 381.264792,43.3001114 C380.704921,43.997051 380.043266,44.5404195 379.279807,44.9302332 C378.516347,45.3200469 377.685037,45.5149509 376.785851,45.5149509 C375.581281,45.5149509 374.512453,45.1723924 373.579336,44.4872653 C372.646218,43.8021382 371.933667,42.8335248 371.441659,41.5813959 L373.273953,39.703212 C373.664166,40.6009648 374.147683,41.3097064 374.72452,41.829458 C375.301356,42.3492096 376.02239,42.6090815 376.887645,42.6090815 C377.447515,42.6090815 377.960722,42.4909579 378.427281,42.2547071 C378.89384,42.0184564 379.296771,41.6936165 379.636086,41.2801778 C379.975401,40.866739 380.242608,40.3706199 380.437715,39.7918056 C380.632821,39.2129913 380.730373,38.5810301 380.730373,37.895903 C380.730373,36.4075235 380.301994,35.2321937 379.445222,34.3698786 C378.588451,33.5075634 377.396623,33.0764123 375.869704,33.0764123 L374.495483,33.0764123 L374.495483,30.2414178 L375.869704,30.2414178 C377.142136,30.2414178 378.143102,29.887047 378.87263,29.1782948 C379.602158,28.4695426 379.966917,27.4773045 379.966917,26.2015506 C379.966917,25.043922 379.682744,24.1816198 379.114391,23.614618 C378.546038,23.0476163 377.829245,22.7641197 376.96399,22.7641197 C376.200531,22.7641197 375.513427,22.970836 374.902659,23.3842747 C374.291892,23.7977135 373.816857,24.3824253 373.477542,25.1384276 L371.95063,23.1539314 Z M391.749586,20.1771872 L393.683675,20.1771872 L401.063749,45.3377637 L398.62069,45.3377637 L396.483013,37.9667779 L388.899351,37.9667779 L386.787123,45.3377637 L384.344064,45.3377637 L391.749586,20.1771872 Z M395.974042,35.4861577 L392.716631,23.8626801 L389.357425,35.4861577 L395.974042,35.4861577 Z M418.063367,20.1771872 L418.063367,45.3377637 L415.772999,45.3377637 L415.772999,33.8914732 L405.822624,33.8914732 L405.822624,45.3377637 L403.532256,45.3377637 L403.532256,20.1771872 L405.822624,20.1771872 L405.822624,31.0564787 L415.772999,31.0564787 L415.772999,20.1771872 L418.063367,20.1771872 Z M424.781779,40.4828355 L435.241125,20.1771872 L437.124316,20.1771872 L437.124316,45.3377637 L434.833948,45.3377637 L434.833948,25.3864896 L424.552742,45.3377637 L422.491411,45.3377637 L422.491411,20.1771872 L424.781779,20.1771872 L424.781779,40.4828355 Z M451.044662,45.3377637 L451.044662,35.59247 L446.871103,35.59247 L442.722993,45.3377637 L440.050897,45.3377637 L444.529838,35.1317834 C444.003899,34.8719076 443.516141,34.4998182 443.066548,34.0155043 C442.616955,33.5311903 442.230989,32.9701032 441.90864,32.3322262 C441.58629,31.6943493 441.336049,30.9974201 441.157908,30.2414178 C440.979768,29.4854154 440.890699,28.6939874 440.890699,27.8671098 C440.890699,26.9221069 441.026423,25.9889306 441.297875,25.0675527 C441.569327,24.1461749 441.94681,23.3252159 442.430335,22.6046512 C442.913859,21.8840865 443.490687,21.2993747 444.160835,20.8504984 C444.830983,20.401622 445.564741,20.1771872 446.362133,20.1771872 L453.33503,20.1771872 L453.33503,45.3377637 L451.044662,45.3377637 Z M451.044662,23.0121817 L446.489375,23.0121817 C446.048265,23.0121817 445.628369,23.1421176 445.229673,23.4019934 C444.830977,23.6618692 444.483184,24.0103338 444.186283,24.4473977 C443.889382,24.8844615 443.651865,25.3982991 443.473724,25.988926 C443.295584,26.5795528 443.206515,27.2056078 443.206515,27.8671098 C443.206515,28.5049868 443.28286,29.1192295 443.435552,29.7098563 C443.588244,30.3004831 443.800313,30.8202269 444.071765,31.2691033 C444.343217,31.7179797 444.669803,32.0782566 445.051533,32.349945 C445.433263,32.6216333 445.861642,32.7574754 446.336684,32.7574754 L451.044662,32.7574754 L451.044662,23.0121817 Z M457.177758,45.3377637 L457.177758,41.3687713 L459.060949,41.3687713 L459.060949,45.3377637 L457.177758,45.3377637 Z M483.873266,20.1771872 L483.873266,45.3377637 L481.582899,45.3377637 L481.582899,33.8914732 L471.632523,33.8914732 L471.632523,45.3377637 L469.342155,45.3377637 L469.342155,20.1771872 L471.632523,20.1771872 L471.632523,31.0564787 L481.582899,31.0564787 L481.582899,20.1771872 L483.873266,20.1771872 Z M500.567502,42.5027692 L500.567502,45.3377637 L488.301311,45.3377637 L488.301311,20.1771872 L500.338465,20.1771872 L500.338465,23.0121817 L490.591678,23.0121817 L490.591678,31.162791 L499.066039,31.162791 L499.066039,33.8205984 L490.591678,33.8205984 L490.591678,42.5027692 L500.567502,42.5027692 Z M511.026848,45.5149509 C509.754415,45.5149509 508.596519,45.1546739 507.553124,44.4341092 C506.509729,43.7135445 505.614798,42.7567434 504.868304,41.5636772 C504.12181,40.370611 503.544982,39.0062836 503.137804,37.4706538 C502.730625,35.9350241 502.527039,34.3639804 502.527039,32.7574754 C502.527039,31.0800953 502.743349,29.4736144 503.175977,27.9379847 C503.608604,26.402355 504.206638,25.0439337 504.970098,23.8626801 C505.733558,22.6814264 506.636971,21.7423439 507.680366,21.0454042 C508.723761,20.3484646 509.85621,20 511.077745,20 C512.350178,20 513.503833,20.3720893 514.538745,21.1162791 C515.573657,21.8604689 516.464347,22.8349885 517.210841,24.0398672 C517.957335,25.2447459 518.534163,26.6090734 518.941341,28.1328906 C519.34852,29.6567078 519.552106,31.210033 519.552106,32.7929129 C519.552106,34.470293 519.335796,36.0767739 518.903168,37.6124036 C518.470541,39.1480333 517.876748,40.5005484 517.121771,41.6699895 C516.366794,42.8394306 515.467622,43.772607 514.424227,44.4695466 C513.380832,45.1664863 512.248384,45.5149509 511.026848,45.5149509 Z M504.842855,32.7574754 C504.842855,34.0332293 504.991304,35.2676209 505.288205,36.460687 C505.585106,37.6537532 506.005002,38.7109594 506.547907,39.6323372 C507.090812,40.553715 507.743984,41.2860813 508.507444,41.829458 C509.270903,42.3728346 510.119179,42.6445189 511.052297,42.6445189 C512.019346,42.6445189 512.884587,42.3551161 513.648047,41.7763018 C514.411507,41.1974875 515.060438,40.4414965 515.594859,39.5083062 C516.129281,38.5751158 516.536454,37.5179097 516.816389,36.336656 C517.096324,35.1554024 517.23629,33.9623541 517.23629,32.7574754 C517.23629,31.4817215 517.087841,30.24733 516.79094,29.0542638 C516.494039,27.8611976 516.069901,26.8098977 515.518514,25.9003324 C514.967126,24.9907671 514.313954,24.264307 513.558977,23.7209303 C512.804,23.1775537 511.968448,22.9058694 511.052297,22.9058694 C510.085248,22.9058694 509.220006,23.189366 508.456547,23.7563678 C507.693087,24.3233695 507.044156,25.0675481 506.509734,25.988926 C505.975312,26.9103038 505.563898,27.9616038 505.27548,29.1428574 C504.987062,30.324111 504.842855,31.5289717 504.842855,32.7574754 Z M522.758621,20.1771872 L535.457437,20.1771872 L535.457437,23.0121817 L525.048988,23.0121817 L525.048988,30.5249172 L531.08029,30.5249172 C531.809818,30.5249172 532.49268,30.6843841 533.128897,31.0033226 C533.765113,31.322261 534.324975,31.7888492 534.8085,32.4031011 C535.292024,33.017353 535.673748,33.7910625 535.953684,34.7242529 C536.233619,35.6574433 536.373584,36.7264618 536.373584,37.9313405 C536.373584,39.1362192 536.233619,40.2052377 535.953684,41.138428 C535.673748,42.0716184 535.296266,42.8453279 534.821224,43.4595798 C534.346182,44.0738317 533.78632,44.5404199 533.141621,44.8593584 C532.496922,45.1782968 531.809818,45.3377637 531.08029,45.3377637 L522.758621,45.3377637 L522.758621,20.1771872 Z M531.08029,42.573644 C532.047339,42.573644 532.785339,42.1543053 533.294312,41.3156152 C533.803285,40.4769251 534.057768,39.3488448 534.057768,37.9313405 C534.057768,36.5138361 533.807527,35.3857558 533.307037,34.5470657 C532.806546,33.7083757 532.064305,33.2890369 531.08029,33.2890369 L525.048988,33.2890369 L525.048988,42.573644 L531.08029,42.573644 Z M539.91093,20.1771872 L545.407813,30.666667 L550.904695,20.1771872 L553.4241,20.1771872 L546.629342,32.9346626 L553.220512,45.3377637 L550.701107,45.3377637 L545.407813,35.2026582 L540.114518,45.3377637 L537.569665,45.3377637 L544.160835,32.9346626 L537.366077,20.1771872 L539.91093,20.1771872 Z M563.018196,45.5149509 C561.745763,45.5149509 560.587866,45.1546739 559.544471,44.4341092 C558.501076,43.7135445 557.606145,42.7567434 556.859651,41.5636772 C556.113157,40.370611 555.53633,39.0062836 555.129151,37.4706538 C554.721973,35.9350241 554.518387,34.3639804 554.518387,32.7574754 C554.518387,31.0800953 554.734697,29.4736144 555.167324,27.9379847 C555.599951,26.402355 556.197986,25.0439337 556.961445,23.8626801 C557.724905,22.6814264 558.628319,21.7423439 559.671714,21.0454042 C560.715109,20.3484646 561.847557,20 563.069093,20 C564.341526,20 565.495181,20.3720893 566.530093,21.1162791 C567.565005,21.8604689 568.455695,22.8349885 569.202189,24.0398672 C569.948683,25.2447459 570.52551,26.6090734 570.932689,28.1328906 C571.339867,29.6567078 571.543453,31.210033 571.543453,32.7929129 C571.543453,34.470293 571.327143,36.0767739 570.894516,37.6124036 C570.461889,39.1480333 569.868096,40.5005484 569.113119,41.6699895 C568.358142,42.8394306 567.458969,43.772607 566.415575,44.4695466 C565.37218,45.1664863 564.239731,45.5149509 563.018196,45.5149509 Z M556.834203,32.7574754 C556.834203,34.0332293 556.982651,35.2676209 557.279552,36.460687 C557.576453,37.6537532 557.99635,38.7109594 558.539254,39.6323372 C559.082159,40.553715 559.735331,41.2860813 560.498791,41.829458 C561.262251,42.3728346 562.110527,42.6445189 563.043644,42.6445189 C564.010693,42.6445189 564.875935,42.3551161 565.639394,41.7763018 C566.402854,41.1974875 567.051785,40.4414965 567.586207,39.5083062 C568.120629,38.5751158 568.527801,37.5179097 568.807736,36.336656 C569.087672,35.1554024 569.227637,33.9623541 569.227637,32.7574754 C569.227637,31.4817215 569.079189,30.24733 568.782288,29.0542638 C568.485387,27.8611976 568.061249,26.8098977 567.509861,25.9003324 C566.958474,24.9907671 566.305301,24.264307 565.550324,23.7209303 C564.795348,23.1775537 563.959796,22.9058694 563.043644,22.9058694 C562.076595,22.9058694 561.211354,23.189366 560.447894,23.7563678 C559.684434,24.3233695 559.035503,25.0675481 558.501082,25.988926 C557.96666,26.9103038 557.555246,27.9616038 557.266828,29.1428574 C556.97841,30.324111 556.834203,31.5289717 556.834203,32.7574754 Z M572.99402,42.5027692 L573.223056,42.5027692 C573.579338,42.4791441 573.918648,42.3905514 574.240998,42.2369884 C574.563347,42.0834254 574.860244,41.805835 575.131696,41.4042088 C575.403148,41.0025825 575.657631,40.4414955 575.895152,39.7209308 C576.132673,39.000366 576.353225,38.0730959 576.556814,36.9390924 C576.760403,35.8050889 576.942782,34.428949 577.103957,32.8106316 C577.265132,31.1923141 577.41358,29.2728057 577.549307,27.0520489 L577.956483,20.1771872 L587.52513,20.1771872 L587.52513,42.5027692 L590.324469,42.5027692 L590.324469,51.929126 L588.288586,51.929126 L588.288586,45.3377637 L575.029902,45.3377637 L575.029902,51.929126 L572.99402,51.929126 L572.99402,42.5027692 Z M585.234763,42.5027692 L585.234763,23.0121817 L580.09416,23.0121817 L579.839674,27.1937986 C579.585188,31.4226866 579.22467,34.7596781 578.758112,37.2048731 C578.291553,39.6500681 577.66807,41.4160158 576.887645,42.5027692 L585.234763,42.5027692 Z M595.261484,40.4828355 L605.72083,20.1771872 L607.604021,20.1771872 L607.604021,45.3377637 L605.313653,45.3377637 L605.313653,25.3864896 L595.032447,45.3377637 L592.971116,45.3377637 L592.971116,20.1771872 L595.261484,20.1771872 L595.261484,40.4828355 Z M619.335793,45.5149509 C618.06336,45.5149509 616.905464,45.1546739 615.862069,44.4341092 C614.818674,43.7135445 613.923743,42.7567434 613.177249,41.5636772 C612.430755,40.370611 611.853927,39.0062836 611.446749,37.4706538 C611.03957,35.9350241 610.835984,34.3639804 610.835984,32.7574754 C610.835984,31.0800953 611.052295,29.4736144 611.484922,27.9379847 C611.917549,26.402355 612.515583,25.0439337 613.279043,23.8626801 C614.042503,22.6814264 614.945917,21.7423439 615.989312,21.0454042 C617.032707,20.3484646 618.165155,20 619.38669,20 C620.659123,20 621.812778,20.3720893 622.847691,21.1162791 C623.882603,21.8604689 624.773292,22.8349885 625.519786,24.0398672 C626.26628,25.2447459 626.843108,26.6090734 627.250286,28.1328906 C627.657465,29.6567078 627.861051,31.210033 627.861051,32.7929129 C627.861051,34.470293 627.644741,36.0767739 627.212114,37.6124036 C626.779486,39.1480333 626.185693,40.5005484 625.430716,41.6699895 C624.67574,42.8394306 623.776567,43.772607 622.733172,44.4695466 C621.689777,45.1664863 620.557329,45.5149509 619.335793,45.5149509 Z M613.1518,32.7574754 C613.1518,34.0332293 613.300249,35.2676209 613.59715,36.460687 C613.894051,37.6537532 614.313947,38.7109594 614.856852,39.6323372 C615.399757,40.553715 616.052929,41.2860813 616.816389,41.829458 C617.579849,42.3728346 618.428124,42.6445189 619.361242,42.6445189 C620.328291,42.6445189 621.193532,42.3551161 621.956992,41.7763018 C622.720452,41.1974875 623.369383,40.4414965 623.903805,39.5083062 C624.438226,38.5751158 624.845399,37.5179097 625.125334,36.336656 C625.405269,35.1554024 625.545235,33.9623541 625.545235,32.7574754 C625.545235,31.4817215 625.396786,30.24733 625.099885,29.0542638 C624.802984,27.8611976 624.378847,26.8098977 623.827459,25.9003324 C623.276071,24.9907671 622.622899,24.264307 621.867922,23.7209303 C621.112945,23.1775537 620.277394,22.9058694 619.361242,22.9058694 C618.394193,22.9058694 617.528952,23.189366 616.765492,23.7563678 C616.002032,24.3233695 615.353101,25.0675481 614.818679,25.988926 C614.284257,26.9103038 613.872844,27.9616038 613.584425,29.1428574 C613.296007,30.324111 613.1518,31.5289717 613.1518,32.7574754 Z M637.506044,20.1771872 L651.909912,20.1771872 L651.909912,45.3377637 L649.619544,45.3377637 L649.619544,23.0121817 L639.796412,23.0121817 L639.796412,45.3377637 L637.506044,45.3377637 L637.506044,20.1771872 Z M656.337956,45.3377637 L656.337956,20.1771872 L663.870721,20.1771872 C664.668113,20.1771872 665.401871,20.4075282 666.072019,20.8682171 C666.742167,21.328906 667.318995,21.9431487 667.802519,22.7109635 C668.286044,23.4787784 668.663527,24.3410806 668.934979,25.297896 C669.206431,26.2547115 669.342155,27.2292311 669.342155,28.2214842 C669.342155,29.2609874 669.214914,30.2650379 668.960428,31.2336659 C668.705941,32.2022938 668.345424,33.0645961 667.878865,33.8205984 C667.412306,34.5766007 666.852444,35.179031 666.199262,35.6279074 C665.54608,36.0767838 664.820804,36.3012186 664.023413,36.3012186 L658.628324,36.3012186 L658.628324,45.3377637 L656.337956,45.3377637 Z M658.628324,33.4662241 L663.89617,33.4662241 C664.371212,33.4662241 664.799591,33.3303819 665.181321,33.0586936 C665.563051,32.7870053 665.889637,32.4090098 666.161089,31.9246958 C666.432542,31.4403818 666.644611,30.8792947 666.797302,30.2414178 C666.949994,29.6035408 667.026339,28.9302363 667.026339,28.2214842 C667.026339,27.4891069 666.93727,26.8039901 666.75913,26.1661131 C666.580989,25.5282362 666.343472,24.9730553 666.046571,24.5005538 C665.74967,24.0280524 665.401877,23.6618692 665.003181,23.4019934 C664.604485,23.1421176 664.184589,23.0121817 663.743479,23.0121817 L658.628324,23.0121817 L658.628324,33.4662241 Z M679.547016,45.5149509 C678.274583,45.5149509 677.116687,45.1546739 676.073292,44.4341092 C675.029897,43.7135445 674.134966,42.7567434 673.388472,41.5636772 C672.641978,40.370611 672.06515,39.0062836 671.657972,37.4706538 C671.250793,35.9350241 671.047207,34.3639804 671.047207,32.7574754 C671.047207,31.0800953 671.263517,29.4736144 671.696145,27.9379847 C672.128772,26.402355 672.726806,25.0439337 673.490266,23.8626801 C674.253726,22.6814264 675.157139,21.7423439 676.200534,21.0454042 C677.243929,20.3484646 678.376378,20 679.597913,20 C680.870346,20 682.024001,20.3720893 683.058913,21.1162791 C684.093825,21.8604689 684.984515,22.8349885 685.731009,24.0398672 C686.477503,25.2447459 687.054331,26.6090734 687.461509,28.1328906 C687.868688,29.6567078 688.072274,31.210033 688.072274,32.7929129 C688.072274,34.470293 687.855963,36.0767739 687.423336,37.6124036 C686.990709,39.1480333 686.396916,40.5005484 685.641939,41.6699895 C684.886962,42.8394306 683.98779,43.772607 682.944395,44.4695466 C681.901,45.1664863 680.768552,45.5149509 679.547016,45.5149509 Z M673.363023,32.7574754 C673.363023,34.0332293 673.511472,35.2676209 673.808373,36.460687 C674.105274,37.6537532 674.52517,38.7109594 675.068075,39.6323372 C675.61098,40.553715 676.264152,41.2860813 677.027612,41.829458 C677.791071,42.3728346 678.639347,42.6445189 679.572465,42.6445189 C680.539514,42.6445189 681.404755,42.3551161 682.168215,41.7763018 C682.931675,41.1974875 683.580606,40.4414965 684.115027,39.5083062 C684.649449,38.5751158 685.056622,37.5179097 685.336557,36.336656 C685.616492,35.1554024 685.756458,33.9623541 685.756458,32.7574754 C685.756458,31.4817215 685.608009,30.24733 685.311108,29.0542638 C685.014207,27.8611976 684.590069,26.8098977 684.038682,25.9003324 C683.487294,24.9907671 682.834122,24.264307 682.079145,23.7209303 C681.324168,23.1775537 680.488616,22.9058694 679.572465,22.9058694 C678.605416,22.9058694 677.740174,23.189366 676.976715,23.7563678 C676.213255,24.3233695 675.564324,25.0675481 675.029902,25.988926 C674.49548,26.9103038 674.084066,27.9616038 673.795648,29.1428574 C673.50723,30.324111 673.363023,31.5289717 673.363023,32.7574754 Z M693.569156,31.1273536 L695.859524,31.1273536 L701.789032,20.1771872 L704.41023,20.1771872 L697.971752,32.3322262 L704.995547,45.3377637 L702.374348,45.3377637 L696.114009,33.9623481 L693.569156,33.9623481 L693.569156,45.3377637 L691.278789,45.3377637 L691.278789,20.1771872 L693.569156,20.1771872 L693.569156,31.1273536 Z M714.436951,45.5149509 C713.164518,45.5149509 712.006622,45.1546739 710.963227,44.4341092 C709.919832,43.7135445 709.024901,42.7567434 708.278407,41.5636772 C707.531913,40.370611 706.955085,39.0062836 706.547907,37.4706538 C706.140728,35.9350241 705.937142,34.3639804 705.937142,32.7574754 C705.937142,31.0800953 706.153452,29.4736144 706.58608,27.9379847 C707.018707,26.402355 707.616741,25.0439337 708.380201,23.8626801 C709.143661,22.6814264 710.047075,21.7423439 711.09047,21.0454042 C712.133864,20.3484646 713.266313,20 714.487848,20 C715.760281,20 716.913936,20.3720893 717.948848,21.1162791 C718.983761,21.8604689 719.87445,22.8349885 720.620944,24.0398672 C721.367438,25.2447459 721.944266,26.6090734 722.351444,28.1328906 C722.758623,29.6567078 722.962209,31.210033 722.962209,32.7929129 C722.962209,34.470293 722.745899,36.0767739 722.313271,37.6124036 C721.880644,39.1480333 721.286851,40.5005484 720.531874,41.6699895 C719.776897,42.8394306 718.877725,43.772607 717.83433,44.4695466 C716.790935,45.1664863 715.658487,45.5149509 714.436951,45.5149509 Z M708.252958,32.7574754 C708.252958,34.0332293 708.401407,35.2676209 708.698308,36.460687 C708.995209,37.6537532 709.415105,38.7109594 709.95801,39.6323372 C710.500915,40.553715 711.154087,41.2860813 711.917547,41.829458 C712.681006,42.3728346 713.529282,42.6445189 714.4624,42.6445189 C715.429449,42.6445189 716.29469,42.3551161 717.05815,41.7763018 C717.82161,41.1974875 718.470541,40.4414965 719.004962,39.5083062 C719.539384,38.5751158 719.946557,37.5179097 720.226492,36.336656 C720.506427,35.1554024 720.646393,33.9623541 720.646393,32.7574754 C720.646393,31.4817215 720.497944,30.24733 720.201043,29.0542638 C719.904142,27.8611976 719.480004,26.8098977 718.928617,25.9003324 C718.377229,24.9907671 717.724057,24.264307 716.96908,23.7209303 C716.214103,23.1775537 715.378551,22.9058694 714.4624,22.9058694 C713.495351,22.9058694 712.630109,23.189366 711.86665,23.7563678 C711.10319,24.3233695 710.454259,25.0675481 709.919837,25.988926 C709.385415,26.9103038 708.974002,27.9616038 708.685583,29.1428574 C708.397165,30.324111 708.252958,31.5289717 708.252958,32.7574754 Z M740.699835,20.1771872 L740.699835,45.3377637 L738.409467,45.3377637 L738.409467,33.8914732 L728.459091,33.8914732 L728.459091,45.3377637 L726.168724,45.3377637 L726.168724,20.1771872 L728.459091,20.1771872 L728.459091,31.0564787 L738.409467,31.0564787 L738.409467,20.1771872 L740.699835,20.1771872 Z M743.906349,32.5802883 C743.906349,31.0682836 744.097211,29.5622078 744.478941,28.0620157 C744.860671,26.5618236 745.420533,25.2152147 746.158544,24.0221485 C746.896555,22.8290823 747.799969,21.8663751 748.868813,21.1339978 C749.937656,20.4016206 751.150691,20.0354374 752.507953,20.0354374 C754.119701,20.0354374 755.502391,20.5433689 756.656063,21.559247 C757.809736,22.5751251 758.666494,23.8981093 759.226365,25.5282394 L757.419519,27.1583612 C757.148067,26.3551087 756.82148,25.6818043 756.439751,25.1384276 C756.058021,24.5950509 755.642366,24.1579936 755.192773,23.8272426 C754.74318,23.4964916 754.280869,23.2602444 753.805828,23.118494 C753.330786,22.9767436 752.864234,22.9058694 752.406159,22.9058694 C751.405178,22.9058694 750.51873,23.1952722 749.746787,23.7740865 C748.974845,24.3529008 748.325913,25.1088917 747.799975,26.0420821 C747.274036,26.9752725 746.879587,28.0265724 746.616618,29.1960135 C746.353648,30.3654546 746.222166,31.5407844 746.222166,32.722038 C746.222166,34.0450421 746.379097,35.3030583 746.692963,36.4961245 C747.00683,37.6891906 747.443692,38.7463968 748.003563,39.6677746 C748.563433,40.5891524 749.225088,41.3215187 749.988548,41.8648954 C750.752008,42.4082721 751.583318,42.6799563 752.482504,42.6799563 C752.957546,42.6799563 753.445304,42.5972698 753.945795,42.4318943 C754.446285,42.2665188 754.925561,42.0007407 755.383637,41.6345521 C755.841712,41.2683635 756.270092,40.8076814 756.668787,40.2524922 C757.067483,39.697303 757.394069,39.0299047 757.648556,38.2502773 L759.557196,39.703212 C759.268777,40.648215 758.865846,41.4809863 758.34839,42.201551 C757.830934,42.9221157 757.245624,43.5304522 756.592442,44.0265787 C755.93926,44.5227052 755.247915,44.9007007 754.518387,45.1605765 C753.788858,45.4204523 753.076307,45.5503883 752.38071,45.5503883 C751.142209,45.5503883 750.005519,45.1723928 748.970607,44.4163905 C747.935695,43.6603881 747.040764,42.6740562 746.285787,41.4573649 C745.53081,40.2406737 744.9455,38.8586277 744.529838,37.3111854 C744.114177,35.7637431 743.906349,34.1867932 743.906349,32.5802883 Z M764.570556,45.5858257 C764.248206,45.5858257 763.891931,45.5444825 763.501718,45.4617947 C763.111505,45.379107 762.780677,45.2550772 762.509225,45.0897017 L762.509225,42.3610194 C762.797643,42.5263949 763.115747,42.6445185 763.463545,42.7153937 C763.811343,42.786269 764.129447,42.821706 764.417865,42.821706 C764.994701,42.821706 765.507908,42.5736465 765.957501,42.07752 C766.407094,41.5813935 766.852439,40.6009676 767.293549,39.1362131 L760.727828,20.1771872 L763.145438,20.1771872 L768.362387,35.6633448 L773.299402,20.1771872 L775.717012,20.1771872 L769.35488,39.3134003 C768.981633,40.4474038 768.616874,41.4101111 768.260593,42.201551 C767.904312,42.9929909 767.539553,43.6426707 767.166306,44.1506097 C766.793059,44.6585488 766.39437,45.0247319 765.970225,45.2491701 C765.546081,45.4736083 765.079529,45.5858257 764.570556,45.5858257 Z M782.893498,27.1937986 C782.689909,30.4540587 782.435426,33.2417754 782.130042,35.5570325 C781.824658,37.8722897 781.425968,39.7740795 780.933961,41.262459 C780.441954,42.7508386 779.852402,43.8434818 779.165288,44.5404215 C778.478174,45.2373611 777.651105,45.5858257 776.684056,45.5858257 L776.27688,42.5027692 C776.633161,42.4791441 776.972472,42.3905514 777.294821,42.2369884 C777.617171,42.0834254 777.914067,41.805835 778.18552,41.4042088 C778.456972,41.0025825 778.711455,40.4414955 778.948976,39.7209308 C779.186497,39.000366 779.407048,38.0730959 779.610637,36.9390924 C779.814227,35.8050889 779.996606,34.428949 780.157781,32.8106316 C780.318956,31.1923141 780.467404,29.2728057 780.60313,27.0520489 L781.010307,20.1771872 L790.578954,20.1771872 L790.578954,45.3377637 L788.288586,45.3377637 L788.288586,23.0121817 L783.147983,23.0121817 L782.893498,27.1937986 Z M795.032447,20.1771872 L797.322815,20.1771872 L797.322815,29.4617943 L801.190991,29.4617943 C802.03928,29.4617943 802.832418,29.6330735 803.570429,29.975637 C804.30844,30.3182006 804.948888,30.8202259 805.491793,31.4817279 C806.034698,32.1432299 806.463077,32.9700951 806.776944,33.9623481 C807.09081,34.9546012 807.247741,36.1004 807.247741,37.399779 C807.247741,38.699158 807.086569,39.8449568 806.764219,40.8372099 C806.44187,41.8294629 806.005008,42.6563281 805.45362,43.3178301 C804.902232,43.9793321 804.257543,44.4813574 803.519532,44.8239209 C802.781521,45.1664845 802.005348,45.3377637 801.190991,45.3377637 L795.032447,45.3377637 L795.032447,20.1771872 Z M797.322815,42.573644 L801.190991,42.573644 C802.446458,42.573644 803.383803,42.1070558 804.003054,41.1738655 C804.622304,40.2406751 804.931925,38.9826589 804.931925,37.399779 C804.931925,35.8168991 804.60958,34.5588829 803.964881,33.6256925 C803.320182,32.6925021 802.395561,32.225914 801.190991,32.225914 L797.322815,32.225914 L797.322815,42.573644 Z M823.153073,23.0121817 L816.918183,23.0121817 L816.918183,45.3377637 L814.627815,45.3377637 L814.627815,23.0121817 L808.392925,23.0121817 L808.392925,20.1771872 L823.153073,20.1771872 L823.153073,23.0121817 Z M828.090088,40.4828355 L838.549434,20.1771872 L840.432625,20.1771872 L840.432625,45.3377637 L838.142257,45.3377637 L838.142257,25.3864896 L827.861051,45.3377637 L825.79972,45.3377637 L825.79972,20.1771872 L828.090088,20.1771872 L828.090088,40.4828355 Z M844.860669,45.3377637 L844.860669,20.1771872 L852.393434,20.1771872 C853.190826,20.1771872 853.924584,20.4075282 854.594732,20.8682171 C855.26488,21.328906 855.841708,21.9431487 856.325232,22.7109635 C856.808757,23.4787784 857.186239,24.3410806 857.457692,25.297896 C857.729144,26.2547115 857.864868,27.2292311 857.864868,28.2214842 C857.864868,29.2609874 857.737627,30.2650379 857.48314,31.2336659 C857.228654,32.2022938 856.868137,33.0645961 856.401578,33.8205984 C855.935019,34.5766007 855.375157,35.179031 854.721975,35.6279074 C854.068793,36.0767838 853.343517,36.3012186 852.546125,36.3012186 L847.151037,36.3012186 L847.151037,45.3377637 L844.860669,45.3377637 Z M847.151037,33.4662241 L852.418883,33.4662241 C852.893924,33.4662241 853.322304,33.3303819 853.704034,33.0586936 C854.085763,32.7870053 854.41235,32.4090098 854.683802,31.9246958 C854.955254,31.4403818 855.167323,30.8792947 855.320015,30.2414178 C855.472707,29.6035408 855.549052,28.9302363 855.549052,28.2214842 C855.549052,27.4891069 855.459983,26.8039901 855.281842,26.1661131 C855.103702,25.5282362 854.866185,24.9730553 854.569284,24.5005538 C854.272383,24.0280524 853.92459,23.6618692 853.525894,23.4019934 C853.127198,23.1421176 852.707302,23.0121817 852.266192,23.0121817 L847.151037,23.0121817 L847.151037,33.4662241 Z M868.069729,45.5149509 C866.797296,45.5149509 865.6394,45.1546739 864.596005,44.4341092 C863.55261,43.7135445 862.657679,42.7567434 861.911185,41.5636772 C861.164691,40.370611 860.587863,39.0062836 860.180685,37.4706538 C859.773506,35.9350241 859.56992,34.3639804 859.56992,32.7574754 C859.56992,31.0800953 859.78623,29.4736144 860.218857,27.9379847 C860.651485,26.402355 861.249519,25.0439337 862.012979,23.8626801 C862.776438,22.6814264 863.679852,21.7423439 864.723247,21.0454042 C865.766642,20.3484646 866.89909,20 868.120626,20 C869.393059,20 870.546714,20.3720893 871.581626,21.1162791 C872.616538,21.8604689 873.507228,22.8349885 874.253722,24.0398672 C875.000216,25.2447459 875.577043,26.6090734 875.984222,28.1328906 C876.3914,29.6567078 876.594987,31.210033 876.594987,32.7929129 C876.594987,34.470293 876.378676,36.0767739 875.946049,37.6124036 C875.513422,39.1480333 874.919629,40.5005484 874.164652,41.6699895 C873.409675,42.8394306 872.510503,43.772607 871.467108,44.4695466 C870.423713,45.1664863 869.291265,45.5149509 868.069729,45.5149509 Z M861.885736,32.7574754 C861.885736,34.0332293 862.034184,35.2676209 862.331085,36.460687 C862.627986,37.6537532 863.047883,38.7109594 863.590788,39.6323372 C864.133692,40.553715 864.786865,41.2860813 865.550324,41.829458 C866.313784,42.3728346 867.16206,42.6445189 868.095178,42.6445189 C869.062226,42.6445189 869.927468,42.3551161 870.690928,41.7763018 C871.454387,41.1974875 872.103318,40.4414965 872.63774,39.5083062 C873.172162,38.5751158 873.579334,37.5179097 873.85927,36.336656 C874.139205,35.1554024 874.27917,33.9623541 874.27917,32.7574754 C874.27917,31.4817215 874.130722,30.24733 873.833821,29.0542638 C873.53692,27.8611976 873.112782,26.8098977 872.561395,25.9003324 C872.010007,24.9907671 871.356835,24.264307 870.601858,23.7209303 C869.846881,23.1775537 869.011329,22.9058694 868.095178,22.9058694 C867.128129,22.9058694 866.262887,23.189366 865.499427,23.7563678 C864.735968,24.3233695 864.087037,25.0675481 863.552615,25.988926 C863.018193,26.9103038 862.606779,27.9616038 862.318361,29.1428574 C862.029943,30.324111 861.885736,31.5289717 861.885736,32.7574754 Z M893.16198,38.8527137 C893.16198,39.8213417 893.022014,40.7072686 892.742079,41.5105211 C892.462144,42.3137735 892.08042,42.9988904 891.596895,43.5658921 C891.113371,44.1328939 890.553509,44.5699511 889.917292,44.8770771 C889.281076,45.184203 888.598214,45.3377637 887.868686,45.3377637 L879.292531,45.3377637 L879.292531,20.1771872 L888.275862,20.1771872 C888.903596,20.1771872 889.47194,20.3661849 889.980914,20.7441861 C890.489887,21.1221872 890.922507,21.6124001 891.278789,22.2148395 C891.63507,22.8172788 891.91076,23.5023957 892.105866,24.2702105 C892.300972,25.0380254 892.398524,25.8117349 892.398524,26.5913623 C892.398524,27.8434912 892.173731,29.0011023 891.724138,30.0642306 C891.274545,31.1273589 890.634097,31.9187869 889.802774,32.4385385 C890.837686,32.8637898 891.656272,33.6493117 892.258557,34.7951278 C892.860842,35.9409438 893.16198,37.2934589 893.16198,38.8527137 Z M890.846164,38.2857148 C890.846164,37.718713 890.77406,37.1694383 890.629851,36.6378742 C890.485642,36.1063101 890.290539,35.6397219 890.044535,35.2380956 C889.798531,34.8364694 889.505876,34.5175357 889.166561,34.281285 C888.827245,34.0450343 888.454004,33.9269107 888.046825,33.9269107 L881.582899,33.9269107 L881.582899,42.573644 L887.868686,42.573644 C888.29283,42.573644 888.683037,42.4555204 889.039318,42.2192697 C889.395599,41.983019 889.709461,41.6699915 889.980914,41.2801778 C890.252366,40.8903641 890.464435,40.4355882 890.617127,39.9158366 C890.769819,39.396085 890.846164,38.8527165 890.846164,38.2857148 Z M881.582899,22.9413068 L881.582899,31.3399782 L887.334266,31.3399782 C887.741445,31.3399782 888.114686,31.2277607 888.454002,31.0033226 C888.793317,30.7788844 889.085972,30.4776692 889.331976,30.099668 C889.57798,29.7216669 889.773083,29.2787034 889.917292,28.7707644 C890.061501,28.2628253 890.133605,27.725363 890.133605,27.1583612 C890.133605,26.5677344 890.065743,26.0125535 889.930017,25.4928019 C889.79429,24.9730503 889.611911,24.5241807 889.382873,24.1461795 C889.153835,23.7681784 888.873904,23.4728694 888.543072,23.2602437 C888.212239,23.0476181 887.860205,22.9413068 887.486958,22.9413068 L881.582899,22.9413068 Z M902.374348,20.1771872 L904.308436,20.1771872 L911.68851,45.3377637 L909.245451,45.3377637 L907.107775,37.9667779 L899.524112,37.9667779 L897.411884,45.3377637 L894.968826,45.3377637 L902.374348,20.1771872 Z M906.598804,35.4861577 L903.341392,23.8626801 L899.982186,35.4861577 L906.598804,35.4861577 Z M927.135768,23.0121817 L920.900878,23.0121817 L920.900878,45.3377637 L918.61051,45.3377637 L918.61051,23.0121817 L912.37562,23.0121817 L912.37562,20.1771872 L927.135768,20.1771872 L927.135768,23.0121817 Z M929.782415,20.1771872 L932.072783,20.1771872 L932.072783,29.4617943 L935.940959,29.4617943 C936.789248,29.4617943 937.582386,29.6330735 938.320397,29.975637 C939.058408,30.3182006 939.698856,30.8202259 940.241761,31.4817279 C940.784666,32.1432299 941.213045,32.9700951 941.526912,33.9623481 C941.840779,34.9546012 941.99771,36.1004 941.99771,37.399779 C941.99771,38.699158 941.836537,39.8449568 941.514188,40.8372099 C941.191838,41.8294629 940.754976,42.6563281 940.203588,43.3178301 C939.652201,43.9793321 939.007511,44.4813574 938.2695,44.8239209 C937.531489,45.1664845 936.755316,45.3377637 935.940959,45.3377637 L929.782415,45.3377637 L929.782415,20.1771872 Z M932.072783,42.573644 L935.940959,42.573644 C937.196427,42.573644 938.133771,42.1070558 938.753022,41.1738655 C939.372273,40.2406751 939.681893,38.9826589 939.681893,37.399779 C939.681893,35.8168991 939.359549,34.5588829 938.714849,33.6256925 C938.07015,32.6925021 937.145529,32.225914 935.940959,32.225914 L932.072783,32.225914 L932.072783,42.573644 Z M943.702761,32.5802883 C943.702761,31.0682836 943.893623,29.5622078 944.275353,28.0620157 C944.657083,26.5618236 945.216945,25.2152147 945.954956,24.0221485 C946.692967,22.8290823 947.596381,21.8663751 948.665225,21.1339978 C949.734068,20.4016206 950.947103,20.0354374 952.304364,20.0354374 C953.916113,20.0354374 955.298802,20.5433689 956.452475,21.559247 C957.606147,22.5751251 958.462906,23.8981093 959.022776,25.5282394 L957.215931,27.1583612 C956.944478,26.3551087 956.617892,25.6818043 956.236162,25.1384276 C955.854432,24.5950509 955.438777,24.1579936 954.989184,23.8272426 C954.539591,23.4964916 954.077281,23.2602444 953.602239,23.118494 C953.127198,22.9767436 952.660646,22.9058694 952.20257,22.9058694 C951.20159,22.9058694 950.315141,23.1952722 949.543199,23.7740865 C948.771256,24.3529008 948.122325,25.1088917 947.596386,26.0420821 C947.070447,26.9752725 946.675999,28.0265724 946.41303,29.1960135 C946.15006,30.3654546 946.018577,31.5407844 946.018577,32.722038 C946.018577,34.0450421 946.175508,35.3030583 946.489375,36.4961245 C946.803242,37.6891906 947.240104,38.7463968 947.799975,39.6677746 C948.359845,40.5891524 949.0215,41.3215187 949.78496,41.8648954 C950.54842,42.4082721 951.37973,42.6799563 952.278916,42.6799563 C952.753958,42.6799563 953.241716,42.5972698 953.742206,42.4318943 C954.242697,42.2665188 954.721973,42.0007407 955.180048,41.6345521 C955.638124,41.2683635 956.066503,40.8076814 956.465199,40.2524922 C956.863895,39.697303 957.190481,39.0299047 957.444968,38.2502773 L959.353607,39.703212 C959.065189,40.648215 958.662258,41.4809863 958.144802,42.201551 C957.627346,42.9221157 957.042036,43.5304522 956.388854,44.0265787 C955.735671,44.5227052 955.044327,44.9007007 954.314798,45.1605765 C953.58527,45.4204523 952.872718,45.5503883 952.177122,45.5503883 C950.93862,45.5503883 949.801931,45.1723928 948.767019,44.4163905 C947.732107,43.6603881 946.837176,42.6740562 946.082199,41.4573649 C945.327222,40.2406737 944.741912,38.8586277 944.32625,37.3111854 C943.910589,35.7637431 943.702761,34.1867932 943.702761,32.5802883 Z M971.747042,45.3377637 L971.747042,35.59247 L967.573483,35.59247 L963.425372,45.3377637 L960.753276,45.3377637 L965.232218,35.1317834 C964.706279,34.8719076 964.21852,34.4998182 963.768927,34.0155043 C963.319334,33.5311903 962.933369,32.9701032 962.611019,32.3322262 C962.28867,31.6943493 962.038428,30.9974201 961.860288,30.2414178 C961.682147,29.4854154 961.593078,28.6939874 961.593078,27.8671098 C961.593078,26.9221069 961.728802,25.9889306 962.000254,25.0675527 C962.271707,24.1461749 962.64919,23.3252159 963.132714,22.6046512 C963.616239,21.8840865 964.193066,21.2993747 964.863214,20.8504984 C965.533362,20.401622 966.267121,20.1771872 967.064512,20.1771872 L974.037409,20.1771872 L974.037409,45.3377637 L971.747042,45.3377637 Z M971.747042,23.0121817 L967.191755,23.0121817 C966.750645,23.0121817 966.330748,23.1421176 965.932052,23.4019934 C965.533357,23.6618692 965.185564,24.0103338 964.888663,24.4473977 C964.591762,24.8844615 964.354244,25.3982991 964.176104,25.988926 C963.997963,26.5795528 963.908894,27.2056078 963.908894,27.8671098 C963.908894,28.5049868 963.985239,29.1192295 964.137931,29.7098563 C964.290623,30.3004831 964.502692,30.8202269 964.774144,31.2691033 C965.045597,31.7179797 965.372183,32.0782566 965.753913,32.349945 C966.135643,32.6216333 966.564022,32.7574754 967.039063,32.7574754 L971.747042,32.7574754 L971.747042,23.0121817 Z M983.682402,32.5802883 C983.682402,31.0682836 983.873264,29.5622078 984.254994,28.0620157 C984.636724,26.5618236 985.196586,25.2152147 985.934597,24.0221485 C986.672608,22.8290823 987.576022,21.8663751 988.644866,21.1339978 C989.713709,20.4016206 990.926744,20.0354374 992.284006,20.0354374 C993.895754,20.0354374 995.278444,20.5433689 996.432116,21.559247 C997.585789,22.5751251 998.442547,23.8981093 999.002418,25.5282394 L997.195572,27.1583612 C996.92412,26.3551087 996.597533,25.6818043 996.215804,25.1384276 C995.834074,24.5950509 995.418419,24.1579936 994.968826,23.8272426 C994.519233,23.4964916 994.056922,23.2602444 993.581881,23.118494 C993.106839,22.9767436 992.640287,22.9058694 992.182211,22.9058694 C991.181231,22.9058694 990.294783,23.1952722 989.52284,23.7740865 C988.750897,24.3529008 988.101966,25.1088917 987.576027,26.0420821 C987.050089,26.9752725 986.65564,28.0265724 986.392671,29.1960135 C986.129701,30.3654546 985.998219,31.5407844 985.998219,32.722038 C985.998219,34.0450421 986.15515,35.3030583 986.469016,36.4961245 C986.782883,37.6891906 987.219745,38.7463968 987.779616,39.6677746 C988.339486,40.5891524 989.001141,41.3215187 989.764601,41.8648954 C990.528061,42.4082721 991.359371,42.6799563 992.258557,42.6799563 C992.733599,42.6799563 993.221357,42.5972698 993.721848,42.4318943 C994.222338,42.2665188 994.701614,42.0007407 995.15969,41.6345521 C995.617765,41.2683635 996.046145,40.8076814 996.44484,40.2524922 C996.843536,39.697303 997.170122,39.0299047 997.424609,38.2502773 L999.333249,39.703212 C999.04483,40.648215 998.641899,41.4809863 998.124443,42.201551 C997.606987,42.9221157 997.021677,43.5304522 996.368495,44.0265787 C995.715313,44.5227052 995.023968,44.9007007 994.294439,45.1605765 C993.564911,45.4204523 992.85236,45.5503883 992.156763,45.5503883 C990.918262,45.5503883 989.781572,45.1723928 988.74666,44.4163905 C987.711748,43.6603881 986.816817,42.6740562 986.06184,41.4573649 C985.306863,40.2406737 984.721553,38.8586277 984.305891,37.3111854 C983.89023,35.7637431 983.682402,34.1867932 983.682402,32.5802883 Z M1009.53811,45.5149509 C1008.26568,45.5149509 1007.10778,45.1546739 1006.06438,44.4341092 C1005.02099,43.7135445 1004.12606,42.7567434 1003.37956,41.5636772 C1002.63307,40.370611 1002.05624,39.0062836 1001.64906,37.4706538 C1001.24189,35.9350241 1001.0383,34.3639804 1001.0383,32.7574754 C1001.0383,31.0800953 1001.25461,29.4736144 1001.68724,27.9379847 C1002.11986,26.402355 1002.7179,25.0439337 1003.48136,23.8626801 C1004.24482,22.6814264 1005.14823,21.7423439 1006.19163,21.0454042 C1007.23502,20.3484646 1008.36747,20 1009.58901,20 C1010.86144,20 1012.01509,20.3720893 1013.05001,21.1162791 C1014.08492,21.8604689 1014.97561,22.8349885 1015.7221,24.0398672 C1016.4686,25.2447459 1017.04542,26.6090734 1017.4526,28.1328906 C1017.85978,29.6567078 1018.06337,31.210033 1018.06337,32.7929129 C1018.06337,34.470293 1017.84706,36.0767739 1017.41443,37.6124036 C1016.9818,39.1480333 1016.38801,40.5005484 1015.63303,41.6699895 C1014.87806,42.8394306 1013.97888,43.772607 1012.93549,44.4695466 C1011.89209,45.1664863 1010.75964,45.5149509 1009.53811,45.5149509 Z M1003.35412,32.7574754 C1003.35412,34.0332293 1003.50256,35.2676209 1003.79947,36.460687 C1004.09637,37.6537532 1004.51626,38.7109594 1005.05917,39.6323372 C1005.60207,40.553715 1006.25524,41.2860813 1007.0187,41.829458 C1007.78216,42.3728346 1008.63044,42.6445189 1009.56356,42.6445189 C1010.53061,42.6445189 1011.39585,42.3551161 1012.15931,41.7763018 C1012.92277,41.1974875 1013.5717,40.4414965 1014.10612,39.5083062 C1014.64054,38.5751158 1015.04771,37.5179097 1015.32765,36.336656 C1015.60759,35.1554024 1015.74755,33.9623541 1015.74755,32.7574754 C1015.74755,31.4817215 1015.5991,30.24733 1015.3022,29.0542638 C1015.0053,27.8611976 1014.58116,26.8098977 1014.02977,25.9003324 C1013.47839,24.9907671 1012.82521,24.264307 1012.07024,23.7209303 C1011.31526,23.1775537 1010.47971,22.9058694 1009.56356,22.9058694 C1008.59651,22.9058694 1007.73127,23.189366 1006.96781,23.7563678 C1006.20435,24.3233695 1005.55542,25.0675481 1005.021,25.988926 C1004.48657,26.9103038 1004.07516,27.9616038 1003.78674,29.1428574 C1003.49832,30.324111 1003.35412,31.5289717 1003.35412,32.7574754 Z M1026.48683,32.5802883 C1026.48683,31.0682836 1026.67769,29.5622078 1027.05942,28.0620157 C1027.44115,26.5618236 1028.00101,25.2152147 1028.73903,24.0221485 C1029.47704,22.8290823 1030.38045,21.8663751 1031.44929,21.1339978 C1032.51814,20.4016206 1033.73117,20.0354374 1035.08843,20.0354374 C1036.70018,20.0354374 1038.08287,20.5433689 1039.23654,21.559247 C1040.39022,22.5751251 1041.24698,23.8981093 1041.80685,25.5282394 L1040,27.1583612 C1039.72855,26.3551087 1039.40196,25.6818043 1039.02023,25.1384276 C1038.6385,24.5950509 1038.22285,24.1579936 1037.77325,23.8272426 C1037.32366,23.4964916 1036.86135,23.2602444 1036.38631,23.118494 C1035.91127,22.9767436 1035.44472,22.9058694 1034.98664,22.9058694 C1033.98566,22.9058694 1033.09921,23.1952722 1032.32727,23.7740865 C1031.55533,24.3529008 1030.90639,25.1088917 1030.38046,26.0420821 C1029.85452,26.9752725 1029.46007,28.0265724 1029.1971,29.1960135 C1028.93413,30.3654546 1028.80265,31.5407844 1028.80265,32.722038 C1028.80265,34.0450421 1028.95958,35.3030583 1029.27344,36.4961245 C1029.58731,37.6891906 1030.02417,38.7463968 1030.58404,39.6677746 C1031.14391,40.5891524 1031.80557,41.3215187 1032.56903,41.8648954 C1033.33249,42.4082721 1034.1638,42.6799563 1035.06299,42.6799563 C1035.53803,42.6799563 1036.02579,42.5972698 1036.52628,42.4318943 C1037.02677,42.2665188 1037.50604,42.0007407 1037.96412,41.6345521 C1038.42219,41.2683635 1038.85057,40.8076814 1039.24927,40.2524922 C1039.64796,39.697303 1039.97455,39.0299047 1040.22904,38.2502773 L1042.13768,39.703212 C1041.84926,40.648215 1041.44633,41.4809863 1040.92887,42.201551 C1040.41142,42.9221157 1039.8261,43.5304522 1039.17292,44.0265787 C1038.51974,44.5227052 1037.8284,44.9007007 1037.09887,45.1605765 C1036.36934,45.4204523 1035.65679,45.5503883 1034.96119,45.5503883 C1033.72269,45.5503883 1032.586,45.1723928 1031.55109,44.4163905 C1030.51618,43.6603881 1029.62124,42.6740562 1028.86627,41.4573649 C1028.11129,40.2406737 1027.52598,38.8586277 1027.11032,37.3111854 C1026.69466,35.7637431 1026.48683,34.1867932 1026.48683,32.5802883 Z M1045.03881,20.1771872 L1059.44268,20.1771872 L1059.44268,45.3377637 L1057.15231,45.3377637 L1057.15231,23.0121817 L1047.32918,23.0121817 L1047.32918,45.3377637 L1045.03881,45.3377637 L1045.03881,20.1771872 Z M1076.13691,42.5027692 L1076.13691,45.3377637 L1063.87072,45.3377637 L1063.87072,20.1771872 L1075.90788,20.1771872 L1075.90788,23.0121817 L1066.16109,23.0121817 L1066.16109,31.162791 L1074.63545,31.162791 L1074.63545,33.8205984 L1066.16109,33.8205984 L1066.16109,42.5027692 L1076.13691,42.5027692 Z M1093.34012,45.3377637 L1079.31798,45.3377637 L1079.31798,20.1771872 L1081.60835,20.1771872 L1081.60835,42.5027692 L1090.2863,42.5027692 L1090.2863,20.1771872 L1092.57666,20.1771872 L1092.57666,42.5027692 L1095.376,42.5027692 L1095.376,51.929126 L1093.34012,51.929126 L1093.34012,45.3377637 Z M1100.31302,40.4828355 L1110.77236,20.1771872 L1112.65555,20.1771872 L1112.65555,45.3377637 L1110.36519,45.3377637 L1110.36519,25.3864896 L1100.08398,45.3377637 L1098.02265,45.3377637 L1098.02265,20.1771872 L1100.31302,20.1771872 L1100.31302,40.4828355 Z M1122.52958,20.1771872 L1124.46367,20.1771872 L1131.84375,45.3377637 L1129.40069,45.3377637 L1127.26301,37.9667779 L1119.67935,37.9667779 L1117.56712,45.3377637 L1115.12406,45.3377637 L1122.52958,20.1771872 Z M1126.75404,35.4861577 L1123.49663,23.8626801 L1120.13742,35.4861577 L1126.75404,35.4861577 Z M1138.89299,27.1937986 C1138.6894,30.4540587 1138.43492,33.2417754 1138.12953,35.5570325 C1137.82415,37.8722897 1137.42546,39.7740795 1136.93345,41.262459 C1136.44144,42.7508386 1135.85189,43.8434818 1135.16478,44.5404215 C1134.47767,45.2373611 1133.6506,45.5858257 1132.68355,45.5858257 L1132.27637,42.5027692 C1132.63265,42.4791441 1132.97196,42.3905514 1133.29431,42.2369884 C1133.61666,42.0834254 1133.91356,41.805835 1134.18501,41.4042088 C1134.45646,41.0025825 1134.71095,40.4414955 1134.94847,39.7209308 C1135.18599,39.000366 1135.40654,38.0730959 1135.61013,36.9390924 C1135.81372,35.8050889 1135.9961,34.428949 1136.15727,32.8106316 C1136.31845,31.1923141 1136.4669,29.2728057 1136.60262,27.0520489 L1137.0098,20.1771872 L1146.57845,20.1771872 L1146.57845,45.3377637 L1144.28808,45.3377637 L1144.28808,23.0121817 L1139.14747,23.0121817 L1138.89299,27.1937986 Z M1153.32231,40.4828355 L1163.78165,20.1771872 L1165.66484,20.1771872 L1165.66484,45.3377637 L1163.37448,45.3377637 L1163.37448,25.3864896 L1153.09327,45.3377637 L1151.03194,45.3377637 L1151.03194,20.1771872 L1153.32231,20.1771872 L1153.32231,40.4828355 Z M1168.87136,32.5802883 C1168.87136,31.0682836 1169.06222,29.5622078 1169.44395,28.0620157 C1169.82568,26.5618236 1170.38554,25.2152147 1171.12355,24.0221485 C1171.86156,22.8290823 1172.76498,21.8663751 1173.83382,21.1339978 C1174.90266,20.4016206 1176.1157,20.0354374 1177.47296,20.0354374 C1179.08471,20.0354374 1180.4674,20.5433689 1181.62107,21.559247 C1182.77474,22.5751251 1183.6315,23.8981093 1184.19137,25.5282394 L1182.38453,27.1583612 C1182.11307,26.3551087 1181.78649,25.6818043 1181.40476,25.1384276 C1181.02303,24.5950509 1180.60737,24.1579936 1180.15778,23.8272426 C1179.70819,23.4964916 1179.24588,23.2602444 1178.77084,23.118494 C1178.29579,22.9767436 1177.82924,22.9058694 1177.37117,22.9058694 C1176.37019,22.9058694 1175.48374,23.1952722 1174.7118,23.7740865 C1173.93985,24.3529008 1173.29092,25.1088917 1172.76498,26.0420821 C1172.23904,26.9752725 1171.8446,28.0265724 1171.58163,29.1960135 C1171.31866,30.3654546 1171.18717,31.5407844 1171.18717,32.722038 C1171.18717,34.0450421 1171.3441,35.3030583 1171.65797,36.4961245 C1171.97184,37.6891906 1172.4087,38.7463968 1172.96857,39.6677746 C1173.52844,40.5891524 1174.1901,41.3215187 1174.95356,41.8648954 C1175.71702,42.4082721 1176.54833,42.6799563 1177.44751,42.6799563 C1177.92255,42.6799563 1178.41031,42.5972698 1178.9108,42.4318943 C1179.41129,42.2665188 1179.89057,42.0007407 1180.34864,41.6345521 C1180.80672,41.2683635 1181.2351,40.8076814 1181.6338,40.2524922 C1182.03249,39.697303 1182.35908,39.0299047 1182.61356,38.2502773 L1184.5222,39.703212 C1184.23379,40.648215 1183.83085,41.4809863 1183.3134,42.201551 C1182.79594,42.9221157 1182.21063,43.5304522 1181.55745,44.0265787 C1180.90427,44.5227052 1180.21292,44.9007007 1179.48339,45.1605765 C1178.75387,45.4204523 1178.04131,45.5503883 1177.34572,45.5503883 C1176.10722,45.5503883 1174.97053,45.1723928 1173.93562,44.4163905 C1172.9007,43.6603881 1172.00577,42.6740562 1171.2508,41.4573649 C1170.49582,40.2406737 1169.91051,38.8586277 1169.49485,37.3111854 C1169.07919,35.7637431 1168.87136,34.1867932 1168.87136,32.5802883 Z M1200.40209,23.0121817 L1194.1672,23.0121817 L1194.1672,45.3377637 L1191.87683,45.3377637 L1191.87683,23.0121817 L1185.64194,23.0121817 L1185.64194,20.1771872 L1200.40209,20.1771872 L1200.40209,23.0121817 Z M1210.35246,45.5149509 C1209.08003,45.5149509 1207.92213,45.1546739 1206.87874,44.4341092 C1205.83534,43.7135445 1204.94041,42.7567434 1204.19392,41.5636772 C1203.44742,40.370611 1202.8706,39.0062836 1202.46342,37.4706538 C1202.05624,35.9350241 1201.85265,34.3639804 1201.85265,32.7574754 C1201.85265,31.0800953 1202.06896,29.4736144 1202.50159,27.9379847 C1202.93422,26.402355 1203.53225,25.0439337 1204.29571,23.8626801 C1205.05917,22.6814264 1205.96259,21.7423439 1207.00598,21.0454042 C1208.04938,20.3484646 1209.18182,20 1210.40336,20 C1211.67579,20 1212.82945,20.3720893 1213.86436,21.1162791 C1214.89927,21.8604689 1215.78996,22.8349885 1216.53646,24.0398672 C1217.28295,25.2447459 1217.85978,26.6090734 1218.26696,28.1328906 C1218.67413,29.6567078 1218.87772,31.210033 1218.87772,32.7929129 C1218.87772,34.470293 1218.66141,36.0767739 1218.22878,37.6124036 C1217.79616,39.1480333 1217.20236,40.5005484 1216.44739,41.6699895 C1215.69241,42.8394306 1214.79324,43.772607 1213.74984,44.4695466 C1212.70645,45.1664863 1211.574,45.5149509 1210.35246,45.5149509 Z M1204.16847,32.7574754 C1204.16847,34.0332293 1204.31692,35.2676209 1204.61382,36.460687 C1204.91072,37.6537532 1205.33062,38.7109594 1205.87352,39.6323372 C1206.41643,40.553715 1207.0696,41.2860813 1207.83306,41.829458 C1208.59652,42.3728346 1209.44479,42.6445189 1210.37791,42.6445189 C1211.34496,42.6445189 1212.2102,42.3551161 1212.97366,41.7763018 C1213.73712,41.1974875 1214.38605,40.4414965 1214.92047,39.5083062 C1215.4549,38.5751158 1215.86207,37.5179097 1216.142,36.336656 C1216.42194,35.1554024 1216.5619,33.9623541 1216.5619,32.7574754 C1216.5619,31.4817215 1216.41346,30.24733 1216.11655,29.0542638 C1215.81965,27.8611976 1215.39552,26.8098977 1214.84413,25.9003324 C1214.29274,24.9907671 1213.63957,24.264307 1212.88459,23.7209303 C1212.12961,23.1775537 1211.29406,22.9058694 1210.37791,22.9058694 C1209.41086,22.9058694 1208.54562,23.189366 1207.78216,23.7563678 C1207.0187,24.3233695 1206.36977,25.0675481 1205.83535,25.988926 C1205.30093,26.9103038 1204.88951,27.9616038 1204.60109,29.1428574 C1204.31268,30.324111 1204.16847,31.5289717 1204.16847,32.7574754 Z M1237.70963,45.3377637 L1237.70963,25.8826137 L1231.70378,40.8017724 L1230.4059,40.8017724 L1224.3746,25.8826137 L1224.3746,45.3377637 L1222.08423,45.3377637 L1222.08423,20.1771872 L1224.50185,20.1771872 L1231.04212,36.5138432 L1237.60784,20.1771872 L1240,20.1771872 L1240,45.3377637 L1237.70963,45.3377637 Z" id="ИМЕЮТСЯ-ПРОТИВОПОКАЗ"></path>
                    </g>
                </g>
            </g>
        </g>
    </g>
</svg>