<?xml version="1.0" encoding="UTF-8"?>
<svg width="732px" height="20px" viewBox="0 0 732 20" version="1.1" xmlns="http://www.w3.org/2000/svg" xmlns:xlink="http://www.w3.org/1999/xlink">
    <!-- Generator: sketchtool 52.4 (67378) - http://www.bohemiancoding.com/sketch -->
    <title>49814FFE-E254-4586-9109-52C99808A27E</title>
    <desc>Created with sketchtool.</desc>
    <g id="Page-1" stroke="none" stroke-width="1" fill="none" fill-rule="evenodd">
        <g id="планшет_768_р-чем-рассказать-на-приеме-" transform="translate(-18.000000, -1111.000000)" fill="#FFFFFF">
            <g id="Group-71" transform="translate(0.000000, 926.000000)">
                <g id="Group-54">
                    <g id="Group" transform="translate(0.000000, 175.000000)">
                        <path d="M19.3971243,22.4945297 L25.7773254,10.1080842 L26.926072,10.1080842 L26.926072,25.4560359 L25.5289477,25.4560359 L25.5289477,13.2857587 L19.2574119,25.4560359 L18,25.4560359 L18,10.1080842 L19.3971243,10.1080842 L19.3971243,22.4945297 Z M39.1586716,25.4560359 L39.1586716,13.5883943 L35.4951012,22.6890812 L34.7033974,22.6890812 L31.0243033,13.5883943 L31.0243033,25.4560359 L29.627179,25.4560359 L29.627179,10.1080842 L31.1019214,10.1080842 L35.0914875,20.0734443 L39.0965772,10.1080842 L40.5557959,10.1080842 L40.5557959,25.4560359 L39.1586716,25.4560359 Z M50.7392798,23.7266892 L50.7392798,25.4560359 L43.2569029,25.4560359 L43.2569029,10.1080842 L50.5995674,10.1080842 L50.5995674,11.8374308 L44.6540272,11.8374308 L44.6540272,16.8093025 L49.8233872,16.8093025 L49.8233872,18.430565 L44.6540272,18.430565 L44.6540272,23.7266892 L50.7392798,23.7266892 Z M60.9227637,25.56412 C60.2397217,25.56412 59.6136093,25.3947899 59.0444077,25.0561244 C58.475206,24.717459 57.9784557,24.2418934 57.5541417,23.6294134 C57.1298278,23.0169334 56.7883119,22.2819684 56.5295839,21.4244964 C56.2708559,20.5670244 56.1156214,19.619496 56.0638758,18.5818828 L54.0768546,18.5818828 L54.0768546,25.4560359 L52.6797302,25.4560359 L52.6797302,10.1080842 L54.0768546,10.1080842 L54.0768546,16.8525362 L56.0793994,16.8525362 C56.1414941,15.8005117 56.3070776,14.8529833 56.5761547,14.0099226 C56.8452319,13.1668619 57.1970967,12.4499107 57.6317598,11.8590477 C58.0664228,11.2681846 58.5657604,10.8106329 59.1297875,10.4863788 C59.6938146,10.1621246 60.3018163,10 60.9538109,10 C61.6989476,10 62.3793921,10.1945496 62.9951648,10.5836545 C63.6109375,10.9727594 64.1387347,11.5167776 64.5785723,12.2157254 C65.01841,12.9146732 65.3599258,13.7397074 65.6031302,14.6908528 C65.8463345,15.6419983 65.9679349,16.6795959 65.9679349,17.8036768 C65.9679349,18.985403 65.84116,20.0554255 65.5876066,21.0137766 C65.3340531,21.9721277 64.9821883,22.7863536 64.5320015,23.4564788 C64.0818148,24.126604 63.5488431,24.6454028 62.9330704,25.0128908 C62.3172977,25.3803788 61.6472022,25.56412 60.9227637,25.56412 Z M57.4610001,17.78206 C57.4610001,18.7332054 57.5437919,19.5798563 57.7093778,20.3220379 C57.8749637,21.0642196 58.1104027,21.6947043 58.4157017,22.2135109 C58.7210008,22.7323174 59.0858018,23.1286221 59.5101158,23.4024367 C59.9344297,23.6762513 60.4104822,23.8131565 60.9382873,23.8131565 C61.4971398,23.8131565 62.0016519,23.6690457 62.4518387,23.3808199 C62.9020254,23.092594 63.2823499,22.6818782 63.5928235,22.1486603 C63.9032971,21.6154425 64.1413233,20.981355 64.3069093,20.246379 C64.4724952,19.511403 64.5552869,18.6899716 64.5552869,17.78206 C64.5552869,16.8309146 64.4673207,15.9842637 64.2913857,15.2420821 C64.1154506,14.4999004 63.8670754,13.8730185 63.5462527,13.3614176 C63.22543,12.8498166 62.8451055,12.4571148 62.4052678,12.1833002 C61.9654302,11.9094856 61.4764416,11.7725803 60.9382873,11.7725803 C60.400133,11.7725803 59.9163189,11.9166911 59.4868304,12.204917 C59.0573419,12.4931429 58.6925408,12.8966531 58.3924163,13.4154597 C58.0922918,13.9342663 57.8620274,14.5647509 57.701616,15.3069326 C57.5412046,16.0491142 57.4610001,16.8741485 57.4610001,17.78206 Z M75.8875175,11.8374308 L72.0842346,11.8374308 L72.0842346,25.4560359 L70.6871103,25.4560359 L70.6871103,11.8374308 L66.8838275,11.8374308 L66.8838275,10.1080842 L75.8875175,10.1080842 L75.8875175,11.8374308 Z M76.7568393,17.6739758 C76.7568393,16.751653 76.8732652,15.8329468 77.1061204,14.9178296 C77.3389756,14.0027124 77.6804915,13.1812809 78.1306782,12.4535106 C78.580865,11.7257402 79.1319474,11.1384888 79.783942,10.6917387 C80.4359366,10.2449885 81.1758876,10.0216168 82.0038173,10.0216168 C82.9869838,10.0216168 83.8304244,10.331455 84.5341647,10.9511407 C85.2379049,11.5708263 85.7605276,12.3778467 86.1020486,13.372226 L84.9998728,14.3666003 C84.8342868,13.8766163 84.6350692,13.4659006 84.402214,13.1344408 C84.1693588,12.8029811 83.9158092,12.5363761 83.6415575,12.334618 C83.3673058,12.1328599 83.0852964,11.9887491 82.7955211,11.9022813 C82.5057457,11.8158136 82.2211491,11.7725803 81.9417229,11.7725803 C81.3311247,11.7725803 80.7903913,11.949116 80.3195063,12.3021928 C79.8486213,12.6552695 79.4527734,13.116424 79.1319506,13.6856701 C78.8111279,14.2549162 78.5705144,14.8962092 78.4101031,15.6095683 C78.2496917,16.3229273 78.1694872,17.0398785 78.1694872,17.7604432 C78.1694872,18.5674757 78.2652151,19.3348656 78.4566739,20.0626359 C78.6481326,20.7904063 78.9146185,21.435302 79.2561395,21.9973425 C79.5976604,22.559383 80.0012701,23.0061264 80.4669805,23.3375862 C80.932691,23.669046 81.4397903,23.8347734 81.9882937,23.8347734 C82.2780691,23.8347734 82.5756018,23.7843346 82.8809009,23.6834555 C83.1861999,23.5825765 83.4785582,23.4204518 83.7579845,23.1970768 C84.0374107,22.9737017 84.2987221,22.6926857 84.5419265,22.3540203 C84.7851308,22.0153549 84.9843484,21.6082419 85.1395852,21.1326692 L86.3038555,22.0189593 C86.1279204,22.5954111 85.8821325,23.1034016 85.5664843,23.5429461 C85.2508361,23.9824906 84.8937968,24.3535758 84.4953556,24.656213 C84.0969145,24.9588502 83.6751941,25.1894275 83.230182,25.3479517 C82.7851698,25.5064759 82.3505132,25.5857369 81.9261993,25.5857369 C81.1707134,25.5857369 80.4773328,25.3551596 79.8460364,24.8939982 C79.21474,24.4328368 78.6688321,23.8311743 78.2082962,23.0889926 C77.7477603,22.3468109 77.390721,21.5037629 77.1371676,20.5598231 C76.8836141,19.6158833 76.7568393,18.6539439 76.7568393,17.6739758 Z M93.8638504,25.4560359 L93.8638504,19.5114067 L91.3179794,19.5114067 L88.787632,25.4560359 L87.1576536,25.4560359 L89.8898079,19.2303878 C89.5689851,19.0718636 89.2714524,18.8448891 88.9972007,18.5494576 C88.722949,18.2540261 88.48751,17.911763 88.2908767,17.522658 C88.0942434,17.1335531 87.9415962,16.7084263 87.8329304,16.2472648 C87.7242646,15.7861034 87.6699326,15.3033323 87.6699326,14.798937 C87.6699326,14.2224852 87.7527243,13.6532476 87.9183102,13.0912072 C88.0838961,12.5291667 88.3141606,12.0283817 88.6091106,11.5888373 C88.9040605,11.1492928 89.2559253,10.7926186 89.6647156,10.518804 C90.0735059,10.2449894 90.5210986,10.1080842 91.0075073,10.1080842 L95.2609747,10.1080842 L95.2609747,25.4560359 L93.8638504,25.4560359 Z M93.8638504,11.8374308 L91.0851253,11.8374308 C90.8160482,11.8374308 90.5599113,11.9166918 90.316707,12.075216 C90.0735026,12.2337402 89.8613488,12.4463036 89.6802392,12.7129126 C89.4991296,12.9795215 89.3542441,13.2929625 89.2455783,13.6532448 C89.1369125,14.0135272 89.0825805,14.3954208 89.0825805,14.798937 C89.0825805,15.188042 89.1291508,15.56273 89.2222929,15.9230123 C89.315435,16.2832947 89.4447971,16.6003384 89.610383,16.874153 C89.7759689,17.1479676 89.9751865,17.3677365 90.2080417,17.5334664 C90.440897,17.6991963 90.7022083,17.78206 90.9919837,17.78206 L93.8638504,17.78206 L93.8638504,11.8374308 Z M101.889553,10.1080842 L110.675913,10.1080842 L110.675913,25.4560359 L109.278789,25.4560359 L109.278789,11.8374308 L103.286678,11.8374308 L103.286678,25.4560359 L101.889553,25.4560359 L101.889553,10.1080842 Z M113.37702,25.4560359 L113.37702,10.1080842 L117.972007,10.1080842 C118.458415,10.1080842 118.906008,10.2485922 119.314798,10.5296124 C119.723589,10.8106327 120.075453,11.1853207 120.370403,11.6536878 C120.665353,12.1220548 120.895618,12.6480592 121.061204,13.2317166 C121.22679,13.815374 121.309581,14.409831 121.309581,15.0151053 C121.309581,15.6492023 121.231964,16.2616731 121.076727,16.8525362 C120.921491,17.4433992 120.701575,17.9694036 120.416974,18.430565 C120.132373,18.8917264 119.790857,19.2592089 119.392416,19.5330235 C118.993975,19.8068381 118.551557,19.9437433 118.065148,19.9437433 L114.774144,19.9437433 L114.774144,25.4560359 L113.37702,25.4560359 Z M114.774144,18.2143967 L117.98753,18.2143967 C118.277306,18.2143967 118.538617,18.131533 118.771472,17.9658031 C119.004327,17.8000732 119.203545,17.569496 119.369131,17.2740644 C119.534717,16.9786329 119.664079,16.6363698 119.757221,16.2472648 C119.850363,15.8581599 119.896933,15.4474442 119.896933,15.0151053 C119.896933,14.5683552 119.842601,14.150434 119.733936,13.761329 C119.62527,13.3722241 119.480384,13.0335637 119.299275,12.7453378 C119.118165,12.457112 118.906011,12.2337402 118.662807,12.075216 C118.419603,11.9166918 118.163466,11.8374308 117.894389,11.8374308 L114.774144,11.8374308 L114.774144,18.2143967 Z M127.534546,25.56412 C126.758362,25.56412 126.052045,25.3443511 125.415575,24.9048066 C124.779104,24.4652621 124.233196,23.8816135 123.777834,23.1538431 C123.322473,22.4260727 122.970608,21.593833 122.722229,20.6570988 C122.47385,19.7203647 122.349663,18.762028 122.349663,17.78206 C122.349663,16.7588581 122.481612,15.7789048 122.745515,14.8421707 C123.009417,13.9054365 123.374218,13.0767996 123.839929,12.3562348 C124.305639,11.6356701 124.856722,11.0628298 125.493193,10.6376966 C126.129663,10.2125634 126.820457,10 127.565594,10 C128.341778,10 129.045507,10.2269745 129.676804,10.6809303 C130.3081,11.134886 130.851421,11.729343 131.306782,12.464319 C131.762143,13.199295 132.114008,14.0315348 132.362387,14.9610633 C132.610766,15.8905917 132.734954,16.8381201 132.734954,17.8036768 C132.734954,18.8268787 132.603004,19.8068321 132.339102,20.7435662 C132.075199,21.6803003 131.712985,22.5053345 131.252449,23.2186936 C130.791914,23.9320527 130.243418,24.5012903 129.606947,24.9264234 C128.970477,25.3515566 128.279683,25.56412 127.534546,25.56412 Z M123.762311,17.78206 C123.762311,18.5602699 123.852864,19.3132487 124.033974,20.0410191 C124.215083,20.7687895 124.47122,21.4136852 124.802392,21.9757257 C125.133564,22.5377662 125.531999,22.9845096 125.99771,23.3159694 C126.46342,23.6474291 126.980868,23.8131565 127.55007,23.8131565 C128.13997,23.8131565 128.667767,23.6366208 129.133478,23.2835441 C129.599188,22.9304674 129.995036,22.4693129 130.321033,21.9000668 C130.647031,21.3308206 130.895406,20.6859249 131.066166,19.9653602 C131.236927,19.2447955 131.322306,18.517036 131.322306,17.78206 C131.322306,17.0038501 131.231752,16.2508713 131.050643,15.5231009 C130.869533,14.7953306 130.610809,14.1540376 130.274462,13.5992028 C129.938116,13.0443679 129.539681,12.6012273 129.079145,12.2697675 C128.618609,11.9383077 128.108923,11.7725803 127.55007,11.7725803 C126.96017,11.7725803 126.432373,11.9455133 125.966662,12.2913843 C125.500952,12.6372554 125.105104,13.0912044 124.779107,13.6532448 C124.453109,14.2152853 124.202147,14.8565783 124.026212,15.577143 C123.850277,16.2977077 123.762311,17.0326727 123.762311,17.78206 Z M142.607965,11.8374308 L138.804683,11.8374308 L138.804683,25.4560359 L137.407558,25.4560359 L137.407558,11.8374308 L133.604275,11.8374308 L133.604275,10.1080842 L142.607965,10.1080842 L142.607965,11.8374308 Z M145.619544,22.4945297 L151.999746,10.1080842 L153.148492,10.1080842 L153.148492,25.4560359 L151.751368,25.4560359 L151.751368,13.2857587 L145.479832,25.4560359 L144.22242,25.4560359 L144.22242,10.1080842 L145.619544,10.1080842 L145.619544,22.4945297 Z M163.999491,21.5001553 C163.999491,22.0910184 163.914112,22.6314338 163.743352,23.1214179 C163.572591,23.6114019 163.339739,24.0293231 163.044789,24.3751942 C162.749839,24.7210652 162.408324,24.9876702 162.020232,25.175017 C161.63214,25.3623638 161.215594,25.4560359 160.770581,25.4560359 L155.539127,25.4560359 L155.539127,10.1080842 L161.018959,10.1080842 C161.401877,10.1080842 161.748567,10.2233728 162.059041,10.4539535 C162.369514,10.6845342 162.633413,10.9835641 162.850744,11.3510521 C163.068076,11.7185401 163.236247,12.1364614 163.355261,12.6048284 C163.474276,13.0731955 163.533783,13.5451583 163.533783,14.020731 C163.533783,14.7845296 163.396659,15.4906724 163.122407,16.1391807 C162.848156,16.7876889 162.457482,17.27046 161.950375,17.5875085 C162.581672,17.8469118 163.081009,18.3260802 163.448403,19.0250279 C163.815797,19.7239757 163.999491,20.5490099 163.999491,21.5001553 Z M162.586843,21.154286 C162.586843,20.808415 162.54286,20.4733574 162.454892,20.1491033 C162.366925,19.8248491 162.247912,19.5402303 162.09785,19.2952383 C161.947787,19.0502463 161.769268,18.8556968 161.562285,18.7115838 C161.355303,18.5674709 161.127626,18.4954155 160.879247,18.4954155 L156.936251,18.4954155 L156.936251,23.7699229 L160.770581,23.7699229 C161.02931,23.7699229 161.267336,23.6978675 161.484667,23.5537545 C161.701999,23.4096416 161.893455,23.2186948 162.059041,22.9809084 C162.224627,22.7431221 162.353989,22.4657088 162.447131,22.1486603 C162.540273,21.8316119 162.586843,21.5001571 162.586843,21.154286 Z M156.936251,11.7941972 L156.936251,16.9173867 L160.444586,16.9173867 C160.692965,16.9173867 160.920642,16.8489341 161.127624,16.7120268 C161.334607,16.5751195 161.513126,16.3913782 161.663189,16.1607975 C161.813251,15.9302168 161.932264,15.6600091 162.020232,15.3501663 C162.108199,15.0403234 162.152182,14.7124714 162.152182,14.3666003 C162.152182,14.006318 162.110786,13.6676576 162.027993,13.3506092 C161.9452,13.0335607 161.833949,12.7597502 161.694236,12.5291695 C161.554523,12.2985888 161.383765,12.1184503 161.181957,11.9887487 C160.980149,11.859047 160.765408,11.7941972 160.537727,11.7941972 L156.936251,11.7941972 Z M170.752259,25.56412 C169.976075,25.56412 169.269758,25.3443511 168.633287,24.9048066 C167.996816,24.4652621 167.450908,23.8816135 166.995547,23.1538431 C166.540185,22.4260727 166.18832,21.593833 165.939941,20.6570988 C165.691563,19.7203647 165.567375,18.762028 165.567375,17.78206 C165.567375,16.7588581 165.699324,15.7789048 165.963227,14.8421707 C166.227129,13.9054365 166.59193,13.0767996 167.057641,12.3562348 C167.523351,11.6356701 168.074434,11.0628298 168.710905,10.6376966 C169.347376,10.2125634 170.038169,10 170.783306,10 C171.55949,10 172.263219,10.2269745 172.894516,10.6809303 C173.525812,11.134886 174.069133,11.729343 174.524494,12.464319 C174.979856,13.199295 175.33172,14.0315348 175.580099,14.9610633 C175.828478,15.8905917 175.952666,16.8381201 175.952666,17.8036768 C175.952666,18.8268787 175.820716,19.8068321 175.556814,20.7435662 C175.292911,21.6803003 174.930697,22.5053345 174.470162,23.2186936 C174.009626,23.9320527 173.461131,24.5012903 172.82466,24.9264234 C172.188189,25.3515566 171.497395,25.56412 170.752259,25.56412 Z M166.980023,17.78206 C166.980023,18.5602699 167.070576,19.3132487 167.251686,20.0410191 C167.432796,20.7687895 167.688932,21.4136852 168.020104,21.9757257 C168.351276,22.5377662 168.749711,22.9845096 169.215422,23.3159694 C169.681132,23.6474291 170.198581,23.8131565 170.767782,23.8131565 C171.357682,23.8131565 171.885479,23.6366208 172.35119,23.2835441 C172.8169,22.9304674 173.212748,22.4693129 173.538745,21.9000668 C173.864743,21.3308206 174.113118,20.6859249 174.283878,19.9653602 C174.454639,19.2447955 174.540018,18.517036 174.540018,17.78206 C174.540018,17.0038501 174.449464,16.2508713 174.268355,15.5231009 C174.087245,14.7953306 173.828521,14.1540376 173.492175,13.5992028 C173.155828,13.0443679 172.757393,12.6012273 172.296857,12.2697675 C171.836321,11.9383077 171.326635,11.7725803 170.767782,11.7725803 C170.177882,11.7725803 169.650085,11.9455133 169.184375,12.2913843 C168.718664,12.6372554 168.322816,13.0912044 167.996819,13.6532448 C167.670822,14.2152853 167.419859,14.8565783 167.243924,15.577143 C167.067989,16.2977077 166.980023,17.0326727 166.980023,17.78206 Z M177.90864,10.1080842 L186.694999,10.1080842 L186.694999,25.4560359 L185.297875,25.4560359 L185.297875,11.8374308 L179.305764,11.8374308 L179.305764,25.4560359 L177.90864,25.4560359 L177.90864,10.1080842 Z M193.851381,25.56412 C193.075197,25.56412 192.36888,25.3443511 191.732409,24.9048066 C191.095938,24.4652621 190.55003,23.8816135 190.094669,23.1538431 C189.639307,22.4260727 189.287442,21.593833 189.039063,20.6570988 C188.790685,19.7203647 188.666497,18.762028 188.666497,17.78206 C188.666497,16.7588581 188.798446,15.7789048 189.062349,14.8421707 C189.326251,13.9054365 189.691053,13.0767996 190.156763,12.3562348 C190.622473,11.6356701 191.173556,11.0628298 191.810027,10.6376966 C192.446498,10.2125634 193.137291,10 193.882428,10 C194.658612,10 195.362342,10.2269745 195.993638,10.6809303 C196.624934,11.134886 197.168255,11.729343 197.623616,12.464319 C198.078978,13.199295 198.430842,14.0315348 198.679221,14.9610633 C198.9276,15.8905917 199.051788,16.8381201 199.051788,17.8036768 C199.051788,18.8268787 198.919838,19.8068321 198.655936,20.7435662 C198.392033,21.6803003 198.029819,22.5053345 197.569284,23.2186936 C197.108748,23.9320527 196.560253,24.5012903 195.923782,24.9264234 C195.287311,25.3515566 194.596517,25.56412 193.851381,25.56412 Z M190.079145,17.78206 C190.079145,18.5602699 190.169698,19.3132487 190.350808,20.0410191 C190.531918,20.7687895 190.788055,21.4136852 191.119226,21.9757257 C191.450398,22.5377662 191.848833,22.9845096 192.314544,23.3159694 C192.780254,23.6474291 193.297703,23.8131565 193.866904,23.8131565 C194.456804,23.8131565 194.984601,23.6366208 195.450312,23.2835441 C195.916022,22.9304674 196.31187,22.4693129 196.637867,21.9000668 C196.963865,21.3308206 197.21224,20.6859249 197.383,19.9653602 C197.553761,19.2447955 197.63914,18.517036 197.63914,17.78206 C197.63914,17.0038501 197.548586,16.2508713 197.367477,15.5231009 C197.186367,14.7953306 196.927643,14.1540376 196.591297,13.5992028 C196.25495,13.0443679 195.856515,12.6012273 195.395979,12.2697675 C194.935443,11.9383077 194.425757,11.7725803 193.866904,11.7725803 C193.277004,11.7725803 192.749207,11.9455133 192.283497,12.2913843 C191.817786,12.6372554 191.421938,13.0912044 191.095941,13.6532448 C190.769944,14.2152853 190.518981,14.8565783 190.343046,15.577143 C190.167111,16.2977077 190.079145,17.0326727 190.079145,17.78206 Z M202.404886,16.7876857 L203.80201,16.7876857 L207.41901,10.1080842 L209.017941,10.1080842 L205.09047,17.522658 L209.374984,25.4560359 L207.776053,25.4560359 L203.957246,18.5170323 L202.404886,18.5170323 L202.404886,25.4560359 L201.007762,25.4560359 L201.007762,10.1080842 L202.404886,10.1080842 L202.404886,16.7876857 Z M214.001018,10.1080842 L215.180812,10.1080842 L219.682657,25.4560359 L218.192391,25.4560359 L216.888408,20.9597345 L212.262374,20.9597345 L210.973915,25.4560359 L209.483649,25.4560359 L214.001018,10.1080842 Z M216.577936,19.4465562 L214.590915,12.3562348 L212.541799,19.4465562 L216.577936,19.4465562 Z M220.489884,11.9238982 C220.841754,11.2753899 221.2583,10.7926188 221.739534,10.4755703 C222.220768,10.1585219 222.818421,10 223.53251,10 C224.557073,10 225.351357,10.3098382 225.915384,10.9295238 C226.479411,11.5492095 226.76142,12.4499019 226.76142,13.631628 C226.76142,14.510717 226.606186,15.2636958 226.295712,15.8905871 C225.985238,16.5174784 225.550582,16.9245914 224.991729,17.1119382 C225.674771,17.2272285 226.223266,17.6091221 226.637231,18.2576303 C227.051196,18.9061386 227.258175,19.7491867 227.258175,20.7867998 C227.258175,21.478542 227.162447,22.1162322 226.970989,22.6998896 C226.77953,23.283547 226.513044,23.7879348 226.171523,24.2130679 C225.830002,24.6382011 225.426392,24.9696559 224.960682,25.2074423 C224.494972,25.4452286 223.987872,25.56412 223.439369,25.56412 C222.704581,25.56412 222.052596,25.3551594 221.483395,24.9372319 C220.914193,24.5193043 220.479537,23.9284501 220.179412,23.1646515 L221.297112,22.0189593 C221.535141,22.5665885 221.830087,22.9989209 222.181957,23.3159694 C222.533827,23.6330178 222.973658,23.7915397 223.501463,23.7915397 C223.842984,23.7915397 224.15604,23.7194843 224.440641,23.5753714 C224.725242,23.4312584 224.97103,23.2331061 225.178012,22.9809084 C225.384995,22.7287108 225.547991,22.4260781 225.667006,22.0730014 C225.786021,21.7199247 225.845527,21.3344284 225.845527,20.9165008 C225.845527,20.0085893 225.584216,19.2916382 225.061585,18.7656259 C224.538955,18.2396137 223.81194,17.9766115 222.880519,17.9766115 L222.042245,17.9766115 L222.042245,16.2472648 L222.880519,16.2472648 C223.656703,16.2472648 224.267292,16.0310987 224.712304,15.5987598 C225.157317,15.166421 225.379819,14.5611557 225.379819,13.7829458 C225.379819,13.0767924 225.206474,12.5507881 224.859779,12.204917 C224.513083,11.8590459 224.075839,11.686113 223.548034,11.686113 C223.082324,11.686113 222.663191,11.8122099 222.290622,12.0644076 C221.918054,12.3166052 221.628283,12.6732794 221.4213,13.1344408 L220.489884,11.9238982 Z M232.567248,10.1080842 L233.747042,10.1080842 L238.248887,25.4560359 L236.758621,25.4560359 L235.454638,20.9597345 L230.828604,20.9597345 L229.540145,25.4560359 L228.049879,25.4560359 L232.567248,10.1080842 Z M235.144166,19.4465562 L233.157145,12.3562348 L231.108029,19.4465562 L235.144166,19.4465562 Z M248.618654,10.1080842 L248.618654,25.4560359 L247.221529,25.4560359 L247.221529,18.4737987 L241.1518,18.4737987 L241.1518,25.4560359 L239.754676,25.4560359 L239.754676,10.1080842 L241.1518,10.1080842 L241.1518,16.744452 L247.221529,16.744452 L247.221529,10.1080842 L248.618654,10.1080842 Z M252.716885,22.4945297 L259.097086,10.1080842 L260.245833,10.1080842 L260.245833,25.4560359 L258.848708,25.4560359 L258.848708,13.2857587 L252.577173,25.4560359 L251.319761,25.4560359 L251.319761,10.1080842 L252.716885,10.1080842 L252.716885,22.4945297 Z M268.737244,25.4560359 L268.737244,19.5114067 L266.191373,19.5114067 L263.661026,25.4560359 L262.031047,25.4560359 L264.763201,19.2303878 C264.442379,19.0718636 264.144846,18.8448891 263.870594,18.5494576 C263.596343,18.2540261 263.360904,17.911763 263.16427,17.522658 C262.967637,17.1335531 262.81499,16.7084263 262.706324,16.2472648 C262.597658,15.7861034 262.543326,15.3033323 262.543326,14.798937 C262.543326,14.2224852 262.626118,13.6532476 262.791704,13.0912072 C262.95729,12.5291667 263.187554,12.0283817 263.482504,11.5888373 C263.777454,11.1492928 264.129319,10.7926186 264.538109,10.518804 C264.946899,10.2449894 265.394492,10.1080842 265.880901,10.1080842 L270.134368,10.1080842 L270.134368,25.4560359 L268.737244,25.4560359 Z M268.737244,11.8374308 L265.958519,11.8374308 C265.689442,11.8374308 265.433305,11.9166918 265.190101,12.075216 C264.946896,12.2337402 264.734742,12.4463036 264.553633,12.7129126 C264.372523,12.9795215 264.227638,13.2929625 264.118972,13.6532448 C264.010306,14.0135272 263.955974,14.3954208 263.955974,14.798937 C263.955974,15.188042 264.002544,15.56273 264.095686,15.9230123 C264.188829,16.2832947 264.318191,16.6003384 264.483777,16.874153 C264.649362,17.1479676 264.84858,17.3677365 265.081435,17.5334664 C265.314291,17.6991963 265.575602,17.78206 265.865377,17.78206 L268.737244,17.78206 L268.737244,11.8374308 Z M272.478432,25.4560359 L272.478432,23.0349505 L273.627179,23.0349505 L273.627179,25.4560359 L272.478432,25.4560359 Z M288.762692,10.1080842 L288.762692,25.4560359 L287.365568,25.4560359 L287.365568,18.4737987 L281.295839,18.4737987 L281.295839,25.4560359 L279.898715,25.4560359 L279.898715,10.1080842 L281.295839,10.1080842 L281.295839,16.744452 L287.365568,16.744452 L287.365568,10.1080842 L288.762692,10.1080842 Z M298.946176,23.7266892 L298.946176,25.4560359 L291.463799,25.4560359 L291.463799,10.1080842 L298.806464,10.1080842 L298.806464,11.8374308 L292.860924,11.8374308 L292.860924,16.8093025 L298.030284,16.8093025 L298.030284,18.430565 L292.860924,18.430565 L292.860924,23.7266892 L298.946176,23.7266892 Z M305.326377,25.56412 C304.550193,25.56412 303.843876,25.3443511 303.207406,24.9048066 C302.570935,24.4652621 302.025027,23.8816135 301.569665,23.1538431 C301.114304,22.4260727 300.762439,21.593833 300.51406,20.6570988 C300.265681,19.7203647 300.141494,18.762028 300.141494,17.78206 C300.141494,16.7588581 300.273443,15.7789048 300.537346,14.8421707 C300.801248,13.9054365 301.166049,13.0767996 301.63176,12.3562348 C302.09747,11.6356701 302.648553,11.0628298 303.285024,10.6376966 C303.921494,10.2125634 304.612288,10 305.357425,10 C306.133609,10 306.837338,10.2269745 307.468635,10.6809303 C308.099931,11.134886 308.643252,11.729343 309.098613,12.464319 C309.553974,13.199295 309.905839,14.0315348 310.154218,14.9610633 C310.402597,15.8905917 310.526785,16.8381201 310.526785,17.8036768 C310.526785,18.8268787 310.394835,19.8068321 310.130933,20.7435662 C309.86703,21.6803003 309.504816,22.5053345 309.04428,23.2186936 C308.583745,23.9320527 308.035249,24.5012903 307.398778,24.9264234 C306.762308,25.3515566 306.071514,25.56412 305.326377,25.56412 Z M301.554142,17.78206 C301.554142,18.5602699 301.644695,19.3132487 301.825805,20.0410191 C302.006914,20.7687895 302.263051,21.4136852 302.594223,21.9757257 C302.925395,22.5377662 303.32383,22.9845096 303.789541,23.3159694 C304.255251,23.6474291 304.772699,23.8131565 305.341901,23.8131565 C305.931801,23.8131565 306.459598,23.6366208 306.925309,23.2835441 C307.391019,22.9304674 307.786867,22.4693129 308.112864,21.9000668 C308.438862,21.3308206 308.687237,20.6859249 308.857997,19.9653602 C309.028758,19.2447955 309.114137,18.517036 309.114137,17.78206 C309.114137,17.0038501 309.023583,16.2508713 308.842474,15.5231009 C308.661364,14.7953306 308.40264,14.1540376 308.066293,13.5992028 C307.729947,13.0443679 307.331512,12.6012273 306.870976,12.2697675 C306.41044,11.9383077 305.900754,11.7725803 305.341901,11.7725803 C304.752001,11.7725803 304.224204,11.9455133 303.758493,12.2913843 C303.292783,12.6372554 302.896935,13.0912044 302.570938,13.6532448 C302.24494,14.2152853 301.993978,14.8565783 301.818043,15.577143 C301.642108,16.2977077 301.554142,17.0326727 301.554142,17.78206 Z M312.482759,10.1080842 L320.229037,10.1080842 L320.229037,11.8374308 L313.879883,11.8374308 L313.879883,16.4201995 L317.558977,16.4201995 C318.003989,16.4201995 318.420535,16.5174743 318.808627,16.7120268 C319.196719,16.9065792 319.538235,17.191198 319.833185,17.5658917 C320.128135,17.9405853 320.360987,18.4125481 320.531747,18.9817943 C320.702508,19.5510404 320.787886,20.2031417 320.787886,20.9381177 C320.787886,21.6730937 320.702508,22.325195 320.531747,22.8944411 C320.360987,23.4636872 320.130722,23.93565 319.840947,24.3103437 C319.551171,24.6850373 319.209655,24.9696561 318.816389,25.1642086 C318.423122,25.3587611 318.003989,25.4560359 317.558977,25.4560359 L312.482759,25.4560359 L312.482759,10.1080842 Z M317.558977,23.7699229 C318.148877,23.7699229 318.599057,23.5141262 318.90953,23.0025253 C319.220004,22.4909243 319.375239,21.8027953 319.375239,20.9381177 C319.375239,20.07344 319.222591,19.385311 318.917292,18.8737101 C318.611993,18.3621091 318.159226,18.1063125 317.558977,18.1063125 L313.879883,18.1063125 L313.879883,23.7699229 L317.558977,23.7699229 Z M322.945667,10.1080842 L326.298766,16.5066668 L329.651864,10.1080842 L331.188701,10.1080842 L327.043899,17.8901442 L331.064512,25.4560359 L329.527675,25.4560359 L326.298766,19.2736215 L323.069856,25.4560359 L321.517496,25.4560359 L325.538109,17.8901442 L321.393307,10.1080842 L322.945667,10.1080842 Z M337.041099,25.56412 C336.264915,25.56412 335.558598,25.3443511 334.922127,24.9048066 C334.285657,24.4652621 333.739749,23.8816135 333.284387,23.1538431 C332.829026,22.4260727 332.477161,21.593833 332.228782,20.6570988 C331.980403,19.7203647 331.856216,18.762028 331.856216,17.78206 C331.856216,16.7588581 331.988165,15.7789048 332.252068,14.8421707 C332.51597,13.9054365 332.880771,13.0767996 333.346482,12.3562348 C333.812192,11.6356701 334.363275,11.0628298 334.999746,10.6376966 C335.636216,10.2125634 336.32701,10 337.072147,10 C337.848331,10 338.55206,10.2269745 339.183357,10.6809303 C339.814653,11.134886 340.357974,11.729343 340.813335,12.464319 C341.268696,13.199295 341.620561,14.0315348 341.86894,14.9610633 C342.117319,15.8905917 342.241507,16.8381201 342.241507,17.8036768 C342.241507,18.8268787 342.109557,19.8068321 341.845655,20.7435662 C341.581752,21.6803003 341.219538,22.5053345 340.759002,23.2186936 C340.298467,23.9320527 339.749971,24.5012903 339.1135,24.9264234 C338.47703,25.3515566 337.786236,25.56412 337.041099,25.56412 Z M333.268864,17.78206 C333.268864,18.5602699 333.359417,19.3132487 333.540527,20.0410191 C333.721636,20.7687895 333.977773,21.4136852 334.308945,21.9757257 C334.640117,22.5377662 335.038552,22.9845096 335.504263,23.3159694 C335.969973,23.6474291 336.487421,23.8131565 337.056623,23.8131565 C337.646523,23.8131565 338.17432,23.6366208 338.640031,23.2835441 C339.105741,22.9304674 339.501589,22.4693129 339.827586,21.9000668 C340.153584,21.3308206 340.401959,20.6859249 340.572719,19.9653602 C340.74348,19.2447955 340.828859,18.517036 340.828859,17.78206 C340.828859,17.0038501 340.738305,16.2508713 340.557196,15.5231009 C340.376086,14.7953306 340.117362,14.1540376 339.781015,13.5992028 C339.444669,13.0443679 339.046234,12.6012273 338.585698,12.2697675 C338.125162,11.9383077 337.615476,11.7725803 337.056623,11.7725803 C336.466723,11.7725803 335.938926,11.9455133 335.473215,12.2913843 C335.007505,12.6372554 334.611657,13.0912044 334.28566,13.6532448 C333.959662,14.2152853 333.7087,14.8565783 333.532765,15.577143 C333.35683,16.2977077 333.268864,17.0326727 333.268864,17.78206 Z M343.126352,23.7266892 L343.266064,23.7266892 C343.483396,23.7122779 343.690375,23.6582363 343.887009,23.5645629 C344.083642,23.4708895 344.264749,23.3015594 344.430335,23.0565674 C344.595921,22.8115753 344.751155,22.4693122 344.896043,22.0297678 C345.04093,21.5902233 345.175467,21.0245885 345.299656,20.3328463 C345.423846,19.6411042 345.535097,18.8016589 345.633414,17.8144853 C345.731731,16.8273116 345.822284,15.6564115 345.905077,14.3017498 L346.153455,10.1080842 L351.99033,10.1080842 L351.99033,23.7266892 L353.697926,23.7266892 L353.697926,29.4767669 L352.456038,29.4767669 L352.456038,25.4560359 L344.36824,25.4560359 L344.36824,29.4767669 L343.126352,29.4767669 L343.126352,23.7266892 Z M350.593205,23.7266892 L350.593205,11.8374308 L347.457437,11.8374308 L347.302201,14.3882172 C347.146964,16.9678389 346.927049,19.0034036 346.642448,20.4949726 C346.357847,21.9865416 345.977523,23.0637696 345.501463,23.7266892 L350.593205,23.7266892 Z M356.709505,22.4945297 L363.089706,10.1080842 L364.238453,10.1080842 L364.238453,25.4560359 L362.841328,25.4560359 L362.841328,13.2857587 L356.569793,25.4560359 L355.312381,25.4560359 L355.312381,10.1080842 L356.709505,10.1080842 L356.709505,22.4945297 Z M371.394834,25.56412 C370.61865,25.56412 369.912333,25.3443511 369.275862,24.9048066 C368.639391,24.4652621 368.093483,23.8816135 367.638122,23.1538431 C367.182761,22.4260727 366.830896,21.593833 366.582517,20.6570988 C366.334138,19.7203647 366.20995,18.762028 366.20995,17.78206 C366.20995,16.7588581 366.3419,15.7789048 366.605802,14.8421707 C366.869705,13.9054365 367.234506,13.0767996 367.700216,12.3562348 C368.165927,11.6356701 368.717009,11.0628298 369.35348,10.6376966 C369.989951,10.2125634 370.680744,10 371.425881,10 C372.202065,10 372.905795,10.2269745 373.537091,10.6809303 C374.168388,11.134886 374.711708,11.729343 375.16707,12.464319 C375.622431,13.199295 375.974296,14.0315348 376.222675,14.9610633 C376.471054,15.8905917 376.595241,16.8381201 376.595241,17.8036768 C376.595241,18.8268787 376.463292,19.8068321 376.199389,20.7435662 C375.935487,21.6803003 375.573273,22.5053345 375.112737,23.2186936 C374.652201,23.9320527 374.103706,24.5012903 373.467235,24.9264234 C372.830764,25.3515566 372.139971,25.56412 371.394834,25.56412 Z M367.622598,17.78206 C367.622598,18.5602699 367.713152,19.3132487 367.894261,20.0410191 C368.075371,20.7687895 368.331508,21.4136852 368.66268,21.9757257 C368.993852,22.5377662 369.392287,22.9845096 369.857997,23.3159694 C370.323708,23.6474291 370.841156,23.8131565 371.410358,23.8131565 C372.000257,23.8131565 372.528055,23.6366208 372.993765,23.2835441 C373.459476,22.9304674 373.855323,22.4693129 374.181321,21.9000668 C374.507318,21.3308206 374.755693,20.6859249 374.926454,19.9653602 C375.097214,19.2447955 375.182593,18.517036 375.182593,17.78206 C375.182593,17.0038501 375.09204,16.2508713 374.91093,15.5231009 C374.729821,14.7953306 374.471096,14.1540376 374.13475,13.5992028 C373.798404,13.0443679 373.399968,12.6012273 372.939432,12.2697675 C372.478897,11.9383077 371.96921,11.7725803 371.410358,11.7725803 C370.820458,11.7725803 370.29266,11.9455133 369.82695,12.2913843 C369.36124,12.6372554 368.965392,13.0912044 368.639394,13.6532448 C368.313397,14.2152853 368.062435,14.8565783 367.8865,15.577143 C367.710565,16.2977077 367.622598,17.0326727 367.622598,17.78206 Z M382.478687,10.1080842 L391.265046,10.1080842 L391.265046,25.4560359 L389.867922,25.4560359 L389.867922,11.8374308 L383.875811,11.8374308 L383.875811,25.4560359 L382.478687,25.4560359 L382.478687,10.1080842 Z M393.966153,25.4560359 L393.966153,10.1080842 L398.56114,10.1080842 C399.047549,10.1080842 399.495142,10.2485922 399.903932,10.5296124 C400.312722,10.8106327 400.664587,11.1853207 400.959537,11.6536878 C401.254487,12.1220548 401.484751,12.6480592 401.650337,13.2317166 C401.815923,13.815374 401.898715,14.409831 401.898715,15.0151053 C401.898715,15.6492023 401.821098,16.2616731 401.665861,16.8525362 C401.510624,17.4433992 401.290708,17.9694036 401.006108,18.430565 C400.721507,18.8917264 400.379991,19.2592089 399.98155,19.5330235 C399.583109,19.8068381 399.14069,19.9437433 398.654282,19.9437433 L395.363278,19.9437433 L395.363278,25.4560359 L393.966153,25.4560359 Z M395.363278,18.2143967 L398.576664,18.2143967 C398.866439,18.2143967 399.12775,18.131533 399.360606,17.9658031 C399.593461,17.8000732 399.792678,17.569496 399.958264,17.2740644 C400.12385,16.9786329 400.253212,16.6363698 400.346354,16.2472648 C400.439497,15.8581599 400.486067,15.4474442 400.486067,15.0151053 C400.486067,14.5683552 400.431735,14.150434 400.323069,13.761329 C400.214403,13.3722241 400.069518,13.0335637 399.888408,12.7453378 C399.707299,12.457112 399.495145,12.2337402 399.25194,12.075216 C399.008736,11.9166918 398.752599,11.8374308 398.483522,11.8374308 L395.363278,11.8374308 L395.363278,18.2143967 Z M408.12368,25.56412 C407.347496,25.56412 406.641179,25.3443511 406.004708,24.9048066 C405.368237,24.4652621 404.822329,23.8816135 404.366968,23.1538431 C403.911606,22.4260727 403.559742,21.593833 403.311363,20.6570988 C403.062984,19.7203647 402.938796,18.762028 402.938796,17.78206 C402.938796,16.7588581 403.070746,15.7789048 403.334648,14.8421707 C403.598551,13.9054365 403.963352,13.0767996 404.429062,12.3562348 C404.894773,11.6356701 405.445855,11.0628298 406.082326,10.6376966 C406.718797,10.2125634 407.40959,10 408.154727,10 C408.930911,10 409.634641,10.2269745 410.265937,10.6809303 C410.897234,11.134886 411.440554,11.729343 411.895916,12.464319 C412.351277,13.199295 412.703142,14.0315348 412.951521,14.9610633 C413.199899,15.8905917 413.324087,16.8381201 413.324087,17.8036768 C413.324087,18.8268787 413.192138,19.8068321 412.928235,20.7435662 C412.664333,21.6803003 412.302119,22.5053345 411.841583,23.2186936 C411.381047,23.9320527 410.832552,24.5012903 410.196081,24.9264234 C409.55961,25.3515566 408.868817,25.56412 408.12368,25.56412 Z M404.351444,17.78206 C404.351444,18.5602699 404.441998,19.3132487 404.623107,20.0410191 C404.804217,20.7687895 405.060354,21.4136852 405.391526,21.9757257 C405.722698,22.5377662 406.121133,22.9845096 406.586843,23.3159694 C407.052554,23.6474291 407.570002,23.8131565 408.139203,23.8131565 C408.729103,23.8131565 409.256901,23.6366208 409.722611,23.2835441 C410.188321,22.9304674 410.584169,22.4693129 410.910167,21.9000668 C411.236164,21.3308206 411.484539,20.6859249 411.6553,19.9653602 C411.82606,19.2447955 411.911439,18.517036 411.911439,17.78206 C411.911439,17.0038501 411.820886,16.2508713 411.639776,15.5231009 C411.458666,14.7953306 411.199942,14.1540376 410.863596,13.5992028 C410.527249,13.0443679 410.128814,12.6012273 409.668278,12.2697675 C409.207743,11.9383077 408.698056,11.7725803 408.139203,11.7725803 C407.549304,11.7725803 407.021506,11.9455133 406.555796,12.2913843 C406.090085,12.6372554 405.694238,13.0912044 405.36824,13.6532448 C405.042243,14.2152853 404.791281,14.8565783 404.615345,15.577143 C404.43941,16.2977077 404.351444,17.0326727 404.351444,17.78206 Z M416.677185,16.7876857 L418.07431,16.7876857 L421.691309,10.1080842 L423.29024,10.1080842 L419.362769,17.522658 L423.647283,25.4560359 L422.048352,25.4560359 L418.229546,18.5170323 L416.677185,18.5170323 L416.677185,25.4560359 L415.280061,25.4560359 L415.280061,10.1080842 L416.677185,10.1080842 L416.677185,16.7876857 Z M429.40654,25.56412 C428.630356,25.56412 427.924039,25.3443511 427.287568,24.9048066 C426.651097,24.4652621 426.10519,23.8816135 425.649828,23.1538431 C425.194467,22.4260727 424.842602,21.593833 424.594223,20.6570988 C424.345844,19.7203647 424.221657,18.762028 424.221657,17.78206 C424.221657,16.7588581 424.353606,15.7789048 424.617509,14.8421707 C424.881411,13.9054365 425.246212,13.0767996 425.711923,12.3562348 C426.177633,11.6356701 426.728715,11.0628298 427.365186,10.6376966 C428.001657,10.2125634 428.692451,10 429.437587,10 C430.213772,10 430.917501,10.2269745 431.548798,10.6809303 C432.180094,11.134886 432.723415,11.729343 433.178776,12.464319 C433.634137,13.199295 433.986002,14.0315348 434.234381,14.9610633 C434.48276,15.8905917 434.606947,16.8381201 434.606947,17.8036768 C434.606947,18.8268787 434.474998,19.8068321 434.211096,20.7435662 C433.947193,21.6803003 433.584979,22.5053345 433.124443,23.2186936 C432.663907,23.9320527 432.115412,24.5012903 431.478941,24.9264234 C430.84247,25.3515566 430.151677,25.56412 429.40654,25.56412 Z M425.634305,17.78206 C425.634305,18.5602699 425.724858,19.3132487 425.905968,20.0410191 C426.087077,20.7687895 426.343214,21.4136852 426.674386,21.9757257 C427.005558,22.5377662 427.403993,22.9845096 427.869704,23.3159694 C428.335414,23.6474291 428.852862,23.8131565 429.422064,23.8131565 C430.011964,23.8131565 430.539761,23.6366208 431.005471,23.2835441 C431.471182,22.9304674 431.86703,22.4693129 432.193027,21.9000668 C432.519024,21.3308206 432.7674,20.6859249 432.93816,19.9653602 C433.108921,19.2447955 433.1943,18.517036 433.1943,17.78206 C433.1943,17.0038501 433.103746,16.2508713 432.922636,15.5231009 C432.741527,14.7953306 432.482803,14.1540376 432.146456,13.5992028 C431.81011,13.0443679 431.411675,12.6012273 430.951139,12.2697675 C430.490603,11.9383077 429.980916,11.7725803 429.422064,11.7725803 C428.832164,11.7725803 428.304367,11.9455133 427.838656,12.2913843 C427.372946,12.6372554 426.977098,13.0912044 426.651101,13.6532448 C426.325103,14.2152853 426.074141,14.8565783 425.898206,15.577143 C425.722271,16.2977077 425.634305,17.0326727 425.634305,17.78206 Z M445.426899,10.1080842 L445.426899,25.4560359 L444.029775,25.4560359 L444.029775,18.4737987 L437.960046,18.4737987 L437.960046,25.4560359 L436.562921,25.4560359 L436.562921,10.1080842 L437.960046,10.1080842 L437.960046,16.744452 L444.029775,16.744452 L444.029775,10.1080842 L445.426899,10.1080842 Z M447.382873,17.6739758 C447.382873,16.751653 447.499299,15.8329468 447.732154,14.9178296 C447.965009,14.0027124 448.306525,13.1812809 448.756712,12.4535106 C449.206899,11.7257402 449.757981,11.1384888 450.409976,10.6917387 C451.06197,10.2449885 451.801921,10.0216168 452.629851,10.0216168 C453.613018,10.0216168 454.456458,10.331455 455.160198,10.9511407 C455.863939,11.5708263 456.386561,12.3778467 456.728082,13.372226 L455.625907,14.3666003 C455.460321,13.8766163 455.261103,13.4659006 455.028248,13.1344408 C454.795393,12.8029811 454.541843,12.5363761 454.267591,12.334618 C453.99334,12.1328599 453.71133,11.9887491 453.421555,11.9022813 C453.13178,11.8158136 452.847183,11.7725803 452.567757,11.7725803 C451.957159,11.7725803 451.416425,11.949116 450.94554,12.3021928 C450.474655,12.6552695 450.078807,13.116424 449.757984,13.6856701 C449.437162,14.2549162 449.196548,14.8962092 449.036137,15.6095683 C448.875726,16.3229273 448.795521,17.0398785 448.795521,17.7604432 C448.795521,18.5674757 448.891249,19.3348656 449.082708,20.0626359 C449.274166,20.7904063 449.540652,21.435302 449.882173,21.9973425 C450.223694,22.559383 450.627304,23.0061264 451.093014,23.3375862 C451.558725,23.669046 452.065824,23.8347734 452.614328,23.8347734 C452.904103,23.8347734 453.201636,23.7843346 453.506935,23.6834555 C453.812234,23.5825765 454.104592,23.4204518 454.384018,23.1970768 C454.663445,22.9737017 454.924756,22.6926857 455.16796,22.3540203 C455.411165,22.0153549 455.610382,21.6082419 455.765619,21.1326692 L456.929889,22.0189593 C456.753954,22.5954111 456.508166,23.1034016 456.192518,23.5429461 C455.87687,23.9824906 455.519831,24.3535758 455.121389,24.656213 C454.722948,24.9588502 454.301228,25.1894275 453.856216,25.3479517 C453.411204,25.5064759 452.976547,25.5857369 452.552233,25.5857369 C451.796747,25.5857369 451.103367,25.3551596 450.47207,24.8939982 C449.840774,24.4328368 449.294866,23.8311743 448.83433,23.0889926 C448.373794,22.3468109 448.016755,21.5037629 447.763201,20.5598231 C447.509648,19.6158833 447.382873,18.6539439 447.382873,17.6739758 Z M459.988039,25.6073537 C459.791406,25.6073537 459.574078,25.5821343 459.336048,25.5316948 C459.098018,25.4812552 458.896213,25.4055971 458.730627,25.304718 L458.730627,23.6402219 C458.906562,23.7411009 459.100605,23.8131563 459.312762,23.8563902 C459.524919,23.8996241 459.718963,23.9212407 459.894898,23.9212407 C460.246768,23.9212407 460.559824,23.7699244 460.834076,23.4672872 C461.108327,23.16465 461.379988,22.5665903 461.649065,21.67309 L457.643975,10.1080842 L459.118717,10.1080842 L462.301056,19.5546403 L465.312635,10.1080842 L466.787378,10.1080842 L462.906477,21.7811742 C462.678796,22.4729163 462.456293,23.0601677 462.238962,23.5429461 C462.02163,24.0257245 461.799127,24.4220291 461.571447,24.7318719 C461.343766,25.0417148 461.100565,25.2650865 460.841837,25.4019938 C460.583109,25.5389011 460.298513,25.6073537 459.988039,25.6073537 Z M471.165034,14.3882172 C471.040844,16.3769758 470.88561,18.077483 470.699326,19.4897898 C470.513041,20.9020967 470.269841,22.0621885 469.969716,22.9701 C469.669592,23.8780116 469.309965,24.5445239 468.890826,24.9696571 C468.471686,25.3947903 467.967174,25.6073537 467.377274,25.6073537 L467.128897,23.7266892 C467.346228,23.7122779 467.553208,23.6582363 467.749841,23.5645629 C467.946474,23.4708895 468.127581,23.3015594 468.293167,23.0565674 C468.458753,22.8115753 468.613987,22.4693122 468.758875,22.0297678 C468.903763,21.5902233 469.038299,21.0245885 469.162489,20.3328463 C469.286678,19.6411042 469.39793,18.8016589 469.496246,17.8144853 C469.594563,16.8273116 469.685116,15.6564115 469.767909,14.3017498 L470.016287,10.1080842 L475.853162,10.1080842 L475.853162,25.4560359 L474.456038,25.4560359 L474.456038,11.8374308 L471.32027,11.8374308 L471.165034,14.3882172 Z M478.569793,10.1080842 L479.966917,10.1080842 L479.966917,15.7716945 L482.326505,15.7716945 C482.843961,15.7716945 483.327775,15.8761748 483.777962,16.0851386 C484.228148,16.2941024 484.618822,16.6003378 484.949994,17.003854 C485.281166,17.4073702 485.542477,17.911758 485.733936,18.5170323 C485.925394,19.1223067 486.021122,19.821244 486.021122,20.6138652 C486.021122,21.4064864 485.922807,22.1054237 485.726174,22.710698 C485.529541,23.3159724 485.263055,23.8203601 484.926708,24.2238764 C484.590362,24.6273926 484.197101,24.933628 483.746914,25.1425918 C483.296728,25.3515555 482.823262,25.4560359 482.326505,25.4560359 L478.569793,25.4560359 L478.569793,10.1080842 Z M479.966917,23.7699229 L482.326505,23.7699229 C483.09234,23.7699229 483.66412,23.4853041 484.041863,22.9160579 C484.419606,22.3468118 484.608474,21.5794219 484.608474,20.6138652 C484.608474,19.6483085 484.411844,18.8809186 484.018577,18.3116724 C483.625311,17.7424263 483.061292,17.4578075 482.326505,17.4578075 L479.966917,17.4578075 L479.966917,23.7699229 Z M495.723374,11.8374308 L491.920092,11.8374308 L491.920092,25.4560359 L490.522967,25.4560359 L490.522967,11.8374308 L486.719684,11.8374308 L486.719684,10.1080842 L495.723374,10.1080842 L495.723374,11.8374308 Z M498.734954,22.4945297 L505.115155,10.1080842 L506.263901,10.1080842 L506.263901,25.4560359 L504.866777,25.4560359 L504.866777,13.2857587 L498.595241,25.4560359 L497.337829,25.4560359 L497.337829,10.1080842 L498.734954,10.1080842 L498.734954,22.4945297 Z M508.965008,25.4560359 L508.965008,10.1080842 L513.559995,10.1080842 C514.046404,10.1080842 514.493996,10.2485922 514.902787,10.5296124 C515.311577,10.8106327 515.663442,11.1853207 515.958392,11.6536878 C516.253342,12.1220548 516.483606,12.6480592 516.649192,13.2317166 C516.814778,13.815374 516.89757,14.409831 516.89757,15.0151053 C516.89757,15.6492023 516.819952,16.2616731 516.664716,16.8525362 C516.509479,17.4433992 516.289563,17.9694036 516.004962,18.430565 C515.720362,18.8917264 515.378846,19.2592089 514.980405,19.5330235 C514.581963,19.8068381 514.139545,19.9437433 513.653137,19.9437433 L510.362133,19.9437433 L510.362133,25.4560359 L508.965008,25.4560359 Z M510.362133,18.2143967 L513.575519,18.2143967 C513.865294,18.2143967 514.126605,18.131533 514.35946,17.9658031 C514.592316,17.8000732 514.791533,17.569496 514.957119,17.2740644 C515.122705,16.9786329 515.252067,16.6363698 515.345209,16.2472648 C515.438351,15.8581599 515.484922,15.4474442 515.484922,15.0151053 C515.484922,14.5683552 515.43059,14.150434 515.321924,13.761329 C515.213258,13.3722241 515.068373,13.0335637 514.887263,12.7453378 C514.706153,12.457112 514.494,12.2337402 514.250795,12.075216 C514.007591,11.9166918 513.751454,11.8374308 513.482377,11.8374308 L510.362133,11.8374308 L510.362133,18.2143967 Z M523.122535,25.56412 C522.346351,25.56412 521.640034,25.3443511 521.003563,24.9048066 C520.367092,24.4652621 519.821184,23.8816135 519.365823,23.1538431 C518.910461,22.4260727 518.558596,21.593833 518.310218,20.6570988 C518.061839,19.7203647 517.937651,18.762028 517.937651,17.78206 C517.937651,16.7588581 518.0696,15.7789048 518.333503,14.8421707 C518.597406,13.9054365 518.962207,13.0767996 519.427917,12.3562348 C519.893627,11.6356701 520.44471,11.0628298 521.081181,10.6376966 C521.717652,10.2125634 522.408445,10 523.153582,10 C523.929766,10 524.633496,10.2269745 525.264792,10.6809303 C525.896088,11.134886 526.439409,11.729343 526.89477,12.464319 C527.350132,13.199295 527.701996,14.0315348 527.950375,14.9610633 C528.198754,15.8905917 528.322942,16.8381201 528.322942,17.8036768 C528.322942,18.8268787 528.190993,19.8068321 527.92709,20.7435662 C527.663187,21.6803003 527.300974,22.5053345 526.840438,23.2186936 C526.379902,23.9320527 525.831407,24.5012903 525.194936,24.9264234 C524.558465,25.3515566 523.867671,25.56412 523.122535,25.56412 Z M519.350299,17.78206 C519.350299,18.5602699 519.440852,19.3132487 519.621962,20.0410191 C519.803072,20.7687895 520.059209,21.4136852 520.39038,21.9757257 C520.721552,22.5377662 521.119987,22.9845096 521.585698,23.3159694 C522.051408,23.6474291 522.568857,23.8131565 523.138058,23.8131565 C523.727958,23.8131565 524.255755,23.6366208 524.721466,23.2835441 C525.187176,22.9304674 525.583024,22.4693129 525.909022,21.9000668 C526.235019,21.3308206 526.483394,20.6859249 526.654154,19.9653602 C526.824915,19.2447955 526.910294,18.517036 526.910294,17.78206 C526.910294,17.0038501 526.81974,16.2508713 526.638631,15.5231009 C526.457521,14.7953306 526.198797,14.1540376 525.862451,13.5992028 C525.526104,13.0443679 525.127669,12.6012273 524.667133,12.2697675 C524.206597,11.9383077 523.696911,11.7725803 523.138058,11.7725803 C522.548158,11.7725803 522.020361,11.9455133 521.554651,12.2913843 C521.08894,12.6372554 520.693092,13.0912044 520.367095,13.6532448 C520.041098,14.2152853 519.790135,14.8565783 519.6142,15.577143 C519.438265,16.2977077 519.350299,17.0326727 519.350299,17.78206 Z M538.428808,21.5001553 C538.428808,22.0910184 538.343429,22.6314338 538.172668,23.1214179 C538.001908,23.6114019 537.769056,24.0293231 537.474106,24.3751942 C537.179156,24.7210652 536.83764,24.9876702 536.449548,25.175017 C536.061456,25.3623638 535.64491,25.4560359 535.199898,25.4560359 L529.968444,25.4560359 L529.968444,10.1080842 L535.448276,10.1080842 C535.831193,10.1080842 536.177884,10.2233728 536.488357,10.4539535 C536.798831,10.6845342 537.06273,10.9835641 537.280061,11.3510521 C537.497393,11.7185401 537.665563,12.1364614 537.784578,12.6048284 C537.903593,13.0731955 537.9631,13.5451583 537.9631,14.020731 C537.9631,14.7845296 537.825976,15.4906724 537.551724,16.1391807 C537.277472,16.7876889 536.886799,17.27046 536.379692,17.5875085 C537.010988,17.8469118 537.510326,18.3260802 537.87772,19.0250279 C538.245114,19.7239757 538.428808,20.5490099 538.428808,21.5001553 Z M537.01616,21.154286 C537.01616,20.808415 536.972177,20.4733574 536.884209,20.1491033 C536.796242,19.8248491 536.677229,19.5402303 536.527166,19.2952383 C536.377104,19.0502463 536.198584,18.8556968 535.991602,18.7115838 C535.78462,18.5674709 535.556942,18.4954155 535.308563,18.4954155 L531.365568,18.4954155 L531.365568,23.7699229 L535.199898,23.7699229 C535.458626,23.7699229 535.696652,23.6978675 535.913984,23.5537545 C536.131316,23.4096416 536.322771,23.2186948 536.488357,22.9809084 C536.653943,22.7431221 536.783305,22.4657088 536.876447,22.1486603 C536.969589,21.8316119 537.01616,21.5001571 537.01616,21.154286 Z M531.365568,11.7941972 L531.365568,16.9173867 L534.873903,16.9173867 C535.122281,16.9173867 535.349959,16.8489341 535.556941,16.7120268 C535.763924,16.5751195 535.942443,16.3913782 536.092505,16.1607975 C536.242568,15.9302168 536.361581,15.6600091 536.449548,15.3501663 C536.537516,15.0403234 536.581499,14.7124714 536.581499,14.3666003 C536.581499,14.006318 536.540103,13.6676576 536.45731,13.3506092 C536.374517,13.0335607 536.263266,12.7597502 536.123553,12.5291695 C535.983839,12.2985888 535.813082,12.1184503 535.611274,11.9887487 C535.409466,11.859047 535.194725,11.7941972 534.967044,11.7941972 L531.365568,11.7941972 Z M544.048352,10.1080842 L545.228146,10.1080842 L549.729991,25.4560359 L548.239725,25.4560359 L546.935742,20.9597345 L542.309709,20.9597345 L541.02125,25.4560359 L539.530984,25.4560359 L544.048352,10.1080842 Z M546.62527,19.4465562 L544.638249,12.3562348 L542.589133,19.4465562 L546.62527,19.4465562 Z M559.152818,11.8374308 L555.349536,11.8374308 L555.349536,25.4560359 L553.952411,25.4560359 L553.952411,11.8374308 L550.149128,11.8374308 L550.149128,10.1080842 L559.152818,10.1080842 L559.152818,11.8374308 Z M560.767273,10.1080842 L562.164398,10.1080842 L562.164398,15.7716945 L564.523985,15.7716945 C565.041441,15.7716945 565.525255,15.8761748 565.975442,16.0851386 C566.425629,16.2941024 566.816302,16.6003378 567.147474,17.003854 C567.478646,17.4073702 567.739957,17.911758 567.931416,18.5170323 C568.122875,19.1223067 568.218603,19.821244 568.218603,20.6138652 C568.218603,21.4064864 568.120288,22.1054237 567.923654,22.710698 C567.727021,23.3159724 567.460535,23.8203601 567.124189,24.2238764 C566.787842,24.6273926 566.394582,24.933628 565.944395,25.1425918 C565.494208,25.3515555 565.020743,25.4560359 564.523985,25.4560359 L560.767273,25.4560359 L560.767273,10.1080842 Z M562.164398,23.7699229 L564.523985,23.7699229 C565.28982,23.7699229 565.861601,23.4853041 566.239343,22.9160579 C566.617086,22.3468118 566.805955,21.5794219 566.805955,20.6138652 C566.805955,19.6483085 566.609325,18.8809186 566.216058,18.3116724 C565.822791,17.7424263 565.258773,17.4578075 564.523985,17.4578075 L562.164398,17.4578075 L562.164398,23.7699229 Z M569.258684,17.6739758 C569.258684,16.751653 569.37511,15.8329468 569.607965,14.9178296 C569.840821,14.0027124 570.182336,13.1812809 570.632523,12.4535106 C571.08271,11.7257402 571.633792,11.1384888 572.285787,10.6917387 C572.937782,10.2449885 573.677733,10.0216168 574.505662,10.0216168 C575.488829,10.0216168 576.332269,10.331455 577.03601,10.9511407 C577.73975,11.5708263 578.262373,12.3778467 578.603894,13.372226 L577.501718,14.3666003 C577.336132,13.8766163 577.136914,13.4659006 576.904059,13.1344408 C576.671204,12.8029811 576.417654,12.5363761 576.143402,12.334618 C575.869151,12.1328599 575.587141,11.9887491 575.297366,11.9022813 C575.007591,11.8158136 574.722994,11.7725803 574.443568,11.7725803 C573.83297,11.7725803 573.292236,11.949116 572.821351,12.3021928 C572.350466,12.6552695 571.954618,13.116424 571.633796,13.6856701 C571.312973,14.2549162 571.072359,14.8962092 570.911948,15.6095683 C570.751537,16.3229273 570.671332,17.0398785 570.671332,17.7604432 C570.671332,18.5674757 570.76706,19.3348656 570.958519,20.0626359 C571.149978,20.7904063 571.416463,21.435302 571.757984,21.9973425 C572.099505,22.559383 572.503115,23.0061264 572.968826,23.3375862 C573.434536,23.669046 573.941635,23.8347734 574.490139,23.8347734 C574.779914,23.8347734 575.077447,23.7843346 575.382746,23.6834555 C575.688045,23.5825765 575.980403,23.4204518 576.259829,23.1970768 C576.539256,22.9737017 576.800567,22.6926857 577.043771,22.3540203 C577.286976,22.0153549 577.486193,21.6082419 577.64143,21.1326692 L578.8057,22.0189593 C578.629765,22.5954111 578.383977,23.1034016 578.068329,23.5429461 C577.752681,23.9824906 577.395642,24.3535758 576.997201,24.656213 C576.59876,24.9588502 576.177039,25.1894275 575.732027,25.3479517 C575.287015,25.5064759 574.852358,25.5857369 574.428044,25.5857369 C573.672558,25.5857369 572.979178,25.3551596 572.347881,24.8939982 C571.716585,24.4328368 571.170677,23.8311743 570.710141,23.0889926 C570.249605,22.3468109 569.892566,21.5037629 569.639013,20.5598231 C569.385459,19.6158833 569.258684,18.6539439 569.258684,17.6739758 Z M586.365695,25.4560359 L586.365695,19.5114067 L583.819824,19.5114067 L581.289477,25.4560359 L579.659499,25.4560359 L582.391653,19.2303878 C582.07083,19.0718636 581.773297,18.8448891 581.499046,18.5494576 C581.224794,18.2540261 580.989355,17.911763 580.792722,17.522658 C580.596088,17.1335531 580.443441,16.7084263 580.334775,16.2472648 C580.22611,15.7861034 580.171778,15.3033323 580.171778,14.798937 C580.171778,14.2224852 580.254569,13.6532476 580.420155,13.0912072 C580.585741,12.5291667 580.816006,12.0283817 581.110956,11.5888373 C581.405906,11.1492928 581.75777,10.7926186 582.166561,10.518804 C582.575351,10.2449894 583.022944,10.1080842 583.509352,10.1080842 L587.76282,10.1080842 L587.76282,25.4560359 L586.365695,25.4560359 Z M586.365695,11.8374308 L583.58697,11.8374308 C583.317893,11.8374308 583.061756,11.9166918 582.818552,12.075216 C582.575348,12.2337402 582.363194,12.4463036 582.182084,12.7129126 C582.000975,12.9795215 581.856089,13.2929625 581.747423,13.6532448 C581.638758,14.0135272 581.584425,14.3954208 581.584425,14.798937 C581.584425,15.188042 581.630996,15.56273 581.724138,15.9230123 C581.81728,16.2832947 581.946642,16.6003384 582.112228,16.874153 C582.277814,17.1479676 582.477032,17.3677365 582.709887,17.5334664 C582.942742,17.6991963 583.204053,17.78206 583.493829,17.78206 L586.365695,17.78206 L586.365695,11.8374308 Z M593.646265,17.6739758 C593.646265,16.751653 593.762691,15.8329468 593.995547,14.9178296 C594.228402,14.0027124 594.569918,13.1812809 595.020104,12.4535106 C595.470291,11.7257402 596.021374,11.1384888 596.673368,10.6917387 C597.325363,10.2449885 598.065314,10.0216168 598.893243,10.0216168 C599.87641,10.0216168 600.719851,10.331455 601.423591,10.9511407 C602.127331,11.5708263 602.649954,12.3778467 602.991475,13.372226 L601.889299,14.3666003 C601.723713,13.8766163 601.524495,13.4659006 601.29164,13.1344408 C601.058785,12.8029811 600.805235,12.5363761 600.530984,12.334618 C600.256732,12.1328599 599.974723,11.9887491 599.684947,11.9022813 C599.395172,11.8158136 599.110575,11.7725803 598.831149,11.7725803 C598.220551,11.7725803 597.679817,11.949116 597.208932,12.3021928 C596.738047,12.6552695 596.3422,13.116424 596.021377,13.6856701 C595.700554,14.2549162 595.459941,14.8962092 595.299529,15.6095683 C595.139118,16.3229273 595.058913,17.0398785 595.058913,17.7604432 C595.058913,18.5674757 595.154641,19.3348656 595.3461,20.0626359 C595.537559,20.7904063 595.804045,21.435302 596.145566,21.9973425 C596.487087,22.559383 596.890696,23.0061264 597.356407,23.3375862 C597.822117,23.669046 598.329216,23.8347734 598.87772,23.8347734 C599.167495,23.8347734 599.465028,23.7843346 599.770327,23.6834555 C600.075626,23.5825765 600.367984,23.4204518 600.647411,23.1970768 C600.926837,22.9737017 601.188148,22.6926857 601.431353,22.3540203 C601.674557,22.0153549 601.873775,21.6082419 602.029011,21.1326692 L603.193282,22.0189593 C603.017347,22.5954111 602.771559,23.1034016 602.45591,23.5429461 C602.140262,23.9824906 601.783223,24.3535758 601.384782,24.656213 C600.986341,24.9588502 600.56462,25.1894275 600.119608,25.3479517 C599.674596,25.5064759 599.239939,25.5857369 598.815625,25.5857369 C598.06014,25.5857369 597.366759,25.3551596 596.735463,24.8939982 C596.104166,24.4328368 595.558258,23.8311743 595.097722,23.0889926 C594.637186,22.3468109 594.280147,21.5037629 594.026594,20.5598231 C593.77304,19.6158833 593.646265,18.6539439 593.646265,17.6739758 Z M609.418247,25.56412 C608.642063,25.56412 607.935746,25.3443511 607.299275,24.9048066 C606.662804,24.4652621 606.116896,23.8816135 605.661535,23.1538431 C605.206173,22.4260727 604.854308,21.593833 604.60593,20.6570988 C604.357551,19.7203647 604.233363,18.762028 604.233363,17.78206 C604.233363,16.7588581 604.365312,15.7789048 604.629215,14.8421707 C604.893117,13.9054365 605.257919,13.0767996 605.723629,12.3562348 C606.189339,11.6356701 606.740422,11.0628298 607.376893,10.6376966 C608.013364,10.2125634 608.704157,10 609.449294,10 C610.225478,10 610.929208,10.2269745 611.560504,10.6809303 C612.1918,11.134886 612.735121,11.729343 613.190482,12.464319 C613.645844,13.199295 613.997708,14.0315348 614.246087,14.9610633 C614.494466,15.8905917 614.618654,16.8381201 614.618654,17.8036768 C614.618654,18.8268787 614.486704,19.8068321 614.222802,20.7435662 C613.958899,21.6803003 613.596686,22.5053345 613.13615,23.2186936 C612.675614,23.9320527 612.127119,24.5012903 611.490648,24.9264234 C610.854177,25.3515566 610.163383,25.56412 609.418247,25.56412 Z M605.646011,17.78206 C605.646011,18.5602699 605.736564,19.3132487 605.917674,20.0410191 C606.098784,20.7687895 606.354921,21.4136852 606.686092,21.9757257 C607.017264,22.5377662 607.415699,22.9845096 607.88141,23.3159694 C608.34712,23.6474291 608.864569,23.8131565 609.43377,23.8131565 C610.02367,23.8131565 610.551467,23.6366208 611.017178,23.2835441 C611.482888,22.9304674 611.878736,22.4693129 612.204733,21.9000668 C612.530731,21.3308206 612.779106,20.6859249 612.949866,19.9653602 C613.120627,19.2447955 613.206006,18.517036 613.206006,17.78206 C613.206006,17.0038501 613.115452,16.2508713 612.934343,15.5231009 C612.753233,14.7953306 612.494509,14.1540376 612.158163,13.5992028 C611.821816,13.0443679 611.423381,12.6012273 610.962845,12.2697675 C610.502309,11.9383077 609.992623,11.7725803 609.43377,11.7725803 C608.84387,11.7725803 608.316073,11.9455133 607.850363,12.2913843 C607.384652,12.6372554 606.988804,13.0912044 606.662807,13.6532448 C606.33681,14.2152853 606.085847,14.8565783 605.909912,15.577143 C605.733977,16.2977077 605.646011,17.0326727 605.646011,17.78206 Z M619.756967,17.6739758 C619.756967,16.751653 619.873392,15.8329468 620.106248,14.9178296 C620.339103,14.0027124 620.680619,13.1812809 621.130805,12.4535106 C621.580992,11.7257402 622.132075,11.1384888 622.784069,10.6917387 C623.436064,10.2449885 624.176015,10.0216168 625.003945,10.0216168 C625.987111,10.0216168 626.830552,10.331455 627.534292,10.9511407 C628.238032,11.5708263 628.760655,12.3778467 629.102176,13.372226 L628,14.3666003 C627.834414,13.8766163 627.635196,13.4659006 627.402341,13.1344408 C627.169486,12.8029811 626.915936,12.5363761 626.641685,12.334618 C626.367433,12.1328599 626.085424,11.9887491 625.795648,11.9022813 C625.505873,11.8158136 625.221276,11.7725803 624.94185,11.7725803 C624.331252,11.7725803 623.790519,11.949116 623.319634,12.3021928 C622.848749,12.6552695 622.452901,13.116424 622.132078,13.6856701 C621.811255,14.2549162 621.570642,14.8962092 621.41023,15.6095683 C621.249819,16.3229273 621.169614,17.0398785 621.169614,17.7604432 C621.169614,18.5674757 621.265342,19.3348656 621.456801,20.0626359 C621.64826,20.7904063 621.914746,21.435302 622.256267,21.9973425 C622.597788,22.559383 623.001397,23.0061264 623.467108,23.3375862 C623.932818,23.669046 624.439918,23.8347734 624.988421,23.8347734 C625.278196,23.8347734 625.575729,23.7843346 625.881028,23.6834555 C626.186327,23.5825765 626.478685,23.4204518 626.758112,23.1970768 C627.037538,22.9737017 627.298849,22.6926857 627.542054,22.3540203 C627.785258,22.0153549 627.984476,21.6082419 628.139712,21.1326692 L629.303983,22.0189593 C629.128048,22.5954111 628.88226,23.1034016 628.566612,23.5429461 C628.250963,23.9824906 627.893924,24.3535758 627.495483,24.656213 C627.097042,24.9588502 626.675321,25.1894275 626.230309,25.3479517 C625.785297,25.5064759 625.35064,25.5857369 624.926327,25.5857369 C624.170841,25.5857369 623.47746,25.3551596 622.846164,24.8939982 C622.214867,24.4328368 621.668959,23.8311743 621.208423,23.0889926 C620.747888,22.3468109 620.390848,21.5037629 620.137295,20.5598231 C619.883741,19.6158833 619.756967,18.6539439 619.756967,17.6739758 Z M631.073673,10.1080842 L639.860033,10.1080842 L639.860033,25.4560359 L638.462909,25.4560359 L638.462909,11.8374308 L632.470798,11.8374308 L632.470798,25.4560359 L631.073673,25.4560359 L631.073673,10.1080842 Z M650.043517,23.7266892 L650.043517,25.4560359 L642.56114,25.4560359 L642.56114,10.1080842 L649.903805,10.1080842 L649.903805,11.8374308 L643.958264,11.8374308 L643.958264,16.8093025 L649.127624,16.8093025 L649.127624,18.430565 L643.958264,18.430565 L643.958264,23.7266892 L650.043517,23.7266892 Z M660.537473,25.4560359 L651.983967,25.4560359 L651.983967,10.1080842 L653.381092,10.1080842 L653.381092,23.7266892 L658.674641,23.7266892 L658.674641,10.1080842 L660.071765,10.1080842 L660.071765,23.7266892 L661.779361,23.7266892 L661.779361,29.4767669 L660.537473,29.4767669 L660.537473,25.4560359 Z M664.79094,22.4945297 L671.171141,10.1080842 L672.319888,10.1080842 L672.319888,25.4560359 L670.922764,25.4560359 L670.922764,13.2857587 L664.651228,25.4560359 L663.393816,25.4560359 L663.393816,10.1080842 L664.79094,10.1080842 L664.79094,22.4945297 Z M678.343046,10.1080842 L679.52284,10.1080842 L684.024685,25.4560359 L682.534419,25.4560359 L681.230436,20.9597345 L676.604403,20.9597345 L675.315944,25.4560359 L673.825678,25.4560359 L678.343046,10.1080842 Z M680.919964,19.4465562 L678.932943,12.3562348 L676.883827,19.4465562 L680.919964,19.4465562 Z M688.324723,14.3882172 C688.200534,16.3769758 688.045299,18.077483 687.859015,19.4897898 C687.672731,20.9020967 687.42953,22.0621885 687.129406,22.9701 C686.829281,23.8780116 686.469655,24.5445239 686.050515,24.9696571 C685.631376,25.3947903 685.126864,25.6073537 684.536964,25.6073537 L684.288586,23.7266892 C684.505918,23.7122779 684.712897,23.6582363 684.90953,23.5645629 C685.106164,23.4708895 685.287271,23.3015594 685.452857,23.0565674 C685.618443,22.8115753 685.773677,22.4693122 685.918565,22.0297678 C686.063452,21.5902233 686.197989,21.0245885 686.322178,20.3328463 C686.446368,19.6411042 686.557619,18.8016589 686.655936,17.8144853 C686.754253,16.8273116 686.844806,15.6564115 686.927599,14.3017498 L687.175977,10.1080842 L693.012852,10.1080842 L693.012852,25.4560359 L691.615727,25.4560359 L691.615727,11.8374308 L688.479959,11.8374308 L688.324723,14.3882172 Z M697.126606,22.4945297 L703.506807,10.1080842 L704.655554,10.1080842 L704.655554,25.4560359 L703.25843,25.4560359 L703.25843,13.2857587 L696.986894,25.4560359 L695.729482,25.4560359 L695.729482,10.1080842 L697.126606,10.1080842 L697.126606,22.4945297 Z M706.611528,17.6739758 C706.611528,16.751653 706.727954,15.8329468 706.960809,14.9178296 C707.193664,14.0027124 707.53518,13.1812809 707.985367,12.4535106 C708.435554,11.7257402 708.986636,11.1384888 709.638631,10.6917387 C710.290625,10.2449885 711.030577,10.0216168 711.858506,10.0216168 C712.841673,10.0216168 713.685113,10.331455 714.388854,10.9511407 C715.092594,11.5708263 715.615217,12.3778467 715.956737,13.372226 L714.854562,14.3666003 C714.688976,13.8766163 714.489758,13.4659006 714.256903,13.1344408 C714.024048,12.8029811 713.770498,12.5363761 713.496246,12.334618 C713.221995,12.1328599 712.939985,11.9887491 712.65021,11.9022813 C712.360435,11.8158136 712.075838,11.7725803 711.796412,11.7725803 C711.185814,11.7725803 710.64508,11.949116 710.174195,12.3021928 C709.70331,12.6552695 709.307462,13.116424 708.98664,13.6856701 C708.665817,14.2549162 708.425203,14.8962092 708.264792,15.6095683 C708.104381,16.3229273 708.024176,17.0398785 708.024176,17.7604432 C708.024176,18.5674757 708.119904,19.3348656 708.311363,20.0626359 C708.502822,20.7904063 708.769307,21.435302 709.110828,21.9973425 C709.452349,22.559383 709.855959,23.0061264 710.321669,23.3375862 C710.78738,23.669046 711.294479,23.8347734 711.842983,23.8347734 C712.132758,23.8347734 712.430291,23.7843346 712.73559,23.6834555 C713.040889,23.5825765 713.333247,23.4204518 713.612673,23.1970768 C713.8921,22.9737017 714.153411,22.6926857 714.396615,22.3540203 C714.63982,22.0153549 714.839037,21.6082419 714.994274,21.1326692 L716.158544,22.0189593 C715.982609,22.5954111 715.736821,23.1034016 715.421173,23.5429461 C715.105525,23.9824906 714.748486,24.3535758 714.350045,24.656213 C713.951603,24.9588502 713.529883,25.1894275 713.084871,25.3479517 C712.639859,25.5064759 712.205202,25.5857369 711.780888,25.5857369 C711.025402,25.5857369 710.332022,25.3551596 709.700725,24.8939982 C709.069429,24.4328368 708.523521,23.8311743 708.062985,23.0889926 C707.602449,22.3468109 707.24541,21.5037629 706.991856,20.5598231 C706.738303,19.6158833 706.611528,18.6539439 706.611528,17.6739758 Z M725.845273,11.8374308 L722.04199,11.8374308 L722.04199,25.4560359 L720.644866,25.4560359 L720.644866,11.8374308 L716.841583,11.8374308 L716.841583,10.1080842 L725.845273,10.1080842 L725.845273,11.8374308 Z M731.915002,25.56412 C731.138818,25.56412 730.432501,25.3443511 729.79603,24.9048066 C729.159559,24.4652621 728.613651,23.8816135 728.15829,23.1538431 C727.702929,22.4260727 727.351064,21.593833 727.102685,20.6570988 C726.854306,19.7203647 726.730118,18.762028 726.730118,17.78206 C726.730118,16.7588581 726.862068,15.7789048 727.12597,14.8421707 C727.389873,13.9054365 727.754674,13.0767996 728.220384,12.3562348 C728.686095,11.6356701 729.237177,11.0628298 729.873648,10.6376966 C730.510119,10.2125634 731.200912,10 731.946049,10 C732.722233,10 733.425963,10.2269745 734.057259,10.6809303 C734.688556,11.134886 735.231876,11.729343 735.687238,12.464319 C736.142599,13.199295 736.494464,14.0315348 736.742843,14.9610633 C736.991221,15.8905917 737.115409,16.8381201 737.115409,17.8036768 C737.115409,18.8268787 736.98346,19.8068321 736.719557,20.7435662 C736.455655,21.6803003 736.093441,22.5053345 735.632905,23.2186936 C735.172369,23.9320527 734.623874,24.5012903 733.987403,24.9264234 C733.350932,25.3515566 732.660139,25.56412 731.915002,25.56412 Z M728.142766,17.78206 C728.142766,18.5602699 728.23332,19.3132487 728.414429,20.0410191 C728.595539,20.7687895 728.851676,21.4136852 729.182848,21.9757257 C729.51402,22.5377662 729.912455,22.9845096 730.378165,23.3159694 C730.843876,23.6474291 731.361324,23.8131565 731.930526,23.8131565 C732.520425,23.8131565 733.048223,23.6366208 733.513933,23.2835441 C733.979644,22.9304674 734.375491,22.4693129 734.701489,21.9000668 C735.027486,21.3308206 735.275861,20.6859249 735.446622,19.9653602 C735.617382,19.2447955 735.702761,18.517036 735.702761,17.78206 C735.702761,17.0038501 735.612208,16.2508713 735.431098,15.5231009 C735.249988,14.7953306 734.991264,14.1540376 734.654918,13.5992028 C734.318572,13.0443679 733.920136,12.6012273 733.4596,12.2697675 C732.999065,11.9383077 732.489378,11.7725803 731.930526,11.7725803 C731.340626,11.7725803 730.812828,11.9455133 730.347118,12.2913843 C729.881408,12.6372554 729.48556,13.0912044 729.159562,13.6532448 C728.833565,14.2152853 728.582603,14.8565783 728.406668,15.577143 C728.230732,16.2977077 728.142766,17.0326727 728.142766,17.78206 Z M748.602876,25.4560359 L748.602876,13.5883943 L744.939305,22.6890812 L744.147601,22.6890812 L740.468507,13.5883943 L740.468507,25.4560359 L739.071383,25.4560359 L739.071383,10.1080842 L740.546125,10.1080842 L744.535692,20.0734443 L748.540781,10.1080842 L750,10.1080842 L750,25.4560359 L748.602876,25.4560359 Z" id="ИМЕЮТСЯ-ПРОТИВОПОКАЗ-Copy-2"></path>
                    </g>
                </g>
            </g>
        </g>
    </g>
</svg>